<?xml version="1.0" ?>
<svg xmlns="http://www.w3.org/2000/svg" version="1.1" width="256" height="256">
  <defs/>
  <g>
    <path d="M 51.27799606323242 175.5753631591797 C 50.01445770263672 178.73475646972656 45.576229095458984 182.2621612548828 43.868614196777344 181.61363220214844 C 42.545291900634766 182.22840881347656 39.85328674316406 181.54580688476562 38.92766189575195 181.47564697265625 C 36.07896041870117 179.5358123779297 35.97578048706055 178.22056579589844 34.67662811279297 175.33517456054688 L 3.765692949295044 85.80838775634766 Q 2.545128107070923 85.90210723876953 3.3232500553131104 84.47917175292969 Q 3.024839401245117 83.9870376586914 2.423784017562866 84.3455810546875 Q 2.462531566619873 82.88154602050781 2.7947778701782227 82.1825942993164 Q 2.247347593307495 81.79570770263672 2.57474946975708 81.20272827148438 Q 2.5879948139190674 82.0483627319336 2.6583945751190186 81.09748840332031 Q 2.869089365005493 80.42388916015625 3.1212799549102783 80.74847412109375 Q 2.886298179626465 80.57048034667969 2.625734806060791 80.96477508544922 Q 2.9499332904815674 79.33319854736328 2.4086153507232666 79.68122863769531 C 3.1862690448760986 77.22989654541016 3.6552047729492188 76.53446197509766 4.3849334716796875 76.44929504394531 C 6.232790470123291 73.40253448486328 8.260621070861816 75.16752624511719 7.894762992858887 73.9348373413086 Q 13.003392219543457 74.05266571044922 14.882582664489746 73.51903533935547 C 15.80848503112793 74.5915298461914 16.070146560668945 73.82732391357422 15.73671817779541 74.54337310791016 C 16.49750328063965 74.4432144165039 18.366561889648438 75.19943237304688 19.051612854003906 76.69364166259766 C 19.37051773071289 78.72300720214844 20.84406089782715 79.52032470703125 20.63107681274414 80.18092346191406 L 43.753013610839844 146.2122039794922 L 65.35618591308594 81.00482940673828 C 67.21913146972656 78.57024383544922 66.41825866699219 75.66680908203125 66.867431640625 76.43694305419922 Q 68.43209075927734 76.99878692626953 68.07266235351562 75.50402069091797 Q 68.04613494873047 75.14766693115234 69.73455047607422 75.77307891845703 Q 69.54047393798828 74.72066497802734 70.10098266601562 74.58724975585938 Q 71.23515319824219 74.4396743774414 71.79068756103516 74.3713607788086 C 71.50627136230469 74.98137664794922 74.02363586425781 72.7743911743164 73.89231872558594 73.9491195678711 Q 75.42757415771484 74.11601257324219 78.33750915527344 73.8008804321289 C 83.65087890625 74.61139678955078 85.12491607666016 78.73794555664062 83.22168731689453 84.7336654663086 L 51.27799606323242 175.5753631591797" stroke-width="1.0" fill="rgb(0, 37, 4)" opacity="0.5220834"/>
  </g>
</svg>
