<?xml version="1.0" encoding="utf-8" ?>
<svg baseProfile="tiny" height="256" version="1.2" viewBox="0 0 256 256" width="256" xmlns="http://www.w3.org/2000/svg" xmlns:ev="http://www.w3.org/2001/xml-events" xmlns:xlink="http://www.w3.org/1999/xlink"><defs /><path d="M 51.2,175.4 C 49.900000000000006,179.20000000000002 46.1,181.8 43.5,181.8 C 41.0,181.8 39.7,181.8 38.4,180.5 C 37.1,179.2 35.8,177.9 34.6,175.4 C 34.6,175.4 3.8000000000000007,85.80000000000001 3.8000000000000007,85.80000000000001 C 3.6666666666666674,85.46666666666668 3.533333333333334,85.13333333333334 3.400000000000001,84.80000000000001 C 3.2666666666666675,84.53333333333335 3.133333333333334,84.23333333333333 3.000000000000001,83.9 C 2.933333333333334,83.56666666666668 2.8666666666666676,83.23333333333333 2.8000000000000007,82.9 C 2.6666666666666674,82.56666666666668 2.6000000000000005,82.23333333333333 2.6000000000000005,81.9 C 2.5333333333333337,81.7 2.5000000000000004,81.50000000000001 2.5000000000000004,81.30000000000001 C 2.4333333333333336,81.10000000000001 2.4000000000000004,80.86666666666667 2.4000000000000004,80.60000000000001 C 2.4000000000000004,80.4 2.4333333333333336,80.20000000000002 2.5000000000000004,80.00000000000001 C 2.5000000000000004,79.80000000000001 2.5333333333333337,79.60000000000002 2.6000000000000005,79.40000000000002 C 3.8000000000000007,78.10000000000002 3.8000000000000007,76.80000000000003 5.1000000000000005,76.80000000000003 C 6.4,75.50000000000003 7.700000000000001,75.50000000000003 9.0,74.20000000000003 C 10.266666666666667,74.20000000000003 11.533333333333333,74.20000000000003 12.8,74.20000000000003 C 14.100000000000001,74.20000000000003 14.100000000000001,74.20000000000003 15.4,74.20000000000003 C 16.6,74.20000000000003 17.9,75.50000000000003 19.2,76.80000000000003 C 19.2,76.80000000000003 20.5,78.10000000000002 20.5,80.60000000000002 C 20.5,80.60000000000002 43.5,145.90000000000003 43.5,145.90000000000003 C 43.5,145.90000000000003 65.3,80.60000000000004 65.3,80.60000000000004 C 66.6,78.10000000000004 66.6,76.80000000000004 67.8,76.80000000000004 C 68.06666666666666,76.53333333333337 68.36666666666667,76.26666666666671 68.7,76.00000000000004 C 68.96666666666667,75.73333333333338 69.26666666666668,75.50000000000004 69.60000000000001,75.30000000000004 C 69.93333333333334,75.03333333333337 70.26666666666668,74.83333333333337 70.60000000000001,74.70000000000005 C 70.93333333333334,74.50000000000004 71.30000000000001,74.33333333333339 71.7,74.20000000000005 C 71.7,74.20000000000005 73.0,74.20000000000005 74.2,74.20000000000005 C 75.53333333333333,74.20000000000005 76.83333333333334,74.20000000000005 78.10000000000001,74.20000000000005 C 83.2,75.50000000000004 85.80000000000001,79.40000000000005 83.2,84.50000000000004 C 83.2,84.50000000000004 51.2,175.4 51.2,175.4 M 113.9,102.4 C 113.9,105.0 113.9,106.30000000000001 115.2,108.80000000000001 C 116.5,110.10000000000001 119.0,111.4 120.3,112.70000000000002 C 122.89999999999999,113.90000000000002 125.39999999999999,115.20000000000002 126.7,116.50000000000001 C 129.3,116.50000000000001 131.8,117.80000000000001 133.1,119.10000000000001 C 138.2,120.30000000000001 142.1,122.9 144.6,124.2 C 148.5,126.7 151.0,129.3 153.6,131.9 C 154.9,133.1 157.4,135.70000000000002 157.4,139.5 C 158.70000000000002,142.1 158.70000000000002,145.9 158.70000000000002,148.5 C 158.70000000000002,158.7 156.20000000000002,166.4 149.8,172.8 C 143.4,179.20000000000002 134.4,181.8 121.60000000000001,183.10000000000002 C 120.60000000000001,183.10000000000002 119.63333333333334,183.10000000000002 118.7,183.10000000000002 C 117.7,183.03333333333336 116.73333333333333,182.9666666666667 115.8,182.90000000000003 C 114.8,182.7666666666667 113.83333333333333,182.60000000000005 112.89999999999999,182.40000000000003 C 111.96666666666665,182.2666666666667 111.03333333333332,182.06666666666672 110.1,181.80000000000004 C 109.1,181.4666666666667 108.1,181.10000000000005 107.1,180.70000000000005 C 106.1,180.30000000000004 105.13333333333333,179.90000000000006 104.19999999999999,179.50000000000006 C 103.26666666666665,179.10000000000005 102.29999999999998,178.63333333333338 101.29999999999998,178.10000000000005 C 100.36666666666665,177.63333333333338 99.46666666666664,177.1666666666667 98.59999999999998,176.70000000000005 C 95.99999999999999,175.40000000000003 94.69999999999997,174.10000000000005 93.39999999999998,172.80000000000004 C 92.99999999999999,172.4666666666667 92.63333333333331,172.10000000000005 92.29999999999998,171.70000000000005 C 91.96666666666665,171.30000000000004 91.63333333333331,170.8666666666667 91.29999999999998,170.40000000000003 C 90.96666666666665,170.00000000000003 90.66666666666664,169.5666666666667 90.39999999999998,169.10000000000002 C 90.13333333333331,168.63333333333335 89.86666666666665,168.16666666666669 89.59999999999998,167.70000000000002 C 89.39999999999998,167.3 89.23333333333332,166.90000000000003 89.09999999999998,166.50000000000003 C 88.89999999999998,166.10000000000002 88.76666666666665,165.66666666666669 88.69999999999997,165.20000000000002 C 88.56666666666663,164.8 88.46666666666664,164.36666666666667 88.39999999999998,163.9 C 88.33333333333331,163.43333333333334 88.29999999999998,163.0 88.29999999999998,162.6 C 88.29999999999998,161.29999999999998 89.59999999999998,160.0 89.59999999999998,158.7 C 90.89999999999998,156.2 93.39999999999998,154.89999999999998 94.69999999999997,154.89999999999998 C 97.29999999999997,154.89999999999998 98.59999999999998,154.89999999999998 99.79999999999997,156.2 C 102.39999999999996,157.5 103.69999999999997,158.7 104.99999999999997,158.7 C 106.19999999999997,160.0 108.79999999999997,161.29999999999998 110.09999999999997,162.6 C 112.59999999999997,163.9 113.89999999999996,163.9 116.49999999999997,165.1 C 117.79999999999997,165.1 120.29999999999997,165.1 122.89999999999998,165.1 C 125.39999999999998,165.1 126.69999999999997,165.1 129.29999999999998,165.1 C 129.76666666666665,164.89999999999998 130.23333333333332,164.66666666666666 130.7,164.4 C 131.16666666666666,164.13333333333333 131.6,163.83333333333334 132.0,163.5 C 132.46666666666667,163.16666666666666 132.9,162.8 133.3,162.4 C 133.70000000000002,162.06666666666666 134.06666666666666,161.70000000000002 134.4,161.3 C 135.70000000000002,160.0 137.0,158.70000000000002 138.20000000000002,156.20000000000002 C 138.20000000000002,154.9 139.50000000000003,152.3 139.50000000000003,149.8 C 139.50000000000003,147.20000000000002 138.20000000000002,145.9 137.00000000000003,143.4 C 136.66666666666669,143.0 136.3666666666667,142.63333333333335 136.10000000000002,142.3 C 135.76666666666668,141.96666666666667 135.4666666666667,141.63333333333335 135.20000000000002,141.3 C 134.86666666666667,141.03333333333333 134.53333333333336,140.73333333333335 134.20000000000002,140.4 C 133.86666666666667,140.13333333333333 133.50000000000003,139.83333333333334 133.10000000000002,139.5 C 132.76666666666668,139.16666666666666 132.3666666666667,138.8 131.90000000000003,138.4 C 131.50000000000003,138.06666666666666 131.10000000000005,137.73333333333335 130.70000000000005,137.4 C 130.30000000000004,137.13333333333333 129.8666666666667,136.83333333333334 129.40000000000003,136.5 C 128.93333333333337,136.23333333333332 128.4666666666667,135.96666666666667 128.00000000000003,135.7 C 127.60000000000004,135.4333333333333 127.20000000000003,135.2 126.80000000000003,135.0 C 126.33333333333336,134.79999999999998 125.90000000000002,134.56666666666666 125.50000000000003,134.3 C 125.03333333333336,134.1 124.60000000000002,133.9 124.20000000000003,133.70000000000002 C 123.73333333333336,133.5 123.30000000000003,133.3 122.90000000000003,133.10000000000002 C 121.90000000000003,132.76666666666668 120.93333333333337,132.40000000000003 120.00000000000003,132.00000000000003 C 119.00000000000003,131.60000000000002 118.03333333333336,131.16666666666669 117.10000000000002,130.70000000000002 C 116.10000000000002,130.3 115.13333333333335,129.86666666666667 114.20000000000002,129.4 C 113.26666666666668,128.93333333333334 112.33333333333334,128.46666666666667 111.40000000000002,128.0 C 110.60000000000002,127.66666666666667 109.80000000000001,127.33333333333333 109.00000000000001,127.0 C 108.20000000000002,126.60000000000001 107.43333333333335,126.16666666666667 106.70000000000002,125.7 C 105.96666666666668,125.30000000000001 105.23333333333335,124.86666666666667 104.50000000000001,124.4 C 103.76666666666668,123.93333333333334 103.06666666666669,123.43333333333334 102.40000000000002,122.9 C 101.73333333333335,122.3 101.10000000000002,121.63333333333334 100.50000000000001,120.9 C 99.83333333333334,120.23333333333333 99.23333333333335,119.53333333333335 98.70000000000002,118.80000000000001 C 98.16666666666669,118.00000000000001 97.66666666666669,117.2 97.20000000000002,116.4 C 96.80000000000003,115.60000000000001 96.40000000000002,114.76666666666667 96.00000000000001,113.9 C 93.40000000000002,110.10000000000001 93.40000000000002,106.30000000000001 93.40000000000002,102.4 C 93.40000000000002,97.30000000000001 93.40000000000002,93.5 96.00000000000001,89.60000000000001 C 96.46666666666668,88.73333333333335 96.96666666666668,87.9 97.50000000000001,87.10000000000001 C 98.10000000000002,86.23333333333335 98.70000000000002,85.43333333333334 99.30000000000001,84.7 C 99.96666666666668,83.96666666666667 100.66666666666667,83.26666666666668 101.4,82.60000000000001 C 102.13333333333334,81.93333333333334 102.9,81.30000000000001 103.7,80.7 C 104.5,79.96666666666667 105.36666666666667,79.30000000000001 106.3,78.7 C 107.23333333333333,78.03333333333333 108.16666666666667,77.43333333333334 109.1,76.9 C 110.1,76.36666666666667 111.1,75.86666666666667 112.1,75.4 C 113.1,75.00000000000001 114.13333333333333,74.63333333333334 115.19999999999999,74.30000000000001 C 116.13333333333333,74.03333333333335 117.06666666666666,73.80000000000001 117.99999999999999,73.60000000000001 C 118.99999999999999,73.46666666666667 119.96666666666665,73.33333333333334 120.89999999999999,73.2 C 121.89999999999999,73.06666666666666 122.86666666666666,73.0 123.8,73.0 C 124.8,72.93333333333334 125.76666666666667,72.93333333333334 126.7,73.0 C 131.8,73.0 135.7,74.3 139.5,75.5 C 144.6,76.8 147.2,78.1 149.8,80.7 C 152.3,83.2 154.9,84.5 156.20000000000002,87.10000000000001 C 156.20000000000002,89.60000000000001 156.20000000000002,92.2 154.9,94.7 C 154.7,94.96666666666667 154.53333333333333,95.23333333333333 154.4,95.5 C 154.2,95.7 154.0,95.93333333333334 153.8,96.2 C 153.53333333333333,96.4 153.3,96.6 153.10000000000002,96.8 C 152.83333333333334,97.0 152.5666666666667,97.16666666666666 152.3,97.3 C 152.03333333333333,97.5 151.73333333333335,97.66666666666666 151.4,97.8 C 151.06666666666666,97.93333333333334 150.76666666666668,98.03333333333333 150.5,98.1 C 150.16666666666666,98.23333333333333 149.83333333333334,98.33333333333333 149.5,98.39999999999999 C 149.16666666666666,98.46666666666665 148.83333333333334,98.53333333333332 148.5,98.6 C 148.5,98.6 147.2,98.6 145.9,98.6 C 145.7,98.53333333333333 145.46666666666667,98.46666666666667 145.20000000000002,98.39999999999999 C 145.0,98.33333333333333 144.76666666666668,98.23333333333333 144.50000000000003,98.1 C 144.3,98.03333333333333 144.10000000000002,97.93333333333334 143.90000000000003,97.8 C 143.70000000000002,97.6 143.53333333333336,97.43333333333334 143.40000000000003,97.3 C 142.10000000000002,96.0 140.80000000000004,96.0 139.50000000000003,94.7 C 139.23333333333335,94.5 138.93333333333337,94.30000000000001 138.60000000000002,94.10000000000001 C 138.26666666666668,93.83333333333334 137.93333333333337,93.60000000000001 137.60000000000002,93.4 C 137.33333333333334,93.2 137.03333333333336,93.00000000000001 136.70000000000002,92.80000000000001 C 136.36666666666667,92.60000000000001 136.03333333333336,92.40000000000002 135.70000000000002,92.20000000000002 C 135.3,92.06666666666668 134.86666666666667,91.93333333333335 134.4,91.80000000000001 C 134.0,91.66666666666667 133.56666666666666,91.53333333333335 133.1,91.4 C 132.7,91.33333333333334 132.3,91.23333333333335 131.9,91.10000000000001 C 131.43333333333334,91.03333333333335 131.0,90.96666666666668 130.6,90.9 C 130.13333333333333,90.7 129.7,90.53333333333335 129.29999999999998,90.4 C 128.89999999999998,90.26666666666667 128.46666666666664,90.16666666666667 127.99999999999999,90.10000000000001 C 127.6,89.96666666666667 127.19999999999999,89.86666666666667 126.79999999999998,89.80000000000001 C 126.33333333333331,89.73333333333335 125.86666666666665,89.66666666666669 125.39999999999998,89.60000000000001 C 124.99999999999999,89.60000000000001 124.56666666666665,89.63333333333334 124.09999999999998,89.7 C 123.69999999999999,89.76666666666667 123.26666666666665,89.86666666666666 122.79999999999998,90.0 C 122.39999999999999,90.06666666666666 121.96666666666665,90.2 121.49999999999999,90.4 C 121.1,90.53333333333335 120.69999999999999,90.7 120.29999999999998,90.9 C 119.56666666666665,91.3 118.86666666666666,91.76666666666667 118.19999999999999,92.30000000000001 C 117.53333333333332,92.83333333333334 116.89999999999999,93.43333333333334 116.29999999999998,94.10000000000001 C 115.76666666666665,94.76666666666668 115.29999999999998,95.46666666666667 114.89999999999998,96.2 C 114.49999999999999,96.93333333333334 114.16666666666664,97.73333333333333 113.89999999999998,98.60000000000001 C 113.83333333333331,98.93333333333334 113.79999999999998,99.23333333333335 113.79999999999998,99.50000000000001 C 113.79999999999998,99.83333333333334 113.79999999999998,100.16666666666669 113.79999999999998,100.50000000000001 C 113.79999999999998,100.83333333333334 113.79999999999998,101.16666666666669 113.79999999999998,101.50000000000001 C 113.79999999999998,101.76666666666668 113.83333333333331,102.06666666666669 113.89999999999998,102.40000000000002 C 113.89999999999998,102.40000000000002 113.9,102.4 113.9,102.4 M 218.9,183.10000000000002 C 211.20000000000002,183.10000000000002 204.8,181.8 198.4,179.20000000000002 C 196.86666666666667,178.66666666666669 195.36666666666667,178.03333333333333 193.9,177.3 C 192.36666666666667,176.63333333333335 190.9,175.86666666666667 189.5,175.0 C 188.1,174.13333333333333 186.76666666666668,173.2 185.5,172.2 C 184.16666666666666,171.2 182.93333333333334,170.13333333333333 181.8,169.0 C 176.60000000000002,163.9 172.8,158.7 170.20000000000002,151.1 C 167.66666666666669,144.7 166.4,137.0 166.4,128.0 C 166.4,119.06666666666666 167.66666666666669,111.39999999999999 170.20000000000002,105.0 C 172.8,97.3 176.60000000000002,92.2 180.50000000000003,87.1 C 181.5666666666667,85.96666666666665 182.70000000000002,84.89999999999999 183.90000000000003,83.89999999999999 C 185.10000000000005,82.89999999999999 186.33333333333337,81.96666666666665 187.60000000000002,81.1 C 188.93333333333337,80.23333333333333 190.26666666666668,79.46666666666667 191.60000000000002,78.8 C 193.00000000000003,78.06666666666666 194.4,77.4 195.8,76.8 C 197.46666666666667,76.13333333333333 199.13333333333335,75.56666666666666 200.8,75.1 C 202.46666666666667,74.56666666666666 204.16666666666669,74.13333333333333 205.9,73.8 C 207.63333333333333,73.46666666666667 209.36666666666667,73.23333333333333 211.1,73.1 C 212.83333333333331,72.96666666666665 214.56666666666666,72.93333333333332 216.29999999999998,73.0 C 220.2,73.0 225.29999999999998,73.0 229.1,74.3 C 230.1,74.56666666666666 231.1,74.86666666666667 232.1,75.2 C 233.1,75.6 234.1,76.0 235.1,76.4 C 236.03333333333333,76.86666666666667 236.96666666666667,77.33333333333334 237.9,77.80000000000001 C 238.83333333333334,78.26666666666668 239.73333333333335,78.80000000000001 240.6,79.4 C 243.2,80.7 245.79999999999998,83.2 247.0,84.5 C 248.3,87.1 249.6,88.3 249.6,90.9 C 249.6,92.2 249.6,92.2 249.6,93.5 C 249.6,93.7 249.6,93.89999999999999 249.6,94.1 C 249.6,94.3 249.6,94.49999999999999 249.6,94.69999999999999 C 249.6,94.96666666666665 249.6,95.19999999999999 249.6,95.39999999999999 C 249.6,95.6 249.6,95.79999999999998 249.6,95.99999999999999 C 249.39999999999998,96.13333333333333 249.2,96.26666666666665 249.0,96.39999999999999 C 248.79999999999998,96.53333333333333 248.6,96.66666666666666 248.4,96.8 C 248.13333333333333,96.86666666666666 247.9,96.96666666666665 247.70000000000002,97.1 C 247.5,97.16666666666666 247.26666666666668,97.23333333333332 247.00000000000003,97.3 C 247.00000000000003,98.6 245.80000000000004,98.6 244.50000000000003,98.6 C 244.10000000000002,98.8 243.66666666666669,98.96666666666665 243.20000000000002,99.1 C 242.8,99.23333333333333 242.36666666666667,99.3 241.9,99.3 C 241.43333333333334,99.3 241.0,99.23333333333333 240.6,99.1 C 240.13333333333333,98.96666666666665 239.73333333333335,98.8 239.4,98.6 C 238.8,98.39999999999999 238.23333333333335,98.2 237.70000000000002,98.0 C 237.16666666666669,97.8 236.63333333333335,97.60000000000001 236.10000000000002,97.4 C 235.5666666666667,97.2 235.03333333333336,96.96666666666667 234.50000000000003,96.7 C 233.9666666666667,96.5 233.4666666666667,96.26666666666667 233.00000000000003,96.0 C 232.4666666666667,95.66666666666667 231.93333333333337,95.33333333333333 231.40000000000003,95.0 C 230.8666666666667,94.66666666666667 230.33333333333337,94.33333333333333 229.80000000000004,94.0 C 229.2666666666667,93.66666666666667 228.73333333333338,93.36666666666666 228.20000000000005,93.1 C 227.6666666666667,92.76666666666667 227.13333333333338,92.46666666666665 226.60000000000005,92.19999999999999 C 222.70000000000005,90.89999999999999 220.20000000000005,89.6 215.00000000000006,89.6 C 211.20000000000005,89.6 206.10000000000005,90.89999999999999 202.20000000000005,93.5 C 201.33333333333337,93.96666666666667 200.50000000000003,94.46666666666667 199.70000000000005,95.0 C 198.90000000000006,95.60000000000001 198.13333333333338,96.2 197.40000000000003,96.8 C 196.60000000000005,97.46666666666667 195.8666666666667,98.16666666666666 195.20000000000005,98.89999999999999 C 194.5333333333334,99.63333333333333 193.90000000000003,100.36666666666666 193.30000000000004,101.1 C 192.70000000000005,102.1 192.13333333333338,103.13333333333333 191.60000000000005,104.19999999999999 C 191.06666666666672,105.19999999999999 190.56666666666672,106.23333333333332 190.10000000000005,107.29999999999998 C 189.70000000000005,108.36666666666665 189.3333333333334,109.46666666666664 189.00000000000006,110.59999999999998 C 188.6666666666667,111.66666666666664 188.40000000000006,112.76666666666664 188.20000000000005,113.89999999999998 C 187.80000000000004,115.03333333333332 187.46666666666673,116.19999999999997 187.20000000000005,117.39999999999998 C 186.8666666666667,118.53333333333332 186.60000000000005,119.69999999999997 186.40000000000003,120.89999999999998 C 186.20000000000002,122.09999999999998 186.03333333333336,123.26666666666664 185.90000000000003,124.39999999999998 C 185.7666666666667,125.59999999999998 185.6666666666667,126.79999999999997 185.60000000000002,127.99999999999997 C 185.60000000000002,133.09999999999997 186.90000000000003,136.99999999999997 188.20000000000002,142.09999999999997 C 189.4,147.19999999999996 192.00000000000003,151.09999999999997 194.60000000000002,154.89999999999998 C 195.26666666666668,155.83333333333331 195.9666666666667,156.73333333333332 196.70000000000002,157.59999999999997 C 197.5,158.39999999999995 198.33333333333334,159.19999999999996 199.20000000000002,159.99999999999997 C 200.0666666666667,160.7333333333333 200.9666666666667,161.4333333333333 201.9,162.09999999999997 C 202.83333333333334,162.69999999999996 203.8,163.29999999999998 204.8,163.89999999999998 C 208.60000000000002,165.09999999999997 213.8,166.39999999999998 218.9,166.39999999999998 C 219.56666666666666,166.39999999999998 220.20000000000002,166.36666666666665 220.8,166.29999999999998 C 221.46666666666667,166.23333333333332 222.13333333333335,166.13333333333333 222.8,165.99999999999997 C 223.4,165.86666666666665 224.03333333333336,165.73333333333332 224.70000000000002,165.59999999999997 C 225.3,165.46666666666664 225.93333333333337,165.29999999999998 226.60000000000002,165.09999999999997 C 227.4666666666667,164.96666666666664 228.33333333333337,164.79999999999998 229.20000000000002,164.59999999999997 C 230.13333333333335,164.3333333333333 231.03333333333336,164.0333333333333 231.9,163.69999999999996 C 232.76666666666668,163.36666666666662 233.60000000000002,162.99999999999997 234.4,162.59999999999997 C 235.2,162.19999999999996 236.0,161.76666666666662 236.8,161.29999999999995 C 238.0666666666667,160.03333333333327 239.33333333333334,158.76666666666662 240.60000000000002,157.49999999999994 C 243.20000000000002,156.19999999999993 245.8,156.19999999999993 248.3,156.19999999999993 C 249.60000000000002,157.49999999999994 252.20000000000002,158.69999999999993 252.20000000000002,159.99999999999994 C 253.4,162.59999999999994 253.4,163.89999999999995 253.4,165.09999999999994 C 253.4,166.39999999999995 252.20000000000002,167.69999999999993 250.9,170.29999999999993 C 249.6,172.79999999999993 247.0,174.09999999999994 244.5,176.69999999999993 C 240.6,177.89999999999992 236.8,180.49999999999994 233.0,181.79999999999993 C 229.1,183.09999999999994 224.0,183.09999999999994 218.9,183.09999999999994 C 218.9,183.09999999999994 218.9,183.10000000000002 218.9,183.10000000000002" fill="#fb3" /></svg>