<?xml version="1.0" ?>
<svg xmlns="http://www.w3.org/2000/svg" version="1.1" width="256" height="256">
  <defs/>
  <g>
    <path d="M 51.20000076293945 175.39999389648438 C 49.900001525878906 179.1999969482422 46.099998474121094 181.8000030517578 43.5 181.8000030517578 C 41.0 181.8000030517578 39.70000076293945 181.8000030517578 38.400001525878906 180.5 C 37.099998474121094 179.1999969482422 35.79999923706055 177.89999389648438 34.599998474121094 175.39999389648438 C 34.599998474121094 175.39999389648438 3.799999952316284 85.80000305175781 3.799999952316284 85.80000305175781 C 3.6666667461395264 85.46666717529297 3.5333333015441895 85.13333129882812 3.4000000953674316 84.80000305175781 C 3.2666666507720947 84.53333282470703 3.133333444595337 84.23332977294922 3.0 83.9000015258789 C 2.933333396911621 83.56666564941406 2.866666555404663 83.23332977294922 2.799999952316284 82.9000015258789 C 2.6666667461395264 82.56666564941406 2.5999999046325684 82.23332977294922 2.5999999046325684 81.9000015258789 C 2.5333333015441895 81.69999694824219 2.5 81.5 2.5 81.30000305175781 C 2.433333396911621 81.0999984741211 2.4000000953674316 80.86666870117188 2.4000000953674316 80.5999984741211 C 2.4000000953674316 80.4000015258789 2.433333396911621 80.19999694824219 2.5 80.0 C 2.5 79.80000305175781 2.5333333015441895 79.5999984741211 2.5999999046325684 79.4000015258789 C 3.799999952316284 78.0999984741211 3.799999952316284 76.80000305175781 5.099999904632568 76.80000305175781 C 6.400000095367432 75.5 7.699999809265137 75.5 9.0 74.19999694824219 C 10.266666412353516 74.19999694824219 11.533333778381348 74.19999694824219 12.800000190734863 74.19999694824219 C 14.100000381469727 74.19999694824219 14.100000381469727 74.19999694824219 15.399999618530273 74.19999694824219 C 16.600000381469727 74.19999694824219 17.899999618530273 75.5 19.200000762939453 76.80000305175781 C 19.200000762939453 76.80000305175781 20.5 78.0999984741211 20.5 80.5999984741211 C 20.5 80.5999984741211 43.5 145.89999389648438 43.5 145.89999389648438 C 43.5 145.89999389648438 65.30000305175781 80.5999984741211 65.30000305175781 80.5999984741211 C 66.5999984741211 78.0999984741211 66.5999984741211 76.80000305175781 67.80000305175781 76.80000305175781 C 68.06666564941406 76.53333282470703 68.36666870117188 76.26667022705078 68.69999694824219 76.0 C 68.96666717529297 75.73332977294922 69.26667022705078 75.5 69.5999984741211 75.30000305175781 C 69.93333435058594 75.03333282470703 70.26667022705078 74.83333587646484 70.5999984741211 74.69999694824219 C 70.93333435058594 74.5 71.30000305175781 74.33333587646484 71.69999694824219 74.19999694824219 C 71.69999694824219 74.19999694824219 73.0 74.19999694824219 74.19999694824219 74.19999694824219 C 75.53333282470703 74.19999694824219 76.83333587646484 74.19999694824219 78.0999984741211 74.19999694824219 C 83.19999694824219 75.5 85.80000305175781 79.4000015258789 83.19999694824219 84.5 C 83.19999694824219 84.5 51.20000076293945 175.39999389648438 51.20000076293945 175.39999389648438" stroke-width="5.0" fill="rgb(36, 59, 38)" opacity="1.0"/>
    <path d="M 113.9000015258789 102.4000015258789 C 113.9000015258789 105.0 113.9000015258789 106.30000305175781 115.19999694824219 108.80000305175781 C 116.5 110.0999984741211 119.0 111.4000015258789 120.30000305175781 112.69999694824219 C 122.9000015258789 113.9000015258789 125.4000015258789 115.19999694824219 126.69999694824219 116.5 C 129.3000030517578 116.5 131.8000030517578 117.80000305175781 133.10000610351562 119.0999984741211 C 138.1999969482422 120.30000305175781 142.10000610351562 122.9000015258789 144.60000610351562 124.19999694824219 C 148.5 126.69999694824219 151.0 129.3000030517578 153.60000610351562 131.89999389648438 C 154.89999389648438 133.10000610351562 157.39999389648438 135.6999969482422 157.39999389648438 139.5 C 158.6999969482422 142.10000610351562 158.6999969482422 145.89999389648438 158.6999969482422 148.5 C 158.6999969482422 158.6999969482422 156.1999969482422 166.39999389648438 149.8000030517578 172.8000030517578 C 143.39999389648438 179.1999969482422 134.39999389648438 181.8000030517578 121.5999984741211 183.10000610351562 C 120.5999984741211 183.10000610351562 119.63333129882812 183.10000610351562 118.69999694824219 183.10000610351562 C 117.69999694824219 183.03334045410156 116.73332977294922 182.96665954589844 115.80000305175781 182.89999389648438 C 114.80000305175781 182.76666259765625 113.83333587646484 182.60000610351562 112.9000015258789 182.39999389648438 C 111.96666717529297 182.26666259765625 111.03333282470703 182.06666564941406 110.0999984741211 181.8000030517578 C 109.0999984741211 181.46665954589844 108.0999984741211 181.10000610351562 107.0999984741211 180.6999969482422 C 106.0999984741211 180.3000030517578 105.13333129882812 179.89999389648438 104.19999694824219 179.5 C 103.26667022705078 179.10000610351562 102.30000305175781 178.63333129882812 101.30000305175781 178.10000610351562 C 100.36666870117188 177.63333129882812 99.46666717529297 177.1666717529297 98.5999984741211 176.6999969482422 C 96.0 175.39999389648438 94.69999694824219 174.10000610351562 93.4000015258789 172.8000030517578 C 93.0 172.46665954589844 92.63333129882812 172.10000610351562 92.30000305175781 171.6999969482422 C 91.96666717529297 171.3000030517578 91.63333129882812 170.86666870117188 91.30000305175781 170.39999389648438 C 90.96666717529297 170.0 90.66666412353516 169.56666564941406 90.4000015258789 169.10000610351562 C 90.13333129882812 168.63333129882812 89.86666870117188 168.1666717529297 89.5999984741211 167.6999969482422 C 89.4000015258789 167.3000030517578 89.23332977294922 166.89999389648438 89.0999984741211 166.5 C 88.9000015258789 166.10000610351562 88.76667022705078 165.6666717529297 88.69999694824219 165.1999969482422 C 88.56666564941406 164.8000030517578 88.46666717529297 164.36666870117188 88.4000015258789 163.89999389648438 C 88.33333587646484 163.43333435058594 88.30000305175781 163.0 88.30000305175781 162.60000610351562 C 88.30000305175781 161.3000030517578 89.5999984741211 160.0 89.5999984741211 158.6999969482422 C 90.9000015258789 156.1999969482422 93.4000015258789 154.89999389648438 94.69999694824219 154.89999389648438 C 97.30000305175781 154.89999389648438 98.5999984741211 154.89999389648438 99.80000305175781 156.1999969482422 C 102.4000015258789 157.5 103.69999694824219 158.6999969482422 105.0 158.6999969482422 C 106.19999694824219 160.0 108.80000305175781 161.3000030517578 110.0999984741211 162.60000610351562 C 112.5999984741211 163.89999389648438 113.9000015258789 163.89999389648438 116.5 165.10000610351562 C 117.80000305175781 165.10000610351562 120.30000305175781 165.10000610351562 122.9000015258789 165.10000610351562 C 125.4000015258789 165.10000610351562 126.69999694824219 165.10000610351562 129.3000030517578 165.10000610351562 C 129.76666259765625 164.89999389648438 130.23333740234375 164.6666717529297 130.6999969482422 164.39999389648438 C 131.1666717529297 164.13333129882812 131.60000610351562 163.8333282470703 132.0 163.5 C 132.46665954589844 163.1666717529297 132.89999389648438 162.8000030517578 133.3000030517578 162.39999389648438 C 133.6999969482422 162.06666564941406 134.06666564941406 161.6999969482422 134.39999389648438 161.3000030517578 C 135.6999969482422 160.0 137.0 158.6999969482422 138.1999969482422 156.1999969482422 C 138.1999969482422 154.89999389648438 139.5 152.3000030517578 139.5 149.8000030517578 C 139.5 147.1999969482422 138.1999969482422 145.89999389648438 137.0 143.39999389648438 C 136.6666717529297 143.0 136.36666870117188 142.63333129882812 136.10000610351562 142.3000030517578 C 135.76666259765625 141.96665954589844 135.46665954589844 141.63333129882812 135.1999969482422 141.3000030517578 C 134.86666870117188 141.03334045410156 134.53334045410156 140.73333740234375 134.1999969482422 140.39999389648438 C 133.86666870117188 140.13333129882812 133.5 139.8333282470703 133.10000610351562 139.5 C 132.76666259765625 139.1666717529297 132.36666870117188 138.8000030517578 131.89999389648438 138.39999389648438 C 131.5 138.06666564941406 131.10000610351562 137.73333740234375 130.6999969482422 137.39999389648438 C 130.3000030517578 137.13333129882812 129.86666870117188 136.8333282470703 129.39999389648438 136.5 C 128.93333435058594 136.23333740234375 128.46665954589844 135.96665954589844 128.0 135.6999969482422 C 127.5999984741211 135.43333435058594 127.19999694824219 135.1999969482422 126.80000305175781 135.0 C 126.33333587646484 134.8000030517578 125.9000015258789 134.56666564941406 125.5 134.3000030517578 C 125.03333282470703 134.10000610351562 124.5999984741211 133.89999389648438 124.19999694824219 133.6999969482422 C 123.73332977294922 133.5 123.30000305175781 133.3000030517578 122.9000015258789 133.10000610351562 C 121.9000015258789 132.76666259765625 120.93333435058594 132.39999389648438 120.0 132.0 C 119.0 131.60000610351562 118.03333282470703 131.1666717529297 117.0999984741211 130.6999969482422 C 116.0999984741211 130.3000030517578 115.13333129882812 129.86666870117188 114.19999694824219 129.39999389648438 C 113.26667022705078 128.93333435058594 112.33333587646484 128.46665954589844 111.4000015258789 128.0 C 110.5999984741211 127.66666412353516 109.80000305175781 127.33333587646484 109.0 127.0 C 108.19999694824219 126.5999984741211 107.43333435058594 126.16666412353516 106.69999694824219 125.69999694824219 C 105.96666717529297 125.30000305175781 105.23332977294922 124.86666870117188 104.5 124.4000015258789 C 103.76667022705078 123.93333435058594 103.06666564941406 123.43333435058594 102.4000015258789 122.9000015258789 C 101.73332977294922 122.30000305175781 101.0999984741211 121.63333129882812 100.5 120.9000015258789 C 99.83333587646484 120.23332977294922 99.23332977294922 119.53333282470703 98.69999694824219 118.80000305175781 C 98.16666412353516 118.0 97.66666412353516 117.19999694824219 97.19999694824219 116.4000015258789 C 96.80000305175781 115.5999984741211 96.4000015258789 114.76667022705078 96.0 113.9000015258789 C 93.4000015258789 110.0999984741211 93.4000015258789 106.30000305175781 93.4000015258789 102.4000015258789 C 93.4000015258789 97.30000305175781 93.4000015258789 93.5 96.0 89.5999984741211 C 96.46666717529297 88.73332977294922 96.96666717529297 87.9000015258789 97.5 87.0999984741211 C 98.0999984741211 86.23332977294922 98.69999694824219 85.43333435058594 99.30000305175781 84.69999694824219 C 99.96666717529297 83.96666717529297 100.66666412353516 83.26667022705078 101.4000015258789 82.5999984741211 C 102.13333129882812 81.93333435058594 102.9000015258789 81.30000305175781 103.69999694824219 80.69999694824219 C 104.5 79.96666717529297 105.36666870117188 79.30000305175781 106.30000305175781 78.69999694824219 C 107.23332977294922 78.03333282470703 108.16666412353516 77.43333435058594 109.0999984741211 76.9000015258789 C 110.0999984741211 76.36666870117188 111.0999984741211 75.86666870117188 112.0999984741211 75.4000015258789 C 113.0999984741211 75.0 114.13333129882812 74.63333129882812 115.19999694824219 74.30000305175781 C 116.13333129882812 74.03333282470703 117.06666564941406 73.80000305175781 118.0 73.5999984741211 C 119.0 73.46666717529297 119.96666717529297 73.33333587646484 120.9000015258789 73.19999694824219 C 121.9000015258789 73.06666564941406 122.86666870117188 73.0 123.80000305175781 73.0 C 124.80000305175781 72.93333435058594 125.76667022705078 72.93333435058594 126.69999694824219 73.0 C 131.8000030517578 73.0 135.6999969482422 74.30000305175781 139.5 75.5 C 144.60000610351562 76.80000305175781 147.1999969482422 78.0999984741211 149.8000030517578 80.69999694824219 C 152.3000030517578 83.19999694824219 154.89999389648438 84.5 156.1999969482422 87.0999984741211 C 156.1999969482422 89.5999984741211 156.1999969482422 92.19999694824219 154.89999389648438 94.69999694824219 C 154.6999969482422 94.96666717529297 154.53334045410156 95.23332977294922 154.39999389648438 95.5 C 154.1999969482422 95.69999694824219 154.0 95.93333435058594 153.8000030517578 96.19999694824219 C 153.53334045410156 96.4000015258789 153.3000030517578 96.5999984741211 153.10000610351562 96.80000305175781 C 152.8333282470703 97.0 152.56666564941406 97.16666412353516 152.3000030517578 97.30000305175781 C 152.03334045410156 97.5 151.73333740234375 97.66666412353516 151.39999389648438 97.80000305175781 C 151.06666564941406 97.93333435058594 150.76666259765625 98.03333282470703 150.5 98.0999984741211 C 150.1666717529297 98.23332977294922 149.8333282470703 98.33333587646484 149.5 98.4000015258789 C 149.1666717529297 98.46666717529297 148.8333282470703 98.53333282470703 148.5 98.5999984741211 C 148.5 98.5999984741211 147.1999969482422 98.5999984741211 145.89999389648438 98.5999984741211 C 145.6999969482422 98.53333282470703 145.46665954589844 98.46666717529297 145.1999969482422 98.4000015258789 C 145.0 98.33333587646484 144.76666259765625 98.23332977294922 144.5 98.0999984741211 C 144.3000030517578 98.03333282470703 144.10000610351562 97.93333435058594 143.89999389648438 97.80000305175781 C 143.6999969482422 97.5999984741211 143.53334045410156 97.43333435058594 143.39999389648438 97.30000305175781 C 142.10000610351562 96.0 140.8000030517578 96.0 139.5 94.69999694824219 C 139.23333740234375 94.5 138.93333435058594 94.30000305175781 138.60000610351562 94.0999984741211 C 138.26666259765625 93.83333587646484 137.93333435058594 93.5999984741211 137.60000610351562 93.4000015258789 C 137.3333282470703 93.19999694824219 137.03334045410156 93.0 136.6999969482422 92.80000305175781 C 136.36666870117188 92.5999984741211 136.03334045410156 92.4000015258789 135.6999969482422 92.19999694824219 C 135.3000030517578 92.06666564941406 134.86666870117188 91.93333435058594 134.39999389648438 91.80000305175781 C 134.0 91.66666412353516 133.56666564941406 91.53333282470703 133.10000610351562 91.4000015258789 C 132.6999969482422 91.33333587646484 132.3000030517578 91.23332977294922 131.89999389648438 91.0999984741211 C 131.43333435058594 91.03333282470703 131.0 90.96666717529297 130.60000610351562 90.9000015258789 C 130.13333129882812 90.69999694824219 129.6999969482422 90.53333282470703 129.3000030517578 90.4000015258789 C 128.89999389648438 90.26667022705078 128.46665954589844 90.16666412353516 128.0 90.0999984741211 C 127.5999984741211 89.96666717529297 127.19999694824219 89.86666870117188 126.80000305175781 89.80000305175781 C 126.33333587646484 89.73332977294922 125.86666870117188 89.66666412353516 125.4000015258789 89.5999984741211 C 125.0 89.5999984741211 124.56666564941406 89.63333129882812 124.0999984741211 89.69999694824219 C 123.69999694824219 89.76667022705078 123.26667022705078 89.86666870117188 122.80000305175781 90.0 C 122.4000015258789 90.06666564941406 121.96666717529297 90.19999694824219 121.5 90.4000015258789 C 121.0999984741211 90.53333282470703 120.69999694824219 90.69999694824219 120.30000305175781 90.9000015258789 C 119.56666564941406 91.30000305175781 118.86666870117188 91.76667022705078 118.19999694824219 92.30000305175781 C 117.53333282470703 92.83333587646484 116.9000015258789 93.43333435058594 116.30000305175781 94.0999984741211 C 115.76667022705078 94.76667022705078 115.30000305175781 95.46666717529297 114.9000015258789 96.19999694824219 C 114.5 96.93333435058594 114.16666412353516 97.73332977294922 113.9000015258789 98.5999984741211 C 113.83333587646484 98.93333435058594 113.80000305175781 99.23332977294922 113.80000305175781 99.5 C 113.80000305175781 99.83333587646484 113.80000305175781 100.16666412353516 113.80000305175781 100.5 C 113.80000305175781 100.83333587646484 113.80000305175781 101.16666412353516 113.80000305175781 101.5 C 113.80000305175781 101.76667022705078 113.83333587646484 102.06666564941406 113.9000015258789 102.4000015258789 C 113.9000015258789 102.4000015258789 113.9000015258789 102.4000015258789 113.9000015258789 102.4000015258789" stroke-width="5.0" fill="rgb(36, 59, 38)" opacity="1.0"/>
    <path d="M 218.89999389648438 183.10000610351562 C 211.1999969482422 183.10000610351562 204.8000030517578 181.8000030517578 198.39999389648438 179.1999969482422 C 196.86666870117188 178.6666717529297 195.36666870117188 178.03334045410156 193.89999389648438 177.3000030517578 C 192.36666870117188 176.63333129882812 190.89999389648438 175.86666870117188 189.5 175.0 C 188.10000610351562 174.13333129882812 186.76666259765625 173.1999969482422 185.5 172.1999969482422 C 184.1666717529297 171.1999969482422 182.93333435058594 170.13333129882812 181.8000030517578 169.0 C 176.60000610351562 163.89999389648438 172.8000030517578 158.6999969482422 170.1999969482422 151.10000610351562 C 167.6666717529297 144.6999969482422 166.39999389648438 137.0 166.39999389648438 128.0 C 166.39999389648438 119.06666564941406 167.6666717529297 111.4000015258789 170.1999969482422 105.0 C 172.8000030517578 97.30000305175781 176.60000610351562 92.19999694824219 180.5 87.0999984741211 C 181.56666564941406 85.96666717529297 182.6999969482422 84.9000015258789 183.89999389648438 83.9000015258789 C 185.10000610351562 82.9000015258789 186.3333282470703 81.96666717529297 187.60000610351562 81.0999984741211 C 188.93333435058594 80.23332977294922 190.26666259765625 79.46666717529297 191.60000610351562 78.80000305175781 C 193.0 78.06666564941406 194.39999389648438 77.4000015258789 195.8000030517578 76.80000305175781 C 197.46665954589844 76.13333129882812 199.13333129882812 75.56666564941406 200.8000030517578 75.0999984741211 C 202.46665954589844 74.56666564941406 204.1666717529297 74.13333129882812 205.89999389648438 73.80000305175781 C 207.63333129882812 73.46666717529297 209.36666870117188 73.23332977294922 211.10000610351562 73.0999984741211 C 212.8333282470703 72.96666717529297 214.56666564941406 72.93333435058594 216.3000030517578 73.0 C 220.1999969482422 73.0 225.3000030517578 73.0 229.10000610351562 74.30000305175781 C 230.10000610351562 74.56666564941406 231.10000610351562 74.86666870117188 232.10000610351562 75.19999694824219 C 233.10000610351562 75.5999984741211 234.10000610351562 76.0 235.10000610351562 76.4000015258789 C 236.03334045410156 76.86666870117188 236.96665954589844 77.33333587646484 237.89999389648438 77.80000305175781 C 238.8333282470703 78.26667022705078 239.73333740234375 78.80000305175781 240.60000610351562 79.4000015258789 C 243.1999969482422 80.69999694824219 245.8000030517578 83.19999694824219 247.0 84.5 C 248.3000030517578 87.0999984741211 249.60000610351562 88.30000305175781 249.60000610351562 90.9000015258789 C 249.60000610351562 92.19999694824219 249.60000610351562 92.19999694824219 249.60000610351562 93.5 C 249.60000610351562 93.69999694824219 249.60000610351562 93.9000015258789 249.60000610351562 94.0999984741211 C 249.60000610351562 94.30000305175781 249.60000610351562 94.5 249.60000610351562 94.69999694824219 C 249.60000610351562 94.96666717529297 249.60000610351562 95.19999694824219 249.60000610351562 95.4000015258789 C 249.60000610351562 95.5999984741211 249.60000610351562 95.80000305175781 249.60000610351562 96.0 C 249.39999389648438 96.13333129882812 249.1999969482422 96.26667022705078 249.0 96.4000015258789 C 248.8000030517578 96.53333282470703 248.60000610351562 96.66666412353516 248.39999389648438 96.80000305175781 C 248.13333129882812 96.86666870117188 247.89999389648438 96.96666717529297 247.6999969482422 97.0999984741211 C 247.5 97.16666412353516 247.26666259765625 97.23332977294922 247.0 97.30000305175781 C 247.0 98.5999984741211 245.8000030517578 98.5999984741211 244.5 98.5999984741211 C 244.10000610351562 98.80000305175781 243.6666717529297 98.96666717529297 243.1999969482422 99.0999984741211 C 242.8000030517578 99.23332977294922 242.36666870117188 99.30000305175781 241.89999389648438 99.30000305175781 C 241.43333435058594 99.30000305175781 241.0 99.23332977294922 240.60000610351562 99.0999984741211 C 240.13333129882812 98.96666717529297 239.73333740234375 98.80000305175781 239.39999389648438 98.5999984741211 C 238.8000030517578 98.4000015258789 238.23333740234375 98.19999694824219 237.6999969482422 98.0 C 237.1666717529297 97.80000305175781 236.63333129882812 97.5999984741211 236.10000610351562 97.4000015258789 C 235.56666564941406 97.19999694824219 235.03334045410156 96.96666717529297 234.5 96.69999694824219 C 233.96665954589844 96.5 233.46665954589844 96.26667022705078 233.0 96.0 C 232.46665954589844 95.66666412353516 231.93333435058594 95.33333587646484 231.39999389648438 95.0 C 230.86666870117188 94.66666412353516 230.3333282470703 94.33333587646484 229.8000030517578 94.0 C 229.26666259765625 93.66666412353516 228.73333740234375 93.36666870117188 228.1999969482422 93.0999984741211 C 227.6666717529297 92.76667022705078 227.13333129882812 92.46666717529297 226.60000610351562 92.19999694824219 C 222.6999969482422 90.9000015258789 220.1999969482422 89.5999984741211 215.0 89.5999984741211 C 211.1999969482422 89.5999984741211 206.10000610351562 90.9000015258789 202.1999969482422 93.5 C 201.3333282470703 93.96666717529297 200.5 94.46666717529297 199.6999969482422 95.0 C 198.89999389648438 95.5999984741211 198.13333129882812 96.19999694824219 197.39999389648438 96.80000305175781 C 196.60000610351562 97.46666717529297 195.86666870117188 98.16666412353516 195.1999969482422 98.9000015258789 C 194.53334045410156 99.63333129882812 193.89999389648438 100.36666870117188 193.3000030517578 101.0999984741211 C 192.6999969482422 102.0999984741211 192.13333129882812 103.13333129882812 191.60000610351562 104.19999694824219 C 191.06666564941406 105.19999694824219 190.56666564941406 106.23332977294922 190.10000610351562 107.30000305175781 C 189.6999969482422 108.36666870117188 189.3333282470703 109.46666717529297 189.0 110.5999984741211 C 188.6666717529297 111.66666412353516 188.39999389648438 112.76667022705078 188.1999969482422 113.9000015258789 C 187.8000030517578 115.03333282470703 187.46665954589844 116.19999694824219 187.1999969482422 117.4000015258789 C 186.86666870117188 118.53333282470703 186.60000610351562 119.69999694824219 186.39999389648438 120.9000015258789 C 186.1999969482422 122.0999984741211 186.03334045410156 123.26667022705078 185.89999389648438 124.4000015258789 C 185.76666259765625 125.5999984741211 185.6666717529297 126.80000305175781 185.60000610351562 128.0 C 185.60000610351562 133.10000610351562 186.89999389648438 137.0 188.1999969482422 142.10000610351562 C 189.39999389648438 147.1999969482422 192.0 151.10000610351562 194.60000610351562 154.89999389648438 C 195.26666259765625 155.8333282470703 195.96665954589844 156.73333740234375 196.6999969482422 157.60000610351562 C 197.5 158.39999389648438 198.3333282470703 159.1999969482422 199.1999969482422 160.0 C 200.06666564941406 160.73333740234375 200.96665954589844 161.43333435058594 201.89999389648438 162.10000610351562 C 202.8333282470703 162.6999969482422 203.8000030517578 163.3000030517578 204.8000030517578 163.89999389648438 C 208.60000610351562 165.10000610351562 213.8000030517578 166.39999389648438 218.89999389648438 166.39999389648438 C 219.56666564941406 166.39999389648438 220.1999969482422 166.36666870117188 220.8000030517578 166.3000030517578 C 221.46665954589844 166.23333740234375 222.13333129882812 166.13333129882812 222.8000030517578 166.0 C 223.39999389648438 165.86666870117188 224.03334045410156 165.73333740234375 224.6999969482422 165.60000610351562 C 225.3000030517578 165.46665954589844 225.93333435058594 165.3000030517578 226.60000610351562 165.10000610351562 C 227.46665954589844 164.96665954589844 228.3333282470703 164.8000030517578 229.1999969482422 164.60000610351562 C 230.13333129882812 164.3333282470703 231.03334045410156 164.03334045410156 231.89999389648438 163.6999969482422 C 232.76666259765625 163.36666870117188 233.60000610351562 163.0 234.39999389648438 162.60000610351562 C 235.1999969482422 162.1999969482422 236.0 161.76666259765625 236.8000030517578 161.3000030517578 C 238.06666564941406 160.03334045410156 239.3333282470703 158.76666259765625 240.60000610351562 157.5 C 243.1999969482422 156.1999969482422 245.8000030517578 156.1999969482422 248.3000030517578 156.1999969482422 C 249.60000610351562 157.5 252.1999969482422 158.6999969482422 252.1999969482422 160.0 C 253.39999389648438 162.60000610351562 253.39999389648438 163.89999389648438 253.39999389648438 165.10000610351562 C 253.39999389648438 166.39999389648438 252.1999969482422 167.6999969482422 250.89999389648438 170.3000030517578 C 249.60000610351562 172.8000030517578 247.0 174.10000610351562 244.5 176.6999969482422 C 240.60000610351562 177.89999389648438 236.8000030517578 180.5 233.0 181.8000030517578 C 229.10000610351562 183.10000610351562 224.0 183.10000610351562 218.89999389648438 183.10000610351562 C 218.89999389648438 183.10000610351562 218.89999389648438 183.10000610351562 218.89999389648438 183.10000610351562" stroke-width="5.0" fill="rgb(36, 59, 38)" opacity="1.0"/>
  </g>
</svg>
