<svg version="1.2" xmlns="http://www.w3.org/2000/svg" viewBox="0 0 256 256" width="256" height="256"><style>.a{fill:#fb3}</style><path class="a" d="m51.2 175.4c-1.3 3.8-5.1 6.4-7.7 6.4-2.5 0-3.8 0-5.1-1.3-1.3-1.3-2.6-2.6-3.8-5.1l-30.8-89.6q-0.2-0.5-0.4-1-0.2-0.4-0.4-0.9-0.1-0.5-0.2-1-0.2-0.5-0.2-1-0.1-0.3-0.1-0.6-0.1-0.3-0.1-0.7 0-0.3 0.1-0.6 0-0.3 0.1-0.6c1.2-1.3 1.2-2.6 2.5-2.6 1.3-1.3 2.6-1.3 3.9-2.6q1.9 0 3.8 0c1.3 0 1.3 0 2.6 0 1.2 0 2.5 1.3 3.8 2.6 0 0 1.3 1.3 1.3 3.8l23 65.3 21.8-65.3c1.3-2.5 1.3-3.8 2.5-3.8q0.4-0.4 0.9-0.8 0.4-0.4 0.9-0.7 0.5-0.4 1-0.6 0.5-0.3 1.1-0.5c0 0 1.3 0 2.5 0q2 0 3.9 0c5.1 1.3 7.7 5.2 5.1 10.3zm62.7-73c0 2.6 0 3.9 1.3 6.4 1.3 1.3 3.8 2.6 5.1 3.9 2.6 1.2 5.1 2.5 6.4 3.8 2.6 0 5.1 1.3 6.4 2.6 5.1 1.2 9 3.8 11.5 5.1 3.9 2.5 6.4 5.1 9 7.7 1.3 1.2 3.8 3.8 3.8 7.6 1.3 2.6 1.3 6.4 1.3 9 0 10.2-2.5 17.9-8.9 24.3-6.4 6.4-15.4 9-28.2 10.3q-1.5 0-2.9 0-1.5-0.1-2.9-0.2-1.5-0.2-2.9-0.5-1.4-0.2-2.8-0.6-1.5-0.5-3-1.1-1.5-0.6-2.9-1.2-1.4-0.6-2.9-1.4-1.4-0.7-2.7-1.4c-2.6-1.3-3.9-2.6-5.2-3.9q-0.6-0.5-1.1-1.1-0.5-0.6-1-1.3-0.5-0.6-0.9-1.3-0.4-0.7-0.8-1.4-0.3-0.6-0.5-1.2-0.3-0.6-0.4-1.3-0.2-0.6-0.3-1.3-0.1-0.7-0.1-1.3c0-1.3 1.3-2.6 1.3-3.9 1.3-2.5 3.8-3.8 5.1-3.8 2.6 0 3.9 0 5.1 1.3 2.6 1.3 3.9 2.5 5.2 2.5 1.2 1.3 3.8 2.6 5.1 3.9 2.5 1.3 3.8 1.3 6.4 2.5 1.3 0 3.8 0 6.4 0 2.5 0 3.8 0 6.4 0q0.7-0.3 1.4-0.7 0.7-0.4 1.3-0.9 0.7-0.5 1.3-1.1 0.6-0.5 1.1-1.1c1.3-1.3 2.6-2.6 3.8-5.1 0-1.3 1.3-3.9 1.3-6.4 0-2.6-1.3-3.9-2.5-6.4q-0.5-0.6-0.9-1.1-0.5-0.5-0.9-1-0.5-0.4-1-0.9-0.5-0.4-1.1-0.9-0.5-0.5-1.2-1.1-0.6-0.5-1.2-1-0.6-0.4-1.3-0.9-0.7-0.4-1.4-0.8-0.6-0.4-1.2-0.7-0.7-0.3-1.3-0.7-0.7-0.3-1.3-0.6-0.7-0.3-1.3-0.6-1.5-0.5-2.9-1.1-1.5-0.6-2.9-1.3-1.5-0.6-2.9-1.3-1.4-0.7-2.8-1.4-1.2-0.5-2.4-1-1.2-0.6-2.3-1.3-1.1-0.6-2.2-1.3-1.1-0.7-2.1-1.5-1-0.9-1.9-2-1-1-1.8-2.1-0.8-1.2-1.5-2.4-0.6-1.2-1.2-2.5c-2.6-3.8-2.6-7.6-2.6-11.5 0-5.1 0-8.9 2.6-12.8q0.7-1.3 1.5-2.5 0.9-1.3 1.8-2.4 1-1.1 2.1-2.1 1.1-1 2.3-1.9 1.2-1.1 2.6-2 1.4-1 2.8-1.8 1.5-0.8 3-1.5 1.5-0.6 3.1-1.1 1.4-0.4 2.8-0.7 1.5-0.2 2.9-0.4 1.5-0.2 2.9-0.2 1.5-0.1 2.9 0c5.1 0 9 1.3 12.8 2.5 5.1 1.3 7.7 2.6 10.3 5.2 2.5 2.5 5.1 3.8 6.4 6.4 0 2.5 0 5.1-1.3 7.6q-0.3 0.4-0.5 0.8-0.3 0.3-0.6 0.7-0.4 0.3-0.7 0.6-0.4 0.3-0.8 0.5-0.4 0.3-0.9 0.5-0.5 0.2-0.9 0.3-0.5 0.2-1 0.3-0.5 0.1-1 0.2c0 0-1.3 0-2.6 0q-0.3-0.1-0.7-0.2-0.3-0.1-0.7-0.3-0.3-0.1-0.6-0.3-0.3-0.3-0.5-0.5c-1.3-1.3-2.6-1.3-3.9-2.6q-0.4-0.3-0.9-0.6-0.5-0.4-1-0.7-0.4-0.3-0.9-0.6-0.5-0.3-1-0.6-0.6-0.2-1.3-0.4-0.6-0.2-1.3-0.4-0.6-0.1-1.2-0.3-0.7-0.1-1.3-0.2-0.7-0.3-1.3-0.5-0.6-0.2-1.3-0.3-0.6-0.2-1.2-0.3-0.7-0.1-1.4-0.2-0.6 0-1.3 0.1-0.6 0.1-1.3 0.3-0.6 0.1-1.3 0.4-0.6 0.2-1.2 0.5-1.1 0.6-2.1 1.4-1 0.8-1.9 1.8-0.8 1-1.4 2.1-0.6 1.1-1 2.4-0.1 0.5-0.1 0.9 0 0.5 0 1 0 0.5 0 1 0 0.4 0.1 0.9zm105 80.7c-7.7 0-14.1-1.3-20.5-3.9q-2.3-0.8-4.5-1.9-2.3-1-4.4-2.3-2.1-1.3-4-2.8-2-1.5-3.7-3.2c-5.2-5.1-9-10.3-11.6-17.9q-3.8-9.6-3.8-23.1 0-13.4 3.8-23c2.6-7.7 6.4-12.8 10.3-17.9q1.6-1.7 3.4-3.2 1.8-1.5 3.7-2.8 2-1.3 4-2.3 2.1-1.1 4.2-2 2.5-1 5-1.7 2.5-0.8 5.1-1.3 2.6-0.5 5.2-0.7 2.6-0.2 5.2-0.1c3.9 0 9 0 12.8 1.3q1.5 0.4 3 0.9 1.5 0.6 3 1.2 1.4 0.7 2.8 1.4 1.4 0.7 2.7 1.6c2.6 1.3 5.2 3.8 6.4 5.1 1.3 2.6 2.6 3.8 2.6 6.4 0 1.3 0 1.3 0 2.6q0 0.3 0 0.6 0 0.3 0 0.6 0 0.4 0 0.7 0 0.3 0 0.6-0.3 0.2-0.6 0.4-0.3 0.2-0.6 0.4-0.4 0.1-0.7 0.3-0.3 0.1-0.7 0.2c0 1.3-1.2 1.3-2.5 1.3q-0.6 0.3-1.3 0.5-0.6 0.2-1.3 0.2-0.7 0-1.3-0.2-0.7-0.2-1.2-0.5-0.9-0.3-1.7-0.6-0.8-0.3-1.6-0.6-0.8-0.3-1.6-0.7-0.8-0.3-1.5-0.7-0.8-0.5-1.6-1-0.8-0.5-1.6-1-0.8-0.5-1.6-0.9-0.8-0.5-1.6-0.9c-3.9-1.3-6.4-2.6-11.6-2.6-3.8 0-8.9 1.3-12.8 3.9q-1.3 0.7-2.5 1.5-1.2 0.9-2.3 1.8-1.2 1-2.2 2.1-1 1.1-1.9 2.2-0.9 1.5-1.7 3.1-0.8 1.5-1.5 3.1-0.6 1.6-1.1 3.3-0.5 1.6-0.8 3.3-0.6 1.7-1 3.5-0.5 1.7-0.8 3.5-0.3 1.8-0.5 3.5-0.2 1.8-0.3 3.6c0 5.1 1.3 9 2.6 14.1 1.2 5.1 3.8 9 6.4 12.8q1 1.4 2.1 2.7 1.2 1.2 2.5 2.4 1.3 1.1 2.7 2.1 1.4 0.9 2.9 1.8c3.8 1.2 9 2.5 14.1 2.5q1 0 1.9-0.1 1-0.1 2-0.3 0.9-0.2 1.9-0.4 0.9-0.2 1.9-0.5 1.3-0.2 2.6-0.5 1.4-0.4 2.7-0.9 1.3-0.5 2.5-1.1 1.2-0.6 2.4-1.3 1.9-1.9 3.8-3.8c2.6-1.3 5.2-1.3 7.7-1.3 1.3 1.3 3.9 2.5 3.9 3.8 1.2 2.6 1.2 3.9 1.2 5.1 0 1.3-1.2 2.6-2.5 5.2-1.3 2.5-3.9 3.8-6.4 6.4-3.9 1.2-7.7 3.8-11.5 5.1-3.9 1.3-9 1.3-14.1 1.3z"/></svg>