<?xml version="1.0" ?>
<svg xmlns="http://www.w3.org/2000/svg" version="1.1" width="200" height="200">
  <defs/>
  <g>
    <path d="M 59.643714904785156 159.8898468017578 C 46.11023712158203 163.05746459960938 44.05544662475586 151.83401489257812 75.3718490600586 178.0048065185547 C 86.11134338378906 204.60385131835938 91.73123931884766 207.43392944335938 -1.4746558666229248 208.7986297607422 C -5.902622222900391 127.3977279663086 19.22376823425293 163.93484497070312 -1.6172890663146973 169.27145385742188 L -18.058576583862305 88.10657501220703 C -3.5232536792755127 57.403480529785156 2.3780813217163086 66.02025604248047 0.23434188961982727 69.26075744628906 C -0.6251490712165833 67.78097534179688 0.9304435849189758 62.92788314819336 -1.4341870546340942 54.96694564819336 C -2.137299060821533 52.2513542175293 3.1043996810913086 49.94449996948242 4.3944010734558105 58.77244567871094 C 3.8795366287231445 63.12267303466797 -8.195302963256836 68.36375427246094 0.5181413888931274 21.14227294921875 C 26.085166931152344 32.13920211791992 16.0037784576416 51.58233642578125 10.568624496459961 46.773624420166016 C 11.920931816101074 30.43855094909668 4.20311975479126 29.327096939086914 16.920236587524414 36.41609191894531 C 15.463261604309082 50.62706756591797 2.880814552307129 56.348175048828125 -5.69950008392334 -6.82962703704834 C 68.07079315185547 -6.819807052612305 51.249656677246094 15.138772010803223 39.492454528808594 36.21235275268555 L 38.55923080444336 96.47197723388672 L 26.954593658447266 28.2589111328125 C 15.760326385498047 16.191373825073242 50.116851806640625 17.907981872558594 65.66388702392578 27.015613555908203 C 51.41743087768555 54.048492431640625 57.68955993652344 51.89496994018555 62.607704162597656 53.89988708496094 C 54.127071380615234 59.2943000793457 49.93256759643555 55.16264724731445 50.172332763671875 33.55979919433594 C 70.80438232421875 38.87042999267578 16.351858139038086 36.314842224121094 21.335721969604492 -7.527312278747559 C 116.70152282714844 -12.768712997436523 93.90483856201172 -8.962848663330078 81.775634765625 81.57331085205078 L 59.643714904785156 159.8898468017578" stroke-width="1.0" fill="rgb(6, 10, 6)" opacity="1.0"/>
  </g>
</svg>
