<?xml version="1.0" ?>
<svg xmlns="http://www.w3.org/2000/svg" version="1.1" width="256" height="256">
  <defs/>
  <g>
    <path d="M 76.34395599365234 204.65899658203125 C 59.02110290527344 208.7135467529297 56.39097213745117 194.3475341796875 96.47596740722656 227.8461456298828 C 110.22251892089844 261.8929138183594 117.41598510742188 265.5154113769531 -1.887559413909912 267.2622375488281 C -7.555356502532959 163.069091796875 24.606422424316406 209.8365936279297 -2.070129871368408 216.66744995117188 L -23.11497688293457 112.77641296386719 C -4.509764671325684 73.47645568847656 3.0439441204071045 84.50592803955078 0.29995760321617126 88.65377044677734 C -0.800190806388855 86.7596435546875 1.1909677982330322 80.54769134521484 -1.8357594013214111 70.3576889038086 C -2.7357428073883057 66.88172912597656 3.9736316204071045 63.928958892822266 5.624833106994629 75.22872924804688 C 4.96580696105957 80.7970199584961 -10.48998737335205 87.50559997558594 0.6632209420204163 27.062108993530273 C 33.38901138305664 41.13817596435547 20.48483657836914 66.025390625 13.527838706970215 59.8702392578125 C 15.25879192352295 38.96134567260742 5.379992961883545 37.5386848449707 21.657901763916016 46.61259841918945 C 19.7929744720459 64.80264282226562 3.6874425411224365 72.12566375732422 -7.295360088348389 -8.741922378540039 C 87.130615234375 -8.729352951049805 65.59955596923828 19.377628326416016 50.55034255981445 46.351810455322266 L 49.35581588745117 123.484130859375 L 34.50188064575195 36.17140579223633 C 20.1732177734375 20.724958419799805 64.14956665039062 22.922216415405273 84.04977416992188 34.57998275756836 C 65.8143081665039 69.18206787109375 73.84263610839844 66.4255599975586 80.13786315917969 68.99185180664062 C 69.28264617919922 75.8967056274414 63.9136848449707 70.60818481445312 64.2205810546875 42.95654296875 C 90.62960815429688 49.754150390625 20.930377960205078 46.48299789428711 27.309722900390625 -9.63495922088623 C 149.37794494628906 -16.343952178955078 120.19818878173828 -11.47244644165039 104.67281341552734 104.41383361816406 L 76.34395599365234 204.65899658203125" stroke-width="1.2799999713897705" fill="rgb(221, 225, 221)" opacity="1.0"/>
  </g>
</svg>
