<svg version="1.2" xmlns="http://www.w3.org/2000/svg" viewBox="0 0 256 256" width="256" height="256"><style>.a{fill:#fe8}.b{fill:#fff}.c{fill:#9d7}.d{fill:#7c4}.e{fill:#e55}</style><path class="a" d="m207.4 17.9c17.9 0 32 14.1 32 30.7v66.6c0 17.9-14.1 32-32 32h-66.6c-16.6 0-30.7-14.1-30.7-32v-66.6c0-16.6 14.1-30.7 30.7-30.7zm12.8 64c0-25.6-20.5-46.1-46.1-46.1-24.3 0-44.8 20.5-44.8 46.1 0 25.6 20.5 46.1 44.8 46.1 25.6 0 46.1-20.5 46.1-46.1z"/><path class="b" d="m220.2 81.9c0 25.6-20.5 46.1-46.1 46.1-24.3 0-44.8-20.5-44.8-46.1 0-25.6 20.5-46.1 44.8-46.1 25.6 0 46.1 20.5 46.1 46.1zm-28.2-17.9c-3.8-2.6-9-2.6-12.8 0l-5.1 5.1-3.9-5.1c-3.8-2.6-8.9-2.6-12.8 0-3.8 3.8-3.8 10.2 0 12.8l3.9 5.1-3.9 5.1c-3.8 2.6-3.8 9 0 12.8 3.9 2.6 9 2.6 12.8 0l3.9-5.1 5.1 5.1c3.8 2.6 9 2.6 12.8 0 3.8-3.8 3.8-10.2 0-12.8l-5.1-5.1 5.1-5.1c3.8-2.6 3.8-9 0-12.8z"/><path class="c" d="m71.7 105c-9 8.9-7.7 21.7-1.3 32 7.7 10.2 14.1 19.2 21.8 26.8 7.6 6.4 15.3 14.1 26.8 20.5 10.3 6.4 23.1 9 32 0l52.5 25.6-16.6 16.7c-12.8 12.8-21.8 12.8-38.4 11.5-34.6-3.9-65.3-19.2-88.3-42.3-23.1-23-38.4-53.7-42.3-88.3-2.5-16.6-1.3-26.9 11.5-38.4l15.4-16.6z"/><path class="d" d="m70.4 43.5l16.6 32c2.6 3.9 3.9 10.3 0 14.1l-16.6 15.4-25.6-52.5 10.2-10.3c5.2-5.1 11.6-3.8 15.4 1.3z"/><path class="d" d="m212.5 185.6c5.1 2.6 6.4 9 1.3 14.1l-10.3 10.2-52.5-25.6 15.4-15.3c3.8-3.9 9-2.6 14.1 0z"/><path class="e" d="m179.2 64c3.8-2.6 9-2.6 12.8 0 3.8 3.8 3.8 10.2 0 12.8l-5.1 5.1 5.1 5.1c3.8 2.6 3.8 9 0 12.8-3.8 2.6-9 2.6-12.8 0l-5.1-5.1-3.9 5.1c-3.8 2.6-8.9 2.6-12.8 0-3.8-3.8-3.8-10.2 0-12.8l3.9-5.1-3.9-5.1c-3.8-2.6-3.8-9 0-12.8 3.9-2.6 9-2.6 12.8 0l3.9 5.1z"/><path  d="m213.8 181.8l-30.8-16.7c-10.2-5.1-15.3-2.5-19.2 1.3l-15.3 15.4c-10.3 8.9-23.1 1.2-28.2-1.3-10.2-6.4-17.9-12.8-25.6-20.5-6.4-6.4-12.8-14.1-20.5-25.6-2.5-3.8-10.2-17.9 0-26.9l15.4-16.6c2.6-2.6 5.1-9 1.3-17.9l-16.7-32c-2.5-2.6-5.1-5.2-8.9-6.4-5.1 0-9 1.2-12.8 5.1l-26.9 26.9c-14.1 14-14.1 25.6-11.5 40.9 3.8 34.6 19.2 66.6 42.2 90.9 24.3 24.3 57.6 39.7 90.9 43.5 5.1 0 9 0 12.8 0 10.2 0 19.2-2.5 29.4-12.8l26.9-25.6c2.6-3.8 5.1-8.9 3.9-12.8 0-3.8-2.6-6.4-6.4-8.9zm-156.2-137c1.3-1.3 3.8-2.6 5.1-2.6h1.3c1.3 0 2.6 1.3 2.6 2.6l16.6 32c3.8 6.4 1.3 9 1.3 9l-12.8 12.8-21.8-44.8zm126.7 179.2c-11.5 11.5-20.4 11.5-35.8 10.2-32-3.8-62.7-19.2-85.8-41-23-23-37.1-53.7-40.9-85.7-2.6-15.4-1.3-24.3 10.2-35.9l12.8-12.8 21.8 44.8c-7.7 9-6.4 23.1 1.3 35.9 7.6 10.2 14 19.2 21.7 26.9 7.7 7.6 15.4 14 26.9 21.7 12.8 7.7 25.6 7.7 35.8 1.3l44.8 21.8zm26.9-26.9l-8.9 8.9-44.8-23 11.5-11.5c1.3-1.3 3.8-2.6 10.2 1.3l30.7 15.3c2.6 1.3 2.6 2.6 2.6 3.9 1.3 1.2 0 3.8-1.3 5.1z"/><path  d="m207.4 14.1h-66.6c-19.2 0-34.6 15.3-34.6 34.5v66.6c0 19.2 15.4 35.8 34.6 35.8h66.6c19.2 0 35.8-16.6 35.8-35.8v-66.6c0-19.2-15.4-34.5-35.8-34.5zm28.1 101.1c0 15.4-12.8 26.9-28.1 26.9h-66.6c-15.4 0-26.9-11.5-26.9-26.9v-66.6c0-15.3 11.5-26.8 26.9-26.8h66.6c15.3 0 28.1 11.5 28.1 26.8z"/><path  d="m174.1 32c-26.9 0-48.7 23-48.7 49.9 0 26.9 21.8 49.9 48.7 49.9 28.1 0 49.9-23 49.9-49.9 0-26.9-21.8-49.9-49.9-49.9zm0 92.2c-23.1 0-41-19.2-41-42.3 0-23 17.9-42.2 41-42.2 23 0 42.2 19.2 42.2 42.2 0 23.1-19.2 42.3-42.2 42.3z"/><path  d="m198.4 70.4c0-2.6-1.3-6.4-3.8-9-5.2-5.1-12.8-5.1-18 0l-1.2 2.6-2.6-2.6c-5.1-5.1-12.8-5.1-17.9 0-2.6 2.6-3.9 6.4-3.9 9 0 3.8 1.3 7.7 3.9 10.2l1.3 1.3-1.3 1.3c-2.6 2.6-3.9 6.4-3.9 10.2 0 2.6 1.3 6.4 3.9 9 5.1 5.1 12.8 5.1 17.9 0l2.6-2.6 1.2 2.6c2.6 2.6 6.4 3.8 9 3.8 3.8 0 6.4-1.2 9-3.8 2.5-2.6 3.8-6.4 3.8-9 0-3.8-1.3-7.6-3.8-10.2l-1.3-1.3 1.3-1.3c2.5-2.5 3.8-6.4 3.8-10.2zm-14.1 14.1l5.1 5.1c1.3 1.3 1.3 2.6 1.3 3.8 0 1.3 0 2.6-1.3 2.6q-3.8 3.8-7.6 0l-5.2-3.8c0-1.3-1.2-1.3-2.5-1.3-1.3 0-1.3 0-2.6 1.3l-5.1 3.8c-1.3 2.6-5.1 2.6-6.4 0-1.3 0-2.6-1.3-2.6-2.6 0-1.2 1.3-2.5 2.6-3.8l3.8-5.1c1.3 0 1.3-1.3 1.3-2.6 0-1.3 0-2.5-1.3-2.5l-3.8-5.2c-1.3-1.2-2.6-2.5-2.6-3.8 0-1.3 1.3-2.6 2.6-2.6 1.3-2.5 5.1-2.5 6.4 0l5.1 3.9c1.3 1.3 3.9 1.3 5.1 0l5.2-3.9c1.2-2.5 5.1-2.5 7.6 0 0 0 1.3 1.3 1.3 2.6 0 1.3-1.3 2.6-1.3 3.8l-5.1 5.2c-1.3 0-1.3 1.2-1.3 2.5 0 1.3 1.3 2.6 1.3 2.6z"/></svg>