<?xml version="1.0" ?>
<svg xmlns="http://www.w3.org/2000/svg" version="1.1" width="200" height="200">
  <defs/>
  <g>
    <path d="M 161.8421173095703 14.60224723815918 C 175.67764282226562 14.288987159729004 186.56484985351562 25.344099044799805 186.21409606933594 38.34904861450195 L 186.37103271484375 89.60646057128906 C 186.46995544433594 103.60957336425781 175.63845825195312 114.69441223144531 161.88795471191406 114.07971954345703 L 111.243408203125 111.60548400878906 C 97.08795928955078 114.04269409179688 85.78312683105469 103.99903106689453 86.56334686279297 90.19535064697266 L 86.7504653930664 38.06170654296875 C 86.204833984375 25.35340690612793 97.41771697998047 14.649669647216797 110.63642883300781 15.849998474121094 L 161.8421173095703 14.60224723815918" stroke-width="1.0" fill="rgb(254, 237, 135)" opacity="1.0"/>
    <path d="M 170.7646484375 63.12760543823242 C 171.0102081298828 84.45419311523438 156.37493896484375 99.1569595336914 135.66116333007812 97.75324249267578 C 117.70877838134766 99.15705871582031 102.14439392089844 83.25462341308594 99.99420166015625 65.3272933959961 C 101.33170318603516 44.930641174316406 117.78799438476562 28.945825576782227 135.82237243652344 30.144811630249023 C 155.84295654296875 28.661985397338867 171.82801818847656 44.143131256103516 170.7646484375 63.12760543823242" stroke-width="1.0" fill="rgb(254, 254, 255)" opacity="1.0"/>
    <path d="M 55.29294204711914 82.19258117675781 C 48.770145416259766 88.81824493408203 50.65324783325195 99.05536651611328 55.17401885986328 106.77890014648438 C 61.156925201416016 114.8059310913086 66.33214569091797 121.63546752929688 72.41572570800781 127.56497955322266 C 76.31908416748047 134.24533081054688 80.70836639404297 142.11099243164062 92.49455261230469 144.2821807861328 C 99.98062896728516 149.80560302734375 115.14848327636719 151.2932586669922 121.50409698486328 143.69215393066406 L 154.51564025878906 164.79550170898438 L 148.06683349609375 178.6496124267578 C 137.84017944335938 187.395263671875 129.24465942382812 187.92324829101562 116.78089141845703 185.7416229248047 C 89.19693756103516 182.63919067382812 65.87631225585938 170.6778106689453 46.54643249511719 151.4646453857422 C 26.905885696411133 137.55575561523438 16.749147415161133 112.11605834960938 11.623676300048828 82.76901245117188 C 12.856731414794922 72.15901184082031 15.012391090393066 65.59410858154297 22.676284790039062 53.87363815307617 L 35.472049713134766 42.866058349609375 L 55.29294204711914 82.19258117675781" stroke-width="1.0" fill="rgb(152, 220, 118)" opacity="1.0"/>
    <path d="M 54.77718734741211 34.21894836425781 L 67.36078643798828 59.88240432739258 C 68.47119903564453 61.913211822509766 68.97432708740234 65.90594482421875 68.4223861694336 70.35215759277344 L 54.55315017700195 80.60906982421875 L 36.56675720214844 39.48919677734375 L 43.10914993286133 32.91916275024414 C 46.81474304199219 29.07502555847168 51.2099609375 30.670841217041016 54.77718734741211 34.21894836425781" stroke-width="1.0" fill="rgb(118, 202, 67)" opacity="0.9999963"/>
    <path d="M 166.49107360839844 144.64895629882812 C 164.76255798339844 151.10655212402344 169.3125 154.04847717285156 166.6099090576172 156.5293426513672 L 158.8741455078125 164.84890747070312 L 118.55409240722656 143.82740783691406 L 129.18099975585938 131.82785034179688 C 132.4585723876953 130.703125 136.41067504882812 132.1317596435547 140.69322204589844 132.56411743164062 L 166.49107360839844 144.64895629882812" stroke-width="1.0" fill="rgb(118, 203, 67)" opacity="1.0"/>
    <path d="M 138.41908264160156 49.1185417175293 C 143.50973510742188 47.26557540893555 146.70094299316406 46.91938781738281 150.66250610351562 49.55341339111328 C 153.94090270996094 53.065338134765625 153.92584228515625 58.730709075927734 151.1353759765625 61.3094596862793 L 150.92543029785156 64.97078704833984 L 151.72454833984375 66.72846984863281 C 153.03155517578125 70.53045654296875 155.95408630371094 77.15164947509766 152.68190002441406 77.81106567382812 C 148.79721069335938 79.47080993652344 144.4395751953125 78.7707290649414 140.732177734375 77.72908020019531 L 135.90660095214844 74.32032775878906 L 134.60189819335938 78.9457015991211 C 129.58493041992188 82.48106384277344 125.57115936279297 82.94488525390625 124.30904388427734 77.81524658203125 C 122.10540008544922 74.2672119140625 118.82750701904297 69.24641418457031 121.07453155517578 66.41168975830078 L 127.56964111328125 62.483062744140625 L 121.82395935058594 60.82456970214844 C 118.93238830566406 59.36615753173828 118.38089752197266 51.539268493652344 121.44621276855469 49.06892776489258 C 127.27156066894531 47.687374114990234 132.9792022705078 47.32169723510742 133.88645935058594 51.555580139160156 L 136.0308380126953 54.931636810302734 L 138.41908264160156 49.1185417175293" stroke-width="1.0" fill="rgb(34, 173, 84)" opacity="1.0"/>
    <path d="M 165.62783813476562 141.27047729492188 L 142.9706268310547 128.9639892578125 C 135.2186737060547 125.02391815185547 130.61097717285156 127.22482299804688 127.80656433105469 130.0335235595703 L 116.67507934570312 141.44239807128906 C 109.0883560180664 148.7313690185547 100.46355438232422 143.92591857910156 94.72804260253906 141.46682739257812 C 86.25109100341797 136.0986785888672 79.85719299316406 130.7162322998047 74.07355499267578 124.92823028564453 C 69.49787902832031 120.36407470703125 63.44578552246094 113.57766723632812 58.165069580078125 105.01805114746094 C 56.24066162109375 102.57056427001953 50.025211334228516 91.20352935791016 57.42263412475586 84.65869140625 L 69.10047149658203 72.0250015258789 C 71.49958038330078 70.62810516357422 74.70455169677734 64.64651489257812 70.17976379394531 55.19135665893555 L 58.286582946777344 32.465736389160156 C 55.06134033203125 28.7105770111084 51.960975646972656 27.598491668701172 52.52021408081055 27.19661521911621 C 48.538394927978516 26.339664459228516 42.71337127685547 28.238107681274414 40.892330169677734 31.17742156982422 L 19.868511199951172 52.04590606689453 C 9.428717613220215 63.290096282958984 8.850661277770996 70.00211334228516 10.89504623413086 83.99446105957031 C 14.740891456604004 112.95614624023438 25.845378875732422 135.40748596191406 44.29330062866211 155.29388427734375 C 63.4858283996582 174.0048065185547 88.44707489013672 185.94371032714844 115.6371078491211 189.06126403808594 C 119.94596862792969 189.08966064453125 121.12413787841797 189.1736602783203 124.22469329833984 189.00234985351562 C 133.80349731445312 188.7635040283203 139.76487731933594 187.13076782226562 147.82601928710938 179.0662078857422 L 168.82220458984375 159.2044677734375 C 170.44268798828125 156.10829162597656 172.33969116210938 155.60861206054688 172.1461639404297 147.9490509033203 C 171.10147094726562 145.96755981445312 170.93328857421875 144.3504180908203 165.62783813476562 141.27047729492188" stroke-width="1.0" fill="rgb(0, 0, 0)" opacity="0.9916787"/>
    <path d="M 161.4087371826172 11.032795906066895 L 109.77653503417969 11.018293380737305 C 94.84647369384766 10.95312786102295 83.04632568359375 23.164100646972656 83.00347137451172 37.72200012207031 L 83.00898742675781 90.12215423583984 C 83.06621551513672 105.10257720947266 95.0728988647461 117.90792083740234 110.02783203125 117.99029541015625 L 162.12237548828125 117.99701690673828 C 177.19482421875 118.1353530883789 189.76698303222656 104.48343658447266 189.9934844970703 90.63700103759766 L 189.98175048828125 38.25823974609375 C 189.84902954101562 22.71931266784668 178.2746124267578 11.189538955688477 161.4087371826172 11.032795906066895" stroke-width="1.0" fill="rgb(0, 0, 0)" opacity="0.99685323"/>
    <path d="M 135.99835205078125 25.04377555847168 C 114.80501556396484 25.40188217163086 98.1454849243164 42.548683166503906 98.0088882446289 64.16357421875 C 98.0693359375 84.85498809814453 114.92346954345703 102.96207427978516 136.21067810058594 102.89196014404297 C 157.72254943847656 102.97709655761719 174.81040954589844 85.44995880126953 175.02015686035156 63.94824981689453 C 174.56690979003906 42.92220687866211 158.6289825439453 25.125953674316406 135.99835205078125 25.04377555847168" stroke-width="1.0" fill="rgb(0, 0, 0)" opacity="0.9891119"/>
    <path d="M 154.58233642578125 53.84881591796875 C 155.5631561279297 54.343544006347656 154.02920532226562 49.86149597167969 151.1483612060547 47.07319259643555 C 146.6155242919922 44.681095123291016 142.03265380859375 43.69233322143555 137.39895629882812 48.58860778808594 L 136.8599090576172 50.139278411865234 L 134.48121643066406 47.37358474731445 C 129.9000244140625 44.12477111816406 125.62322235107422 44.04652786254883 121.4967269897461 47.78446578979492 C 117.80030059814453 50.4722785949707 117.88172149658203 54.04424285888672 117.99288177490234 57.87394332885742 C 118.3335952758789 56.75631332397461 119.55290985107422 63.31772232055664 121.91957092285156 63.029422760009766 L 121.15995788574219 60.48646926879883 L 121.3156509399414 65.00189208984375 C 119.16090393066406 66.79681396484375 118.08406066894531 70.02188110351562 118.16941833496094 72.71232604980469 C 118.09845733642578 74.92139434814453 118.73387908935547 77.87390899658203 122.02999114990234 80.84368133544922 C 124.39627838134766 83.71029663085938 131.45513916015625 83.79991912841797 135.44200134277344 79.5426254272461 L 136.87158203125 77.97492980957031 L 138.05853271484375 79.6465072631836 C 138.4707489013672 81.1462631225586 144.99217224121094 83.51507568359375 143.57460021972656 82.82266998291016 C 145.70762634277344 83.71304321289062 154.16635131835938 80.70696258544922 151.81063842773438 79.10343933105469 C 153.99269104003906 79.59019470214844 155.06051635742188 73.72338104248047 155.0702667236328 73.68362426757812 C 154.79397583007812 69.85501098632812 154.586181640625 67.2160873413086 150.37442016601562 63.62589645385742 L 152.04774475097656 67.47277069091797 L 151.28733825683594 63.85873031616211 C 153.7364959716797 60.96192932128906 155.6820526123047 57.95578384399414 154.58233642578125 53.84881591796875" stroke-width="1.0" fill="rgb(0, 0, 0)" opacity="0.9914006"/>
  </g>
</svg>
