<?xml version="1.0" ?>
<svg xmlns="http://www.w3.org/2000/svg" version="1.1" width="256" height="256">
  <defs/>
  <g>
    <path d="M 207.39999389648438 17.899999618530273 C 225.3000030517578 17.899999618530273 239.39999389648438 32.0 239.39999389648438 48.599998474121094 L 239.39999389648438 115.19999694824219 C 239.39999389648438 133.10000610351562 225.3000030517578 147.1999969482422 207.39999389648438 147.1999969482422 L 140.8000030517578 147.1999969482422 C 124.19999694824219 147.1999969482422 110.0999984741211 133.10000610351562 110.0999984741211 115.19999694824219 L 110.0999984741211 48.599998474121094 C 110.0999984741211 32.0 124.19999694824219 17.899999618530273 140.8000030517578 17.899999618530273 L 207.39999389648438 17.899999618530273" stroke-width="1.0" fill="rgb(255, 232, 92)" opacity="1.0"/>
    <path d="M 220.95433044433594 78.78016662597656 C 217.99134826660156 107.11175537109375 199.77105712890625 127.85199737548828 174.5135498046875 126.16041564941406 C 150.7484893798828 127.02993774414062 130.05044555664062 106.58275604248047 130.37261962890625 81.31146240234375 C 130.0374755859375 57.0534782409668 150.4718017578125 36.08909225463867 173.87017822265625 35.97175216674805 C 197.41156005859375 36.93075942993164 219.65602111816406 58.930301666259766 220.95433044433594 78.78016662597656" stroke-width="1.0" fill="rgb(254, 255, 255)" opacity="0.92814165"/>
    <path d="M 71.71499633789062 106.21368408203125 C 61.14411163330078 116.47076416015625 62.20219039916992 124.22563934326172 71.9968032836914 135.2300567626953 C 79.61605072021484 145.65977478027344 87.0480728149414 153.83375549316406 94.94407653808594 160.8052520751953 C 103.53587341308594 166.27978515625 111.16349029541016 174.18385314941406 121.83782958984375 180.86886596679688 C 131.76544189453125 193.5875701904297 136.86849975585938 196.71246337890625 150.53131103515625 183.15643310546875 L 204.1795196533203 210.43524169921875 L 187.1226348876953 227.04290771484375 C 174.9622344970703 239.26548767089844 164.07411193847656 238.8771514892578 150.45591735839844 237.92050170898438 C 112.1641845703125 231.38824462890625 78.9444808959961 223.537109375 59.27275848388672 197.7914581298828 C 34.72858810424805 176.18606567382812 21.575212478637695 142.55194091796875 13.945622444152832 107.91643524169922 C 15.443930625915527 91.51322937011719 16.896791458129883 81.28263854980469 26.633129119873047 66.4640121459961 L 43.327354431152344 51.47099304199219 L 71.71499633789062 106.21368408203125" stroke-width="1.0" fill="rgb(63, 145, 27)" opacity="0.9894192"/>
    <path d="M 71.85015869140625 42.96059799194336 L 88.54957580566406 72.70060729980469 C 89.07610321044922 79.4192886352539 90.80770111083984 86.63868713378906 86.76294708251953 89.26978302001953 L 71.76751708984375 105.82597351074219 L 44.41897964477539 51.90510177612305 L 55.06279754638672 41.25505447387695 C 64.9463119506836 39.314266204833984 65.50052642822266 39.30148696899414 71.85015869140625 42.96059799194336" stroke-width="1.0" fill="rgb(46, 169, 21)" opacity="1.0"/>
    <path d="M 211.12716674804688 185.6378631591797 C 215.6387481689453 187.4846649169922 218.6480255126953 197.06430053710938 214.8110809326172 200.07669067382812 L 203.94602966308594 210.466796875 L 150.91334533691406 183.57737731933594 L 165.2381134033203 169.03819274902344 C 170.21531677246094 165.38751220703125 174.0460968017578 167.08041381835938 179.2437744140625 170.58132934570312 L 211.12716674804688 185.6378631591797" stroke-width="1.0" fill="rgb(42, 160, 11)" opacity="1.0"/>
    <path d="M 177.40115356445312 62.27886199951172 C 181.2550506591797 61.097049713134766 188.13906860351562 61.64506530761719 192.7909393310547 64.1650161743164 C 197.88319396972656 69.31097412109375 197.65194702148438 71.8717269897461 191.2881317138672 79.585205078125 L 186.7042236328125 81.6120834350586 L 192.90374755859375 83.61437225341797 C 196.21144104003906 91.29200744628906 196.34384155273438 93.83187866210938 192.27430725097656 100.4214096069336 C 190.02066040039062 103.83585357666016 182.38143920898438 103.54289245605469 178.068115234375 99.95317077636719 L 175.7581329345703 93.8373031616211 L 169.953857421875 100.66690063476562 C 165.32257080078125 104.68177795410156 159.73818969726562 105.81085968017578 157.0218048095703 100.36316680908203 C 151.365966796875 93.85636901855469 150.44326782226562 90.17361450195312 155.0047607421875 84.25325775146484 L 161.193603515625 81.52407836914062 L 156.5796661376953 77.04118347167969 C 153.2100830078125 75.0502700805664 152.70217895507812 65.07752990722656 156.32452392578125 63.35554504394531 C 160.0602264404297 60.75428771972656 166.44432067871094 61.71167755126953 171.4107666015625 64.64798736572266 L 171.5806884765625 65.48757934570312 L 177.40115356445312 62.27886199951172" stroke-width="1.0" fill="rgb(2, 180, 64)" opacity="0.9957844"/>
    <path d="M 212.93663024902344 181.8791046142578 L 182.78024291992188 164.8576202392578 C 171.99429321289062 160.32107543945312 168.38162231445312 163.88584899902344 162.7528076171875 167.5215301513672 L 147.8608856201172 182.26890563964844 C 139.72463989257812 190.78860473632812 125.71355438232422 182.69830322265625 119.53351593017578 179.8816375732422 C 110.17939758300781 174.25308227539062 103.17583465576172 166.88783264160156 94.92381286621094 159.093994140625 C 88.63926696777344 153.26625061035156 82.7403793334961 145.17205810546875 73.81449890136719 133.5771942138672 C 71.38324737548828 129.89781188964844 63.182273864746094 117.52900695800781 73.75235748291016 107.36723327636719 L 89.86494445800781 90.95594787597656 C 91.50169372558594 86.90030670166016 94.28276062011719 84.14124298095703 91.11441802978516 73.1363296508789 L 74.61182403564453 42.36547088623047 C 71.78083801269531 38.376834869384766 69.76542663574219 36.20997619628906 64.98888397216797 35.27494430541992 C 59.451011657714844 33.49745178222656 56.947853088378906 37.14046859741211 51.93048858642578 40.0483283996582 L 25.617677688598633 66.64879608154297 C 11.50316333770752 81.84613800048828 11.714117050170898 88.98835754394531 14.001877784729004 106.63404846191406 C 18.001079559326172 142.53379821777344 33.375431060791016 173.6647491455078 56.05839538574219 198.55935668945312 C 79.32763671875 222.25546264648438 115.95292663574219 237.85459899902344 143.55226135253906 241.80740356445312 C 148.1331787109375 242.05892944335938 156.7858428955078 242.08702087402344 159.59010314941406 241.98358154296875 C 172.7816162109375 242.3869171142578 177.53977966308594 239.223388671875 190.0226287841797 228.82427978515625 L 216.46002197265625 202.74270629882812 C 219.01385498046875 198.39266967773438 221.478271484375 198.74838256835938 220.17123413085938 191.20596313476562 C 220.4122314453125 187.05328369140625 217.72254943847656 183.80722045898438 212.93663024902344 181.8791046142578" stroke-width="1.0" fill="rgb(3, 0, 3)" opacity="0.95299274"/>
    <path d="M 208.3053741455078 13.99810791015625 L 140.85671997070312 13.986104011535645 C 121.26532745361328 13.768959045410156 106.32594299316406 29.226055145263672 106.00802612304688 49.118595123291016 L 106.05762481689453 116.89521789550781 C 105.36388397216797 133.67828369140625 122.2855224609375 153.0153350830078 139.43353271484375 151.40208435058594 L 208.8177490234375 151.09939575195312 C 225.59625244140625 151.15953063964844 243.41412353515625 134.31846618652344 242.98411560058594 116.79131317138672 L 243.11767578125 48.46407699584961 C 243.7130126953125 29.388395309448242 226.8829803466797 14.194337844848633 208.3053741455078 13.99810791015625" stroke-width="1.0" fill="rgb(0, 0, 1)" opacity="1.0"/>
    <path d="M 173.65960693359375 31.926122665405273 C 147.8754119873047 32.19562530517578 125.1075210571289 55.338809967041016 124.99799346923828 82.70831298828125 C 126.1819839477539 108.43938446044922 146.50289916992188 131.80960083007812 174.6624298095703 131.6236572265625 C 202.53883361816406 132.63253784179688 222.7349853515625 108.29058074951172 223.92933654785156 82.23318481445312 C 223.79661560058594 54.43599319458008 202.79153442382812 32.19121551513672 173.65960693359375 31.926122665405273" stroke-width="1.0" fill="rgb(0, 0, 3)" opacity="0.9677682"/>
    <path d="M 198.42822265625 70.01297760009766 C 199.02011108398438 68.77083587646484 197.1154022216797 62.3559684753418 195.18902587890625 62.316837310791016 C 190.62022399902344 55.62546920776367 180.95315551757812 55.884605407714844 176.93630981445312 61.856388092041016 L 175.64166259765625 64.90333557128906 L 172.6473388671875 61.6708984375 C 168.40628051757812 56.3782844543457 159.3911590576172 56.521785736083984 155.4515380859375 60.81877136230469 C 152.1805419921875 62.16303253173828 150.91915893554688 69.17741394042969 150.8732452392578 69.4288330078125 C 150.7353057861328 72.57662963867188 153.4574737548828 79.66170501708984 155.56405639648438 80.81063079833984 L 156.61175537109375 82.31031799316406 L 155.54042053222656 83.55707550048828 C 152.10031127929688 85.75489044189453 151.43370056152344 89.83900451660156 150.47116088867188 95.13009643554688 C 151.66921997070312 95.6424331665039 151.1337432861328 98.97463989257812 154.81320190429688 101.9012222290039 C 160.3661651611328 107.37733459472656 167.83462524414062 107.8778076171875 172.66806030273438 101.99990844726562 L 175.17506408691406 99.57547760009766 L 176.49044799804688 101.91431427001953 C 181.10894775390625 106.09112548828125 181.69638061523438 105.9656982421875 185.53515625 106.0274429321289 C 189.8610076904297 106.31888580322266 193.2167510986328 104.99279022216797 193.86021423339844 102.77228546142578 C 196.8856964111328 102.30927276611328 198.61936950683594 94.71736907958984 198.458740234375 92.44780731201172 C 197.63246154785156 89.764404296875 198.00523376464844 86.35386657714844 193.52769470214844 83.19587707519531 L 192.27577209472656 82.0940170288086 L 194.40667724609375 80.345947265625 C 197.04493713378906 78.28852844238281 198.69032287597656 74.56571197509766 198.42822265625 70.01297760009766" stroke-width="1.0" fill="rgb(3, 0, 2)" opacity="0.9567417"/>
  </g>
</svg>
