<?xml version="1.0" ?>
<svg xmlns="http://www.w3.org/2000/svg" version="1.1" width="256" height="256">
  <defs/>
  <g>
    <path d="M 207.39999389648438 17.899999618530273 C 225.3000030517578 17.899999618530273 239.39999389648438 32.0 239.39999389648438 48.599998474121094 C 239.39999389648438 48.599998474121094 239.39999389648438 115.19999694824219 239.39999389648438 115.19999694824219 C 239.39999389648438 133.10000610351562 225.3000030517578 147.1999969482422 207.39999389648438 147.1999969482422 C 207.39999389648438 147.1999969482422 140.8000030517578 147.1999969482422 140.8000030517578 147.1999969482422 C 124.19999694824219 147.1999969482422 110.0999984741211 133.10000610351562 110.0999984741211 115.19999694824219 C 110.0999984741211 115.19999694824219 110.0999984741211 48.599998474121094 110.0999984741211 48.599998474121094 C 110.0999984741211 32.0 124.19999694824219 17.899999618530273 140.8000030517578 17.899999618530273 C 140.8000030517578 17.899999618530273 207.39999389648438 17.899999618530273 207.39999389648438 17.899999618530273" stroke-width="1.0" fill="rgb(252, 235, 134)" opacity="1.0"/>
    <path d="M 220.1999969482422 81.9000015258789 C 220.1999969482422 107.5 199.6999969482422 128.0 174.10000610351562 128.0 C 149.8000030517578 128.0 129.3000030517578 107.5 129.3000030517578 81.9000015258789 C 129.3000030517578 56.29999923706055 149.8000030517578 35.79999923706055 174.10000610351562 35.79999923706055 C 199.6999969482422 35.79999923706055 220.1999969482422 56.29999923706055 220.1999969482422 81.9000015258789 C 220.1999969482422 81.9000015258789 220.1999969482422 81.9000015258789 220.1999969482422 81.9000015258789" stroke-width="1.0" fill="rgb(250, 250, 250)" opacity="1.0"/>
    <path d="M 71.69999694824219 105.0 C 62.70000076293945 113.9000015258789 64.0 126.69999694824219 70.4000015258789 137.0 C 78.0999984741211 147.1999969482422 84.5 156.1999969482422 92.19999694824219 163.8000030517578 C 99.80000305175781 170.1999969482422 107.5 177.89999389648438 119.0 184.3000030517578 C 129.3000030517578 190.6999969482422 142.10000610351562 193.3000030517578 151.0 184.3000030517578 C 151.0 184.3000030517578 203.5 209.89999389648438 203.5 209.89999389648438 C 203.5 209.89999389648438 186.89999389648438 226.60000610351562 186.89999389648438 226.60000610351562 C 174.10000610351562 239.39999389648438 165.10000610351562 239.39999389648438 148.5 238.10000610351562 C 113.9000015258789 234.1999969482422 83.19999694824219 218.89999389648438 60.20000076293945 195.8000030517578 C 37.099998474121094 172.8000030517578 21.799999237060547 142.10000610351562 17.899999618530273 107.5 C 15.399999618530273 90.9000015258789 16.600000381469727 80.5999984741211 29.399999618530273 69.0999984741211 C 29.399999618530273 69.0999984741211 44.79999923706055 52.5 44.79999923706055 52.5 C 44.79999923706055 52.5 71.69999694824219 105.0 71.69999694824219 105.0" stroke-width="1.0" fill="rgb(151, 218, 117)" opacity="1.0"/>
    <path d="M 70.4000015258789 43.5 C 70.4000015258789 43.5 87.0 75.5 87.0 75.5 C 89.5999984741211 79.4000015258789 90.9000015258789 85.80000305175781 87.0 89.5999984741211 C 87.0 89.5999984741211 70.4000015258789 105.0 70.4000015258789 105.0 C 70.4000015258789 105.0 44.79999923706055 52.5 44.79999923706055 52.5 C 44.79999923706055 52.5 55.0 42.20000076293945 55.0 42.20000076293945 C 60.20000076293945 37.099998474121094 66.5999984741211 38.400001525878906 70.4000015258789 43.5" stroke-width="1.0" fill="rgb(115, 198, 66)" opacity="1.0"/>
    <path d="M 212.5 185.60000610351562 C 217.60000610351562 188.1999969482422 218.89999389648438 194.60000610351562 213.8000030517578 199.6999969482422 C 213.8000030517578 199.6999969482422 203.5 209.89999389648438 203.5 209.89999389648438 C 203.5 209.89999389648438 151.0 184.3000030517578 151.0 184.3000030517578 C 151.0 184.3000030517578 166.39999389648438 169.0 166.39999389648438 169.0 C 170.1999969482422 165.10000610351562 175.39999389648438 166.39999389648438 180.5 169.0 C 180.5 169.0 212.5 185.60000610351562 212.5 185.60000610351562" stroke-width="1.0" fill="rgb(116, 199, 65)" opacity="0.996422"/>
    <path d="M 179.1999969482422 64.0 C 183.0 61.400001525878906 188.1999969482422 61.400001525878906 192.0 64.0 C 195.8000030517578 67.80000305175781 195.8000030517578 74.19999694824219 192.0 76.80000305175781 C 192.0 76.80000305175781 186.89999389648438 81.9000015258789 186.89999389648438 81.9000015258789 C 186.89999389648438 81.9000015258789 192.0 87.0 192.0 87.0 C 195.8000030517578 89.5999984741211 195.8000030517578 96.0 192.0 99.80000305175781 C 188.1999969482422 102.4000015258789 183.0 102.4000015258789 179.1999969482422 99.80000305175781 C 179.1999969482422 99.80000305175781 174.10000610351562 94.69999694824219 174.10000610351562 94.69999694824219 C 174.10000610351562 94.69999694824219 170.1999969482422 99.80000305175781 170.1999969482422 99.80000305175781 C 166.39999389648438 102.4000015258789 161.3000030517578 102.4000015258789 157.39999389648438 99.80000305175781 C 153.60000610351562 96.0 153.60000610351562 89.5999984741211 157.39999389648438 87.0 C 157.39999389648438 87.0 161.3000030517578 81.9000015258789 161.3000030517578 81.9000015258789 C 161.3000030517578 81.9000015258789 157.39999389648438 76.80000305175781 157.39999389648438 76.80000305175781 C 153.60000610351562 74.19999694824219 153.60000610351562 67.80000305175781 157.39999389648438 64.0 C 161.3000030517578 61.400001525878906 166.39999389648438 61.400001525878906 170.1999969482422 64.0 C 170.1999969482422 64.0 174.10000610351562 69.0999984741211 174.10000610351562 69.0999984741211 C 174.10000610351562 69.0999984741211 179.1999969482422 64.0 179.1999969482422 64.0" stroke-width="1.0" fill="rgb(1, 155, 57)" opacity="0.87068903"/>
    <path d="M 213.8000030517578 181.8000030517578 C 213.8000030517578 181.8000030517578 183.0 165.10000610351562 183.0 165.10000610351562 C 172.8000030517578 160.0 167.6999969482422 162.60000610351562 163.8000030517578 166.39999389648438 C 163.8000030517578 166.39999389648438 148.5 181.8000030517578 148.5 181.8000030517578 C 138.1999969482422 190.6999969482422 125.4000015258789 183.0 120.30000305175781 180.5 C 110.0999984741211 174.10000610351562 102.4000015258789 167.6999969482422 94.69999694824219 160.0 C 88.30000305175781 153.60000610351562 81.9000015258789 145.89999389648438 74.19999694824219 134.39999389648438 C 71.69999694824219 130.60000610351562 64.0 116.5 74.19999694824219 107.5 C 74.19999694824219 107.5 89.5999984741211 90.9000015258789 89.5999984741211 90.9000015258789 C 92.19999694824219 88.30000305175781 94.69999694824219 81.9000015258789 90.9000015258789 73.0 C 90.9000015258789 73.0 74.19999694824219 41.0 74.19999694824219 41.0 C 71.69999694824219 38.400001525878906 69.0999984741211 35.79999923706055 65.30000305175781 34.599998474121094 C 60.20000076293945 34.599998474121094 56.29999923706055 35.79999923706055 52.5 39.70000076293945 C 52.5 39.70000076293945 25.600000381469727 66.5999984741211 25.600000381469727 66.5999984741211 C 11.5 80.5999984741211 11.5 92.19999694824219 14.100000381469727 107.5 C 17.899999618530273 142.10000610351562 33.29999923706055 174.10000610351562 56.29999923706055 198.39999389648438 C 80.5999984741211 222.6999969482422 113.9000015258789 238.10000610351562 147.1999969482422 241.89999389648438 C 152.3000030517578 241.89999389648438 156.1999969482422 241.89999389648438 160.0 241.89999389648438 C 170.1999969482422 241.89999389648438 179.1999969482422 239.39999389648438 189.39999389648438 229.10000610351562 C 189.39999389648438 229.10000610351562 216.3000030517578 203.5 216.3000030517578 203.5 C 218.89999389648438 199.6999969482422 221.39999389648438 194.60000610351562 220.1999969482422 190.6999969482422 C 220.1999969482422 186.89999389648438 217.60000610351562 184.3000030517578 213.8000030517578 181.8000030517578" stroke-width="1.0" fill="rgb(1, 2, 1)" opacity="0.97312754"/>
    <path d="M 207.39999389648438 14.100000381469727 C 207.39999389648438 14.100000381469727 140.8000030517578 14.100000381469727 140.8000030517578 14.100000381469727 C 121.5999984741211 14.100000381469727 106.19999694824219 29.399999618530273 106.19999694824219 48.599998474121094 C 106.19999694824219 48.599998474121094 106.19999694824219 115.19999694824219 106.19999694824219 115.19999694824219 C 106.19999694824219 134.39999389648438 121.5999984741211 151.0 140.8000030517578 151.0 C 140.8000030517578 151.0 207.39999389648438 151.0 207.39999389648438 151.0 C 226.60000610351562 151.0 243.1999969482422 134.39999389648438 243.1999969482422 115.19999694824219 C 243.1999969482422 115.19999694824219 243.1999969482422 48.599998474121094 243.1999969482422 48.599998474121094 C 243.1999969482422 29.399999618530273 227.8000030517578 14.100000381469727 207.39999389648438 14.100000381469727 C 207.39999389648438 14.100000381469727 207.39999389648438 14.100000381469727 207.39999389648438 14.100000381469727" stroke-width="1.0" fill="rgb(5, 5, 4)" opacity="1.0"/>
    <path d="M 174.10000610351562 32.0 C 147.1999969482422 32.0 125.4000015258789 55.0 125.4000015258789 81.9000015258789 C 125.4000015258789 108.80000305175781 147.1999969482422 131.8000030517578 174.10000610351562 131.8000030517578 C 202.1999969482422 131.8000030517578 224.0 108.80000305175781 224.0 81.9000015258789 C 224.0 55.0 202.1999969482422 32.0 174.10000610351562 32.0 C 174.10000610351562 32.0 174.10000610351562 32.0 174.10000610351562 32.0" stroke-width="1.0" fill="rgb(7, 7, 5)" opacity="0.9918834"/>
    <path d="M 198.39999389648438 70.4000015258789 C 198.39999389648438 67.80000305175781 197.10000610351562 64.0 194.60000610351562 61.400001525878906 C 189.39999389648438 56.29999923706055 181.8000030517578 56.29999923706055 176.60000610351562 61.400001525878906 C 176.60000610351562 61.400001525878906 175.39999389648438 64.0 175.39999389648438 64.0 C 175.39999389648438 64.0 172.8000030517578 61.400001525878906 172.8000030517578 61.400001525878906 C 167.6999969482422 56.29999923706055 160.0 56.29999923706055 154.89999389648438 61.400001525878906 C 152.3000030517578 64.0 151.0 67.80000305175781 151.0 70.4000015258789 C 151.0 74.19999694824219 152.3000030517578 78.0999984741211 154.89999389648438 80.5999984741211 C 154.89999389648438 80.5999984741211 156.1999969482422 81.9000015258789 156.1999969482422 81.9000015258789 C 156.1999969482422 81.9000015258789 154.89999389648438 83.19999694824219 154.89999389648438 83.19999694824219 C 152.3000030517578 85.80000305175781 151.0 89.5999984741211 151.0 93.4000015258789 C 151.0 96.0 152.3000030517578 99.80000305175781 154.89999389648438 102.4000015258789 C 160.0 107.5 167.6999969482422 107.5 172.8000030517578 102.4000015258789 C 172.8000030517578 102.4000015258789 175.39999389648438 99.80000305175781 175.39999389648438 99.80000305175781 C 175.39999389648438 99.80000305175781 176.60000610351562 102.4000015258789 176.60000610351562 102.4000015258789 C 179.1999969482422 105.0 183.0 106.19999694824219 185.60000610351562 106.19999694824219 C 189.39999389648438 106.19999694824219 192.0 105.0 194.60000610351562 102.4000015258789 C 197.10000610351562 99.80000305175781 198.39999389648438 96.0 198.39999389648438 93.4000015258789 C 198.39999389648438 89.5999984741211 197.10000610351562 85.80000305175781 194.60000610351562 83.19999694824219 C 194.60000610351562 83.19999694824219 193.3000030517578 81.9000015258789 193.3000030517578 81.9000015258789 C 193.3000030517578 81.9000015258789 194.60000610351562 80.5999984741211 194.60000610351562 80.5999984741211 C 197.10000610351562 78.0999984741211 198.39999389648438 74.19999694824219 198.39999389648438 70.4000015258789" stroke-width="1.0" fill="rgb(0, 0, 0)" opacity="0.95658964"/>
  </g>
</svg>
