<?xml version="1.0" encoding="utf-8" ?>
<svg baseProfile="tiny" height="256" version="1.2" viewBox="0 0 256 256" width="256" xmlns="http://www.w3.org/2000/svg" xmlns:ev="http://www.w3.org/2001/xml-events" xmlns:xlink="http://www.w3.org/1999/xlink"><defs /><path d="M 207.4,17.9 C 225.3,17.9 239.4,32.0 239.4,48.599999999999994 C 239.4,48.599999999999994 239.4,115.19999999999999 239.4,115.19999999999999 C 239.4,133.1 225.3,147.2 207.4,147.2 C 207.4,147.2 140.8,147.2 140.8,147.2 C 124.20000000000002,147.2 110.10000000000001,133.1 110.10000000000001,115.19999999999999 C 110.10000000000001,115.19999999999999 110.10000000000001,48.599999999999994 110.10000000000001,48.599999999999994 C 110.10000000000001,31.999999999999993 124.2,17.899999999999995 140.8,17.899999999999995 C 140.8,17.899999999999995 207.4,17.9 207.4,17.9 M 220.20000000000002,81.9 C 220.20000000000002,56.300000000000004 199.70000000000002,35.800000000000004 174.10000000000002,35.800000000000004 C 149.8,35.800000000000004 129.3,56.300000000000004 129.3,81.9 C 129.3,107.5 149.8,128.0 174.10000000000002,128.0 C 199.70000000000002,128.0 220.20000000000002,107.5 220.20000000000002,81.9" fill="#fe8" /><path d="M 220.2,81.9 C 220.2,107.5 199.7,128.0 174.1,128.0 C 149.79999999999998,128.0 129.3,107.5 129.3,81.9 C 129.3,56.300000000000004 149.8,35.800000000000004 174.10000000000002,35.800000000000004 C 199.70000000000002,35.800000000000004 220.20000000000002,56.300000000000004 220.20000000000002,81.9 C 220.20000000000002,81.9 220.2,81.9 220.2,81.9 M 192.0,64.0 C 188.2,61.4 183.0,61.4 179.2,64.0 C 179.2,64.0 174.1,69.1 174.1,69.1 C 174.1,69.1 170.2,63.99999999999999 170.2,63.99999999999999 C 166.39999999999998,61.39999999999999 161.29999999999998,61.39999999999999 157.39999999999998,63.99999999999999 C 153.59999999999997,67.8 153.59999999999997,74.19999999999999 157.39999999999998,76.8 C 157.39999999999998,76.8 161.29999999999998,81.89999999999999 161.29999999999998,81.89999999999999 C 161.29999999999998,81.89999999999999 157.39999999999998,86.99999999999999 157.39999999999998,86.99999999999999 C 153.59999999999997,89.59999999999998 153.59999999999997,95.99999999999999 157.39999999999998,99.79999999999998 C 161.29999999999998,102.39999999999998 166.39999999999998,102.39999999999998 170.2,99.79999999999998 C 170.2,99.79999999999998 174.1,94.69999999999999 174.1,94.69999999999999 C 174.1,94.69999999999999 179.2,99.79999999999998 179.2,99.79999999999998 C 183.0,102.39999999999998 188.2,102.39999999999998 192.0,99.79999999999998 C 195.8,95.99999999999999 195.8,89.59999999999998 192.0,86.99999999999999 C 192.0,86.99999999999999 186.9,81.89999999999999 186.9,81.89999999999999 C 186.9,81.89999999999999 192.0,76.8 192.0,76.8 C 195.8,74.2 195.8,67.8 192.0,64.0" fill="#fff" /><path d="M 71.7,105.0 C 62.7,113.9 64.0,126.7 70.4,137.0 C 78.10000000000001,147.2 84.5,156.2 92.2,163.8 C 99.8,170.20000000000002 107.5,177.9 119.0,184.3 C 129.3,190.70000000000002 142.1,193.3 151.0,184.3 C 151.0,184.3 203.5,209.9 203.5,209.9 C 203.5,209.9 186.9,226.6 186.9,226.6 C 174.1,239.4 165.1,239.4 148.5,238.1 C 113.9,234.2 83.2,218.9 60.2,195.8 C 37.1,172.8 21.800000000000004,142.10000000000002 17.900000000000006,107.50000000000001 C 15.400000000000006,90.9 16.600000000000005,80.60000000000002 29.400000000000006,69.10000000000002 C 29.400000000000006,69.10000000000002 44.800000000000004,52.50000000000002 44.800000000000004,52.50000000000002 C 44.800000000000004,52.50000000000002 71.7,105.0 71.7,105.0" fill="#9d7" /><path d="M 70.4,43.5 C 70.4,43.5 87.0,75.5 87.0,75.5 C 89.6,79.4 90.9,85.8 87.0,89.6 C 87.0,89.6 70.4,105.0 70.4,105.0 C 70.4,105.0 44.800000000000004,52.5 44.800000000000004,52.5 C 44.800000000000004,52.5 55.0,42.2 55.0,42.2 C 60.2,37.1 66.6,38.400000000000006 70.4,43.5" fill="#7c4" /><path d="M 212.5,185.6 C 217.6,188.2 218.9,194.6 213.8,199.7 C 213.8,199.7 203.5,209.89999999999998 203.5,209.89999999999998 C 203.5,209.89999999999998 151.0,184.29999999999998 151.0,184.29999999999998 C 151.0,184.29999999999998 166.4,168.99999999999997 166.4,168.99999999999997 C 170.20000000000002,165.09999999999997 175.4,166.39999999999998 180.5,168.99999999999997 C 180.5,168.99999999999997 212.5,185.6 212.5,185.6" fill="#7c4" /><path d="M 179.2,64.0 C 183.0,61.4 188.2,61.4 192.0,64.0 C 195.8,67.8 195.8,74.2 192.0,76.8 C 192.0,76.8 186.9,81.89999999999999 186.9,81.89999999999999 C 186.9,81.89999999999999 192.0,86.99999999999999 192.0,86.99999999999999 C 195.8,89.59999999999998 195.8,95.99999999999999 192.0,99.79999999999998 C 188.2,102.39999999999998 183.0,102.39999999999998 179.2,99.79999999999998 C 179.2,99.79999999999998 174.1,94.69999999999999 174.1,94.69999999999999 C 174.1,94.69999999999999 170.2,99.79999999999998 170.2,99.79999999999998 C 166.39999999999998,102.39999999999998 161.29999999999998,102.39999999999998 157.39999999999998,99.79999999999998 C 153.59999999999997,95.99999999999999 153.59999999999997,89.59999999999998 157.39999999999998,86.99999999999999 C 157.39999999999998,86.99999999999999 161.29999999999998,81.89999999999999 161.29999999999998,81.89999999999999 C 161.29999999999998,81.89999999999999 157.39999999999998,76.8 157.39999999999998,76.8 C 153.59999999999997,74.2 153.59999999999997,67.8 157.39999999999998,64.0 C 161.29999999999998,61.4 166.39999999999998,61.4 170.2,64.0 C 170.2,64.0 174.1,69.1 174.1,69.1 C 174.1,69.1 179.2,64.0 179.2,64.0" fill="#e55" /><path d="M 213.8,181.8 C 213.8,181.8 183.0,165.10000000000002 183.0,165.10000000000002 C 172.8,160.00000000000003 167.7,162.60000000000002 163.8,166.40000000000003 C 163.8,166.40000000000003 148.5,181.80000000000004 148.5,181.80000000000004 C 138.2,190.70000000000005 125.4,183.00000000000003 120.3,180.50000000000003 C 110.1,174.10000000000002 102.4,167.70000000000002 94.69999999999999,160.00000000000003 C 88.29999999999998,153.60000000000002 81.89999999999999,145.90000000000003 74.19999999999999,134.40000000000003 C 71.69999999999999,130.60000000000002 63.999999999999986,116.50000000000003 74.19999999999999,107.50000000000003 C 74.19999999999999,107.50000000000003 89.6,90.90000000000003 89.6,90.90000000000003 C 92.19999999999999,88.30000000000004 94.69999999999999,81.90000000000003 90.89999999999999,73.00000000000003 C 90.89999999999999,73.00000000000003 74.19999999999999,41.00000000000003 74.19999999999999,41.00000000000003 C 71.69999999999999,38.40000000000003 69.1,35.800000000000026 65.29999999999998,34.60000000000003 C 60.19999999999998,34.60000000000003 56.29999999999998,35.80000000000003 52.499999999999986,39.70000000000003 C 52.499999999999986,39.70000000000003 25.599999999999987,66.60000000000002 25.599999999999987,66.60000000000002 C 11.499999999999988,80.60000000000002 11.499999999999988,92.20000000000002 14.099999999999987,107.50000000000003 C 17.899999999999988,142.10000000000002 33.29999999999998,174.10000000000002 56.29999999999999,198.40000000000003 C 80.6,222.70000000000005 113.89999999999999,238.10000000000002 147.2,241.90000000000003 C 152.29999999999998,241.90000000000003 156.2,241.90000000000003 160.0,241.90000000000003 C 170.2,241.90000000000003 179.2,239.40000000000003 189.4,229.10000000000002 C 189.4,229.10000000000002 216.3,203.50000000000003 216.3,203.50000000000003 C 218.9,199.70000000000002 221.4,194.60000000000002 220.20000000000002,190.70000000000002 C 220.20000000000002,186.9 217.60000000000002,184.3 213.8,181.8 M 57.60000000000002,44.80000000000001 C 58.90000000000002,43.500000000000014 61.40000000000002,42.20000000000001 62.700000000000024,42.20000000000001 C 62.700000000000024,42.20000000000001 64.00000000000003,42.20000000000001 64.00000000000003,42.20000000000001 C 65.30000000000003,42.20000000000001 66.60000000000002,43.50000000000001 66.60000000000002,44.80000000000001 C 66.60000000000002,44.80000000000001 83.20000000000002,76.80000000000001 83.20000000000002,76.80000000000001 C 87.00000000000001,83.20000000000002 84.50000000000001,85.80000000000001 84.50000000000001,85.80000000000001 C 84.50000000000001,85.80000000000001 71.70000000000002,98.60000000000001 71.70000000000002,98.60000000000001 C 71.70000000000002,98.60000000000001 49.90000000000002,53.80000000000001 49.90000000000002,53.80000000000001 C 49.90000000000002,53.80000000000001 57.60000000000002,44.80000000000001 57.60000000000002,44.80000000000001 M 184.3,224.0 C 172.8,235.5 163.9,235.5 148.5,234.2 C 116.5,230.39999999999998 85.8,215.0 62.7,193.2 C 39.7,170.2 25.6,139.5 21.800000000000004,107.49999999999999 C 19.200000000000003,92.09999999999998 20.500000000000004,83.19999999999999 32.0,71.6 C 32.0,71.6 44.8,58.8 44.8,58.8 C 44.8,58.8 66.6,103.6 66.6,103.6 C 58.89999999999999,112.6 60.199999999999996,126.69999999999999 67.89999999999999,139.5 C 75.49999999999999,149.7 81.89999999999999,158.7 89.6,166.4 C 97.3,174.0 105.0,180.4 116.5,188.1 C 129.3,195.79999999999998 142.1,195.79999999999998 152.3,189.4 C 152.3,189.4 197.10000000000002,211.20000000000002 197.10000000000002,211.20000000000002 C 197.10000000000002,211.20000000000002 184.3,224.0 184.3,224.0 M 211.20000000000002,197.1 C 211.20000000000002,197.1 202.3,206.0 202.3,206.0 C 202.3,206.0 157.5,183.0 157.5,183.0 C 157.5,183.0 169.0,171.5 169.0,171.5 C 170.3,170.2 172.8,168.9 179.2,172.8 C 179.2,172.8 209.89999999999998,188.10000000000002 209.89999999999998,188.10000000000002 C 212.49999999999997,189.40000000000003 212.49999999999997,190.70000000000002 212.49999999999997,192.00000000000003 C 213.79999999999998,193.20000000000002 212.49999999999997,195.80000000000004 211.19999999999996,197.10000000000002 C 211.19999999999996,197.10000000000002 211.20000000000002,197.1 211.20000000000002,197.1" fill="black" /><path d="M 207.4,14.1 C 207.4,14.1 140.8,14.1 140.8,14.1 C 121.60000000000001,14.1 106.20000000000002,29.4 106.20000000000002,48.6 C 106.20000000000002,48.6 106.20000000000002,115.19999999999999 106.20000000000002,115.19999999999999 C 106.20000000000002,134.39999999999998 121.60000000000002,151.0 140.8,151.0 C 140.8,151.0 207.4,151.0 207.4,151.0 C 226.6,151.0 243.2,134.4 243.2,115.2 C 243.2,115.2 243.2,48.60000000000001 243.2,48.60000000000001 C 243.2,29.40000000000001 227.79999999999998,14.100000000000009 207.39999999999998,14.100000000000009 C 207.39999999999998,14.100000000000009 207.4,14.1 207.4,14.1 M 235.5,115.19999999999999 C 235.5,130.6 222.7,142.1 207.4,142.1 C 207.4,142.1 140.8,142.1 140.8,142.1 C 125.4,142.1 113.9,130.6 113.9,115.19999999999999 C 113.9,115.19999999999999 113.9,48.599999999999994 113.9,48.599999999999994 C 113.9,33.3 125.4,21.799999999999994 140.8,21.799999999999994 C 140.8,21.799999999999994 207.4,21.799999999999994 207.4,21.799999999999994 C 222.70000000000002,21.799999999999994 235.5,33.3 235.5,48.599999999999994 C 235.5,48.599999999999994 235.5,115.19999999999999 235.5,115.19999999999999" fill="black" /><path d="M 174.1,32.0 C 147.2,32.0 125.39999999999999,55.0 125.39999999999999,81.9 C 125.39999999999999,108.80000000000001 147.2,131.8 174.1,131.8 C 202.2,131.8 224.0,108.80000000000001 224.0,81.9 C 224.0,55.00000000000001 202.2,32.00000000000001 174.1,32.00000000000001 C 174.1,32.00000000000001 174.1,32.0 174.1,32.0 M 174.1,124.2 C 151.0,124.2 133.1,105.0 133.1,81.9 C 133.1,58.900000000000006 151.0,39.7 174.1,39.7 C 197.1,39.7 216.3,58.900000000000006 216.3,81.9 C 216.3,105.0 197.10000000000002,124.2 174.10000000000002,124.2 C 174.10000000000002,124.2 174.1,124.2 174.1,124.2" fill="black" /><path d="M 198.4,70.4 C 198.4,67.80000000000001 197.1,64.0 194.6,61.400000000000006 C 189.4,56.300000000000004 181.79999999999998,56.300000000000004 176.6,61.400000000000006 C 176.6,61.400000000000006 175.4,64.0 175.4,64.0 C 175.4,64.0 172.8,61.4 172.8,61.4 C 167.70000000000002,56.3 160.0,56.3 154.9,61.4 C 152.3,64.0 151.0,67.8 151.0,70.4 C 151.0,74.2 152.3,78.10000000000001 154.9,80.60000000000001 C 154.9,80.60000000000001 156.20000000000002,81.9 156.20000000000002,81.9 C 156.20000000000002,81.9 154.9,83.2 154.9,83.2 C 152.3,85.8 151.0,89.60000000000001 151.0,93.4 C 151.0,96.0 152.3,99.80000000000001 154.9,102.4 C 160.0,107.5 167.70000000000002,107.5 172.8,102.4 C 172.8,102.4 175.4,99.80000000000001 175.4,99.80000000000001 C 175.4,99.80000000000001 176.6,102.4 176.6,102.4 C 179.2,105.0 183.0,106.2 185.6,106.2 C 189.4,106.2 192.0,105.0 194.6,102.4 C 197.1,99.80000000000001 198.4,96.0 198.4,93.4 C 198.4,89.60000000000001 197.1,85.80000000000001 194.6,83.2 C 194.6,83.2 193.29999999999998,81.9 193.29999999999998,81.9 C 193.29999999999998,81.9 194.6,80.60000000000001 194.6,80.60000000000001 C 197.1,78.10000000000001 198.4,74.2 198.4,70.4 M 184.3,84.5 C 184.3,84.5 189.4,89.6 189.4,89.6 C 190.70000000000002,90.89999999999999 190.70000000000002,92.19999999999999 190.70000000000002,93.39999999999999 C 190.70000000000002,94.69999999999999 190.70000000000002,95.99999999999999 189.4,95.99999999999999 C 186.86666666666667,98.53333333333332 184.33333333333334,98.53333333333332 181.8,95.99999999999999 C 181.8,95.99999999999999 176.60000000000002,92.19999999999999 176.60000000000002,92.19999999999999 C 176.60000000000002,90.89999999999999 175.40000000000003,90.89999999999999 174.10000000000002,90.89999999999999 C 172.8,90.89999999999999 172.8,90.89999999999999 171.50000000000003,92.19999999999999 C 171.50000000000003,92.19999999999999 166.40000000000003,95.99999999999999 166.40000000000003,95.99999999999999 C 165.10000000000002,98.59999999999998 161.30000000000004,98.59999999999998 160.00000000000003,95.99999999999999 C 158.70000000000002,95.99999999999999 157.40000000000003,94.69999999999999 157.40000000000003,93.39999999999999 C 157.40000000000003,92.19999999999999 158.70000000000005,90.89999999999999 160.00000000000003,89.6 C 160.00000000000003,89.6 163.80000000000004,84.5 163.80000000000004,84.5 C 165.10000000000005,84.5 165.10000000000005,83.2 165.10000000000005,81.9 C 165.10000000000005,80.60000000000001 165.10000000000005,79.4 163.80000000000004,79.4 C 163.80000000000004,79.4 160.00000000000003,74.2 160.00000000000003,74.2 C 158.70000000000002,73.0 157.40000000000003,71.7 157.40000000000003,70.4 C 157.40000000000003,69.10000000000001 158.70000000000005,67.80000000000001 160.00000000000003,67.80000000000001 C 161.30000000000004,65.30000000000001 165.10000000000002,65.30000000000001 166.40000000000003,67.80000000000001 C 166.40000000000003,67.80000000000001 171.50000000000003,71.70000000000002 171.50000000000003,71.70000000000002 C 172.80000000000004,73.00000000000001 175.40000000000003,73.00000000000001 176.60000000000002,71.70000000000002 C 176.60000000000002,71.70000000000002 181.8,67.80000000000001 181.8,67.80000000000001 C 183.0,65.30000000000001 186.9,65.30000000000001 189.4,67.80000000000001 C 189.4,67.80000000000001 190.70000000000002,69.10000000000001 190.70000000000002,70.4 C 190.70000000000002,71.7 189.4,73.0 189.4,74.2 C 189.4,74.2 184.3,79.4 184.3,79.4 C 183.0,79.4 183.0,80.60000000000001 183.0,81.9 C 183.0,83.2 184.3,84.5 184.3,84.5" fill="black" /></svg>