<?xml version="1.0" ?>
<svg xmlns="http://www.w3.org/2000/svg" version="1.1" width="256" height="256">
  <defs/>
  <g>
    <path d="M 207.15789794921875 18.690876007080078 C 224.86737060546875 18.28990364074707 238.80300903320312 32.44044494628906 238.35403442382812 49.0867805480957 L 238.55491638183594 114.6962661743164 C 238.68153381347656 132.62025451660156 224.8172149658203 146.808837890625 207.21658325195312 146.02203369140625 L 142.3915557861328 142.85501098632812 C 124.2725830078125 145.97463989257812 109.80239868164062 133.11875915527344 110.80107879638672 115.45004272460938 L 111.04059600830078 48.7189826965332 C 110.3421859741211 32.45235824584961 124.69467163085938 18.751577377319336 141.6146240234375 20.28799819946289 L 207.15789794921875 18.690876007080078" stroke-width="1.2799999713897705" fill="rgb(255, 255, 255)" opacity="0.53085047"/>
    <path d="M 218.57875061035156 80.80332946777344 C 218.89306640625 108.10136413574219 200.159912109375 126.92090606689453 173.6462860107422 125.1241455078125 C 150.667236328125 126.92103576660156 130.7448272705078 106.56591796875 127.9925765991211 83.61893463134766 C 129.70457458496094 57.5112190246582 150.7686309814453 37.050655364990234 173.85263061523438 38.585357666015625 C 199.47897338867188 36.687339782714844 219.9398651123047 56.50320816040039 218.57875061035156 80.80332946777344" stroke-width="1.2799999713897705" fill="rgb(255, 255, 255)" opacity="0.99954593"/>
    <path d="M 70.77496337890625 105.20650482177734 C 62.425785064697266 113.68734741210938 64.8361587524414 126.79086303710938 70.62274169921875 136.67698669433594 C 78.2808609008789 146.9515838623047 84.90514373779297 155.69338989257812 92.69212341308594 163.28317260742188 C 97.68842315673828 171.83401489257812 103.30670928955078 181.90206909179688 118.39302825927734 184.68118286132812 C 127.97520446777344 191.7511749267578 147.3900604248047 193.65536499023438 155.52523803710938 183.9259490966797 L 197.78001403808594 210.938232421875 L 189.52554321289062 228.67149353027344 C 176.4354248046875 239.86593627929688 165.43316650390625 240.541748046875 149.4795379638672 237.749267578125 C 114.17208099365234 233.7781524658203 84.3216781616211 218.46759033203125 59.57943344116211 193.87474060058594 C 34.43953323364258 176.0713653564453 21.438907623291016 143.508544921875 14.878305435180664 105.9443359375 C 16.456615447998047 92.36353302001953 19.21586036682129 83.96045684814453 29.025644302368164 68.958251953125 L 45.40422439575195 54.868553161621094 L 70.77496337890625 105.20650482177734" stroke-width="1.2799999713897705" fill="rgb(255, 255, 255)" opacity="0.039038368"/>
    <path d="M 70.11479949951172 43.800254821777344 L 86.2218017578125 76.64947509765625 C 87.64313507080078 79.24890899658203 88.28713989257812 84.35960388183594 87.58065032958984 90.0507583618164 L 69.82803344726562 103.17960357666016 L 46.80544662475586 50.54616928100586 L 55.179710388183594 42.13652801513672 C 59.92287063598633 37.21603012084961 65.54875183105469 39.25867462158203 70.11479949951172 43.800254821777344" stroke-width="1.2799999713897705" fill="rgb(101, 219, 0)" opacity="1.0"/>
    <path d="M 213.1085662841797 185.15066528320312 C 210.8960723876953 193.4163818359375 216.72000122070312 197.1820526123047 213.26068115234375 200.35755920410156 L 203.35890197753906 211.006591796875 L 151.74923706054688 184.0990753173828 L 165.35166931152344 168.73963928222656 C 169.54696655273438 167.3000030517578 174.6056671142578 169.12864685058594 180.0873260498047 169.68206787109375 L 213.1085662841797 185.15066528320312" stroke-width="1.2799999713897705" fill="rgb(76, 170, 0)" opacity="1.0"/>
    <path d="M 177.17642211914062 62.87173080444336 C 183.6924591064453 60.499935150146484 187.77720642089844 60.05681610107422 192.84800720214844 63.428367614746094 C 197.0443572998047 67.92362976074219 197.0250701904297 75.17530822753906 193.45327758789062 78.47610473632812 L 193.18453979492188 83.16260528564453 L 194.20741271972656 85.41243743896484 C 195.88038635253906 90.27898406982422 199.62123107910156 98.75411224365234 195.43283081054688 99.59815979003906 C 190.46041870117188 101.7226333618164 184.8826446533203 100.82653045654297 180.13717651367188 99.49321746826172 L 173.96044921875 95.13002014160156 L 172.29042053222656 101.05049896240234 C 165.86871337890625 105.57575988769531 160.7310791015625 106.16944885253906 159.11557006835938 99.603515625 C 156.29490661621094 95.06202697753906 152.09921264648438 88.63540649414062 154.97540283203125 85.0069580078125 L 163.2891387939453 79.97831726074219 L 155.93466186523438 77.8554458618164 C 152.23345947265625 75.98867797851562 151.5275421142578 65.97026062011719 155.45114135742188 62.8082275390625 C 162.9075927734375 61.03983688354492 170.21337890625 60.57176971435547 171.37466430664062 65.99114227294922 L 174.11947631835938 70.31249237060547 L 177.17642211914062 62.87173080444336" stroke-width="1.2799999713897705" fill="rgb(0, 255, 185)" opacity="0.43697843"/>
    <path d="M 212.00363159179688 180.82620239257812 L 183.0023956298828 165.0738983154297 C 173.07989501953125 160.03060913085938 167.1820526123047 162.84776306152344 163.59239196777344 166.44290161132812 L 149.34410095214844 181.0462646484375 C 139.63308715820312 190.3761444091797 128.59335327148438 184.2251739501953 121.25189208984375 181.07752990722656 C 110.40139770507812 174.206298828125 102.21720123291016 167.3167724609375 94.81414794921875 159.9081268310547 C 88.95728302001953 154.06600952148438 81.21060180664062 145.37940979003906 74.45128631591797 134.423095703125 C 71.98804473876953 131.29031372070312 64.03227233886719 116.74051666259766 73.50096893310547 108.36312103271484 L 88.44860076904297 92.19200134277344 C 91.51946258544922 90.40396881103516 95.621826171875 82.7475357055664 89.83009338378906 70.64493560791016 L 74.60682678222656 41.5561408996582 C 70.478515625 36.74953842163086 66.51004791259766 35.32606887817383 67.22587585449219 34.811668395996094 C 62.12914276123047 33.71477127075195 54.67311477661133 36.144775390625 52.34218215942383 39.90709686279297 L 25.43169403076172 66.61875915527344 C 12.068758010864258 81.01132202148438 11.328845977783203 89.60269927978516 13.945658683776855 107.51290893554688 C 18.86834144592285 144.5838623046875 33.08208465576172 173.3215789794922 56.6954231262207 198.7761688232422 C 81.26185607910156 222.7261505126953 113.21224975585938 238.00794982910156 148.01548767089844 241.9984130859375 C 153.5308380126953 242.03475952148438 155.0388946533203 242.14227294921875 159.00759887695312 241.92300415039062 C 171.2684783935547 241.61727905273438 178.89903259277344 239.52737426757812 189.21730041503906 229.20474243164062 L 216.09242248535156 203.78170776367188 C 218.16664123535156 199.818603515625 220.5948028564453 199.17901611328125 220.3470916748047 189.37478637695312 C 219.00987243652344 186.83847045898438 218.7946014404297 184.76852416992188 212.00363159179688 180.82620239257812" stroke-width="1.2799999713897705" fill="rgb(78, 128, 53)" opacity="0.8788043"/>
    <path d="M 206.60317993164062 14.121978759765625 L 140.5139617919922 14.103415489196777 C 121.40348052978516 14.020003318786621 106.2992935180664 29.650047302246094 106.24443817138672 48.28416061401367 L 106.25150299072266 115.35635375976562 C 106.32475280761719 134.5312957763672 121.69330596923828 150.92213439941406 140.8356170654297 151.02757263183594 L 207.51663208007812 151.0361785888672 C 226.8093719482422 151.21324157714844 242.9017333984375 133.73880004882812 243.191650390625 116.0153579711914 L 243.1766357421875 48.97054672241211 C 243.0067596435547 29.080718994140625 228.19149780273438 14.322609901428223 206.60317993164062 14.121978759765625" stroke-width="1.2799999713897705" fill="rgb(137, 124, 43)" opacity="0.7976861"/>
    <path d="M 174.077880859375 32.0560302734375 C 146.95042419433594 32.514408111572266 125.626220703125 54.46231460571289 125.45137786865234 82.1293716430664 C 125.52874755859375 108.6143798828125 147.10203552246094 131.7914581298828 174.34967041015625 131.7017059326172 C 201.88485717773438 131.81068420410156 223.75732421875 109.37594604492188 224.0258026123047 81.853759765625 C 223.4456329345703 54.94042205810547 203.0450897216797 32.16122055053711 174.077880859375 32.0560302734375" stroke-width="1.2799999713897705" fill="rgb(156, 169, 254)" opacity="0.42545748"/>
    <path d="M 197.86538696289062 68.92648315429688 C 199.12083435058594 69.55973815917969 197.15737915039062 63.82271194458008 193.4698944091797 60.253684997558594 C 187.66786193847656 57.19179916381836 181.80178833007812 55.926185607910156 175.87066650390625 62.193416595458984 L 175.18067932128906 64.17827606201172 L 172.13595581054688 60.638187408447266 C 166.27203369140625 56.479705810546875 160.79771423339844 56.379554748535156 155.51580810546875 61.16411590576172 C 150.7843780517578 64.6045150756836 150.8885955810547 69.17662811279297 151.0308837890625 74.07864379882812 C 151.4669952392578 72.64807891845703 153.02772521972656 81.04668426513672 156.0570526123047 80.67765808105469 L 155.08474731445312 77.42267608642578 L 155.28402709960938 83.20242309570312 C 152.5259552001953 85.49992370605469 151.14759826660156 89.62800598144531 151.25685119628906 93.07177734375 C 151.166015625 95.89938354492188 151.97935485839844 99.67860412597656 156.19837951660156 103.47991180419922 C 159.22723388671875 107.14917755126953 168.2625732421875 107.2638931274414 173.36575317382812 101.81455993652344 L 175.19561767578125 99.80790710449219 L 176.7149200439453 101.94752502441406 C 177.2425537109375 103.86721801757812 185.58998107910156 106.8992919921875 183.77548217773438 106.01301574707031 C 186.50575256347656 107.15269470214844 197.3329315185547 103.3049087524414 194.31761169433594 101.25240325927734 C 197.1106414794922 101.87545013427734 198.4774627685547 94.36592864990234 198.4899444580078 94.3150405883789 C 198.13629150390625 89.41441345214844 197.8703155517578 86.03659057617188 192.479248046875 81.44114685058594 L 194.62110900878906 86.36514282226562 L 193.6477813720703 81.73917388916016 C 196.78271484375 78.03126525878906 199.2730255126953 74.18340301513672 197.86538696289062 68.92648315429688" stroke-width="1.2799999713897705" fill="rgb(16, 67, 35)" opacity="1.0"/>
  </g>
</svg>
