<?xml version="1.0" encoding="utf-8" ?>
<svg baseProfile="tiny" height="200" version="1.2" viewBox="0 0 200 200" width="200" xmlns="http://www.w3.org/2000/svg" xmlns:ev="http://www.w3.org/2001/xml-events" xmlns:xlink="http://www.w3.org/1999/xlink"><defs /><path d="M 162.0,87.0 C 162.0,87.0 162.0,180.0 162.0,180.0 C 162.0,189.0 156.0,196.0 147.0,196.0 C 147.0,196.0 53.0,196.0 53.0,196.0 C 44.0,196.0 38.0,189.0 38.0,180.0 C 38.0,180.0 38.0,87.0 38.0,87.0 C 38.0,78.0 44.0,71.0 53.0,71.0 C 53.0,71.0 77.0,71.0 77.0,71.0 C 77.0,71.0 77.0,27.0 77.0,27.0 C 77.0,27.0 92.0,27.0 92.0,27.0 C 92.0,27.0 100.0,20.0 100.0,20.0 C 100.0,20.0 108.0,27.0 108.0,27.0 C 108.0,27.0 123.0,27.0 123.0,27.0 C 123.0,27.0 123.0,71.0 123.0,71.0 C 123.0,71.0 147.0,71.0 147.0,71.0 C 156.0,71.0 162.0,78.0 162.0,87.0" fill="#ccf" /><path d="M 100.0,165.0 C 100.0,165.0 84.0,165.0 84.0,165.0 C 84.0,165.0 84.0,149.0 84.0,149.0 C 84.0,149.0 69.0,149.0 69.0,149.0 C 69.0,149.0 69.0,126.0 69.0,126.0 C 69.0,119.0 71.0,113.0 74.0,108.0 C 80.0,100.0 89.0,95.0 100.0,95.0 C 111.0,95.0 120.0,100.0 126.0,108.0 C 129.0,113.0 131.0,119.0 131.0,126.0 C 131.0,126.0 131.0,149.0 131.0,149.0 C 131.0,149.0 116.0,149.0 116.0,149.0 C 116.0,149.0 116.0,165.0 116.0,165.0 C 116.0,165.0 100.0,165.0 100.0,165.0" fill="#fff" /><path d="M 116.0,4.0 C 116.0,4.0 108.0,27.0 108.0,27.0 C 108.0,27.0 92.0,27.0 92.0,27.0 C 92.0,27.0 84.0,4.0 84.0,4.0 C 84.0,4.0 116.0,4.0 116.0,4.0" fill="#b9f" /><path d="M 147.0,67.0 C 147.0,67.0 127.0,67.0 127.0,67.0 C 127.0,67.0 127.0,31.0 127.0,31.0 C 127.0,31.0 139.0,31.0 139.0,31.0 C 141.0,31.0 143.0,30.0 143.0,27.0 C 143.0,25.0 141.0,23.0 139.0,23.0 C 139.0,23.0 113.0,23.0 113.0,23.0 C 113.0,23.0 119.0,5.0 119.0,5.0 C 120.0,4.0 120.0,3.0 119.0,2.0 C 118.0,1.0 117.0,0.0 116.0,0.0 C 116.0,0.0 84.0,0.0 84.0,0.0 C 83.0,0.0 82.0,1.0 81.0,2.0 C 80.0,3.0 80.0,4.0 81.0,5.0 C 81.0,5.0 87.0,23.0 87.0,23.0 C 87.0,23.0 61.0,23.0 61.0,23.0 C 59.0,23.0 57.0,25.0 57.0,27.0 C 57.0,30.0 59.0,31.0 61.0,31.0 C 61.0,31.0 73.0,31.0 73.0,31.0 C 73.0,31.0 73.0,67.0 73.0,67.0 C 73.0,67.0 53.0,67.0 53.0,67.0 C 42.0,67.0 34.0,76.0 34.0,87.0 C 34.0,87.0 34.0,180.0 34.0,180.0 C 34.0,191.0 42.0,200.0 53.0,200.0 C 53.0,200.0 147.0,200.0 147.0,200.0 C 158.0,200.0 166.0,191.0 166.0,180.0 C 166.0,180.0 166.0,87.0 166.0,87.0 C 166.0,76.0 158.0,67.0 147.0,67.0 M 110.0,8.0 C 110.0,8.0 105.0,23.0 105.0,23.0 C 105.0,23.0 95.0,23.0 95.0,23.0 C 95.0,23.0 90.0,8.0 90.0,8.0 C 90.0,8.0 110.0,8.0 110.0,8.0 M 159.0,180.0 C 159.0,187.0 153.0,192.0 147.0,192.0 C 147.0,192.0 53.0,192.0 53.0,192.0 C 47.0,192.0 41.0,187.0 41.0,180.0 C 41.0,180.0 41.0,87.0 41.0,87.0 C 41.0,80.0 47.0,75.0 53.0,75.0 C 53.0,75.0 77.0,75.0 77.0,75.0 C 79.0,75.0 80.0,73.0 80.0,71.0 C 80.0,71.0 80.0,31.0 80.0,31.0 C 80.0,31.0 120.0,31.0 120.0,31.0 C 120.0,31.0 120.0,71.0 120.0,71.0 C 120.0,73.0 121.0,75.0 123.0,75.0 C 123.0,75.0 147.0,75.0 147.0,75.0 C 153.0,75.0 159.0,80.0 159.0,87.0 C 159.0,87.0 159.0,180.0 159.0,180.0" fill="#b578d3" /><path d="M 113.0,123.0 C 113.0,123.0 105.0,131.0 105.0,131.0 C 104.0,132.0 104.0,135.0 105.0,136.0 C 106.0,137.0 107.0,138.0 108.0,138.0 C 109.0,138.0 110.0,137.0 111.0,136.0 C 111.0,136.0 118.0,129.0 118.0,129.0 C 120.0,127.0 120.0,125.0 118.0,123.0 C 117.0,121.0 114.0,121.0 113.0,123.0" fill="#b578d3" /><path d="M 87.0,123.0 C 86.0,121.0 83.0,121.0 82.0,123.0 C 80.0,125.0 80.0,127.0 82.0,129.0 C 82.0,129.0 89.0,136.0 89.0,136.0 C 90.0,137.0 91.0,138.0 92.0,138.0 C 93.0,138.0 94.0,137.0 95.0,136.0 C 96.0,135.0 96.0,132.0 95.0,131.0 C 95.0,131.0 87.0,123.0 87.0,123.0" fill="#b578d3" /><path d="M 142.0,92.0 C 140.0,90.0 138.0,90.0 136.0,92.0 C 136.0,92.0 126.0,102.0 126.0,102.0 C 119.0,95.0 110.0,91.0 100.0,91.0 C 90.0,91.0 81.0,95.0 74.0,102.0 C 74.0,102.0 64.0,92.0 64.0,92.0 C 62.0,90.0 60.0,90.0 58.0,92.0 C 57.0,93.0 57.0,96.0 58.0,97.0 C 58.0,97.0 69.0,109.0 69.0,109.0 C 66.0,114.0 65.0,120.0 65.0,126.0 C 65.0,126.0 65.0,149.0 65.0,149.0 C 65.0,151.0 67.0,153.0 69.0,153.0 C 69.0,153.0 75.0,153.0 75.0,153.0 C 75.0,153.0 58.0,170.0 58.0,170.0 C 57.0,171.0 57.0,174.0 58.0,175.0 C 59.0,176.0 60.0,177.0 61.0,177.0 C 62.0,177.0 63.0,176.0 64.0,175.0 C 64.0,175.0 80.0,159.0 80.0,159.0 C 80.0,159.0 80.0,165.0 80.0,165.0 C 80.0,167.0 82.0,169.0 84.0,169.0 C 84.0,169.0 116.0,169.0 116.0,169.0 C 118.0,169.0 120.0,167.0 120.0,165.0 C 120.0,165.0 120.0,159.0 120.0,159.0 C 120.0,159.0 136.0,175.0 136.0,175.0 C 137.0,176.0 138.0,177.0 139.0,177.0 C 140.0,177.0 141.0,176.0 142.0,175.0 C 143.0,174.0 143.0,171.0 142.0,170.0 C 142.0,170.0 125.0,153.0 125.0,153.0 C 125.0,153.0 131.0,153.0 131.0,153.0 C 133.0,153.0 135.0,151.0 135.0,149.0 C 135.0,149.0 135.0,126.0 135.0,126.0 C 135.0,120.0 134.0,114.0 131.0,109.0 C 131.0,109.0 142.0,97.0 142.0,97.0 C 143.0,96.0 143.0,93.0 142.0,92.0 M 127.0,145.0 C 127.0,145.0 116.0,145.0 116.0,145.0 C 114.0,145.0 113.0,146.0 113.0,146.0 C 112.0,147.0 112.0,148.0 112.0,149.0 C 112.0,149.0 112.0,149.0 112.0,149.0 C 112.0,149.0 112.0,161.0 112.0,161.0 C 112.0,161.0 104.0,161.0 104.0,161.0 C 104.0,161.0 104.0,149.0 104.0,149.0 C 104.0,147.0 102.0,145.0 100.0,145.0 C 98.0,145.0 96.0,147.0 96.0,149.0 C 96.0,149.0 96.0,161.0 96.0,161.0 C 96.0,161.0 88.0,161.0 88.0,161.0 C 88.0,159.0 88.0,150.0 88.0,149.0 C 88.0,147.0 87.0,145.0 84.0,145.0 C 84.0,145.0 73.0,145.0 73.0,145.0 C 73.0,145.0 73.0,126.0 73.0,126.0 C 73.0,120.0 74.0,115.0 78.0,110.0 C 83.0,103.0 91.0,98.0 100.0,98.0 C 109.0,98.0 117.0,103.0 122.0,110.0 C 122.0,110.0 122.0,110.0 122.0,110.0 C 126.0,115.0 127.0,120.0 127.0,126.0 C 127.0,126.0 127.0,145.0 127.0,145.0" fill="#b578d3" /></svg>