<svg xmlns="http://www.w3.org/2000/svg" height="200" width="200" viewBox="0 0 200 200">  <path d="M 162 87 L 162 180 C 162 189 156 196 147 196 L 53 196 C 44 196 38 189 38 180 L 38 87 C 38 78 44 71 53 71 L 77 71 L 77 27 L 92 27 L 100 20 L 108 27 L 123 27 L 123 71 L 147 71 C 156 71 162 78 162 87 Z" fill="#ccf"/>  <path d="M 100 165 L 84 165 L 84 149 L 69 149 L 69 126 C 69 119 71 113 74 108 C 80 100 89 95 100 95 C 111 95 120 100 126 108 C 129 113 131 119 131 126 L 131 149 L 116 149 L 116 165 L 100 165 Z" fill="#fff"/>  <path d="M 116 4 L 108 27 L 92 27 L 84 4 L 116 4 Z" fill="#b9f"/>  <path d="M 147 67 L 127 67 L 127 31 L 139 31 C 141 31 143 30 143 27 C 143 25 141 23 139 23 L 113 23 L 119 5 C 120 4 120 3 119 2 C 118 1 117 0 116 0 L 84 0 C 83 0 82 1 81 2 C 80 3 80 4 81 5 L 87 23 L 61 23 C 59 23 57 25 57 27 C 57 30 59 31 61 31 L 73 31 L 73 67 L 53 67 C 42 67 34 76 34 87 L 34 180 C 34 191 42 200 53 200 L 147 200 C 158 200 166 191 166 180 L 166 87 C 166 76 158 67 147 67 Z M 110 8 L 105 23 L 95 23 L 90 8 L 110 8 Z M 159 180 C 159 187 153 192 147 192 L 53 192 C 47 192 41 187 41 180 L 41 87 C 41 80 47 75 53 75 L 77 75 C 79 75 80 73 80 71 L 80 31 L 120 31 L 120 71 C 120 73 121 75 123 75 L 147 75 C 153 75 159 80 159 87 L 159 180 Z" fill="#b578d3"/>  <path d="M 113 123 L 105 131 C 104 132 104 135 105 136 C 106 137 107 138 108 138 C 109 138 110 137 111 136 L 118 129 C 120 127 120 125 118 123 C 117 121 114 121 113 123 Z" fill="#b578d3"/>  <path d="M 87 123 C 86 121 83 121 82 123 C 80 125 80 127 82 129 L 89 136 C 90 137 91 138 92 138 C 93 138 94 137 95 136 C 96 135 96 132 95 131 L 87 123 Z" fill="#b578d3"/>  <path d="M 142 92 C 140 90 138 90 136 92 L 126 102 C 119 95 110 91 100 91 C 90 91 81 95 74 102 L 64 92 C 62 90 60 90 58 92 C 57 93 57 96 58 97 L 69 109 C 66 114 65 120 65 126 L 65 149 C 65 151 67 153 69 153 L 75 153 L 58 170 C 57 171 57 174 58 175 C 59 176 60 177 61 177 C 62 177 63 176 64 175 L 80 159 L 80 165 C 80 167 82 169 84 169 L 116 169 C 118 169 120 167 120 165 L 120 159 L 136 175 C 137 176 138 177 139 177 C 140 177 141 176 142 175 C 143 174 143 171 142 170 L 125 153 L 131 153 C 133 153 135 151 135 149 L 135 126 C 135 120 134 114 131 109 L 142 97 C 143 96 143 93 142 92 Z M 127 145 L 116 145 C 114 145 113 146 113 146 C 112 147 112 148 112 149 C 112 149 112 149 112 149 L 112 161 L 104 161 L 104 149 C 104 147 102 145 100 145 C 98 145 96 147 96 149 L 96 161 L 88 161 C 88 159 88 150 88 149 C 88 147 87 145 84 145 L 73 145 L 73 126 C 73 120 74 115 78 110 C 83 103 91 98 100 98 C 109 98 117 103 122 110 L 122 110 C 126 115 127 120 127 126 L 127 145 Z" fill="#b578d3"/></svg>