<?xml version="1.0" ?>
<svg xmlns="http://www.w3.org/2000/svg" version="1.1" width="256" height="256">
  <defs/>
  <g>
    <path d="M 267.1120300292969 145.4548797607422 C 269.215576171875 185.9402618408203 263.3691101074219 282.18365478515625 258.3111267089844 276.2292785644531 C 237.334716796875 266.51336669921875 234.99761962890625 272.07318115234375 206.4117431640625 273.8100280761719 C 71.60935974121094 269.4867858886719 -19.832975387573242 265.2354431152344 -40.493038177490234 232.3072967529297 C 9.073701858520508 166.91075134277344 5.027979850769043 166.7113037109375 -4.8277387619018555 179.46054077148438 C -7.460642337799072 174.80609130859375 -7.2771759033203125 76.23350524902344 -13.184685707092285 72.57252502441406 C 6.317810535430908 77.37977600097656 12.099933624267578 76.6702880859375 96.25248718261719 76.32678985595703 C 72.73662567138672 59.35901641845703 81.46451568603516 46.798797607421875 85.73029327392578 49.50260925292969 C 73.89115142822266 75.45711517333984 62.12199783325195 38.61389923095703 57.999900817871094 31.4188232421875 C 60.6273307800293 -4.409378528594971 90.72696685791016 13.258805274963379 93.44374084472656 18.083890914916992 C 87.28536987304688 23.571561813354492 94.2854995727539 16.13087272644043 93.61214447021484 10.543618202209473 C 93.20706939697266 12.224714279174805 102.2812728881836 20.020105361938477 87.5599365234375 4.148828983306885 C 82.16239929199219 1.320457935333252 95.46199798583984 -1.0374478101730347 156.61846923828125 -9.613017082214355 C 165.4620361328125 -10.668007850646973 154.2645721435547 25.77923011779785 146.17677307128906 46.63021469116211 C 95.68821716308594 55.13813400268555 116.78526306152344 54.02073287963867 161.2767333984375 15.352391242980957 C 213.03494262695312 5.798422813415527 226.0243682861328 11.58849048614502 267.1120300292969 145.4548797607422" stroke-width="1.0" fill="rgb(158, 87, 203)" opacity="0.6367641"/>
    <path d="M 99.986328125 175.84173583984375 C 80.50353240966797 179.7508544921875 92.10379791259766 154.87298583984375 88.29888153076172 153.67935180664062 C 88.19364166259766 172.60137939453125 90.48976135253906 143.44044494628906 99.95504760742188 127.96880340576172 C 58.48262405395508 126.78250885009766 75.09427642822266 112.17057037353516 71.40135192871094 158.5549774169922 C 68.50323486328125 181.6084747314453 74.05769348144531 140.93588256835938 76.3927993774414 120.78202056884766 C 51.35375213623047 113.22282409667969 54.8818473815918 104.75992584228516 60.77288818359375 115.02255249023438 C 96.4621353149414 124.50032806396484 109.20528411865234 120.94159698486328 135.04408264160156 112.66822814941406 C 118.43144226074219 101.72481536865234 122.39373016357422 104.53211212158203 138.4337921142578 104.09627532958984 C 92.58407592773438 131.15626525878906 147.78317260742188 100.80876159667969 162.32850646972656 145.19688415527344 C 155.9044189453125 198.5950927734375 158.8096160888672 130.0345458984375 141.94187927246094 150.7493133544922 C 123.132080078125 165.5270538330078 139.94837951660156 167.74761962890625 141.17381286621094 165.2941436767578 C 167.18577575683594 140.0529327392578 162.30380249023438 133.4921417236328 163.23049926757812 173.95838928222656 C 74.63773345947266 202.66152954101562 137.56065368652344 176.6242218017578 99.986328125 175.84173583984375" stroke-width="1.0" fill="rgb(255, 255, 255)" opacity="1.0"/>
    <path d="M 149.0756378173828 -15.504521369934082 C 205.00416564941406 -11.02706241607666 224.85281372070312 21.979951858520508 163.8974151611328 44.29566192626953 C 101.97817993164062 11.767459869384766 108.43009185791016 140.17283630371094 72.37181854248047 53.83200454711914 C 46.68850326538086 3.7434844970703125 39.45464324951172 4.622293949127197 43.46597671508789 -1.0318375825881958 C 69.7849349975586 -15.598912239074707 104.96192932128906 -8.138361930847168 149.0756378173828 -15.504521369934082" stroke-width="1.0" fill="rgb(183, 125, 214)" opacity="0.940496"/>
    <path d="M 269.32476806640625 14.485243797302246 C 149.4301300048828 55.86688995361328 110.26492309570312 38.014652252197266 119.75853729248047 38.35890197753906 C 131.62750244140625 66.14676666259766 141.01234436035156 40.38322830200195 145.26136779785156 29.08495330810547 C 147.0061492919922 31.67241859436035 165.861572265625 28.082435607910156 184.3022918701172 31.029216766357422 C 209.38816833496094 68.5804214477539 230.5972900390625 61.385520935058594 255.65684509277344 -12.154566764831543 C 179.32667541503906 -12.795729637145996 177.8375244140625 -13.310955047607422 134.79966735839844 -24.31133460998535 C 97.52901458740234 -9.32593059539795 75.51647186279297 -5.859029769897461 155.22897338867188 -13.83332633972168 C 153.142578125 1.3271352052688599 138.78512573242188 -13.544734954833984 155.37574768066406 5.696344375610352 C 155.77955627441406 0.3558533191680908 157.21031188964844 -27.306934356689453 153.89552307128906 -23.43438148498535 C 124.73468017578125 -6.306731224060059 117.20529174804688 -7.6549577713012695 110.85682678222656 -4.354660987854004 C 112.26136779785156 -4.043768882751465 80.21984100341797 -3.7751870155334473 90.21383666992188 -3.6267380714416504 C 77.1346435546875 -6.472263813018799 74.90340423583984 -5.942577838897705 51.44942092895508 -11.257416725158691 C 49.426734924316406 -22.058088302612305 52.98137283325195 6.220422744750977 52.691410064697266 20.127748489379883 C 68.21713256835938 19.96432113647461 77.12361145019531 33.08680725097656 76.65279388427734 11.938555717468262 C 103.78162384033203 12.288320541381836 80.07198333740234 9.094736099243164 38.09328079223633 -14.406426429748535 C -6.063664436340332 -25.032936096191406 -9.135453224182129 -29.377906799316406 -0.20647086203098297 102.25016784667969 C 40.63579559326172 68.2030258178711 49.46833419799805 -3.8508541584014893 65.1474380493164 39.40670394897461 C 68.97978973388672 55.07832717895508 66.02583312988281 46.11056900024414 53.91061782836914 25.239545822143555 C 64.15057373046875 28.36231231689453 63.59718322753906 49.242210388183594 79.94525909423828 70.03912353515625 C 80.49546813964844 68.15469360351562 23.500024795532227 59.961090087890625 63.50749206542969 79.21654510498047 C 18.94961166381836 82.24784851074219 2.4637997150421143 64.14608764648438 -23.842397689819336 49.97726821899414 C -7.79428768157959 36.33053207397461 -8.596656799316406 131.15765380859375 -21.293079376220703 193.82138061523438 C -26.718585968017578 256.4706115722656 -22.570777893066406 269.17486572265625 57.623291015625 264.7667541503906 C 71.59097290039062 208.3687744140625 142.5039520263672 200.18939208984375 157.43898010253906 194.29571533203125 C 174.18173217773438 227.3058319091797 199.25338745117188 218.05960083007812 165.0507354736328 191.2781982421875 C 185.39295959472656 186.29148864746094 201.13230895996094 101.72635650634766 261.8361511230469 148.45445251464844 C 272.2048034667969 -18.279783248901367 258.93878173828125 -27.431215286254883 269.32476806640625 14.485243797302246" stroke-width="1.0" fill="rgb(2, 0, 0)" opacity="0.9992933"/>
    <path d="M 152.42190551757812 66.98836517333984 C 156.2047576904297 158.30162048339844 187.26502990722656 97.04859161376953 112.08905029296875 122.8631820678711 C 102.12788391113281 125.1793441772461 113.51869201660156 117.341064453125 106.43415832519531 114.692626953125 C 105.96558380126953 120.15764617919922 104.27336120605469 122.21388244628906 100.18638610839844 133.07044982910156 C 90.70873260498047 133.6331024169922 95.04520416259766 129.0431671142578 106.7803726196289 118.46566772460938 C 110.12581634521484 124.28233337402344 99.59687042236328 137.61781311035156 85.16069793701172 120.74617004394531 C 84.58647918701172 98.9510726928711 120.80615997314453 128.6506805419922 57.459617614746094 253.52960205078125 C 29.880210876464844 75.32825469970703 32.46060562133789 108.68852233886719 152.42190551757812 66.98836517333984" stroke-width="1.0" fill="rgb(204, 207, 254)" opacity="0.96558344"/>
    <path d="M 95.1851806640625 123.89733123779297 C 80.8118896484375 110.95967864990234 80.5177001953125 107.9204330444336 76.14932250976562 109.44303894042969 C 67.8014907836914 114.87801361083984 77.82469940185547 119.81721496582031 86.16522216796875 129.48516845703125 C 93.20685577392578 134.84703063964844 80.99369049072266 131.26022338867188 83.16222381591797 164.10443115234375 C 81.48738098144531 171.62518310546875 89.10821533203125 172.5589141845703 93.11575317382812 177.19830322265625 C 93.14124298095703 147.86532592773438 92.34746551513672 147.6778564453125 94.32247924804688 143.21470642089844 C 102.01788330078125 123.7846908569336 115.0356216430664 119.80390930175781 146.4497833251953 112.76863098144531 C 118.39307403564453 102.98078918457031 100.71343231201172 116.99365997314453 95.1851806640625 123.89733123779297" stroke-width="1.0" fill="rgb(183, 120, 208)" opacity="0.9688012"/>
    <path d="M 129.5799560546875 102.81228637695312 C 129.68411254882812 104.29969024658203 131.59349060058594 103.51456451416016 131.25502014160156 107.23184204101562 C 141.1046142578125 109.38294219970703 137.6426239013672 105.52336883544922 132.8814697265625 103.10429382324219 C 108.1514663696289 93.12374877929688 102.88746643066406 105.25084686279297 102.75244140625 81.94800567626953 C 60.75581359863281 98.89971923828125 56.344600677490234 73.87039184570312 73.85769653320312 111.36995697021484 C 73.87105560302734 48.650901794433594 91.79511260986328 96.47883605957031 55.60662078857422 27.410165786743164 C 130.0727081298828 120.57179260253906 28.96563148498535 51.336429595947266 78.58454132080078 87.81941223144531 C 27.221399307250977 71.74907684326172 43.48442077636719 151.99664306640625 52.329872131347656 241.38873291015625 C 56.006282806396484 74.22932434082031 44.432899475097656 111.11772918701172 73.10883331298828 89.16403198242188 C 76.07278442382812 100.51155853271484 70.98243713378906 131.2766876220703 72.03841400146484 145.39808654785156 C 72.34320068359375 132.9492950439453 72.50305938720703 147.33665466308594 71.3795394897461 138.91192626953125 C 71.26454162597656 143.7091064453125 70.93788146972656 139.2352752685547 72.03524780273438 140.7929229736328 C 73.71883392333984 142.13046264648438 90.85896301269531 145.40933227539062 87.50206756591797 155.94406127929688 C 89.94942474365234 164.6108856201172 71.56945037841797 173.3317108154297 82.66043090820312 166.7755889892578 C 83.21722412109375 167.29196166992188 76.80612182617188 170.33116149902344 92.24371337890625 167.15060424804688 C 75.97132110595703 170.78781127929688 81.91822052001953 168.1927947998047 87.94898986816406 160.66493225097656 C 81.39398956298828 173.881591796875 80.6430892944336 179.41098022460938 86.51326751708984 166.93902587890625 C 77.45970916748047 180.01016235351562 89.57496643066406 165.36866760253906 86.27296447753906 161.8992919921875 C 89.14594268798828 161.82691955566406 80.8845443725586 183.03439331054688 84.49832916259766 177.73190307617188 C 87.59790802001953 181.7371368408203 69.76728057861328 186.015869140625 108.22804260253906 186.4927215576172 C 55.994110107421875 157.89942932128906 105.15679931640625 162.72898864746094 110.26406860351562 158.5592803955078 C 111.1844253540039 161.56201171875 119.56554412841797 169.04006958007812 111.02510070800781 159.37265014648438 C 113.42977905273438 170.371826171875 125.46908569335938 167.1886749267578 122.3586654663086 159.0406494140625 C 119.76671600341797 156.21533203125 132.64288330078125 170.85885620117188 122.18094635009766 165.2132110595703 C 126.84832763671875 168.2613525390625 124.39401245117188 166.7528839111328 125.9576644897461 165.76324462890625 C 125.14280700683594 166.39303588867188 126.88284301757812 162.4171142578125 124.80107879638672 167.83554077148438 C 124.85539245605469 166.92030334472656 126.53117370605469 168.89889526367188 120.63204193115234 165.68727111816406 C 134.27688598632812 171.88351440429688 119.3542251586914 154.7891845703125 116.77035522460938 154.41810607910156 C 125.5866470336914 149.65771484375 131.06130981445312 148.0514678955078 132.16378784179688 146.95912170410156 C 128.62945556640625 148.36634826660156 131.79046630859375 146.99061584472656 131.00387573242188 147.0064697265625 C 133.46844482421875 151.14151000976562 130.87197875976562 117.35762786865234 147.4654541015625 123.71218872070312 C 192.3614959716797 178.78028869628906 219.37863159179688 126.35272216796875 137.634521484375 112.44994354248047 C 130.5102996826172 103.25492095947266 132.63414001464844 106.60885620117188 129.83123779296875 107.06533813476562 C 134.77182006835938 107.08344268798828 131.90655517578125 108.88448333740234 129.5799560546875 102.81228637695312" stroke-width="1.0" fill="rgb(173, 64, 173)" opacity="0.57941794"/>
    <path d="M 214.45980834960938 95.34602355957031 C 208.17344665527344 127.44058227539062 235.9140625 123.40939331054688 217.6783905029297 117.27191925048828 C 231.6163787841797 100.95046997070312 205.3391571044922 86.6045150756836 263.0152893066406 78.6113052368164 C 271.06072998046875 164.53004455566406 262.2635803222656 165.369873046875 269.34130859375 164.57850646972656" stroke-width="2.0" fill="rgb(33, 0, 40)" opacity="0.73657054"/>
    <path d="M 190.14437866210938 78.164306640625 C 195.70814514160156 92.15971374511719 220.317626953125 96.99139404296875 258.0887756347656 122.12554168701172 C 284.66986083984375 -4.966969013214111 278.0247497558594 -5.622982978820801 202.62432861328125 -57.92739486694336 C 174.52197265625 6.08741569519043 183.7615203857422 40.374656677246094 185.88270568847656 78.61174011230469" stroke-width="2.0" fill="rgb(0, 0, 0)" opacity="0.9976448"/>
    <path d="M 197.98406982421875 87.57429504394531 C 218.0286407470703 107.10406494140625 211.78785705566406 85.7215347290039 213.2121124267578 184.30838012695312 C 136.87344360351562 167.59532165527344 208.4644012451172 150.47946166992188 214.8352508544922 128.87847900390625 C 211.51173400878906 136.6884307861328 210.43722534179688 135.69729614257812 194.47311401367188 150.61105346679688" stroke-width="2.0" fill="rgb(214, 173, 244)" opacity="0.613037"/>
    <path d="M 139.34495544433594 17.34792709350586 C 133.215087890625 43.86994171142578 120.86463165283203 31.762407302856445 89.87724304199219 -4.15677547454834 C 34.530818939208984 27.756099700927734 156.1564178466797 19.857097625732422 142.87738037109375 10.360392570495605 C 100.62311553955078 9.248238563537598 104.42770385742188 8.1998291015625 106.35247802734375 -7.848019123077393" stroke-width="2.0" fill="rgb(3, 255, 255)" opacity="0.012902272"/>
    <path d="M 106.29391479492188 266.5146789550781 C 102.29618072509766 267.4460754394531 82.7380142211914 263.37451171875 61.67585754394531 273.639404296875 C 58.38105010986328 268.7060852050781 97.9482421875 262.7044982910156 95.4664306640625 265.4801940917969 C 110.31964111328125 265.15826416015625 108.63301849365234 269.2242736816406 113.64044189453125 264.59173583984375" stroke-width="2.0" fill="rgb(125, 58, 168)" opacity="0.7465996"/>
    <path d="M 214.0554656982422 255.0657501220703 C 215.076904296875 289.1903381347656 324.6426696777344 252.54530334472656 233.3690185546875 64.57963562011719 C 207.4112548828125 69.62001037597656 209.24594116210938 269.3669738769531 220.19297790527344 306.05145263671875 C 180.4349365234375 228.0224609375 215.01031494140625 297.8335876464844 214.1055908203125 244.98428344726562" stroke-width="2.0" fill="rgb(0, 0, 0)" opacity="1.0"/>
    <path d="M 147.12460327148438 107.20359802246094 C 132.28964233398438 75.58921813964844 192.9996337890625 27.04012107849121 104.035888671875 40.34390640258789 C 93.47848510742188 124.98092651367188 140.53253173828125 112.19641876220703 203.30027770996094 109.0123291015625 C 192.16915893554688 84.21853637695312 185.79348754882812 105.2206039428711 128.59555053710938 90.70425415039062" stroke-width="2.0" fill="rgb(205, 207, 254)" opacity="0.9624196"/>
    <path d="M 95.17736053466797 39.22946548461914 C 123.91238403320312 37.606388092041016 164.63427734375 37.39757537841797 158.990966796875 41.18791961669922 C 175.39886474609375 35.993568420410156 190.18771362304688 39.58854293823242 172.40838623046875 32.131961822509766 C 172.9354705810547 33.06500244140625 199.66204833984375 42.65583419799805 162.912109375 39.93220520019531" stroke-width="2.0" fill="rgb(165, 94, 170)" opacity="0.56483287"/>
    <path d="M 262.3475036621094 155.12286376953125 C 268.95513916015625 153.55833435058594 268.2312927246094 195.6798553466797 253.42904663085938 181.4888916015625 C 159.2523651123047 213.29554748535156 121.92485046386719 187.41555786132812 141.05227661132812 261.89703369140625 C 178.94178771972656 288.8843994140625 238.6076202392578 250.82595825195312 272.6416015625 230.80447387695312" stroke-width="2.0" fill="rgb(25, 5, 30)" opacity="0.06646554"/>
    <path d="M 272.8076171875 229.33660888671875 C 268.63372802734375 225.2478790283203 265.9497375488281 255.0841064453125 263.0791320800781 287.79486083984375 C 235.20965576171875 257.16693115234375 249.0476837158203 271.65570068359375 253.2418212890625 263.2525329589844 C 239.4234161376953 260.0166320800781 252.02255249023438 271.6076354980469 265.4161071777344 261.4346923828125" stroke-width="2.0" fill="rgb(0, 0, 0)" opacity="1.0"/>
    <path d="M 220.34719848632812 242.07028198242188 C 204.10894775390625 285.0106201171875 178.24200439453125 281.1529846191406 208.02732849121094 187.4610595703125 C 222.20367431640625 211.24322509765625 253.86785888671875 243.34779357910156 91.27464294433594 243.4726104736328 C 106.15460968017578 170.37892150878906 177.75355529785156 213.2510986328125 219.15284729003906 184.8240203857422" stroke-width="2.0" fill="rgb(92, 0, 66)" opacity="0.050188415"/>
    <path d="M 135.59315490722656 156.2740478515625 C 152.5567626953125 147.59942626953125 136.62181091308594 150.15721130371094 131.16929626464844 150.1861114501953 C 139.2792205810547 181.37750244140625 143.754150390625 155.304931640625 145.9119873046875 159.66177368164062 C 160.19680786132812 152.54428100585938 150.1958770751953 141.38909912109375 142.43797302246094 149.76947021484375" stroke-width="2.0" fill="rgb(138, 0, 129)" opacity="0.15099658"/>
    <path d="M 23.917741775512695 48.110496520996094 C 16.553892135620117 51.374900817871094 36.996707916259766 45.48801040649414 56.84800338745117 42.65638732910156 C 58.2447624206543 38.10859298706055 42.207584381103516 24.986099243164062 53.2695426940918 68.4616470336914 C 58.377098083496094 32.15351867675781 60.958499908447266 44.47213363647461 33.273231506347656 46.19255828857422" stroke-width="2.0" fill="rgb(0, 0, 0)" opacity="0.9597026"/>
    <path d="M 154.87660217285156 93.52215576171875 C 159.15782165527344 84.68868255615234 190.72593688964844 85.31403350830078 196.68426513671875 86.5008544921875 C 216.18130493164062 94.63240814208984 210.8037567138672 118.16636657714844 209.7549285888672 101.3501205444336 C 139.66580200195312 86.02800750732422 152.11590576171875 111.4922103881836 165.0592498779297 77.42259216308594" stroke-width="2.0" fill="rgb(145, 69, 172)" opacity="0.20832108"/>
    <path d="M 194.84056091308594 166.66958618164062 C 205.378173828125 159.21612548828125 225.13812255859375 151.4489288330078 212.68960571289062 223.96080017089844 C 168.11032104492188 141.5603790283203 153.25045776367188 126.89612579345703 211.08255004882812 128.19204711914062 C 210.8470001220703 128.4697723388672 225.16123962402344 126.51722717285156 209.64649963378906 128.2490997314453" stroke-width="2.0" fill="rgb(130, 0, 140)" opacity="0.03495315"/>
    <path d="M 199.4029541015625 216.62838745117188 C 203.69334411621094 230.44973754882812 204.45242309570312 254.83963012695312 181.2149658203125 239.72265625 C 203.2301025390625 184.0366973876953 220.54177856445312 228.0734100341797 208.07627868652344 246.43040466308594 C 186.85276794433594 268.97216796875 171.76893615722656 246.06297302246094 187.15701293945312 259.9027404785156" stroke-width="2.0" fill="rgb(182, 126, 212)" opacity="0.9950193"/>
    <path d="M 111.4827880859375 246.64053344726562 C 126.04558563232422 245.95770263671875 122.97351837158203 248.20689392089844 63.42515563964844 245.7986602783203 C 38.960060119628906 236.7451629638672 54.138404846191406 161.06764221191406 41.954490661621094 203.35745239257812 C 37.08757400512695 251.38607788085938 53.77199935913086 241.34063720703125 37.65215301513672 237.30319213867188" stroke-width="2.0" fill="rgb(88, 0, 88)" opacity="0.13853745"/>
    <path d="M 175.6802215576172 186.3997039794922 C 204.93211364746094 155.3388214111328 202.9984588623047 151.2476348876953 202.97671508789062 237.54632568359375 C 116.05599975585938 212.41827392578125 117.66368865966797 251.3994598388672 160.20880126953125 255.99642944335938 C 217.41998291015625 234.44920349121094 212.61851501464844 239.88272094726562 167.841796875 229.1498260498047" stroke-width="2.0" fill="rgb(210, 203, 254)" opacity="0.788687"/>
    <path d="M 48.26231384277344 30.917808532714844 C 65.1482925415039 18.278282165527344 42.508724212646484 13.471275329589844 17.515588760375977 86.34954071044922 C 48.52772903442383 34.59733581542969 52.99026870727539 19.377147674560547 59.57121276855469 26.363401412963867 C 54.44331359863281 34.19076919555664 12.685032844543457 28.108680725097656 -12.046469688415527 32.75627517700195" stroke-width="2.0" fill="rgb(246, 11, 29)" opacity="0.8407808"/>
    <path d="M 169.6436767578125 141.06455993652344 C 157.30789184570312 138.06515502929688 198.935791015625 95.98612976074219 202.6527099609375 106.33880615234375 C 202.42726135253906 228.91763305664062 209.46412658691406 218.89833068847656 171.15811157226562 198.2889862060547 C 174.093994140625 143.31849670410156 180.71975708007812 123.82496643066406 140.46792602539062 147.8394012451172" stroke-width="2.0" fill="rgb(205, 209, 255)" opacity="0.9014891"/>
    <path d="M -1.8564798831939697 49.44737243652344 C 7.262231349945068 39.32158279418945 11.846193313598633 43.67395782470703 32.80619812011719 50.15968322753906 C 9.622359275817871 67.67941284179688 18.475732803344727 61.603515625 28.201576232910156 53.47623062133789 C 24.92034912109375 67.8659439086914 23.419940948486328 63.14079284667969 18.136972427368164 77.45662689208984" stroke-width="2.0" fill="rgb(0, 0, 0)" opacity="0.87024355"/>
    <path d="M 98.84529876708984 244.34280395507812 C 118.7505111694336 213.35794067382812 138.68356323242188 198.88827514648438 81.64754486083984 210.20465087890625 C 104.25015258789062 259.6537780761719 118.83817291259766 256.939453125 110.14228820800781 246.72750854492188 C 157.2214813232422 244.1354217529297 165.7146759033203 255.2362823486328 167.4189910888672 231.05233764648438" stroke-width="2.0" fill="rgb(206, 212, 255)" opacity="0.9031054"/>
    <path d="M 145.47698974609375 246.2850341796875 C 165.73052978515625 242.8817596435547 169.1399383544922 264.9996643066406 179.38584899902344 264.1897277832031 C 156.46420288085938 262.1138916015625 165.5146484375 258.506103515625 143.47666931152344 245.81234741210938 C 188.05990600585938 247.0146942138672 209.6671905517578 245.60186767578125 189.77340698242188 247.5677032470703" stroke-width="2.0" fill="rgb(175, 97, 194)" opacity="0.75646865"/>
    <path d="M 47.74763107299805 25.251842498779297 C 54.77037811279297 14.88347339630127 67.20077514648438 35.98812484741211 88.06375885009766 82.0245361328125 C 61.86153030395508 53.36457824707031 69.76526641845703 20.82792091369629 14.81992244720459 26.577747344970703 C 12.807463645935059 61.672035217285156 14.18075942993164 60.0673828125 24.423355102539062 74.37025451660156" stroke-width="2.0" fill="rgb(255, 18, 0)" opacity="0.42735356"/>
    <path d="M 114.312255859375 245.20094299316406 C 130.79421997070312 249.27163696289062 171.0666046142578 240.6482391357422 179.88926696777344 251.56784057617188 C 107.0640640258789 294.5389404296875 94.16136932373047 264.2153625488281 99.0377197265625 245.1514434814453 C 144.9244384765625 244.899169921875 114.68645477294922 245.06056213378906 108.32801818847656 246.45172119140625" stroke-width="2.0" fill="rgb(180, 112, 207)" opacity="0.7443657"/>
  </g>
</svg>
