<?xml version="1.0" ?>
<svg xmlns="http://www.w3.org/2000/svg" version="1.1" width="256" height="256">
  <defs/>
  <g>
    <path d="M 43.78971481323242 57.31288528442383 C 54.81672668457031 64.268310546875 53.67835998535156 76.20528411865234 60.40049362182617 79.55952453613281" stroke-width="4.0" fill="rgb(187, 206, 235)" opacity="0.0"/>
    <path d="M 216.409423828125 59.94405746459961 C 215.99708557128906 66.81417846679688 214.92845153808594 70.31414794921875 223.61964416503906 70.260009765625" stroke-width="4.0" fill="rgb(133, 191, 218)" opacity="0.005635504"/>
    <path d="M 101.5244140625 53.88369369506836 C 114.48728942871094 54.904884338378906 107.42157745361328 53.85224533081055 113.77600860595703 49.65494155883789" stroke-width="4.0" fill="rgb(201, 221, 206)" opacity="0.0"/>
    <path d="M 139.84652709960938 -0.4254179894924164 C 134.5594024658203 10.921571731567383 138.56494140625 8.07072639465332 134.31982421875 3.846346616744995" stroke-width="4.0" fill="rgb(135, 254, 141)" opacity="0.00024648014"/>
    <path d="M 18.940250396728516 87.49968719482422 C 27.33540153503418 93.97386932373047 23.759187698364258 89.13815307617188 13.893242835998535 88.9691162109375" stroke-width="4.0" fill="rgb(185, 217, 203)" opacity="0.0018345596"/>
    <path d="M 53.28736877441406 142.01718139648438 C 49.069210052490234 160.3620147705078 79.13248443603516 163.35507202148438 98.73697662353516 162.844482421875" stroke-width="4.0" fill="rgb(255, 254, 255)" opacity="0.023282526"/>
    <path d="M 162.45350646972656 139.4709014892578 C 153.4989471435547 135.1563262939453 165.25721740722656 133.3313751220703 168.73728942871094 131.13323974609375" stroke-width="4.0" fill="rgb(186, 91, 255)" opacity="0.66354054"/>
    <path d="M 143.31707763671875 63.88909149169922 C 144.05364990234375 51.34416961669922 148.58816528320312 36.456298828125 127.31256866455078 45.53834915161133" stroke-width="4.0" fill="rgb(160, 98, 124)" opacity="0.0067638303"/>
    <path d="M 46.81100082397461 40.10648727416992 C 57.138816833496094 39.71609115600586 61.59617614746094 44.528160095214844 56.72592544555664 45.16652297973633" stroke-width="4.0" fill="rgb(120, 243, 127)" opacity="0.0019127764"/>
    <path d="M 85.95311737060547 112.79624938964844 C 103.43865203857422 68.433837890625 109.16616821289062 94.34976196289062 83.79117584228516 136.20787048339844" stroke-width="4.0" fill="rgb(137, 255, 6)" opacity="0.81089455"/>
    <path d="M 50.68735885620117 35.822479248046875 C 56.906593322753906 44.42025375366211 52.73221206665039 41.45048904418945 48.0514030456543 37.773887634277344" stroke-width="4.0" fill="rgb(157, 255, 119)" opacity="0.00060515315"/>
    <path d="M 82.92180633544922 172.35350036621094 C 129.32568359375 164.33114624023438 150.03799438476562 145.892822265625 147.50592041015625 100.19722747802734" stroke-width="4.0" fill="rgb(153, 241, 0)" opacity="0.78300816"/>
    <path d="M 201.2991485595703 131.5472412109375 C 216.63650512695312 140.47109985351562 196.1741943359375 157.14129638671875 177.64651489257812 170.392822265625" stroke-width="4.0" fill="rgb(139, 165, 171)" opacity="0.10241602"/>
    <path d="M 190.0779266357422 131.91854858398438 C 192.66815185546875 150.2470703125 187.739501953125 160.6304473876953 183.73081970214844 159.49217224121094" stroke-width="4.0" fill="rgb(107, 64, 29)" opacity="0.85074687"/>
    <path d="M 39.3305778503418 19.797199249267578 C 44.99378967285156 22.174026489257812 29.974079132080078 15.077481269836426 38.198272705078125 9.028253555297852" stroke-width="4.0" fill="rgb(83, 140, 78)" opacity="0.0"/>
    <path d="M 142.19964599609375 257.2192077636719 C 117.8864517211914 261.2638854980469 117.2011947631836 257.8301086425781 125.72180938720703 256.5302734375" stroke-width="4.0" fill="rgb(214, 173, 217)" opacity="0.018241055"/>
    <path d="M 11.910630226135254 223.4845428466797 C 11.084455490112305 233.0046844482422 11.227423667907715 239.14744567871094 1.1637150049209595 233.84237670898438" stroke-width="4.0" fill="rgb(254, 254, 254)" opacity="0.00041623978"/>
    <path d="M 147.5393829345703 109.4667739868164 C 190.70706176757812 85.94541931152344 194.4954071044922 115.27808380126953 173.19650268554688 149.93284606933594" stroke-width="4.0" fill="rgb(117, 234, 99)" opacity="0.4373904"/>
    <path d="M 80.9407730102539 105.61622619628906 C 109.59428405761719 63.693458557128906 173.72930908203125 71.40647888183594 181.6149444580078 92.50291442871094" stroke-width="4.0" fill="rgb(40, 121, 34)" opacity="0.8002124"/>
    <path d="M 80.67958068847656 80.78345489501953 C 63.53329086303711 60.89200973510742 105.0771255493164 66.72750854492188 119.32051086425781 65.80577087402344" stroke-width="4.0" fill="rgb(255, 187, 255)" opacity="0.0"/>
    <path d="M 249.03330993652344 21.895305633544922 C 247.20440673828125 25.619182586669922 245.82598876953125 42.09564208984375 244.75205993652344 46.94234085083008" stroke-width="4.0" fill="rgb(75, 217, 60)" opacity="0.0014411382"/>
    <path d="M 81.6233901977539 36.81227111816406 C 70.68120574951172 31.003389358520508 58.823482513427734 32.62009811401367 68.33478546142578 59.79734420776367" stroke-width="4.0" fill="rgb(34, 159, 56)" opacity="0.00046881853"/>
    <path d="M 178.75619506835938 64.5062026977539 C 170.14816284179688 62.344486236572266 171.21994018554688 58.760162353515625 182.98458862304688 61.83036422729492" stroke-width="4.0" fill="rgb(109, 255, 253)" opacity="0.001300095"/>
    <path d="M 133.5463409423828 155.6703338623047 C 150.54249572753906 129.65086364746094 166.18882751464844 122.80770111083984 171.1110382080078 123.76676940917969" stroke-width="4.0" fill="rgb(140, 0, 128)" opacity="0.24421331"/>
    <path d="M 219.422119140625 119.17203521728516 C 217.23770141601562 123.86478424072266 218.63743591308594 117.0986557006836 221.90768432617188 109.0363998413086" stroke-width="4.0" fill="rgb(110, 170, 140)" opacity="0.007912439"/>
    <path d="M 245.9449920654297 63.291107177734375 C 256.2087097167969 58.618408203125 257.82171630859375 66.7220230102539 250.9691925048828 55.04328918457031" stroke-width="4.0" fill="rgb(106, 253, 169)" opacity="0.0010215827"/>
    <path d="M 71.85794830322266 173.75453186035156 C 82.46219635009766 217.7780303955078 116.66075897216797 213.14923095703125 150.04347229003906 197.35147094726562" stroke-width="4.0" fill="rgb(39, 38, 4)" opacity="0.85023576"/>
    <path d="M 33.44998550415039 108.0544662475586 C 49.47289276123047 102.88038635253906 38.40986633300781 100.52534484863281 25.266212463378906 118.45304107666016" stroke-width="4.0" fill="rgb(222, 250, 253)" opacity="0.0057055545"/>
    <path d="M 155.5656280517578 198.62840270996094 C 168.2676239013672 213.7359619140625 150.06179809570312 219.84974670410156 126.39324951171875 206.89569091796875" stroke-width="4.0" fill="rgb(133, 117, 82)" opacity="0.027499901"/>
    <path d="M 12.998947143554688 56.46902847290039 C 22.894573211669922 58.713348388671875 18.057466506958008 59.54124450683594 4.8797383308410645 55.23078536987305" stroke-width="4.0" fill="rgb(176, 149, 193)" opacity="0.00028545942"/>
    <path d="M 11.156092643737793 67.10563659667969 C 29.53089714050293 63.85327911376953 37.439937591552734 62.20682907104492 25.957258224487305 59.83310317993164" stroke-width="4.0" fill="rgb(174, 191, 185)" opacity="0.0"/>
    <path d="M 2.579122304916382 186.06854248046875 C 6.512239933013916 190.5818634033203 -4.05015230178833 187.81558227539062 -1.2162184715270996 192.93975830078125" stroke-width="4.0" fill="rgb(25, 72, 52)" opacity="0.0"/>
    <path d="M 151.68563842773438 80.65975952148438 C 190.56814575195312 81.18231964111328 172.55123901367188 64.84371185302734 173.04701232910156 82.10591888427734" stroke-width="4.0" fill="rgb(142, 41, 255)" opacity="0.033216715"/>
    <path d="M 12.57537841796875 85.53656768798828 C 14.626173973083496 89.63142395019531 14.967985153198242 84.38858795166016 25.66404914855957 78.19267272949219" stroke-width="4.0" fill="rgb(199, 209, 205)" opacity="0.0005417058"/>
    <path d="M 61.55051040649414 127.28433990478516 C 62.256587982177734 33.4968376159668 168.0846405029297 98.94292449951172 102.72522735595703 161.2251739501953" stroke-width="4.0" fill="rgb(27, 255, 0)" opacity="0.78630996"/>
    <path d="M 97.61480712890625 185.21556091308594 C 85.52745056152344 216.21841430664062 114.46464538574219 209.62033081054688 152.08724975585938 197.616455078125" stroke-width="4.0" fill="rgb(82, 87, 22)" opacity="0.67571"/>
    <path d="M 89.34918212890625 17.666072845458984 C 91.28650665283203 9.025885581970215 89.31480407714844 10.135163307189941 92.667236328125 3.4862561225891113" stroke-width="4.0" fill="rgb(149, 225, 150)" opacity="0.006026239"/>
    <path d="M 192.58912658691406 101.86014556884766 C 209.05772399902344 120.56616973876953 201.88548278808594 155.29954528808594 190.48550415039062 174.08999633789062" stroke-width="4.0" fill="rgb(14, 31, 3)" opacity="0.7105776"/>
    <path d="M 196.26651000976562 161.4748992919922 C 177.45909118652344 205.86065673828125 173.5436248779297 192.83843994140625 186.27328491210938 158.6114501953125" stroke-width="4.0" fill="rgb(58, 104, 46)" opacity="0.76946133"/>
    <path d="M 237.3070831298828 106.38426971435547 C 239.45065307617188 94.49583435058594 230.2877197265625 93.61384582519531 229.88427734375 91.65599822998047" stroke-width="4.0" fill="rgb(177, 243, 188)" opacity="0.0030960662"/>
    <path d="M 183.96665954589844 186.0247802734375 C 173.32369995117188 209.28981018066406 138.53775024414062 216.2375946044922 121.62754821777344 200.97415161132812" stroke-width="4.0" fill="rgb(76, 118, 29)" opacity="0.78244"/>
    <path d="M 224.0055389404297 130.3469696044922 C 224.75082397460938 121.52459716796875 227.162353515625 117.77003479003906 214.40965270996094 118.5950698852539" stroke-width="4.0" fill="rgb(107, 143, 155)" opacity="0.0031087566"/>
    <path d="M 150.3223114013672 80.73543548583984 C 185.26486206054688 70.99890899658203 192.59524536132812 130.65663146972656 174.3762664794922 126.03474426269531" stroke-width="4.0" fill="rgb(66, 251, 44)" opacity="1.0"/>
    <path d="M 120.99454498291016 212.02459716796875 C 100.51911926269531 215.29942321777344 73.45083618164062 216.338623046875 88.76819610595703 206.71505737304688" stroke-width="4.0" fill="rgb(205, 252, 169)" opacity="0.02066406"/>
    <path d="M 94.5707778930664 79.5177993774414 C 77.06382751464844 67.91842651367188 101.83767700195312 76.10918426513672 90.49832153320312 61.03682327270508" stroke-width="4.0" fill="rgb(255, 255, 255)" opacity="0.0017035207"/>
    <path d="M 26.064254760742188 103.67646026611328 C 45.48474884033203 122.51917266845703 72.38936614990234 118.84852600097656 77.72853088378906 117.31210327148438" stroke-width="4.0" fill="rgb(146, 251, 167)" opacity="0.007912262"/>
    <path d="M 105.46258544921875 94.3048095703125 C 121.35871887207031 102.10025024414062 100.69200897216797 116.58853912353516 98.06268310546875 96.0292739868164" stroke-width="4.0" fill="rgb(254, 140, 175)" opacity="0.0"/>
    <path d="M 83.11876678466797 167.14459228515625 C 73.81806945800781 201.36001586914062 100.15420532226562 218.56834411621094 114.12155151367188 232.42945861816406" stroke-width="4.0" fill="rgb(122, 172, 95)" opacity="3.5961315e-05"/>
    <path d="M 60.51191711425781 245.0138397216797 C 66.22274780273438 242.43695068359375 65.3197021484375 242.7610626220703 65.98167419433594 236.8682098388672" stroke-width="4.0" fill="rgb(239, 199, 255)" opacity="0.0"/>
    <path d="M 229.23135375976562 221.5305633544922 C 229.69281005859375 236.36740112304688 228.7492218017578 243.40391540527344 239.4361572265625 250.4113311767578" stroke-width="4.0" fill="rgb(187, 255, 197)" opacity="0.0"/>
    <path d="M 40.25943374633789 48.15378189086914 C 43.955909729003906 54.85859298706055 28.97119140625 61.61155700683594 22.660409927368164 60.730926513671875" stroke-width="4.0" fill="rgb(193, 254, 177)" opacity="0.00035189366"/>
    <path d="M 14.559255599975586 227.85211181640625 C 10.68123722076416 236.220947265625 8.542372703552246 228.94000244140625 15.452609062194824 236.89181518554688" stroke-width="4.0" fill="rgb(164, 217, 160)" opacity="0.004429744"/>
    <path d="M 41.54623031616211 168.4003143310547 C 26.76435661315918 178.43458557128906 30.733848571777344 164.45420837402344 41.982421875 172.00088500976562" stroke-width="4.0" fill="rgb(235, 124, 255)" opacity="0.0"/>
    <path d="M 61.832462310791016 199.02098083496094 C 71.44755554199219 215.1839141845703 76.46489715576172 210.5081329345703 65.41450500488281 199.73797607421875" stroke-width="4.0" fill="rgb(127, 196, 240)" opacity="0.0019349694"/>
    <path d="M 122.68927001953125 170.53280639648438 C 87.65117645263672 163.9787139892578 157.32228088378906 141.67691040039062 126.16987609863281 144.09364318847656" stroke-width="4.0" fill="rgb(46, 150, 17)" opacity="0.18844102"/>
    <path d="M 238.9687957763672 196.41046142578125 C 251.64993286132812 201.85897827148438 246.80677795410156 197.0229949951172 233.1348876953125 198.34664916992188" stroke-width="4.0" fill="rgb(210, 254, 223)" opacity="1.2407145e-05"/>
    <path d="M 133.43710327148438 258.7900695800781 C 142.3699951171875 258.9721984863281 144.31336975097656 254.5017547607422 142.6996612548828 257.78985595703125" stroke-width="4.0" fill="rgb(147, 90, 113)" opacity="0.0"/>
    <path d="M 160.82940673828125 84.0729751586914 C 194.84860229492188 77.92694091796875 209.7036895751953 131.1666717529297 194.6190948486328 158.4868621826172" stroke-width="4.0" fill="rgb(68, 223, 41)" opacity="0.90831065"/>
    <path d="M 76.09208679199219 49.8914680480957 C 71.0661392211914 56.818756103515625 79.01487731933594 52.5486946105957 66.8270263671875 56.490203857421875" stroke-width="4.0" fill="rgb(99, 247, 149)" opacity="0.00074301957"/>
    <path d="M 236.61366271972656 247.8649444580078 C 239.69180297851562 247.87586975097656 243.63372802734375 246.91317749023438 233.8846893310547 242.0266876220703" stroke-width="4.0" fill="rgb(117, 208, 116)" opacity="0.0"/>
    <path d="M 175.53802490234375 164.73989868164062 C 169.0272674560547 116.9349594116211 183.06532287597656 106.62358093261719 190.4589080810547 156.20770263671875" stroke-width="4.0" fill="rgb(11, 72, 9)" opacity="0.9798632"/>
    <path d="M 20.466901779174805 186.1272735595703 C 24.087730407714844 187.4632110595703 23.4038028717041 184.458984375 15.714842796325684 190.3277587890625" stroke-width="4.0" fill="rgb(214, 254, 209)" opacity="0.0057653673"/>
    <path d="M 109.0824203491211 48.027061462402344 C 115.69395446777344 47.940330505371094 108.81637573242188 62.59451675415039 105.67725372314453 83.60997009277344" stroke-width="4.0" fill="rgb(208, 205, 238)" opacity="0.00058384327"/>
    <path d="M 103.49583435058594 92.7147445678711 C 171.00439453125 61.36864471435547 182.30734252929688 119.97892761230469 165.17257690429688 177.99436950683594" stroke-width="4.0" fill="rgb(67, 245, 1)" opacity="0.9407365"/>
    <path d="M 106.59456634521484 120.93018341064453 C 185.17543029785156 124.6937255859375 165.86451721191406 93.69198608398438 107.21367645263672 80.8449478149414" stroke-width="4.0" fill="rgb(80, 240, 24)" opacity="0.9747432"/>
    <path d="M 180.4699249267578 104.30561065673828 C 164.35743713378906 94.86959838867188 193.75804138183594 76.30795288085938 151.91053771972656 76.00555419921875" stroke-width="4.0" fill="rgb(103, 167, 58)" opacity="0.15496057"/>
    <path d="M 198.6663360595703 215.9190216064453 C 232.83970642089844 209.6490020751953 216.7504425048828 176.23590087890625 199.31175231933594 144.37831115722656" stroke-width="4.0" fill="rgb(72, 179, 54)" opacity="0.0"/>
    <path d="M 82.64035034179688 174.96739196777344 C 94.54891967773438 198.32479858398438 76.11538696289062 201.5953369140625 76.17266082763672 176.74183654785156" stroke-width="4.0" fill="rgb(152, 255, 174)" opacity="0.6635291"/>
    <path d="M 159.04922485351562 67.6818618774414 C 170.13941955566406 94.54607391357422 99.68111419677734 72.99883270263672 84.00363159179688 86.18305969238281" stroke-width="4.0" fill="rgb(238, 76, 115)" opacity="0.015524018"/>
    <path d="M 193.12603759765625 152.14634704589844 C 173.640625 180.56558227539062 196.1256103515625 174.93402099609375 197.34530639648438 146.91546630859375" stroke-width="4.0" fill="rgb(56, 208, 48)" opacity="0.81052446"/>
    <path d="M 208.4013214111328 54.83718490600586 C 211.8770294189453 49.56182098388672 209.30963134765625 46.643714904785156 218.43653869628906 56.48660659790039" stroke-width="4.0" fill="rgb(100, 188, 242)" opacity="0.004301688"/>
    <path d="M 213.9852294921875 221.71636962890625 C 206.31434631347656 220.23324584960938 215.61390686035156 214.90817260742188 220.0979766845703 214.98345947265625" stroke-width="4.0" fill="rgb(101, 255, 99)" opacity="0.0"/>
    <path d="M 30.31968116760254 104.98355865478516 C 33.211158752441406 85.04961395263672 25.770063400268555 82.16477966308594 19.80333709716797 90.77423858642578" stroke-width="4.0" fill="rgb(245, 177, 251)" opacity="0.0015321841"/>
    <path d="M 169.01925659179688 66.74415588378906 C 168.2802276611328 58.5265998840332 166.03155517578125 40.10752487182617 165.53515625 45.466983795166016" stroke-width="4.0" fill="rgb(231, 156, 241)" opacity="0.0070055868"/>
    <path d="M 41.72140884399414 21.670806884765625 C 49.90655517578125 23.693620681762695 47.990509033203125 18.522890090942383 40.4395751953125 17.313634872436523" stroke-width="4.0" fill="rgb(245, 255, 255)" opacity="0.0"/>
    <path d="M 243.0870819091797 222.0134735107422 C 246.6165008544922 218.4622344970703 257.3111572265625 223.0951690673828 256.4648132324219 232.35740661621094" stroke-width="4.0" fill="rgb(215, 243, 211)" opacity="0.0"/>
    <path d="M 118.897216796875 23.65577507019043 C 119.58244323730469 21.535598754882812 115.22771453857422 28.342607498168945 115.40229797363281 22.08739471435547" stroke-width="4.0" fill="rgb(159, 250, 183)" opacity="0.0"/>
    <path d="M 21.469890594482422 165.95370483398438 C 29.16124725341797 154.74488830566406 25.44754409790039 159.25001525878906 19.635108947753906 155.46923828125" stroke-width="4.0" fill="rgb(203, 179, 205)" opacity="0.0"/>
    <path d="M 93.57469177246094 140.7167205810547 C 117.31388854980469 107.21043395996094 87.17298126220703 93.99488830566406 88.88617706298828 120.43915557861328" stroke-width="4.0" fill="rgb(179, 208, 136)" opacity="0.2489496"/>
    <path d="M 123.7375259399414 226.75254821777344 C 129.94329833984375 231.95645141601562 133.5268096923828 232.83648681640625 126.4684066772461 237.45623779296875" stroke-width="4.0" fill="rgb(251, 254, 254)" opacity="0.0"/>
    <path d="M 108.73401641845703 110.41144561767578 C 140.50331115722656 97.71257781982422 111.82418823242188 94.70249938964844 100.11588287353516 79.6252212524414" stroke-width="4.0" fill="rgb(27, 234, 8)" opacity="0.1768829"/>
    <path d="M 16.803220748901367 229.62094116210938 C 12.671293258666992 238.65843200683594 13.687957763671875 240.66708374023438 12.23363971710205 234.8280792236328" stroke-width="4.0" fill="rgb(193, 100, 255)" opacity="0.0017316096"/>
    <path d="M 124.68074035644531 90.5995101928711 C 141.56661987304688 123.56842803955078 151.54885864257812 131.91957092285156 113.56681060791016 123.24142456054688" stroke-width="4.0" fill="rgb(197, 226, 218)" opacity="0.054832302"/>
    <path d="M 89.32354736328125 38.762916564941406 C 88.51065063476562 37.830650329589844 87.91004943847656 36.48522186279297 83.7882080078125 47.730430603027344" stroke-width="4.0" fill="rgb(72, 240, 83)" opacity="0.0"/>
    <path d="M -11.87060260772705 107.77752685546875 C -10.5868501663208 109.725341796875 -6.95076322555542 111.201416015625 -10.643702507019043 110.1142349243164" stroke-width="4.0" fill="rgb(141, 230, 132)" opacity="0.24831267"/>
    <path d="M 109.87368774414062 -11.222556114196777 C 93.0584945678711 -10.237191200256348 76.53880310058594 -23.814105987548828 62.98408126831055 6.752747535705566" stroke-width="4.0" fill="rgb(103, 71, 114)" opacity="0.0038617805"/>
    <path d="M 177.29721069335938 254.70761108398438 C 181.0364990234375 253.30067443847656 168.01876831054688 252.55575561523438 180.21116638183594 257.01690673828125" stroke-width="4.0" fill="rgb(146, 173, 217)" opacity="0.01681192"/>
    <path d="M 126.55868530273438 94.34861755371094 C 117.08853149414062 46.0020751953125 138.5094451904297 41.59120178222656 131.1732635498047 102.9666519165039" stroke-width="4.0" fill="rgb(79, 244, 8)" opacity="1.0"/>
    <path d="M 139.43380737304688 236.21238708496094 C 125.52685546875 234.79653930664062 101.41885375976562 249.95538330078125 84.24779510498047 237.40304565429688" stroke-width="4.0" fill="rgb(170, 255, 150)" opacity="0.0"/>
    <path d="M 24.927846908569336 90.47124481201172 C 23.228296279907227 104.51739501953125 17.063920974731445 91.54257202148438 7.023811340332031 91.48766326904297" stroke-width="4.0" fill="rgb(214, 75, 253)" opacity="0.0"/>
    <path d="M 18.950584411621094 9.534772872924805 C 34.04840850830078 9.385025024414062 39.500118255615234 18.598146438598633 34.5500602722168 11.480565071105957" stroke-width="4.0" fill="rgb(174, 221, 189)" opacity="0.0"/>
    <path d="M 112.51023864746094 111.08353424072266 C 161.3253173828125 107.99855041503906 120.22488403320312 100.71145629882812 122.50078582763672 132.4993896484375" stroke-width="4.0" fill="rgb(205, 202, 199)" opacity="0.073920876"/>
    <path d="M 185.15081787109375 68.37850189208984 C 207.74632263183594 64.27379608154297 191.31935119628906 61.397850036621094 189.9736785888672 59.80094909667969" stroke-width="4.0" fill="rgb(238, 253, 240)" opacity="0.0015688613"/>
    <path d="M 75.34561157226562 131.11651611328125 C 115.0938720703125 119.9791488647461 140.2200927734375 209.017822265625 99.89891052246094 203.9528350830078" stroke-width="4.0" fill="rgb(76, 232, 29)" opacity="0.5860301"/>
    <path d="M 233.70030212402344 210.35952758789062 C 232.11705017089844 230.97911071777344 238.00218200683594 228.4766082763672 224.09165954589844 222.80955505371094" stroke-width="4.0" fill="rgb(254, 254, 254)" opacity="0.0008208338"/>
    <path d="M 212.4405517578125 8.303326606750488 C 258.693359375 6.292574882507324 242.14344787597656 14.893386840820312 214.9451446533203 12.233942985534668" stroke-width="4.0" fill="rgb(152, 124, 121)" opacity="0.006009484"/>
    <path d="M 18.49485969543457 201.3214569091797 C 17.189085006713867 215.54493713378906 15.12620735168457 215.2606201171875 22.016611099243164 215.76861572265625" stroke-width="4.0" fill="rgb(200, 134, 254)" opacity="0.0"/>
    <path d="M 168.8129425048828 100.85203552246094 C 201.18380737304688 136.3306884765625 140.840576171875 132.36488342285156 114.07496643066406 100.45011138916016" stroke-width="4.0" fill="rgb(82, 247, 19)" opacity="0.46544272"/>
    <path d="M 55.86753463745117 90.68919372558594 C 70.86846923828125 63.44023132324219 173.97030639648438 79.33064270019531 141.71449279785156 81.031494140625" stroke-width="4.0" fill="rgb(161, 178, 173)" opacity="0.059199687"/>
    <path d="M 52.76765823364258 39.0763053894043 C 50.104026794433594 42.60300827026367 45.826786041259766 48.71664047241211 58.77002716064453 60.07039260864258" stroke-width="4.0" fill="rgb(156, 173, 180)" opacity="0.0"/>
    <path d="M 181.2593994140625 15.45030403137207 C 174.39572143554688 20.970449447631836 168.7852325439453 30.792924880981445 174.88267517089844 40.56712341308594" stroke-width="4.0" fill="rgb(118, 205, 91)" opacity="0.0016377523"/>
    <path d="M 227.39036560058594 10.21970272064209 C 232.0770721435547 23.215824127197266 222.44900512695312 16.783605575561523 219.28660583496094 2.625823497772217" stroke-width="4.0" fill="rgb(144, 252, 180)" opacity="0.0015947145"/>
    <path d="M 191.34771728515625 113.98048400878906 C 203.50375366210938 133.08494567871094 186.28118896484375 201.17184448242188 157.5126495361328 203.76832580566406" stroke-width="4.0" fill="rgb(75, 238, 26)" opacity="0.96928746"/>
    <path d="M 153.04490661621094 234.11981201171875 C 158.29347229003906 241.2626953125 150.8651123046875 242.87606811523438 153.97279357910156 253.78546142578125" stroke-width="4.0" fill="rgb(80, 144, 118)" opacity="0.0012609863"/>
    <path d="M 20.463598251342773 88.88427734375 C 26.725173950195312 90.12602996826172 20.128883361816406 84.67029571533203 27.40008544921875 89.43490600585938" stroke-width="4.0" fill="rgb(194, 255, 189)" opacity="0.0"/>
    <path d="M 223.51010131835938 -2.409614324569702 C 229.50875854492188 22.585020065307617 215.95494079589844 16.429668426513672 209.1853485107422 9.620515823364258" stroke-width="4.0" fill="rgb(253, 191, 253)" opacity="0.0019721114"/>
    <path d="M 17.21405792236328 96.57502746582031 C 16.408493041992188 95.59090423583984 24.955095291137695 98.02173614501953 27.334394454956055 104.80805206298828" stroke-width="4.0" fill="rgb(252, 63, 49)" opacity="0.0"/>
    <path d="M 135.17486572265625 27.597789764404297 C 132.553955078125 39.40138244628906 125.6170883178711 32.07045364379883 144.3533172607422 21.996864318847656" stroke-width="4.0" fill="rgb(192, 255, 186)" opacity="0.0"/>
    <path d="M 84.39553833007812 196.40585327148438 C 111.45388793945312 222.40853881835938 136.71170043945312 194.7747039794922 179.23507690429688 183.66726684570312" stroke-width="4.0" fill="rgb(77, 255, 40)" opacity="0.7765082"/>
    <path d="M 157.19024658203125 87.85363006591797 C 152.6250457763672 69.623779296875 185.21328735351562 85.10899353027344 195.0232391357422 113.60972595214844" stroke-width="4.0" fill="rgb(136, 180, 43)" opacity="0.09752912"/>
    <path d="M 70.18489074707031 203.72100830078125 C 65.91466522216797 215.74949645996094 62.16850662231445 217.80091857910156 61.94417190551758 213.42295837402344" stroke-width="4.0" fill="rgb(128, 65, 255)" opacity="0.0"/>
    <path d="M 45.69734191894531 83.5258560180664 C 33.16348648071289 84.4239730834961 31.224746704101562 74.955810546875 36.91836929321289 62.38916778564453" stroke-width="4.0" fill="rgb(255, 61, 91)" opacity="0.0"/>
    <path d="M 131.6480255126953 -4.0918288230896 C 132.83953857421875 12.21487808227539 127.90153503417969 12.928842544555664 129.69338989257812 -2.5257129669189453" stroke-width="4.0" fill="rgb(205, 202, 223)" opacity="0.013267129"/>
    <path d="M 1.2421410083770752 144.83103942871094 C 2.7665796279907227 142.62802124023438 -7.018576145172119 142.795166015625 -5.334569454193115 151.39163208007812" stroke-width="4.0" fill="rgb(227, 78, 152)" opacity="0.0"/>
    <path d="M 118.46529388427734 199.58966064453125 C 122.2550048828125 154.72769165039062 102.65935516357422 155.81980895996094 114.62899017333984 132.49139404296875" stroke-width="4.0" fill="rgb(70, 240, 12)" opacity="1.0"/>
    <path d="M 256.69598388671875 159.79574584960938 C 268.1232604980469 160.73434448242188 264.4440002441406 160.85914611816406 254.9219512939453 158.527587890625" stroke-width="4.0" fill="rgb(234, 255, 226)" opacity="0.0"/>
    <path d="M 92.72404479980469 184.41897583007812 C 98.99955749511719 198.4488983154297 128.25704956054688 185.70086669921875 130.38075256347656 176.64186096191406" stroke-width="4.0" fill="rgb(67, 255, 8)" opacity="0.536013"/>
    <path d="M 130.2518768310547 37.996585845947266 C 136.41636657714844 32.18320846557617 131.79837036132812 37.83518600463867 137.35903930664062 29.790668487548828" stroke-width="4.0" fill="rgb(109, 255, 203)" opacity="0.0"/>
    <path d="M 176.87265014648438 91.94537353515625 C 200.4816131591797 89.51766204833984 195.0791778564453 86.29847717285156 165.81324768066406 79.29939270019531" stroke-width="4.0" fill="rgb(159, 0, 207)" opacity="0.03833942"/>
    <path d="M 55.68959426879883 223.7550506591797 C 59.40338897705078 228.58016967773438 58.60853958129883 220.01821899414062 67.85636901855469 210.0054931640625" stroke-width="4.0" fill="rgb(172, 255, 135)" opacity="0.0"/>
    <path d="M 183.20278930664062 163.14390563964844 C 150.73846435546875 208.3737030029297 176.62547302246094 207.52810668945312 117.4920654296875 203.724853515625" stroke-width="4.0" fill="rgb(79, 239, 19)" opacity="0.94349813"/>
    <path d="M 78.14833068847656 174.29859924316406 C 84.88703155517578 232.8568878173828 136.26150512695312 169.6835479736328 77.32283782958984 124.9919662475586" stroke-width="4.0" fill="rgb(65, 247, 6)" opacity="0.9335459"/>
    <path d="M 93.18272399902344 102.60951232910156 C 125.41381072998047 40.81063461303711 152.16036987304688 57.026851654052734 128.02027893066406 61.44373321533203" stroke-width="4.0" fill="rgb(184, 161, 115)" opacity="0.003329366"/>
    <path d="M 134.5765380859375 77.36087799072266 C 157.62493896484375 66.9713363647461 176.0803985595703 69.22746276855469 169.93258666992188 63.81350326538086" stroke-width="4.0" fill="rgb(251, 242, 0)" opacity="0.018089557"/>
    <path d="M 213.73422241210938 216.3380584716797 C 217.89413452148438 219.60337829589844 229.9462432861328 213.09600830078125 226.4732208251953 237.1821746826172" stroke-width="4.0" fill="rgb(227, 193, 241)" opacity="0.0010597853"/>
    <path d="M 47.77350997924805 202.77923583984375 C 36.58528137207031 198.51596069335938 38.76287078857422 199.7992401123047 32.36050033569336 195.2562713623047" stroke-width="4.0" fill="rgb(183, 255, 182)" opacity="1.2493705e-06"/>
    <path d="M 173.5740966796875 80.84839630126953 C 206.7058868408203 94.65113067626953 201.3428955078125 136.21006774902344 185.0587158203125 102.65483093261719" stroke-width="4.0" fill="rgb(98, 193, 65)" opacity="0.59106386"/>
    <path d="M 146.8401641845703 222.71607971191406 C 154.341064453125 222.31521606445312 150.83837890625 217.85072326660156 150.55111694335938 227.37933349609375" stroke-width="4.0" fill="rgb(209, 255, 200)" opacity="0.0"/>
  </g>
</svg>
