<?xml version="1.0" ?>
<svg xmlns="http://www.w3.org/2000/svg" version="1.1" width="256" height="256">
  <defs/>
  <g>
    <path d="M 135.0081024169922 190.17340087890625 C 175.3592987060547 178.06793212890625 163.5248565673828 212.04638671875 150.23251342773438 203.44322204589844 L 135.0081024169922 190.17340087890625" stroke-width="4.0" fill="rgb(152, 63, 199)" opacity="0.29495722"/>
    <path d="M 143.86892700195312 246.02914428710938 C 154.27932739257812 192.21018981933594 124.99252319335938 194.37828063964844 52.465152740478516 200.34197998046875 L 143.86892700195312 246.02914428710938" stroke-width="4.0" fill="rgb(212, 223, 227)" opacity="0.09106524"/>
    <path d="M 43.71782684326172 250.1292266845703 C 41.0929069519043 256.3374328613281 40.036346435546875 262.0029296875 43.99436569213867 264.21929931640625 L 43.71782684326172 250.1292266845703" stroke-width="4.0" fill="rgb(214, 221, 224)" opacity="0.0070342557"/>
    <path d="M 240.30767822265625 77.034423828125 C 237.2601318359375 62.7979736328125 248.0143585205078 51.76966094970703 266.12750244140625 56.099098205566406 L 240.30767822265625 77.034423828125" stroke-width="4.0" fill="rgb(204, 208, 207)" opacity="0.036326177"/>
    <path d="M 208.01644897460938 43.74777603149414 C 208.01954650878906 13.105095863342285 202.66748046875 33.08982849121094 186.10302734375 43.824256896972656 L 208.01644897460938 43.74777603149414" stroke-width="4.0" fill="rgb(201, 210, 204)" opacity="0.041994784"/>
    <path d="M 131.11923217773438 198.75393676757812 C 119.5833511352539 218.02633666992188 88.2729721069336 205.70994567871094 81.81044006347656 197.21766662597656 L 131.11923217773438 198.75393676757812" stroke-width="4.0" fill="rgb(36, 72, 34)" opacity="0.89454657"/>
    <path d="M 233.77586364746094 67.4893798828125 C 190.6423797607422 55.65703201293945 199.0800018310547 38.0587272644043 224.75108337402344 19.33911895751953 L 233.77586364746094 67.4893798828125" stroke-width="4.0" fill="rgb(175, 177, 179)" opacity="0.019634942"/>
    <path d="M 58.933380126953125 97.66387939453125 C 122.58055114746094 116.99551391601562 126.25102233886719 86.07550048828125 87.13074493408203 77.77650451660156 L 58.933380126953125 97.66387939453125" stroke-width="4.0" fill="rgb(243, 101, 38)" opacity="0.72618705"/>
    <path d="M 118.21155548095703 179.3485870361328 C 118.33079528808594 132.19140625 139.95425415039062 125.32891082763672 169.34634399414062 179.30941772460938 L 118.21155548095703 179.3485870361328" stroke-width="4.0" fill="rgb(127, 0, 156)" opacity="0.7681617"/>
    <path d="M -1.7747113704681396 1.4788966178894043 C 45.79199981689453 69.68627166748047 72.05288696289062 63.831504821777344 64.50689697265625 -12.971077919006348 L -1.7747113704681396 1.4788966178894043" stroke-width="4.0" fill="rgb(189, 196, 195)" opacity="0.04373331"/>
    <path d="M 256.1332092285156 101.52879333496094 C 200.5498046875 123.3981704711914 188.5086669921875 110.96892547607422 198.9266815185547 69.76024627685547 L 256.1332092285156 101.52879333496094" stroke-width="4.0" fill="rgb(195, 200, 196)" opacity="0.039724384"/>
    <path d="M 187.38914489746094 46.601173400878906 C 210.6502227783203 33.19412612915039 221.10787963867188 62.36845397949219 199.71652221679688 72.41478729248047 L 187.38914489746094 46.601173400878906" stroke-width="4.0" fill="rgb(211, 211, 212)" opacity="0.038865484"/>
    <path d="M 57.048057556152344 20.32000732421875 C 90.34062957763672 28.338001251220703 94.30335235595703 -3.3358511924743652 65.91702270507812 -4.865821838378906 L 57.048057556152344 20.32000732421875" stroke-width="4.0" fill="rgb(213, 214, 216)" opacity="0.029878536"/>
    <path d="M 221.46669006347656 51.25713348388672 C 219.64144897460938 46.54985809326172 220.3940887451172 51.2779655456543 223.0845947265625 52.1843147277832 L 221.46669006347656 51.25713348388672" stroke-width="4.0" fill="rgb(194, 196, 178)" opacity="0.14270091"/>
    <path d="M 214.40255737304688 7.487934589385986 C 199.9877471923828 44.73576354980469 171.22958374023438 60.89081573486328 166.60350036621094 2.953345537185669 L 214.40255737304688 7.487934589385986" stroke-width="4.0" fill="rgb(125, 131, 139)" opacity="0.019195998"/>
    <path d="M 34.416927337646484 245.83168029785156 C 44.203147888183594 196.07269287109375 69.67918395996094 197.1019287109375 71.2725830078125 220.22438049316406 L 34.416927337646484 245.83168029785156" stroke-width="4.0" fill="rgb(130, 136, 139)" opacity="0.012745889"/>
    <path d="M 258.6993713378906 173.48605346679688 C 269.33624267578125 158.567626953125 258.74334716796875 157.7437744140625 234.1343994140625 161.24691772460938 L 258.6993713378906 173.48605346679688" stroke-width="4.0" fill="rgb(233, 239, 243)" opacity="0.038743537"/>
    <path d="M 31.729686737060547 185.51968383789062 C 3.3180642127990723 199.7550506591797 -15.466495513916016 179.03285217285156 13.335164070129395 159.83074951171875 L 31.729686737060547 185.51968383789062" stroke-width="4.0" fill="rgb(211, 195, 183)" opacity="0.014714723"/>
    <path d="M 129.4229736328125 201.86279296875 C 161.25820922851562 190.4786834716797 174.4255828857422 150.20863342285156 129.0880126953125 126.75277709960938 L 129.4229736328125 201.86279296875" stroke-width="4.0" fill="rgb(199, 41, 177)" opacity="0.93322974"/>
    <path d="M 68.95480346679688 153.89132690429688 C 67.7722396850586 200.8634796142578 87.30838012695312 213.71420288085938 112.5873031616211 184.628173828125 L 68.95480346679688 153.89132690429688" stroke-width="4.0" fill="rgb(59, 78, 38)" opacity="0.45440885"/>
    <path d="M 98.91345977783203 153.07850646972656 C 113.47863006591797 96.25862884521484 152.7901611328125 105.83647155761719 154.21722412109375 161.12710571289062 L 98.91345977783203 153.07850646972656" stroke-width="4.0" fill="rgb(197, 30, 44)" opacity="0.94501585"/>
    <path d="M 106.6683120727539 100.27737426757812 C 163.32484436035156 96.67039489746094 175.07296752929688 92.87525177001953 145.44818115234375 132.5596923828125 L 106.6683120727539 100.27737426757812" stroke-width="4.0" fill="rgb(255, 71, 85)" opacity="0.7969448"/>
    <path d="M 13.261758804321289 128.21331787109375 C 19.74236488342285 134.09613037109375 0.9228031635284424 141.89283752441406 -2.801621198654175 148.6560821533203 L 13.261758804321289 128.21331787109375" stroke-width="4.0" fill="rgb(255, 220, 254)" opacity="0.007969037"/>
    <path d="M 55.387149810791016 66.75201416015625 C 48.598873138427734 32.797454833984375 22.663867950439453 26.683021545410156 12.81867504119873 54.69746398925781 L 55.387149810791016 66.75201416015625" stroke-width="4.0" fill="rgb(174, 200, 192)" opacity="0.033302363"/>
    <path d="M 114.327880859375 37.9305419921875 C 105.0594711303711 72.6524429321289 73.09148406982422 105.62355041503906 46.2269172668457 103.34249114990234 L 114.327880859375 37.9305419921875" stroke-width="4.0" fill="rgb(229, 254, 254)" opacity="0.20717053"/>
    <path d="M 152.34405517578125 162.8510284423828 C 176.94155883789062 175.6475067138672 163.6639404296875 222.0745391845703 121.17642211914062 204.4668426513672 L 152.34405517578125 162.8510284423828" stroke-width="4.0" fill="rgb(117, 0, 9)" opacity="0.9022366"/>
    <path d="M -5.727829933166504 39.38943099975586 C -10.413716316223145 39.54622268676758 -8.193581581115723 53.72447967529297 -6.506284236907959 74.00019836425781 L -5.727829933166504 39.38943099975586" stroke-width="4.0" fill="rgb(75, 198, 58)" opacity="0.090483494"/>
    <path d="M 48.19675064086914 225.82455444335938 C 24.23358726501465 197.29061889648438 32.57475280761719 196.11871337890625 59.27728271484375 193.93545532226562 L 48.19675064086914 225.82455444335938" stroke-width="4.0" fill="rgb(184, 208, 210)" opacity="0.015518845"/>
    <path d="M 133.256103515625 178.1556396484375 C 190.54771423339844 198.56057739257812 193.55520629882812 181.57611083984375 154.99644470214844 157.7059326171875 L 133.256103515625 178.1556396484375" stroke-width="4.0" fill="rgb(156, 50, 46)" opacity="0.73301494"/>
    <path d="M 271.6458740234375 133.61094665527344 C 250.3321990966797 89.21863555908203 212.5671844482422 97.01446533203125 184.87637329101562 133.5728759765625 L 271.6458740234375 133.61094665527344" stroke-width="4.0" fill="rgb(218, 217, 214)" opacity="0.053989854"/>
    <path d="M 179.78402709960938 10.422066688537598 C 124.60247802734375 26.481122970581055 131.32496643066406 3.238443374633789 159.41429138183594 -17.154447555541992 L 179.78402709960938 10.422066688537598" stroke-width="4.0" fill="rgb(193, 197, 196)" opacity="0.036084477"/>
    <path d="M -2.491105318069458 175.0850067138672 C -13.82654857635498 213.4320831298828 -1.3948184251785278 213.45553588867188 38.39738464355469 197.24134826660156 L -2.491105318069458 175.0850067138672" stroke-width="4.0" fill="rgb(149, 149, 151)" opacity="0.025090232"/>
    <path d="M 138.173095703125 209.17823791503906 C 169.7931365966797 209.49119567871094 177.30039978027344 200.89535522460938 168.53817749023438 176.43585205078125 L 138.173095703125 209.17823791503906" stroke-width="4.0" fill="rgb(109, 36, 40)" opacity="0.9742322"/>
    <path d="M 32.91524124145508 136.56094360351562 C 33.51810836791992 102.8065185546875 36.88578796386719 80.3368148803711 47.357948303222656 69.70879364013672 L 32.91524124145508 136.56094360351562" stroke-width="4.0" fill="rgb(255, 236, 219)" opacity="0.045843348"/>
    <path d="M 17.384214401245117 13.94827938079834 C 32.033477783203125 51.597862243652344 14.50003433227539 55.867950439453125 -14.787721633911133 24.834136962890625 L 17.384214401245117 13.94827938079834" stroke-width="4.0" fill="rgb(187, 195, 194)" opacity="0.038723033"/>
    <path d="M 246.9981231689453 67.46199798583984 C 229.50985717773438 110.28541564941406 214.7537384033203 87.23490142822266 199.0926513671875 58.163936614990234 L 246.9981231689453 67.46199798583984" stroke-width="4.0" fill="rgb(155, 152, 164)" opacity="0.024717676"/>
    <path d="M 153.30079650878906 198.34095764160156 C 125.18190002441406 247.3674774169922 148.39706420898438 273.2055969238281 195.0356903076172 256.0776062011719 L 153.30079650878906 198.34095764160156" stroke-width="4.0" fill="rgb(161, 192, 189)" opacity="0.011470693"/>
    <path d="M 156.40061950683594 154.1184844970703 C 136.6753692626953 147.36703491210938 129.54612731933594 107.18667602539062 164.87371826171875 96.36406707763672 L 156.40061950683594 154.1184844970703" stroke-width="4.0" fill="rgb(114, 53, 0)" opacity="0.32760453"/>
    <path d="M 240.1997833251953 79.50214385986328 C 245.46434020996094 66.62706756591797 232.703857421875 61.16791534423828 225.50640869140625 73.70733642578125 L 240.1997833251953 79.50214385986328" stroke-width="4.0" fill="rgb(202, 188, 252)" opacity="0.005173842"/>
    <path d="M -7.5392584800720215 27.537952423095703 C -1.2623157501220703 30.960596084594727 -0.8991473317146301 30.383953094482422 -4.3408894538879395 27.96430015563965 L -7.5392584800720215 27.537952423095703" stroke-width="4.0" fill="rgb(184, 163, 191)" opacity="0.1573173"/>
    <path d="M 101.04425048828125 260.6401062011719 C 102.2799072265625 265.0863952636719 101.47367858886719 263.4035949707031 102.02594757080078 264.4057922363281 L 101.04425048828125 260.6401062011719" stroke-width="4.0" fill="rgb(148, 126, 88)" opacity="0.43269864"/>
    <path d="M 175.28536987304688 120.27072143554688 C 188.22378540039062 127.6484603881836 181.4962158203125 120.87179565429688 173.34397888183594 136.1691131591797 L 175.28536987304688 120.27072143554688" stroke-width="4.0" fill="rgb(90, 46, 53)" opacity="0.8326589"/>
    <path d="M 175.9934539794922 180.89227294921875 C 184.90621948242188 210.47470092773438 211.2615509033203 196.90634155273438 199.67654418945312 157.27731323242188 L 175.9934539794922 180.89227294921875" stroke-width="4.0" fill="rgb(188, 203, 219)" opacity="0.0"/>
    <path d="M 191.14993286132812 177.65054321289062 C 195.64585876464844 142.08389282226562 148.15953063964844 127.98420715332031 146.796875 157.06439208984375 L 191.14993286132812 177.65054321289062" stroke-width="4.0" fill="rgb(229, 220, 142)" opacity="0.6410991"/>
    <path d="M 124.13382720947266 93.54777526855469 C 122.97852325439453 54.31827926635742 128.0124969482422 53.62941360473633 134.4801483154297 59.03790283203125 L 124.13382720947266 93.54777526855469" stroke-width="4.0" fill="rgb(103, 51, 13)" opacity="0.9189939"/>
    <path d="M 161.36680603027344 161.644287109375 C 118.20640563964844 224.38059997558594 73.05745697021484 205.98121643066406 57.20322799682617 140.56021118164062 L 161.36680603027344 161.644287109375" stroke-width="4.0" fill="rgb(182, 10, 11)" opacity="0.3820525"/>
    <path d="M 213.0985565185547 260.3536071777344 C 168.95303344726562 260.0656433105469 157.5043182373047 220.0757598876953 188.52667236328125 191.0859832763672 L 213.0985565185547 260.3536071777344" stroke-width="4.0" fill="rgb(183, 187, 186)" opacity="0.044363573"/>
    <path d="M 77.68601989746094 167.95570373535156 C 100.11387634277344 216.75439453125 114.16566467285156 212.98220825195312 175.1483917236328 196.61085510253906 L 77.68601989746094 167.95570373535156" stroke-width="4.0" fill="rgb(212, 64, 19)" opacity="0.44662008"/>
    <path d="M 67.12476348876953 22.926456451416016 C 64.60861206054688 52.23751449584961 110.97171783447266 50.490970611572266 135.9317169189453 12.652710914611816 L 67.12476348876953 22.926456451416016" stroke-width="4.0" fill="rgb(191, 206, 204)" opacity="0.041832563"/>
    <path d="M 4.0304274559021 27.59871482849121 C -16.785810470581055 78.33109283447266 -6.343055248260498 84.40392303466797 23.940258026123047 75.93282318115234 L 4.0304274559021 27.59871482849121" stroke-width="4.0" fill="rgb(219, 167, 165)" opacity="0.019871794"/>
    <path d="M 242.54823303222656 161.07395935058594 C 249.00079345703125 161.1667022705078 243.21067810058594 159.03884887695312 244.4934844970703 173.022705078125 L 242.54823303222656 161.07395935058594" stroke-width="4.0" fill="rgb(255, 255, 255)" opacity="0.0"/>
    <path d="M 201.089111328125 123.86003112792969 C 199.19105529785156 155.60418701171875 189.05093383789062 169.055419921875 195.44869995117188 165.8347625732422 L 201.089111328125 123.86003112792969" stroke-width="4.0" fill="rgb(151, 101, 115)" opacity="0.55212724"/>
    <path d="M 161.12208557128906 197.6798553466797 C 158.91534423828125 225.0576629638672 174.96617126464844 223.1532745361328 160.31997680664062 219.40060424804688 L 161.12208557128906 197.6798553466797" stroke-width="4.0" fill="rgb(201, 194, 197)" opacity="0.2567349"/>
    <path d="M 197.33233642578125 153.75926208496094 C 196.27273559570312 157.92019653320312 185.6808319091797 202.09693908691406 162.00804138183594 202.5388641357422 L 197.33233642578125 153.75926208496094" stroke-width="4.0" fill="rgb(175, 150, 146)" opacity="1.0"/>
    <path d="M 195.474853515625 165.52146911621094 C 158.4593505859375 173.01168823242188 129.53921508789062 161.6439208984375 170.32098388671875 203.88095092773438 L 195.474853515625 165.52146911621094" stroke-width="4.0" fill="rgb(143, 11, 14)" opacity="0.8336176"/>
    <path d="M 247.28102111816406 191.6691436767578 C 274.596435546875 221.96678161621094 269.7252502441406 256.73260498046875 236.0479278564453 257.2086181640625 L 247.28102111816406 191.6691436767578" stroke-width="4.0" fill="rgb(193, 204, 197)" opacity="0.025725238"/>
    <path d="M 133.5654296875 96.95955657958984 C 177.41445922851562 63.43851852416992 171.90106201171875 74.9722671508789 167.51217651367188 137.01951599121094 L 133.5654296875 96.95955657958984" stroke-width="4.0" fill="rgb(193, 58, 37)" opacity="0.5076575"/>
    <path d="M 191.19163513183594 185.80889892578125 C 212.49850463867188 177.67333984375 200.180419921875 175.42469787597656 179.2269287109375 151.5004119873047 L 191.19163513183594 185.80889892578125" stroke-width="4.0" fill="rgb(141, 184, 173)" opacity="0.09834139"/>
    <path d="M 25.553813934326172 238.47894287109375 C 91.60443878173828 219.9839324951172 93.69078826904297 238.59388732910156 61.14790344238281 284.277099609375 L 25.553813934326172 238.47894287109375" stroke-width="4.0" fill="rgb(174, 178, 178)" opacity="0.030421535"/>
    <path d="M 124.34181213378906 45.9888916015625 C 122.4693832397461 52.222801208496094 135.27674865722656 51.3846321105957 140.5854949951172 63.099525451660156 L 124.34181213378906 45.9888916015625" stroke-width="4.0" fill="rgb(192, 212, 126)" opacity="0.084739834"/>
    <path d="M 152.27540588378906 210.00527954101562 C 158.00436401367188 225.20089721679688 153.45199584960938 207.22833251953125 112.1468734741211 207.14210510253906 L 152.27540588378906 210.00527954101562" stroke-width="4.0" fill="rgb(200, 235, 248)" opacity="0.21590155"/>
    <path d="M 130.53346252441406 76.72740936279297 C 160.34054565429688 71.15536499023438 185.89588928222656 85.91519165039062 143.78793334960938 82.43883514404297 L 130.53346252441406 76.72740936279297" stroke-width="4.0" fill="rgb(76, 134, 117)" opacity="0.25739497"/>
    <path d="M 223.4051055908203 97.27349853515625 C 238.50051879882812 90.12522888183594 236.90330505371094 80.37383270263672 229.69090270996094 54.795433044433594 L 223.4051055908203 97.27349853515625" stroke-width="4.0" fill="rgb(240, 230, 254)" opacity="0.0040482264"/>
    <path d="M 181.07736206054688 241.56874084472656 C 161.71878051757812 244.86866760253906 149.81732177734375 237.06875610351562 165.57989501953125 210.32643127441406 L 181.07736206054688 241.56874084472656" stroke-width="4.0" fill="rgb(189, 218, 222)" opacity="0.03426919"/>
    <path d="M 166.02371215820312 205.028564453125 C 166.02142333984375 157.57913208007812 169.03775024414062 139.9480743408203 113.47618103027344 149.15390014648438 L 166.02371215820312 205.028564453125" stroke-width="4.0" fill="rgb(139, 1, 1)" opacity="0.2533965"/>
    <path d="M 71.65015411376953 41.75537109375 C 52.11049270629883 28.462961196899414 47.58045959472656 29.24396324157715 74.46501922607422 13.47606086730957 L 71.65015411376953 41.75537109375" stroke-width="4.0" fill="rgb(199, 209, 211)" opacity="0.02997933"/>
    <path d="M -1.0655543804168701 103.90953826904297 C -0.7165441513061523 103.26091003417969 -1.682798981666565 101.61212158203125 -4.669842720031738 102.17121124267578 L -1.0655543804168701 103.90953826904297" stroke-width="4.0" fill="rgb(186, 225, 222)" opacity="0.012034186"/>
    <path d="M 73.4792709350586 245.40013122558594 C 97.49089050292969 225.06153869628906 91.39764404296875 242.89590454101562 104.88697814941406 241.5889434814453 L 73.4792709350586 245.40013122558594" stroke-width="4.0" fill="rgb(164, 136, 179)" opacity="0.0036948163"/>
    <path d="M 226.87759399414062 -4.4368510246276855 C 280.0555419921875 -9.214478492736816 275.904541015625 55.332698822021484 232.14236450195312 67.49471282958984 L 226.87759399414062 -4.4368510246276855" stroke-width="4.0" fill="rgb(199, 201, 200)" opacity="0.04718907"/>
    <path d="M 147.2637176513672 210.1497802734375 C 173.95745849609375 167.47573852539062 152.8689422607422 129.32415771484375 115.75149536132812 149.80548095703125 L 147.2637176513672 210.1497802734375" stroke-width="4.0" fill="rgb(215, 0, 6)" opacity="0.2234179"/>
    <path d="M 230.06744384765625 52.60730743408203 C 213.06507873535156 57.9072265625 204.64637756347656 46.09477233886719 210.1614990234375 14.018898963928223 L 230.06744384765625 52.60730743408203" stroke-width="4.0" fill="rgb(255, 255, 254)" opacity="0.005542749"/>
    <path d="M 109.4959716796875 115.7948226928711 C 148.18069458007812 170.4834442138672 129.4226531982422 168.8722686767578 65.25749206542969 137.1734619140625 L 109.4959716796875 115.7948226928711" stroke-width="4.0" fill="rgb(255, 55, 50)" opacity="0.56349236"/>
    <path d="M 211.70065307617188 181.0440673828125 C 225.6720428466797 179.04345703125 236.0731964111328 167.7133331298828 252.02333068847656 171.09422302246094 L 211.70065307617188 181.0440673828125" stroke-width="4.0" fill="rgb(186, 221, 234)" opacity="0.015803473"/>
    <path d="M -9.105537414550781 96.0196533203125 C 41.44047927856445 79.4813003540039 65.03884887695312 92.14867401123047 53.227806091308594 125.0821304321289 L -9.105537414550781 96.0196533203125" stroke-width="4.0" fill="rgb(255, 222, 187)" opacity="0.06132001"/>
    <path d="M 26.100358963012695 263.0628662109375 C -6.454128265380859 202.1191864013672 18.1694278717041 189.7317352294922 52.05946731567383 203.81787109375 L 26.100358963012695 263.0628662109375" stroke-width="4.0" fill="rgb(183, 191, 188)" opacity="0.034753576"/>
    <path d="M 162.3795928955078 107.2645034790039 C 142.73565673828125 158.97962951660156 158.68287658691406 178.4339599609375 192.07699584960938 165.85130310058594 L 162.3795928955078 107.2645034790039" stroke-width="4.0" fill="rgb(188, 192, 207)" opacity="0.3436731"/>
    <path d="M 229.0360870361328 93.63976287841797 C 235.15504455566406 112.30229187011719 255.5986328125 103.5240707397461 241.990234375 76.10285949707031 L 229.0360870361328 93.63976287841797" stroke-width="4.0" fill="rgb(164, 165, 164)" opacity="0.011431543"/>
    <path d="M 94.39889526367188 124.20812225341797 C 116.3075942993164 176.62225341796875 132.9435577392578 166.8443603515625 122.06832885742188 118.21435546875 L 94.39889526367188 124.20812225341797" stroke-width="4.0" fill="rgb(201, 130, 117)" opacity="0.14108087"/>
    <path d="M 109.00679779052734 251.36453247070312 C 125.23611450195312 230.39817810058594 146.8419189453125 232.48301696777344 146.44717407226562 264.20648193359375 L 109.00679779052734 251.36453247070312" stroke-width="4.0" fill="rgb(199, 209, 211)" opacity="0.03619037"/>
    <path d="M 70.63230895996094 154.0604705810547 C 158.52993774414062 169.76611328125 160.9486541748047 163.90707397460938 124.00455474853516 207.6363525390625 L 70.63230895996094 154.0604705810547" stroke-width="4.0" fill="rgb(172, 20, 23)" opacity="0.6539656"/>
    <path d="M 144.40390014648438 48.04639434814453 C 164.68319702148438 79.25018310546875 149.8448028564453 76.33705139160156 123.60671997070312 73.87236785888672 L 144.40390014648438 48.04639434814453" stroke-width="4.0" fill="rgb(250, 255, 255)" opacity="0.00028781983"/>
    <path d="M 179.62515258789062 61.02876663208008 C 131.5202178955078 70.68270111083984 144.31788635253906 46.95695495605469 165.3198699951172 0.7963354587554932 L 179.62515258789062 61.02876663208008" stroke-width="4.0" fill="rgb(190, 196, 195)" opacity="0.03839719"/>
    <path d="M 261.42474365234375 213.10870361328125 C 218.81796264648438 288.96282958984375 206.64749145507812 260.1155700683594 190.3425750732422 189.59535217285156 L 261.42474365234375 213.10870361328125" stroke-width="4.0" fill="rgb(165, 172, 175)" opacity="0.027007343"/>
    <path d="M 121.92832946777344 208.65757751464844 C 84.17674255371094 207.83505249023438 100.3600845336914 156.43157958984375 163.14334106445312 152.7236785888672 L 121.92832946777344 208.65757751464844" stroke-width="4.0" fill="rgb(170, 28, 27)" opacity="0.47730088"/>
    <path d="M 85.55074310302734 137.69586181640625 C 87.83332824707031 165.50924682617188 47.32200241088867 153.64224243164062 62.699974060058594 95.66564178466797 L 85.55074310302734 137.69586181640625" stroke-width="4.0" fill="rgb(255, 127, 125)" opacity="0.51125425"/>
    <path d="M 185.809814453125 -2.558891773223877 C 249.51194763183594 -5.471607685089111 245.17843627929688 41.760284423828125 216.7919921875 68.84713745117188 L 185.809814453125 -2.558891773223877" stroke-width="4.0" fill="rgb(208, 214, 213)" opacity="0.034536727"/>
    <path d="M 70.81581115722656 84.6260757446289 C 59.8543701171875 181.8867950439453 59.31941604614258 181.7094268798828 53.111724853515625 117.69149780273438 L 70.81581115722656 84.6260757446289" stroke-width="4.0" fill="rgb(154, 139, 138)" opacity="1.0"/>
    <path d="M 52.878726959228516 186.1273193359375 C 53.735511779785156 182.37535095214844 57.67344665527344 180.66357421875 60.77299880981445 176.20089721679688 L 52.878726959228516 186.1273193359375" stroke-width="4.0" fill="rgb(255, 145, 227)" opacity="0.028646197"/>
    <path d="M 239.33236694335938 99.31183624267578 C 269.71142578125 104.83185577392578 269.0915222167969 68.05628967285156 247.25543212890625 61.347755432128906 L 239.33236694335938 99.31183624267578" stroke-width="4.0" fill="rgb(193, 193, 195)" opacity="0.038874835"/>
    <path d="M 219.15768432617188 -1.933320164680481 C 208.17613220214844 10.252049446105957 204.39718627929688 31.592117309570312 214.73178100585938 42.870784759521484 L 219.15768432617188 -1.933320164680481" stroke-width="4.0" fill="rgb(230, 233, 232)" opacity="0.03765179"/>
    <path d="M 181.97032165527344 30.068281173706055 C 221.47467041015625 82.1988296508789 204.41653442382812 85.18521881103516 159.11367797851562 72.04985046386719 L 181.97032165527344 30.068281173706055" stroke-width="4.0" fill="rgb(182, 186, 187)" opacity="0.032889202"/>
    <path d="M 209.35494995117188 179.30747985839844 C 188.34249877929688 157.2499237060547 176.00038146972656 153.10382080078125 231.22830200195312 131.72166442871094 L 209.35494995117188 179.30747985839844" stroke-width="4.0" fill="rgb(248, 253, 254)" opacity="0.1937989"/>
    <path d="M 182.9697723388672 164.92739868164062 C 212.7159423828125 151.11302185058594 205.61305236816406 135.91476440429688 191.48513793945312 120.48799133300781 L 182.9697723388672 164.92739868164062" stroke-width="4.0" fill="rgb(233, 238, 199)" opacity="0.05022784"/>
    <path d="M 91.89388275146484 77.90478515625 C 138.86160278320312 64.3508071899414 155.56153869628906 104.04965209960938 101.01802825927734 144.2197723388672 L 91.89388275146484 77.90478515625" stroke-width="4.0" fill="rgb(233, 49, 90)" opacity="0.22442247"/>
    <path d="M 144.9090118408203 217.07191467285156 C 110.59306335449219 215.0209503173828 94.37741088867188 209.75990295410156 127.16683197021484 206.0507354736328 L 144.9090118408203 217.07191467285156" stroke-width="4.0" fill="rgb(255, 243, 250)" opacity="0.29481605"/>
    <path d="M 136.04417419433594 11.490194320678711 C 113.43073272705078 -9.31590747833252 79.79547882080078 -12.360479354858398 69.20340728759766 25.170637130737305 L 136.04417419433594 11.490194320678711" stroke-width="4.0" fill="rgb(204, 209, 208)" opacity="0.04916458"/>
    <path d="M 32.946224212646484 45.09012985229492 C 30.728824615478516 74.0843276977539 17.676555633544922 59.84890365600586 -1.173185110092163 44.44407653808594 L 32.946224212646484 45.09012985229492" stroke-width="4.0" fill="rgb(253, 233, 229)" opacity="0.057323735"/>
    <path d="M 157.3476104736328 76.4448013305664 C 193.34857177734375 84.04856872558594 195.4346160888672 113.03092956542969 179.04476928710938 129.83755493164062 L 157.3476104736328 76.4448013305664" stroke-width="4.0" fill="rgb(127, 98, 68)" opacity="0.26609057"/>
    <path d="M 100.31763458251953 100.6780776977539 C 142.47955322265625 58.26123809814453 169.4811248779297 74.345703125 200.91339111328125 107.76667022705078 L 100.31763458251953 100.6780776977539" stroke-width="4.0" fill="rgb(99, 6, 0)" opacity="0.3525299"/>
    <path d="M 170.93128967285156 169.15585327148438 C 167.09426879882812 159.80296325683594 183.54527282714844 162.417236328125 173.2530059814453 172.90553283691406 L 170.93128967285156 169.15585327148438" stroke-width="4.0" fill="rgb(160, 255, 255)" opacity="0.18001735"/>
    <path d="M 131.86708068847656 92.94083404541016 C 150.7818603515625 56.594810485839844 198.8597869873047 91.34935760498047 196.94418334960938 105.84407806396484 L 131.86708068847656 92.94083404541016" stroke-width="4.0" fill="rgb(117, 12, 11)" opacity="0.7681639"/>
    <path d="M 83.79886627197266 77.67898559570312 C 174.71401977539062 70.11331176757812 175.25245666503906 82.72632598876953 147.72262573242188 126.67698669433594 L 83.79886627197266 77.67898559570312" stroke-width="4.0" fill="rgb(195, 41, 24)" opacity="0.6901398"/>
    <path d="M 73.54546356201172 80.94685363769531 C 161.83197021484375 79.84716033935547 147.55186462402344 116.17244720458984 47.95237350463867 148.13795471191406 L 73.54546356201172 80.94685363769531" stroke-width="4.0" fill="rgb(212, 61, 42)" opacity="0.38387808"/>
    <path d="M 94.81178283691406 43.61146545410156 C 149.49520874023438 -1.3556835651397705 162.84466552734375 4.226953029632568 146.06393432617188 59.98509216308594 L 94.81178283691406 43.61146545410156" stroke-width="4.0" fill="rgb(201, 206, 217)" opacity="0.038804557"/>
    <path d="M 245.6234130859375 29.407114028930664 C 263.1094665527344 36.89876174926758 262.7613220214844 38.36600112915039 260.1006774902344 38.354679107666016 L 245.6234130859375 29.407114028930664" stroke-width="4.0" fill="rgb(175, 218, 180)" opacity="0.012399891"/>
    <path d="M 112.94367980957031 262.0342102050781 C 134.12623596191406 220.38626098632812 87.54371643066406 204.8291015625 40.45524978637695 221.21957397460938 L 112.94367980957031 262.0342102050781" stroke-width="4.0" fill="rgb(200, 200, 200)" opacity="0.039878644"/>
    <path d="M 150.89373779296875 32.7360954284668 C 144.4710693359375 22.596450805664062 146.22256469726562 9.249933242797852 160.0236358642578 14.200453758239746 L 150.89373779296875 32.7360954284668" stroke-width="4.0" fill="rgb(192, 204, 201)" opacity="0.044365976"/>
    <path d="M -6.39096212387085 240.61849975585938 C -11.331686019897461 207.589599609375 -6.4858527183532715 199.46534729003906 21.570545196533203 212.091064453125 L -6.39096212387085 240.61849975585938" stroke-width="4.0" fill="rgb(189, 189, 189)" opacity="0.033059143"/>
    <path d="M 66.49343872070312 214.32156372070312 C 59.721492767333984 149.58660888671875 66.40021514892578 132.9732208251953 5.147222995758057 175.69773864746094 L 66.49343872070312 214.32156372070312" stroke-width="4.0" fill="rgb(196, 207, 206)" opacity="0.06116406"/>
    <path d="M 192.53126525878906 122.15526580810547 C 183.7111358642578 100.58674621582031 189.95196533203125 77.24422454833984 193.49575805664062 77.34921264648438 L 192.53126525878906 122.15526580810547" stroke-width="4.0" fill="rgb(187, 212, 200)" opacity="0.1139402"/>
    <path d="M 88.86270141601562 265.1972961425781 C 91.59070587158203 257.9975891113281 88.76082611083984 262.3681945800781 79.92498016357422 268.4931945800781 L 88.86270141601562 265.1972961425781" stroke-width="4.0" fill="rgb(131, 35, 190)" opacity="0.22174457"/>
    <path d="M 198.06015014648438 141.9148406982422 C 191.75518798828125 156.5481719970703 201.73448181152344 133.33717346191406 193.99234008789062 149.55406188964844 L 198.06015014648438 141.9148406982422" stroke-width="4.0" fill="rgb(255, 63, 36)" opacity="0.47465223"/>
    <path d="M 101.30586242675781 187.69561767578125 C 161.81399536132812 182.0207977294922 178.21182250976562 144.81243896484375 104.98326110839844 93.22320556640625 L 101.30586242675781 187.69561767578125" stroke-width="4.0" fill="rgb(245, 54, 24)" opacity="0.2668513"/>
    <path d="M 193.0485382080078 81.96907806396484 C 205.63671875 114.73163604736328 189.25338745117188 125.06721496582031 187.23191833496094 118.92802429199219 L 193.0485382080078 81.96907806396484" stroke-width="4.0" fill="rgb(168, 121, 124)" opacity="0.023329033"/>
    <path d="M 199.267578125 -35.53406524658203 C 181.7003173828125 -33.91685104370117 169.47677612304688 -23.75138282775879 168.6759796142578 -8.86695384979248 L 199.267578125 -35.53406524658203" stroke-width="4.0" fill="rgb(147, 215, 154)" opacity="0.0"/>
    <path d="M 24.106761932373047 145.75120544433594 C 17.464452743530273 154.05670166015625 18.205608367919922 162.4289093017578 21.774017333984375 150.12326049804688 L 24.106761932373047 145.75120544433594" stroke-width="4.0" fill="rgb(255, 233, 229)" opacity="0.013737187"/>
    <path d="M 52.28528594970703 126.21562957763672 C 68.6219253540039 227.0963592529297 125.53276824951172 232.61700439453125 143.22653198242188 136.3356475830078 L 52.28528594970703 126.21562957763672" stroke-width="4.0" fill="rgb(199, 28, 29)" opacity="0.7632051"/>
    <path d="M 105.51408386230469 56.78415298461914 C 65.49537658691406 74.80390930175781 64.12967681884766 39.14376449584961 97.97128295898438 22.595779418945312 L 105.51408386230469 56.78415298461914" stroke-width="4.0" fill="rgb(228, 219, 217)" opacity="0.061794516"/>
    <path d="M 23.07160758972168 28.766572952270508 C 42.22655487060547 42.29905700683594 38.6367301940918 53.28453063964844 26.931350708007812 47.82197952270508 L 23.07160758972168 28.766572952270508" stroke-width="4.0" fill="rgb(201, 232, 241)" opacity="0.019822363"/>
    <path d="M 81.88294219970703 19.718935012817383 C 89.79814147949219 46.77199935913086 100.34110260009766 39.68864440917969 96.26007843017578 8.936657905578613 L 81.88294219970703 19.718935012817383" stroke-width="4.0" fill="rgb(180, 187, 203)" opacity="0.0"/>
    <path d="M 95.01445007324219 79.53118896484375 C 49.691062927246094 106.98573303222656 3.355534553527832 129.5283966064453 0.6011542081832886 47.58796691894531 L 95.01445007324219 79.53118896484375" stroke-width="4.0" fill="rgb(232, 244, 249)" opacity="0.24701421"/>
    <path d="M 160.2303466796875 127.04164123535156 C 199.80491638183594 90.88896179199219 181.17759704589844 97.05662536621094 183.48385620117188 159.03871154785156 L 160.2303466796875 127.04164123535156" stroke-width="4.0" fill="rgb(62, 70, 0)" opacity="0.24144289"/>
    <path d="M 101.71520233154297 -2.4139506816864014 C 88.5435562133789 26.248455047607422 79.4571304321289 16.882814407348633 60.27685546875 -0.3342303931713104 L 101.71520233154297 -2.4139506816864014" stroke-width="4.0" fill="rgb(110, 140, 82)" opacity="0.00411352"/>
    <path d="M 205.7891387939453 101.7353744506836 C 231.00637817382812 130.4192352294922 223.66864013671875 163.4000244140625 182.66937255859375 128.58816528320312 L 205.7891387939453 101.7353744506836" stroke-width="4.0" fill="rgb(248, 244, 251)" opacity="0.16019358"/>
    <path d="M 183.251708984375 206.19134521484375 C 266.1875 225.3943634033203 285.41998291015625 202.95449829101562 244.88279724121094 108.35413360595703 L 183.251708984375 206.19134521484375" stroke-width="4.0" fill="rgb(202, 209, 206)" opacity="0.052472804"/>
    <path d="M 23.1240234375 72.76118469238281 C -36.439964294433594 182.4695281982422 13.789812088012695 200.95291137695312 60.44773864746094 133.0713653564453 L 23.1240234375 72.76118469238281" stroke-width="4.0" fill="rgb(238, 254, 254)" opacity="0.16510892"/>
    <path d="M 18.920106887817383 147.69764709472656 C 26.17474365234375 162.6229248046875 51.53570556640625 162.03826904296875 38.668983459472656 177.86366271972656 L 18.920106887817383 147.69764709472656" stroke-width="4.0" fill="rgb(167, 184, 177)" opacity="0.0"/>
    <path d="M -11.488783836364746 227.40069580078125 C 23.20281410217285 216.2283935546875 28.694433212280273 236.70428466796875 9.71878433227539 266.98541259765625 L -11.488783836364746 227.40069580078125" stroke-width="4.0" fill="rgb(187, 198, 196)" opacity="0.028827451"/>
  </g>
</svg>
