<?xml version="1.0" ?>
<svg xmlns="http://www.w3.org/2000/svg" version="1.1" width="225" height="225">
  <defs/>
  <g>
    <path d="M 235.43853759765625 -10.816096305847168 C 242.28782653808594 -5.105093955993652 230.13185119628906 49.41505432128906 229.8329315185547 43.76509475708008" stroke-width="2.0" fill="rgb(255, 255, 166)" opacity="1.0"/>
    <path d="M 104.99103546142578 61.963768005371094 C 131.0757293701172 62.01803970336914 129.55224609375 68.10740661621094 115.79943084716797 100.45927429199219" stroke-width="2.0" fill="rgb(0, 0, 0)" opacity="1.0"/>
    <path d="M 235.6920928955078 180.6996612548828 C 234.51165771484375 207.84524536132812 222.58425903320312 214.74581909179688 232.06216430664062 214.46646118164062" stroke-width="2.0" fill="rgb(255, 255, 210)" opacity="0.629946"/>
    <path d="M 176.85694885253906 154.10423278808594 C 176.97659301757812 188.6448211669922 157.9085693359375 206.47998046875 143.33804321289062 198.01951599121094" stroke-width="2.0" fill="rgb(255, 255, 255)" opacity="1.0"/>
    <path d="M 229.41061401367188 -18.51883316040039 C 239.98843383789062 -12.307421684265137 241.79908752441406 53.468841552734375 230.4500732421875 53.88485336303711" stroke-width="2.0" fill="rgb(245, 255, 246)" opacity="0.95211935"/>
    <path d="M 107.98345184326172 82.7448501586914 C 106.3643798828125 87.6966781616211 105.35205078125 93.5141372680664 119.64017486572266 96.9023666381836" stroke-width="2.0" fill="rgb(62, 160, 124)" opacity="0.9965999"/>
    <path d="M 77.04600524902344 -12.709198951721191 C 100.37071990966797 -27.421215057373047 112.30758666992188 -51.308021545410156 117.8767318725586 1.9123302698135376" stroke-width="2.0" fill="rgb(234, 246, 225)" opacity="0.9716444"/>
    <path d="M 172.38670349121094 178.33245849609375 C 168.69970703125 204.82981872558594 176.92068481445312 187.29702758789062 175.43055725097656 183.031982421875" stroke-width="2.0" fill="rgb(184, 255, 255)" opacity="0.41551557"/>
    <path d="M 40.87419891357422 152.00897216796875 C 71.07093048095703 120.6322250366211 80.53690338134766 97.08795928955078 70.44932556152344 64.56039428710938" stroke-width="2.0" fill="rgb(224, 234, 240)" opacity="0.9989669"/>
    <path d="M 234.4856414794922 10.638985633850098 C 238.63246154785156 14.777048110961914 236.39041137695312 21.799823760986328 237.1963653564453 21.82774543762207" stroke-width="2.0" fill="rgb(165, 97, 255)" opacity="0.67067045"/>
    <path d="M 234.84707641601562 -6.201754093170166 C 239.18414306640625 3.0546412467956543 238.6796875 -0.20793357491493225 235.95704650878906 5.520668983459473" stroke-width="2.0" fill="rgb(145, 237, 171)" opacity="1.0"/>
    <path d="M 94.14323425292969 224.37548828125 C 101.66215515136719 251.74185180664062 116.94686889648438 235.81390380859375 132.48983764648438 234.24900817871094" stroke-width="2.0" fill="rgb(183, 172, 175)" opacity="1.0"/>
    <path d="M 183.95718383789062 185.128662109375 C 185.147705078125 186.27281188964844 193.2530517578125 188.4731903076172 193.5495147705078 229.72280883789062" stroke-width="2.0" fill="rgb(255, 164, 188)" opacity="0.3339696"/>
    <path d="M 185.07534790039062 132.0679931640625 C 193.63526916503906 144.9804229736328 243.97740173339844 143.0458984375 238.58082580566406 135.59121704101562" stroke-width="2.0" fill="rgb(255, 255, 191)" opacity="1.0"/>
    <path d="M 154.6072998046875 79.0903091430664 C 154.40687561035156 77.19144439697266 148.91510009765625 91.6928939819336 149.74722290039062 94.15684509277344" stroke-width="2.0" fill="rgb(0, 92, 70)" opacity="0.9878245"/>
    <path d="M 34.80594253540039 205.04896545410156 C -45.83148956298828 226.07664489746094 3.699502944946289 238.02427673339844 46.902496337890625 220.95384216308594" stroke-width="2.0" fill="rgb(255, 255, 255)" opacity="1.0"/>
    <path d="M 73.9098129272461 154.93211364746094 C 100.53282928466797 190.16346740722656 50.501686096191406 218.29444885253906 21.31743621826172 221.36474609375" stroke-width="2.0" fill="rgb(252, 253, 252)" opacity="1.0"/>
    <path d="M 235.75125122070312 32.81943893432617 C 234.9263916015625 85.85196685791016 237.43067932128906 42.905303955078125 233.0352783203125 41.076698303222656" stroke-width="2.0" fill="rgb(94, 128, 255)" opacity="0.6773727"/>
    <path d="M 130.56576538085938 39.226619720458984 C 132.0612335205078 113.44332885742188 122.1170654296875 121.70700073242188 124.47465515136719 119.47987365722656" stroke-width="2.0" fill="rgb(67, 73, 93)" opacity="0.97582006"/>
    <path d="M 233.87432861328125 76.62193298339844 C 239.18475341796875 82.98001098632812 236.10899353027344 90.59469604492188 238.37359619140625 99.49406433105469" stroke-width="2.0" fill="rgb(101, 255, 184)" opacity="0.75885284"/>
    <path d="M 97.47212219238281 115.00499725341797 C 115.70559692382812 122.86872100830078 142.7097930908203 131.7220001220703 141.8281707763672 196.03948974609375" stroke-width="2.0" fill="rgb(57, 57, 56)" opacity="1.0"/>
    <path d="M 215.02081298828125 191.7086181640625 C 225.5950927734375 194.9051971435547 223.3561553955078 216.82823181152344 221.00636291503906 253.74459838867188" stroke-width="2.0" fill="rgb(255, 250, 194)" opacity="0.9980964"/>
    <path d="M 176.23497009277344 -11.637824058532715 C 177.03640747070312 -8.686680793762207 176.76136779785156 -18.296266555786133 183.0347137451172 -7.148316860198975" stroke-width="2.0" fill="rgb(92, 255, 114)" opacity="1.0"/>
    <path d="M 206.07327270507812 87.5163803100586 C 219.7670440673828 92.53360748291016 234.44871520996094 83.51668548583984 231.85328674316406 143.8473663330078" stroke-width="2.0" fill="rgb(255, 255, 255)" opacity="1.0"/>
    <path d="M 90.99994659423828 190.7149658203125 C 78.92536926269531 193.53160095214844 86.00919342041016 187.9655303955078 96.26445770263672 194.94569396972656" stroke-width="2.0" fill="rgb(128, 117, 75)" opacity="0.53956616"/>
    <path d="M 164.84500122070312 33.532440185546875 C 166.1696014404297 33.55339050292969 174.2473907470703 32.737831115722656 178.40911865234375 37.398773193359375" stroke-width="2.0" fill="rgb(237, 255, 255)" opacity="1.0"/>
    <path d="M 84.65474700927734 93.93898010253906 C 93.4793930053711 97.43622589111328 101.31549072265625 97.26444244384766 101.69779205322266 102.14318084716797" stroke-width="2.0" fill="rgb(66, 118, 58)" opacity="0.97743833"/>
    <path d="M 156.11151123046875 85.25904846191406 C 169.5513458251953 77.7198486328125 168.52110290527344 103.23776245117188 178.686279296875 114.82178497314453" stroke-width="2.0" fill="rgb(150, 144, 150)" opacity="0.8472857"/>
    <path d="M 67.25601196289062 52.35841751098633 C 73.78495025634766 44.77403259277344 73.47370910644531 62.73691177368164 80.45382690429688 70.24654388427734" stroke-width="2.0" fill="rgb(134, 41, 126)" opacity="1.0"/>
    <path d="M 201.1138458251953 99.05998229980469 C 198.47911071777344 105.32569885253906 207.50401306152344 114.78361511230469 248.97108459472656 105.77139282226562" stroke-width="2.0" fill="rgb(146, 145, 255)" opacity="0.63583577"/>
    <path d="M 59.048526763916016 18.540691375732422 C 66.70812225341797 24.081954956054688 63.465457916259766 20.154586791992188 67.6633529663086 22.43743896484375" stroke-width="2.0" fill="rgb(78, 208, 89)" opacity="0.9992489"/>
    <path d="M 158.5392303466797 60.500083923339844 C 119.02136993408203 65.48413848876953 131.6101837158203 67.21765899658203 167.86196899414062 67.03119659423828" stroke-width="2.0" fill="rgb(219, 155, 235)" opacity="0.9712155"/>
    <path d="M 176.6366424560547 136.39930725097656 C 180.1916961669922 143.68673706054688 180.20127868652344 135.48876953125 183.24649047851562 142.1275634765625" stroke-width="2.0" fill="rgb(189, 170, 160)" opacity="0.7991532"/>
    <path d="M 42.44938659667969 164.4867401123047 C 48.72792053222656 152.5041961669922 46.72970199584961 130.7335968017578 48.172019958496094 130.12451171875" stroke-width="2.0" fill="rgb(191, 183, 182)" opacity="0.59950256"/>
    <path d="M 28.8701114654541 198.20433044433594 C 55.10177993774414 177.18731689453125 106.2038345336914 136.02194213867188 89.31671905517578 72.88391876220703" stroke-width="2.0" fill="rgb(255, 255, 255)" opacity="1.0"/>
    <path d="M 200.79718017578125 93.81493377685547 C 211.1272430419922 99.72344207763672 207.28082275390625 97.15348052978516 204.5600128173828 107.15634155273438" stroke-width="2.0" fill="rgb(255, 96, 154)" opacity="0.62880504"/>
    <path d="M 149.68087768554688 -15.185281753540039 C 163.0419158935547 -25.026397705078125 169.14285278320312 -21.035633087158203 179.67776489257812 -8.037610054016113" stroke-width="2.0" fill="rgb(236, 255, 255)" opacity="1.0"/>
    <path d="M 89.26849365234375 159.73826599121094 C 101.65768432617188 158.0116729736328 104.8022689819336 229.41326904296875 100.1028823852539 235.2689208984375" stroke-width="2.0" fill="rgb(56, 56, 44)" opacity="0.9631998"/>
    <path d="M 190.83816528320312 157.09120178222656 C 191.83114624023438 171.85098266601562 188.1370849609375 199.99122619628906 188.5440216064453 208.5369110107422" stroke-width="2.0" fill="rgb(255, 255, 233)" opacity="1.0"/>
    <path d="M 95.70616912841797 158.24290466308594 C 94.106201171875 161.41038513183594 89.70649719238281 165.0408477783203 90.15011596679688 167.9219512939453" stroke-width="2.0" fill="rgb(107, 51, 91)" opacity="0.78654486"/>
    <path d="M 34.89815139770508 75.73255157470703 C 38.47633361816406 96.08199310302734 24.9505558013916 73.27220916748047 38.908302307128906 73.90259552001953" stroke-width="2.0" fill="rgb(255, 255, 255)" opacity="1.0"/>
    <path d="M 170.7777862548828 169.16111755371094 C 177.70692443847656 177.62661743164062 177.813232421875 245.56869506835938 162.57217407226562 238.9076385498047" stroke-width="2.0" fill="rgb(255, 143, 177)" opacity="0.97675884"/>
    <path d="M 43.12488555908203 152.09327697753906 C 56.886322021484375 138.32391357421875 67.78997039794922 133.58299255371094 80.26502227783203 137.527099609375" stroke-width="2.0" fill="rgb(105, 126, 93)" opacity="0.59763646"/>
    <path d="M 54.369972229003906 -14.377206802368164 C 71.27191925048828 -20.30742073059082 80.20578002929688 5.460870265960693 67.36181640625 43.691986083984375" stroke-width="2.0" fill="rgb(255, 255, 255)" opacity="1.0"/>
    <path d="M 168.57057189941406 39.28156280517578 C 182.24151611328125 44.7686653137207 182.5183868408203 128.1572723388672 177.7878875732422 125.50970458984375" stroke-width="2.0" fill="rgb(234, 243, 243)" opacity="1.0"/>
    <path d="M 161.97242736816406 108.83314514160156 C 169.59072875976562 115.63839721679688 167.44589233398438 112.72843933105469 167.4341583251953 114.00272369384766" stroke-width="2.0" fill="rgb(95, 95, 95)" opacity="0.4886764"/>
    <path d="M 171.2332000732422 44.61459732055664 C 176.484375 61.582576751708984 185.18508911132812 68.6877212524414 188.6834716796875 76.09415435791016" stroke-width="2.0" fill="rgb(169, 159, 166)" opacity="0.93987876"/>
    <path d="M 193.3402862548828 83.32682037353516 C 192.97885131835938 84.29900360107422 200.01913452148438 86.39122772216797 199.54588317871094 95.05186462402344" stroke-width="2.0" fill="rgb(60, 70, 133)" opacity="0.28752625"/>
    <path d="M 190.14102172851562 81.91172790527344 C 196.5524139404297 109.1551513671875 198.85885620117188 146.77772521972656 182.59657287597656 143.79493713378906" stroke-width="2.0" fill="rgb(149, 165, 171)" opacity="0.7990394"/>
    <path d="M 172.14309692382812 126.27935791015625 C 187.1309051513672 133.7504119873047 192.1103057861328 168.13967895507812 182.85743713378906 200.80674743652344" stroke-width="2.0" fill="rgb(255, 199, 255)" opacity="0.93787473"/>
    <path d="M 232.39590454101562 27.021743774414062 C 232.38919067382812 32.12516784667969 236.20098876953125 38.8160400390625 238.95632934570312 35.50319290161133" stroke-width="2.0" fill="rgb(65, 255, 156)" opacity="1.0"/>
    <path d="M 54.75432205200195 199.3527374267578 C 49.76969528198242 215.77874755859375 136.81716918945312 224.6711883544922 155.1378631591797 228.77186584472656" stroke-width="2.0" fill="rgb(179, 183, 166)" opacity="0.78741574"/>
    <path d="M 49.18734359741211 110.11243438720703 C 53.342002868652344 143.38035583496094 91.8711929321289 159.74209594726562 83.90186309814453 158.5618438720703" stroke-width="2.0" fill="rgb(255, 255, 255)" opacity="1.0"/>
    <path d="M 190.23292541503906 111.91127014160156 C 194.33551025390625 119.87535095214844 198.95130920410156 111.91759490966797 192.10690307617188 180.77976989746094" stroke-width="2.0" fill="rgb(255, 255, 129)" opacity="1.0"/>
    <path d="M 200.8590087890625 197.03858947753906 C 204.4475860595703 211.94187927246094 209.51954650878906 212.23550415039062 202.6838836669922 220.10997009277344" stroke-width="2.0" fill="rgb(72, 55, 186)" opacity="0.65161544"/>
    <path d="M 88.13530731201172 160.83197021484375 C 74.69779205322266 178.32666015625 163.2768096923828 201.15853881835938 146.7060089111328 199.18896484375" stroke-width="2.0" fill="rgb(44, 44, 44)" opacity="1.0"/>
    <path d="M 234.68089294433594 73.1298599243164 C 238.3329315185547 92.48088073730469 224.05299377441406 80.47711944580078 236.2079315185547 78.1444320678711" stroke-width="2.0" fill="rgb(110, 255, 234)" opacity="0.7320446"/>
    <path d="M 162.14434814453125 19.5003719329834 C 163.0509033203125 24.5738582611084 164.64222717285156 29.496274948120117 162.1982421875 30.487167358398438" stroke-width="2.0" fill="rgb(119, 219, 211)" opacity="1.0"/>
    <path d="M 155.70042419433594 45.4050407409668 C 149.06793212890625 52.23588180541992 132.89308166503906 67.77378845214844 124.50900268554688 66.94290161132812" stroke-width="2.0" fill="rgb(230, 229, 233)" opacity="0.9662564"/>
    <path d="M 213.50692749023438 156.0232696533203 C 216.47097778320312 157.28680419921875 217.43617248535156 160.08155822753906 222.14785766601562 163.7666778564453" stroke-width="2.0" fill="rgb(150, 255, 71)" opacity="0.47174662"/>
    <path d="M 139.53839111328125 103.29822540283203 C 148.7823028564453 100.92808532714844 148.31494140625 185.28074645996094 142.98748779296875 205.1880340576172" stroke-width="2.0" fill="rgb(94, 107, 93)" opacity="1.0"/>
    <path d="M 176.86521911621094 24.010385513305664 C 178.27554321289062 66.71588897705078 172.0214385986328 129.87327575683594 161.461669921875 87.1249771118164" stroke-width="2.0" fill="rgb(255, 254, 254)" opacity="0.91614616"/>
    <path d="M 96.89926147460938 131.23696899414062 C 75.66822814941406 156.90830993652344 86.66332244873047 166.8943634033203 122.33799743652344 138.22695922851562" stroke-width="2.0" fill="rgb(34, 34, 34)" opacity="0.9985716"/>
    <path d="M 199.44639587402344 104.47087860107422 C 203.6403045654297 116.08366394042969 205.5667724609375 117.14266967773438 201.28689575195312 152.098388671875" stroke-width="2.0" fill="rgb(145, 255, 255)" opacity="0.46078655"/>
    <path d="M 180.1813507080078 193.41293334960938 C 187.1313018798828 195.58229064941406 183.1021728515625 194.65403747558594 175.9554443359375 199.53683471679688" stroke-width="2.0" fill="rgb(131, 46, 134)" opacity="0.47632214"/>
    <path d="M 87.0770492553711 107.3324203491211 C 92.8198013305664 122.90028381347656 102.09392547607422 184.9094696044922 75.92205047607422 183.29722595214844" stroke-width="2.0" fill="rgb(49, 50, 50)" opacity="0.93151826"/>
    <path d="M 99.51286315917969 124.26627349853516 C 98.83216094970703 132.28570556640625 93.71686553955078 160.15008544921875 94.22677612304688 168.0514373779297" stroke-width="2.0" fill="rgb(66, 116, 106)" opacity="0.82668114"/>
    <path d="M 157.51678466796875 82.26825714111328 C 167.2567138671875 89.52693176269531 175.96693420410156 107.4246826171875 175.98550415039062 117.44001007080078" stroke-width="2.0" fill="rgb(22, 21, 22)" opacity="0.92925215"/>
    <path d="M 235.94837951660156 9.869800567626953 C 235.1514434814453 13.427428245544434 237.37173461914062 25.149547576904297 240.156982421875 32.38232421875" stroke-width="2.0" fill="rgb(255, 116, 127)" opacity="0.35751477"/>
    <path d="M 118.32646942138672 71.12239837646484 C 134.6502227783203 68.15217590332031 143.3065948486328 162.35145568847656 147.14468383789062 177.305908203125" stroke-width="2.0" fill="rgb(55, 55, 55)" opacity="0.8792934"/>
    <path d="M 235.73760986328125 89.35834503173828 C 232.08291625976562 92.00146484375 236.0013427734375 100.04967498779297 235.9303741455078 95.26431274414062" stroke-width="2.0" fill="rgb(168, 222, 188)" opacity="0.5994486"/>
    <path d="M 97.00370788574219 137.6022186279297 C 112.63265228271484 135.3230743408203 118.98467254638672 130.7822265625 125.23526000976562 132.11239624023438" stroke-width="2.0" fill="rgb(71, 45, 58)" opacity="0.9999378"/>
    <path d="M 39.372745513916016 206.90858459472656 C 13.856826782226562 210.8067169189453 38.97908020019531 215.61029052734375 39.52785110473633 202.20065307617188" stroke-width="2.0" fill="rgb(255, 255, 255)" opacity="1.0"/>
    <path d="M 187.8304901123047 158.9813995361328 C 184.9866485595703 176.42408752441406 188.57994079589844 203.05836486816406 189.23435974121094 180.77493286132812" stroke-width="2.0" fill="rgb(255, 149, 255)" opacity="0.90143335"/>
    <path d="M 186.84332275390625 42.01295852661133 C 212.2207489013672 56.709556579589844 211.82432556152344 88.0981216430664 209.27752685546875 96.77005767822266" stroke-width="2.0" fill="rgb(255, 255, 248)" opacity="0.9511921"/>
    <path d="M 63.21343994140625 94.56352233886719 C 76.30532836914062 136.06582641601562 64.23250579833984 186.3981475830078 36.40359878540039 183.52273559570312" stroke-width="2.0" fill="rgb(232, 222, 217)" opacity="0.21974583"/>
    <path d="M 96.80137634277344 144.33192443847656 C 114.4970474243164 161.7517852783203 107.9544677734375 234.82308959960938 92.75370025634766 213.38330078125" stroke-width="2.0" fill="rgb(53, 53, 53)" opacity="1.0"/>
    <path d="M 95.84605407714844 201.51248168945312 C 143.59136962890625 196.90972900390625 146.61817932128906 204.97804260253906 126.87825775146484 260.5972595214844" stroke-width="2.0" fill="rgb(255, 255, 255)" opacity="1.0"/>
    <path d="M 204.38681030273438 89.12678527832031 C 211.1573944091797 102.36624145507812 201.92578125 123.09561920166016 191.1864776611328 166.936767578125" stroke-width="2.0" fill="rgb(252, 255, 255)" opacity="1.0"/>
    <path d="M 82.50943756103516 -9.362419128417969 C 101.6647720336914 -10.282306671142578 122.15252685546875 -21.250329971313477 117.46253204345703 32.930397033691406" stroke-width="2.0" fill="rgb(255, 255, 255)" opacity="1.0"/>
    <path d="M 38.13362121582031 4.228271007537842 C 50.30159378051758 14.593849182128906 48.21528244018555 49.97697830200195 45.843910217285156 54.805233001708984" stroke-width="2.0" fill="rgb(246, 255, 231)" opacity="0.80412585"/>
    <path d="M 49.65922546386719 15.255248069763184 C 44.359683990478516 25.99245834350586 44.1893424987793 29.940732955932617 54.326866149902344 23.17173194885254" stroke-width="2.0" fill="rgb(123, 242, 174)" opacity="1.0"/>
    <path d="M 62.62002944946289 50.647422790527344 C 45.504661560058594 53.02618408203125 30.37887191772461 63.40214920043945 56.15623092651367 54.043575286865234" stroke-width="2.0" fill="rgb(144, 252, 255)" opacity="0.6329901"/>
    <path d="M 191.067626953125 56.83612823486328 C 174.2048797607422 80.79864501953125 207.48171997070312 83.5830307006836 209.9000244140625 84.6844253540039" stroke-width="2.0" fill="rgb(255, 255, 255)" opacity="0.7484474"/>
    <path d="M 233.673583984375 124.96007537841797 C 236.678466796875 136.3022003173828 237.3505859375 139.70912170410156 235.3694305419922 172.65411376953125" stroke-width="2.0" fill="rgb(180, 255, 117)" opacity="0.8538961"/>
    <path d="M 154.248291015625 81.4964370727539 C 116.40170288085938 77.06417846679688 129.32713317871094 60.64916229248047 147.96826171875 47.608192443847656" stroke-width="2.0" fill="rgb(182, 169, 181)" opacity="0.3279558"/>
    <path d="M 54.301116943359375 140.96939086914062 C 62.13580322265625 137.27207946777344 75.05905151367188 134.96421813964844 76.42279815673828 138.48678588867188" stroke-width="2.0" fill="rgb(195, 184, 212)" opacity="0.83613664"/>
    <path d="M 206.2035675048828 102.89263916015625 C 207.4102783203125 148.8522186279297 204.40476989746094 147.29913330078125 202.35256958007812 144.23446655273438" stroke-width="2.0" fill="rgb(255, 255, 255)" opacity="1.0"/>
    <path d="M 179.33602905273438 169.91607666015625 C 185.3385009765625 179.50033569335938 191.5227813720703 169.05873107910156 192.74366760253906 174.38414001464844" stroke-width="2.0" fill="rgb(98, 182, 210)" opacity="0.84603155"/>
    <path d="M 163.90199279785156 31.481382369995117 C 174.15011596679688 38.51782989501953 183.56773376464844 64.48564147949219 176.9625701904297 72.42451477050781" stroke-width="2.0" fill="rgb(255, 255, 255)" opacity="0.5956735"/>
    <path d="M 43.371498107910156 132.72906494140625 C 55.37085723876953 172.37904357910156 70.79496002197266 196.55316162109375 75.54086303710938 181.78712463378906" stroke-width="2.0" fill="rgb(0, 0, 0)" opacity="1.0"/>
    <path d="M 72.74649810791016 92.43401336669922 C 83.88236236572266 132.1970977783203 74.35794830322266 142.37091064453125 28.028610229492188 162.25259399414062" stroke-width="2.0" fill="rgb(182, 181, 183)" opacity="0.90557086"/>
    <path d="M 147.84703063964844 62.47384262084961 C 167.82460021972656 45.994144439697266 160.35964965820312 78.21184539794922 157.39926147460938 95.5393295288086" stroke-width="2.0" fill="rgb(68, 66, 73)" opacity="0.9928426"/>
    <path d="M 84.8891830444336 214.596923828125 C 87.72317504882812 247.7030792236328 71.8243408203125 246.8936309814453 16.646183013916016 232.4136962890625" stroke-width="2.0" fill="rgb(255, 231, 255)" opacity="0.84131515"/>
    <path d="M 106.1099624633789 100.31575775146484 C 115.16226196289062 136.6891632080078 98.78256225585938 144.85781860351562 107.92962646484375 144.09471130371094" stroke-width="2.0" fill="rgb(63, 77, 64)" opacity="0.7407343"/>
    <path d="M 172.88719177246094 104.58216857910156 C 209.5502471923828 127.18132781982422 223.92787170410156 116.04595947265625 217.21990966796875 14.283088684082031" stroke-width="2.0" fill="rgb(255, 255, 255)" opacity="1.0"/>
    <path d="M 205.6962432861328 -13.72537612915039 C 207.0626678466797 -10.200891494750977 209.3888397216797 -11.314386367797852 213.0702362060547 -10.346829414367676" stroke-width="2.0" fill="rgb(226, 124, 225)" opacity="0.4488311"/>
    <path d="M 36.16216278076172 29.427837371826172 C 42.87453842163086 29.578235626220703 45.790096282958984 29.856937408447266 50.4343147277832 32.66646194458008" stroke-width="2.0" fill="rgb(148, 105, 104)" opacity="0.32476205"/>
    <path d="M 95.13346862792969 142.62374877929688 C 98.25265502929688 174.38778686523438 106.5652847290039 177.36131286621094 129.2933349609375 184.4430389404297" stroke-width="2.0" fill="rgb(53, 53, 53)" opacity="0.81228256"/>
    <path d="M 198.4161376953125 44.06743240356445 C 211.53953552246094 40.46330261230469 221.73648071289062 40.916500091552734 221.62014770507812 44.72639465332031" stroke-width="2.0" fill="rgb(201, 255, 255)" opacity="0.8088735"/>
    <path d="M 171.65060424804688 26.517709732055664 C 178.4314727783203 26.66246795654297 181.5983428955078 12.788782119750977 183.8381805419922 42.3519401550293" stroke-width="2.0" fill="rgb(255, 255, 255)" opacity="1.0"/>
    <path d="M 227.14593505859375 97.81011962890625 C 224.14169311523438 111.36936950683594 221.20211791992188 100.77328491210938 229.62472534179688 99.84683990478516" stroke-width="2.0" fill="rgb(155, 225, 97)" opacity="0.6392263"/>
    <path d="M 124.89948272705078 34.486026763916016 C 124.75624084472656 45.753570556640625 106.7448959350586 126.11563873291016 98.82842254638672 112.78964233398438" stroke-width="2.0" fill="rgb(255, 255, 255)" opacity="1.0"/>
    <path d="M 184.11566162109375 82.4156265258789 C 184.35159301757812 67.86608123779297 182.44912719726562 85.84761810302734 191.0729522705078 93.79598999023438" stroke-width="2.0" fill="rgb(199, 204, 192)" opacity="0.74497616"/>
    <path d="M 70.713623046875 82.87203216552734 C 86.3116683959961 106.76428985595703 82.84109497070312 196.93133544921875 73.86688995361328 176.93460083007812" stroke-width="2.0" fill="rgb(187, 206, 209)" opacity="1.0"/>
    <path d="M 109.83767700195312 195.76292419433594 C 46.658267974853516 208.07899475097656 166.38197326660156 208.65492248535156 170.6011505126953 194.8932342529297" stroke-width="2.0" fill="rgb(39, 39, 38)" opacity="1.0"/>
    <path d="M 157.58963012695312 -31.571731567382812 C 167.23004150390625 -14.198527336120605 164.65699768066406 84.40811920166016 151.8397674560547 78.49410247802734" stroke-width="2.0" fill="rgb(250, 255, 255)" opacity="1.0"/>
    <path d="M 126.79564666748047 180.5377197265625 C 142.7482452392578 182.31036376953125 165.51751708984375 174.1263427734375 170.98684692382812 179.2063751220703" stroke-width="2.0" fill="rgb(84, 86, 95)" opacity="0.3109229"/>
    <path d="M 177.9220733642578 131.65504455566406 C 176.8380584716797 186.74114990234375 171.08372497558594 215.58724975585938 170.5377960205078 207.45021057128906" stroke-width="2.0" fill="rgb(235, 163, 195)" opacity="0.96134764"/>
    <path d="M 198.43833923339844 101.52706146240234 C 200.65635681152344 124.41439819335938 199.20700073242188 153.8979949951172 198.72689819335938 147.11712646484375" stroke-width="2.0" fill="rgb(212, 255, 253)" opacity="0.46985775"/>
    <path d="M 199.58937072753906 125.59508514404297 C 208.5360870361328 134.60794067382812 202.14788818359375 172.43112182617188 201.95968627929688 174.44149780273438" stroke-width="2.0" fill="rgb(141, 255, 200)" opacity="0.5713487"/>
    <path d="M 53.21314239501953 59.22412872314453 C 137.631591796875 73.86576843261719 143.6947021484375 62.38357162475586 150.7041015625 56.99697494506836" stroke-width="2.0" fill="rgb(255, 255, 255)" opacity="1.0"/>
    <path d="M 96.83462524414062 132.02674865722656 C 99.88754272460938 143.2335205078125 100.80400848388672 144.18276977539062 96.2976303100586 156.8621368408203" stroke-width="2.0" fill="rgb(30, 29, 30)" opacity="0.7438104"/>
    <path d="M 59.13398742675781 228.49118041992188 C 52.55024337768555 238.7958526611328 84.10292053222656 233.6616668701172 89.10187530517578 231.3145294189453" stroke-width="2.0" fill="rgb(159, 251, 255)" opacity="0.55183756"/>
    <path d="M 36.61634063720703 97.75516510009766 C 77.4822998046875 69.10021209716797 81.46298217773438 56.9796257019043 75.7244873046875 4.718730449676514" stroke-width="2.0" fill="rgb(255, 255, 255)" opacity="1.0"/>
    <path d="M 43.9470100402832 49.460906982421875 C 39.800682067871094 56.23198318481445 40.26600646972656 65.18150329589844 42.1515007019043 66.05937957763672" stroke-width="2.0" fill="rgb(255, 208, 210)" opacity="0.34527832"/>
    <path d="M -28.202484130859375 213.0467071533203 C -31.87858772277832 225.3353271484375 53.93204879760742 225.5767059326172 49.874176025390625 214.4923858642578" stroke-width="2.0" fill="rgb(255, 255, 255)" opacity="1.0"/>
    <path d="M 136.67446899414062 129.855224609375 C 144.1522979736328 146.07681274414062 156.81301879882812 133.75100708007812 165.04356384277344 124.41248321533203" stroke-width="2.0" fill="rgb(0, 21, 5)" opacity="1.0"/>
    <path d="M 175.0778045654297 111.0589370727539 C 176.96835327148438 114.8371810913086 178.9691619873047 163.4327392578125 176.45559692382812 188.6334686279297" stroke-width="2.0" fill="rgb(228, 201, 231)" opacity="0.7096612"/>
    <path d="M 79.21891784667969 93.02767944335938 C 83.49431610107422 91.27122497558594 86.86703491210938 98.92453002929688 92.32146453857422 108.15223693847656" stroke-width="2.0" fill="rgb(169, 146, 120)" opacity="0.9486941"/>
    <path d="M 94.88634490966797 69.66075897216797 C 89.994140625 81.33660888671875 96.05429077148438 78.11339569091797 97.66451263427734 77.1283950805664" stroke-width="2.0" fill="rgb(237, 170, 155)" opacity="0.9735235"/>
    <path d="M 176.31605529785156 -22.699522018432617 C 193.15074157714844 -22.398242950439453 198.3935089111328 3.180626392364502 194.43914794921875 28.10582733154297" stroke-width="2.0" fill="rgb(255, 255, 255)" opacity="1.0"/>
    <path d="M 182.3253631591797 -5.126575469970703 C 177.30455017089844 35.45671081542969 157.63064575195312 78.49272918701172 152.25474548339844 59.05353546142578" stroke-width="2.0" fill="rgb(254, 254, 254)" opacity="1.0"/>
    <path d="M 195.42929077148438 32.24736404418945 C 192.2534637451172 39.773624420166016 186.0717315673828 44.99366760253906 191.23721313476562 40.03081512451172" stroke-width="2.0" fill="rgb(255, 255, 192)" opacity="0.43489608"/>
    <path d="M 231.40866088867188 112.55207061767578 C 235.95724487304688 117.13679504394531 232.84890747070312 124.23843383789062 232.12034606933594 121.17121124267578" stroke-width="2.0" fill="rgb(175, 159, 229)" opacity="0.3589401"/>
    <path d="M 170.41390991210938 135.3629150390625 C 170.24826049804688 164.8895721435547 167.9324951171875 181.66217041015625 167.9109344482422 193.2904052734375" stroke-width="2.0" fill="rgb(211, 183, 182)" opacity="0.9486725"/>
    <path d="M 182.59048461914062 65.39282989501953 C 188.5765838623047 69.86096954345703 190.03311157226562 87.0272445678711 194.88363647460938 94.68470764160156" stroke-width="2.0" fill="rgb(255, 255, 255)" opacity="0.9714337"/>
    <path d="M 231.2660369873047 63.50056076049805 C 235.2585906982422 70.57150268554688 238.7649688720703 67.9021224975586 231.22474670410156 77.189208984375" stroke-width="2.0" fill="rgb(206, 226, 152)" opacity="0.7175256"/>
    <path d="M 41.05504608154297 9.821598052978516 C 40.05937194824219 17.407970428466797 47.80708312988281 25.425138473510742 48.92155838012695 28.19605827331543" stroke-width="2.0" fill="rgb(142, 119, 135)" opacity="0.46353373"/>
    <path d="M 48.83846664428711 183.74050903320312 C 63.167381286621094 192.1139678955078 62.54050064086914 240.21856689453125 40.09223556518555 238.1314239501953" stroke-width="2.0" fill="rgb(255, 255, 255)" opacity="1.0"/>
    <path d="M 57.31227493286133 195.69300842285156 C 78.77215576171875 203.30877685546875 102.98609924316406 231.3721160888672 94.01853942871094 230.08848571777344" stroke-width="2.0" fill="rgb(255, 227, 238)" opacity="0.8481887"/>
    <path d="M 133.858642578125 133.59829711914062 C 120.28606414794922 152.44862365722656 116.93250274658203 150.33383178710938 127.68757629394531 144.7064971923828" stroke-width="2.0" fill="rgb(71, 57, 71)" opacity="0.912076"/>
    <path d="M 210.770751953125 98.72610473632812 C 229.87393188476562 95.13289642333984 238.13534545898438 90.13270568847656 229.80123901367188 147.5905303955078" stroke-width="2.0" fill="rgb(255, 255, 251)" opacity="0.32339287"/>
    <path d="M 72.09445190429688 23.701248168945312 C 75.63504028320312 31.187488555908203 66.95003509521484 51.78478240966797 57.22570037841797 86.71263885498047" stroke-width="2.0" fill="rgb(247, 248, 247)" opacity="0.78711045"/>
    <path d="M 172.0035858154297 161.7553253173828 C 191.96957397460938 171.57916259765625 190.856201171875 157.63014221191406 191.19444274902344 107.40670013427734" stroke-width="2.0" fill="rgb(232, 231, 231)" opacity="0.8800511"/>
    <path d="M 39.183536529541016 137.44546508789062 C 32.45622634887695 175.9929656982422 70.08014678955078 191.42428588867188 75.93526458740234 175.86346435546875" stroke-width="2.0" fill="rgb(253, 253, 253)" opacity="0.9933556"/>
    <path d="M 98.74485778808594 219.86920166015625 C 96.76786041259766 232.43072509765625 89.85623931884766 234.51254272460938 50.092071533203125 223.63597106933594" stroke-width="2.0" fill="rgb(255, 255, 255)" opacity="1.0"/>
    <path d="M 204.16470336914062 166.46055603027344 C 209.0009002685547 166.4810791015625 214.7030792236328 173.80908203125 207.451904296875 213.93226623535156" stroke-width="2.0" fill="rgb(220, 238, 255)" opacity="0.6674077"/>
    <path d="M 163.7859344482422 203.1702117919922 C 168.1630096435547 219.26327514648438 175.1256866455078 224.52781677246094 168.67050170898438 230.31158447265625" stroke-width="2.0" fill="rgb(181, 163, 146)" opacity="0.99936885"/>
    <path d="M 46.240966796875 85.41368103027344 C 69.06926727294922 115.26879119873047 93.29475402832031 96.74691009521484 113.98819732666016 61.52140426635742" stroke-width="2.0" fill="rgb(140, 82, 162)" opacity="1.0"/>
    <path d="M 85.31098175048828 113.57913970947266 C 89.0206069946289 128.1529998779297 97.15934753417969 118.33464050292969 94.258056640625 113.5098648071289" stroke-width="2.0" fill="rgb(90, 102, 64)" opacity="0.7730861"/>
    <path d="M 65.6281509399414 152.4978790283203 C 44.96340560913086 152.7150421142578 49.35680389404297 170.11825561523438 76.17105102539062 180.1060791015625" stroke-width="2.0" fill="rgb(90, 65, 80)" opacity="0.5652452"/>
    <path d="M 224.2627410888672 169.6526336669922 C 231.0226593017578 231.84657287597656 222.7624969482422 228.42489624023438 219.45176696777344 226.3345489501953" stroke-width="2.0" fill="rgb(174, 195, 255)" opacity="0.50829583"/>
    <path d="M 139.96347045898438 111.54119873046875 C 147.2665252685547 110.10035705566406 157.3862762451172 92.63528442382812 164.48638916015625 81.0230484008789" stroke-width="2.0" fill="rgb(23, 0, 17)" opacity="0.7676091"/>
    <path d="M 160.87449645996094 45.94095993041992 C 167.255859375 59.19809341430664 166.6636505126953 61.30067443847656 167.80606079101562 65.30990600585938" stroke-width="2.0" fill="rgb(81, 81, 81)" opacity="0.9829837"/>
    <path d="M 156.0773162841797 100.20706176757812 C 162.09678649902344 101.35107421875 165.5991973876953 100.23546600341797 161.4889373779297 110.8267822265625" stroke-width="2.0" fill="rgb(132, 150, 105)" opacity="0.87893176"/>
    <path d="M 90.71857452392578 127.84336853027344 C 90.01171875 132.1173553466797 88.47527313232422 130.32020568847656 89.80912017822266 135.63888549804688" stroke-width="2.0" fill="rgb(161, 151, 201)" opacity="0.9900917"/>
    <path d="M 87.35877227783203 107.32176971435547 C 104.28963470458984 114.51531219482422 107.5384521484375 117.7015151977539 100.724365234375 123.4755859375" stroke-width="2.0" fill="rgb(0, 0, 0)" opacity="1.0"/>
    <path d="M 87.76885223388672 115.9313735961914 C 90.21410369873047 145.98548889160156 81.87939453125 194.60972595214844 68.71442413330078 188.8787078857422" stroke-width="2.0" fill="rgb(234, 234, 234)" opacity="0.92114764"/>
    <path d="M 81.68057250976562 47.44007873535156 C 49.1607551574707 58.55421829223633 107.65491485595703 66.68115234375 102.0569076538086 59.072635650634766" stroke-width="2.0" fill="rgb(255, 254, 254)" opacity="0.8213678"/>
    <path d="M 106.21047973632812 67.21206665039062 C 114.97911071777344 71.06307220458984 126.1575927734375 71.2195053100586 124.02549743652344 161.37786865234375" stroke-width="2.0" fill="rgb(52, 51, 53)" opacity="0.8004767"/>
    <path d="M 94.76084899902344 70.14109802246094 C 106.27903747558594 68.09687805175781 158.20892333984375 64.89984893798828 159.12196350097656 55.7010612487793" stroke-width="2.0" fill="rgb(131, 121, 175)" opacity="1.0"/>
    <path d="M 56.273582458496094 136.60899353027344 C 69.18841552734375 161.77810668945312 77.0206069946289 197.92140197753906 80.92893981933594 206.12059020996094" stroke-width="2.0" fill="rgb(140, 142, 144)" opacity="0.6857285"/>
    <path d="M 121.9072036743164 226.94712829589844 C 149.34771728515625 251.07237243652344 161.86997985839844 231.2973175048828 177.85182189941406 209.6535186767578" stroke-width="2.0" fill="rgb(207, 194, 190)" opacity="0.4021776"/>
    <path d="M 232.36351013183594 149.31472778320312 C 236.68740844726562 154.85069274902344 230.51039123535156 161.2213897705078 226.4459228515625 172.31820678710938" stroke-width="2.0" fill="rgb(213, 110, 242)" opacity="0.3475509"/>
    <path d="M 232.7835235595703 235.49423217773438 C 197.9913787841797 236.52316284179688 227.34239196777344 239.17140197753906 235.3730010986328 231.95460510253906" stroke-width="2.0" fill="rgb(249, 208, 255)" opacity="1.0"/>
    <path d="M 234.80569458007812 141.36004638671875 C 234.4160919189453 157.94845581054688 239.86512756347656 167.53680419921875 232.50633239746094 168.1802520751953" stroke-width="2.0" fill="rgb(204, 255, 114)" opacity="0.5749617"/>
    <path d="M 121.3936538696289 117.84967041015625 C 120.79036712646484 116.26145935058594 121.8411636352539 113.20243072509766 143.24961853027344 109.2383041381836" stroke-width="2.0" fill="rgb(181, 110, 117)" opacity="0.5247973"/>
    <path d="M 233.2273712158203 33.39250946044922 C 238.27171325683594 35.217742919921875 235.49295043945312 38.912925720214844 235.7781219482422 81.33657836914062" stroke-width="2.0" fill="rgb(255, 255, 81)" opacity="0.30775273"/>
    <path d="M 133.3598175048828 176.107666015625 C 128.71881103515625 177.30429077148438 126.10203552246094 175.25241088867188 137.54342651367188 180.74256896972656" stroke-width="2.0" fill="rgb(47, 47, 47)" opacity="0.93496335"/>
    <path d="M 193.446533203125 48.193546295166016 C 197.30320739746094 47.83842468261719 196.6808624267578 57.39397048950195 194.0215606689453 57.72568130493164" stroke-width="2.0" fill="rgb(255, 91, 232)" opacity="0.323738"/>
    <path d="M 233.62338256835938 -1.0863723754882812 C 231.02676391601562 32.225616455078125 231.4699249267578 45.59390640258789 239.08053588867188 48.07663345336914" stroke-width="2.0" fill="rgb(253, 156, 255)" opacity="1.0"/>
    <path d="M 83.59210205078125 64.41600036621094 C 86.93000030517578 68.93777465820312 166.0487060546875 61.978416442871094 160.92935180664062 51.39943313598633" stroke-width="2.0" fill="rgb(255, 255, 245)" opacity="0.95844156"/>
    <path d="M 194.33619689941406 104.75300598144531 C 200.04978942871094 112.83502197265625 198.74478149414062 124.13311004638672 202.5612030029297 132.36231994628906" stroke-width="2.0" fill="rgb(255, 221, 255)" opacity="0.5012897"/>
    <path d="M 119.17645263671875 123.53255462646484 C 128.81304931640625 130.1007537841797 139.9986572265625 127.15660095214844 137.52870178222656 152.54275512695312" stroke-width="2.0" fill="rgb(39, 39, 40)" opacity="0.70534605"/>
    <path d="M 20.893310546875 207.62631225585938 C 31.933374404907227 210.62216186523438 25.57904052734375 242.64593505859375 3.3440632820129395 231.71279907226562" stroke-width="2.0" fill="rgb(251, 255, 255)" opacity="0.94205225"/>
    <path d="M 32.99140930175781 -17.190555572509766 C 53.727970123291016 -16.669692993164062 67.72933197021484 -22.054716110229492 59.113197326660156 51.641395568847656" stroke-width="2.0" fill="rgb(255, 255, 255)" opacity="1.0"/>
    <path d="M 234.55068969726562 211.0207061767578 C 244.12551879882812 226.5395050048828 243.6771240234375 234.63412475585938 200.49676513671875 225.06011962890625" stroke-width="2.0" fill="rgb(218, 255, 241)" opacity="0.6581738"/>
    <path d="M 85.25199890136719 136.46507263183594 C 95.03630828857422 149.20028686523438 97.12016296386719 132.98353576660156 84.68794250488281 162.1986846923828" stroke-width="2.0" fill="rgb(254, 254, 255)" opacity="0.9963119"/>
    <path d="M 83.968505859375 138.4283447265625 C 83.75173950195312 133.742431640625 83.8290023803711 152.87828063964844 82.80018615722656 170.12924194335938" stroke-width="2.0" fill="rgb(255, 253, 249)" opacity="0.9994365"/>
    <path d="M 214.4735107421875 182.25148010253906 C 220.504150390625 187.58773803710938 218.57867431640625 193.21189880371094 219.01600646972656 196.70355224609375" stroke-width="2.0" fill="rgb(255, 255, 228)" opacity="0.35772613"/>
    <path d="M 158.3981475830078 65.66800689697266 C 177.14085388183594 60.627567291259766 165.55117797851562 71.85356903076172 159.01776123046875 133.90696716308594" stroke-width="2.0" fill="rgb(72, 73, 75)" opacity="0.955969"/>
    <path d="M 213.18890380859375 122.32305145263672 C 217.9232940673828 156.2223663330078 210.54808044433594 175.05697631835938 170.99099731445312 179.2715301513672" stroke-width="2.0" fill="rgb(255, 254, 254)" opacity="0.8157887"/>
    <path d="M 89.57518005371094 121.47521209716797 C 94.38514709472656 184.8869171142578 61.634891510009766 164.7079315185547 39.92670822143555 186.25527954101562" stroke-width="2.0" fill="rgb(255, 255, 255)" opacity="0.26912"/>
    <path d="M 4.093373775482178 204.87583923339844 C -46.77556610107422 222.17066955566406 68.42498016357422 215.67047119140625 71.27629089355469 204.9425506591797" stroke-width="2.0" fill="rgb(255, 255, 255)" opacity="1.0"/>
    <path d="M 202.85617065429688 151.82176208496094 C 203.87806701660156 153.5994110107422 210.06924438476562 155.4185333251953 214.20648193359375 159.64303588867188" stroke-width="2.0" fill="rgb(64, 247, 233)" opacity="0.9872608"/>
    <path d="M 44.90232849121094 159.34719848632812 C 74.64009857177734 136.722900390625 61.02610778808594 92.4377670288086 51.47392654418945 21.92447853088379" stroke-width="2.0" fill="rgb(252, 252, 252)" opacity="0.99744296"/>
    <path d="M 225.00921630859375 10.29617691040039 C 237.59146118164062 14.524361610412598 238.54676818847656 35.751502990722656 237.16720581054688 93.99281311035156" stroke-width="2.0" fill="rgb(255, 255, 233)" opacity="0.64101136"/>
    <path d="M 158.13624572753906 236.88491821289062 C 223.1007843017578 242.85787963867188 229.16415405273438 237.37442016601562 220.45005798339844 180.77926635742188" stroke-width="2.0" fill="rgb(255, 255, 255)" opacity="1.0"/>
    <path d="M 60.06395721435547 89.53314208984375 C 68.85320281982422 96.234619140625 65.58714294433594 103.55992126464844 63.546302795410156 112.85741424560547" stroke-width="2.0" fill="rgb(255, 255, 255)" opacity="0.8625416"/>
    <path d="M 91.98878479003906 133.7607421875 C 102.28568267822266 147.30111694335938 94.10971069335938 145.6070098876953 76.57953643798828 136.7231903076172" stroke-width="2.0" fill="rgb(39, 32, 31)" opacity="1.0"/>
    <path d="M 205.93426513671875 37.65430450439453 C 219.57351684570312 34.763099670410156 221.767822265625 98.87353515625 207.5141143798828 108.3300552368164" stroke-width="2.0" fill="rgb(255, 255, 255)" opacity="0.9817427"/>
    <path d="M 190.17665100097656 17.884550094604492 C 211.78736877441406 25.08501625061035 203.1515655517578 57.381160736083984 190.8151397705078 76.56575012207031" stroke-width="2.0" fill="rgb(255, 255, 255)" opacity="0.68846285"/>
    <path d="M 50.35980224609375 175.8018035888672 C 75.37637329101562 202.83543395996094 91.79327392578125 181.59295654296875 77.01872253417969 210.42660522460938" stroke-width="2.0" fill="rgb(255, 255, 255)" opacity="1.0"/>
    <path d="M 43.7801628112793 222.2906951904297 C 17.879215240478516 235.3832550048828 82.96182250976562 239.56369018554688 77.12456512451172 234.190673828125" stroke-width="2.0" fill="rgb(255, 246, 254)" opacity="0.77541333"/>
    <path d="M 49.03875732421875 141.64849853515625 C 42.6326789855957 150.4026336669922 23.899770736694336 115.09810638427734 50.92802810668945 101.35902404785156" stroke-width="2.0" fill="rgb(255, 255, 255)" opacity="1.0"/>
    <path d="M 152.98854064941406 -34.330135345458984 C 162.034912109375 52.18458557128906 152.1577911376953 89.57185363769531 115.76866912841797 57.15730667114258" stroke-width="2.0" fill="rgb(255, 255, 254)" opacity="1.0"/>
    <path d="M 185.18670654296875 224.97430419921875 C 185.7738037109375 230.22247314453125 191.59901428222656 232.08909606933594 194.5142822265625 234.2832489013672" stroke-width="2.0" fill="rgb(36, 181, 20)" opacity="0.60530645"/>
    <path d="M 172.0081329345703 188.43922424316406 C 168.19161987304688 199.09727478027344 171.5378875732422 196.42076110839844 168.3623504638672 235.54148864746094" stroke-width="2.0" fill="rgb(255, 255, 165)" opacity="0.53989226"/>
    <path d="M 94.21371459960938 54.33283996582031 C 109.15325164794922 78.85142517089844 146.07066345214844 65.01568603515625 145.56788635253906 101.45540618896484" stroke-width="2.0" fill="rgb(112, 108, 113)" opacity="0.5731697"/>
    <path d="M 234.91168212890625 205.53977966308594 C 234.64695739746094 218.5567169189453 238.76422119140625 227.42251586914062 230.0983428955078 230.56625366210938" stroke-width="2.0" fill="rgb(118, 147, 115)" opacity="0.2843217"/>
    <path d="M 70.38890838623047 11.407023429870605 C 78.9011459350586 17.73782730102539 72.75501251220703 19.042953491210938 70.90098571777344 19.90892219543457" stroke-width="2.0" fill="rgb(255, 255, 255)" opacity="0.7493511"/>
    <path d="M 132.81686401367188 165.38706970214844 C 131.36837768554688 164.09750366210938 135.4973907470703 166.1548614501953 137.5163116455078 173.60464477539062" stroke-width="2.0" fill="rgb(67, 67, 65)" opacity="0.5683955"/>
    <path d="M 73.76056671142578 194.22207641601562 C 86.81574249267578 210.0829315185547 109.03919982910156 195.1819305419922 100.49388122558594 220.1468963623047" stroke-width="2.0" fill="rgb(255, 255, 255)" opacity="1.0"/>
    <path d="M 44.13931655883789 58.470741271972656 C 37.794639587402344 109.14352416992188 54.248985290527344 132.8885498046875 49.599700927734375 147.58648681640625" stroke-width="2.0" fill="rgb(255, 255, 240)" opacity="0.85387"/>
    <path d="M 29.53180503845215 217.29934692382812 C -47.827857971191406 199.54214477539062 0.7809343934059143 218.37484741210938 54.78883361816406 216.3195037841797" stroke-width="2.0" fill="rgb(255, 255, 255)" opacity="1.0"/>
    <path d="M 223.8985137939453 68.17697143554688 C 234.06655883789062 67.19306182861328 231.26922607421875 70.63621520996094 236.66989135742188 70.71578979492188" stroke-width="2.0" fill="rgb(189, 255, 255)" opacity="0.51538527"/>
    <path d="M 174.1073455810547 122.80961608886719 C 171.53173828125 155.5155487060547 156.92723083496094 213.38047790527344 166.5306396484375 231.31918334960938" stroke-width="2.0" fill="rgb(218, 218, 233)" opacity="0.73269486"/>
    <path d="M 230.76454162597656 122.25688171386719 C 234.9105987548828 132.08958435058594 236.8060302734375 133.60284423828125 237.46798706054688 137.73614501953125" stroke-width="2.0" fill="rgb(116, 239, 255)" opacity="0.99947315"/>
    <path d="M 151.68995666503906 232.28369140625 C 153.32237243652344 239.5131072998047 195.2436981201172 237.3689727783203 201.25474548339844 234.4951934814453" stroke-width="2.0" fill="rgb(103, 253, 255)" opacity="0.4857502"/>
    <path d="M 141.72311401367188 65.67804718017578 C 170.11849975585938 33.38442611694336 159.56442260742188 22.766357421875 152.849853515625 114.16927337646484" stroke-width="2.0" fill="rgb(15, 15, 17)" opacity="0.7676355"/>
    <path d="M 232.8812255859375 69.02981567382812 C 233.39842224121094 80.25875091552734 223.78062438964844 131.56112670898438 208.4763946533203 127.41564178466797" stroke-width="2.0" fill="rgb(255, 255, 255)" opacity="1.0"/>
    <path d="M 234.83612060546875 81.15580749511719 C 242.47537231445312 91.65167236328125 233.15264892578125 96.92636108398438 239.053466796875 95.08958435058594" stroke-width="2.0" fill="rgb(255, 221, 202)" opacity="0.92035425"/>
    <path d="M 164.5271759033203 118.47837829589844 C 171.151611328125 112.2980728149414 173.36404418945312 171.839111328125 167.86651611328125 221.34805297851562" stroke-width="2.0" fill="rgb(172, 189, 203)" opacity="0.60439914"/>
    <path d="M 178.10760498046875 50.88494873046875 C 185.11459350585938 73.37863159179688 183.6073455810547 76.29959869384766 190.84999084472656 79.62881469726562" stroke-width="2.0" fill="rgb(255, 254, 235)" opacity="0.2611533"/>
    <path d="M 41.04490280151367 44.73305130004883 C 47.52277374267578 50.21002960205078 37.74828338623047 97.54896545410156 40.465171813964844 88.32844543457031" stroke-width="2.0" fill="rgb(255, 233, 255)" opacity="0.22739275"/>
    <path d="M 233.21652221679688 11.826044082641602 C 237.76126098632812 14.758951187133789 235.8092803955078 31.329824447631836 239.90093994140625 40.66022491455078" stroke-width="2.0" fill="rgb(255, 255, 171)" opacity="1.0"/>
    <path d="M 81.30004119873047 55.20033264160156 C 85.05873107910156 97.49504089355469 82.94345092773438 124.61332702636719 75.95539093017578 127.526123046875" stroke-width="2.0" fill="rgb(120, 115, 103)" opacity="1.0"/>
    <path d="M 52.47101593017578 158.3375244140625 C 54.20659637451172 164.3780975341797 58.07041931152344 169.53927612304688 64.34883880615234 176.05474853515625" stroke-width="2.0" fill="rgb(45, 45, 45)" opacity="0.9914432"/>
    <path d="M 157.90235900878906 26.207799911499023 C 163.6583709716797 69.126708984375 169.75204467773438 135.7148895263672 170.71473693847656 138.5748291015625" stroke-width="2.0" fill="rgb(40, 37, 42)" opacity="0.84066457"/>
    <path d="M 167.91346740722656 166.216552734375 C 174.6306915283203 170.5621337890625 169.5812530517578 217.14453125 167.40072631835938 246.351806640625" stroke-width="2.0" fill="rgb(255, 255, 255)" opacity="1.0"/>
    <path d="M 202.3037567138672 186.92269897460938 C 221.4896697998047 203.63275146484375 216.1428680419922 235.65330505371094 210.95498657226562 241.2693328857422" stroke-width="2.0" fill="rgb(255, 255, 255)" opacity="0.9573171"/>
    <path d="M 234.25732421875 135.2939453125 C 241.91714477539062 140.61538696289062 233.4698944091797 139.59591674804688 235.0841522216797 142.18252563476562" stroke-width="2.0" fill="rgb(117, 188, 129)" opacity="0.2636703"/>
    <path d="M 236.28431701660156 89.30947875976562 C 238.77001953125 105.27894592285156 238.9442901611328 156.62472534179688 230.01271057128906 150.93067932128906" stroke-width="2.0" fill="rgb(134, 218, 249)" opacity="0.9326141"/>
    <path d="M 231.86854553222656 158.6487274169922 C 250.99029541015625 197.07186889648438 244.08587646484375 214.59230041503906 202.25338745117188 205.5001220703125" stroke-width="2.0" fill="rgb(255, 230, 255)" opacity="0.5921458"/>
    <path d="M 71.88751983642578 -16.91659927368164 C 99.29705810546875 -29.481081008911133 111.74065399169922 58.23837661743164 110.77674865722656 69.9670639038086" stroke-width="2.0" fill="rgb(253, 253, 253)" opacity="0.97773963"/>
    <path d="M 81.02251434326172 193.4619140625 C 85.62245178222656 191.43658447265625 82.04209899902344 201.99427795410156 101.96952056884766 204.79173278808594" stroke-width="2.0" fill="rgb(255, 255, 255)" opacity="0.9994021"/>
    <path d="M 207.49269104003906 162.80712890625 C 208.13084411621094 169.29356384277344 213.4969024658203 162.9618682861328 219.89553833007812 167.7364044189453" stroke-width="2.0" fill="rgb(255, 255, 214)" opacity="0.8274878"/>
    <path d="M 176.90884399414062 195.92440795898438 C 216.49456787109375 202.8934326171875 226.01747131347656 189.3819122314453 228.7703094482422 142.60435485839844" stroke-width="2.0" fill="rgb(255, 165, 157)" opacity="0.4066782"/>
    <path d="M 69.11564636230469 132.55088806152344 C 154.72640991210938 173.4006805419922 183.74696350097656 113.59506225585938 137.99307250976562 67.31316375732422" stroke-width="2.0" fill="rgb(57, 59, 54)" opacity="0.92468274"/>
    <path d="M 103.9503402709961 75.12168884277344 C 104.5564193725586 87.39361572265625 107.67272186279297 93.23574829101562 114.86337280273438 96.58999633789062" stroke-width="2.0" fill="rgb(61, 60, 63)" opacity="0.62570494"/>
    <path d="M 123.3476791381836 213.2428436279297 C 144.50155639648438 214.99253845214844 168.32037353515625 133.20570373535156 168.64633178710938 200.75775146484375" stroke-width="2.0" fill="rgb(251, 251, 251)" opacity="0.94796747"/>
    <path d="M 122.7901840209961 238.62701416015625 C 128.86585998535156 243.53858947753906 182.59326171875 236.75621032714844 173.6532745361328 218.14297485351562" stroke-width="2.0" fill="rgb(255, 255, 255)" opacity="1.0"/>
    <path d="M 191.20301818847656 200.3243408203125 C 137.51449584960938 233.38624572753906 124.9701919555664 242.82594299316406 169.49789428710938 216.05174255371094" stroke-width="2.0" fill="rgb(237, 243, 238)" opacity="0.94648695"/>
    <path d="M 166.79519653320312 76.3710708618164 C 158.90199279785156 75.84790802001953 167.9656219482422 80.84786987304688 183.96060180664062 96.42037963867188" stroke-width="2.0" fill="rgb(255, 245, 245)" opacity="0.012217957"/>
    <path d="M 141.6985626220703 202.86703491210938 C 141.26828002929688 214.21969604492188 74.43669891357422 198.92514038085938 34.88656234741211 208.05760192871094" stroke-width="2.0" fill="rgb(106, 97, 96)" opacity="0.35341188"/>
    <path d="M 225.1146697998047 182.3015899658203 C 234.78436279296875 179.08160400390625 237.26718139648438 185.487548828125 233.84686279296875 215.67303466796875" stroke-width="2.0" fill="rgb(84, 100, 74)" opacity="0.79668087"/>
    <path d="M 146.7506103515625 82.30198669433594 C 167.58642578125 62.64811325073242 172.09681701660156 82.95941162109375 163.1591339111328 176.75880432128906" stroke-width="2.0" fill="rgb(190, 197, 171)" opacity="0.24764457"/>
    <path d="M 69.63358306884766 93.92782592773438 C 113.33003997802734 74.51466369628906 141.19224548339844 69.67386627197266 131.274658203125 66.7354965209961" stroke-width="2.0" fill="rgb(29, 29, 33)" opacity="0.8150337"/>
    <path d="M 227.16128540039062 136.82012939453125 C 241.93194580078125 192.35084533691406 237.73782348632812 221.5337677001953 170.2981719970703 201.1549072265625" stroke-width="2.0" fill="rgb(255, 255, 255)" opacity="1.0"/>
    <path d="M 225.48428344726562 25.61402130126953 C 230.57984924316406 38.07221603393555 228.8900909423828 42.1641960144043 230.35581970214844 66.7090835571289" stroke-width="2.0" fill="rgb(160, 255, 214)" opacity="0.4233339"/>
    <path d="M 178.24911499023438 142.6205291748047 C 187.08706665039062 151.805908203125 181.0278778076172 176.25262451171875 182.89794921875 183.99729919433594" stroke-width="2.0" fill="rgb(225, 255, 244)" opacity="0.29193467"/>
    <path d="M 148.33349609375 68.88056182861328 C 140.8072052001953 53.89751434326172 169.72935485839844 39.582977294921875 151.73043823242188 62.7776985168457" stroke-width="2.0" fill="rgb(0, 0, 0)" opacity="0.6206372"/>
    <path d="M 80.9395523071289 67.68240356445312 C 96.37657928466797 83.82152557373047 96.10153198242188 57.286949157714844 132.94161987304688 61.06970977783203" stroke-width="2.0" fill="rgb(254, 254, 254)" opacity="0.97067356"/>
    <path d="M 187.66412353515625 32.77219009399414 C 200.25604248046875 32.27417755126953 197.80133056640625 30.339324951171875 204.3013916015625 32.61264419555664" stroke-width="2.0" fill="rgb(219, 255, 203)" opacity="0.3436324"/>
    <path d="M 159.643310546875 150.68804931640625 C 176.54100036621094 149.9588623046875 244.3590545654297 141.2400360107422 237.1150665283203 88.54862976074219" stroke-width="2.0" fill="rgb(255, 251, 255)" opacity="0.0"/>
    <path d="M 189.32843017578125 4.983371734619141 C 176.78701782226562 14.1826171875 179.20950317382812 33.259986877441406 148.73562622070312 56.97922897338867" stroke-width="2.0" fill="rgb(254, 254, 254)" opacity="0.9890288"/>
    <path d="M 229.6488800048828 163.49954223632812 C 234.88314819335938 169.66639709472656 238.751708984375 186.27842712402344 234.87847900390625 217.7489471435547" stroke-width="2.0" fill="rgb(255, 182, 255)" opacity="0.641488"/>
    <path d="M 199.43040466308594 156.15965270996094 C 208.8221893310547 159.3785400390625 213.8726348876953 169.67059326171875 221.82553100585938 163.27708435058594" stroke-width="2.0" fill="rgb(225, 255, 247)" opacity="0.18457049"/>
    <path d="M 209.2523651123047 34.236473083496094 C 219.4898681640625 59.44512939453125 219.25413513183594 78.23403930664062 212.72482299804688 91.91619110107422" stroke-width="2.0" fill="rgb(255, 255, 245)" opacity="0.3583935"/>
    <path d="M 152.34678649902344 136.240478515625 C 185.91949462890625 104.66059112548828 172.53257751464844 144.74468994140625 173.9390869140625 180.87225341796875" stroke-width="2.0" fill="rgb(254, 254, 254)" opacity="0.9979098"/>
    <path d="M 192.9459991455078 211.042724609375 C 199.1500244140625 210.98101806640625 199.56036376953125 211.13558959960938 207.85562133789062 210.98670959472656" stroke-width="2.0" fill="rgb(112, 162, 239)" opacity="0.43868378"/>
    <path d="M 232.95330810546875 116.36674499511719 C 239.53233337402344 122.45317077636719 234.12353515625 128.203369140625 234.38636779785156 134.5400390625" stroke-width="2.0" fill="rgb(114, 107, 255)" opacity="0.60141975"/>
    <path d="M 237.10610961914062 135.6262969970703 C 246.498779296875 169.51504516601562 232.87823486328125 158.55516052246094 219.528076171875 131.54852294921875" stroke-width="2.0" fill="rgb(232, 167, 212)" opacity="0.32068485"/>
    <path d="M 37.03779602050781 139.21595764160156 C 56.103946685791016 114.90435791015625 52.96550369262695 176.48974609375 40.7625846862793 163.56936645507812" stroke-width="2.0" fill="rgb(50, 50, 50)" opacity="0.93691564"/>
    <path d="M 62.6201057434082 233.3126220703125 C 59.1716423034668 241.0029296875 67.4923324584961 233.19952392578125 67.18946075439453 233.40431213378906" stroke-width="2.0" fill="rgb(126, 107, 64)" opacity="0.63578016"/>
    <path d="M 10.562163352966309 224.99940490722656 C 19.875274658203125 234.2639923095703 15.402623176574707 228.3036651611328 11.91423511505127 234.81793212890625" stroke-width="2.0" fill="rgb(108, 215, 175)" opacity="0.46933007"/>
    <path d="M 234.0935516357422 74.47705078125 C 241.9044189453125 80.3913803100586 231.71337890625 85.0867919921875 239.44650268554688 87.64803314208984" stroke-width="2.0" fill="rgb(94, 235, 105)" opacity="0.572636"/>
    <path d="M 194.14756774902344 -18.777786254882812 C 218.1387939453125 -19.62525177001953 229.1395263671875 -9.607625961303711 215.52317810058594 53.81174087524414" stroke-width="2.0" fill="rgb(255, 255, 255)" opacity="1.0"/>
    <path d="M 235.6143035888672 63.968955993652344 C 236.78480529785156 96.87091827392578 236.6109619140625 110.43431091308594 243.41908264160156 116.15911102294922" stroke-width="2.0" fill="rgb(236, 95, 255)" opacity="1.0"/>
    <path d="M 236.1049041748047 -12.439896583557129 C 238.0210418701172 62.49774169921875 235.84771728515625 95.52530670166016 213.7716827392578 94.74652099609375" stroke-width="2.0" fill="rgb(255, 255, 255)" opacity="1.0"/>
    <path d="M 234.4075469970703 109.00421905517578 C 237.40386962890625 122.02883911132812 237.59414672851562 133.19168090820312 233.68858337402344 151.3431396484375" stroke-width="2.0" fill="rgb(189, 255, 147)" opacity="1.0"/>
    <path d="M 185.39297485351562 88.49237823486328 C 200.7349853515625 74.8876953125 175.7965087890625 86.35839080810547 173.89163208007812 127.15267181396484" stroke-width="2.0" fill="rgb(102, 145, 107)" opacity="0.08095171"/>
    <path d="M 164.1376190185547 196.5689697265625 C 175.5125732421875 196.59747314453125 171.2712860107422 195.94496154785156 172.10081481933594 197.7100372314453" stroke-width="2.0" fill="rgb(255, 255, 187)" opacity="0.36299345"/>
    <path d="M 46.37995147705078 72.82101440429688 C 48.318809509277344 77.07636260986328 52.853450775146484 75.66944885253906 57.36018753051758 78.33092498779297" stroke-width="2.0" fill="rgb(153, 255, 255)" opacity="0.12409836"/>
    <path d="M 218.34120178222656 199.0498046875 C 228.87591552734375 198.1892852783203 234.7324676513672 187.06825256347656 235.29391479492188 239.77725219726562" stroke-width="2.0" fill="rgb(255, 255, 242)" opacity="0.5498085"/>
  </g>
</svg>
