<?xml version="1.0" ?>
<svg xmlns="http://www.w3.org/2000/svg" version="1.1" width="256" height="256">
  <defs/>
  <g>
    <path d="M 68.52320098876953 76.03883361816406 C 34.949588775634766 44.6748046875 24.547101974487305 51.10811233520508 5.247148513793945 25.680294036865234 C -8.438405990600586 11.03603458404541 5.373342037200928 40.779720306396484 42.93842697143555 57.46250915527344" stroke-width="2.179628610610962" fill="none" stroke="rgb(255, 255, 255)" stroke-opacity="1.0" stroke-linecap="round" stroke-linejoin="round"/>
    <path d="M 2.802978277206421 69.89472198486328 C 8.431687355041504 141.0688934326172 13.645135879516602 128.57334899902344 13.282549858093262 204.91795349121094" stroke-width="4.0" fill="none" stroke="rgb(254, 254, 254)" stroke-opacity="1.0" stroke-linecap="round" stroke-linejoin="round"/>
    <path d="M 173.5919952392578 129.37521362304688 C 102.11190032958984 213.92218017578125 107.49273681640625 185.4751434326172 87.2410659790039 41.8555793762207" stroke-width="4.0" fill="none" stroke="rgb(101, 219, 57)" stroke-opacity="1.0" stroke-linecap="round" stroke-linejoin="round"/>
    <path d="M 24.251922607421875 40.15777587890625 C 21.39598274230957 153.45498657226562 20.28200340270996 136.48248291015625 28.543994903564453 33.42106246948242" stroke-width="2.0" fill="none" stroke="rgb(255, 255, 255)" stroke-opacity="1.0" stroke-linecap="round" stroke-linejoin="round"/>
    <path d="M 8.518980979919434 -11.467928886413574 C 18.764307022094727 142.61483764648438 16.970752716064453 163.37754821777344 23.488557815551758 121.67169952392578 C 60.09669876098633 53.739131927490234 47.71562576293945 93.06436920166016 13.945777893066406 143.4892578125" stroke-width="4.0" fill="none" stroke="rgb(254, 254, 254)" stroke-opacity="1.0" stroke-linecap="round" stroke-linejoin="round"/>
    <path d="M 36.37986373901367 171.16746520996094 C 5.693995952606201 221.81307983398438 13.18765640258789 284.34991455078125 15.749649047851562 238.7825927734375 C 25.50095558166504 170.793212890625 27.907886505126953 167.94415283203125 13.364324569702148 272.867431640625 C 7.203488826751709 233.81658935546875 14.50040054321289 216.41397094726562 35.29645919799805 179.61993408203125" stroke-width="2.0050745010375977" fill="none" stroke="rgb(255, 255, 255)" stroke-opacity="1.0" stroke-linecap="round" stroke-linejoin="round"/>
    <path d="M 264.0023193359375 81.84526824951172 C 261.4014892578125 73.66809844970703 265.17108154296875 76.3512191772461 268.2405090332031 73.55964660644531 C 261.49810791015625 81.58775329589844 260.9806213378906 78.2127456665039 264.8019104003906 83.72068786621094 C 262.18426513671875 87.81492614746094 265.392822265625 89.3258285522461 262.1996765136719 88.99637603759766" stroke-width="2.0" fill="none" stroke="rgb(105, 54, 246)" stroke-opacity="0.887581" stroke-linecap="round" stroke-linejoin="round"/>
    <path d="M 94.64311981201172 -5.44690465927124 C 93.9693832397461 29.011510848999023 78.97697448730469 54.97607421875 68.63301849365234 62.510372161865234 C 98.50102996826172 26.481266021728516 78.56765747070312 6.459593772888184 112.25231170654297 13.878161430358887" stroke-width="2.0" fill="none" stroke="rgb(253, 254, 253)" stroke-opacity="1.0" stroke-linecap="round" stroke-linejoin="round"/>
    <path d="M 144.3538055419922 250.95333862304688 C 134.3203582763672 204.2293701171875 159.94879150390625 262.9952087402344 88.64985656738281 249.6527557373047 C 115.36567687988281 229.6122283935547 147.26675415039062 253.98489379882812 97.21988677978516 224.09678649902344" stroke-width="2.0" fill="none" stroke="rgb(255, 255, 255)" stroke-opacity="1.0" stroke-linecap="round" stroke-linejoin="round"/>
    <path d="M 37.95655822753906 262.052734375 C 33.159156799316406 98.5348892211914 56.7812385559082 58.031898498535156 61.070247650146484 56.68427658081055 C 38.094966888427734 130.6442108154297 41.2197265625 183.17872619628906 59.75413131713867 89.65345001220703" stroke-width="3.9471118450164795" fill="none" stroke="rgb(254, 254, 255)" stroke-opacity="1.0" stroke-linecap="round" stroke-linejoin="round"/>
    <path d="M 182.02984619140625 187.55963134765625 C 124.75835418701172 265.5303039550781 161.12960815429688 236.60020446777344 187.6167755126953 110.21101379394531 C 154.7864227294922 199.60293579101562 147.57662963867188 283.22601318359375 128.28863525390625 191.6505126953125" stroke-width="4.0" fill="none" stroke="rgb(72, 154, 45)" stroke-opacity="1.0" stroke-linecap="round" stroke-linejoin="round"/>
    <path d="M 143.44442749023438 209.2171630859375 C 121.20691680908203 45.440391540527344 131.35116577148438 19.049345016479492 140.45120239257812 168.95709228515625 C 141.68894958496094 135.7154998779297 146.3780517578125 50.31233596801758 109.13569641113281 84.9950180053711" stroke-width="4.0" fill="none" stroke="rgb(87, 212, 42)" stroke-opacity="1.0" stroke-linecap="round" stroke-linejoin="round"/>
    <path d="M 256.188232421875 91.2039566040039 C 253.65301513671875 234.3277587890625 245.07017517089844 252.57334899902344 256.8230895996094 9.244874954223633" stroke-width="4.0" fill="none" stroke="rgb(254, 254, 254)" stroke-opacity="1.0" stroke-linecap="round" stroke-linejoin="round"/>
    <path d="M 4.376873970031738 272.5634765625 C -2.3685991764068604 191.177490234375 -5.193005084991455 155.39089965820312 7.3274383544921875 195.47836303710938 C 11.549117088317871 261.32147216796875 7.8536553382873535 312.9722900390625 6.1256422996521 197.32293701171875 C -1.611673355102539 308.43670654296875 24.069538116455078 282.67034912109375 20.78938102722168 195.01600646972656" stroke-width="2.0298988819122314" fill="none" stroke="rgb(255, 255, 255)" stroke-opacity="1.0" stroke-linecap="round" stroke-linejoin="round"/>
    <path d="M 151.17738342285156 79.013916015625 C 120.11774444580078 76.79556274414062 150.75079345703125 136.13522338867188 200.9634552001953 138.34681701660156 C 115.24761199951172 74.9363784790039 147.0635528564453 87.47896575927734 195.52557373046875 130.54049682617188 C 167.31495666503906 131.15673828125 160.33163452148438 118.07585906982422 122.32888793945312 77.62734985351562" stroke-width="4.0" fill="none" stroke="rgb(81, 191, 39)" stroke-opacity="1.0" stroke-linecap="round" stroke-linejoin="round"/>
    <path d="M 255.87643432617188 66.6979751586914 C 235.61643981933594 8.078302383422852 252.19436645507812 41.55589294433594 232.9455108642578 -12.238567352294922 C 236.2151641845703 55.64828109741211 260.1524658203125 68.60002899169922 232.00283813476562 -6.229825019836426 C 262.30010986328125 -8.056825637817383 252.68475341796875 -21.447134017944336 251.71209716796875 75.74950408935547" stroke-width="2.0023696422576904" fill="none" stroke="rgb(255, 255, 255)" stroke-opacity="1.0" stroke-linecap="round" stroke-linejoin="round"/>
    <path d="M 185.88954162597656 67.9673080444336 C 191.6119384765625 37.00446701049805 131.01272583007812 30.862024307250977 104.12383270263672 51.392513275146484 C 140.37240600585938 14.200891494750977 142.76173400878906 68.87841796875 108.93067169189453 6.241576671600342" stroke-width="2.004781484603882" fill="none" stroke="rgb(255, 255, 255)" stroke-opacity="1.0" stroke-linecap="round" stroke-linejoin="round"/>
    <path d="M 49.351463317871094 28.864545822143555 C 34.064002990722656 122.60566711425781 19.022701263427734 56.24652862548828 70.15111541748047 48.68693542480469" stroke-width="2.215791702270508" fill="none" stroke="rgb(255, 255, 255)" stroke-opacity="1.0" stroke-linecap="round" stroke-linejoin="round"/>
    <path d="M 187.56558227539062 160.95419311523438 C 189.490966796875 254.72445678710938 171.91212463378906 195.95977783203125 226.77734375 161.0739288330078 C 200.86407470703125 224.26791381835938 198.46141052246094 246.77088928222656 191.6833038330078 170.95431518554688 C 178.75869750976562 152.3215789794922 198.1845703125 236.4269561767578 154.59437561035156 243.30636596679688" stroke-width="3.9956555366516113" fill="none" stroke="rgb(254, 254, 254)" stroke-opacity="1.0" stroke-linecap="round" stroke-linejoin="round"/>
    <path d="M 146.4689178466797 31.780961990356445 C 269.97125244140625 41.89259338378906 242.49819946289062 31.361736297607422 249.3490753173828 72.92000579833984 C 255.38180541992188 -42.716094970703125 247.2429962158203 -17.490121841430664 249.29356384277344 66.80323791503906" stroke-width="2.0258381366729736" fill="none" stroke="rgb(255, 255, 255)" stroke-opacity="1.0" stroke-linecap="round" stroke-linejoin="round"/>
    <path d="M 258.2865905761719 259.859375 C 258.0052185058594 259.025390625 251.88409423828125 260.7811279296875 255.9097900390625 265.3107604980469 C 243.33966064453125 262.488037109375 241.4337921142578 270.29425048828125 244.46441650390625 263.47393798828125" stroke-width="2.0" fill="none" stroke="rgb(255, 108, 173)" stroke-opacity="0.20025174" stroke-linecap="round" stroke-linejoin="round"/>
    <path d="M 237.42164611816406 175.35494995117188 C 232.46653747558594 108.22080993652344 242.52146911621094 111.58592987060547 236.57981872558594 100.69672393798828 C 230.3955535888672 147.14370727539062 238.7714385986328 169.24891662597656 230.28341674804688 175.12771606445312 C 229.06370544433594 51.82979202270508 231.4641876220703 73.50029754638672 232.2056884765625 166.3853302001953" stroke-width="2.0054996013641357" fill="none" stroke="rgb(255, 255, 255)" stroke-opacity="1.0" stroke-linecap="round" stroke-linejoin="round"/>
    <path d="M 44.5778923034668 160.4281768798828 C 64.52985382080078 262.0517578125 98.51412200927734 227.7168731689453 135.16156005859375 251.95127868652344 C 27.577089309692383 237.51345825195312 14.84985065460205 213.3994903564453 113.0645523071289 249.1879119873047 C 69.72183990478516 201.6343536376953 73.4789047241211 217.55169677734375 140.9751739501953 252.15887451171875" stroke-width="4.0" fill="none" stroke="rgb(255, 255, 255)" stroke-opacity="1.0" stroke-linecap="round" stroke-linejoin="round"/>
    <path d="M 261.8763122558594 80.95489501953125 C 237.92794799804688 101.68701171875 243.97430419921875 101.53771209716797 251.88368225097656 170.16123962402344 C 227.93692016601562 119.28386688232422 239.86996459960938 76.4070816040039 238.4724578857422 174.52352905273438" stroke-width="2.6722919940948486" fill="none" stroke="rgb(255, 255, 255)" stroke-opacity="0.9232772" stroke-linecap="round" stroke-linejoin="round"/>
    <path d="M 196.77391052246094 87.37600708007812 C 84.46196746826172 68.93221282958984 161.44180297851562 108.86822509765625 223.5488739013672 94.48580169677734 C 211.57763671875 78.33253479003906 214.95309448242188 102.86201477050781 149.27249145507812 88.69739532470703 C 168.52825927734375 100.91765594482422 185.0832977294922 91.308837890625 220.96548461914062 141.89076232910156" stroke-width="4.0" fill="none" stroke="rgb(67, 149, 36)" stroke-opacity="1.0" stroke-linecap="round" stroke-linejoin="round"/>
    <path d="M 83.68865203857422 20.562671661376953 C 238.7965087890625 15.909266471862793 212.48455810546875 -26.998022079467773 244.1201629638672 118.04837799072266 C 203.84593200683594 -28.352710723876953 218.13829040527344 26.439929962158203 254.6969451904297 94.36522674560547" stroke-width="4.0" fill="none" stroke="rgb(255, 255, 255)" stroke-opacity="1.0" stroke-linecap="round" stroke-linejoin="round"/>
    <path d="M 17.418481826782227 109.65230560302734 C 19.67626953125 10.868636131286621 -0.6131818890571594 1.461153507232666 0.994674026966095 39.07578659057617 C 2.0761475563049316 134.41110229492188 -2.4299240112304688 151.44493103027344 -6.671667098999023 130.19761657714844" stroke-width="2.0124082565307617" fill="none" stroke="rgb(255, 255, 255)" stroke-opacity="1.0" stroke-linecap="round" stroke-linejoin="round"/>
    <path d="M 158.1013641357422 86.26831817626953 C 35.948909759521484 90.07213592529297 23.741355895996094 85.79683685302734 118.52571105957031 92.95991516113281" stroke-width="4.0" fill="none" stroke="rgb(103, 172, 79)" stroke-opacity="0.9894717" stroke-linecap="round" stroke-linejoin="round"/>
    <path d="M 204.99395751953125 117.28528594970703 C 214.62847900390625 12.258213996887207 176.11541748046875 114.28299713134766 201.6177520751953 132.74911499023438 C 189.14263916015625 212.72662353515625 195.3092498779297 213.84161376953125 214.1951446533203 65.76299285888672 C 221.43075561523438 155.44378662109375 201.8211669921875 168.22242736816406 148.40621948242188 234.79603576660156" stroke-width="4.0" fill="none" stroke="rgb(255, 253, 255)" stroke-opacity="1.0" stroke-linecap="round" stroke-linejoin="round"/>
    <path d="M 172.92738342285156 80.7087631225586 C 76.53824615478516 62.04692459106445 127.822998046875 128.81472778320312 126.2331314086914 151.7895050048828 C 97.53497314453125 -19.14722442626953 115.85346984863281 43.54683303833008 131.03128051757812 164.64715576171875 C 108.8985595703125 118.80712890625 103.23564147949219 78.81304168701172 117.68875122070312 59.48492431640625" stroke-width="4.0" fill="none" stroke="rgb(91, 200, 55)" stroke-opacity="1.0" stroke-linecap="round" stroke-linejoin="round"/>
    <path d="M 129.26504516601562 244.95970153808594 C 114.16401672363281 161.72293090820312 118.48209381103516 146.40130615234375 134.54067993164062 253.5560302734375 C 154.57154846191406 261.7729797363281 119.96087646484375 141.6011199951172 44.449161529541016 139.17910766601562" stroke-width="4.0" fill="none" stroke="rgb(243, 250, 240)" stroke-opacity="1.0" stroke-linecap="round" stroke-linejoin="round"/>
    <path d="M 56.44241714477539 168.07308959960938 C 145.07862854003906 237.7757110595703 134.07598876953125 252.38760375976562 56.16258239746094 176.03431701660156 C 137.11550903320312 209.32020568847656 155.53564453125 195.76983642578125 52.7215576171875 172.5559539794922 C 39.13326644897461 137.6702423095703 24.393817901611328 156.0050811767578 124.78672790527344 187.1185760498047" stroke-width="4.0" fill="none" stroke="rgb(241, 240, 245)" stroke-opacity="1.0" stroke-linecap="round" stroke-linejoin="round"/>
    <path d="M 94.25277709960938 51.53950500488281 C 106.44390106201172 -23.590513229370117 152.5537109375 31.526634216308594 -41.05760955810547 1.9704514741897583 C 124.3049087524414 0.49330297112464905 90.4619140625 3.0617620944976807 50.279727935791016 96.90242004394531 C 118.47479248046875 -6.661069393157959 123.09819030761719 13.962628364562988 1.7122480869293213 4.2256760597229" stroke-width="4.0" fill="none" stroke="rgb(255, 254, 255)" stroke-opacity="1.0" stroke-linecap="round" stroke-linejoin="round"/>
    <path d="M 1.6059646606445312 143.7420654296875 C 90.47765350341797 144.77117919921875 112.89070892333984 130.92044067382812 0.25345075130462646 159.7678680419922" stroke-width="3.0923798084259033" fill="none" stroke="rgb(205, 216, 198)" stroke-opacity="0.7352321" stroke-linecap="round" stroke-linejoin="round"/>
    <path d="M 102.25908660888672 188.349365234375 C 73.50928497314453 119.75873565673828 61.33647155761719 142.69322204589844 129.63706970214844 184.0670166015625 C 51.263580322265625 165.31536865234375 82.50752258300781 158.399658203125 82.5255126953125 66.45641326904297 C 97.7037124633789 137.17506408691406 48.44286346435547 154.47195434570312 121.41643524169922 186.9843292236328" stroke-width="4.0" fill="none" stroke="rgb(88, 215, 44)" stroke-opacity="1.0" stroke-linecap="round" stroke-linejoin="round"/>
    <path d="M 169.59445190429688 15.201549530029297 C 226.49786376953125 55.389671325683594 232.0806884765625 51.50838851928711 163.36903381347656 8.868928909301758 C 219.97561645507812 38.91661071777344 211.39117431640625 8.212545394897461 202.0266571044922 76.80229949951172" stroke-width="2.160137891769409" fill="none" stroke="rgb(255, 255, 255)" stroke-opacity="1.0" stroke-linecap="round" stroke-linejoin="round"/>
    <path d="M 254.31341552734375 92.3113784790039 C 221.4790496826172 -67.82861328125 247.882568359375 59.13448715209961 254.02903747558594 136.27561950683594 C 237.57138061523438 54.38313674926758 263.30322265625 42.93726348876953 193.59275817871094 77.93733215332031 C 264.7344055175781 68.80176544189453 240.57838439941406 70.85388946533203 229.781982421875 -4.0038604736328125" stroke-width="2.267838954925537" fill="none" stroke="rgb(255, 255, 255)" stroke-opacity="1.0" stroke-linecap="round" stroke-linejoin="round"/>
    <path d="M 28.559202194213867 178.84609985351562 C 20.035390853881836 318.2183532714844 26.03705406188965 312.1285095214844 29.621623992919922 186.90020751953125" stroke-width="2.3186113834381104" fill="none" stroke="rgb(255, 255, 255)" stroke-opacity="1.0" stroke-linecap="round" stroke-linejoin="round"/>
    <path d="M 126.70703887939453 20.895313262939453 C 252.40733337402344 11.356254577636719 257.4533996582031 27.27956199645996 192.00018310546875 3.494063138961792" stroke-width="2.0" fill="none" stroke="rgb(255, 255, 255)" stroke-opacity="1.0" stroke-linecap="round" stroke-linejoin="round"/>
    <path d="M 115.227294921875 22.646400451660156 C 87.87071990966797 66.83287048339844 73.5235595703125 60.30620574951172 103.12738800048828 23.468385696411133" stroke-width="2.0032646656036377" fill="none" stroke="rgb(255, 255, 255)" stroke-opacity="1.0" stroke-linecap="round" stroke-linejoin="round"/>
    <path d="M 15.840457916259766 149.95050048828125 C 90.77830505371094 172.938720703125 92.09317779541016 193.05430603027344 121.69571685791016 221.63880920410156 C 54.4327278137207 164.8164825439453 45.11267852783203 153.10670471191406 114.63162231445312 224.3785400390625 C 36.9304084777832 147.65655517578125 50.593387603759766 191.38568115234375 123.46910858154297 236.3932342529297" stroke-width="4.0" fill="none" stroke="rgb(166, 203, 158)" stroke-opacity="1.0" stroke-linecap="round" stroke-linejoin="round"/>
    <path d="M 83.22120666503906 58.902008056640625 C 101.52265930175781 -22.920978546142578 118.81666564941406 -30.294517517089844 91.16446685791016 52.90921401977539" stroke-width="2.04313588142395" fill="none" stroke="rgb(254, 254, 254)" stroke-opacity="1.0" stroke-linecap="round" stroke-linejoin="round"/>
    <path d="M 259.28192138671875 1.9207723140716553 C 201.76255798339844 0.08457086980342865 168.21426391601562 2.9863014221191406 104.29167938232422 -0.042856134474277496" stroke-width="2.086060047149658" fill="none" stroke="rgb(255, 255, 255)" stroke-opacity="1.0" stroke-linecap="round" stroke-linejoin="round"/>
    <path d="M 50.13888168334961 150.07098388671875 C 8.5870943069458 247.0154266357422 2.243962287902832 252.26368713378906 6.420647621154785 122.40817260742188 C 15.442892074584961 273.3263244628906 -1.1042383909225464 214.98773193359375 46.621158599853516 124.46697235107422 C -3.618560552597046 257.7206726074219 2.4502980709075928 300.9875183105469 2.0182549953460693 82.83746337890625" stroke-width="4.0" fill="none" stroke="rgb(253, 253, 253)" stroke-opacity="1.0" stroke-linecap="round" stroke-linejoin="round"/>
    <path d="M 104.06755828857422 -5.889969348907471 C 94.77229309082031 65.8927001953125 73.56517791748047 70.37792205810547 50.20955276489258 45.14723205566406 C 74.68276977539062 55.284400939941406 62.80241775512695 74.36317443847656 81.12188720703125 39.13778305053711 C 97.26769256591797 -8.18832778930664 95.27200317382812 -7.422388553619385 65.45259094238281 58.04641342163086" stroke-width="2.07731556892395" fill="none" stroke="rgb(255, 255, 255)" stroke-opacity="1.0" stroke-linecap="round" stroke-linejoin="round"/>
    <path d="M 184.26490783691406 240.36074829101562 C 227.753173828125 135.37628173828125 225.79412841796875 143.9282989501953 174.87742614746094 238.3817596435547" stroke-width="4.0" fill="none" stroke="rgb(255, 255, 255)" stroke-opacity="1.0" stroke-linecap="round" stroke-linejoin="round"/>
    <path d="M 248.77304077148438 98.93225860595703 C 229.1612548828125 170.5153350830078 228.33758544921875 197.08932495117188 221.51100158691406 192.31671142578125 C 233.3564453125 120.20057678222656 208.33319091796875 130.49560546875 258.40301513671875 162.1654815673828" stroke-width="2.024090528488159" fill="none" stroke="rgb(255, 254, 255)" stroke-opacity="0.99118644" stroke-linecap="round" stroke-linejoin="round"/>
    <path d="M 163.82504272460938 209.53106689453125 C 105.67050170898438 243.4763946533203 128.48243713378906 164.86073303222656 124.96163940429688 66.45686340332031 C 139.01478576660156 269.6009216308594 158.7775115966797 210.0431671142578 81.31869506835938 114.3971939086914" stroke-width="4.0" fill="none" stroke="rgb(91, 208, 47)" stroke-opacity="1.0" stroke-linecap="round" stroke-linejoin="round"/>
    <path d="M 197.00428771972656 103.78516387939453 C 210.9503173828125 -14.117610931396484 228.4192657470703 44.76077651977539 77.00508117675781 19.720417022705078 C 273.40875244140625 34.23273468017578 203.3371124267578 -13.547274589538574 208.87026977539062 85.85894775390625" stroke-width="4.0" fill="none" stroke="rgb(255, 255, 255)" stroke-opacity="1.0" stroke-linecap="round" stroke-linejoin="round"/>
    <path d="M 203.82481384277344 251.81773376464844 C 186.5807647705078 173.99073791503906 178.8460693359375 179.8258056640625 197.05458068847656 241.6895751953125 C 136.53939819335938 243.10800170898438 133.1851043701172 222.5895538330078 193.4852752685547 239.53565979003906 C 181.13612365722656 194.18197631835938 163.17735290527344 203.4311981201172 230.2391815185547 242.771484375" stroke-width="2.946319341659546" fill="none" stroke="rgb(255, 255, 255)" stroke-opacity="1.0" stroke-linecap="round" stroke-linejoin="round"/>
    <path d="M 171.12884521484375 200.54751586914062 C 188.21743774414062 142.3456268310547 194.7737274169922 129.9873504638672 202.71633911132812 97.07620239257812 C 189.13890075683594 201.7516632080078 176.83682250976562 203.3358154296875 138.8144073486328 91.66020202636719" stroke-width="4.0" fill="none" stroke="rgb(72, 165, 36)" stroke-opacity="1.0" stroke-linecap="round" stroke-linejoin="round"/>
    <path d="M 74.56694793701172 50.16272735595703 C -5.495796203613281 30.034221649169922 -12.890240669250488 18.26952362060547 41.970008850097656 33.276100158691406 C 96.60528564453125 18.521320343017578 109.00698852539062 2.6292784214019775 71.38626098632812 20.03167152404785 C 72.07252502441406 24.186071395874023 33.417625427246094 24.4759464263916 -6.957211017608643 17.214168548583984" stroke-width="3.402601718902588" fill="none" stroke="rgb(255, 255, 255)" stroke-opacity="1.0" stroke-linecap="round" stroke-linejoin="round"/>
    <path d="M 159.18577575683594 195.66835021972656 C 178.4793701171875 79.28266906738281 216.27999877929688 137.20277404785156 149.75680541992188 84.56393432617188 C 226.1585235595703 100.78265380859375 205.6180419921875 61.603416442871094 177.0899658203125 170.17575073242188" stroke-width="4.0" fill="none" stroke="rgb(75, 164, 43)" stroke-opacity="0.9839476" stroke-linecap="round" stroke-linejoin="round"/>
    <path d="M 114.49987030029297 150.7963104248047 C 86.91923522949219 52.32490539550781 129.63226318359375 88.50218200683594 22.037717819213867 86.49137878417969" stroke-width="4.0" fill="none" stroke="rgb(201, 226, 197)" stroke-opacity="0.8855203" stroke-linecap="round" stroke-linejoin="round"/>
    <path d="M 257.2738037109375 8.369644165039062 C 185.58453369140625 9.158368110656738 164.77975463867188 3.756701946258545 98.91165924072266 17.83197593688965 C 249.20236206054688 1.6223338842391968 161.75379943847656 7.580784797668457 100.22927856445312 45.681854248046875 C 187.0668182373047 9.265373229980469 179.36927795410156 -2.7266857624053955 192.97096252441406 100.62873077392578" stroke-width="2.229090690612793" fill="none" stroke="rgb(255, 255, 255)" stroke-opacity="1.0" stroke-linecap="round" stroke-linejoin="round"/>
    <path d="M -6.422474384307861 211.88206481933594 C -7.2110724449157715 211.8997039794922 -7.415202617645264 213.72030639648438 -7.534022808074951 224.88385009765625" stroke-width="2.0" fill="none" stroke="rgb(214, 101, 107)" stroke-opacity="0.55025154" stroke-linecap="round" stroke-linejoin="round"/>
    <path d="M 74.98686218261719 64.0692138671875 C 284.3789978027344 49.40361022949219 276.9364929199219 58.64222717285156 44.71849060058594 68.41011047363281 C 59.521270751953125 37.8992919921875 222.55288696289062 64.38230895996094 61.416053771972656 81.90229034423828" stroke-width="4.0" fill="none" stroke="rgb(241, 241, 239)" stroke-opacity="1.0" stroke-linecap="round" stroke-linejoin="round"/>
    <path d="M 176.45559692382812 124.94871520996094 C 150.3486785888672 105.68460845947266 152.61790466308594 103.46730041503906 124.71066284179688 74.13510131835938 C 142.8103485107422 88.28511047363281 159.9829864501953 94.11537170410156 196.00428771972656 124.46966552734375" stroke-width="4.0" fill="none" stroke="rgb(74, 177, 37)" stroke-opacity="1.0" stroke-linecap="round" stroke-linejoin="round"/>
    <path d="M 193.69369506835938 247.6190185546875 C 224.83267211914062 189.0745391845703 232.42831420898438 161.4656524658203 204.15121459960938 235.88323974609375" stroke-width="2.0535826683044434" fill="none" stroke="rgb(255, 255, 255)" stroke-opacity="1.0" stroke-linecap="round" stroke-linejoin="round"/>
    <path d="M 236.6519317626953 65.9972152709961 C 247.31082153320312 112.39076232910156 234.8263702392578 126.40010833740234 245.8468017578125 149.67010498046875 C 242.2805633544922 29.187911987304688 229.1057891845703 41.01061248779297 233.91673278808594 150.45167541503906" stroke-width="2.0283217430114746" fill="none" stroke="rgb(254, 254, 254)" stroke-opacity="1.0" stroke-linecap="round" stroke-linejoin="round"/>
    <path d="M 127.01982879638672 206.2169189453125 C 70.12046813964844 157.197265625 98.5560531616211 165.777099609375 89.33718872070312 215.2985382080078" stroke-width="4.0" fill="none" stroke="rgb(84, 182, 53)" stroke-opacity="0.99648166" stroke-linecap="round" stroke-linejoin="round"/>
    <path d="M 83.80809783935547 146.59808349609375 C 92.83030700683594 54.185970306396484 94.02782440185547 82.34785461425781 59.4484977722168 70.55982208251953 C 61.397701263427734 80.08451080322266 74.37725067138672 116.32195281982422 113.2769775390625 119.80833435058594 C 70.09105682373047 124.49242401123047 67.89104461669922 78.1861572265625 71.78772735595703 126.96382904052734" stroke-width="4.0" fill="none" stroke="rgb(159, 239, 144)" stroke-opacity="0.91049623" stroke-linecap="round" stroke-linejoin="round"/>
    <path d="M 222.49569702148438 216.44752502441406 C 254.56671142578125 131.96080017089844 245.3841552734375 95.33258819580078 246.26878356933594 285.9180908203125 C 256.5564880371094 198.57107543945312 250.3126220703125 138.51817321777344 228.45436096191406 173.8448944091797" stroke-width="2.0464649200439453" fill="none" stroke="rgb(255, 255, 255)" stroke-opacity="1.0" stroke-linecap="round" stroke-linejoin="round"/>
    <path d="M 12.881043434143066 118.26312255859375 C 45.89649963378906 91.66038513183594 44.85411071777344 130.99732971191406 36.91475296020508 65.46833801269531" stroke-width="2.0" fill="none" stroke="rgb(253, 253, 253)" stroke-opacity="0.92040426" stroke-linecap="round" stroke-linejoin="round"/>
    <path d="M 26.25890350341797 129.04571533203125 C 43.81568908691406 251.10804748535156 11.903996467590332 266.5018615722656 52.96703338623047 254.38131713867188 C 50.06684875488281 121.23130798339844 39.130226135253906 100.49486541748047 41.737030029296875 264.8065490722656" stroke-width="4.0" fill="none" stroke="rgb(254, 254, 254)" stroke-opacity="1.0" stroke-linecap="round" stroke-linejoin="round"/>
    <path d="M 188.42498779296875 103.96351623535156 C 253.0601806640625 104.07291412353516 238.56756591796875 109.0958023071289 158.1470184326172 73.21212768554688 C 157.3284454345703 79.96813201904297 239.70057678222656 77.77120208740234 210.92422485351562 81.0404281616211 C 102.1680679321289 84.98214721679688 73.73751831054688 70.51200866699219 198.2007293701172 74.51902770996094" stroke-width="3.962446928024292" fill="none" stroke="rgb(222, 229, 220)" stroke-opacity="0.7153702" stroke-linecap="round" stroke-linejoin="round"/>
    <path d="M 105.42700958251953 44.13679122924805 C 150.2432861328125 31.371980667114258 167.21908569335938 39.087554931640625 213.42050170898438 41.116878509521484" stroke-width="2.0" fill="none" stroke="rgb(255, 255, 255)" stroke-opacity="1.0" stroke-linecap="round" stroke-linejoin="round"/>
    <path d="M 218.7224578857422 45.54627990722656 C 108.43897247314453 45.0515022277832 51.627471923828125 38.444210052490234 208.21327209472656 43.33679962158203 C 92.78285217285156 34.172237396240234 113.11349487304688 30.073265075683594 210.4292449951172 39.214481353759766" stroke-width="2.486769914627075" fill="none" stroke="rgb(255, 255, 255)" stroke-opacity="1.0" stroke-linecap="round" stroke-linejoin="round"/>
    <path d="M 93.66532897949219 77.5169906616211 C 41.1527214050293 65.51847076416016 59.306793212890625 116.55477905273438 41.43561553955078 149.41403198242188 C 126.54915618896484 106.20625305175781 19.030120849609375 85.66629791259766 101.38300323486328 113.0611572265625" stroke-width="4.0" fill="none" stroke="rgb(244, 250, 244)" stroke-opacity="0.9947684" stroke-linecap="round" stroke-linejoin="round"/>
    <path d="M -17.39614486694336 253.69583129882812 C 88.15068054199219 260.68487548828125 68.9683837890625 233.38311767578125 46.84099578857422 250.81993103027344 C 46.43950271606445 253.850341796875 48.44426345825195 197.3022003173828 43.47626876831055 177.59864807128906 C 49.38350296020508 331.46319580078125 29.9559268951416 328.63385009765625 35.09049987792969 188.61717224121094" stroke-width="2.178346872329712" fill="none" stroke="rgb(255, 255, 255)" stroke-opacity="1.0" stroke-linecap="round" stroke-linejoin="round"/>
    <path d="M 86.38441467285156 230.20367431640625 C 68.3510513305664 175.66551208496094 92.17410278320312 177.05978393554688 121.7212905883789 216.5254364013672 C 116.59744262695312 185.56741333007812 68.29047393798828 181.13775634765625 57.3913459777832 143.5185089111328" stroke-width="4.0" fill="none" stroke="rgb(85, 191, 45)" stroke-opacity="1.0" stroke-linecap="round" stroke-linejoin="round"/>
    <path d="M 92.20465850830078 53.69448471069336 C 25.281394958496094 28.6899471282959 -7.962246417999268 23.309850692749023 53.98312759399414 51.78713607788086 C 63.09743881225586 66.29927825927734 106.47684478759766 21.135257720947266 9.373311042785645 31.23773193359375" stroke-width="3.170883893966675" fill="none" stroke="rgb(255, 255, 255)" stroke-opacity="1.0" stroke-linecap="round" stroke-linejoin="round"/>
    <path d="M 205.31654357910156 258.2442932128906 C 210.40232849121094 196.34005737304688 204.9839324951172 179.49769592285156 219.2946319580078 202.45486450195312 C 201.24365234375 237.45071411132812 212.5667724609375 259.40924072265625 202.545654296875 259.3719482421875 C 194.63475036621094 213.0754852294922 186.49435424804688 214.7031707763672 190.70640563964844 171.7026824951172" stroke-width="2.0113916397094727" fill="none" stroke="rgb(255, 255, 255)" stroke-opacity="1.0" stroke-linecap="round" stroke-linejoin="round"/>
    <path d="M 150.3168487548828 213.07882690429688 C 168.3915557861328 82.10597229003906 194.49766540527344 92.7392578125 153.34202575683594 133.88909912109375 C 141.7731170654297 282.88641357421875 149.90655517578125 207.3983612060547 148.69012451171875 98.81318664550781" stroke-width="4.0" fill="none" stroke="rgb(77, 190, 33)" stroke-opacity="1.0" stroke-linecap="round" stroke-linejoin="round"/>
    <path d="M 120.1163101196289 215.90023803710938 C 18.223682403564453 189.4470672607422 30.996564865112305 187.680419921875 37.84420394897461 120.49078369140625 C 11.54230785369873 192.60772705078125 23.649381637573242 169.3385467529297 29.155315399169922 196.3029327392578" stroke-width="2.508699417114258" fill="none" stroke="rgb(255, 255, 255)" stroke-opacity="1.0" stroke-linecap="round" stroke-linejoin="round"/>
    <path d="M 114.09721374511719 209.66775512695312 C 143.2021026611328 261.244140625 112.53668212890625 264.1206970214844 75.9334487915039 192.4239501953125 C 123.9554443359375 254.33753967285156 118.60405731201172 254.80967712402344 57.06475067138672 244.0148468017578" stroke-width="2.0" fill="none" stroke="rgb(255, 255, 255)" stroke-opacity="1.0" stroke-linecap="round" stroke-linejoin="round"/>
    <path d="M 4.360472679138184 102.63467407226562 C 7.290826320648193 132.4477996826172 -3.6058349609375 154.88465881347656 38.38582229614258 147.14915466308594 C 28.72350311279297 142.56887817382812 25.868385314941406 159.49557495117188 -8.176575660705566 150.23321533203125" stroke-width="2.003483533859253" fill="none" stroke="rgb(254, 254, 254)" stroke-opacity="0.9652112" stroke-linecap="round" stroke-linejoin="round"/>
    <path d="M 106.82516479492188 47.91272735595703 C 286.8878173828125 57.58979797363281 218.48281860351562 43.738224029541016 97.9347152709961 46.11500930786133 C 235.3223114013672 48.14630126953125 308.5602722167969 61.05079650878906 161.5879669189453 69.03055572509766" stroke-width="2.332596778869629" fill="none" stroke="rgb(255, 255, 255)" stroke-opacity="1.0" stroke-linecap="round" stroke-linejoin="round"/>
    <path d="M 17.97355842590332 142.58335876464844 C 50.391868591308594 98.40238189697266 41.14551544189453 71.16875457763672 33.926639556884766 189.70689392089844" stroke-width="2.013209581375122" fill="none" stroke="rgb(254, 254, 254)" stroke-opacity="1.0" stroke-linecap="round" stroke-linejoin="round"/>
    <path d="M 10.28994083404541 150.17686462402344 C 19.916372299194336 150.53253173828125 12.280332565307617 129.35845947265625 6.565836429595947 -4.3442277908325195 C -3.498438835144043 75.20409393310547 8.343268394470215 122.19859313964844 40.31865310668945 123.07807159423828" stroke-width="2.000000238418579" fill="none" stroke="rgb(255, 255, 255)" stroke-opacity="1.0" stroke-linecap="round" stroke-linejoin="round"/>
    <path d="M 154.45558166503906 254.42262268066406 C 121.65388488769531 155.9569549560547 88.9389877319336 134.86672973632812 106.6651382446289 62.458465576171875 C 101.07292938232422 136.5170135498047 123.28128814697266 132.51185607910156 146.5087432861328 229.3664093017578" stroke-width="4.0" fill="none" stroke="rgb(94, 204, 52)" stroke-opacity="0.9862049" stroke-linecap="round" stroke-linejoin="round"/>
    <path d="M 69.77812194824219 93.01248168945312 C 51.84528732299805 146.70237731933594 63.00276565551758 153.8643341064453 87.51605987548828 175.08047485351562 C 171.75559997558594 153.617431640625 152.42994689941406 161.00991821289062 75.56822967529297 187.80694580078125" stroke-width="4.0" fill="none" stroke="rgb(79, 198, 31)" stroke-opacity="1.0" stroke-linecap="round" stroke-linejoin="round"/>
    <path d="M 216.75982666015625 48.04841613769531 C 227.59120178222656 152.58290100097656 205.12490844726562 160.66287231445312 185.4851531982422 201.37408447265625 C 225.4585723876953 156.64222717285156 225.57064819335938 107.4017105102539 207.57086181640625 145.56100463867188 C 213.50164794921875 61.79707336425781 237.90692138671875 115.61092376708984 204.0614471435547 205.53736877441406" stroke-width="3.997356653213501" fill="none" stroke="rgb(253, 253, 253)" stroke-opacity="1.0" stroke-linecap="round" stroke-linejoin="round"/>
    <path d="M 134.50831604003906 64.81810760498047 C 171.23988342285156 -46.068931579589844 169.39865112304688 29.420772552490234 37.24091339111328 -1.837578535079956 C 185.40769958496094 13.012933731079102 104.7309341430664 -19.916532516479492 99.62725067138672 44.135719299316406 C 122.11099243164062 15.996028900146484 67.26875305175781 1.0791577100753784 259.9787902832031 5.065796852111816" stroke-width="4.0" fill="none" stroke="rgb(255, 255, 255)" stroke-opacity="1.0" stroke-linecap="round" stroke-linejoin="round"/>
    <path d="M 190.66384887695312 169.61605834960938 C 271.8379821777344 141.92703247070312 251.15272521972656 129.18780517578125 253.84872436523438 269.2889099121094" stroke-width="4.0" fill="none" stroke="rgb(255, 255, 255)" stroke-opacity="0.985477" stroke-linecap="round" stroke-linejoin="round"/>
    <path d="M 44.17392349243164 169.56163024902344 C 52.5950927734375 204.1658172607422 46.23779296875 262.1860656738281 52.432926177978516 282.74139404296875 C 54.553897857666016 271.77734375 32.25187683105469 253.3643035888672 -14.497291564941406 228.53330993652344" stroke-width="2.06535267829895" fill="none" stroke="rgb(255, 255, 255)" stroke-opacity="1.0" stroke-linecap="round" stroke-linejoin="round"/>
    <path d="M 219.23500061035156 199.2604522705078 C 253.4453125 158.59677124023438 238.72714233398438 149.11947631835938 241.40689086914062 270.306396484375 C 233.2335968017578 143.309326171875 242.2935333251953 168.43231201171875 224.14273071289062 285.02215576171875 C 231.16500854492188 184.1586151123047 244.03419494628906 154.77926635742188 219.97393798828125 252.68934631347656" stroke-width="2.2810046672821045" fill="none" stroke="rgb(255, 255, 255)" stroke-opacity="1.0" stroke-linecap="round" stroke-linejoin="round"/>
    <path d="M 143.84927368164062 167.30056762695312 C 127.6676025390625 218.03466796875 82.83770751953125 177.8908233642578 92.86285400390625 121.70966339111328" stroke-width="4.0" fill="none" stroke="rgb(79, 195, 37)" stroke-opacity="1.0" stroke-linecap="round" stroke-linejoin="round"/>
    <path d="M 65.12728118896484 93.78038024902344 C 50.481204986572266 141.11146545410156 61.01053237915039 141.33306884765625 54.556678771972656 153.29241943359375 C 101.68090057373047 203.97349548339844 70.20562744140625 194.4261474609375 66.92723846435547 100.68031311035156 C 58.64678192138672 163.90936279296875 82.19337463378906 176.45994567871094 70.02615356445312 92.66921997070312" stroke-width="4.0" fill="none" stroke="rgb(107, 204, 73)" stroke-opacity="1.0" stroke-linecap="round" stroke-linejoin="round"/>
    <path d="M 226.05142211914062 89.77897644042969 C 233.27752685546875 223.7430877685547 217.56983947753906 178.33935546875 208.99159240722656 258.16168212890625" stroke-width="4.0" fill="none" stroke="rgb(254, 254, 254)" stroke-opacity="1.0" stroke-linecap="round" stroke-linejoin="round"/>
    <path d="M 108.47166442871094 74.1745834350586 C 2.976656436920166 66.59830474853516 68.60223388671875 71.55327606201172 250.19290161132812 69.89069366455078 C 215.8108673095703 50.82536315917969 83.18350982666016 83.10636138916016 109.44975280761719 59.40351104736328" stroke-width="4.0" fill="none" stroke="rgb(248, 248, 247)" stroke-opacity="0.9969863" stroke-linecap="round" stroke-linejoin="round"/>
    <path d="M 4.7408037185668945 25.59878921508789 C 12.747979164123535 168.75341796875 16.66935157775879 174.3312225341797 44.333438873291016 101.66746520996094 C 7.347726821899414 184.81893920898438 -15.949280738830566 155.50946044921875 79.52105712890625 18.599029541015625" stroke-width="4.0" fill="none" stroke="rgb(254, 253, 254)" stroke-opacity="0.98725975" stroke-linecap="round" stroke-linejoin="round"/>
    <path d="M 139.92056274414062 211.32730102539062 C 182.96673583984375 265.74200439453125 205.60086059570312 231.52792358398438 224.5418701171875 176.1844024658203 C 191.96295166015625 252.3097381591797 167.5993194580078 189.05856323242188 152.59393310546875 241.482177734375 C 126.30636596679688 180.25485229492188 124.72696685791016 229.14491271972656 173.91189575195312 201.81907653808594" stroke-width="3.057996988296509" fill="none" stroke="rgb(255, 254, 255)" stroke-opacity="1.0" stroke-linecap="round" stroke-linejoin="round"/>
    <path d="M 249.05226135253906 84.4935302734375 C 256.9244384765625 46.79924774169922 213.20521545410156 64.99295806884766 213.98202514648438 -49.76201629638672 C 229.4890899658203 80.13551330566406 255.0531463623047 66.0569076538086 242.851318359375 -7.990039825439453" stroke-width="4.0" fill="none" stroke="rgb(255, 255, 255)" stroke-opacity="1.0" stroke-linecap="round" stroke-linejoin="round"/>
    <path d="M 61.72454071044922 67.03719329833984 C -11.523032188415527 46.68038558959961 32.60458755493164 68.2391586303711 54.02216720581055 61.56834030151367 C 26.03406524658203 56.67852020263672 26.12061882019043 48.04049301147461 -2.2430851459503174 31.685117721557617 C 27.55689811706543 61.29738235473633 55.177093505859375 72.70793151855469 6.092497825622559 38.76615905761719" stroke-width="2.0358705520629883" fill="none" stroke="rgb(255, 255, 255)" stroke-opacity="1.0" stroke-linecap="round" stroke-linejoin="round"/>
    <path d="M 226.04847717285156 2.6704154014587402 C 276.5072326660156 186.92111206054688 225.42745971679688 155.4267120361328 217.6082763671875 262.3548889160156" stroke-width="4.0" fill="none" stroke="rgb(254, 254, 254)" stroke-opacity="1.0" stroke-linecap="round" stroke-linejoin="round"/>
    <path d="M 3.6007819175720215 52.96213912963867 C 80.98733520507812 65.45926666259766 65.96405029296875 70.16313934326172 6.192610740661621 29.81134796142578 C 49.524837493896484 50.97137451171875 73.5407943725586 74.45055389404297 33.99488830566406 34.77135467529297" stroke-width="2.056685447692871" fill="none" stroke="rgb(255, 255, 255)" stroke-opacity="1.0" stroke-linecap="round" stroke-linejoin="round"/>
    <path d="M 247.01548767089844 125.41395568847656 C 211.71978759765625 265.8018493652344 196.86907958984375 239.1722412109375 261.7147216796875 241.43946838378906" stroke-width="4.0" fill="none" stroke="rgb(254, 254, 254)" stroke-opacity="0.991921" stroke-linecap="round" stroke-linejoin="round"/>
    <path d="M 240.76307678222656 171.1831817626953 C 226.3242645263672 288.7046203613281 233.4802703857422 289.51116943359375 242.33946228027344 167.05052185058594 C 253.2322998046875 220.78636169433594 264.25067138671875 208.4948272705078 245.76023864746094 152.30026245117188 C 238.58663940429688 292.5204772949219 251.56393432617188 303.62335205078125 247.9076690673828 160.93087768554688" stroke-width="2.3836424350738525" fill="none" stroke="rgb(255, 255, 255)" stroke-opacity="1.0" stroke-linecap="round" stroke-linejoin="round"/>
    <path d="M 199.68353271484375 187.1818084716797 C 208.12753295898438 258.3130798339844 206.8291473388672 288.828857421875 198.85507202148438 194.44325256347656" stroke-width="2.0065391063690186" fill="none" stroke="rgb(255, 255, 255)" stroke-opacity="1.0" stroke-linecap="round" stroke-linejoin="round"/>
    <path d="M 145.94920349121094 250.28065490722656 C 143.63255310058594 207.9737548828125 122.60967254638672 235.91058349609375 121.02589416503906 206.2882080078125 C 154.19480895996094 216.91847229003906 155.7879180908203 286.0382385253906 133.08517456054688 228.96385192871094 C 141.3738555908203 232.25360107421875 122.94927215576172 230.3997802734375 145.645751953125 255.22706604003906" stroke-width="2.4990830421447754" fill="none" stroke="rgb(255, 255, 255)" stroke-opacity="1.0" stroke-linecap="round" stroke-linejoin="round"/>
    <path d="M 19.816261291503906 266.2420654296875 C 31.281970977783203 168.08921813964844 14.315593719482422 229.16806030273438 19.45514488220215 142.35137939453125" stroke-width="4.0" fill="none" stroke="rgb(254, 254, 254)" stroke-opacity="1.0" stroke-linecap="round" stroke-linejoin="round"/>
    <path d="M 117.08272552490234 67.85980224609375 C 111.0324935913086 -1.0655266046524048 89.47392272949219 -3.3332927227020264 90.95895385742188 56.054832458496094 C 79.91236114501953 17.89410972595215 97.21038818359375 25.672487258911133 93.14148712158203 76.03516387939453" stroke-width="2.11618709564209" fill="none" stroke="rgb(254, 254, 254)" stroke-opacity="0.93818885" stroke-linecap="round" stroke-linejoin="round"/>
    <path d="M 222.58932495117188 70.9500503540039 C 229.94471740722656 202.57080078125 213.49710083007812 210.9290771484375 125.69322967529297 215.30307006835938" stroke-width="3.9881720542907715" fill="none" stroke="rgb(254, 253, 254)" stroke-opacity="1.0" stroke-linecap="round" stroke-linejoin="round"/>
    <path d="M 52.822227478027344 200.74331665039062 C 65.46949768066406 268.6815490722656 69.13233184814453 268.91375732421875 57.18483352661133 266.9779052734375 C 60.83615493774414 243.35980224609375 70.6751708984375 235.3208770751953 53.089454650878906 202.7498016357422" stroke-width="2.0" fill="none" stroke="rgb(255, 255, 255)" stroke-opacity="1.0" stroke-linecap="round" stroke-linejoin="round"/>
    <path d="M 67.94190216064453 202.89288330078125 C 118.88367462158203 250.92958068847656 75.34642028808594 240.74075317382812 56.423797607421875 198.14942932128906" stroke-width="2.4359302520751953" fill="none" stroke="rgb(255, 255, 255)" stroke-opacity="1.0" stroke-linecap="round" stroke-linejoin="round"/>
    <path d="M 214.054443359375 242.104736328125 C 222.11029052734375 197.81687927246094 260.81005859375 258.8530578613281 156.5944366455078 246.28610229492188" stroke-width="2.1480963230133057" fill="none" stroke="rgb(255, 255, 255)" stroke-opacity="1.0" stroke-linecap="round" stroke-linejoin="round"/>
    <path d="M 0.36243903636932373 133.99697875976562 C 17.672067642211914 135.727294921875 19.41909408569336 152.0487518310547 9.999286651611328 241.80014038085938" stroke-width="2.0042190551757812" fill="none" stroke="rgb(254, 254, 254)" stroke-opacity="1.0" stroke-linecap="round" stroke-linejoin="round"/>
    <path d="M 51.28480529785156 66.24952697753906 C 22.032848358154297 114.23413848876953 24.73931121826172 128.03329467773438 35.92256546020508 60.99831771850586" stroke-width="2.0" fill="none" stroke="rgb(255, 255, 255)" stroke-opacity="1.0" stroke-linecap="round" stroke-linejoin="round"/>
    <path d="M 207.35614013671875 160.6637725830078 C 186.4157257080078 7.31605863571167 241.313232421875 36.00471496582031 184.88845825195312 15.837851524353027 C 235.50698852539062 4.419777870178223 205.09814453125 59.01970672607422 246.73948669433594 137.83599853515625 C 216.43247985839844 47.38273239135742 215.0480499267578 -25.222049713134766 211.36546325683594 127.27388763427734" stroke-width="4.0" fill="none" stroke="rgb(254, 253, 254)" stroke-opacity="1.0" stroke-linecap="round" stroke-linejoin="round"/>
    <path d="M 143.3892059326172 207.03244018554688 C 149.304443359375 22.01657485961914 131.58609008789062 91.07887268066406 168.53033447265625 153.65325927734375" stroke-width="4.0" fill="none" stroke="rgb(83, 202, 36)" stroke-opacity="1.0" stroke-linecap="round" stroke-linejoin="round"/>
    <path d="M 76.20985412597656 25.88571548461914 C -36.32315444946289 33.51433563232422 -6.748280048370361 -15.240391731262207 44.324928283691406 101.10928344726562" stroke-width="4.0" fill="none" stroke="rgb(254, 254, 254)" stroke-opacity="0.9838534" stroke-linecap="round" stroke-linejoin="round"/>
    <path d="M 118.3128662109375 209.5701141357422 C 141.8824920654297 255.7098388671875 67.13516235351562 248.1724395751953 51.41824722290039 173.28118896484375 C 86.00957489013672 227.60443115234375 116.39974975585938 247.50938415527344 168.3494415283203 208.06422424316406" stroke-width="4.0" fill="none" stroke="rgb(255, 255, 255)" stroke-opacity="1.0" stroke-linecap="round" stroke-linejoin="round"/>
    <path d="M 122.00753021240234 205.3584442138672 C 95.58211517333984 105.69091033935547 92.71565246582031 84.87052917480469 128.7045135498047 182.1892852783203" stroke-width="4.0" fill="none" stroke="rgb(88, 208, 43)" stroke-opacity="1.0" stroke-linecap="round" stroke-linejoin="round"/>
    <path d="M 104.32987976074219 163.32823181152344 C 94.55426788330078 115.80352020263672 57.738101959228516 120.42848205566406 95.983642578125 129.43276977539062 C 102.0554428100586 81.60221862792969 97.69255828857422 27.15583610534668 87.94536590576172 148.04409790039062 C 124.33418273925781 180.95132446289062 77.21794128417969 138.53912353515625 77.7532958984375 89.24234771728516" stroke-width="4.0" fill="none" stroke="rgb(130, 226, 97)" stroke-opacity="0.94703245" stroke-linecap="round" stroke-linejoin="round"/>
    <path d="M 163.38775634765625 127.96758270263672 C 138.85560607910156 214.7643280029297 152.874755859375 240.23147583007812 163.13059997558594 155.56163024902344 C 211.182373046875 40.50564193725586 192.040283203125 120.3814468383789 166.56521606445312 201.77940368652344 C 208.59912109375 172.0858917236328 211.12997436523438 62.62166976928711 178.1125946044922 191.96548461914062" stroke-width="4.0" fill="none" stroke="rgb(66, 153, 32)" stroke-opacity="0.99554306" stroke-linecap="round" stroke-linejoin="round"/>
    <path d="M 46.75300979614258 20.87680435180664 C 67.40669250488281 54.726844787597656 4.1832499504089355 32.03714370727539 72.72067260742188 33.967716217041016" stroke-width="2.0" fill="none" stroke="rgb(255, 255, 255)" stroke-opacity="1.0" stroke-linecap="round" stroke-linejoin="round"/>
    <path d="M 65.22045135498047 91.66592407226562 C -17.812015533447266 56.52920913696289 -37.11880111694336 88.01786041259766 105.2156982421875 55.289852142333984 C -65.48993682861328 78.19774627685547 13.27492618560791 63.055118560791016 20.4222412109375 56.76909255981445 C 18.810789108276367 176.11636352539062 23.583904266357422 147.4956512451172 31.91762351989746 31.72886085510254" stroke-width="4.0" fill="none" stroke="rgb(254, 253, 254)" stroke-opacity="0.9829127" stroke-linecap="round" stroke-linejoin="round"/>
    <path d="M 202.5810546875 52.33226013183594 C 97.68201446533203 60.00185012817383 142.69483947753906 49.42803192138672 88.44377899169922 62.84217071533203 C 174.22976684570312 -19.696245193481445 157.86012268066406 -22.799253463745117 96.17208862304688 52.4755859375 C 182.10072326660156 48.720123291015625 182.6848602294922 57.89882278442383 152.33204650878906 60.386104583740234" stroke-width="4.0" fill="none" stroke="rgb(254, 253, 254)" stroke-opacity="1.0" stroke-linecap="round" stroke-linejoin="round"/>
    <path d="M 55.333518981933594 253.28126525878906 C 157.42514038085938 255.84390258789062 169.62110900878906 251.24049377441406 152.6141815185547 258.25006103515625 C 146.75006103515625 255.36929321289062 187.2905731201172 216.97726440429688 181.53863525390625 197.66880798339844 C 128.72775268554688 276.6536865234375 140.1546173095703 272.4725036621094 181.65859985351562 203.57199096679688" stroke-width="4.0" fill="none" stroke="rgb(255, 255, 255)" stroke-opacity="1.0" stroke-linecap="round" stroke-linejoin="round"/>
    <path d="M 191.79324340820312 270.75872802734375 C 176.00856018066406 238.3996124267578 150.2178955078125 242.82855224609375 176.40921020507812 250.7587127685547 C 200.57435607910156 194.51661682128906 190.89990234375 211.14402770996094 162.2640838623047 274.5948486328125" stroke-width="2.1511824131011963" fill="none" stroke="rgb(255, 255, 255)" stroke-opacity="0.9691085" stroke-linecap="round" stroke-linejoin="round"/>
    <path d="M 264.95263671875 252.68299865722656 C 245.09774780273438 247.49472045898438 209.1736297607422 250.89654541015625 154.4807891845703 249.92636108398438 C 131.36984252929688 254.95989990234375 135.777587890625 254.3300018310547 283.3895568847656 253.56800842285156 C 263.62451171875 238.8061065673828 190.11489868164062 252.06117248535156 136.76783752441406 239.25790405273438" stroke-width="4.0" fill="none" stroke="rgb(254, 254, 254)" stroke-opacity="1.0" stroke-linecap="round" stroke-linejoin="round"/>
    <path d="M 149.66452026367188 242.90835571289062 C 61.49584197998047 267.9902038574219 -12.802169799804688 222.4138946533203 99.74650573730469 249.94955444335938" stroke-width="2.3987529277801514" fill="none" stroke="rgb(255, 255, 255)" stroke-opacity="1.0" stroke-linecap="round" stroke-linejoin="round"/>
    <path d="M -1.9966548681259155 14.641220092773438 C 105.6172866821289 29.783666610717773 75.34415435791016 -2.400108814239502 48.312278747558594 53.47394943237305 C 102.12924194335938 -2.6479623317718506 33.46406555175781 25.990629196166992 41.58515548706055 90.01221466064453 C 93.28837585449219 -16.325056076049805 113.55645751953125 27.850021362304688 -2.11663818359375 10.603374481201172" stroke-width="4.0" fill="none" stroke="rgb(253, 253, 253)" stroke-opacity="1.0" stroke-linecap="round" stroke-linejoin="round"/>
    <path d="M 209.17213439941406 30.210521697998047 C 56.13055419921875 27.775419235229492 71.14972686767578 30.959495544433594 203.99522399902344 32.68927764892578" stroke-width="2.272516965866089" fill="none" stroke="rgb(255, 255, 255)" stroke-opacity="1.0" stroke-linecap="round" stroke-linejoin="round"/>
    <path d="M 80.977783203125 128.3522491455078 C 91.765869140625 62.40198516845703 70.39794921875 131.02532958984375 80.22715759277344 125.93246459960938 C 74.66412353515625 16.108243942260742 13.517348289489746 176.17776489257812 90.49700164794922 228.43067932128906" stroke-width="4.0" fill="none" stroke="rgb(234, 247, 231)" stroke-opacity="0.9114554" stroke-linecap="round" stroke-linejoin="round"/>
    <path d="M 67.85643768310547 247.90013122558594 C 34.95704650878906 163.84820556640625 87.36001586914062 244.4893035888672 56.50111389160156 262.2641906738281 C 57.12721633911133 169.50709533691406 35.87160873413086 236.66969299316406 114.69928741455078 246.2045440673828" stroke-width="2.277190685272217" fill="none" stroke="rgb(255, 255, 255)" stroke-opacity="1.0" stroke-linecap="round" stroke-linejoin="round"/>
    <path d="M 13.322912216186523 192.88401794433594 C 56.38545608520508 95.6221694946289 24.556325912475586 114.9275894165039 15.17566204071045 197.98707580566406" stroke-width="2.328801155090332" fill="none" stroke="rgb(254, 254, 255)" stroke-opacity="1.0" stroke-linecap="round" stroke-linejoin="round"/>
  </g>
</svg>
