<?xml version="1.0" ?>
<svg xmlns="http://www.w3.org/2000/svg" version="1.1" width="256" height="256">
  <defs/>
  <g>
    <path d="M 39.705467224121094 35.710296630859375 C 39.42195510864258 33.98318099975586 37.434391021728516 38.24721908569336 22.727216720581055 32.77556610107422 C 8.21104907989502 30.526865005493164 23.001445770263672 37.773406982421875 26.764026641845703 40.64533996582031" stroke-width="2.179628610610962" fill="none" stroke="rgb(123, 234, 234)" stroke-opacity="0.02218481" stroke-linecap="round" stroke-linejoin="round"/>
    <path d="M 1.4600967168807983 137.1716766357422 C 5.443706512451172 141.51455688476562 10.40882682800293 136.52992248535156 9.858386039733887 153.78515625" stroke-width="4.0" fill="none" stroke="rgb(166, 166, 167)" stroke-opacity="0.02190888" stroke-linecap="round" stroke-linejoin="round"/>
    <path d="M 143.65164184570312 126.04646301269531 C 87.35773468017578 154.6520538330078 124.91901397705078 153.34544372558594 93.0353012084961 79.66302490234375" stroke-width="4.0" fill="none" stroke="rgb(230, 13, 0)" stroke-opacity="0.47717914" stroke-linecap="round" stroke-linejoin="round"/>
    <path d="M 10.222921371459961 86.54034423828125 C 10.062009811401367 86.49451446533203 10.233643531799316 86.7602767944336 10.224782943725586 86.53194427490234" stroke-width="2.0" fill="none" stroke="rgb(174, 216, 223)" stroke-opacity="0.21406494" stroke-linecap="round" stroke-linejoin="round"/>
    <path d="M 5.2931108474731445 37.78458023071289 C 6.845424175262451 107.70155334472656 2.8731980323791504 112.83275604248047 15.837911605834961 115.29048919677734 C 37.60881042480469 89.87678527832031 39.7323112487793 118.07711791992188 7.1158766746521 119.13265228271484" stroke-width="4.0" fill="none" stroke="rgb(144, 142, 143)" stroke-opacity="0.018763926" stroke-linecap="round" stroke-linejoin="round"/>
    <path d="M 28.90688133239746 221.65455627441406 C 26.228628158569336 222.10287475585938 29.23371696472168 221.57748413085938 29.55494499206543 222.55935668945312 C 25.791934967041016 219.37371826171875 29.84745979309082 222.82847595214844 34.59095001220703 225.5420379638672 C 28.312406539916992 223.3100128173828 26.39949607849121 219.7719268798828 28.49534034729004 219.39942932128906" stroke-width="2.0050745010375977" fill="none" stroke="rgb(250, 199, 249)" stroke-opacity="0.058696292" stroke-linecap="round" stroke-linejoin="round"/>
    <path d="M 264.0023193359375 81.84526824951172 C 261.4014892578125 73.66809844970703 265.17108154296875 76.3512191772461 268.2405090332031 73.55964660644531 C 261.49810791015625 81.58775329589844 260.9806213378906 78.2127456665039 264.8019104003906 83.72068786621094 C 262.18426513671875 87.81492614746094 265.392822265625 89.3258285522461 262.1996765136719 88.99637603759766" stroke-width="2.0" fill="none" stroke="rgb(105, 54, 246)" stroke-opacity="0.887581" stroke-linecap="round" stroke-linejoin="round"/>
    <path d="M 91.4267807006836 34.23656463623047 C 92.06256866455078 38.44340896606445 91.4175796508789 36.98853302001953 91.44871520996094 30.222209930419922 C 91.50201416015625 36.25930404663086 91.36080169677734 31.444488525390625 91.48506164550781 32.41851806640625" stroke-width="2.0" fill="none" stroke="rgb(233, 126, 237)" stroke-opacity="0.010775401" stroke-linecap="round" stroke-linejoin="round"/>
    <path d="M 133.68727111816406 245.5166015625 C 133.0044708251953 245.465087890625 134.46075439453125 245.49771118164062 133.1394805908203 245.47909545898438 C 133.79991149902344 245.50648498535156 137.03125 245.4927978515625 134.88003540039062 245.48475646972656" stroke-width="2.0" fill="none" stroke="rgb(255, 252, 184)" stroke-opacity="0.29770797" stroke-linecap="round" stroke-linejoin="round"/>
    <path d="M 65.94450378417969 170.0629119873047 C 39.52349853515625 115.8403091430664 73.0019760131836 87.49678039550781 77.11361694335938 87.52783203125 C 47.53553009033203 129.68576049804688 55.433128356933594 148.37855529785156 62.945159912109375 107.48716735839844" stroke-width="3.9471118450164795" fill="none" stroke="rgb(35, 23, 18)" stroke-opacity="0.9710373" stroke-linecap="round" stroke-linejoin="round"/>
    <path d="M 162.64447021484375 185.76991271972656 C 137.7633819580078 211.00071716308594 153.8740234375 201.14581298828125 166.7213897705078 144.92637634277344 C 146.57180786132812 186.2560272216797 138.99566650390625 242.42315673828125 133.67889404296875 169.31251525878906" stroke-width="4.0" fill="none" stroke="rgb(162, 24, 25)" stroke-opacity="1.0" stroke-linecap="round" stroke-linejoin="round"/>
    <path d="M 140.28060913085938 195.5938262939453 C 125.12692260742188 65.14282989501953 136.1087188720703 59.556488037109375 139.10394287109375 159.80296325683594 C 142.6881103515625 144.09564208984375 147.55374145507812 92.70417022705078 119.94347381591797 92.85980224609375" stroke-width="4.0" fill="none" stroke="rgb(214, 34, 32)" stroke-opacity="0.93947715" stroke-linecap="round" stroke-linejoin="round"/>
    <path d="M 254.8607635498047 168.3790283203125 C 245.15255737304688 169.4447479248047 249.6085205078125 171.8038787841797 248.4064483642578 127.3796157836914" stroke-width="4.0" fill="none" stroke="rgb(163, 166, 166)" stroke-opacity="0.022843193" stroke-linecap="round" stroke-linejoin="round"/>
    <path d="M 22.54960060119629 237.93463134765625 C 21.358060836791992 236.0288543701172 26.079444885253906 236.95484924316406 20.874135971069336 233.88905334472656 C 24.396360397338867 236.7991943359375 28.82876205444336 237.80104064941406 24.96419906616211 237.5036163330078 C 26.8963565826416 237.7469482421875 25.875532150268555 237.75437927246094 25.979000091552734 237.32351684570312" stroke-width="2.0298988819122314" fill="none" stroke="rgb(243, 129, 217)" stroke-opacity="0.023165096" stroke-linecap="round" stroke-linejoin="round"/>
    <path d="M 145.58412170410156 90.88941192626953 C 135.25221252441406 118.18216705322266 145.93319702148438 130.5361328125 178.9119110107422 134.4739227294922 C 120.3373031616211 86.62094116210938 147.37298583984375 98.84156036376953 178.1224365234375 129.86715698242188 C 149.1267547607422 125.91525268554688 154.09133911132812 126.94973754882812 129.21214294433594 91.39241027832031" stroke-width="4.0" fill="none" stroke="rgb(219, 45, 44)" stroke-opacity="1.0" stroke-linecap="round" stroke-linejoin="round"/>
    <path d="M 257.398193359375 7.730046272277832 C 254.59483337402344 8.869742393493652 257.2795715332031 7.420175075531006 258.7919006347656 6.576972007751465 C 253.29307556152344 8.233953475952148 257.01971435546875 6.111937522888184 265.3251037597656 8.987293243408203 C 255.52651977539062 8.979887008666992 261.1390686035156 10.258295059204102 259.3669128417969 13.189837455749512" stroke-width="2.0023696422576904" fill="none" stroke="rgb(129, 158, 148)" stroke-opacity="0.010284114" stroke-linecap="round" stroke-linejoin="round"/>
    <path d="M 152.5829315185547 53.387916564941406 C 154.17715454101562 52.949951171875 137.537353515625 49.12165832519531 140.39085388183594 50.400577545166016 C 140.3047637939453 50.48973846435547 140.01759338378906 50.369361877441406 140.3880157470703 49.189273834228516" stroke-width="2.004781484603882" fill="none" stroke="rgb(165, 128, 250)" stroke-opacity="0.011739992" stroke-linecap="round" stroke-linejoin="round"/>
    <path d="M 57.537200927734375 65.301025390625 C 55.16307830810547 70.3963394165039 51.39818572998047 60.8131103515625 57.76311492919922 62.508445739746094" stroke-width="2.215791702270508" fill="none" stroke="rgb(235, 226, 230)" stroke-opacity="0.036971316" stroke-linecap="round" stroke-linejoin="round"/>
    <path d="M 180.1334991455078 155.52981567382812 C 175.97499084472656 212.02967834472656 156.1474609375 163.7236785888672 192.71421813964844 164.44265747070312 C 181.21792602539062 191.73667907714844 162.20657348632812 217.36521911621094 167.64585876464844 178.28175354003906 C 147.82667541503906 172.54592895507812 179.01695251464844 199.59912109375 153.86444091796875 204.02957153320312" stroke-width="3.9956555366516113" fill="none" stroke="rgb(42, 18, 15)" stroke-opacity="0.9551912" stroke-linecap="round" stroke-linejoin="round"/>
    <path d="M 238.16188049316406 25.705963134765625 C 242.0011444091797 24.94443702697754 237.286376953125 25.986148834228516 244.48574829101562 25.452028274536133 C 242.41322326660156 26.20258140563965 243.35227966308594 24.9063777923584 239.46836853027344 25.624494552612305" stroke-width="2.0258381366729736" fill="none" stroke="rgb(76, 226, 127)" stroke-opacity="0.016689237" stroke-linecap="round" stroke-linejoin="round"/>
    <path d="M 258.2865905761719 259.859375 C 258.0052185058594 259.025390625 251.88409423828125 260.7811279296875 255.9097900390625 265.3107604980469 C 243.33966064453125 262.488037109375 241.4337921142578 270.29425048828125 244.46441650390625 263.47393798828125" stroke-width="2.0" fill="none" stroke="rgb(255, 108, 173)" stroke-opacity="0.20025174" stroke-linecap="round" stroke-linejoin="round"/>
    <path d="M 210.48397827148438 136.0219268798828 C 212.8722381591797 135.79026794433594 212.54531860351562 135.40753173828125 207.6659393310547 135.8544464111328 C 212.60972595214844 136.30526733398438 215.33934020996094 136.0502471923828 204.77232360839844 136.60791015625 C 213.06373596191406 135.8041534423828 208.3838653564453 136.67457580566406 208.9724884033203 136.0067138671875" stroke-width="2.0054996013641357" fill="none" stroke="rgb(168, 235, 168)" stroke-opacity="0.039035708" stroke-linecap="round" stroke-linejoin="round"/>
    <path d="M 69.20372772216797 200.01295471191406 C 89.3983383178711 226.99293518066406 99.22283935546875 212.78163146972656 104.52262878417969 231.01358032226562 C 65.6765365600586 237.12466430664062 77.81044006347656 223.05621337890625 97.36629486083984 223.5140380859375 C 106.03530883789062 188.93441772460938 104.44017791748047 207.21514892578125 108.31342315673828 232.84170532226562" stroke-width="4.0" fill="none" stroke="rgb(145, 200, 202)" stroke-opacity="0.023758383" stroke-linecap="round" stroke-linejoin="round"/>
    <path d="M 248.78775024414062 113.49479675292969 C 225.3258514404297 113.46212005615234 231.17601013183594 113.03775024414062 235.64404296875 115.57837677001953 C 229.70187377929688 115.40005493164062 231.98623657226562 112.90045166015625 231.4285888671875 131.95538330078125" stroke-width="2.6722919940948486" fill="none" stroke="rgb(107, 151, 94)" stroke-opacity="0.014777404" stroke-linecap="round" stroke-linejoin="round"/>
    <path d="M 180.28424072265625 91.81271362304688 C 135.2178192138672 102.39501953125 158.33123779296875 117.14077758789062 185.20542907714844 90.05171203613281 C 179.3269500732422 90.26494598388672 188.46908569335938 112.9726333618164 156.42262268066406 101.52083587646484 C 160.7494354248047 108.66659545898438 173.24319458007812 110.09503173828125 189.66943359375 132.7572479248047" stroke-width="4.0" fill="none" stroke="rgb(164, 0, 1)" stroke-opacity="0.7968188" stroke-linecap="round" stroke-linejoin="round"/>
    <path d="M 113.734375 24.187255859375 C 212.0048828125 27.202951431274414 201.76622009277344 8.135651588439941 201.1649932861328 103.85785675048828 C 168.6565399169922 25.425365447998047 180.15994262695312 30.532617568969727 235.872802734375 44.56999206542969" stroke-width="4.0" fill="none" stroke="rgb(196, 194, 194)" stroke-opacity="0.030526834" stroke-linecap="round" stroke-linejoin="round"/>
    <path d="M 2.4775848388671875 64.89872741699219 C 2.8543057441711426 63.07876205444336 0.7525102496147156 65.19863891601562 2.214190721511841 65.82815551757812 C -9.990303039550781 63.6536750793457 -1.154247522354126 64.39612579345703 -11.2299165725708 65.43717956542969" stroke-width="2.0124082565307617" fill="none" stroke="rgb(198, 99, 154)" stroke-opacity="0.017855538" stroke-linecap="round" stroke-linejoin="round"/>
    <path d="M 129.4872283935547 98.83124542236328 C 63.367313385009766 90.76783752441406 48.23634338378906 94.82322692871094 104.53716278076172 100.47688293457031" stroke-width="4.0" fill="none" stroke="rgb(234, 84, 75)" stroke-opacity="1.0" stroke-linecap="round" stroke-linejoin="round"/>
    <path d="M 188.40814208984375 128.8257598876953 C 183.465087890625 75.72216033935547 156.61981201171875 107.60667419433594 195.20242309570312 124.57654571533203 C 164.1209716796875 152.9442138671875 169.90887451171875 164.7059783935547 200.28831481933594 122.2741470336914 C 185.7347412109375 152.7622528076172 178.82318115234375 148.93482971191406 161.5500946044922 185.2645721435547" stroke-width="4.0" fill="none" stroke="rgb(147, 23, 23)" stroke-opacity="0.9973752" stroke-linecap="round" stroke-linejoin="round"/>
    <path d="M 168.27847290039062 86.23077392578125 C 85.45823669433594 72.729248046875 140.626220703125 139.1229705810547 124.44216918945312 102.49893188476562 C 130.90866088867188 70.95169067382812 125.25760650634766 73.5884780883789 131.33734130859375 151.76759338378906 C 123.27806854248047 102.66681671142578 106.99017333984375 84.50446319580078 109.37519073486328 77.82888793945312" stroke-width="4.0" fill="none" stroke="rgb(222, 37, 28)" stroke-opacity="0.7738687" stroke-linecap="round" stroke-linejoin="round"/>
    <path d="M 125.53474426269531 204.4051513671875 C 127.83340454101562 112.35435485839844 137.63330078125 115.08319854736328 128.29098510742188 203.2130889892578 C 136.1437530517578 213.75868225097656 142.8672332763672 148.67999267578125 78.47948455810547 156.48760986328125" stroke-width="4.0" fill="none" stroke="rgb(189, 17, 19)" stroke-opacity="0.94334203" stroke-linecap="round" stroke-linejoin="round"/>
    <path d="M 69.23114776611328 166.8837432861328 C 149.43533325195312 206.54856872558594 141.4818115234375 220.09408569335938 71.74816131591797 175.70822143554688 C 100.52216339111328 168.97230529785156 130.73199462890625 160.66131591796875 67.90899658203125 171.59210205078125 C 66.26026153564453 158.4999542236328 56.97651672363281 157.4435577392578 124.26139831542969 168.60093688964844" stroke-width="4.0" fill="none" stroke="rgb(195, 29, 31)" stroke-opacity="1.0" stroke-linecap="round" stroke-linejoin="round"/>
    <path d="M 99.19915771484375 24.990135192871094 C 120.48130798339844 5.702589511871338 103.05525970458984 11.834784507751465 26.292747497558594 10.06729793548584 C 106.72513580322266 -6.748102188110352 93.99861907958984 -0.9666131138801575 72.52392578125 77.51771545410156 C 104.99827575683594 16.14055061340332 102.71521759033203 -4.611787796020508 92.09805297851562 5.823424816131592" stroke-width="4.0" fill="none" stroke="rgb(173, 171, 172)" stroke-opacity="0.02242799" stroke-linecap="round" stroke-linejoin="round"/>
    <path d="M 16.21613121032715 147.22052001953125 C 91.22022247314453 174.75991821289062 84.87586975097656 162.0762176513672 11.434868812561035 164.34584045410156" stroke-width="3.0923798084259033" fill="none" stroke="rgb(5, 0, 0)" stroke-opacity="0.014715984" stroke-linecap="round" stroke-linejoin="round"/>
    <path d="M 94.28620910644531 157.20919799804688 C 86.89813232421875 110.76998138427734 79.83757019042969 141.48190307617188 119.98713684082031 148.3374481201172 C 62.065006256103516 140.65965270996094 92.3026351928711 165.3402557373047 81.0554428100586 130.45309448242188 C 100.47296905517578 146.74948120117188 63.80934524536133 151.03805541992188 129.869384765625 151.6074981689453" stroke-width="4.0" fill="none" stroke="rgb(227, 63, 56)" stroke-opacity="0.96549326" stroke-linecap="round" stroke-linejoin="round"/>
    <path d="M 171.57298278808594 61.207786560058594 C 171.82427978515625 62.930973052978516 170.69552612304688 67.93865966796875 173.6888427734375 63.77267837524414 C 175.892822265625 65.27291107177734 169.11163330078125 71.74118041992188 170.8356170654297 70.85547637939453" stroke-width="2.160137891769409" fill="none" stroke="rgb(115, 171, 207)" stroke-opacity="0.014313386" stroke-linecap="round" stroke-linejoin="round"/>
    <path d="M 250.06605529785156 58.1202392578125 C 248.70358276367188 56.44984817504883 251.6918487548828 59.43122100830078 251.22398376464844 59.30788040161133 C 244.70765686035156 52.948848724365234 243.26548767089844 49.59149932861328 243.7836151123047 55.02180862426758 C 244.25637817382812 49.94193649291992 245.26483154296875 56.373138427734375 245.02406311035156 53.17672348022461" stroke-width="2.267838954925537" fill="none" stroke="rgb(243, 210, 215)" stroke-opacity="0.041146506" stroke-linecap="round" stroke-linejoin="round"/>
    <path d="M 47.46825408935547 246.39317321777344 C 47.8922119140625 246.79629516601562 46.6290168762207 255.77452087402344 50.509368896484375 246.65550231933594" stroke-width="2.3186113834381104" fill="none" stroke="rgb(226, 243, 239)" stroke-opacity="0.037592527" stroke-linecap="round" stroke-linejoin="round"/>
    <path d="M 197.3992156982422 32.56385803222656 C 197.40475463867188 32.618656158447266 197.51361083984375 32.773555755615234 197.43836975097656 32.6002311706543" stroke-width="2.0" fill="none" stroke="rgb(202, 255, 198)" stroke-opacity="0.34406346" stroke-linecap="round" stroke-linejoin="round"/>
    <path d="M 91.32975769042969 66.80593872070312 C 91.50936889648438 67.43357849121094 90.49961853027344 67.49392700195312 90.82841491699219 66.79613494873047" stroke-width="2.0032646656036377" fill="none" stroke="rgb(199, 177, 196)" stroke-opacity="0.08802512" stroke-linecap="round" stroke-linejoin="round"/>
    <path d="M 65.75575256347656 163.11451721191406 C 102.61747741699219 171.0447540283203 98.01788330078125 157.9114532470703 126.6516342163086 200.79083251953125 C 80.18595886230469 149.75279235839844 63.717891693115234 148.5128631591797 128.81851196289062 205.43716430664062 C 47.45127868652344 152.2619171142578 59.93422317504883 180.35093688964844 117.4649887084961 205.1185302734375" stroke-width="4.0" fill="none" stroke="rgb(193, 30, 32)" stroke-opacity="0.9983072" stroke-linecap="round" stroke-linejoin="round"/>
    <path d="M 98.00203704833984 10.232307434082031 C 98.30970764160156 8.528711318969727 101.87312316894531 12.860516548156738 100.7091293334961 11.986405372619629" stroke-width="2.04313588142395" fill="none" stroke="rgb(252, 255, 255)" stroke-opacity="0.19220717" stroke-linecap="round" stroke-linejoin="round"/>
    <path d="M 179.66310119628906 1.2836476564407349 C 179.23318481445312 2.1563069820404053 180.0966033935547 1.4912312030792236 178.15573120117188 1.4721943140029907" stroke-width="2.086060047149658" fill="none" stroke="rgb(246, 171, 230)" stroke-opacity="0.029530441" stroke-linecap="round" stroke-linejoin="round"/>
    <path d="M 77.30803680419922 179.8618621826172 C 22.403894424438477 209.82260131835938 6.611044406890869 195.3884735107422 6.840042591094971 154.97299194335938 C 27.78585433959961 199.32688903808594 11.266969680786133 178.42469787597656 69.25360870361328 161.50543212890625 C 12.120722770690918 203.16433715820312 -0.032634034752845764 210.59080505371094 2.7294516563415527 151.25428771972656" stroke-width="4.0" fill="none" stroke="rgb(78, 132, 124)" stroke-opacity="0.012541443" stroke-linecap="round" stroke-linejoin="round"/>
    <path d="M 90.96792602539062 49.31943893432617 C 93.90460968017578 51.84674835205078 92.48029327392578 54.00531005859375 87.3390121459961 46.95573043823242 C 89.6317138671875 46.794883728027344 81.26366424560547 44.764869689941406 85.54276275634766 38.11244583129883 C 87.10248565673828 25.594072341918945 80.45011901855469 27.21113395690918 82.51713562011719 27.577138900756836" stroke-width="2.07731556892395" fill="none" stroke="rgb(237, 240, 169)" stroke-opacity="0.017534636" stroke-linecap="round" stroke-linejoin="round"/>
    <path d="M 167.77874755859375 200.5459442138672 C 204.88180541992188 153.18179321289062 193.9146728515625 149.9799041748047 164.70233154296875 200.1141815185547" stroke-width="4.0" fill="none" stroke="rgb(167, 37, 37)" stroke-opacity="0.95723844" stroke-linecap="round" stroke-linejoin="round"/>
    <path d="M 231.9681854248047 159.05859375 C 230.81654357910156 160.98223876953125 232.61602783203125 164.67706298828125 230.62600708007812 163.43270874023438 C 230.81312561035156 162.5014190673828 229.90235900878906 157.60067749023438 231.1182098388672 161.4639434814453" stroke-width="2.024090528488159" fill="none" stroke="rgb(225, 87, 158)" stroke-opacity="0.010467157" stroke-linecap="round" stroke-linejoin="round"/>
    <path d="M 160.60211181640625 201.72854614257812 C 109.19931030273438 203.7312774658203 119.36347961425781 147.23846435546875 127.23712921142578 115.21194458007812 C 140.7241668701172 202.7701416015625 144.0312957763672 163.6976776123047 89.25492095947266 123.8746337890625" stroke-width="4.0" fill="none" stroke="rgb(212, 32, 30)" stroke-opacity="0.56641316" stroke-linecap="round" stroke-linejoin="round"/>
    <path d="M 174.8717041015625 106.64664459228516 C 163.5433807373047 77.6305160522461 182.7267608642578 64.3133773803711 155.0770263671875 39.54074478149414 C 176.86056518554688 39.25325393676758 178.19163513183594 26.782066345214844 179.73587036132812 66.42778778076172" stroke-width="4.0" fill="none" stroke="rgb(47, 76, 33)" stroke-opacity="0.011229771" stroke-linecap="round" stroke-linejoin="round"/>
    <path d="M 189.36199951171875 216.3256378173828 C 189.48797607421875 213.27481079101562 189.33399963378906 215.5102996826172 179.33917236328125 224.90478515625 C 172.9231414794922 213.5658721923828 165.84202575683594 211.41806030273438 188.6298370361328 213.40318298339844 C 182.3975830078125 212.44302368164062 180.27511596679688 213.8164520263672 189.46865844726562 212.57582092285156" stroke-width="2.946319341659546" fill="none" stroke="rgb(216, 222, 217)" stroke-opacity="0.038663108" stroke-linecap="round" stroke-linejoin="round"/>
    <path d="M 162.6814727783203 175.6705322265625 C 182.90902709960938 140.85943603515625 173.04592895507812 125.12139129638672 198.4757537841797 114.71881103515625 C 164.10995483398438 164.0784912109375 181.12208557128906 185.1448211669922 143.84625244140625 124.26671600341797" stroke-width="4.0" fill="none" stroke="rgb(153, 23, 24)" stroke-opacity="0.9957869" stroke-linecap="round" stroke-linejoin="round"/>
    <path d="M 50.7108268737793 37.08150100708008 C 41.06970977783203 33.5827751159668 40.821109771728516 31.527074813842773 49.75880432128906 29.9330997467041 C 64.68688201904297 23.959423065185547 54.08634948730469 24.623323440551758 43.00918960571289 22.21875 C 47.36466979980469 22.19903564453125 42.847312927246094 21.042726516723633 27.06562042236328 21.021596908569336" stroke-width="3.402601718902588" fill="none" stroke="rgb(137, 109, 116)" stroke-opacity="0.015455482" stroke-linecap="round" stroke-linejoin="round"/>
    <path d="M 159.0028076171875 160.85845947265625 C 178.94471740722656 111.17020416259766 190.55447387695312 114.34065246582031 146.14039611816406 96.45515441894531 C 186.78494262695312 97.6419448852539 187.55926513671875 104.76863098144531 168.16893005371094 158.02865600585938" stroke-width="4.0" fill="none" stroke="rgb(174, 29, 29)" stroke-opacity="0.96007663" stroke-linecap="round" stroke-linejoin="round"/>
    <path d="M 127.71287536621094 150.11024475097656 C 94.52899169921875 74.19939422607422 122.26801300048828 96.65279388427734 76.57112121582031 89.86333465576172" stroke-width="4.0" fill="none" stroke="rgb(226, 30, 21)" stroke-opacity="0.763859" stroke-linecap="round" stroke-linejoin="round"/>
    <path d="M 170.24679565429688 17.376256942749023 C 166.1839599609375 18.66914176940918 159.44540405273438 15.008077621459961 153.14886474609375 20.357637405395508 C 156.75234985351562 25.54993438720703 152.67361450195312 27.17376136779785 153.55227661132812 26.748844146728516 C 156.95761108398438 22.79641342163086 152.6240997314453 27.04987144470215 153.53904724121094 27.8479061126709" stroke-width="2.229090690612793" fill="none" stroke="rgb(221, 209, 83)" stroke-opacity="0.016013691" stroke-linecap="round" stroke-linejoin="round"/>
    <path d="M -6.422474384307861 211.88206481933594 C -7.2110724449157715 211.8997039794922 -7.415202617645264 213.72030639648438 -7.534022808074951 224.88385009765625" stroke-width="2.0" fill="none" stroke="rgb(214, 101, 107)" stroke-opacity="0.55025154" stroke-linecap="round" stroke-linejoin="round"/>
    <path d="M 85.84168243408203 86.03746032714844 C 162.3971710205078 66.37881469726562 167.562744140625 88.89551544189453 77.59307861328125 87.16793823242188 C 96.75973510742188 66.07561492919922 197.4806671142578 86.13582611083984 101.04815673828125 91.2899398803711" stroke-width="4.0" fill="none" stroke="rgb(143, 46, 42)" stroke-opacity="0.87611747" stroke-linecap="round" stroke-linejoin="round"/>
    <path d="M 163.82437133789062 127.01287841796875 C 144.26263427734375 110.60238647460938 144.4968719482422 110.8275146484375 132.20924377441406 83.75294494628906 C 138.57675170898438 98.9176254272461 154.5845947265625 98.63141632080078 183.45526123046875 130.85252380371094" stroke-width="4.0" fill="none" stroke="rgb(211, 43, 41)" stroke-opacity="0.9770783" stroke-linecap="round" stroke-linejoin="round"/>
    <path d="M 193.88182067871094 207.21533203125 C 192.97921752929688 206.60304260253906 196.15625 206.91366577148438 195.28196716308594 207.1331024169922" stroke-width="2.0535826683044434" fill="none" stroke="rgb(226, 251, 238)" stroke-opacity="0.13073757" stroke-linecap="round" stroke-linejoin="round"/>
    <path d="M 225.01177978515625 97.96536254882812 C 225.0120391845703 98.53248596191406 224.93577575683594 96.33122253417969 227.70108032226562 102.95819091796875 C 225.73841857910156 96.0090560913086 224.42108154296875 97.84003448486328 224.6238555908203 98.22660064697266" stroke-width="2.0283217430114746" fill="none" stroke="rgb(182, 252, 249)" stroke-opacity="0.047940325" stroke-linecap="round" stroke-linejoin="round"/>
    <path d="M 133.72544860839844 172.0974884033203 C 94.9524917602539 140.00767517089844 80.16238403320312 148.67079162597656 103.24713897705078 203.71060180664062" stroke-width="4.0" fill="none" stroke="rgb(203, 35, 37)" stroke-opacity="1.0" stroke-linecap="round" stroke-linejoin="round"/>
    <path d="M 78.36324310302734 128.47698974609375 C 68.4341812133789 89.25607299804688 63.35161590576172 101.39608001708984 78.19263458251953 88.34114074707031 C 59.08855056762695 102.3384780883789 63.96762466430664 109.60466003417969 118.42239379882812 100.12239837646484 C 59.103633880615234 122.50511932373047 66.04083251953125 91.19957733154297 65.92703247070312 109.09382629394531" stroke-width="4.0" fill="none" stroke="rgb(234, 36, 14)" stroke-opacity="0.23211582" stroke-linecap="round" stroke-linejoin="round"/>
    <path d="M 243.73019409179688 178.82025146484375 C 243.84429931640625 176.78662109375 245.26612854003906 176.84300231933594 244.728515625 187.78121948242188 C 245.92684936523438 182.00094604492188 245.5160675048828 185.3885040283203 243.72442626953125 183.9127960205078" stroke-width="2.0464649200439453" fill="none" stroke="rgb(251, 248, 242)" stroke-opacity="0.07226691" stroke-linecap="round" stroke-linejoin="round"/>
    <path d="M 35.13569259643555 106.70726776123047 C 39.59744644165039 104.96390533447266 40.415435791015625 117.20513153076172 39.268226623535156 112.13873291015625" stroke-width="2.0" fill="none" stroke="rgb(252, 252, 253)" stroke-opacity="0.037503183" stroke-linecap="round" stroke-linejoin="round"/>
    <path d="M 57.573726654052734 182.40789794921875 C 60.47908401489258 228.30960083007812 19.838199615478516 216.50218200683594 64.15560150146484 256.55633544921875 C 68.30017852783203 172.67222595214844 64.33370971679688 179.65350341796875 52.28185272216797 240.80247497558594" stroke-width="4.0" fill="none" stroke="rgb(183, 182, 183)" stroke-opacity="0.027311638" stroke-linecap="round" stroke-linejoin="round"/>
    <path d="M 160.34628295898438 102.74433898925781 C 188.7843780517578 84.62870788574219 204.8306121826172 98.56914520263672 139.50262451171875 92.01670837402344 C 156.40025329589844 89.31934356689453 189.34890747070312 84.46543884277344 181.19110107421875 90.04069519042969 C 127.20736694335938 90.03763580322266 126.58470153808594 102.13934326171875 171.68141174316406 82.69135284423828" stroke-width="3.962446928024292" fill="none" stroke="rgb(172, 32, 31)" stroke-opacity="0.99295735" stroke-linecap="round" stroke-linejoin="round"/>
    <path d="M 160.2530517578125 60.541351318359375 C 160.33779907226562 60.65883255004883 160.24652099609375 60.50229263305664 160.2276611328125 60.58818817138672" stroke-width="2.0" fill="none" stroke="rgb(162, 199, 228)" stroke-opacity="0.08899655" stroke-linecap="round" stroke-linejoin="round"/>
    <path d="M 164.7156524658203 72.94436645507812 C 156.87013244628906 67.90010833740234 159.05587768554688 69.34483337402344 169.70457458496094 70.97435760498047 C 157.40985107421875 64.63849639892578 156.1417236328125 50.202632904052734 163.1916961669922 61.03214645385742" stroke-width="2.486769914627075" fill="none" stroke="rgb(104, 194, 221)" stroke-opacity="0.016221397" stroke-linecap="round" stroke-linejoin="round"/>
    <path d="M 92.685791015625 81.0858383178711 C 60.59831237792969 91.0230484008789 49.8909912109375 123.07701110839844 63.18181228637695 160.37852478027344 C 98.8569564819336 115.8446044921875 30.261201858520508 89.3134536743164 98.60643005371094 104.7908706665039" stroke-width="4.0" fill="none" stroke="rgb(218, 149, 140)" stroke-opacity="0.9380712" stroke-linecap="round" stroke-linejoin="round"/>
    <path d="M 49.838890075683594 251.37586975097656 C 57.094791412353516 243.02969360351562 51.97687911987305 249.4548797607422 52.8494987487793 245.455078125 C 50.59853744506836 245.16644287109375 53.80366516113281 245.0574951171875 51.0830078125 245.0920867919922 C 52.71298599243164 250.14181518554688 50.4559211730957 251.3420867919922 50.65644454956055 247.67071533203125" stroke-width="2.178346872329712" fill="none" stroke="rgb(250, 249, 252)" stroke-opacity="0.10639453" stroke-linecap="round" stroke-linejoin="round"/>
    <path d="M 98.69783020019531 203.0474090576172 C 74.04415130615234 151.83120727539062 105.7536849975586 152.37384033203125 124.9415512084961 195.14064025878906 C 111.46786499023438 149.3853759765625 119.9771957397461 168.6943817138672 62.85124588012695 153.1441650390625" stroke-width="4.0" fill="none" stroke="rgb(194, 29, 31)" stroke-opacity="1.0" stroke-linecap="round" stroke-linejoin="round"/>
    <path d="M 57.9498405456543 31.283906936645508 C 54.882808685302734 32.29975128173828 54.61005401611328 26.009565353393555 60.79243087768555 34.248252868652344 C 66.95462799072266 47.58750915527344 66.79157257080078 33.76025390625 59.69093704223633 26.841211318969727" stroke-width="3.170883893966675" fill="none" stroke="rgb(182, 226, 168)" stroke-opacity="0.023311611" stroke-linecap="round" stroke-linejoin="round"/>
    <path d="M 193.2549285888672 222.17495727539062 C 194.36190795898438 220.2469024658203 192.18988037109375 222.2698211669922 194.62173461914062 221.3661346435547 C 196.14508056640625 220.21673583984375 191.96067810058594 224.31890869140625 191.9903106689453 224.25868225097656 C 190.7786407470703 222.5924072265625 191.80245971679688 223.10592651367188 191.2793731689453 222.27586364746094" stroke-width="2.0113916397094727" fill="none" stroke="rgb(124, 128, 209)" stroke-opacity="0.019990437" stroke-linecap="round" stroke-linejoin="round"/>
    <path d="M 142.0982666015625 189.11209106445312 C 172.56198120117188 88.0937271118164 186.0290985107422 118.62789916992188 152.87335205078125 135.0997314453125 C 137.7910614013672 182.2745819091797 143.2909393310547 169.77584838867188 149.30880737304688 126.17280578613281" stroke-width="4.0" fill="none" stroke="rgb(194, 32, 33)" stroke-opacity="1.0" stroke-linecap="round" stroke-linejoin="round"/>
    <path d="M 104.57772827148438 174.34140014648438 C 60.59967041015625 166.83714294433594 41.20227813720703 133.29180908203125 39.1700553894043 135.2658233642578 C 23.963727951049805 144.06027221679688 27.17707633972168 140.200927734375 26.983264923095703 149.8465118408203" stroke-width="2.508699417114258" fill="none" stroke="rgb(71, 0, 0)" stroke-opacity="0.013329168" stroke-linecap="round" stroke-linejoin="round"/>
    <path d="M 106.51111602783203 234.71392822265625 C 107.92189025878906 234.73199462890625 103.27203369140625 234.87094116210938 109.76932525634766 234.70938110351562 C 103.96939849853516 234.8738250732422 107.50479888916016 234.75596618652344 106.54010009765625 234.7462615966797" stroke-width="2.0" fill="none" stroke="rgb(252, 250, 197)" stroke-opacity="0.16603722" stroke-linecap="round" stroke-linejoin="round"/>
    <path d="M -6.9736785888671875 148.866455078125 C 6.947464942932129 147.79295349121094 6.244678974151611 148.09397888183594 11.741514205932617 154.69647216796875 C 8.200394630432129 150.47384643554688 9.219132423400879 151.54849243164062 9.19685173034668 151.6385955810547" stroke-width="2.003483533859253" fill="none" stroke="rgb(248, 248, 169)" stroke-opacity="0.02462304" stroke-linecap="round" stroke-linejoin="round"/>
    <path d="M 151.23887634277344 72.94660186767578 C 161.90208435058594 76.65110778808594 160.4511260986328 65.26202392578125 151.44752502441406 69.13207244873047 C 157.0447540283203 73.88706970214844 163.51693725585938 71.77877807617188 160.63848876953125 72.31687927246094" stroke-width="2.332596778869629" fill="none" stroke="rgb(81, 63, 175)" stroke-opacity="0.0157203" stroke-linecap="round" stroke-linejoin="round"/>
    <path d="M 33.726200103759766 118.62191772460938 C 35.16504669189453 118.77613067626953 32.86931610107422 119.35416412353516 34.26449203491211 119.30493927001953" stroke-width="2.013209581375122" fill="none" stroke="rgb(246, 187, 215)" stroke-opacity="0.079510346" stroke-linecap="round" stroke-linejoin="round"/>
    <path d="M -2.2529897689819336 103.53346252441406 C 1.248511552810669 101.43370056152344 -2.088984251022339 103.7731704711914 -0.9596176147460938 98.58474731445312 C -2.353292942047119 103.8724365234375 -2.0617635250091553 107.35771942138672 -1.341371774673462 104.43911743164062" stroke-width="2.000000238418579" fill="none" stroke="rgb(219, 201, 80)" stroke-opacity="0.015521742" stroke-linecap="round" stroke-linejoin="round"/>
    <path d="M 142.83706665039062 207.3192138671875 C 123.03132629394531 125.30684661865234 105.57963562011719 130.03993225097656 102.82917785644531 78.4425048828125 C 121.54032135009766 113.6603775024414 123.20930480957031 139.12550354003906 148.38397216796875 206.8840789794922" stroke-width="4.0" fill="none" stroke="rgb(207, 27, 25)" stroke-opacity="0.725062" stroke-linecap="round" stroke-linejoin="round"/>
    <path d="M 68.29171752929688 105.53466033935547 C 53.31708908081055 142.83038330078125 70.18428039550781 160.45046997070312 81.41357421875 157.7002716064453 C 122.43168640136719 107.13155364990234 119.89411163330078 123.90054321289062 73.922607421875 169.54098510742188" stroke-width="4.0" fill="none" stroke="rgb(219, 47, 44)" stroke-opacity="0.97508854" stroke-linecap="round" stroke-linejoin="round"/>
    <path d="M 197.81410217285156 126.03287506103516 C 197.4581298828125 151.07357788085938 191.60105895996094 153.825927734375 179.116943359375 171.33273315429688 C 203.99478149414062 153.65760803222656 189.99000549316406 136.03518676757812 183.17059326171875 157.983154296875 C 187.8435821533203 148.7589111328125 205.40948486328125 144.29566955566406 193.1031036376953 158.03167724609375" stroke-width="3.997356653213501" fill="none" stroke="rgb(170, 32, 30)" stroke-opacity="0.93854135" stroke-linecap="round" stroke-linejoin="round"/>
    <path d="M 154.3204803466797 101.40734100341797 C 141.83154296875 -1.557159423828125 117.03547668457031 10.273401260375977 107.12381744384766 8.445347785949707 C 125.01439666748047 -5.371460914611816 123.39273071289062 1.8437927961349487 99.1639633178711 34.82815933227539 C 123.76659393310547 12.353543281555176 122.47574615478516 9.48284912109375 215.32989501953125 10.592924118041992" stroke-width="4.0" fill="none" stroke="rgb(220, 0, 0)" stroke-opacity="0.008222646" stroke-linecap="round" stroke-linejoin="round"/>
    <path d="M 192.70054626464844 159.69091796875 C 270.28009033203125 158.5093536376953 251.65850830078125 188.28118896484375 238.84658813476562 249.46005249023438" stroke-width="4.0" fill="none" stroke="rgb(134, 166, 150)" stroke-opacity="0.022439998" stroke-linecap="round" stroke-linejoin="round"/>
    <path d="M 55.352752685546875 238.3009796142578 C 55.447784423828125 239.6373748779297 55.769004821777344 236.8814239501953 55.3623161315918 239.72166442871094 C 56.367210388183594 244.61917114257812 55.53874969482422 243.12985229492188 48.327484130859375 244.19749450683594" stroke-width="2.06535267829895" fill="none" stroke="rgb(235, 245, 187)" stroke-opacity="0.02650592" stroke-linecap="round" stroke-linejoin="round"/>
    <path d="M 240.83444213867188 221.9564971923828 C 241.7425537109375 222.38189697265625 239.99917602539062 220.88775634765625 240.03564453125 223.90394592285156 C 239.60943603515625 219.71022033691406 239.56700134277344 219.56520080566406 240.07664489746094 229.13833618164062 C 235.7102813720703 232.1007537841797 239.13877868652344 231.5462188720703 237.75247192382812 232.33413696289062" stroke-width="2.2810046672821045" fill="none" stroke="rgb(216, 238, 193)" stroke-opacity="0.05255875" stroke-linecap="round" stroke-linejoin="round"/>
    <path d="M 165.60174560546875 149.29629516601562 C 115.87450408935547 166.21115112304688 102.26372528076172 156.0619354248047 103.47042083740234 122.51512908935547" stroke-width="4.0" fill="none" stroke="rgb(205, 31, 31)" stroke-opacity="0.7268564" stroke-linecap="round" stroke-linejoin="round"/>
    <path d="M 65.63414001464844 103.60733032226562 C 52.75604248046875 131.68048095703125 60.99110412597656 149.3678741455078 63.515380859375 158.48387145996094 C 101.50580596923828 152.7009735107422 79.69007873535156 166.6956787109375 62.49790573120117 125.47200012207031 C 72.92662048339844 172.84666442871094 86.4532241821289 149.68865966796875 76.5456314086914 129.79002380371094" stroke-width="4.0" fill="none" stroke="rgb(206, 45, 42)" stroke-opacity="0.9339709" stroke-linecap="round" stroke-linejoin="round"/>
    <path d="M 204.83450317382812 163.14785766601562 C 203.2041473388672 204.6492156982422 203.38661193847656 203.65480041503906 203.5521240234375 223.91099548339844" stroke-width="4.0" fill="none" stroke="rgb(148, 127, 139)" stroke-opacity="0.018671848" stroke-linecap="round" stroke-linejoin="round"/>
    <path d="M 152.80970764160156 89.16446685791016 C 79.35120391845703 92.4352035522461 118.32255554199219 72.00060272216797 175.11572265625 83.90524291992188 C 141.19281005859375 68.22763061523438 109.22563171386719 86.6159439086914 118.60736846923828 94.5582504272461" stroke-width="4.0" fill="none" stroke="rgb(160, 51, 48)" stroke-opacity="0.98403233" stroke-linecap="round" stroke-linejoin="round"/>
    <path d="M 1.9514822959899902 68.31731414794922 C -0.09028322994709015 150.8520050048828 8.308362007141113 152.3509063720703 54.88914489746094 121.99271392822266 C -17.672317504882812 132.6283721923828 -23.65924644470215 137.23281860351562 72.85411071777344 57.830867767333984" stroke-width="4.0" fill="none" stroke="rgb(139, 161, 165)" stroke-opacity="0.01728269" stroke-linecap="round" stroke-linejoin="round"/>
    <path d="M 138.22825622558594 206.87193298339844 C 165.4791717529297 211.13796997070312 183.27999877929688 191.76583862304688 181.6510467529297 181.18240356445312 C 163.16543579101562 192.2721710205078 153.72865295410156 209.398681640625 133.79713439941406 206.24586486816406 C 147.6823272705078 191.47288513183594 121.10382080078125 221.9642791748047 132.08920288085938 191.23321533203125" stroke-width="3.057996988296509" fill="none" stroke="rgb(103, 30, 30)" stroke-opacity="1.0" stroke-linecap="round" stroke-linejoin="round"/>
    <path d="M 255.85415649414062 58.726341247558594 C 223.85189819335938 19.394264221191406 207.09649658203125 48.9370231628418 223.7959442138672 -3.492980480194092 C 228.25889587402344 55.38611602783203 210.78147888183594 25.263044357299805 255.28082275390625 19.551424026489258" stroke-width="4.0" fill="none" stroke="rgb(180, 180, 180)" stroke-opacity="0.025375132" stroke-linecap="round" stroke-linejoin="round"/>
    <path d="M 25.742122650146484 47.486637115478516 C 21.679019927978516 41.98957824707031 23.749345779418945 52.25457763671875 25.728349685668945 44.1959342956543 C 18.137596130371094 38.36186218261719 19.615985870361328 39.43375015258789 16.851829528808594 36.976661682128906 C 21.302318572998047 41.472103118896484 22.153728485107422 42.47767639160156 20.859094619750977 41.017539978027344" stroke-width="2.0358705520629883" fill="none" stroke="rgb(246, 244, 210)" stroke-opacity="0.039456934" stroke-linecap="round" stroke-linejoin="round"/>
    <path d="M 238.925537109375 115.82047271728516 C 241.60487365722656 207.54457092285156 233.8327178955078 199.70132446289062 209.7860107421875 247.94024658203125" stroke-width="4.0" fill="none" stroke="rgb(182, 181, 181)" stroke-opacity="0.025976712" stroke-linecap="round" stroke-linejoin="round"/>
    <path d="M 51.24251937866211 42.27655029296875 C 50.41350173950195 43.0338134765625 55.067909240722656 39.54469299316406 47.35164260864258 40.55483627319336 C 53.21292495727539 38.9522819519043 52.47854232788086 44.28146743774414 53.914451599121094 43.49892044067383" stroke-width="2.056685447692871" fill="none" stroke="rgb(196, 186, 245)" stroke-opacity="0.030524475" stroke-linecap="round" stroke-linejoin="round"/>
    <path d="M 233.73162841796875 169.11801147460938 C 196.2561798095703 252.39772033691406 181.6967315673828 256.1694641113281 254.27923583984375 252.98892211914062" stroke-width="4.0" fill="none" stroke="rgb(179, 179, 179)" stroke-opacity="0.025187744" stroke-linecap="round" stroke-linejoin="round"/>
    <path d="M 235.5150604248047 213.24356079101562 C 233.42599487304688 218.59779357910156 242.74526977539062 216.2497100830078 238.80105590820312 214.24111938476562 C 240.35345458984375 213.41903686523438 244.85659790039062 212.217041015625 239.0557098388672 207.8646240234375 C 236.6550750732422 218.078125 241.443115234375 223.06175231933594 242.68466186523438 217.27847290039062" stroke-width="2.3836424350738525" fill="none" stroke="rgb(197, 180, 197)" stroke-opacity="0.028603144" stroke-linecap="round" stroke-linejoin="round"/>
    <path d="M 191.64288330078125 214.8371124267578 C 191.65988159179688 214.37191772460938 191.30364990234375 215.26089477539062 191.88165283203125 215.87693786621094" stroke-width="2.0065391063690186" fill="none" stroke="rgb(186, 136, 193)" stroke-opacity="0.022176383" stroke-linecap="round" stroke-linejoin="round"/>
    <path d="M 144.31443786621094 220.6775665283203 C 141.50418090820312 219.0273895263672 142.24337768554688 218.76815795898438 146.33164978027344 218.9503631591797 C 143.22540283203125 217.82090759277344 144.2587432861328 223.72177124023438 143.2182159423828 218.73703002929688 C 145.4712677001953 229.4752655029297 140.8682098388672 225.16575622558594 142.11985778808594 228.47360229492188" stroke-width="2.4990830421447754" fill="none" stroke="rgb(232, 239, 230)" stroke-opacity="0.0434968" stroke-linecap="round" stroke-linejoin="round"/>
    <path d="M 26.514965057373047 256.88427734375 C 44.44810485839844 196.13037109375 54.347652435302734 185.4734649658203 53.10707092285156 183.28660583496094" stroke-width="4.0" fill="none" stroke="rgb(189, 188, 187)" stroke-opacity="0.026572865" stroke-linecap="round" stroke-linejoin="round"/>
    <path d="M 106.25312042236328 35.548851013183594 C 108.1336898803711 35.84013748168945 103.33611297607422 32.83773422241211 104.59489440917969 39.27902603149414 C 101.90216827392578 40.09986877441406 92.45723724365234 38.8203239440918 93.28933715820312 39.793521881103516" stroke-width="2.11618709564209" fill="none" stroke="rgb(128, 220, 166)" stroke-opacity="0.021617223" stroke-linecap="round" stroke-linejoin="round"/>
    <path d="M 200.07550048828125 126.44381713867188 C 203.47268676757812 162.65345764160156 178.740966796875 189.55223083496094 145.39845275878906 205.46609497070312" stroke-width="3.9881720542907715" fill="none" stroke="rgb(139, 46, 46)" stroke-opacity="1.0" stroke-linecap="round" stroke-linejoin="round"/>
    <path d="M 68.0335464477539 246.9198760986328 C 69.41570281982422 247.2847900390625 66.62114715576172 247.29994201660156 68.30795288085938 247.52630615234375 C 66.1247787475586 242.98085021972656 68.23324584960938 247.13845825195312 67.97021484375 246.9889678955078" stroke-width="2.0" fill="none" stroke="rgb(156, 241, 212)" stroke-opacity="0.033313267" stroke-linecap="round" stroke-linejoin="round"/>
    <path d="M 95.4831771850586 211.41879272460938 C 95.67147064208984 215.36305236816406 92.79135131835938 211.55311584472656 92.52095031738281 213.4814453125" stroke-width="2.4359302520751953" fill="none" stroke="rgb(233, 242, 241)" stroke-opacity="0.043470602" stroke-linecap="round" stroke-linejoin="round"/>
    <path d="M 208.17845153808594 233.47669982910156 C 211.65748596191406 232.52818298339844 210.94590759277344 236.99478149414062 209.2805633544922 236.51271057128906" stroke-width="2.1480963230133057" fill="none" stroke="rgb(243, 244, 204)" stroke-opacity="0.034477573" stroke-linecap="round" stroke-linejoin="round"/>
    <path d="M 14.21393871307373 158.2152557373047 C 14.183783531188965 159.5918731689453 17.499479293823242 157.00567626953125 15.211736679077148 158.47793579101562" stroke-width="2.0042190551757812" fill="none" stroke="rgb(184, 77, 217)" stroke-opacity="0.015087995" stroke-linecap="round" stroke-linejoin="round"/>
    <path d="M 29.252769470214844 95.94496154785156 C 28.841371536254883 96.7380142211914 26.717390060424805 95.89081573486328 28.5539608001709 96.26453399658203" stroke-width="2.0" fill="none" stroke="rgb(241, 253, 255)" stroke-opacity="0.27742448" stroke-linecap="round" stroke-linejoin="round"/>
    <path d="M 181.36422729492188 149.1083984375 C 185.1576690673828 85.6458740234375 180.1015625 102.52790069580078 168.74661254882812 81.3260726928711 C 194.62777709960938 91.61132049560547 182.7995147705078 93.41021728515625 200.24777221679688 126.70912170410156 C 198.70919799804688 97.68231201171875 172.0878448486328 70.12438201904297 190.73048400878906 115.77572631835938" stroke-width="4.0" fill="none" stroke="rgb(130, 29, 29)" stroke-opacity="0.90834755" stroke-linecap="round" stroke-linejoin="round"/>
    <path d="M 139.20223999023438 180.81553649902344 C 146.8966827392578 107.73953247070312 140.51419067382812 127.99314880371094 167.22621154785156 139.94126892089844" stroke-width="4.0" fill="none" stroke="rgb(198, 32, 33)" stroke-opacity="1.0" stroke-linecap="round" stroke-linejoin="round"/>
    <path d="M 46.95811080932617 26.06060218811035 C -14.018546104431152 29.271448135375977 -10.109314918518066 13.920293807983398 37.71506118774414 66.78885650634766" stroke-width="4.0" fill="none" stroke="rgb(178, 178, 178)" stroke-opacity="0.026059946" stroke-linecap="round" stroke-linejoin="round"/>
    <path d="M 112.27971649169922 168.862548828125 C 135.95947265625 217.36337280273438 75.84066772460938 218.15188598632812 65.09637451171875 162.3378143310547 C 100.6666030883789 198.1987762451172 86.14857482910156 215.32240295410156 130.6692352294922 202.2843475341797" stroke-width="4.0" fill="none" stroke="rgb(152, 35, 36)" stroke-opacity="0.9883982" stroke-linecap="round" stroke-linejoin="round"/>
    <path d="M 125.24736785888672 184.1065216064453 C 105.44354248046875 119.70417785644531 100.64883422851562 98.07124328613281 124.2492446899414 161.1082763671875" stroke-width="4.0" fill="none" stroke="rgb(211, 34, 34)" stroke-opacity="0.9395733" stroke-linecap="round" stroke-linejoin="round"/>
    <path d="M 114.27156066894531 149.51783752441406 C 98.04876708984375 127.94916534423828 68.57433319091797 120.69544219970703 86.17975616455078 121.60652923583984 C 101.40338897705078 84.68352508544922 99.79196166992188 45.99787139892578 99.41378784179688 130.36317443847656 C 135.88380432128906 150.4040985107422 89.28461456298828 132.79986572265625 62.28349304199219 119.09178161621094" stroke-width="4.0" fill="none" stroke="rgb(230, 42, 34)" stroke-opacity="0.436335" stroke-linecap="round" stroke-linejoin="round"/>
    <path d="M 156.4517059326172 136.80738830566406 C 123.61854553222656 219.59254455566406 135.56744384765625 224.70913696289062 158.3323516845703 151.84226989746094 C 187.03573608398438 88.82589721679688 175.9110870361328 124.24981689453125 152.3274383544922 206.54469299316406 C 200.84829711914062 123.4201431274414 214.28529357910156 112.4297103881836 161.728271484375 198.2962646484375" stroke-width="4.0" fill="none" stroke="rgb(168, 23, 24)" stroke-opacity="0.96162677" stroke-linecap="round" stroke-linejoin="round"/>
    <path d="M 62.76820373535156 33.72061538696289 C 63.317264556884766 33.50712585449219 62.42880630493164 33.93543243408203 62.714290618896484 33.775264739990234" stroke-width="2.0" fill="none" stroke="rgb(255, 234, 192)" stroke-opacity="0.23462273" stroke-linecap="round" stroke-linejoin="round"/>
    <path d="M 48.94730758666992 116.32862091064453 C 15.262574195861816 72.00199127197266 -6.755779266357422 93.97793579101562 80.35578918457031 70.11321258544922 C 0.6436113715171814 72.10655212402344 10.850703239440918 64.39814758300781 10.752321243286133 83.2487564086914 C 8.330809593200684 114.6515884399414 17.629392623901367 122.95930480957031 15.309133529663086 73.82457733154297" stroke-width="4.0" fill="none" stroke="rgb(188, 183, 182)" stroke-opacity="0.024375893" stroke-linecap="round" stroke-linejoin="round"/>
    <path d="M 129.69680786132812 65.75382232666016 C 125.35055541992188 63.58600997924805 130.09719848632812 61.848289489746094 127.2629623413086 69.08153533935547 C 130.38186645507812 61.4405632019043 129.27871704101562 47.512962341308594 125.80451965332031 74.52880859375 C 142.55577087402344 43.37803268432617 126.17290496826172 63.36415100097656 126.46143341064453 88.07833862304688" stroke-width="4.0" fill="none" stroke="rgb(73, 40, 18)" stroke-opacity="0.8446147" stroke-linecap="round" stroke-linejoin="round"/>
    <path d="M 125.9604263305664 247.17176818847656 C 139.55979919433594 239.97970581054688 150.5957489013672 255.7221221923828 146.30569458007812 249.70965576171875 C 153.85719299316406 255.3732147216797 160.50308227539062 235.58790588378906 147.8502655029297 219.75782775878906 C 144.2989044189453 248.34046936035156 147.88299560546875 247.36712646484375 150.75039672851562 239.3126220703125" stroke-width="4.0" fill="none" stroke="rgb(199, 206, 225)" stroke-opacity="0.033676974" stroke-linecap="round" stroke-linejoin="round"/>
    <path d="M 166.57875061035156 244.6792755126953 C 166.44972229003906 240.93898010253906 161.6847686767578 246.00241088867188 163.9465789794922 244.22332763671875 C 167.28663635253906 239.40542602539062 158.73947143554688 235.82347106933594 162.17877197265625 239.71224975585938" stroke-width="2.1511824131011963" fill="none" stroke="rgb(224, 236, 241)" stroke-opacity="0.039028723" stroke-linecap="round" stroke-linejoin="round"/>
    <path d="M 205.6889190673828 264.5115661621094 C 210.1652374267578 263.4137268066406 203.10861206054688 262.64263916015625 203.05601501464844 260.9850158691406 C 198.34033203125 263.2068786621094 195.82138061523438 257.06939697265625 206.70199584960938 265.77496337890625 C 210.32147216796875 260.4173278808594 201.93817138671875 245.78280639648438 187.36398315429688 246.49049377441406" stroke-width="4.0" fill="none" stroke="rgb(197, 185, 194)" stroke-opacity="0.029819325" stroke-linecap="round" stroke-linejoin="round"/>
    <path d="M 111.66936492919922 235.0711212158203 C 93.32488250732422 235.49246215820312 93.41796875 236.55718994140625 93.82340240478516 233.1348114013672" stroke-width="2.3987529277801514" fill="none" stroke="rgb(241, 233, 255)" stroke-opacity="0.036561623" stroke-linecap="round" stroke-linejoin="round"/>
    <path d="M 7.502313137054443 9.427504539489746 C 74.95696258544922 28.857927322387695 74.35786437988281 17.22857666015625 79.03958892822266 24.520030975341797 C 79.72321319580078 12.068650245666504 70.636474609375 21.227262496948242 75.75563049316406 49.73186492919922 C 88.04557037353516 2.9680356979370117 92.5604019165039 19.180707931518555 40.37217330932617 14.57229995727539" stroke-width="4.0" fill="none" stroke="rgb(176, 176, 176)" stroke-opacity="0.024903268" stroke-linecap="round" stroke-linejoin="round"/>
    <path d="M 123.66643524169922 33.314476013183594 C 113.22355651855469 32.31545639038086 114.24134826660156 36.92702865600586 126.68247985839844 35.49144744873047" stroke-width="2.272516965866089" fill="none" stroke="rgb(205, 197, 174)" stroke-opacity="0.028240316" stroke-linecap="round" stroke-linejoin="round"/>
    <path d="M 64.656494140625 126.12895965576172 C 87.09522247314453 74.56155395507812 54.3084602355957 102.43499755859375 76.60523223876953 154.0549774169922 C 76.2341537475586 88.69442749023438 38.489295959472656 158.35914611816406 89.43251037597656 197.62875366210938" stroke-width="4.0" fill="none" stroke="rgb(215, 67, 61)" stroke-opacity="0.93144464" stroke-linecap="round" stroke-linejoin="round"/>
    <path d="M 77.36131286621094 234.67550659179688 C 78.14382934570312 232.33599853515625 81.05498504638672 234.18319702148438 78.21726989746094 236.40504455566406 C 70.31700134277344 227.0777130126953 70.27555084228516 223.78407287597656 77.67896270751953 228.0041961669922" stroke-width="2.277190685272217" fill="none" stroke="rgb(213, 218, 237)" stroke-opacity="0.037118398" stroke-linecap="round" stroke-linejoin="round"/>
    <path d="M 38.17411422729492 174.38719177246094 C 40.441001892089844 163.265380859375 33.909156799316406 161.2021484375 35.59524154663086 175.42454528808594" stroke-width="2.328801155090332" fill="none" stroke="rgb(182, 170, 79)" stroke-opacity="0.0077045294" stroke-linecap="round" stroke-linejoin="round"/>
  </g>
</svg>
