<?xml version="1.0" ?>
<svg xmlns="http://www.w3.org/2000/svg" version="1.1" width="256" height="256">
  <defs/>
  <g>
    <path d="M 25.86351203918457 -15.452729225158691 C 156.88323974609375 -11.499137878417969 174.00497436523438 -13.239047050476074 198.15122985839844 -17.846691131591797 C 233.74673461914062 -26.993980407714844 259.6949768066406 -38.43921661376953 267.45831298828125 37.71424865722656 C 277.1089172363281 67.98700714111328 274.2862854003906 239.06649780273438 261.447021484375 262.813232421875 C 151.6277313232422 253.7350616455078 129.65597534179688 224.26597595214844 168.99156188964844 136.9917449951172 C 146.4357452392578 144.967529296875 131.92007446289062 194.0624237060547 149.20616149902344 148.81907653808594 C 137.27342224121094 195.20108032226562 149.04432678222656 191.5857391357422 141.79888916015625 171.41653442382812 C 80.62736511230469 184.29074096679688 94.56050109863281 174.82044982910156 135.29347229003906 159.53030395507812 C 137.7194366455078 164.70742797851562 99.64807891845703 166.91592407226562 87.43782806396484 167.64593505859375 C 69.10516357421875 176.0217742919922 63.530487060546875 170.33241271972656 87.74506378173828 168.51731872558594 C 45.08625793457031 176.56407165527344 47.59029769897461 203.83612060546875 -9.728937149047852 214.03909301757812 C -0.9903435707092285 125.83163452148438 23.728036880493164 110.03717803955078 48.36069107055664 116.69129180908203 C 64.95769500732422 122.79151153564453 93.4801025390625 117.26383209228516 96.6911392211914 114.99523162841797 C 106.02421569824219 149.17604064941406 106.63383483886719 142.8430633544922 90.13262939453125 115.55377960205078 C 86.06963348388672 101.21623229980469 82.21684265136719 87.06645965576172 76.81127166748047 69.63656616210938 C 86.47923278808594 61.908470153808594 95.65986633300781 52.6368408203125 103.6613998413086 43.35160446166992 C 118.3038101196289 102.3786392211914 109.26736450195312 91.78394317626953 89.01464080810547 91.54571533203125 C 85.97460174560547 75.90215301513672 75.86856842041016 70.08554077148438 117.54120635986328 71.42972564697266 C 101.77642059326172 75.87181091308594 89.19190979003906 90.04488372802734 88.15814208984375 77.01913452148438 C 88.88294982910156 63.89554214477539 102.14521026611328 75.86664581298828 121.81861877441406 80.14920043945312 C 112.87639617919922 94.33604431152344 114.77758026123047 98.21281433105469 128.72650146484375 152.90176391601562 C 108.88326263427734 151.972900390625 110.1190414428711 156.35110473632812 -4.857485771179199 213.33497619628906 C -16.89052963256836 199.0645294189453 -18.64668083190918 117.18048858642578 -12.764623641967773 41.054710388183594 C -9.022818565368652 -7.8080291748046875 4.321621894836426 -24.3695125579834 25.86351203918457 -15.452729225158691" stroke-width="1.0" fill="rgb(0, 13, 28)" opacity="0.9997497"/>
    <path d="M 8.059090614318848 199.66050720214844 C -14.706470489501953 205.62884521484375 -16.975200653076172 250.6248321533203 -7.181980609893799 250.55796813964844 C 94.55343627929688 177.13925170898438 85.02323150634766 167.9591522216797 71.14898681640625 176.0358123779297 C 70.5235366821289 177.96090698242188 69.86237335205078 177.23779296875 59.86238098144531 198.71697998046875 C 57.20354461669922 243.09568786621094 72.22405242919922 259.3082275390625 263.716796875 266.6920471191406 C 251.1961669921875 248.4318084716797 226.51736450195312 287.2737731933594 161.5251007080078 219.1843719482422 C 203.40345764160156 50.55589294433594 208.9390869140625 46.86642837524414 141.0742645263672 169.67445373535156 C 75.27556610107422 184.22886657714844 110.81378936767578 171.2397003173828 113.06539154052734 165.29513549804688 C 104.48082733154297 162.42950439453125 132.18240356445312 167.38150024414062 109.33744049072266 165.33653259277344 C 117.69847106933594 160.1117401123047 88.0372085571289 164.0332794189453 72.59835052490234 170.19430541992188 C 81.24308013916016 162.7312469482422 92.31272888183594 160.80337524414062 104.9600830078125 166.65963745117188 C 82.15966796875 167.31228637695312 71.1111831665039 164.46641540527344 8.059090614318848 199.66050720214844" stroke-width="1.0" fill="rgb(0, 54, 173)" opacity="0.86319536"/>
    <path d="M -11.452692985534668 265.62750244140625 C 145.29202270507812 254.65066528320312 90.66336822509766 196.10260009765625 13.323516845703125 263.15106201171875 C 21.122472763061523 270.013427734375 142.79318237304688 267.6883850097656 202.2724609375 264.2247619628906 C 203.371337890625 102.08637237548828 177.00054931640625 199.51625061035156 91.55677032470703 185.7541046142578 C 164.48648071289062 142.68002319335938 141.42478942871094 115.66481018066406 209.67449951171875 273.179931640625 C 227.8656768798828 268.09149169921875 218.21978759765625 174.9940643310547 194.66192626953125 149.3659210205078 C 112.16462707519531 168.08111572265625 136.51889038085938 131.07423400878906 93.51915740966797 140.7303009033203 C 119.33892822265625 153.27346801757812 108.61370086669922 159.70632934570312 99.11556243896484 165.6910400390625 C 100.5157241821289 160.30703735351562 82.53559112548828 157.53736877441406 89.27760314941406 166.18113708496094 C 100.45672607421875 179.63034057617188 99.43730163574219 180.73573303222656 108.02648162841797 171.10836791992188 C 127.57176971435547 150.1410675048828 108.84864044189453 172.92947387695312 87.54254150390625 151.83798217773438 C 62.78913879394531 138.19351196289062 101.04684448242188 120.70755004882812 -29.719249725341797 126.27616119384766 C 33.735042572021484 234.7722930908203 77.41209411621094 192.50546264648438 94.59603118896484 179.7035675048828 C 101.44538116455078 175.3843994140625 104.3568344116211 171.0529327392578 103.42435455322266 170.32156372070312 C 98.36128997802734 174.33082580566406 101.14228820800781 173.674072265625 94.08584594726562 169.75653076171875 C 92.1463394165039 172.07064819335938 98.30946350097656 176.57923889160156 102.92346954345703 169.3290252685547 C 102.61493682861328 162.97933959960938 92.01179504394531 161.32586669921875 88.95556640625 167.58978271484375 C 103.0963134765625 167.01312255859375 105.334228515625 177.3351287841797 86.38981628417969 156.83497619628906 C 63.01219940185547 148.83946228027344 59.56890869140625 145.6002197265625 63.07004165649414 154.1761016845703 C 85.04795837402344 138.9160919189453 81.70170593261719 139.61642456054688 24.35975456237793 145.751708984375 C 5.5801286697387695 129.67193603515625 -6.342214584350586 162.0155487060547 -11.452692985534668 265.62750244140625" stroke-width="1.0" fill="rgb(0, 5, 8)" opacity="0.98904794"/>
  </g>
</svg>
