<?xml version="1.0" ?>
<svg xmlns="http://www.w3.org/2000/svg" version="1.1" width="256" height="256">
  <defs/>
  <g>
    <path d="M 77.49779510498047 172.74520874023438 L 50.79155349731445 187.55142211914062 Q 48.23461151123047 184.8505859375 45.97982406616211 183.34152221679688 Q 43.89313888549805 182.8274688720703 41.8807258605957 182.5756072998047 Q 39.8536376953125 182.2949676513672 37.62125015258789 181.89962768554688 Q 36.0665283203125 180.80838012695312 35.18785858154297 181.62921142578125 C 33.515926361083984 179.1961212158203 31.161117553710938 176.25218200683594 34.47941207885742 180.04742431640625 C 23.521055221557617 173.87681579589844 20.69439697265625 163.667724609375 26.625089645385742 157.58938598632812 C 33.71832275390625 155.95729064941406 23.082557678222656 156.11917114257812 29.419626235961914 158.7760772705078 C 29.508447647094727 162.84913635253906 29.14860725402832 161.50575256347656 28.104656219482422 153.68170166015625 L 56.02434539794922 115.4672622680664 Q 59.91228485107422 108.83141326904297 62.740413665771484 107.89938354492188 Q 66.70159149169922 100.10128784179688 76.1236343383789 102.98914337158203 Q 60.78299331665039 104.03985595703125 79.70235443115234 99.25431060791016 Q 99.0317153930664 98.51439666748047 97.7507095336914 101.41572570800781 L 133.2373504638672 96.49153900146484 L 190.5264434814453 138.7888641357422 L 193.49917602539062 174.68785095214844 C 186.87005615234375 171.24884033203125 116.53166198730469 181.95716857910156 113.87313079833984 183.47689819335938 C 111.25536346435547 183.52139282226562 76.78350830078125 172.96652221679688 77.49779510498047 172.74520874023438" stroke-width="1.0" fill="rgb(248, 234, 213)" opacity="0.8037935"/>
    <path d="M 32.99146270751953 219.5254669189453 L 16.46101188659668 226.09400939941406 L 21.380220413208008 211.94146728515625 Q 29.58759117126465 192.12252807617188 24.574874877929688 200.8119354248047 Q 34.05585479736328 188.7836151123047 31.02182388305664 187.88668823242188 Q 33.805442810058594 188.6453857421875 33.233154296875 182.2044219970703 Q 24.272994995117188 186.69790649414062 41.73834228515625 180.9091339111328 L 169.93289184570312 49.277061462402344 C 172.3938751220703 40.37287139892578 168.60543823242188 44.63245391845703 184.69500732421875 58.94386672973633 C 190.26234436035156 60.152706146240234 185.0523223876953 49.40061950683594 173.60133361816406 47.76124954223633 C 171.10104370117188 42.93109130859375 171.30081176757812 45.32447052001953 169.84571838378906 48.819854736328125 C 175.1944122314453 47.74068069458008 178.97618103027344 49.17726516723633 181.07203674316406 45.697086334228516 L 197.45420837402344 62.488101959228516 C 197.7356719970703 66.81114196777344 200.36715698242188 67.44828033447266 198.91554260253906 63.15970993041992 C 198.46656799316406 68.5719985961914 202.00341796875 67.58749389648438 194.43243408203125 62.78848648071289 C 192.26559448242188 79.91259765625 187.0950469970703 83.53944396972656 192.66087341308594 72.71284484863281 C 190.93069458007812 70.65412139892578 183.581298828125 84.69856262207031 194.2576446533203 75.77531433105469 L 66.25074005126953 199.25848388671875 Q 62.88374328613281 208.96258544921875 66.51055908203125 208.80015563964844 Q 54.71482467651367 207.4061279296875 56.031436920166016 209.0408935546875 Q 51.72258377075195 209.21832275390625 44.9190673828125 216.71047973632812 Q 49.193050384521484 213.55877685546875 32.99146270751953 219.5254669189453" stroke-width="1.0" fill="rgb(113, 201, 174)" opacity="0.99340427"/>
    <path d="M 176.68885803222656 96.20133209228516 L 65.36798858642578 209.8115692138672 L 44.3240852355957 188.2713623046875 L 48.554176330566406 178.28684997558594 L 149.8163604736328 69.85039520263672 L 176.68885803222656 96.20133209228516" stroke-width="1.0" fill="rgb(252, 227, 174)" opacity="0.9722874"/>
    <path d="M 178.7684783935547 154.2354736328125 L 164.1540069580078 160.41644287109375 Q 161.2794647216797 161.50131225585938 158.49932861328125 162.48509216308594 Q 155.57342529296875 163.43392944335938 152.75900268554688 164.643310546875 Q 149.7272491455078 164.66407775878906 146.2929229736328 164.09033203125 Q 142.05332946777344 162.43873596191406 133.52098083496094 176.98678588867188 L 91.55428314208984 171.27064514160156 Q 95.5822525024414 162.01571655273438 99.86000061035156 159.73098754882812 Q 90.24636840820312 156.3190155029297 91.83524322509766 165.27593994140625 Q 84.37762451171875 160.23849487304688 92.28506469726562 170.36395263671875 Q 88.83903503417969 168.9953155517578 90.42724609375 173.60244750976562 C 81.72686767578125 168.29844665527344 80.38307189941406 166.94418334960938 74.89946746826172 174.29086303710938 C 81.0411605834961 177.65753173828125 80.7867660522461 174.5012664794922 74.9438247680664 180.01010131835938 C 78.71846771240234 183.96946716308594 78.26677703857422 183.00965881347656 76.488037109375 186.03465270996094 C 81.32255554199219 190.12644958496094 87.12081909179688 196.3975830078125 86.59615325927734 193.8914794921875 L 124.05998992919922 212.57974243164062 Q 131.6644287109375 215.838623046875 140.3523712158203 216.81033325195312 Q 142.08363342285156 219.2111053466797 151.21664428710938 219.11160278320312 Q 162.76028442382812 219.45086669921875 160.59779357910156 213.853759765625 Q 151.664306640625 215.58807373046875 166.87693786621094 219.53598022460938 L 247.03062438964844 208.77093505859375 C 248.50762939453125 216.799560546875 254.27325439453125 210.1865997314453 245.12863159179688 200.80654907226562 C 251.6942596435547 209.33233642578125 249.96209716796875 198.97901916503906 248.11473083496094 200.11907958984375 C 250.0507049560547 214.59671020507812 260.39508056640625 209.01731872558594 251.5913543701172 200.91812133789062 C 252.4307403564453 206.93411254882812 252.84173583984375 200.7728271484375 264.22344970703125 198.48806762695312 L 263.1694641113281 146.64474487304688 C 252.5655517578125 145.99755859375 252.44949340820312 142.9620819091797 252.8351287841797 140.7781219482422 C 249.05252075195312 142.47959899902344 246.15191650390625 140.78260803222656 251.44369506835938 156.298095703125 C 252.21290588378906 142.95811462402344 246.69375610351562 136.74761962890625 238.4015655517578 141.1888427734375 C 247.48739624023438 139.625732421875 248.37734985351562 146.0240478515625 253.30352783203125 135.90269470214844 L 233.9700164794922 135.4593505859375 Q 217.1551055908203 135.56553649902344 210.32183837890625 139.644287109375 Q 231.57925415039062 137.02781677246094 209.7429656982422 133.79428100585938 Q 203.1999053955078 133.01425170898438 191.60960388183594 127.94520568847656 Q 181.7397003173828 120.99007415771484 179.50538635253906 123.12879943847656 L 159.95278930664062 106.31624603271484 L 178.7684783935547 154.2354736328125" stroke-width="1.0" fill="rgb(249, 238, 221)" opacity="1.0"/>
    <path d="M 168.92568969726562 174.2340545654297 Q 165.59390258789062 176.2357177734375 164.140625 176.68777465820312 Q 155.8468780517578 179.91278076171875 154.796630859375 178.82972717285156 Q 153.65333557128906 179.77383422851562 151.34707641601562 179.7863311767578 Q 146.95864868164062 180.1942596435547 144.9068603515625 179.61705017089844 L 103.57205963134766 175.66285705566406 Q 100.4829330444336 175.53659057617188 98.60603332519531 175.91664123535156 Q 93.36478424072266 176.62356567382812 95.17879486083984 176.571044921875 Q 91.08500671386719 178.20574951171875 87.61141204833984 181.22203063964844 Q 85.62774658203125 184.95010375976562 82.76428985595703 181.69818115234375 L 82.68246459960938 186.7420196533203 C 82.77445983886719 185.85841369628906 82.55386352539062 184.0860595703125 82.99830627441406 183.91371154785156 C 82.02734375 180.32608032226562 82.04612731933594 176.5388641357422 81.07996368408203 176.38864135742188 C 82.34133911132812 176.62901306152344 84.11923217773438 172.5625762939453 85.4385757446289 168.71484375 C 78.97453308105469 168.67100524902344 86.2605209350586 163.4265899658203 85.86898803710938 168.19187927246094 C 94.20185852050781 157.16079711914062 126.6492919921875 165.96023559570312 127.86392211914062 161.66693115234375 C 125.67029571533203 160.25595092773438 148.1761474609375 171.8287353515625 161.7440948486328 164.0175323486328 L 166.691650390625 161.37210083007812 C 168.23277282714844 159.69137573242188 173.44839477539062 154.8321533203125 175.7670135498047 155.88392639160156 C 177.41403198242188 149.8285369873047 178.1751251220703 160.2923126220703 178.13682556152344 161.8394012451172 C 176.98973083496094 166.16775512695312 175.81956481933594 170.20462036132812 174.79278564453125 169.22482299804688 C 173.87008666992188 172.57452392578125 170.9540252685547 172.3919219970703 170.1161651611328 174.2881622314453 L 168.92568969726562 174.2340545654297" stroke-width="1.0" fill="rgb(254, 246, 239)" opacity="0.99596584"/>
    <path d="M 161.77020263671875 135.61878967285156 L 138.5350799560547 159.1575927734375 Q 151.71401977539062 161.44671630859375 149.78504943847656 163.7523651123047 Q 134.61973571777344 167.21957397460938 137.73402404785156 167.67701721191406 Q 136.48988342285156 163.16201782226562 131.18991088867188 167.52552795410156 Q 130.69593811035156 163.86827087402344 121.18987274169922 163.63731384277344 L 105.2066650390625 159.85089111328125 L 158.4690704345703 106.55012512207031 C 168.52694702148438 92.66035461425781 160.45518493652344 112.61672973632812 173.47410583496094 121.770751953125 C 173.26168823242188 116.97239685058594 164.52609252929688 119.65530395507812 164.2165069580078 113.21056365966797 C 165.96136474609375 122.7730484008789 166.7388153076172 125.30683135986328 166.0121612548828 126.8229751586914 C 165.1868896484375 132.3697509765625 162.957763671875 134.63331604003906 161.77020263671875 135.61878967285156" stroke-width="1.0" fill="rgb(238, 216, 190)" opacity="1.0"/>
    <path d="M 42.934017181396484 171.32888793945312 L 42.541805267333984 192.51699829101562 Q 29.39530372619629 192.9001922607422 48.04766082763672 185.29092407226562 Q 41.33137130737305 194.19529724121094 35.456356048583984 203.63494873046875 Q 26.65300178527832 230.9984893798828 27.698089599609375 204.9198760986328 Q 25.328073501586914 189.97723388671875 17.19162368774414 200.82579040527344 L 17.216629028320312 231.65460205078125 L 6.271058559417725 232.8689422607422 L 15.426065444946289 207.7952117919922 Q 10.909994125366211 230.2498321533203 30.093114852905273 228.8772735595703 Q 23.86886215209961 186.77894592285156 30.638172149658203 181.47569274902344 Q 32.561302185058594 182.89659118652344 33.42986297607422 174.31686401367188 Q 32.266883850097656 173.27650451660156 42.2836799621582 175.88516235351562 L 42.934017181396484 171.32888793945312" stroke-width="1.0" fill="rgb(188, 245, 198)" opacity="0.49981797"/>
    <path d="M 206.57240295410156 35.2859001159668 C 207.43760681152344 26.963611602783203 212.78463745117188 33.512569427490234 209.4996795654297 38.06285858154297 C 212.2443084716797 39.494964599609375 212.3525848388672 45.73235321044922 209.58860778808594 32.7421989440918 C 218.29611206054688 36.431827545166016 214.35133361816406 59.65424728393555 209.85284423828125 46.437442779541016 C 207.54388427734375 45.93921661376953 205.7674560546875 49.644535064697266 210.3512420654297 50.78386688232422 L 195.43716430664062 69.93079376220703 L 175.90672302246094 49.13239288330078 L 190.3879852294922 34.04954147338867 C 185.97377014160156 29.732868194580078 200.28530883789062 23.022092819213867 203.48451232910156 35.933040618896484 C 196.87315368652344 31.323455810546875 203.64390563964844 24.684843063354492 205.1365203857422 31.50757598876953 C 189.36141967773438 25.753273010253906 197.36228942871094 25.259984970092773 207.8033905029297 27.771045684814453 C 210.95323181152344 32.99055480957031 217.60968017578125 36.340354919433594 206.57240295410156 35.2859001159668" stroke-width="1.0" fill="rgb(248, 226, 174)" opacity="1.0"/>
    <path d="M 153.14456176757812 80.40570068359375 L 50.3692512512207 183.7314910888672 L 42.78700256347656 187.9465789794922 L 40.996063232421875 178.53758239746094 L 145.84413146972656 73.21842956542969 L 153.14456176757812 80.40570068359375" stroke-width="1.0" fill="rgb(254, 234, 155)" opacity="1.0"/>
    <path d="M 146.28517150878906 72.6640853881836 L 43.09201431274414 175.9154815673828 L 42.125850677490234 177.84056091308594 L 146.28517150878906 72.6640853881836" stroke-width="1.0" fill="rgb(200, 179, 179)" opacity="0.9230043"/>
    <path d="M 247.83070373535156 135.7333984375 Q 252.68948364257812 143.17507934570312 252.0063934326172 136.76437377929688 Q 247.03781127929688 133.0530548095703 243.28543090820312 134.2223663330078 Q 241.330322265625 135.30416870117188 249.1490936279297 136.09213256835938 Q 244.76490783691406 134.77420043945312 243.77487182617188 133.65696716308594 L 228.960205078125 135.15548706054688 Q 236.09951782226562 135.17013549804688 217.0552215576172 134.69586181640625 Q 210.4195556640625 133.72421264648438 206.69577026367188 132.73416137695312 Q 200.36326599121094 130.5791778564453 193.2320098876953 127.77141571044922 Q 188.53289794921875 125.14328002929688 183.46636962890625 121.9891357421875 L 165.817626953125 109.72259521484375 L 198.66188049316406 77.00697326660156 Q 201.1171112060547 75.29769134521484 199.51556396484375 73.6711654663086 Q 203.03355407714844 73.82623291015625 199.22671508789062 59.33782196044922 Q 197.07949829101562 63.15705490112305 199.08253479003906 74.85416412353516 Q 200.24598693847656 68.74104309082031 200.3950653076172 64.11616516113281 L 213.56936645507812 51.16563415527344 C 214.9669952392578 48.80171585083008 217.07164001464844 45.194419860839844 216.9844207763672 40.60165786743164 C 217.6038360595703 39.08108139038086 214.032958984375 31.379947662353516 212.6110382080078 30.700925827026367 C 209.7835693359375 26.62676429748535 204.7058868408203 25.359304428100586 200.53746032714844 25.23040199279785 C 189.97293090820312 27.576435089111328 196.43023681640625 25.758922576904297 190.94952392578125 28.999191284179688 L 177.71908569335938 42.0849609375 Q 172.1326904296875 39.069610595703125 171.9319610595703 42.356388092041016 Q 175.63014221191406 42.74481964111328 174.25059509277344 40.908119201660156 Q 172.54638671875 42.34553146362305 170.86463928222656 40.486141204833984 Q 161.98074340820312 43.94691848754883 162.45425415039062 48.565589904785156 L 174.08323669433594 44.7703742980957 C 168.35806274414062 47.15827941894531 156.46214294433594 44.663326263427734 157.7763214111328 45.40386962890625 C 162.53128051757812 46.12015151977539 161.89512634277344 43.50214385986328 141.9475555419922 45.127777099609375 C 147.75106811523438 44.54867935180664 142.51058959960938 46.47330856323242 140.14578247070312 47.297122955322266 C 135.67388916015625 50.18419647216797 132.54205322265625 52.426631927490234 132.85336303710938 52.83237075805664 L 101.45128631591797 84.1451644897461 C 100.13912963867188 86.57117462158203 96.87992858886719 85.68638610839844 100.01587677001953 91.16532897949219 C 104.07109069824219 89.31604766845703 99.49268341064453 86.33409881591797 101.19988250732422 89.77728271484375 C 99.69882202148438 93.18852996826172 101.89630889892578 92.18356323242188 104.23365020751953 92.16524505615234 C 101.11495971679688 90.15845489501953 105.419189453125 93.50480651855469 106.41390991210938 89.91383361816406 L 138.05230712890625 58.0263557434082 Q 144.0751495361328 52.654762268066406 143.29896545410156 55.11698532104492 Q 143.13104248046875 50.991756439208984 148.1019744873047 53.24155044555664 Q 142.85008239746094 48.9243278503418 141.36734008789062 54.93097686767578 Q 148.65023803710938 50.91133117675781 156.12106323242188 52.50202560424805 L 114.10098266601562 94.53707122802734 L 89.2295913696289 96.13885498046875 C 87.27239227294922 96.85720825195312 80.27397918701172 96.82404327392578 79.65951538085938 97.77452087402344 C 80.19467163085938 96.77455139160156 74.5650634765625 99.2162857055664 70.51414489746094 100.87911224365234 C 66.95636749267578 103.07948303222656 63.76424026489258 105.89005279541016 61.98535919189453 106.50959777832031 C 59.0018424987793 108.76559448242188 57.634578704833984 111.2337417602539 54.97138214111328 114.75133514404297 L 27.482675552368164 153.44699096679688 C 24.89597511291504 156.98947143554688 24.415773391723633 163.05633544921875 24.565807342529297 159.77737426757812 C 26.234106063842773 154.9882049560547 23.487016677856445 156.7467041015625 23.954486846923828 170.98681640625 C 23.131546020507812 167.64845275878906 25.569931030273438 172.2919464111328 25.88731575012207 175.13282775878906 C 26.672718048095703 174.91128540039062 26.592378616333008 177.08343505859375 29.479942321777344 179.571533203125 Q 27.459373474121094 182.6507110595703 26.174489974975586 184.7721710205078 Q 21.605140686035156 191.16184997558594 22.03447151184082 191.33428955078125 Q 20.696453094482422 193.04739379882812 19.691619873046875 196.27969360351562 Q 19.580644607543945 194.9872589111328 17.197391510009766 201.39073181152344 L 5.906252384185791 231.0652313232422 L -0.6405271887779236 237.0946807861328 C -5.25007963180542 235.13397216796875 -6.100947856903076 233.61439514160156 -11.326664924621582 234.5641632080078 C -5.958046913146973 236.2473907470703 -0.11500963568687439 239.95603942871094 -4.9282307624816895 240.30809020996094 C 1.2042713165283203 237.71240234375 0.8200157284736633 237.24244689941406 0.0615006722509861 236.50123596191406 C -0.40611451864242554 247.04808044433594 9.830044746398926 239.323974609375 5.561470031738281 241.9639434814453 L 11.845193862915039 235.97409057617188 L 41.52771759033203 224.96661376953125 Q 46.0538215637207 222.6055145263672 47.38706588745117 222.4459991455078 Q 51.26720428466797 220.25753784179688 56.13648223876953 217.14134216308594 Q 59.47808837890625 214.86083984375 63.11719512939453 212.30038452148438 Q 65.06852722167969 210.18692016601562 69.15629577636719 206.7476806640625 L 82.87065887451172 192.89053344726562 Q 88.16812896728516 193.9835205078125 86.9429702758789 189.6477508544922 Q 79.67843627929688 196.1655731201172 90.1620101928711 193.83958435058594 Q 89.1460952758789 197.29237365722656 95.78255462646484 196.41488647460938 Q 86.52265930175781 191.5596923828125 84.39231872558594 194.0099639892578 L 123.21218872070312 212.22805786132812 Q 132.40184020996094 216.42445373535156 133.68418884277344 216.16168212890625 Q 134.43118286132812 217.02609252929688 144.66580200195312 218.96409606933594 Q 151.30099487304688 220.25355529785156 150.4208984375 220.1433563232422 Q 169.58689880371094 220.5865478515625 166.492919921875 219.84371948242188 L 246.13038635253906 211.88711547851562 C 248.4861297607422 211.00628662109375 251.46713256835938 210.10906982421875 249.26788330078125 210.03854370117188 C 250.3035888671875 210.96038818359375 254.0226593017578 206.71324157714844 252.70120239257812 208.697509765625 C 254.18075561523438 206.31558227539062 256.1159362792969 204.6314239501953 255.8378143310547 201.5762481689453 C 263.3167419433594 205.71282958984375 262.27069091796875 205.5832977294922 261.1986999511719 201.9625244140625 L 261.28375244140625 140.50210571289062 Q 260.91192626953125 139.19764709472656 261.2909240722656 137.3834228515625 Q 259.3284912109375 138.8337860107422 258.63751220703125 146.83694458007812 Q 258.3760070800781 147.57058715820312 255.62039184570312 143.76651000976562 Q 254.98863220214844 137.5026092529297 247.83070373535156 135.7333984375" stroke-width="1.0" fill="rgb(127, 91, 151)" opacity="0.8823209"/>
    <path d="M 228.18209838867188 180.98193359375 L 227.09291076660156 180.6394805908203 C 222.51673889160156 184.84556579589844 223.60549926757812 181.91197204589844 228.95443725585938 183.2858123779297 C 225.72528076171875 179.07264709472656 222.2661590576172 184.64202880859375 225.63803100585938 187.4560546875 C 224.7330322265625 184.7030487060547 225.98580932617188 187.96090698242188 226.66285705566406 184.88633728027344 C 223.18966674804688 185.3574981689453 224.91397094726562 188.3791046142578 228.2613067626953 188.70033264160156 L 238.24864196777344 188.93527221679688 C 232.39085388183594 188.4446258544922 240.0262908935547 188.49305725097656 238.791748046875 188.30874633789062 C 238.0830535888672 187.7513427734375 238.6217803955078 186.1983642578125 238.0554962158203 188.20001220703125 C 242.51760864257812 184.47509765625 239.41641235351562 180.8492431640625 236.7217559814453 183.03958129882812 C 240.2917938232422 182.13941955566406 240.84588623046875 183.35671997070312 237.0160675048828 180.72352600097656 L 228.18209838867188 180.98193359375" stroke-width="1.0" fill="rgb(140, 107, 158)" opacity="0.9912557"/>
  </g>
</svg>
