<?xml version="1.0" ?>
<svg xmlns="http://www.w3.org/2000/svg" version="1.1" width="256" height="256">
  <defs/>
  <g>
    <path d="M 77.54948425292969 173.46307373046875 C 76.68787384033203 172.76100158691406 48.98461151123047 180.8546142578125 48.96267318725586 180.83026123046875 C 47.057125091552734 180.82061767578125 45.54975509643555 181.287841796875 43.477054595947266 181.5709686279297 C 44.366851806640625 183.4407958984375 44.85595703125 183.41436767578125 40.26353073120117 184.61434936523438 C 39.16262435913086 183.20657348632812 40.504127502441406 181.1731414794922 38.941627502441406 180.02198791503906 C 37.36287307739258 181.2111358642578 37.86286926269531 182.71913146972656 32.28727722167969 182.37953186035156 C 29.508241653442383 180.88275146484375 32.76680374145508 176.8637237548828 29.47591209411621 177.99990844726562 C 30.59033966064453 170.7561798095703 26.034883499145508 173.8736572265625 27.488393783569336 168.8097686767578 C 24.076852798461914 169.58262634277344 26.47489356994629 164.2945556640625 27.23194694519043 162.5070037841797 C 29.5781192779541 156.985107421875 30.88022804260254 156.54359436035156 28.109146118164062 153.62380981445312 C 27.403196334838867 152.82728576660156 55.24675750732422 114.12010192871094 55.5411262512207 114.0191879272461 C 58.19477844238281 111.53333282470703 60.75423812866211 111.5647964477539 62.70696258544922 108.78738403320312 C 64.517578125 105.91753387451172 67.81854248046875 104.67804718017578 68.83889770507812 104.09425354003906 C 76.81426239013672 107.75355529785156 80.3421401977539 105.45816040039062 79.54376983642578 102.1565933227539 C 81.15184020996094 106.62686920166016 87.06293487548828 102.51136016845703 89.3928451538086 99.9900894165039 C 87.68637084960938 100.19013977050781 137.3745880126953 95.18165588378906 144.36537170410156 97.5562973022461 C 143.02105712890625 95.07445526123047 194.94390869140625 130.12661743164062 195.12696838378906 128.6921844482422 C 189.96975708007812 128.69505310058594 185.32943725585938 169.59056091308594 186.09703063964844 170.32003784179688 C 185.66246032714844 170.26353454589844 115.28853607177734 180.58810424804688 113.549072265625 181.79318237304688 C 112.4249496459961 181.97007751464844 77.98353576660156 171.58926391601562 77.81372833251953 171.79299926757812 C 74.6226806640625 171.85523986816406 74.63633728027344 173.76651000976562 77.54948425292969 173.46307373046875" stroke-width="1.0" fill="rgb(249, 235, 215)" opacity="0.75382924"/>
    <path d="M 36.64590072631836 219.64797973632812 C 35.15457534790039 218.1268768310547 5.538270473480225 229.2324981689453 10.835800170898438 227.4744873046875 C 11.457529067993164 232.14175415039062 24.872446060180664 207.57948303222656 22.362695693969727 207.26234436035156 C 18.497814178466797 201.6549072265625 20.772214889526367 194.68370056152344 22.968372344970703 194.41232299804688 C 25.232500076293945 191.63941955566406 27.537687301635742 193.5514373779297 25.972000122070312 187.5645751953125 C 29.597787857055664 184.92518615722656 35.998619079589844 186.90773010253906 33.324710845947266 182.75506591796875 C 38.46537780761719 183.11769104003906 37.94100570678711 181.0581817626953 37.382476806640625 176.0619659423828 C 40.470455169677734 177.52699279785156 169.00404357910156 50.04305648803711 169.64158630371094 51.203731536865234 C 167.8563995361328 50.29323959350586 169.3098602294922 48.19694900512695 172.0434112548828 48.25509262084961 C 173.1682891845703 46.636192321777344 173.5191650390625 44.82954788208008 173.66200256347656 45.20123291015625 C 173.01925659179688 45.700294494628906 173.68057250976562 46.64456558227539 173.00636291503906 45.915645599365234 C 171.71458435058594 48.63325119018555 174.64578247070312 47.47380828857422 174.75010681152344 50.1767578125 C 175.13095092773438 50.15365219116211 192.48768615722656 66.0687026977539 193.91656494140625 66.19034576416016 C 196.32119750976562 66.86991119384766 196.19265747070312 65.86100769042969 193.38291931152344 66.71499633789062 C 196.51239013671875 69.07798767089844 194.9591827392578 72.0046157836914 195.90101623535156 72.73007202148438 C 196.0968017578125 68.13435363769531 196.1964874267578 69.4964370727539 196.40252685546875 74.7430419921875 C 195.46575927734375 74.46990966796875 188.55499267578125 75.47624969482422 198.31642150878906 79.6132583618164 C 196.60675048828125 77.52820587158203 65.8529281616211 202.78140258789062 66.62342071533203 202.92091369628906 C 68.21878814697266 211.4574737548828 59.436424255371094 206.13699340820312 61.71039581298828 211.23825073242188 C 55.37721633911133 206.57005310058594 56.536659240722656 212.15394592285156 52.24293518066406 212.3529815673828 C 48.90718078613281 212.36224365234375 47.40340805053711 215.29049682617188 44.27021408081055 216.34681701660156 C 40.3698844909668 215.96922302246094 39.20412063598633 217.5769805908203 39.949974060058594 221.22300720214844 C 39.12699508666992 217.6832733154297 40.737091064453125 217.6736602783203 36.64590072631836 219.64797973632812" stroke-width="1.0" fill="rgb(77, 208, 182)" opacity="0.57110006"/>
    <path d="M 174.68753051757812 101.6977310180664 C 172.81663513183594 99.97437286376953 66.2166748046875 203.13006591796875 67.26302337646484 202.25843811035156 C 69.21199798583984 201.17747497558594 50.050437927246094 184.3270721435547 50.190574645996094 184.1779022216797 C 51.36494064331055 187.13197326660156 53.27931213378906 184.4238739013672 50.549949645996094 183.94102478027344 C 49.497833251953125 182.60165405273438 152.83984375 79.84012603759766 152.33328247070312 80.34188842773438 C 150.6065216064453 83.00801086425781 169.3321075439453 100.66004180908203 174.68753051757812 101.6977310180664" stroke-width="1.0" fill="rgb(252, 227, 177)" opacity="0.92437035"/>
    <path d="M 172.3775177001953 155.31918334960938 C 173.10269165039062 155.12998962402344 164.4287567138672 160.45997619628906 165.08372497558594 161.4683837890625 C 161.90151977539062 161.04197692871094 160.03955078125 160.97265625 156.13294982910156 160.8571319580078 C 156.02914428710938 163.91058349609375 154.37814331054688 164.747802734375 152.63633728027344 163.94952392578125 C 151.55201721191406 164.64295959472656 149.00823974609375 164.2134246826172 145.7924346923828 164.62869262695312 C 144.5503387451172 164.76345825195312 142.49693298339844 164.45291137695312 141.2106170654297 163.24545288085938 C 140.94029235839844 163.89373779296875 100.08101654052734 159.7755126953125 99.49745178222656 158.8157196044922 C 96.30643463134766 159.8112335205078 95.45333862304688 158.5578155517578 94.39364624023438 158.05238342285156 C 94.2678451538086 159.32061767578125 92.3482666015625 159.3078155517578 91.0965805053711 158.91453552246094 C 89.53778839111328 162.56643676757812 86.47959899902344 161.82066345214844 84.94465637207031 162.529541015625 C 85.8613510131836 165.6446075439453 81.23152160644531 167.85409545898438 80.94552612304688 163.9962615966797 C 79.15506744384766 163.2147979736328 79.37320709228516 169.46328735351562 75.54896545410156 172.533203125 C 76.73014831542969 173.91246032714844 76.48777770996094 179.55300903320312 77.25859069824219 181.12884521484375 C 76.90045166015625 184.98158264160156 77.92737579345703 186.55316162109375 78.03048706054688 191.24578857421875 C 80.66668701171875 192.44488525390625 83.77611541748047 192.99053955078125 85.81974792480469 194.53492736816406 C 86.1341781616211 194.28866577148438 122.37830352783203 211.7976837158203 122.78409576416016 211.95053100585938 C 131.01715087890625 209.43399047851562 137.56724548339844 208.9538116455078 136.47341918945312 214.81796264648438 C 136.571044921875 213.90383911132812 141.78594970703125 214.5461883544922 145.68736267089844 216.08187866210938 C 154.10360717773438 212.6537628173828 153.65785217285156 216.84703063964844 155.03614807128906 216.26019287109375 C 161.1519317626953 216.60122680664062 159.7232666015625 216.4549560546875 160.80020141601562 215.01388549804688 C 170.2189178466797 220.7417449951172 247.86695861816406 212.73728942871094 247.1464385986328 209.8941192626953 C 247.43820190429688 210.691162109375 248.1898956298828 210.8546142578125 249.21820068359375 210.2394256591797 C 251.4026641845703 205.60646057128906 249.94569396972656 204.7196807861328 250.49014282226562 208.6597442626953 C 252.42129516601562 206.0735321044922 251.11593627929688 204.21487426757812 251.69314575195312 202.232177734375 C 251.83351135253906 202.00009155273438 252.1564483642578 201.63479614257812 252.6909942626953 200.24493408203125 C 251.6067657470703 200.83314514160156 252.57254028320312 144.4348907470703 252.35350036621094 145.86827087402344 C 249.4363250732422 146.18409729003906 250.71946716308594 145.29721069335938 251.87332153320312 144.77212524414062 C 251.73635864257812 139.75021362304688 251.42649841308594 139.35720825195312 250.8748016357422 138.72584533691406 C 249.86105346679688 137.12252807617188 248.41195678710938 136.91595458984375 245.411865234375 136.39431762695312 C 243.5992889404297 136.60182189941406 243.48910522460938 138.41453552246094 243.29855346679688 137.05844116210938 C 240.7096405029297 138.54331970214844 233.08522033691406 138.18728637695312 234.53749084472656 139.0516357421875 C 228.12132263183594 138.16036987304688 220.80674743652344 139.2972412109375 217.003173828125 138.761962890625 C 216.30870056152344 136.17506408691406 206.57675170898438 140.07752990722656 205.49542236328125 134.2893524169922 C 199.32553100585938 136.37771606445312 196.2647705078125 137.8307647705078 191.33990478515625 133.4934844970703 C 187.6446990966797 130.51220703125 184.9407196044922 127.36619567871094 179.75149536132812 126.1093521118164 C 182.050537109375 123.8451919555664 163.4342041015625 106.96460723876953 158.78160095214844 110.89414978027344 L 172.3775177001953 155.31918334960938" stroke-width="1.0" fill="rgb(250, 240, 225)" opacity="1.0"/>
    <path d="M 168.06533813476562 175.329833984375 C 165.70591735839844 175.4679412841797 163.45596313476562 177.0479736328125 162.9964141845703 177.52757263183594 C 161.03538513183594 177.17996215820312 160.77285766601562 178.78692626953125 154.60655212402344 179.1425018310547 C 153.33657836914062 178.8377685546875 153.67291259765625 180.44273376464844 151.49484252929688 179.53273010253906 C 148.924560546875 180.32479858398438 144.85867309570312 179.86380004882812 144.62921142578125 179.39967346191406 C 143.98379516601562 179.8385009765625 103.70396423339844 175.35305786132812 102.84954071044922 175.77207946777344 C 102.40740203857422 175.19541931152344 100.37065887451172 175.21792602539062 99.10185241699219 175.7599639892578 C 97.10828399658203 176.3194122314453 95.01896667480469 176.22857666015625 94.76187133789062 176.53009033203125 C 92.51856994628906 177.68028259277344 91.10860443115234 179.19174194335938 89.39115142822266 179.66384887695312 C 88.21073150634766 181.05987548828125 86.51660919189453 181.665771484375 86.66848754882812 183.86923217773438 C 85.74986267089844 183.21337890625 81.91612243652344 186.9858856201172 83.44332122802734 185.81326293945312 C 83.40412902832031 185.4190673828125 80.68566131591797 185.01438903808594 80.27928161621094 181.32608032226562 C 77.07330322265625 183.58265686035156 76.02566528320312 180.5174560546875 76.7756118774414 175.55447387695312 C 78.97484588623047 172.1222381591797 76.55274963378906 167.57237243652344 78.60076141357422 169.43185424804688 C 82.08618927001953 170.8188018798828 84.21408081054688 166.86758422851562 83.45125579833984 162.4606170654297 C 90.43192291259766 151.78611755371094 128.6436767578125 159.76730346679688 125.21572875976562 160.53619384765625 C 117.98194122314453 168.7185821533203 138.43658447265625 169.0802459716797 161.9054718017578 156.6998291015625 C 164.28048706054688 159.54013061523438 176.34432983398438 152.32225036621094 177.9130096435547 152.2378692626953 C 177.9829864501953 152.80325317382812 178.06187438964844 154.9210968017578 177.89089965820312 159.09146118164062 C 177.94940185546875 158.98094177246094 178.14024353027344 162.0043182373047 177.6063995361328 163.7982177734375 C 177.12631225585938 166.1448211669922 176.0853271484375 168.34263610839844 174.55612182617188 170.2733612060547 C 173.42657470703125 172.44984436035156 171.36444091796875 172.29556274414062 170.37322998046875 174.01771545410156 C 170.84429931640625 174.57566833496094 167.1853790283203 173.92359924316406 168.06533813476562 175.329833984375" stroke-width="1.0" fill="rgb(255, 248, 245)" opacity="0.8811429"/>
    <path d="M 161.8905029296875 135.50596618652344 C 161.5843505859375 135.97950744628906 139.7634735107422 157.6602020263672 140.1231231689453 157.9767608642578 C 137.1845245361328 157.70114135742188 137.9702911376953 160.1100616455078 138.2540740966797 160.86141967773438 C 138.0369415283203 158.7528076171875 136.58724975585938 160.1384735107422 133.09788513183594 160.0216522216797 C 130.8007354736328 159.6715087890625 127.845947265625 159.49932861328125 132.5582275390625 168.16500854492188 C 129.37753295898438 165.3022003173828 128.56663513183594 162.6630401611328 129.2418670654297 159.85211181640625 C 129.2342529296875 159.83169555664062 110.4475326538086 160.94134521484375 111.91436767578125 160.23223876953125 C 110.98008728027344 159.59938049316406 159.7718963623047 113.73860931396484 159.789306640625 113.97674560546875 C 158.0625 115.78117370605469 161.0825958251953 116.06346130371094 164.2886962890625 116.6812973022461 C 165.4846649169922 118.6590576171875 165.36373901367188 119.78144836425781 166.3828582763672 125.0099868774414 C 165.89553833007812 124.67594909667969 165.98794555664062 128.07467651367188 165.20956420898438 130.1782989501953 C 164.5428009033203 132.5775146484375 163.1490478515625 134.6031951904297 161.36439514160156 135.8991241455078 C 161.82154846191406 135.12612915039062 161.81243896484375 135.07354736328125 161.8905029296875 135.50596618652344" stroke-width="1.0" fill="rgb(230, 190, 153)" opacity="0.4302738"/>
    <path d="M 39.859169006347656 175.87298583984375 C 40.23366165161133 174.9169158935547 51.01910400390625 184.07518005371094 48.29291915893555 185.800048828125 C 50.382572174072266 190.57106018066406 44.69573974609375 187.7572021484375 44.16632843017578 191.38705444335938 C 41.78509521484375 193.64605712890625 40.22189712524414 195.8037567138672 38.476932525634766 198.40211486816406 C 37.94650650024414 201.08250427246094 35.9749870300293 202.78846740722656 34.964820861816406 205.23133850097656 C 33.95527648925781 207.12330627441406 33.178070068359375 210.04318237304688 32.01283264160156 211.9187469482422 C 31.803491592407227 212.35992431640625 27.236469268798828 227.0274200439453 26.39336395263672 227.7247772216797 C 29.302520751953125 229.12350463867188 12.428030967712402 237.59817504882812 5.76393985748291 230.45223999023438 C 4.33714485168457 228.16128540039062 19.318330764770508 202.6603240966797 17.894927978515625 206.52076721191406 C 16.336027145385742 199.4286346435547 19.758779525756836 196.00791931152344 21.3116397857666 193.4967498779297 C 24.657472610473633 192.46682739257812 25.844066619873047 190.37327575683594 25.295181274414062 185.62135314941406 C 27.40664291381836 184.3460235595703 31.78960418701172 185.56480407714844 31.383790969848633 180.3649444580078 C 35.45378875732422 180.80690002441406 34.866214752197266 176.58644104003906 37.40170669555664 173.38739013671875 C 40.259212493896484 174.28172302246094 42.47664260864258 175.9094696044922 39.859169006347656 175.87298583984375" stroke-width="1.0" fill="rgb(211, 255, 219)" opacity="0.56644636"/>
    <path d="M 209.77310180664062 33.43669509887695 C 211.99327087402344 34.605987548828125 210.2501220703125 34.97808074951172 210.9229736328125 38.79568099975586 C 214.27891540527344 39.223087310791016 209.86778259277344 39.63044738769531 210.3974151611328 42.0389518737793 C 212.9033966064453 42.81779861450195 210.977294921875 43.06349563598633 209.53732299804688 47.99007034301758 C 212.62217712402344 49.04826354980469 212.51890563964844 48.05274963378906 210.1739501953125 51.339115142822266 C 210.4772491455078 51.78767776489258 196.82379150390625 66.4296875 193.00819396972656 66.68415832519531 C 191.5423126220703 66.899169921875 175.3797607421875 49.5875244140625 174.23577880859375 46.59965515136719 C 178.42279052734375 47.92655944824219 195.9060516357422 37.51749801635742 194.2777557373047 36.43852233886719 C 196.32498168945312 34.96230697631836 196.16513061523438 32.54974365234375 195.62490844726562 33.39248275756836 C 198.9040069580078 32.658565521240234 200.62713623046875 30.726089477539062 202.33738708496094 30.967323303222656 C 201.84658813476562 30.934953689575195 202.8844757080078 32.021827697753906 204.4592742919922 30.811552047729492 C 206.53709411621094 31.23627471923828 208.0035400390625 32.66522216796875 209.04837036132812 32.58652114868164 C 208.0623779296875 32.25649642944336 208.0987091064453 32.59804916381836 209.77310180664062 33.43669509887695" stroke-width="1.0" fill="rgb(255, 233, 173)" opacity="0.67981696"/>
    <path d="M 152.86627197265625 80.04181671142578 C 153.2168731689453 80.21587371826172 49.70692443847656 182.8087158203125 50.69047546386719 183.75733947753906 C 50.67095184326172 184.6308135986328 48.7496452331543 183.7373504638672 50.77330780029297 184.3527374267578 C 49.47320556640625 184.68263244628906 41.14241027832031 173.74073791503906 40.69888687133789 174.52041625976562 C 39.93008804321289 175.62998962402344 144.04412841796875 71.04977416992188 144.86105346679688 71.70197296142578 C 141.94293212890625 72.5644302368164 151.19956970214844 83.77548217773438 152.86627197265625 80.04181671142578" stroke-width="1.0" fill="rgb(255, 236, 158)" opacity="1.0"/>
    <path d="M 145.95909118652344 72.53699493408203 C 146.728515625 73.5255355834961 41.609683990478516 177.25225830078125 40.77113723754883 177.00401306152344 C 39.127201080322266 175.3353729248047 38.41362380981445 173.47621154785156 37.916927337646484 173.5564422607422 C 36.765869140625 172.42715454101562 140.5494384765625 67.548828125 145.95909118652344 72.53699493408203" stroke-width="1.0" fill="rgb(245, 235, 253)" opacity="1.0"/>
    <path d="M 252.2535400390625 136.76040649414062 C 252.20681762695312 136.05551147460938 251.20388793945312 135.76759338378906 250.28659057617188 135.68861389160156 C 250.19203186035156 134.59432983398438 249.06787109375 134.53041076660156 247.1656951904297 133.9986114501953 C 247.56248474121094 134.44937133789062 247.46226501464844 133.5384063720703 246.94793701171875 133.6145477294922 C 244.90866088867188 133.46401977539062 244.76646423339844 132.66653442382812 243.44375610351562 133.17752075195312 C 242.44456481933594 132.61203002929688 231.03836059570312 133.6634063720703 231.22438049316406 133.60687255859375 C 228.85707092285156 134.19227600097656 226.34405517578125 134.3025665283203 217.44216918945312 133.87844848632812 C 213.734375 134.1282501220703 211.466552734375 133.24481201171875 206.51828002929688 131.7147674560547 C 201.9894256591797 131.15476989746094 198.28102111816406 129.47288513183594 194.6922149658203 128.40826416015625 C 190.05311584472656 126.04096221923828 186.72494506835938 123.43961334228516 183.00701904296875 121.7123794555664 C 183.0848388671875 121.46504974365234 166.7584686279297 109.71260833740234 165.59759521484375 109.50016021728516 C 166.82162475585938 110.51702117919922 198.38478088378906 78.0867691040039 198.80763244628906 78.3004150390625 C 199.20217895507812 77.05072021484375 199.9684600830078 76.0018539428711 200.7166290283203 75.52073669433594 C 200.91326904296875 73.42504119873047 201.96759033203125 74.14559173583984 201.52484130859375 70.77290344238281 C 202.31822204589844 69.78904724121094 202.44558715820312 69.63758850097656 202.16522216796875 68.18614959716797 C 202.19248962402344 66.86563873291016 201.13230895996094 65.64537048339844 201.00360107421875 63.2022819519043 C 200.46275329589844 63.51115417480469 212.68019104003906 52.67195510864258 212.9918212890625 52.75044631958008 C 215.35020446777344 49.8007698059082 217.44700622558594 44.977012634277344 217.16419982910156 43.19890594482422 C 216.6497039794922 36.31300735473633 215.36383056640625 31.280866622924805 213.2437744140625 30.598190307617188 C 209.23184204101562 26.766433715820312 205.33897399902344 25.439191818237305 201.19406127929688 24.629165649414062 C 195.4301300048828 25.375375747680664 192.74676513671875 25.65241050720215 189.68154907226562 29.54700469970703 C 188.93759155273438 28.93791389465332 177.8770294189453 42.19008255004883 178.12469482421875 41.10890579223633 C 178.18434143066406 40.885231018066406 176.23277282714844 40.34672164916992 173.4752197265625 40.21337127685547 C 172.8470916748047 40.36482620239258 171.7659912109375 40.358612060546875 169.42486572265625 40.656314849853516 C 168.12249755859375 40.458858489990234 168.19384765625 41.66691207885742 166.70570373535156 42.200340270996094 C 165.750244140625 43.036861419677734 164.23712158203125 43.76887893676758 163.77767944335938 44.95145797729492 C 164.16917419433594 44.832157135009766 162.49351501464844 45.78288650512695 163.25717163085938 45.948238372802734 C 160.23558044433594 45.12095260620117 156.72035217285156 44.47420120239258 154.71029663085938 43.64371871948242 C 153.15866088867188 44.20357131958008 150.29150390625 43.6872673034668 147.3702850341797 44.682655334472656 C 143.66830444335938 44.706443786621094 141.95706176757812 46.8697509765625 138.42971801757812 47.870174407958984 C 137.20753479003906 49.10127639770508 134.8464813232422 50.29092025756836 132.8546142578125 52.38698196411133 C 132.83074951171875 52.23072814941406 101.65167999267578 84.95526885986328 100.2754135131836 83.74612426757812 C 99.96749877929688 84.64252471923828 98.50658416748047 85.07503509521484 98.16838073730469 87.1209487915039 C 96.56240844726562 87.7292251586914 98.93390655517578 89.67250061035156 99.47334289550781 91.58021545410156 C 100.92491149902344 91.65885925292969 101.78003692626953 94.19470977783203 104.38251495361328 92.36517333984375 C 106.71937561035156 92.56734466552734 105.05628967285156 90.65367889404297 107.81535339355469 90.2803726196289 C 106.16419219970703 89.49364471435547 138.60125732421875 58.009666442871094 138.57386779785156 57.70083236694336 C 139.22689819335938 56.47475814819336 140.8705291748047 56.53133773803711 141.14634704589844 55.46110916137695 C 143.78643798828125 53.85100555419922 145.74020385742188 54.059532165527344 146.08200073242188 53.008785247802734 C 148.81170654296875 54.03400421142578 150.9004669189453 50.551517486572266 151.75228881835938 53.103763580322266 C 152.22982788085938 51.025142669677734 152.15524291992188 52.36635971069336 156.0926513671875 51.98360061645508 C 156.54513549804688 52.83899688720703 113.27885437011719 94.02973175048828 114.77677917480469 94.11949157714844 C 112.6711654663086 95.7311019897461 87.19174194335938 94.28312683105469 87.14393615722656 96.06454467773438 C 83.80254364013672 95.29537200927734 82.6118392944336 96.66437530517578 78.59843444824219 97.36420440673828 C 75.42113494873047 98.44488525390625 71.7258529663086 99.72673034667969 68.91139221191406 101.05277252197266 C 66.12740325927734 102.77507019042969 62.9226188659668 104.7703857421875 60.78407287597656 106.6983642578125 C 58.13068389892578 108.92683410644531 56.46500778198242 111.96422576904297 54.677608489990234 113.73542785644531 C 55.33760452270508 115.39896392822266 26.878162384033203 152.27645874023438 27.747711181640625 152.89393615722656 C 25.18674087524414 154.94351196289062 25.228374481201172 157.93658447265625 23.683992385864258 159.39547729492188 C 23.366161346435547 160.65414428710938 22.16808319091797 162.40748596191406 22.570823669433594 164.6800079345703 C 22.035625457763672 168.82569885253906 24.659883499145508 171.5847625732422 25.827972412109375 174.61305236816406 C 25.968509674072266 176.79356384277344 28.912439346313477 177.1525115966797 29.87796974182129 180.77247619628906 C 27.7622127532959 181.90000915527344 27.06842613220215 183.726806640625 25.99004554748535 184.7176513671875 C 24.080005645751953 187.24546813964844 23.098590850830078 188.12429809570312 21.87185287475586 191.6372528076172 C 20.74283790588379 192.5044708251953 20.070335388183594 194.3538818359375 19.686954498291016 195.6872100830078 C 18.171926498413086 198.9602508544922 15.890095710754395 200.60891723632812 16.787452697753906 202.01400756835938 C 15.142690658569336 201.0897674560547 5.798633575439453 229.7504119873047 5.945863246917725 229.26585388183594 C 5.620031356811523 230.3721466064453 1.3261488676071167 235.64752197265625 0.9980344772338867 235.808349609375 C 0.5466122627258301 236.80348205566406 -0.4481803774833679 238.45333862304688 0.06401227414608002 238.4070281982422 C 0.325637549161911 237.61351013183594 0.1519484668970108 239.8872833251953 1.4892879724502563 240.8081817626953 C 2.6611368656158447 241.85325622558594 2.216458320617676 242.68626403808594 3.832820177078247 241.95803833007812 C 5.286751747131348 242.87327575683594 5.880391597747803 242.36732482910156 6.8957977294921875 240.98464965820312 C 7.0971198081970215 241.1776580810547 12.337406158447266 236.81517028808594 11.90992546081543 236.60528564453125 C 11.05772590637207 236.45155334472656 40.72634506225586 226.20321655273438 40.327945709228516 226.26870727539062 C 43.51955795288086 225.4753875732422 46.572410583496094 224.15206909179688 49.31997299194336 222.29908752441406 C 51.94838333129883 221.4709014892578 53.60667419433594 220.00741577148438 56.171730041503906 218.1425018310547 C 58.866241455078125 216.8518829345703 61.91081237792969 214.5975799560547 63.9433479309082 212.51661682128906 C 66.10687255859375 211.0847930908203 67.64646911621094 208.2566375732422 70.30155944824219 206.63780212402344 C 69.67647552490234 206.64015197753906 83.41692352294922 193.53277587890625 82.53630065917969 192.84396362304688 C 84.18756103515625 193.37353515625 84.49945068359375 193.63526916503906 84.03630065917969 193.16978454589844 C 83.6214828491211 192.94769287109375 84.32715606689453 193.64674377441406 84.67205810546875 194.20860290527344 C 84.48936462402344 194.22415161132812 84.64347839355469 194.3347930908203 84.91106414794922 194.3374481201172 C 84.98564147949219 194.46353149414062 84.62428283691406 195.19680786132812 85.62281036376953 194.61805725097656 C 85.54769134521484 194.83358764648438 122.2108154296875 212.95626831054688 121.70836639404297 212.0488739013672 C 125.66276550292969 214.27874755859375 129.95321655273438 215.6841278076172 133.4333038330078 216.79161071777344 C 137.8511962890625 217.54457092285156 140.35293579101562 219.33316040039062 143.1068115234375 219.08738708496094 C 147.1988983154297 221.436279296875 152.54473876953125 220.44717407226562 151.9823455810547 222.3513641357422 C 163.9810791015625 222.84234619140625 168.0778045654297 223.18695068359375 171.4245147705078 222.1371612548828 C 171.2349853515625 223.34107971191406 250.46800231933594 217.13670349121094 246.3529052734375 216.29147338867188 C 249.12254333496094 213.7311553955078 249.64691162109375 212.99386596679688 250.89944458007812 211.78282165527344 C 252.2481231689453 210.7351531982422 252.80416870117188 209.93118286132812 253.3004913330078 208.8395233154297 C 254.47265625 207.894287109375 254.52462768554688 204.864501953125 255.51541137695312 204.38763427734375 C 255.13290405273438 201.81434631347656 255.65635681152344 200.24337768554688 256.43280029296875 198.94847106933594 C 256.6057434082031 199.9187469482422 256.44500732421875 146.24795532226562 256.73321533203125 145.28868103027344 C 256.3688659667969 144.18362426757812 256.0751953125 143.73675537109375 255.7549285888672 143.71365356445312 C 255.20362854003906 143.2727813720703 255.5710906982422 142.11526489257812 255.04830932617188 141.4318084716797 C 254.94656372070312 139.96530151367188 254.6591033935547 139.2639617919922 253.76425170898438 139.06301879882812 C 253.14584350585938 138.3704833984375 252.89976501464844 137.22280883789062 252.40504455566406 136.80496215820312 C 252.97386169433594 137.93069458007812 252.3195037841797 137.12503051757812 252.2535400390625 136.76040649414062" stroke-width="1.0" fill="rgb(122, 80, 170)" opacity="0.6976621"/>
    <path d="M 236.8731231689453 181.07752990722656 C 237.38656616210938 180.49179077148438 227.49473571777344 181.02052307128906 228.06671142578125 181.537841796875 C 226.5410614013672 180.6746826171875 225.80801391601562 182.43582153320312 224.6114501953125 181.88870239257812 C 224.73092651367188 182.57594299316406 224.19577026367188 184.2220916748047 223.56719970703125 184.96214294433594 C 223.7926788330078 185.52822875976562 224.56924438476562 187.06890869140625 224.8960723876953 187.81336975097656 C 225.4097442626953 188.62831115722656 226.95669555664062 188.5419464111328 228.55813598632812 188.6693115234375 C 226.15672302246094 189.23643493652344 238.15415954589844 189.0596466064453 236.05679321289062 188.49317932128906 C 238.1671905517578 188.6520538330078 238.80068969726562 188.24148559570312 239.22503662109375 186.88229370117188 C 240.3661651611328 187.72430419921875 239.40933227539062 185.4470977783203 240.43109130859375 184.6853790283203 C 240.36451721191406 185.781494140625 239.9276885986328 182.52459716796875 239.67506408691406 182.37066650390625 C 238.7821807861328 180.90357971191406 238.85594177246094 181.44125366210938 236.14820861816406 180.67662048339844 C 236.48092651367188 181.63995361328125 236.45797729492188 180.66017150878906 236.8731231689453 181.07752990722656" stroke-width="1.0" fill="rgb(118, 82, 142)" opacity="0.7927294"/>
  </g>
</svg>
