<?xml version="1.0" ?>
<svg xmlns="http://www.w3.org/2000/svg" version="1.1" width="256" height="256">
  <defs/>
  <g>
    <path d="M 76.90288543701172 172.29217529296875 L 49.02283477783203 181.53016662597656 Q 48.481910705566406 183.38340759277344 44.474857330322266 179.70916748046875 Q 43.80535125732422 185.23309326171875 40.57685852050781 183.89024353027344 Q 41.930686950683594 180.31591796875 38.29024887084961 183.55210876464844 Q 37.336360931396484 179.61187744140625 32.732547760009766 179.94895935058594 C 29.325990676879883 180.70558166503906 32.829402923583984 177.24842834472656 29.618915557861328 177.3303985595703 C 29.342695236206055 170.81234741210938 25.4407958984375 172.82763671875 28.36778450012207 168.98057556152344 C 25.893617630004883 168.689697265625 27.32523536682129 165.98843383789062 26.9384708404541 163.2178497314453 C 28.291656494140625 161.14962768554688 30.90280532836914 155.2617645263672 27.709075927734375 152.89678955078125 L 54.59529495239258 113.93940734863281 Q 59.59422302246094 112.16895294189453 62.62175369262695 108.25501251220703 Q 66.00181579589844 103.85542297363281 74.67465209960938 106.01678466796875 Q 78.06460571289062 108.95648956298828 78.1349105834961 100.42648315429688 Q 86.66678619384766 102.0345458984375 86.4540786743164 99.38223266601562 L 143.74464416503906 94.84502410888672 L 194.67921447753906 129.36087036132812 L 186.892822265625 170.34095764160156 C 185.9346466064453 170.53038024902344 115.94058990478516 181.23802185058594 114.54898834228516 182.07711791992188 C 112.59402465820312 181.79803466796875 78.08924865722656 171.48797607421875 76.90288543701172 172.29217529296875" stroke-width="1.0" fill="rgb(247, 231, 206)" opacity="0.66885847"/>
    <path d="M 36.39577102661133 219.65444946289062 L 15.213805198669434 227.2819366455078 L 23.51993751525879 207.31869506835938 Q 21.411256790161133 195.73789978027344 23.46969223022461 197.5118865966797 Q 28.360580444335938 197.6154022216797 29.652238845825195 190.93701171875 Q 34.80461502075195 188.3306884765625 33.51371383666992 181.55126953125 Q 40.07332992553711 183.40403747558594 40.40293502807617 177.68862915039062 L 169.31019592285156 50.12507629394531 C 169.47283935546875 49.36567306518555 168.8448486328125 47.35032272338867 171.8678436279297 48.13808822631836 C 174.62228393554688 48.60993194580078 175.09910583496094 48.12629318237305 172.45599365234375 45.092674255371094 C 172.35679626464844 45.676761627197266 173.04200744628906 45.81291961669922 173.37521362304688 45.32810592651367 C 174.1648712158203 48.5467414855957 176.33822631835938 51.87982177734375 180.64016723632812 49.03300094604492 L 198.5419464111328 62.44136047363281 C 194.9759979248047 65.94246673583984 195.9781951904297 65.31693267822266 196.35281372070312 67.33475494384766 C 196.73056030273438 66.57536315917969 195.73895263671875 68.45429229736328 196.75161743164062 71.45919799804688 C 196.61294555664062 70.8057861328125 196.6329803466797 70.73526763916016 196.83056640625 73.58466339111328 C 196.43728637695312 75.71906280517578 198.003173828125 80.05078887939453 194.85537719726562 76.1931381225586 L 66.45120239257812 203.312744140625 Q 61.79246139526367 202.301025390625 62.339630126953125 211.1045379638672 Q 58.687164306640625 211.40174865722656 49.47831344604492 211.55865478515625 Q 47.210960388183594 217.26876831054688 44.01569747924805 214.64224243164062 Q 40.150691986083984 218.74966430664062 36.39577102661133 219.65444946289062" stroke-width="1.0" fill="rgb(96, 207, 182)" opacity="0.6379672"/>
    <path d="M 170.33245849609375 100.42620086669922 L 70.1719970703125 204.60853576660156 L 49.95088195800781 183.7254180908203 L 49.54497528076172 182.5829620361328 L 151.0807342529297 79.94795989990234 L 170.33245849609375 100.42620086669922" stroke-width="1.0" fill="rgb(249, 225, 177)" opacity="0.94737095"/>
    <path d="M 172.2554473876953 155.44619750976562 L 164.89610290527344 160.25314331054688 Q 160.11361694335938 158.84930419921875 156.4716796875 161.02781677246094 Q 155.1503448486328 163.6665802001953 152.80892944335938 163.8963165283203 Q 150.63385009765625 164.92837524414062 144.9527587890625 165.09690856933594 Q 143.3807373046875 165.02838134765625 144.44873046875 161.1308135986328 L 101.10879516601562 158.29913330078125 Q 98.16606903076172 159.1834259033203 93.81024169921875 158.69932556152344 Q 91.52079772949219 160.13064575195312 90.24015045166016 160.9405517578125 Q 86.56654357910156 161.8902130126953 87.0826416015625 164.19862365722656 Q 82.91908264160156 161.30789184570312 81.87547302246094 166.74229431152344 C 75.65261840820312 167.97584533691406 77.42666625976562 168.01565551757812 75.40653228759766 172.98562622070312 C 76.3299789428711 173.37869262695312 77.1552963256836 179.03646850585938 77.36161041259766 181.454345703125 C 77.06120300292969 184.9539794921875 79.45762634277344 185.7489471435547 80.59864807128906 190.3440704345703 C 79.6255874633789 192.7479248046875 84.44740295410156 192.2660369873047 86.4580307006836 194.2544708251953 L 124.06610107421875 210.8679656982422 Q 129.5713348388672 207.76234436035156 136.3084259033203 212.19158935546875 Q 141.82376098632812 213.11639404296875 146.02999877929688 212.41079711914062 Q 153.7168731689453 217.20156860351562 155.66058349609375 215.89378356933594 Q 163.32363891601562 217.71864318847656 161.5956573486328 212.09341430664062 L 245.7183074951172 208.80435180664062 C 247.2667236328125 209.45013427734375 245.6357421875 207.72889709472656 248.4533233642578 206.9027862548828 C 249.06785583496094 204.67599487304688 248.96548461914062 206.07293701171875 251.61502075195312 208.495361328125 C 251.51271057128906 204.088623046875 251.78948974609375 204.1702117919922 251.48390197753906 203.38458251953125 C 251.82693481445312 201.36007690429688 251.8922576904297 199.45761108398438 251.15049743652344 196.1328582763672 L 251.33856201171875 146.0059356689453 C 249.09677124023438 147.53103637695312 251.62680053710938 146.114501953125 250.47299194335938 142.1957244873047 C 251.0963897705078 139.07080078125 250.2034454345703 141.35084533691406 249.6695556640625 139.61489868164062 C 247.12673950195312 138.38894653320312 246.690185546875 138.45602416992188 246.4744415283203 138.01019287109375 C 247.2109375 137.38543701171875 245.6100616455078 138.05886840820312 240.0155792236328 138.6549530029297 L 229.63912963867188 138.71446228027344 Q 223.8644561767578 137.56663513183594 221.52259826660156 141.5235595703125 Q 213.36688232421875 136.7330322265625 201.9683380126953 135.0203857421875 Q 193.77647399902344 140.52403259277344 194.45982360839844 133.07427978515625 Q 186.5796356201172 128.8260498046875 181.9658966064453 123.72836303710938 L 158.8585662841797 109.9423599243164 L 172.2554473876953 155.44619750976562" stroke-width="1.0" fill="rgb(248, 240, 225)" opacity="0.99869365"/>
    <path d="M 168.74456787109375 174.49684143066406 Q 164.2078094482422 176.46620178222656 163.14657592773438 177.3771514892578 Q 158.396728515625 178.487548828125 158.6973419189453 178.68551635742188 Q 152.44863891601562 179.51637268066406 150.12890625 179.6709442138672 Q 148.35353088378906 180.0504150390625 144.36041259765625 179.56109619140625 L 103.31819152832031 175.59185791015625 Q 100.634765625 175.02305603027344 98.8835220336914 175.93174743652344 Q 95.16606140136719 175.9210662841797 94.49708557128906 176.74769592285156 Q 91.99413299560547 178.44570922851562 89.49249267578125 179.6296844482422 Q 87.2308578491211 181.51072692871094 86.12794494628906 183.62489318847656 L 83.29145050048828 186.55604553222656 C 83.9950942993164 185.2330322265625 80.62504577636719 185.35118103027344 80.48082733154297 181.8624725341797 C 76.89990234375 183.2452392578125 76.14568328857422 180.66134643554688 77.18726348876953 175.12547302246094 C 80.25460815429688 175.1541290283203 78.08206176757812 173.80299377441406 78.90483093261719 169.42007446289062 C 83.69624328613281 172.62669372558594 81.54481506347656 166.9895782470703 85.89192962646484 163.2057647705078 C 92.1106185913086 150.7668914794922 126.34579467773438 160.1276092529297 125.10853576660156 160.78602600097656 C 118.21155548095703 168.87030029296875 137.1775665283203 168.07025146484375 163.41049194335938 156.41818237304688 L 178.01467895507812 152.18824768066406 C 177.9759521484375 153.02333068847656 178.0780792236328 155.02992248535156 177.8792266845703 159.0829620361328 C 177.97222900390625 159.0154571533203 178.11669921875 161.96897888183594 177.58163452148438 163.81231689453125 C 177.0362548828125 166.1607208251953 176.16758728027344 168.45526123046875 174.5720977783203 170.16973876953125 C 173.55941772460938 172.37164306640625 171.0798797607422 172.22711181640625 170.12721252441406 174.2686767578125 L 168.74456787109375 174.49684143066406" stroke-width="1.0" fill="rgb(255, 249, 246)" opacity="0.72434956"/>
    <path d="M 161.50352478027344 136.0789337158203 L 139.75070190429688 157.85784912109375 Q 137.8684539794922 159.1324462890625 138.67935180664062 160.57632446289062 Q 135.96559143066406 159.0211181640625 136.29559326171875 159.4800567626953 Q 129.9941864013672 158.87393188476562 128.9387664794922 162.4641571044922 Q 129.55767822265625 166.77099609375 130.49913024902344 159.90182495117188 L 111.87586212158203 160.56004333496094 L 158.86033630371094 112.52008819580078 C 159.43931579589844 114.86054992675781 162.15194702148438 114.736572265625 163.29898071289062 117.53752136230469 C 164.0147705078125 120.1977310180664 166.5736083984375 119.91157531738281 165.6705780029297 123.99945068359375 C 166.96380615234375 123.63617706298828 165.5693359375 127.66313171386719 165.61741638183594 129.94708251953125 C 164.55433654785156 132.6990966796875 162.98681640625 134.2190704345703 161.50352478027344 136.0789337158203" stroke-width="1.0" fill="rgb(230, 192, 156)" opacity="0.43145347"/>
    <path d="M 40.635337829589844 175.0572052001953 L 48.408626556396484 188.48770141601562 Q 46.24852752685547 188.6180877685547 43.80123519897461 191.74754333496094 Q 41.124271392822266 194.819091796875 38.92950439453125 198.1061553955078 Q 37.10231018066406 201.70574951171875 34.925559997558594 205.11752319335938 Q 33.5615348815918 208.99623107910156 31.32114028930664 213.53517150878906 L 27.76879119873047 227.96424865722656 L 6.111384868621826 232.4418487548828 L 19.338829040527344 202.29962158203125 Q 20.830821990966797 198.5485382080078 22.460662841796875 194.51141357421875 Q 23.879175186157227 190.56033325195312 28.136600494384766 184.4702606201172 Q 33.0421257019043 185.67080688476562 31.48709487915039 181.85179138183594 Q 35.90544128417969 179.31739807128906 37.55957794189453 174.0399169921875 L 40.635337829589844 175.0572052001953" stroke-width="1.0" fill="rgb(212, 255, 209)" opacity="0.5041568"/>
    <path d="M 209.5822296142578 33.83657455444336 C 211.59963989257812 34.51370620727539 210.8226318359375 34.90209197998047 210.7952880859375 39.4978141784668 C 212.30502319335938 38.896541595458984 210.39793395996094 38.391815185546875 210.4385223388672 42.7886962890625 C 211.72589111328125 41.54920959472656 210.37783813476562 42.04203796386719 208.7555389404297 46.741737365722656 C 213.03823852539062 51.38614273071289 212.29473876953125 48.15494155883789 210.36195373535156 51.75083923339844 L 194.56520080566406 68.87596893310547 L 177.16258239746094 51.34299850463867 L 196.07232666015625 35.5078239440918 C 194.591064453125 31.67584800720215 196.42506408691406 33.129032135009766 196.0113525390625 33.29139709472656 C 198.07540893554688 31.19613265991211 200.24032592773438 31.01254653930664 200.76222229003906 31.6247615814209 C 199.94064331054688 30.344039916992188 201.9981231689453 31.725759506225586 204.185302734375 31.039588928222656 C 205.934326171875 31.612293243408203 208.44776916503906 32.09258270263672 209.5822296142578 33.83657455444336" stroke-width="1.0" fill="rgb(253, 232, 186)" opacity="0.92797774"/>
    <path d="M 152.78829956054688 80.27706909179688 L 50.075592041015625 183.25274658203125 L 49.92255401611328 183.35818481445312 L 42.6448974609375 176.93563842773438 L 144.8662872314453 74.44029998779297 L 152.78829956054688 80.27706909179688" stroke-width="1.0" fill="rgb(255, 237, 156)" opacity="0.96132386"/>
    <path d="M 146.28878784179688 72.15262603759766 L 42.7033805847168 177.3062286376953 L 36.89925765991211 172.27899169921875 L 146.28878784179688 72.15262603759766" stroke-width="1.0" fill="rgb(227, 234, 255)" opacity="0.3974056"/>
    <path d="M 252.3294677734375 136.93093872070312 Q 252.3567352294922 135.53785705566406 250.0702362060547 135.83477783203125 Q 249.72616577148438 134.14642333984375 248.80555725097656 134.6262969970703 Q 247.57420349121094 134.03250122070312 246.88162231445312 133.48431396484375 Q 244.4078826904297 132.92530822753906 243.87808227539062 132.9829559326172 L 231.682861328125 133.5950469970703 Q 227.0631561279297 134.27769470214844 216.9174346923828 133.91925048828125 Q 214.68099975585938 134.3558349609375 206.44515991210938 131.74044799804688 Q 201.8207244873047 131.09945678710938 193.6125946044922 127.91997528076172 Q 188.91448974609375 124.54412078857422 183.15992736816406 121.5744400024414 L 166.5628204345703 109.93853759765625 L 198.752197265625 77.92011260986328 Q 199.52931213378906 76.41736602783203 200.451171875 75.69557189941406 Q 202.2453155517578 72.24835205078125 201.48280334472656 70.35023498535156 Q 202.6291961669922 70.51892852783203 202.1698455810547 68.05339050292969 Q 202.29974365234375 65.65089416503906 200.81881713867188 64.14291381835938 L 212.6505584716797 53.31968307495117 C 215.50259399414062 50.018760681152344 217.92218017578125 44.54426193237305 217.02127075195312 41.87001419067383 C 217.55130004882812 35.410701751708984 215.32801818847656 32.6627311706543 213.3358154296875 29.51934051513672 C 209.98443603515625 26.50711441040039 206.12266540527344 25.05034065246582 202.2730712890625 24.286163330078125 C 195.66506958007812 24.305294036865234 192.5661163330078 25.85731315612793 189.0984344482422 29.24207305908203 L 177.89398193359375 41.17169189453125 Q 175.59359741210938 41.3956184387207 176.0047149658203 40.15953826904297 Q 171.86363220214844 40.25043487548828 169.3017578125 40.65312194824219 Q 168.38258361816406 40.532283782958984 167.22303771972656 41.94755935668945 Q 164.53810119628906 43.52016830444336 163.72593688964844 44.89657974243164 L 162.49188232421875 46.0318603515625 C 160.14996337890625 44.88187026977539 156.6014862060547 44.475006103515625 154.75906372070312 43.63743591308594 C 153.24729919433594 44.25130081176758 150.09182739257812 43.70505905151367 147.37017822265625 44.712303161621094 C 143.90187072753906 44.74271011352539 141.67767333984375 46.747196197509766 138.40362548828125 47.89683151245117 C 137.272705078125 49.037681579589844 134.9475555419922 50.17887878417969 133.05209350585938 52.415008544921875 L 101.14093780517578 84.36322021484375 C 99.63117980957031 84.25621795654297 99.0703125 86.24022674560547 98.2579116821289 86.80996704101562 C 96.66931915283203 87.77539825439453 98.5143814086914 89.1860122680664 99.69430541992188 91.36940002441406 C 100.71747589111328 92.06385040283203 101.43366241455078 92.68659210205078 101.60063171386719 92.26838684082031 C 105.08710479736328 92.75567626953125 105.830078125 90.69123077392578 106.62455749511719 90.05115509033203 L 138.30941772460938 57.83878707885742 Q 140.47052001953125 56.14299774169922 141.68948364257812 54.90848922729492 Q 145.4722900390625 53.73458480834961 146.65493774414062 53.0104866027832 Q 151.903076171875 51.1587028503418 151.19479370117188 52.878414154052734 Q 152.27684020996094 51.057579040527344 155.9700164794922 52.5600471496582 L 113.34839630126953 95.01673889160156 L 92.37510681152344 95.04950714111328 C 86.28231811523438 96.13133239746094 82.49971008300781 96.00498962402344 77.97956848144531 97.62708282470703 C 75.38441467285156 98.44974517822266 71.95008850097656 99.57426452636719 68.77965545654297 101.10071563720703 C 65.95500183105469 102.7676010131836 63.678951263427734 104.33737182617188 60.231048583984375 106.99198913574219 C 58.26276397705078 109.75591278076172 55.715309143066406 110.45972442626953 54.80664825439453 113.68260955810547 L 27.69597625732422 153.08023071289062 C 25.736431121826172 155.86434936523438 24.7537841796875 159.27188110351562 23.810531616210938 160.50918579101562 C 24.525463104248047 162.9303436279297 21.63908576965332 164.98577880859375 23.158203125 165.84591674804688 C 23.070419311523438 170.03968811035156 24.303070068359375 172.0107879638672 25.82887077331543 174.53579711914062 C 25.83420181274414 177.04493713378906 28.348604202270508 177.46636962890625 29.83561897277832 180.525146484375 Q 27.638761520385742 182.05401611328125 24.906208038330078 185.99847412109375 Q 23.353363037109375 187.88157653808594 21.868106842041016 191.41830444335938 Q 20.537405014038086 193.5078125 19.047483444213867 196.02943420410156 Q 17.50533103942871 199.1925506591797 15.947890281677246 202.05723571777344 L 5.493782043457031 229.52667236328125 L 1.46205472946167 235.12757873535156 C -0.1905881017446518 235.60121154785156 0.10315980762243271 237.27711486816406 0.15091034770011902 239.11231994628906 C -0.2967079281806946 238.244384765625 0.3382372558116913 239.675537109375 1.2089800834655762 240.86947631835938 C 2.500478506088257 241.5751190185547 2.73998761177063 242.75875854492188 3.589538812637329 242.4431610107422 C 6.11966609954834 243.21453857421875 6.045280456542969 241.84573364257812 8.218148231506348 240.79798889160156 L 11.794137954711914 237.1029052734375 L 39.113216400146484 226.4805145263672 Q 44.45497131347656 225.56065368652344 49.27381896972656 222.3291778564453 Q 53.52853012084961 220.72103881835938 56.16908264160156 218.20895385742188 Q 60.283321380615234 215.99302673339844 64.17488098144531 212.57119750976562 Q 66.62830352783203 209.69789123535156 69.83124542236328 206.8189697265625 L 82.875244140625 192.95547485351562 Q 83.9032974243164 192.87579345703125 84.24591064453125 192.9747314453125 Q 83.45789337158203 195.0858917236328 83.56427001953125 195.43959045410156 Q 84.16297149658203 195.4517364501953 84.89292907714844 195.3403778076172 Q 86.53765106201172 194.84983825683594 84.89970397949219 195.6845245361328 L 121.99366760253906 212.93333435058594 Q 128.0596160888672 215.14393615722656 133.35760498046875 216.76031494140625 Q 139.4298858642578 218.57701110839844 143.45150756835938 219.10028076171875 Q 150.33123779296875 220.92349243164062 156.11143493652344 222.6824951171875 Q 162.29750061035156 224.04501342773438 170.4468231201172 223.30517578125 L 246.90771484375 217.4644775390625 C 248.28919982910156 214.3209228515625 250.44862365722656 213.23138427734375 251.48345947265625 211.54425048828125 C 252.25794982910156 210.8314971923828 252.69024658203125 209.59310913085938 254.04673767089844 208.61415100097656 C 254.3575897216797 207.6977081298828 254.96401977539062 205.22354125976562 255.47012329101562 204.30682373046875 C 255.27685546875 201.8679962158203 255.51332092285156 200.30235290527344 256.3692626953125 199.21023559570312 L 256.7132263183594 144.36167907714844 Q 256.4017639160156 143.7139434814453 255.5653839111328 143.84381103515625 Q 255.4658966064453 142.3785858154297 254.85733032226562 140.66860961914062 Q 254.912109375 139.5545196533203 253.7781219482422 139.06646728515625 Q 253.18618774414062 138.18666076660156 252.3294677734375 136.93093872070312" stroke-width="1.0" fill="rgb(127, 85, 171)" opacity="0.74905723"/>
    <path d="M 236.99769592285156 180.6694793701172 L 226.76290893554688 181.20054626464844 C 225.97816467285156 181.30357360839844 225.74526977539062 182.67674255371094 224.33163452148438 181.427734375 C 225.13929748535156 182.14646911621094 224.02569580078125 184.0601348876953 223.60301208496094 185.00877380371094 C 223.77987670898438 185.74453735351562 224.58485412597656 186.99713134765625 224.82058715820312 187.93174743652344 C 225.84385681152344 188.9068603515625 227.54541015625 188.4747314453125 229.39707946777344 188.73715209960938 L 237.4853973388672 188.4415740966797 C 237.36688232421875 188.5063934326172 238.6060791015625 188.1914825439453 239.05711364746094 186.9049835205078 C 240.0103302001953 187.09727478027344 239.8567657470703 185.29197692871094 240.3589324951172 184.40139770507812 C 240.29534912109375 185.1320343017578 239.91209411621094 182.84518432617188 239.98475646972656 181.986572265625 C 237.75538635253906 181.9437255859375 240.37655639648438 180.8008575439453 237.42449951171875 181.00914001464844 L 236.99769592285156 180.6694793701172" stroke-width="1.0" fill="rgb(107, 82, 143)" opacity="0.80422074"/>
  </g>
</svg>
