<?xml version="1.0" ?>
<svg xmlns="http://www.w3.org/2000/svg" version="1.1" width="256" height="256">
  <defs/>
  <g>
    <path d="M 85.64225769042969 180.32131958007812 L 44.14414596557617 209.4797821044922 C 64.4853515625 161.24205017089844 29.474611282348633 121.82784271240234 32.66155242919922 181.68324279785156 C 23.58302879333496 176.9854278564453 20.31659698486328 163.8900604248047 27.992103576660156 152.61033630371094 L 54.841957092285156 114.28980255126953 C 63.236228942871094 104.24662780761719 72.66854095458984 97.58171081542969 87.61004638671875 96.22430419921875 L 137.3828582763672 93.09056854248047 L 205.2302703857422 134.62747192382812 L 167.93605041503906 128.17254638671875 C 200.17359924316406 177.0869140625 138.5334930419922 169.5417022705078 93.9639663696289 162.15560913085938 C 129.5657196044922 168.0342254638672 72.88591766357422 156.141357421875 85.64225769042969 180.32131958007812" stroke-width="2.0" fill="rgb(121, 77, 156)" opacity="0.7984616"/>
    <path d="M 40.821937561035156 225.0653076171875 L 2.1403026580810547 240.05923461914062 L 15.530532836914062 205.94786071777344 C 19.808868408203125 192.01881408691406 28.834373474121094 179.74014282226562 34.79658508300781 173.4563446044922 L 163.5452423095703 45.05849075317383 C 169.9257049560547 37.8054313659668 170.5752410888672 44.778438568115234 193.8153533935547 36.800960540771484 C 175.90478515625 54.176246643066406 181.00897216796875 59.11052322387695 179.32472229003906 43.8116569519043 L 199.8647918701172 62.42155838012695 C 201.16273498535156 67.0426254272461 204.57139587402344 74.53559112548828 193.1045684814453 81.19051361083984 C 186.05357360839844 91.35257720947266 180.4263916015625 74.58582305908203 197.45846557617188 78.2293472290039 L 69.65728759765625 206.27719116210938 C 61.50563049316406 213.85142517089844 52.40629577636719 221.03622436523438 40.821937561035156 225.0653076171875" stroke-width="2.0" fill="rgb(73, 20, 103)" opacity="0.6392785"/>
    <path d="M 172.14491271972656 88.36073303222656 L 50.51474380493164 188.871337890625 L 73.5917739868164 169.03439331054688 L 77.2719955444336 187.9901885986328 L 165.18734741210938 78.60779571533203 L 172.14491271972656 88.36073303222656" stroke-width="2.0" fill="rgb(49, 0, 122)" opacity="1.0"/>
    <path d="M 224.90528869628906 147.12582397460938 L 223.9730987548828 206.4282989501953 C 177.901611328125 210.27273559570312 167.0499267578125 214.0645294189453 139.1861114501953 210.54013061523438 L 113.17259979248047 198.85873413085938 C 77.63046264648438 181.88433837890625 77.80792236328125 181.89227294921875 87.39904022216797 186.57835388183594 C 91.14688873291016 165.33335876464844 90.00511169433594 177.7100830078125 87.07472229003906 189.41419982910156 C 83.18280792236328 188.6903076171875 90.39131927490234 185.04705810546875 82.7873306274414 193.22628784179688 L 122.28562927246094 211.91763305664062 C 135.67428588867188 218.4432830810547 152.80760192871094 221.77186584472656 168.1136932373047 219.81568908691406 L 246.1837615966797 211.88441467285156 C 252.79881286621094 210.42544555664062 257.41015625 204.98973083496094 256.1734619140625 195.24533081054688 C 260.2577209472656 205.1903076171875 259.88543701171875 202.34744262695312 261.44427490234375 198.20957946777344 L 257.7387390136719 149.9955596923828 C 253.85372924804688 138.05258178710938 255.735107421875 130.44085693359375 224.29580688476562 135.89886474609375 C 253.1366729736328 136.10069274902344 254.8154754638672 136.4904327392578 245.3769073486328 133.70619201660156 L 242.4967498779297 135.98902893066406 C 211.601806640625 136.82603454589844 199.58094787597656 125.9744873046875 169.05015563964844 135.9369659423828 L 148.0688018798828 119.98211669921875 L 224.90528869628906 147.12582397460938" stroke-width="2.0" fill="rgb(88, 39, 116)" opacity="0.6827452"/>
    <path d="M 171.80393981933594 189.26229858398438 C 161.30313110351562 193.4528045654297 150.05979919433594 210.3562774658203 122.60755920410156 203.94825744628906 L 116.60478973388672 175.28746032714844 C 114.68291473388672 156.8358154296875 74.70890045166016 160.62188720703125 84.00428771972656 182.98223876953125 L 88.34996032714844 187.8712158203125 C 99.11415100097656 178.40887451171875 112.33618927001953 162.5786895751953 110.08970642089844 169.0061492919922 C 107.53311920166016 152.79617309570312 114.66439056396484 181.8505096435547 123.96241760253906 202.1553497314453 C 121.61344146728516 202.86044311523438 149.0861053466797 209.0149688720703 166.51589965820312 189.6996612548828 L 173.91188049316406 167.47523498535156 C 173.1990509033203 169.53671264648438 171.68177795410156 173.99462890625 168.90122985839844 182.59942626953125 C 171.1558380126953 174.75006103515625 171.73690795898438 189.3040771484375 157.21197509765625 197.74647521972656 L 171.80393981933594 189.26229858398438" stroke-width="2.0" fill="rgb(255, 255, 250)" opacity="0.92999893"/>
    <path d="M 168.70864868164062 144.73403930664062 L 141.490234375 161.39292907714844 C 129.14657592773438 134.8460693359375 136.25071716308594 148.1997833251953 129.40487670898438 148.74684143066406 L 113.90408325195312 163.45468139648438 L 156.7030487060547 120.01261901855469 C 153.88412475585938 116.36952209472656 172.80364990234375 116.75530242919922 178.3654022216797 133.0480194091797 C 165.6196746826172 148.86424255371094 160.65411376953125 148.598388671875 168.70864868164062 144.73403930664062" stroke-width="2.0" fill="rgb(254, 170, 126)" opacity="0.87645435"/>
    <path d="M 75.54505920410156 143.99522399902344 L 75.17829895019531 190.97178649902344 C 58.29848861694336 193.1915283203125 58.41257095336914 207.64697265625 51.47874450683594 211.8929901123047 L 15.687920570373535 226.88363647460938 L 10.043563842773438 242.0757293701172 L 20.538963317871094 214.11338806152344 C 27.359785079956055 196.3112030029297 34.98005676269531 177.2393341064453 42.94517135620117 186.44174194335938 L 75.54505920410156 143.99522399902344" stroke-width="2.0" fill="rgb(151, 211, 176)" opacity="0.8762182"/>
    <path d="M 210.51658630371094 28.710784912109375 C 219.83131408691406 35.62321472167969 218.96279907226562 54.52656936645508 208.74957275390625 45.0224494934082 C 203.4293670654297 20.846426010131836 151.61209106445312 54.18138885498047 217.75723266601562 46.833866119384766 L 178.36865234375 86.16673278808594 L 142.2324981689453 76.99967193603516 L 189.33148193359375 30.57574462890625 C 194.45718383789062 23.9155330657959 205.42266845703125 23.343547821044922 212.4177703857422 29.935483932495117 C 209.8404998779297 37.025360107421875 204.10140991210938 30.425630569458008 210.51658630371094 28.710784912109375" stroke-width="2.0" fill="rgb(134, 164, 171)" opacity="1.0"/>
    <path d="M 168.166748046875 104.37149810791016 L 111.53781127929688 206.18116760253906 L 102.83720397949219 151.9805145263672 L 33.10332107543945 186.8886260986328 L 145.8214569091797 73.73403930664062 L 168.166748046875 104.37149810791016" stroke-width="2.0" fill="rgb(255, 231, 175)" opacity="0.5666944"/>
    <path d="M 189.01890563964844 74.93140411376953 L 64.10134887695312 201.115234375 L 24.37811851501465 123.69107818603516 L 189.01890563964844 74.93140411376953" stroke-width="2.0" fill="rgb(255, 255, 194)" opacity="0.5483982"/>
    <path d="M 244.49644470214844 141.5003662109375 C 235.00991821289062 142.76844787597656 238.98361206054688 142.72314453125 240.31019592285156 141.18992614746094 L 238.2213897705078 151.39328002929688 C 205.97711181640625 141.63442993164062 192.85498046875 136.44601440429688 173.52760314941406 125.62458038330078 L 154.12815856933594 105.95089721679688 L 188.20797729492188 76.59100341796875 C 167.172119140625 93.65692901611328 160.65835571289062 104.26048278808594 188.49893188476562 61.79880142211914 L 188.5372314453125 36.23479080200195 C 209.20169067382812 29.114730834960938 211.1990203857422 37.35955047607422 206.3074188232422 50.56195831298828 C 214.142578125 45.40089416503906 207.93077087402344 36.00142288208008 208.2119598388672 46.8402214050293 L 186.49786376953125 64.76786041259766 C 162.8251953125 101.39212036132812 157.99945068359375 107.32865142822266 162.10452270507812 82.18962097167969 L 163.65017700195312 56.91276931762695 C 166.16473388671875 37.57100296020508 144.87608337402344 42.43785095214844 133.30245971679688 52.120487213134766 L 100.58836364746094 85.20750427246094 C 99.23481750488281 86.60542297363281 99.10198974609375 84.73763275146484 99.43106842041016 91.28385925292969 C 106.14550018310547 92.08122253417969 100.67696380615234 95.1275634765625 119.30169677734375 65.64714813232422 C 102.29270935058594 94.8403091430664 101.65701293945312 95.18677520751953 106.02241516113281 90.32067108154297 L 139.49838256835938 56.659523010253906 C 144.78819274902344 51.72651290893555 165.981689453125 47.69432830810547 163.64170837402344 57.61384963989258 L 157.77426147460938 148.15469360351562 L 103.0809097290039 156.92506408691406 C 99.06644439697266 134.09571838378906 101.91246795654297 137.46307373046875 101.64225769042969 159.17510986328125 L 62.981685638427734 179.87759399414062 C 55.567047119140625 188.13177490234375 58.77323913574219 180.11343383789062 80.40764617919922 170.74081420898438 C 62.25602722167969 216.28378295898438 54.312652587890625 221.32278442382812 35.076629638671875 217.24856567382812 L 9.512109756469727 237.81753540039062 L -0.8665333390235901 239.5320587158203 C 0.24506878852844238 236.9225311279297 8.351873397827148 225.22216796875 3.3269855976104736 236.90667724609375 C -0.5664987564086914 237.1682891845703 -1.8885600566864014 243.84149169921875 7.084784984588623 241.28082275390625 C -2.0849978923797607 238.84341430664062 -2.3082664012908936 231.72402954101562 6.4547200202941895 241.26699829101562 L 13.866390228271484 234.3960723876953 L 35.06496810913086 217.22879028320312 C 53.19697952270508 221.21522521972656 57.76590347290039 214.42422485351562 66.89981079101562 201.38107299804688 L 80.92893981933594 170.3655548095703 C 132.62588500976562 141.0740203857422 146.98989868164062 147.9256591796875 140.5334014892578 196.28890991210938 L 128.3336181640625 206.0822296142578 C 142.9337921142578 213.32676696777344 158.51283264160156 212.63348388671875 160.5218048095703 211.31240844726562 L 235.97740173339844 200.98731994628906 C 249.02735900878906 208.3599090576172 256.381103515625 203.1279754638672 250.7897186279297 203.4688720703125 C 255.57398986816406 204.99618530273438 242.33901977539062 206.54241943359375 248.113525390625 201.46246337890625 L 248.0557861328125 171.82640075683594 C 247.57916259765625 147.0121612548828 250.3555908203125 141.8216552734375 244.49644470214844 141.5003662109375" stroke-width="2.0" fill="rgb(198, 144, 116)" opacity="0.66651094"/>
    <path d="M 249.04649353027344 149.79229736328125 L 175.6890411376953 133.0729522705078 C 186.69017028808594 151.39529418945312 187.23385620117188 106.39225769042969 144.95648193359375 130.0862579345703 C 123.94708251953125 231.41082763671875 126.79813385009766 201.37481689453125 153.9901885986328 213.13522338867188 L 247.7547607421875 203.10321044921875 C 250.46876525878906 188.64483642578125 240.058837890625 173.75328063964844 265.6711120605469 147.8023681640625 C 255.6990966796875 161.05072021484375 243.62594604492188 184.4478302001953 249.04649353027344 149.79229736328125" stroke-width="2.0" fill="rgb(248, 250, 240)" opacity="0.700587"/>
  </g>
</svg>
