<?xml version="1.0" ?>
<svg xmlns="http://www.w3.org/2000/svg" version="1.1" width="256" height="256">
  <defs/>
  <g>
    <path d="M 76.9369125366211 174.33294677734375 L 50.02952575683594 183.53887939453125 C 44.99464797973633 183.75717163085938 39.569034576416016 180.90782165527344 32.36375045776367 181.26113891601562 C 24.28702163696289 175.52064514160156 21.508888244628906 163.501220703125 28.576274871826172 153.33055114746094 L 55.81739044189453 114.90397644042969 C 62.99372100830078 104.66911315917969 74.38488006591797 98.26493072509766 85.91529846191406 97.21800994873047 L 141.34019470214844 93.81983947753906 L 195.1802520751953 130.67701721191406 L 189.22476196289062 173.57421875 C 187.7215576171875 173.62693786621094 117.5355453491211 184.21836853027344 114.17596435546875 185.5910186767578 C 110.23480224609375 185.26651000976562 75.91996002197266 175.02626037597656 76.9369125366211 174.33294677734375" stroke-width="1.2799999713897705" fill="rgb(249, 238, 220)" opacity="1.0"/>
    <path d="M 40.76072311401367 224.5134735107422 L 7.949700355529785 236.73208618164062 L 17.129825592041016 203.6630859375 C 21.236061096191406 191.97486877441406 28.936046600341797 180.69082641601562 36.54206085205078 173.52806091308594 L 164.1588134765625 45.559146881103516 C 169.23583984375 41.35483169555664 174.41207885742188 39.267757415771484 177.92491149902344 44.43578338623047 C 177.9360809326172 46.580833435058594 177.70086669921875 47.24436569213867 179.42027282714844 45.8928108215332 L 197.11520385742188 61.485137939453125 C 201.81100463867188 66.92572021484375 203.86903381347656 72.58611297607422 192.7879638671875 81.38775634765625 C 184.29827880859375 90.54785919189453 188.00230407714844 82.50543975830078 196.73521423339844 77.68673706054688 L 69.17692565917969 205.91136169433594 C 61.443321228027344 213.3524932861328 51.33052444458008 220.7762451171875 40.76072311401367 224.5134735107422" stroke-width="1.2799999713897705" fill="rgb(113, 201, 174)" opacity="1.0"/>
    <path d="M 171.82040405273438 98.62336730957031 L 67.35163879394531 204.83984375 L 48.48555374145508 185.14559936523438 L 47.6817512512207 181.0723419189453 L 152.19493103027344 76.06039428710938 L 171.82040405273438 98.62336730957031" stroke-width="1.2799999713897705" fill="rgb(255, 228, 173)" opacity="1.0"/>
    <path d="M 174.13934326171875 155.3523406982422 L 162.15866088867188 158.59286499023438 C 156.66372680664062 164.0846710205078 148.93531799316406 166.92373657226562 141.0287628173828 163.82090759277344 L 96.1241455078125 164.7099151611328 C 94.57331085205078 161.8025360107422 85.26115417480469 164.6637725830078 84.24617004394531 168.19720458984375 C 79.43873596191406 172.16416931152344 80.91546630859375 179.33956909179688 86.7525863647461 188.74563598632812 C 78.2491226196289 191.60781860351562 84.06654357910156 192.54913330078125 85.83638000488281 193.6570587158203 L 122.84491729736328 211.3472137451172 C 134.1082000732422 217.11314392089844 153.9596405029297 221.32220458984375 167.6302490234375 219.03846740722656 L 245.24127197265625 211.27088928222656 C 250.2212371826172 209.9185791015625 252.90016174316406 207.75860595703125 255.80990600585938 200.4827880859375 C 258.6646728515625 202.75735473632812 258.49102783203125 201.13612365722656 258.5746765136719 199.78231811523438 L 258.17266845703125 145.4363250732422 C 251.18368530273438 140.89840698242188 252.4114227294922 132.74798583984375 242.9162139892578 136.10482788085938 C 242.62191772460938 137.54678344726562 247.0638885498047 142.3641357421875 245.25848388671875 134.1141357421875 L 234.7718505859375 135.22315979003906 C 217.2167205810547 137.0468292236328 196.93112182617188 133.43089294433594 181.9034881591797 122.81626892089844 L 161.4683074951172 109.15662384033203 L 174.13934326171875 155.3523406982422" stroke-width="1.2799999713897705" fill="rgb(249, 238, 220)" opacity="1.0"/>
    <path d="M 168.3272705078125 174.7500762939453 C 160.52786254882812 178.9044952392578 152.46519470214844 180.6097412109375 144.59951782226562 179.67971801757812 L 104.3711929321289 175.76931762695312 C 95.20218658447266 175.11624145507812 91.46762084960938 177.74510192871094 86.39497375488281 182.8682403564453 L 81.83517456054688 182.23414611816406 C 83.03331756591797 182.05563354492188 83.26605224609375 171.9365234375 85.85433959960938 168.2984619140625 C 89.7718276977539 156.4995880126953 121.66358947753906 166.2191162109375 124.01878356933594 165.11904907226562 C 123.42713165283203 164.75047302246094 144.81088256835938 171.21844482421875 167.4745330810547 162.14166259765625 L 175.86444091796875 153.0748291015625 C 179.995361328125 157.44509887695312 178.361328125 169.447021484375 171.2216033935547 173.12452697753906 C 171.05014038085938 173.30484008789062 169.85813903808594 173.45028686523438 170.85476684570312 174.0438995361328 L 168.3272705078125 174.7500762939453" stroke-width="1.2799999713897705" fill="rgb(255, 247, 243)" opacity="1.0"/>
    <path d="M 161.43817138671875 136.10723876953125 L 139.39097595214844 158.41232299804688 C 136.44699096679688 161.0732421875 143.03697204589844 165.88861083984375 129.97735595703125 163.3238983154297 L 106.89891815185547 163.0991973876953 L 161.69720458984375 106.82389831542969 C 164.5685272216797 115.23670196533203 168.046875 126.3027572631836 164.69810485839844 131.63328552246094 C 163.399658203125 134.62083435058594 162.22222900390625 134.9341583251953 161.43817138671875 136.10723876953125" stroke-width="1.2799999713897705" fill="rgb(234, 207, 178)" opacity="1.0"/>
    <path d="M 40.580039978027344 174.2994384765625 L 49.38632583618164 184.6541290283203 C 41.77345275878906 193.20562744140625 34.518856048583984 202.3056182861328 29.002992630004883 221.602783203125 L 20.810209274291992 232.0518341064453 L 6.124496936798096 233.0088653564453 L 17.986385345458984 201.33131408691406 C 22.625995635986328 191.15879821777344 28.084033966064453 181.44882202148438 36.6945915222168 173.62796020507812 L 40.580039978027344 174.2994384765625" stroke-width="1.6383999586105347" fill="rgb(156, 225, 188)" opacity="1.0"/>
    <path d="M 209.78036499023438 28.086137771606445 C 218.2410888671875 35.313804626464844 217.376953125 46.312110900878906 212.23785400390625 50.76762008666992 C 211.37474060058594 48.80665588378906 212.652099609375 50.37776184082031 215.221435546875 47.849544525146484 L 196.3281707763672 67.88236236572266 L 175.76817321777344 45.138187408447266 L 189.7743682861328 31.068544387817383 C 195.4893341064453 25.36809730529785 203.43048095703125 23.88296890258789 210.76116943359375 29.9274959564209 C 210.85841369628906 33.91669464111328 209.61373901367188 32.50505828857422 209.78036499023438 28.086137771606445" stroke-width="1.2799999713897705" fill="rgb(246, 225, 173)" opacity="1.0"/>
    <path d="M 152.7961883544922 80.88999938964844 L 50.61670684814453 183.559326171875 L 49.36004638671875 184.029296875 L 36.719966888427734 173.38314819335938 L 142.00558471679688 69.94674682617188 L 152.7961883544922 80.88999938964844" stroke-width="1.2799999713897705" fill="rgb(253, 233, 154)" opacity="1.0"/>
    <path d="M 148.19032287597656 66.49555206298828 L 42.009700775146484 178.36209106445312 L 35.84280014038086 173.146484375 L 148.19032287597656 66.49555206298828" stroke-width="1.2799999713897705" fill="rgb(167, 165, 181)" opacity="1.0"/>
    <path d="M 251.697509765625 136.22946166992188 C 248.6699981689453 134.6909637451172 248.60107421875 133.81640625 243.22927856445312 133.62716674804688 L 231.70831298828125 134.78170776367188 C 211.95437622070312 135.33447265625 198.58067321777344 131.51844787597656 183.0845489501953 121.52011108398438 L 166.359375 109.76538848876953 L 198.11831665039062 77.86272430419922 C 201.91932678222656 74.61868286132812 202.31956481933594 67.99048614501953 200.68423461914062 64.53370666503906 L 211.6187744140625 53.311466217041016 C 219.135498046875 47.31038284301758 218.46527099609375 34.76847839355469 212.6675567626953 29.91451644897461 C 206.5899658203125 24.34036636352539 196.75845336914062 22.765466690063477 189.60667419433594 29.871456146240234 L 177.94219970703125 41.36388397216797 C 170.9728546142578 39.77617645263672 169.67701721191406 40.137298583984375 164.47462463378906 43.8564567565918 L 162.74429321289062 45.65605545043945 C 150.9055938720703 42.039093017578125 141.25511169433594 44.52927017211914 132.84902954101562 52.465362548828125 L 101.03697204589844 84.42829132080078 C 98.26132202148438 85.68142700195312 98.15693664550781 86.3007583618164 99.30254364013672 90.67943572998047 C 101.24681091308594 93.05191040039062 101.02194213867188 92.42506408691406 105.95065307617188 92.02539825439453 C 105.57662963867188 92.70943450927734 104.74449157714844 90.9607925415039 106.54859924316406 90.13246154785156 L 139.49676513671875 57.15135955810547 C 147.2490997314453 52.37247848510742 146.94583129882812 52.05599594116211 155.79833984375 52.52024459838867 L 113.90370178222656 94.47177124023438 L 87.94886016845703 96.05023956298828 C 75.12084197998047 96.78062438964844 61.983394622802734 103.63573455810547 54.69534683227539 114.78849792480469 L 27.628496170043945 152.97059631347656 C 21.536529541015625 162.04190063476562 22.329097747802734 171.68051147460938 29.1490421295166 180.23831176757812 C 23.814491271972656 186.1320343017578 19.77134132385254 194.57887268066406 16.661178588867188 201.82913208007812 L 5.990013599395752 230.61978149414062 L 0.23559804260730743 235.92860412597656 C -1.5174661874771118 233.30201721191406 -3.2662353515625 239.00433349609375 0.24177944660186768 239.71278381347656 C 0.05381619930267334 242.54014587402344 3.123878240585327 242.36253356933594 6.302115440368652 242.4175567626953 C 6.192420482635498 241.5595703125 6.044772148132324 241.0348663330078 6.76848030090332 241.5741424560547 L 11.856910705566406 236.22512817382812 L 40.096885681152344 225.78884887695312 C 52.47119903564453 220.7230987548828 60.34300994873047 215.5726776123047 69.96125030517578 206.4043731689453 L 82.63117980957031 193.98480224609375 C 86.79804229736328 193.40899658203125 82.9306640625 194.5325469970703 85.35939025878906 194.7230224609375 L 122.94233703613281 212.4563446044922 C 136.2828369140625 219.08627319335938 152.43637084960938 221.6848907470703 167.5513458251953 220.12887573242188 L 246.1588897705078 212.16793823242188 C 251.5017547607422 211.48892211914062 257.60467529296875 205.07742309570312 254.95932006835938 202.1902313232422 C 253.70668029785156 203.8414764404297 256.3367919921875 203.8091583251953 258.4782409667969 202.9214324951172 L 256.72650146484375 148.01019287109375 C 256.02532958984375 141.76254272460938 255.35678100585938 139.51988220214844 251.697509765625 136.22946166992188" stroke-width="5.6294989585876465" fill="rgb(201, 186, 187)" opacity="1.0"/>
    <path d="M 237.13113403320312 180.69891357421875 L 228.00424194335938 180.97857666015625 C 228.28433227539062 179.70335388183594 223.8181610107422 183.06884765625 224.7208251953125 183.22952270507812 C 223.32603454589844 186.71080017089844 226.06175231933594 189.62796020507812 231.5360870361328 188.70999145507812 L 235.44117736816406 188.9119873046875 C 239.359130859375 188.09800720214844 238.6214141845703 189.16671752929688 240.31739807128906 184.64166259765625 C 239.10231018066406 180.3799285888672 237.9961700439453 182.67066955566406 237.13113403320312 180.69891357421875" stroke-width="1.6383999586105347" fill="rgb(144, 112, 161)" opacity="1.0"/>
  </g>
</svg>
