<?xml version="1.0" encoding="utf-8" ?>
<svg baseProfile="tiny" height="256" version="1.2" viewBox="0 0 256 256" width="256" xmlns="http://www.w3.org/2000/svg" xmlns:ev="http://www.w3.org/2001/xml-events" xmlns:xlink="http://www.w3.org/1999/xlink"><defs /><path d="M 76.8,172.8 C 76.8,172.8 49.9,181.8 49.9,181.8 C 48.63333333333333,182.20000000000002 47.333333333333336,182.46666666666667 46.0,182.60000000000002 C 44.6,182.66666666666669 43.233333333333334,182.60000000000002 41.9,182.40000000000003 C 40.56666666666666,182.20000000000002 39.266666666666666,181.80000000000004 38.0,181.20000000000005 C 36.800000000000004,180.6666666666667 35.66666666666667,180.00000000000003 34.6,179.20000000000005 C 32.800000000000004,177.90000000000003 31.3,176.30000000000004 30.200000000000003,174.50000000000006 C 29.000000000000004,172.60000000000005 28.300000000000004,170.60000000000005 27.900000000000002,168.50000000000006 C 27.6,166.30000000000007 27.6,164.10000000000005 28.1,162.00000000000006 C 28.6,159.90000000000006 29.5,157.90000000000006 30.700000000000003,156.20000000000005 C 30.700000000000003,156.20000000000005 57.6,116.50000000000004 57.6,116.50000000000004 C 59.333333333333336,114.03333333333337 61.333333333333336,111.80000000000004 63.6,109.80000000000004 C 65.86666666666667,107.80000000000004 68.33333333333333,106.0666666666667 71.0,104.60000000000004 C 73.66666666666667,103.13333333333337 76.46666666666667,102.00000000000003 79.4,101.20000000000003 C 82.33333333333334,100.40000000000003 85.30000000000001,99.93333333333337 88.30000000000001,99.80000000000003 C 88.30000000000001,99.80000000000003 140.8,97.30000000000003 140.8,97.30000000000003 C 140.8,97.30000000000003 193.3,131.8 193.3,131.8 C 193.3,131.8 186.9,171.5 186.9,171.5 C 186.9,171.5 116.5,181.8 113.9,183.0 C 111.4,183.0 76.80000000000001,172.8 76.80000000000001,172.8 C 76.80000000000001,172.8 76.8,172.8 76.8,172.8" fill="#faefde" /><path d="M 38.4,221.4 C 38.4,221.4 9.0,233.0 9.0,233.0 C 9.0,233.0 20.5,203.5 20.5,203.5 C 21.433333333333334,200.9 22.53333333333333,198.33333333333334 23.8,195.8 C 25.066666666666666,193.26666666666668 26.433333333333334,190.83333333333334 27.9,188.5 C 29.433333333333334,186.1 31.066666666666666,183.8 32.8,181.6 C 34.53333333333333,179.46666666666667 36.4,177.4 38.4,175.4 C 38.4,175.4 166.4,47.400000000000006 166.4,47.400000000000006 C 167.1,46.50000000000001 168.0,45.900000000000006 169.0,45.400000000000006 C 170.0,45.00000000000001 171.1,44.800000000000004 172.2,44.800000000000004 C 173.2,44.800000000000004 174.29999999999998,45.00000000000001 175.29999999999998,45.400000000000006 C 176.29999999999998,45.900000000000006 177.2,46.50000000000001 177.89999999999998,47.400000000000006 C 177.89999999999998,47.400000000000006 194.59999999999997,64.0 194.59999999999997,64.0 C 195.39999999999998,64.7 195.99999999999997,65.6 196.49999999999997,66.6 C 196.89999999999998,67.6 197.19999999999996,68.69999999999999 197.19999999999996,69.8 C 197.19999999999996,70.8 196.89999999999995,71.89999999999999 196.49999999999997,72.89999999999999 C 195.99999999999997,73.89999999999999 195.39999999999998,74.8 194.59999999999997,75.49999999999999 C 194.59999999999997,75.49999999999999 66.59999999999997,203.5 66.59999999999997,203.5 C 64.59999999999997,205.5 62.499999999999964,207.36666666666667 60.29999999999997,209.1 C 58.09999999999997,210.83333333333331 55.79999999999997,212.46666666666667 53.39999999999997,214.0 C 51.066666666666634,215.46666666666667 48.633333333333304,216.83333333333331 46.09999999999997,218.1 C 43.56666666666664,219.36666666666667 40.99999999999997,220.46666666666667 38.39999999999997,221.4 C 38.39999999999997,221.4 38.4,221.4 38.4,221.4" fill="#ffc0cb" /><path d="M 171.5,98.6 C 171.5,98.6 66.6,203.5 66.6,203.5 C 66.6,203.5 48.599999999999994,185.6 48.599999999999994,185.6 C 48.599999999999994,185.6 49.89999999999999,183.0 49.89999999999999,183.0 C 49.89999999999999,183.0 153.6,80.6 153.6,80.6 C 153.6,80.6 171.5,98.6 171.5,98.6" fill="#f9e3ae" /><path d="M 172.8,154.9 C 172.8,154.9 163.8,160.0 163.8,160.0 C 162.0666666666667,160.86666666666667 160.26666666666668,161.6 158.4,162.2 C 156.46666666666667,162.86666666666665 154.53333333333333,163.36666666666665 152.6,163.7 C 150.66666666666666,163.96666666666667 148.7,164.13333333333333 146.7,164.2 C 144.7,164.2 142.73333333333332,164.06666666666666 140.79999999999998,163.79999999999998 C 140.79999999999998,163.79999999999998 99.79999999999998,159.99999999999997 99.79999999999998,159.99999999999997 C 98.19999999999997,159.79999999999995 96.56666666666665,159.76666666666662 94.89999999999998,159.89999999999998 C 93.2333333333333,160.1 91.63333333333331,160.46666666666664 90.09999999999998,160.99999999999997 C 88.56666666666665,161.5333333333333 87.09999999999998,162.26666666666665 85.69999999999997,163.19999999999996 C 84.29999999999998,164.1333333333333 83.03333333333332,165.19999999999996 81.89999999999998,166.39999999999995 C 79.99999999999997,168.29999999999995 78.69999999999997,170.59999999999994 77.99999999999997,173.19999999999996 C 77.19999999999997,175.69999999999996 77.19999999999997,178.39999999999995 77.79999999999997,180.99999999999997 C 78.49999999999997,183.59999999999997 79.79999999999997,185.99999999999997 81.59999999999997,187.89999999999998 C 83.49999999999997,189.79999999999998 85.79999999999997,191.2 88.29999999999997,191.99999999999997 C 88.29999999999997,191.99999999999997 125.39999999999998,208.59999999999997 125.39999999999998,208.59999999999997 C 128.6,210.1333333333333 131.86666666666665,211.46666666666664 135.2,212.59999999999997 C 138.53333333333333,213.66666666666663 141.9333333333333,214.5333333333333 145.39999999999998,215.19999999999996 C 148.86666666666665,215.86666666666662 152.36666666666665,216.29999999999995 155.89999999999998,216.49999999999997 C 159.36666666666665,216.6333333333333 162.86666666666665,216.56666666666663 166.39999999999998,216.29999999999998 C 166.39999999999998,216.29999999999998 244.49999999999997,208.6 244.49999999999997,208.6 C 245.59999999999997,208.7 246.69999999999996,208.4 247.69999999999996,208.0 C 248.79999999999995,207.5 249.69999999999996,206.8 250.39999999999995,206.0 C 251.19999999999996,205.1 251.69999999999996,204.1 251.99999999999994,203.0 C 252.29999999999995,201.9 252.29999999999995,200.8 252.19999999999993,199.7 C 252.19999999999993,199.7 252.19999999999993,145.89999999999998 252.19999999999993,145.89999999999998 C 252.19999999999993,144.79999999999998 251.89999999999992,143.7 251.49999999999994,142.7 C 250.99999999999994,141.6 250.29999999999995,140.7 249.49999999999994,140.0 C 248.59999999999994,139.2 247.59999999999994,138.7 246.49999999999994,138.4 C 245.39999999999995,138.1 244.29999999999995,138.1 243.19999999999993,138.20000000000002 C 243.19999999999993,138.20000000000002 232.99999999999994,138.20000000000002 232.99999999999994,138.20000000000002 C 228.39999999999995,138.73333333333335 223.79999999999993,138.83333333333337 219.19999999999993,138.50000000000003 C 214.59999999999994,138.23333333333335 210.0666666666666,137.53333333333336 205.59999999999994,136.40000000000003 C 201.13333333333327,135.33333333333337 196.79999999999995,133.8666666666667 192.59999999999994,132.00000000000003 C 188.33333333333326,130.20000000000005 184.29999999999993,128.00000000000003 180.49999999999994,125.40000000000003 C 180.49999999999994,125.40000000000003 159.99999999999994,110.10000000000004 159.99999999999994,110.10000000000004" fill="#faefde" /><path d="M 167.7,175.4 C 165.9,176.26666666666668 164.06666666666666,177.0 162.2,177.6 C 160.33333333333331,178.2 158.39999999999998,178.66666666666666 156.39999999999998,179.0 C 154.46666666666664,179.33333333333334 152.5333333333333,179.5 150.59999999999997,179.5 C 148.59999999999997,179.56666666666666 146.59999999999997,179.46666666666667 144.59999999999997,179.2 C 144.59999999999997,179.2 103.69999999999996,175.39999999999998 103.69999999999996,175.39999999999998 C 101.96666666666663,175.19999999999996 100.26666666666664,175.2333333333333 98.59999999999997,175.49999999999997 C 96.9333333333333,175.76666666666665 95.29999999999997,176.23333333333332 93.69999999999996,176.89999999999998 C 92.16666666666663,177.56666666666663 90.73333333333329,178.4333333333333 89.39999999999996,179.49999999999997 C 87.99999999999997,180.49999999999997 86.79999999999997,181.66666666666663 85.79999999999997,182.99999999999997 C 85.79999999999997,182.99999999999997 83.19999999999997,188.19999999999996 83.19999999999997,188.19999999999996 C 81.89999999999998,186.59999999999997 80.79999999999997,184.69999999999996 80.09999999999998,182.79999999999995 C 79.39999999999998,180.79999999999995 78.99999999999999,178.69999999999996 78.99999999999999,176.59999999999997 C 78.99999999999999,174.49999999999997 79.39999999999999,172.49999999999997 80.09999999999998,170.49999999999997 C 80.79999999999998,168.49999999999997 81.89999999999998,166.69999999999996 83.19999999999997,165.09999999999997 C 92.19999999999997,153.59999999999997 124.19999999999997,162.59999999999997 124.19999999999997,162.59999999999997 C 124.19999999999997,162.59999999999997 145.89999999999998,170.19999999999996 165.09999999999997,158.69999999999996 C 165.09999999999997,158.69999999999996 176.59999999999997,152.29999999999995 176.59999999999997,152.29999999999995 C 177.69999999999996,154.09999999999997 178.49999999999997,156.19999999999996 178.69999999999996,158.29999999999995 C 178.99999999999997,160.39999999999995 178.79999999999995,162.59999999999997 178.19999999999996,164.59999999999997 C 177.59999999999997,166.69999999999996 176.59999999999997,168.59999999999997 175.19999999999996,170.19999999999996 C 173.89999999999995,171.79999999999995 172.19999999999996,173.09999999999997 170.19999999999996,174.09999999999997 C 170.19999999999996,174.09999999999997 167.7,175.4 167.7,175.4" fill="#fff7f0" /><path d="M 161.3,135.7 C 161.3,135.7 139.5,157.39999999999998 139.5,157.39999999999998 C 138.83333333333334,158.26666666666665 138.06666666666666,159.03333333333333 137.2,159.7 C 136.33333333333331,160.36666666666665 135.39999999999998,160.9333333333333 134.39999999999998,161.39999999999998 C 133.39999999999998,161.79999999999998 132.36666666666665,162.09999999999997 131.29999999999998,162.29999999999998 C 130.16666666666666,162.5 129.06666666666666,162.6 127.99999999999999,162.6 C 127.99999999999999,162.6 111.39999999999998,160.0 111.39999999999998,160.0 C 111.39999999999998,160.0 158.7,112.6 158.7,112.6 C 160.7,113.69999999999999 162.39999999999998,115.3 163.7,117.19999999999999 C 165.0,118.99999999999999 165.79999999999998,121.19999999999999 166.0,123.49999999999999 C 166.3,125.79999999999998 166.0,127.99999999999999 165.2,130.2 C 164.29999999999998,132.29999999999998 163.0,134.2 161.29999999999998,135.7 C 161.29999999999998,135.7 161.3,135.7 161.3,135.7" fill="#efd8be" /><path d="M 39.7,175.4 C 39.7,175.4 48.6,185.6 48.6,185.6 C 46.8,187.53333333333333 45.1,189.56666666666666 43.5,191.7 C 41.9,193.76666666666665 40.4,195.9333333333333 39.0,198.2 C 37.6,200.46666666666667 36.3,202.79999999999998 35.1,205.2 C 33.96666666666667,207.53333333333333 32.93333333333333,209.96666666666667 32.0,212.5 C 32.0,212.5 26.9,226.6 26.9,226.6 C 26.9,226.6 9.0,233.0 9.0,233.0 C 9.0,233.0 20.5,203.5 20.5,203.5 C 21.5,200.9 22.6,198.33333333333334 23.8,195.8 C 25.066666666666666,193.33333333333334 26.466666666666665,190.9 28.0,188.5 C 29.466666666666665,186.16666666666666 31.066666666666666,183.9 32.8,181.7 C 34.6,179.49999999999997 36.46666666666667,177.39999999999998 38.4,175.39999999999998 C 38.4,175.39999999999998 39.7,175.4 39.7,175.4 M 184.3,52.5 C 183.83333333333334,52.5 183.36666666666667,52.56666666666667 182.9,52.7 C 182.43333333333334,52.833333333333336 181.96666666666667,53.03333333333334 181.5,53.300000000000004 C 181.1,53.5 180.70000000000002,53.733333333333334 180.3,54.00000000000001 C 179.9,54.33333333333334 179.53333333333336,54.66666666666667 179.20000000000002,55.00000000000001 C 179.20000000000002,55.00000000000001 153.60000000000002,80.60000000000001 153.60000000000002,80.60000000000001 C 153.60000000000002,80.60000000000001 143.40000000000003,70.4 143.40000000000003,70.4 C 143.40000000000003,70.4 166.40000000000003,47.400000000000006 166.40000000000003,47.400000000000006 C 167.10000000000002,46.50000000000001 168.00000000000003,45.900000000000006 169.00000000000003,45.400000000000006 C 170.00000000000003,45.00000000000001 171.10000000000002,44.800000000000004 172.20000000000002,44.800000000000004 C 173.3,44.800000000000004 174.3,45.00000000000001 175.3,45.400000000000006 C 176.3,45.900000000000006 177.20000000000002,46.50000000000001 177.9,47.400000000000006 C 177.9,47.400000000000006 184.3,52.5 184.3,52.5" fill="#ffb6c1" /><path d="M 208.6,33.3 C 209.79999999999998,34.4 210.7,35.599999999999994 211.29999999999998,37.099999999999994 C 211.89999999999998,38.49999999999999 212.2,39.99999999999999 212.2,41.599999999999994 C 212.2,43.199999999999996 211.89999999999998,44.699999999999996 211.29999999999998,46.099999999999994 C 210.7,47.599999999999994 209.79999999999998,48.8 208.6,49.89999999999999 C 208.6,49.89999999999999 194.6,63.99999999999999 194.6,63.99999999999999 C 194.6,63.99999999999999 177.9,47.39999999999999 177.9,47.39999999999999 C 177.9,47.39999999999999 192.0,33.29999999999999 192.0,33.29999999999999 C 193.1,32.19999999999999 194.4,31.29999999999999 195.8,30.69999999999999 C 197.20000000000002,29.99999999999999 198.8,29.69999999999999 200.3,29.69999999999999 C 201.9,29.69999999999999 203.4,29.99999999999999 204.8,30.69999999999999 C 206.3,31.29999999999999 207.60000000000002,32.19999999999999 208.60000000000002,33.29999999999999 C 208.60000000000002,33.29999999999999 208.6,33.3 208.6,33.3" fill="#f9e3ae" /><path d="M 153.6,80.6 C 153.6,80.6 49.89999999999999,183.0 49.89999999999999,183.0 C 49.89999999999999,183.0 48.599999999999994,185.6 48.599999999999994,185.6 C 48.599999999999994,185.6 39.699999999999996,175.4 39.699999999999996,175.4 C 39.699999999999996,175.4 143.4,70.4 143.4,70.4 C 143.4,70.4 153.6,80.6 153.6,80.6" fill="#ffeb9b" /><path d="M 143.4,70.4 C 143.4,70.4 39.7,175.4 39.7,175.4 C 39.7,175.4 38.400000000000006,174.1 38.400000000000006,174.1 C 38.400000000000006,174.1 143.4,70.4 143.4,70.4" fill="#f9dd8f" /><path d="M 252.2,137.0 C 251.53333333333333,136.46666666666667 250.86666666666665,136.0 250.2,135.6 C 249.46666666666667,135.26666666666665 248.73333333333332,134.96666666666667 248.0,134.7 C 247.20000000000002,134.49999999999997 246.4,134.36666666666665 245.6,134.29999999999998 C 244.8,134.23333333333332 244.0,134.26666666666665 243.2,134.39999999999998 C 243.2,134.39999999999998 231.7,134.39999999999998 231.7,134.39999999999998 C 227.4333333333333,134.73333333333332 223.16666666666666,134.73333333333332 218.89999999999998,134.39999999999998 C 214.6333333333333,133.99999999999997 210.4333333333333,133.26666666666665 206.29999999999998,132.2 C 202.16666666666666,131.06666666666666 198.13333333333333,129.63333333333333 194.2,127.89999999999999 C 190.33333333333331,126.1 186.6,123.99999999999999 183.0,121.6 C 183.0,121.6 166.4,110.1 166.4,110.1 C 166.4,110.1 198.4,78.1 198.4,78.1 C 199.4,77.23333333333333 200.20000000000002,76.23333333333333 200.8,75.1 C 201.46666666666667,73.96666666666665 201.9,72.76666666666667 202.10000000000002,71.5 C 202.3666666666667,70.23333333333333 202.40000000000003,68.93333333333332 202.20000000000002,67.6 C 202.0,66.33333333333333 201.60000000000002,65.13333333333333 201.00000000000003,63.99999999999999 C 201.00000000000003,63.99999999999999 212.50000000000003,52.49999999999999 212.50000000000003,52.49999999999999 C 214.70000000000002,48.89999999999999 216.30000000000004,44.99999999999999 216.30000000000004,40.99999999999999 C 216.30000000000004,36.89999999999999 214.70000000000005,32.99999999999999 211.80000000000004,30.099999999999994 C 208.90000000000003,27.199999999999996 205.00000000000003,25.599999999999994 201.00000000000003,25.599999999999994 C 196.90000000000003,25.599999999999994 193.00000000000003,27.199999999999996 190.10000000000002,30.099999999999994 C 190.10000000000002,30.099999999999994 177.90000000000003,42.199999999999996 177.90000000000003,42.199999999999996 C 176.7666666666667,41.599999999999994 175.56666666666672,41.199999999999996 174.30000000000004,40.99999999999999 C 173.03333333333336,40.8 171.73333333333338,40.83333333333333 170.40000000000003,41.099999999999994 C 169.13333333333335,41.29999999999999 167.93333333333337,41.73333333333333 166.80000000000004,42.39999999999999 C 165.6666666666667,42.99999999999999 164.6666666666667,43.79999999999999 163.80000000000004,44.79999999999999 C 163.80000000000004,44.79999999999999 162.60000000000005,46.09999999999999 162.60000000000005,46.09999999999999 C 160.10000000000005,45.19999999999999 157.50000000000006,44.59999999999999 154.80000000000004,44.399999999999984 C 152.20000000000005,44.29999999999998 149.50000000000003,44.399999999999984 146.90000000000003,44.999999999999986 C 144.30000000000004,45.59999999999999 141.80000000000004,46.499999999999986 139.50000000000003,47.79999999999998 C 137.20000000000002,48.999999999999986 135.00000000000003,50.59999999999998 133.10000000000002,52.499999999999986 C 133.10000000000002,52.499999999999986 101.10000000000002,84.49999999999999 101.10000000000002,84.49999999999999 C 100.00000000000003,84.99999999999999 99.20000000000002,86.09999999999998 99.00000000000003,87.29999999999998 C 98.80000000000003,88.49999999999999 99.20000000000003,89.79999999999998 100.10000000000002,90.69999999999999 C 100.90000000000002,91.49999999999999 102.20000000000002,91.89999999999999 103.40000000000002,91.69999999999999 C 104.70000000000002,91.49999999999999 105.70000000000002,90.69999999999999 106.20000000000002,89.6 C 106.20000000000002,89.6 138.20000000000002,57.599999999999994 138.20000000000002,57.599999999999994 C 139.40000000000003,56.46666666666666 140.70000000000002,55.49999999999999 142.10000000000002,54.699999999999996 C 143.50000000000003,53.96666666666666 145.00000000000003,53.36666666666666 146.60000000000002,52.9 C 148.13333333333335,52.43333333333333 149.70000000000002,52.166666666666664 151.3,52.1 C 152.96666666666667,52.03333333333333 154.60000000000002,52.166666666666664 156.20000000000002,52.5 C 156.20000000000002,52.5 113.90000000000002,94.7 113.90000000000002,94.7 C 113.90000000000002,94.7 88.30000000000001,96.0 88.30000000000001,96.0 C 85.00000000000001,96.2 81.70000000000002,96.8 78.60000000000001,97.8 C 75.4,98.7 72.30000000000001,100.1 69.4,101.7 C 66.60000000000001,103.4 63.900000000000006,105.4 61.50000000000001,107.60000000000001 C 59.00000000000001,109.9 56.900000000000006,112.4 55.00000000000001,115.2 C 55.00000000000001,115.2 28.200000000000006,153.6 28.200000000000006,153.6 C 26.600000000000005,155.5 25.500000000000007,157.7 24.700000000000006,160.0 C 24.000000000000007,162.4 23.600000000000005,164.8 23.800000000000008,167.3 C 23.90000000000001,169.70000000000002 24.40000000000001,172.10000000000002 25.40000000000001,174.4 C 26.40000000000001,176.6 27.70000000000001,178.70000000000002 29.40000000000001,180.5 C 28.066666666666677,182.1 26.800000000000008,183.76666666666668 25.60000000000001,185.5 C 24.40000000000001,187.23333333333332 23.266666666666676,189.03333333333333 22.20000000000001,190.9 C 21.133333333333344,192.7 20.133333333333344,194.53333333333333 19.20000000000001,196.4 C 18.266666666666676,198.33333333333334 17.40000000000001,200.26666666666668 16.60000000000001,202.20000000000002 C 16.60000000000001,202.20000000000002 6.400000000000009,230.4 6.400000000000009,230.4 C 6.400000000000009,230.4 1.3000000000000096,235.5 1.3000000000000096,235.5 C 0.2000000000000095,236.1 -0.5999999999999903,237.1 -0.7999999999999905,238.3 C -1.0999999999999905,239.60000000000002 -0.6999999999999905,240.8 0.2000000000000095,241.70000000000002 C 1.1000000000000094,242.60000000000002 2.4000000000000097,243.00000000000003 3.6000000000000094,242.8 C 4.80000000000001,242.60000000000002 5.900000000000009,241.8 6.400000000000009,240.60000000000002 C 6.400000000000009,240.60000000000002 11.500000000000009,236.8 11.500000000000009,236.8 C 11.500000000000009,236.8 39.70000000000001,225.3 39.70000000000001,225.3 C 42.433333333333344,224.23333333333335 45.13333333333335,223.03333333333336 47.80000000000001,221.70000000000002 C 50.40000000000001,220.36666666666667 52.933333333333344,218.9 55.40000000000001,217.3 C 57.86666666666668,215.63333333333335 60.26666666666668,213.86666666666667 62.600000000000016,212.0 C 64.86666666666667,210.13333333333333 67.03333333333335,208.16666666666666 69.10000000000002,206.1 C 69.10000000000002,206.1 83.20000000000002,193.29999999999998 83.20000000000002,193.29999999999998 C 83.40000000000002,193.4333333333333 83.60000000000001,193.5333333333333 83.80000000000001,193.6 C 84.00000000000001,193.73333333333332 84.23333333333335,193.86666666666665 84.50000000000001,194.0 C 84.70000000000002,194.06666666666666 84.9,194.16666666666666 85.10000000000001,194.3 C 85.30000000000001,194.36666666666667 85.53333333333335,194.46666666666667 85.80000000000001,194.60000000000002 C 85.80000000000001,194.60000000000002 122.9,212.50000000000003 122.9,212.50000000000003 C 126.36666666666666,214.10000000000002 129.93333333333334,215.50000000000003 133.6,216.70000000000002 C 137.26666666666665,217.83333333333334 141.0,218.73333333333335 144.79999999999998,219.4 C 148.5333333333333,220.06666666666666 152.33333333333331,220.46666666666667 156.2,220.6 C 159.99999999999997,220.66666666666666 163.83333333333331,220.53333333333333 167.7,220.2 C 167.7,220.2 245.79999999999998,212.5 245.79999999999998,212.5 C 247.29999999999998,212.3 248.7,211.9 250.1,211.1 C 251.4,210.4 252.6,209.4 253.6,208.2 C 254.5,207.0 255.2,205.7 255.6,204.2 C 256.1,202.7 256.2,201.2 256.0,199.7 C 256.0,199.7 256.0,145.89999999999998 256.0,145.89999999999998 C 256.0,145.1 255.93333333333334,144.26666666666665 255.8,143.39999999999998 C 255.66666666666669,142.6 255.43333333333337,141.79999999999998 255.10000000000002,140.99999999999997 C 254.76666666666668,140.26666666666665 254.33333333333334,139.5333333333333 253.8,138.79999999999998 C 253.33333333333334,138.13333333333333 252.8,137.5333333333333 252.20000000000002,136.99999999999997 C 252.20000000000002,136.99999999999997 252.2,137.0 252.2,137.0 M 194.6,35.8 C 196.29999999999998,34.699999999999996 198.29999999999998,33.9 200.29999999999998,33.9 C 202.39999999999998,33.9 204.29999999999998,34.699999999999996 205.79999999999998,36.199999999999996 C 207.2,37.599999999999994 207.99999999999997,39.599999999999994 207.99999999999997,41.599999999999994 C 207.99999999999997,43.599999999999994 207.19999999999996,45.599999999999994 205.79999999999998,46.99999999999999 C 205.79999999999998,46.99999999999999 194.6,58.89999999999999 194.6,58.89999999999999 C 194.6,58.89999999999999 184.29999999999998,47.39999999999999 184.29999999999998,47.39999999999999 C 184.29999999999998,47.39999999999999 194.6,35.8 194.6,35.8 M 172.9,48.599999999999994 C 173.10000000000002,48.599999999999994 173.33333333333334,48.633333333333326 173.6,48.699999999999996 C 173.8,48.766666666666666 174.03333333333333,48.86666666666666 174.29999999999998,48.99999999999999 C 174.5,49.06666666666666 174.7,49.16666666666666 174.89999999999998,49.29999999999999 C 175.1,49.499999999999986 175.26666666666665,49.66666666666666 175.39999999999998,49.79999999999999 C 175.39999999999998,49.79999999999999 186.89999999999998,61.39999999999999 186.89999999999998,61.39999999999999 C 186.89999999999998,61.39999999999999 192.09999999999997,66.49999999999999 192.09999999999997,66.49999999999999 C 192.6333333333333,66.83333333333331 193.0333333333333,67.29999999999998 193.29999999999995,67.89999999999999 C 193.6333333333333,68.43333333333332 193.79999999999995,69.03333333333332 193.79999999999995,69.69999999999999 C 193.79999999999995,70.3 193.6333333333333,70.89999999999999 193.29999999999995,71.49999999999999 C 193.03333333333327,72.03333333333332 192.6333333333333,72.49999999999999 192.09999999999997,72.89999999999999 C 192.09999999999997,72.89999999999999 172.89999999999998,92.1 172.89999999999998,92.1 C 172.89999999999998,92.1 149.79999999999998,69.0 149.79999999999998,69.0 C 149.79999999999998,69.0 170.29999999999998,49.8 170.29999999999998,49.8 C 170.4333333333333,49.666666666666664 170.59999999999997,49.49999999999999 170.79999999999998,49.3 C 171.0,49.166666666666664 171.23333333333332,49.06666666666666 171.49999999999997,49.0 C 171.7,48.86666666666667 171.89999999999998,48.766666666666666 172.09999999999997,48.7 C 172.36666666666665,48.63333333333333 172.6333333333333,48.6 172.89999999999998,48.6 C 172.89999999999998,48.6 172.9,48.599999999999994 172.9,48.599999999999994 M 34.599999999999994,157.39999999999998 C 34.599999999999994,157.39999999999998 61.49999999999999,118.99999999999997 61.49999999999999,118.99999999999997 C 63.033333333333324,116.79999999999997 64.76666666666665,114.76666666666664 66.69999999999999,112.89999999999998 C 68.69999999999999,111.09999999999998 70.86666666666666,109.5333333333333 73.19999999999999,108.19999999999997 C 75.53333333333332,106.86666666666665 77.96666666666665,105.83333333333331 80.49999999999999,105.09999999999998 C 83.1,104.29999999999998 85.73333333333332,103.79999999999998 88.39999999999999,103.59999999999998 C 88.39999999999999,103.59999999999998 105.0,102.29999999999998 105.0,102.29999999999998 C 105.0,102.29999999999998 35.900000000000006,172.7 35.900000000000006,172.7 C 35.900000000000006,172.7 34.60000000000001,174.0 34.60000000000001,174.0 C 33.60000000000001,172.8 32.900000000000006,171.5 32.30000000000001,170.1 C 31.80000000000001,168.7 31.50000000000001,167.2 31.50000000000001,165.7 C 31.50000000000001,164.2 31.80000000000001,162.7 32.30000000000001,161.2 C 32.90000000000001,159.79999999999998 33.60000000000001,158.5 34.60000000000001,157.39999999999998 C 34.60000000000001,157.39999999999998 34.599999999999994,157.39999999999998 34.599999999999994,157.39999999999998 M 37.199999999999996,217.49999999999997 C 37.199999999999996,217.49999999999997 16.699999999999996,226.49999999999997 16.699999999999996,226.49999999999997 C 16.699999999999996,226.49999999999997 24.399999999999995,205.99999999999997 24.399999999999995,205.99999999999997 C 25.066666666666663,204.06666666666663 25.799999999999994,202.1333333333333 26.599999999999994,200.19999999999996 C 27.399999999999995,198.3333333333333 28.266666666666662,196.4666666666666 29.199999999999996,194.59999999999997 C 30.199999999999996,192.79999999999998 31.23333333333333,191.0333333333333 32.3,189.29999999999995 C 33.43333333333333,187.56666666666663 34.63333333333333,185.86666666666662 35.9,184.19999999999996 C 35.9,184.19999999999996 37.199999999999996,182.99999999999997 38.5,181.69999999999996 C 38.5,181.69999999999996 60.2,204.69999999999996 60.2,204.69999999999996 C 58.53333333333334,206.09999999999997 56.76666666666667,207.43333333333328 54.900000000000006,208.69999999999996 C 53.1,209.89999999999998 51.233333333333334,211.06666666666663 49.300000000000004,212.19999999999996 C 47.366666666666674,213.26666666666662 45.366666666666674,214.2333333333333 43.300000000000004,215.09999999999997 C 41.300000000000004,216.0333333333333 39.26666666666667,216.83333333333331 37.2,217.49999999999997 C 37.2,217.49999999999997 37.199999999999996,217.49999999999997 37.199999999999996,217.49999999999997 M 65.3,199.59999999999997 C 65.3,199.59999999999997 43.599999999999994,176.59999999999997 43.599999999999994,176.59999999999997 C 43.599999999999994,176.59999999999997 117.8,102.29999999999997 117.8,102.29999999999997 C 117.8,102.29999999999997 125.5,93.39999999999996 125.5,93.39999999999996 C 125.5,93.39999999999996 144.7,75.39999999999996 144.7,75.39999999999996 C 144.7,75.39999999999996 167.7,97.19999999999996 167.7,97.19999999999996 C 167.7,97.19999999999996 157.5,107.39999999999996 157.5,107.39999999999996 C 157.5,107.39999999999996 108.9,156.09999999999997 108.9,156.09999999999997 C 108.9,156.09999999999997 99.9,156.09999999999997 99.9,156.09999999999997 C 98.03333333333335,155.89999999999995 96.13333333333334,155.89999999999995 94.2,156.09999999999997 C 92.33333333333334,156.36666666666665 90.5,156.83333333333331 88.7,157.49999999999997 C 86.96666666666667,158.16666666666663 85.30000000000001,159.0333333333333 83.7,160.09999999999997 C 82.16666666666667,161.16666666666663 80.73333333333333,162.39999999999995 79.4,163.79999999999995 C 78.4,164.99999999999997 77.56666666666668,166.3333333333333 76.9,167.79999999999995 C 76.23333333333333,169.19999999999996 75.73333333333333,170.69999999999996 75.4,172.29999999999995 C 75.06666666666668,173.8333333333333 74.9,175.39999999999995 74.9,176.99999999999994 C 74.96666666666667,178.59999999999994 75.2,180.1666666666666 75.60000000000001,181.69999999999993 C 75.73333333333335,182.1666666666666 75.9,182.59999999999994 76.10000000000001,182.99999999999994 C 76.23333333333335,183.4666666666666 76.43333333333334,183.89999999999995 76.7,184.29999999999995 C 76.9,184.76666666666662 77.13333333333334,185.19999999999996 77.4,185.59999999999997 C 77.60000000000001,185.99999999999997 77.83333333333334,186.39999999999995 78.10000000000001,186.79999999999995 C 78.10000000000001,186.79999999999995 65.3,199.59999999999997 65.3,199.59999999999997 M 248.39999999999998,200.89999999999998 C 248.39999999999998,201.36666666666665 248.29999999999998,201.83333333333331 248.09999999999997,202.29999999999998 C 247.89999999999995,202.83333333333331 247.6333333333333,203.26666666666665 247.29999999999995,203.6 C 246.89999999999995,203.93333333333334 246.4666666666666,204.2 245.99999999999994,204.4 C 245.53333333333327,204.60000000000002 245.03333333333327,204.70000000000002 244.49999999999994,204.70000000000002 C 244.49999999999994,204.70000000000002 240.69999999999993,204.70000000000002 240.69999999999993,204.70000000000002 C 240.69999999999993,204.23333333333335 240.59999999999994,203.76666666666668 240.39999999999992,203.3 C 240.1999999999999,202.76666666666668 239.93333333333325,202.33333333333334 239.5999999999999,202.0 C 239.1999999999999,201.66666666666666 238.76666666666657,201.4 238.2999999999999,201.2 C 237.83333333333323,200.99999999999997 237.36666666666656,200.89999999999998 236.8999999999999,200.89999999999998 C 236.8999999999999,200.89999999999998 227.8999999999999,200.89999999999998 227.8999999999999,200.89999999999998 C 227.23333333333323,200.83333333333331 226.6333333333332,200.9333333333333 226.09999999999988,201.2 C 225.4999999999999,201.46666666666667 224.9999999999999,201.86666666666665 224.59999999999988,202.39999999999998 C 224.19999999999987,202.9333333333333 223.96666666666655,203.49999999999997 223.8999999999999,204.09999999999997 C 223.76666666666657,204.76666666666662 223.83333333333323,205.39999999999998 224.09999999999988,205.99999999999997 C 224.09999999999988,205.99999999999997 166.4999999999999,212.39999999999998 166.4999999999999,212.39999999999998 C 163.09999999999988,212.66666666666666 159.66666666666654,212.7 156.19999999999987,212.49999999999997 C 152.79999999999987,212.29999999999995 149.43333333333322,211.89999999999998 146.09999999999988,211.29999999999998 C 142.76666666666654,210.63333333333333 139.46666666666655,209.73333333333332 136.19999999999987,208.6 C 132.99999999999986,207.53333333333333 129.86666666666653,206.23333333333332 126.79999999999987,204.7 C 126.79999999999987,204.7 89.69999999999987,188.1 89.69999999999987,188.1 C 89.56666666666653,188.03333333333333 89.43333333333321,187.93333333333334 89.29999999999987,187.79999999999998 C 89.16666666666653,187.73333333333332 89.0333333333332,187.63333333333333 88.89999999999986,187.49999999999997 C 88.8333333333332,187.4333333333333 88.7333333333332,187.33333333333331 88.59999999999987,187.19999999999996 C 88.5333333333332,187.06666666666663 88.46666666666654,186.9333333333333 88.39999999999986,186.79999999999995 C 87.86666666666653,186.53333333333327 87.3333333333332,186.19999999999996 86.79999999999987,185.79999999999995 C 86.3333333333332,185.4666666666666 85.86666666666653,185.09999999999997 85.39999999999986,184.69999999999996 C 84.99999999999987,184.2333333333333 84.59999999999987,183.76666666666662 84.19999999999986,183.29999999999995 C 83.86666666666653,182.76666666666662 83.56666666666652,182.2333333333333 83.29999999999986,181.69999999999996 C 83.23333333333319,181.49999999999994 83.19999999999986,181.26666666666662 83.19999999999986,180.99999999999997 C 83.19999999999986,180.79999999999995 83.19999999999986,180.59999999999997 83.19999999999986,180.39999999999998 C 83.19999999999986,180.19999999999996 83.19999999999986,179.99999999999997 83.19999999999986,179.79999999999998 C 83.19999999999986,179.5333333333333 83.23333333333319,179.29999999999998 83.29999999999986,179.1 C 83.03333333333319,178.23333333333332 82.93333333333318,177.33333333333331 82.99999999999986,176.4 C 82.99999999999986,175.46666666666667 83.09999999999985,174.56666666666666 83.29999999999986,173.70000000000002 C 83.49999999999986,172.83333333333334 83.83333333333319,171.96666666666667 84.29999999999986,171.10000000000002 C 84.69999999999985,170.30000000000004 85.19999999999985,169.5666666666667 85.79999999999986,168.90000000000003 C 86.59999999999985,167.9666666666667 87.49999999999986,167.16666666666669 88.49999999999986,166.50000000000003 C 89.4333333333332,165.83333333333337 90.46666666666653,165.2666666666667 91.59999999999985,164.80000000000004 C 92.73333333333319,164.33333333333337 93.89999999999985,164.0333333333334 95.09999999999985,163.90000000000003 C 96.23333333333319,163.70000000000002 97.39999999999985,163.66666666666669 98.59999999999985,163.80000000000004 C 98.59999999999985,163.80000000000004 101.19999999999985,163.80000000000004 101.19999999999985,163.80000000000004 C 101.19999999999985,163.80000000000004 111.39999999999985,165.00000000000003 111.39999999999985,165.00000000000003 C 111.39999999999985,165.00000000000003 140.89999999999986,167.60000000000002 140.89999999999986,167.60000000000002 C 142.96666666666653,167.80000000000004 145.06666666666652,167.83333333333337 147.19999999999987,167.70000000000002 C 149.26666666666654,167.5666666666667 151.3333333333332,167.26666666666668 153.39999999999986,166.8 C 155.46666666666653,166.4 157.46666666666653,165.83333333333334 159.39999999999986,165.10000000000002 C 161.39999999999986,164.3666666666667 163.3333333333332,163.50000000000003 165.19999999999987,162.50000000000003 C 165.19999999999987,162.50000000000003 174.09999999999988,158.60000000000002 174.09999999999988,158.60000000000002 C 174.79999999999987,157.8 175.4999999999999,157.00000000000003 175.8999999999999,156.00000000000003 C 176.1999999999999,155.00000000000003 176.09999999999988,154.00000000000003 175.6999999999999,153.10000000000002 C 175.1999999999999,152.20000000000002 174.3999999999999,151.50000000000003 173.3999999999999,151.20000000000002 C 172.4999999999999,150.8 171.3999999999999,150.9 170.4999999999999,151.4 C 170.4999999999999,151.4 161.2999999999999,156.1 161.2999999999999,156.1 C 159.83333333333323,156.83333333333331 158.33333333333323,157.46666666666667 156.7999999999999,158.0 C 155.1999999999999,158.53333333333333 153.59999999999988,158.96666666666667 151.9999999999999,159.3 C 150.3999999999999,159.63333333333335 148.76666666666654,159.86666666666667 147.09999999999988,160.0 C 145.43333333333322,160.06666666666666 143.76666666666654,160.03333333333333 142.09999999999988,159.9 C 142.09999999999988,159.9 119.09999999999988,157.4 119.09999999999988,157.4 C 119.09999999999988,157.4 160.09999999999988,115.10000000000001 160.09999999999988,115.10000000000001 C 160.09999999999988,115.10000000000001 179.29999999999987,127.9 179.29999999999987,127.9 C 182.6333333333332,130.3 186.1333333333332,132.43333333333334 189.79999999999987,134.3 C 193.46666666666653,136.16666666666669 197.26666666666654,137.73333333333335 201.19999999999987,139.0 C 205.06666666666655,140.33333333333334 209.03333333333322,141.36666666666667 213.09999999999988,142.1 C 217.16666666666654,142.76666666666665 221.2333333333332,143.16666666666666 225.29999999999987,143.29999999999998 C 225.16666666666654,143.36666666666665 225.06666666666655,143.4333333333333 224.99999999999986,143.49999999999997 C 224.86666666666653,143.6333333333333 224.7333333333332,143.7333333333333 224.59999999999985,143.79999999999998 C 224.5333333333332,143.9333333333333 224.4333333333332,144.06666666666663 224.29999999999984,144.2 C 224.23333333333318,144.33333333333331 224.16666666666652,144.46666666666664 224.09999999999985,144.6 C 224.09999999999985,145.06666666666666 224.19999999999985,145.53333333333333 224.39999999999986,146.0 C 224.5333333333332,146.46666666666667 224.79999999999987,146.9 225.19999999999987,147.3 C 225.53333333333322,147.63333333333335 225.9333333333332,147.9 226.39999999999986,148.10000000000002 C 226.86666666666653,148.30000000000004 227.36666666666653,148.40000000000003 227.89999999999986,148.40000000000003 C 227.89999999999986,148.40000000000003 236.89999999999986,148.40000000000003 236.89999999999986,148.40000000000003 C 237.59999999999985,148.30000000000004 238.29999999999987,148.10000000000002 238.79999999999987,147.70000000000005 C 239.39999999999986,147.20000000000005 239.89999999999986,146.70000000000005 240.09999999999988,146.00000000000006 C 240.3999999999999,145.30000000000007 240.4999999999999,144.60000000000005 240.29999999999987,143.90000000000006 C 240.19999999999987,143.20000000000007 239.89999999999986,142.50000000000006 239.39999999999986,142.00000000000006 C 239.39999999999986,142.00000000000006 244.49999999999986,142.00000000000006 244.49999999999986,142.00000000000006 C 244.76666666666654,142.00000000000006 245.0333333333332,142.0333333333334 245.29999999999987,142.10000000000005 C 245.4999999999999,142.1666666666667 245.69999999999987,142.2666666666667 245.89999999999986,142.40000000000006 C 246.16666666666654,142.5333333333334 246.39999999999986,142.6666666666667 246.59999999999985,142.80000000000007 C 246.79999999999987,142.9333333333334 246.96666666666653,143.10000000000005 247.09999999999985,143.30000000000007 C 247.29999999999987,143.4333333333334 247.46666666666653,143.60000000000005 247.59999999999985,143.80000000000007 C 247.73333333333318,144.00000000000009 247.8666666666665,144.20000000000007 247.99999999999986,144.40000000000006 C 248.13333333333318,144.66666666666674 248.23333333333318,144.90000000000006 248.29999999999987,145.10000000000005 C 248.29999999999987,145.36666666666673 248.3333333333332,145.60000000000005 248.39999999999986,145.80000000000004 C 248.39999999999986,145.80000000000004 248.39999999999998,200.89999999999998 248.39999999999998,200.89999999999998" fill="#8d6c9f" /><path d="M 236.8,180.5 C 236.8,180.5 227.8,180.5 227.8,180.5 C 226.8,181.1 225.8,181.5 225.10000000000002,182.2 C 224.40000000000003,183.0 224.00000000000003,183.89999999999998 224.00000000000003,185.0 C 224.00000000000003,186.0 224.40000000000003,187.0 225.10000000000002,187.7 C 225.8,188.39999999999998 226.8,188.79999999999998 227.8,188.79999999999998 C 227.8,188.79999999999998 236.8,189.39999999999998 236.8,189.39999999999998 C 237.8,188.79999999999998 238.8,188.39999999999998 239.5,187.7 C 240.2,187.0 240.6,186.0 240.6,185.0 C 240.6,183.9 240.2,183.0 239.5,182.2 C 238.8,181.5 237.8,181.1 236.8,181.1 C 236.8,181.1 236.8,180.5 236.8,180.5 M 236.8,161.3 C 236.8,161.3 227.8,161.3 227.8,161.3 C 226.8,161.3 225.8,161.70000000000002 225.10000000000002,162.4 C 224.40000000000003,163.20000000000002 224.00000000000003,164.1 224.00000000000003,165.20000000000002 C 224.00000000000003,166.20000000000002 224.40000000000003,167.20000000000002 225.10000000000002,167.9 C 225.8,168.6 226.8,169.0 227.8,169.0 C 227.8,169.0 236.8,169.0 236.8,169.0 C 237.8,169.0 238.8,168.6 239.5,167.9 C 240.2,167.20000000000002 240.6,166.20000000000002 240.6,165.20000000000002 C 240.6,164.10000000000002 240.2,163.20000000000002 239.5,162.4 C 238.8,161.70000000000002 237.8,161.3 236.8,161.3" fill="#8d6c9f" /></svg>