<?xml version="1.0" ?>
<svg xmlns="http://www.w3.org/2000/svg" version="1.1" width="256" height="256">
  <defs/>
  <g>
    <path d="M 76.80000305175781 172.8000030517578 C 76.80000305175781 172.8000030517578 49.900001525878906 181.8000030517578 49.900001525878906 181.8000030517578 C 48.63333511352539 182.1999969482422 47.33333206176758 182.46665954589844 46.0 182.60000610351562 C 44.599998474121094 182.6666717529297 43.233333587646484 182.60000610351562 41.900001525878906 182.39999389648438 C 40.56666564941406 182.1999969482422 39.266666412353516 181.8000030517578 38.0 181.1999969482422 C 36.79999923706055 180.6666717529297 35.66666793823242 180.0 34.599998474121094 179.1999969482422 C 32.79999923706055 177.89999389648438 31.299999237060547 176.3000030517578 30.200000762939453 174.5 C 29.0 172.60000610351562 28.299999237060547 170.60000610351562 27.899999618530273 168.5 C 27.600000381469727 166.3000030517578 27.600000381469727 164.10000610351562 28.100000381469727 162.0 C 28.600000381469727 159.89999389648438 29.5 157.89999389648438 30.700000762939453 156.1999969482422 C 30.700000762939453 156.1999969482422 57.599998474121094 116.5 57.599998474121094 116.5 C 59.33333206176758 114.03333282470703 61.33333206176758 111.80000305175781 63.599998474121094 109.80000305175781 C 65.86666870117188 107.80000305175781 68.33333587646484 106.06666564941406 71.0 104.5999984741211 C 73.66666412353516 103.13333129882812 76.46666717529297 102.0 79.4000015258789 101.19999694824219 C 82.33333587646484 100.4000015258789 85.30000305175781 99.93333435058594 88.30000305175781 99.80000305175781 C 88.30000305175781 99.80000305175781 140.8000030517578 97.30000305175781 140.8000030517578 97.30000305175781 C 140.8000030517578 97.30000305175781 193.3000030517578 131.8000030517578 193.3000030517578 131.8000030517578 C 193.3000030517578 131.8000030517578 186.89999389648438 171.5 186.89999389648438 171.5 C 186.89999389648438 171.5 116.5 181.8000030517578 113.9000015258789 183.0 C 111.4000015258789 183.0 76.80000305175781 172.8000030517578 76.80000305175781 172.8000030517578 C 76.80000305175781 172.8000030517578 76.80000305175781 172.8000030517578 76.80000305175781 172.8000030517578" stroke-width="5.0" fill="rgb(249, 238, 221)" opacity="1.0"/>
    <path d="M 38.400001525878906 221.39999389648438 C 38.400001525878906 221.39999389648438 9.0 233.0 9.0 233.0 C 9.0 233.0 20.5 203.5 20.5 203.5 C 21.433332443237305 200.89999389648438 22.53333282470703 198.3333282470703 23.799999237060547 195.8000030517578 C 25.066667556762695 193.26666259765625 26.433332443237305 190.8333282470703 27.899999618530273 188.5 C 29.433332443237305 186.10000610351562 31.066667556762695 183.8000030517578 32.79999923706055 181.60000610351562 C 34.53333282470703 179.46665954589844 36.400001525878906 177.39999389648438 38.400001525878906 175.39999389648438 C 38.400001525878906 175.39999389648438 166.39999389648438 47.400001525878906 166.39999389648438 47.400001525878906 C 167.10000610351562 46.5 168.0 45.900001525878906 169.0 45.400001525878906 C 170.0 45.0 171.10000610351562 44.79999923706055 172.1999969482422 44.79999923706055 C 173.1999969482422 44.79999923706055 174.3000030517578 45.0 175.3000030517578 45.400001525878906 C 176.3000030517578 45.900001525878906 177.1999969482422 46.5 177.89999389648438 47.400001525878906 C 177.89999389648438 47.400001525878906 194.60000610351562 64.0 194.60000610351562 64.0 C 195.39999389648438 64.69999694824219 196.0 65.5999984741211 196.5 66.5999984741211 C 196.89999389648438 67.5999984741211 197.1999969482422 68.69999694824219 197.1999969482422 69.80000305175781 C 197.1999969482422 70.80000305175781 196.89999389648438 71.9000015258789 196.5 72.9000015258789 C 196.0 73.9000015258789 195.39999389648438 74.80000305175781 194.60000610351562 75.5 C 194.60000610351562 75.5 66.5999984741211 203.5 66.5999984741211 203.5 C 64.5999984741211 205.5 62.5 207.36666870117188 60.29999923706055 209.10000610351562 C 58.099998474121094 210.8333282470703 55.79999923706055 212.46665954589844 53.400001525878906 214.0 C 51.06666564941406 215.46665954589844 48.63333511352539 216.8333282470703 46.099998474121094 218.10000610351562 C 43.56666564941406 219.36666870117188 41.0 220.46665954589844 38.400001525878906 221.39999389648438 C 38.400001525878906 221.39999389648438 38.400001525878906 221.39999389648438 38.400001525878906 221.39999389648438" stroke-width="5.0" fill="rgb(114, 201, 174)" opacity="1.0"/>
    <path d="M 171.5 98.5999984741211 C 171.5 98.5999984741211 66.5999984741211 203.5 66.5999984741211 203.5 C 66.5999984741211 203.5 48.599998474121094 185.60000610351562 48.599998474121094 185.60000610351562 C 48.599998474121094 185.60000610351562 49.900001525878906 183.0 49.900001525878906 183.0 C 49.900001525878906 183.0 153.60000610351562 80.5999984741211 153.60000610351562 80.5999984741211 C 153.60000610351562 80.5999984741211 171.5 98.5999984741211 171.5 98.5999984741211" stroke-width="5.0" fill="rgb(247, 226, 173)" opacity="1.0"/>
    <path d="M 172.8000030517578 154.89999389648438 C 172.8000030517578 154.89999389648438 163.8000030517578 160.0 163.8000030517578 160.0 C 162.06666564941406 160.86666870117188 160.26666259765625 161.60000610351562 158.39999389648438 162.1999969482422 C 156.46665954589844 162.86666870117188 154.53334045410156 163.36666870117188 152.60000610351562 163.6999969482422 C 150.6666717529297 163.96665954589844 148.6999969482422 164.13333129882812 146.6999969482422 164.1999969482422 C 144.6999969482422 164.1999969482422 142.73333740234375 164.06666564941406 140.8000030517578 163.8000030517578 C 140.8000030517578 163.8000030517578 99.80000305175781 160.0 99.80000305175781 160.0 C 98.19999694824219 159.8000030517578 96.56666564941406 159.76666259765625 94.9000015258789 159.89999389648438 C 93.23332977294922 160.10000610351562 91.63333129882812 160.46665954589844 90.0999984741211 161.0 C 88.56666564941406 161.53334045410156 87.0999984741211 162.26666259765625 85.69999694824219 163.1999969482422 C 84.30000305175781 164.13333129882812 83.03333282470703 165.1999969482422 81.9000015258789 166.39999389648438 C 80.0 168.3000030517578 78.69999694824219 170.60000610351562 78.0 173.1999969482422 C 77.19999694824219 175.6999969482422 77.19999694824219 178.39999389648438 77.80000305175781 181.0 C 78.5 183.60000610351562 79.80000305175781 186.0 81.5999984741211 187.89999389648438 C 83.5 189.8000030517578 85.80000305175781 191.1999969482422 88.30000305175781 192.0 C 88.30000305175781 192.0 125.4000015258789 208.60000610351562 125.4000015258789 208.60000610351562 C 128.60000610351562 210.13333129882812 131.86666870117188 211.46665954589844 135.1999969482422 212.60000610351562 C 138.53334045410156 213.6666717529297 141.93333435058594 214.53334045410156 145.39999389648438 215.1999969482422 C 148.86666870117188 215.86666870117188 152.36666870117188 216.3000030517578 155.89999389648438 216.5 C 159.36666870117188 216.63333129882812 162.86666870117188 216.56666564941406 166.39999389648438 216.3000030517578 C 166.39999389648438 216.3000030517578 244.5 208.60000610351562 244.5 208.60000610351562 C 245.60000610351562 208.6999969482422 246.6999969482422 208.39999389648438 247.6999969482422 208.0 C 248.8000030517578 207.5 249.6999969482422 206.8000030517578 250.39999389648438 206.0 C 251.1999969482422 205.10000610351562 251.6999969482422 204.10000610351562 252.0 203.0 C 252.3000030517578 201.89999389648438 252.3000030517578 200.8000030517578 252.1999969482422 199.6999969482422 C 252.1999969482422 199.6999969482422 252.1999969482422 145.89999389648438 252.1999969482422 145.89999389648438 C 252.1999969482422 144.8000030517578 251.89999389648438 143.6999969482422 251.5 142.6999969482422 C 251.0 141.60000610351562 250.3000030517578 140.6999969482422 249.5 140.0 C 248.60000610351562 139.1999969482422 247.60000610351562 138.6999969482422 246.5 138.39999389648438 C 245.39999389648438 138.10000610351562 244.3000030517578 138.10000610351562 243.1999969482422 138.1999969482422 C 243.1999969482422 138.1999969482422 233.0 138.1999969482422 233.0 138.1999969482422 C 228.39999389648438 138.73333740234375 223.8000030517578 138.8333282470703 219.1999969482422 138.5 C 214.60000610351562 138.23333740234375 210.06666564941406 137.53334045410156 205.60000610351562 136.39999389648438 C 201.13333129882812 135.3333282470703 196.8000030517578 133.86666870117188 192.60000610351562 132.0 C 188.3333282470703 130.1999969482422 184.3000030517578 128.0 180.5 125.4000015258789 C 180.5 125.4000015258789 160.0 110.0999984741211 160.0 110.0999984741211 L 172.8000030517578 154.89999389648438" stroke-width="5.0" fill="rgb(249, 238, 221)" opacity="1.0"/>
    <path d="M 167.6999969482422 175.39999389648438 C 165.89999389648438 176.26666259765625 164.06666564941406 177.0 162.1999969482422 177.60000610351562 C 160.3333282470703 178.1999969482422 158.39999389648438 178.6666717529297 156.39999389648438 179.0 C 154.46665954589844 179.3333282470703 152.53334045410156 179.5 150.60000610351562 179.5 C 148.60000610351562 179.56666564941406 146.60000610351562 179.46665954589844 144.60000610351562 179.1999969482422 C 144.60000610351562 179.1999969482422 103.69999694824219 175.39999389648438 103.69999694824219 175.39999389648438 C 101.96666717529297 175.1999969482422 100.26667022705078 175.23333740234375 98.5999984741211 175.5 C 96.93333435058594 175.76666259765625 95.30000305175781 176.23333740234375 93.69999694824219 176.89999389648438 C 92.16666412353516 177.56666564941406 90.73332977294922 178.43333435058594 89.4000015258789 179.5 C 88.0 180.5 86.80000305175781 181.6666717529297 85.80000305175781 183.0 C 85.80000305175781 183.0 83.19999694824219 188.1999969482422 83.19999694824219 188.1999969482422 C 81.9000015258789 186.60000610351562 80.80000305175781 184.6999969482422 80.0999984741211 182.8000030517578 C 79.4000015258789 180.8000030517578 79.0 178.6999969482422 79.0 176.60000610351562 C 79.0 174.5 79.4000015258789 172.5 80.0999984741211 170.5 C 80.80000305175781 168.5 81.9000015258789 166.6999969482422 83.19999694824219 165.10000610351562 C 92.19999694824219 153.60000610351562 124.19999694824219 162.60000610351562 124.19999694824219 162.60000610351562 C 124.19999694824219 162.60000610351562 145.89999389648438 170.1999969482422 165.10000610351562 158.6999969482422 C 165.10000610351562 158.6999969482422 176.60000610351562 152.3000030517578 176.60000610351562 152.3000030517578 C 177.6999969482422 154.10000610351562 178.5 156.1999969482422 178.6999969482422 158.3000030517578 C 179.0 160.39999389648438 178.8000030517578 162.60000610351562 178.1999969482422 164.60000610351562 C 177.60000610351562 166.6999969482422 176.60000610351562 168.60000610351562 175.1999969482422 170.1999969482422 C 173.89999389648438 171.8000030517578 172.1999969482422 173.10000610351562 170.1999969482422 174.10000610351562 C 170.1999969482422 174.10000610351562 167.6999969482422 175.39999389648438 167.6999969482422 175.39999389648438" stroke-width="5.0" fill="rgb(254, 245, 239)" opacity="1.0"/>
    <path d="M 161.3000030517578 135.6999969482422 C 161.3000030517578 135.6999969482422 139.5 157.39999389648438 139.5 157.39999389648438 C 138.8333282470703 158.26666259765625 138.06666564941406 159.03334045410156 137.1999969482422 159.6999969482422 C 136.3333282470703 160.36666870117188 135.39999389648438 160.93333435058594 134.39999389648438 161.39999389648438 C 133.39999389648438 161.8000030517578 132.36666870117188 162.10000610351562 131.3000030517578 162.3000030517578 C 130.1666717529297 162.5 129.06666564941406 162.60000610351562 128.0 162.60000610351562 C 128.0 162.60000610351562 111.4000015258789 160.0 111.4000015258789 160.0 C 111.4000015258789 160.0 158.6999969482422 112.5999984741211 158.6999969482422 112.5999984741211 C 160.6999969482422 113.69999694824219 162.39999389648438 115.30000305175781 163.6999969482422 117.19999694824219 C 165.0 119.0 165.8000030517578 121.19999694824219 166.0 123.5 C 166.3000030517578 125.80000305175781 166.0 128.0 165.1999969482422 130.1999969482422 C 164.3000030517578 132.3000030517578 163.0 134.1999969482422 161.3000030517578 135.6999969482422 C 161.3000030517578 135.6999969482422 161.3000030517578 135.6999969482422 161.3000030517578 135.6999969482422" stroke-width="5.0" fill="rgb(237, 214, 189)" opacity="1.0"/>
    <path d="M 39.70000076293945 175.39999389648438 C 39.70000076293945 175.39999389648438 48.599998474121094 185.60000610351562 48.599998474121094 185.60000610351562 C 46.79999923706055 187.53334045410156 45.099998474121094 189.56666564941406 43.5 191.6999969482422 C 41.900001525878906 193.76666259765625 40.400001525878906 195.93333435058594 39.0 198.1999969482422 C 37.599998474121094 200.46665954589844 36.29999923706055 202.8000030517578 35.099998474121094 205.1999969482422 C 33.96666717529297 207.53334045410156 32.93333435058594 209.96665954589844 32.0 212.5 C 32.0 212.5 26.899999618530273 226.60000610351562 26.899999618530273 226.60000610351562 C 26.899999618530273 226.60000610351562 9.0 233.0 9.0 233.0 C 9.0 233.0 20.5 203.5 20.5 203.5 C 21.5 200.89999389648438 22.600000381469727 198.3333282470703 23.799999237060547 195.8000030517578 C 25.066667556762695 193.3333282470703 26.46666717529297 190.89999389648438 28.0 188.5 C 29.46666717529297 186.1666717529297 31.066667556762695 183.89999389648438 32.79999923706055 181.6999969482422 C 34.599998474121094 179.5 36.46666717529297 177.39999389648438 38.400001525878906 175.39999389648438 C 38.400001525878906 175.39999389648438 39.70000076293945 175.39999389648438 39.70000076293945 175.39999389648438" stroke-width="5.0" fill="rgb(150, 222, 186)" opacity="1.0"/>
    <path d="M 208.60000610351562 33.29999923706055 C 209.8000030517578 34.400001525878906 210.6999969482422 35.599998474121094 211.3000030517578 37.099998474121094 C 211.89999389648438 38.5 212.1999969482422 40.0 212.1999969482422 41.599998474121094 C 212.1999969482422 43.20000076293945 211.89999389648438 44.70000076293945 211.3000030517578 46.099998474121094 C 210.6999969482422 47.599998474121094 209.8000030517578 48.79999923706055 208.60000610351562 49.900001525878906 C 208.60000610351562 49.900001525878906 194.60000610351562 64.0 194.60000610351562 64.0 C 194.60000610351562 64.0 177.89999389648438 47.400001525878906 177.89999389648438 47.400001525878906 C 177.89999389648438 47.400001525878906 192.0 33.29999923706055 192.0 33.29999923706055 C 193.10000610351562 32.20000076293945 194.39999389648438 31.299999237060547 195.8000030517578 30.700000762939453 C 197.1999969482422 30.0 198.8000030517578 29.700000762939453 200.3000030517578 29.700000762939453 C 201.89999389648438 29.700000762939453 203.39999389648438 30.0 204.8000030517578 30.700000762939453 C 206.3000030517578 31.299999237060547 207.60000610351562 32.20000076293945 208.60000610351562 33.29999923706055 C 208.60000610351562 33.29999923706055 208.60000610351562 33.29999923706055 208.60000610351562 33.29999923706055" stroke-width="5.0" fill="rgb(249, 227, 173)" opacity="1.0"/>
    <path d="M 153.60000610351562 80.5999984741211 C 153.60000610351562 80.5999984741211 49.900001525878906 183.0 49.900001525878906 183.0 C 49.900001525878906 183.0 48.599998474121094 185.60000610351562 48.599998474121094 185.60000610351562 C 48.599998474121094 185.60000610351562 39.70000076293945 175.39999389648438 39.70000076293945 175.39999389648438 C 39.70000076293945 175.39999389648438 143.39999389648438 70.4000015258789 143.39999389648438 70.4000015258789 C 143.39999389648438 70.4000015258789 153.60000610351562 80.5999984741211 153.60000610351562 80.5999984741211" stroke-width="5.0" fill="rgb(254, 234, 154)" opacity="1.0"/>
    <path d="M 143.39999389648438 70.4000015258789 C 143.39999389648438 70.4000015258789 39.70000076293945 175.39999389648438 39.70000076293945 175.39999389648438 C 39.70000076293945 175.39999389648438 38.400001525878906 174.10000610351562 38.400001525878906 174.10000610351562 C 38.400001525878906 174.10000610351562 143.39999389648438 70.4000015258789 143.39999389648438 70.4000015258789" stroke-width="5.0" fill="rgb(249, 221, 143)" opacity="1.0"/>
    <path d="M 252.1999969482422 137.0 C 251.53334045410156 136.46665954589844 250.86666870117188 136.0 250.1999969482422 135.60000610351562 C 249.46665954589844 135.26666259765625 248.73333740234375 134.96665954589844 248.0 134.6999969482422 C 247.1999969482422 134.5 246.39999389648438 134.36666870117188 245.60000610351562 134.3000030517578 C 244.8000030517578 134.23333740234375 244.0 134.26666259765625 243.1999969482422 134.39999389648438 C 243.1999969482422 134.39999389648438 231.6999969482422 134.39999389648438 231.6999969482422 134.39999389648438 C 227.43333435058594 134.73333740234375 223.1666717529297 134.73333740234375 218.89999389648438 134.39999389648438 C 214.63333129882812 134.0 210.43333435058594 133.26666259765625 206.3000030517578 132.1999969482422 C 202.1666717529297 131.06666564941406 198.13333129882812 129.63333129882812 194.1999969482422 127.9000015258789 C 190.3333282470703 126.0999984741211 186.60000610351562 124.0 183.0 121.5999984741211 C 183.0 121.5999984741211 166.39999389648438 110.0999984741211 166.39999389648438 110.0999984741211 C 166.39999389648438 110.0999984741211 198.39999389648438 78.0999984741211 198.39999389648438 78.0999984741211 C 199.39999389648438 77.23332977294922 200.1999969482422 76.23332977294922 200.8000030517578 75.0999984741211 C 201.46665954589844 73.96666717529297 201.89999389648438 72.76667022705078 202.10000610351562 71.5 C 202.36666870117188 70.23332977294922 202.39999389648438 68.93333435058594 202.1999969482422 67.5999984741211 C 202.0 66.33333587646484 201.60000610351562 65.13333129882812 201.0 64.0 C 201.0 64.0 212.5 52.5 212.5 52.5 C 214.6999969482422 48.900001525878906 216.3000030517578 45.0 216.3000030517578 41.0 C 216.3000030517578 36.900001525878906 214.6999969482422 33.0 211.8000030517578 30.100000381469727 C 208.89999389648438 27.200000762939453 205.0 25.600000381469727 201.0 25.600000381469727 C 196.89999389648438 25.600000381469727 193.0 27.200000762939453 190.10000610351562 30.100000381469727 C 190.10000610351562 30.100000381469727 177.89999389648438 42.20000076293945 177.89999389648438 42.20000076293945 C 176.76666259765625 41.599998474121094 175.56666564941406 41.20000076293945 174.3000030517578 41.0 C 173.03334045410156 40.79999923706055 171.73333740234375 40.83333206176758 170.39999389648438 41.099998474121094 C 169.13333129882812 41.29999923706055 167.93333435058594 41.733333587646484 166.8000030517578 42.400001525878906 C 165.6666717529297 43.0 164.6666717529297 43.79999923706055 163.8000030517578 44.79999923706055 C 163.8000030517578 44.79999923706055 162.60000610351562 46.099998474121094 162.60000610351562 46.099998474121094 C 160.10000610351562 45.20000076293945 157.5 44.599998474121094 154.8000030517578 44.400001525878906 C 152.1999969482422 44.29999923706055 149.5 44.400001525878906 146.89999389648438 45.0 C 144.3000030517578 45.599998474121094 141.8000030517578 46.5 139.5 47.79999923706055 C 137.1999969482422 49.0 135.0 50.599998474121094 133.10000610351562 52.5 C 133.10000610351562 52.5 101.0999984741211 84.5 101.0999984741211 84.5 C 100.0 85.0 99.19999694824219 86.0999984741211 99.0 87.30000305175781 C 98.80000305175781 88.5 99.19999694824219 89.80000305175781 100.0999984741211 90.69999694824219 C 100.9000015258789 91.5 102.19999694824219 91.9000015258789 103.4000015258789 91.69999694824219 C 104.69999694824219 91.5 105.69999694824219 90.69999694824219 106.19999694824219 89.5999984741211 C 106.19999694824219 89.5999984741211 138.1999969482422 57.599998474121094 138.1999969482422 57.599998474121094 C 139.39999389648438 56.46666717529297 140.6999969482422 55.5 142.10000610351562 54.70000076293945 C 143.5 53.96666717529297 145.0 53.36666488647461 146.60000610351562 52.900001525878906 C 148.13333129882812 52.43333435058594 149.6999969482422 52.16666793823242 151.3000030517578 52.099998474121094 C 152.96665954589844 52.03333282470703 154.60000610351562 52.16666793823242 156.1999969482422 52.5 C 156.1999969482422 52.5 113.9000015258789 94.69999694824219 113.9000015258789 94.69999694824219 C 113.9000015258789 94.69999694824219 88.30000305175781 96.0 88.30000305175781 96.0 C 85.0 96.19999694824219 81.69999694824219 96.80000305175781 78.5999984741211 97.80000305175781 C 75.4000015258789 98.69999694824219 72.30000305175781 100.0999984741211 69.4000015258789 101.69999694824219 C 66.5999984741211 103.4000015258789 63.900001525878906 105.4000015258789 61.5 107.5999984741211 C 59.0 109.9000015258789 56.900001525878906 112.4000015258789 55.0 115.19999694824219 C 55.0 115.19999694824219 28.200000762939453 153.60000610351562 28.200000762939453 153.60000610351562 C 26.600000381469727 155.5 25.5 157.6999969482422 24.700000762939453 160.0 C 24.0 162.39999389648438 23.600000381469727 164.8000030517578 23.799999237060547 167.3000030517578 C 23.899999618530273 169.6999969482422 24.399999618530273 172.10000610351562 25.399999618530273 174.39999389648438 C 26.399999618530273 176.60000610351562 27.700000762939453 178.6999969482422 29.399999618530273 180.5 C 28.066667556762695 182.10000610351562 26.799999237060547 183.76666259765625 25.600000381469727 185.5 C 24.399999618530273 187.23333740234375 23.266666412353516 189.03334045410156 22.200000762939453 190.89999389648438 C 21.133333206176758 192.6999969482422 20.133333206176758 194.53334045410156 19.200000762939453 196.39999389648438 C 18.266666412353516 198.3333282470703 17.399999618530273 200.26666259765625 16.600000381469727 202.1999969482422 C 16.600000381469727 202.1999969482422 6.400000095367432 230.39999389648438 6.400000095367432 230.39999389648438 C 6.400000095367432 230.39999389648438 1.2999999523162842 235.5 1.2999999523162842 235.5 C 0.20000000298023224 236.10000610351562 -0.6000000238418579 237.10000610351562 -0.800000011920929 238.3000030517578 C -1.100000023841858 239.60000610351562 -0.699999988079071 240.8000030517578 0.20000000298023224 241.6999969482422 C 1.100000023841858 242.60000610351562 2.4000000953674316 243.0 3.5999999046325684 242.8000030517578 C 4.800000190734863 242.60000610351562 5.900000095367432 241.8000030517578 6.400000095367432 240.60000610351562 C 6.400000095367432 240.60000610351562 11.5 236.8000030517578 11.5 236.8000030517578 C 11.5 236.8000030517578 39.70000076293945 225.3000030517578 39.70000076293945 225.3000030517578 C 42.43333435058594 224.23333740234375 45.13333511352539 223.03334045410156 47.79999923706055 221.6999969482422 C 50.400001525878906 220.36666870117188 52.93333435058594 218.89999389648438 55.400001525878906 217.3000030517578 C 57.86666488647461 215.63333129882812 60.266666412353516 213.86666870117188 62.599998474121094 212.0 C 64.86666870117188 210.13333129882812 67.03333282470703 208.1666717529297 69.0999984741211 206.10000610351562 C 69.0999984741211 206.10000610351562 83.19999694824219 193.3000030517578 83.19999694824219 193.3000030517578 C 83.4000015258789 193.43333435058594 83.5999984741211 193.53334045410156 83.80000305175781 193.60000610351562 C 84.0 193.73333740234375 84.23332977294922 193.86666870117188 84.5 194.0 C 84.69999694824219 194.06666564941406 84.9000015258789 194.1666717529297 85.0999984741211 194.3000030517578 C 85.30000305175781 194.36666870117188 85.53333282470703 194.46665954589844 85.80000305175781 194.60000610351562 C 85.80000305175781 194.60000610351562 122.9000015258789 212.5 122.9000015258789 212.5 C 126.36666870117188 214.10000610351562 129.93333435058594 215.5 133.60000610351562 216.6999969482422 C 137.26666259765625 217.8333282470703 141.0 218.73333740234375 144.8000030517578 219.39999389648438 C 148.53334045410156 220.06666564941406 152.3333282470703 220.46665954589844 156.1999969482422 220.60000610351562 C 160.0 220.6666717529297 163.8333282470703 220.53334045410156 167.6999969482422 220.1999969482422 C 167.6999969482422 220.1999969482422 245.8000030517578 212.5 245.8000030517578 212.5 C 247.3000030517578 212.3000030517578 248.6999969482422 211.89999389648438 250.10000610351562 211.10000610351562 C 251.39999389648438 210.39999389648438 252.60000610351562 209.39999389648438 253.60000610351562 208.1999969482422 C 254.5 207.0 255.1999969482422 205.6999969482422 255.60000610351562 204.1999969482422 C 256.1000061035156 202.6999969482422 256.20001220703125 201.1999969482422 256.0 199.6999969482422 C 256.0 199.6999969482422 256.0 145.89999389648438 256.0 145.89999389648438 C 256.0 145.10000610351562 255.93333435058594 144.26666259765625 255.8000030517578 143.39999389648438 C 255.6666717529297 142.60000610351562 255.43333435058594 141.8000030517578 255.10000610351562 141.0 C 254.76666259765625 140.26666259765625 254.3333282470703 139.53334045410156 253.8000030517578 138.8000030517578 C 253.3333282470703 138.13333129882812 252.8000030517578 137.53334045410156 252.1999969482422 137.0 C 252.1999969482422 137.0 252.1999969482422 137.0 252.1999969482422 137.0" stroke-width="5.0" fill="rgb(142, 110, 160)" opacity="1.0"/>
    <path d="M 236.8000030517578 180.5 C 236.8000030517578 180.5 227.8000030517578 180.5 227.8000030517578 180.5 C 226.8000030517578 181.10000610351562 225.8000030517578 181.5 225.10000610351562 182.1999969482422 C 224.39999389648438 183.0 224.0 183.89999389648438 224.0 185.0 C 224.0 186.0 224.39999389648438 187.0 225.10000610351562 187.6999969482422 C 225.8000030517578 188.39999389648438 226.8000030517578 188.8000030517578 227.8000030517578 188.8000030517578 C 227.8000030517578 188.8000030517578 236.8000030517578 189.39999389648438 236.8000030517578 189.39999389648438 C 237.8000030517578 188.8000030517578 238.8000030517578 188.39999389648438 239.5 187.6999969482422 C 240.1999969482422 187.0 240.60000610351562 186.0 240.60000610351562 185.0 C 240.60000610351562 183.89999389648438 240.1999969482422 183.0 239.5 182.1999969482422 C 238.8000030517578 181.5 237.8000030517578 181.10000610351562 236.8000030517578 181.10000610351562 C 236.8000030517578 181.10000610351562 236.8000030517578 180.5 236.8000030517578 180.5" stroke-width="5.0" fill="rgb(145, 113, 161)" opacity="1.0"/>
  </g>
</svg>
