<?xml version="1.0" ?>
<svg xmlns="http://www.w3.org/2000/svg" version="1.1" width="256" height="256">
  <defs/>
  <g>
    <path d="M 76.79999542236328 172.8000030517578 L 49.91999816894531 181.75999450683594 C 44.69196701049805 183.50279235839844 38.94020462036133 182.54415893554688 34.55999755859375 179.1999969482422 C 27.199180603027344 173.85960388183594 25.48908233642578 163.59901428222656 30.719999313354492 156.16000366210938 L 57.599998474121094 116.47999572753906 C 64.71578216552734 106.48118591308594 76.0577392578125 100.33763122558594 88.31999969482422 99.83999633789062 L 140.8000030517578 97.27999877929688 L 193.27999877929688 131.83999633789062 L 186.87998962402344 171.51998901367188 C 186.87998962402344 171.51998901367188 116.47999572753906 181.75999450683594 113.91999816894531 183.0399932861328 C 111.36000061035156 183.0399932861328 76.79999542236328 172.8000030517578 76.79999542236328 172.8000030517578" stroke-width="1.2799999713897705" fill="rgb(248, 237, 220)" opacity="1.0"/>
    <path d="M 38.39999771118164 221.44000244140625 L 8.960000038146973 232.95999145507812 L 20.479999542236328 203.51998901367188 C 24.389482498168945 192.96910095214844 30.497901916503906 183.37014770507812 38.39999771118164 175.36000061035156 L 166.39999389648438 47.36000061035156 C 169.2055206298828 44.178836822509766 174.05868530273438 43.87432098388672 177.23983764648438 46.67984390258789 C 177.4805450439453 46.892127990722656 177.7077178955078 47.11928939819336 177.9199981689453 47.36000061035156 L 194.55999755859375 64.0 C 197.74114990234375 66.8055191040039 198.04568481445312 71.65868377685547 195.2401580810547 74.83984375 C 195.02786254882812 75.08055114746094 194.8007049560547 75.3077163696289 194.55999755859375 75.5199966430664 L 66.55999755859375 203.51998901367188 C 58.54985046386719 211.42208862304688 48.95090103149414 217.530517578125 38.39999771118164 221.44000244140625" stroke-width="1.2799999713897705" fill="rgb(113, 201, 174)" opacity="1.0"/>
    <path d="M 171.51998901367188 98.55999755859375 L 66.55999755859375 203.51998901367188 L 48.63999938964844 185.59999084472656 L 49.91999816894531 183.0399932861328 L 153.59999084472656 80.63999938964844 L 171.51998901367188 98.55999755859375" stroke-width="1.2799999713897705" fill="rgb(246, 225, 173)" opacity="1.0"/>
    <path d="M 172.8000030517578 154.87998962402344 L 163.83999633789062 160.0 C 156.71920776367188 163.56263732910156 148.6913299560547 164.90061950683594 140.8000030517578 163.83999633789062 L 99.83999633789062 160.0 C 93.17803192138672 159.06036376953125 86.4794921875 161.4527130126953 81.91999816894531 166.39999389648438 C 75.90419006347656 172.3810272216797 75.87600708007812 182.10641479492188 81.85704803466797 188.12222290039062 C 83.65587615966797 189.9315185546875 85.87705993652344 191.26422119140625 88.31999969482422 192.0 L 125.43999481201172 208.63999938964844 C 138.16537475585938 214.8031463623047 152.30628967285156 217.45455932617188 166.39999389648438 216.3199920654297 L 244.47999572753906 208.63999938964844 C 248.72113037109375 208.6993865966797 252.2073974609375 205.30943298339844 252.26678466796875 201.06829833984375 C 252.27330017089844 200.60325622558594 252.237548828125 200.13856506347656 252.1599884033203 199.67999267578125 L 252.1599884033203 145.9199981689453 C 252.21939086914062 141.67886352539062 248.8294219970703 138.19261169433594 244.5883026123047 138.13319396972656 C 244.12326049804688 138.12669372558594 243.6585693359375 138.16244506835938 243.1999969482422 138.239990234375 L 232.95999145507812 138.239990234375 C 214.50808715820312 140.24142456054688 195.93833923339844 135.71221923828125 180.47999572753906 125.43999481201172 L 160.0 110.07999420166016 L 172.8000030517578 154.87998962402344" stroke-width="1.2799999713897705" fill="rgb(249, 238, 220)" opacity="1.0"/>
    <path d="M 167.67999267578125 175.36000061035156 C 160.55921936035156 178.92263793945312 152.5313262939453 180.2606201171875 144.63999938964844 179.1999969482422 L 103.68000030517578 175.36000061035156 C 96.7931137084961 174.73020935058594 90.05352020263672 177.6186065673828 85.75999450683594 183.0399932861328 L 83.19999694824219 188.1599884033203 C 77.60862731933594 181.49769592285156 77.60862731933594 171.7823028564453 83.19999694824219 165.1199951171875 C 92.15999603271484 153.59999084472656 124.15999603271484 162.55999755859375 124.15999603271484 162.55999755859375 C 124.15999603271484 162.55999755859375 145.9199981689453 170.239990234375 165.1199951171875 158.72000122070312 L 176.63999938964844 152.3199920654297 C 181.0345001220703 159.57611083984375 178.71470642089844 169.0207977294922 171.45858764648438 173.41531372070312 C 171.06260681152344 173.65512084960938 170.656005859375 173.8769073486328 170.239990234375 174.0800018310547 L 167.67999267578125 175.36000061035156" stroke-width="1.2799999713897705" fill="rgb(253, 245, 239)" opacity="1.0"/>
    <path d="M 161.27999877929688 135.67999267578125 L 139.52000427246094 157.44000244140625 C 136.70120239257812 160.86642456054688 132.43222045898438 162.76376342773438 128.0 162.55999755859375 L 111.36000061035156 160.0 L 158.72000122070312 112.63999938964844 C 165.56983947753906 116.32081604003906 168.1388397216797 124.85760498046875 164.45803833007812 131.7074432373047 C 163.648681640625 133.21360778808594 162.57176208496094 134.5597686767578 161.27999877929688 135.67999267578125" stroke-width="1.2799999713897705" fill="rgb(236, 213, 188)" opacity="1.0"/>
    <path d="M 39.68000030517578 175.36000061035156 L 48.63999938964844 185.59999084472656 C 41.346763610839844 193.3533477783203 35.68783187866211 202.4947052001953 32.0 212.47999572753906 L 26.8799991607666 226.55999755859375 L 8.960000038146973 232.95999145507812 L 20.479999542236328 203.51998901367188 C 24.424049377441406 192.9862823486328 30.528121948242188 183.39418029785156 38.39999771118164 175.36000061035156 L 39.68000030517578 175.36000061035156" stroke-width="1.6383999586105347" fill="rgb(150, 221, 186)" opacity="1.0"/>
    <path d="M 208.63999938964844 33.279998779296875 C 213.23500061035156 37.68056869506836 213.39263916015625 44.972923278808594 208.9920654296875 49.56793212890625 C 208.87725830078125 49.68781280517578 208.75987243652344 49.80519485473633 208.63999938964844 49.91999816894531 L 194.55999755859375 64.0 L 177.9199981689453 47.36000061035156 L 192.0 33.279998779296875 C 196.4005584716797 28.68498992919922 203.69293212890625 28.52736473083496 208.2879180908203 32.92793273925781 C 208.40780639648438 33.04273986816406 208.5251922607422 33.16012191772461 208.63999938964844 33.279998779296875" stroke-width="1.2799999713897705" fill="rgb(246, 224, 173)" opacity="1.0"/>
    <path d="M 153.59999084472656 80.63999938964844 L 49.91999816894531 183.0399932861328 L 48.63999938964844 185.59999084472656 L 39.68000030517578 175.36000061035156 L 143.36000061035156 70.4000015258789 L 153.59999084472656 80.63999938964844" stroke-width="1.2799999713897705" fill="rgb(254, 233, 154)" opacity="1.0"/>
    <path d="M 143.36000061035156 70.4000015258789 L 39.68000030517578 175.36000061035156 L 38.39999771118164 174.0800018310547 L 143.36000061035156 70.4000015258789" stroke-width="1.2799999713897705" fill="rgb(249, 221, 143)" opacity="1.0"/>
    <path d="M 252.1599884033203 136.95999145507812 C 249.66714477539062 134.88287353515625 246.4138946533203 133.95338439941406 243.1999969482422 134.39999389648438 L 231.67999267578125 134.39999389648438 C 214.4803924560547 135.81626892089844 197.31454467773438 131.29893493652344 183.0399932861328 121.5999984741211 L 166.39999389648438 110.07999420166016 L 198.39999389648438 78.08000183105469 C 202.41851806640625 74.55007934570312 203.4788055419922 68.71852111816406 200.95999145507812 64.0 L 212.47999572753906 52.47999954223633 C 218.84231567382812 46.117679595947266 218.84231567382812 35.80231857299805 212.47999572753906 29.439998626708984 C 206.11767578125 23.077680587768555 195.8023223876953 23.077680587768555 189.44000244140625 29.439998626708984 L 177.9199981689453 42.23999786376953 C 173.20147705078125 39.72119140625 167.3699188232422 40.78147506713867 163.83999633789062 44.79999923706055 L 162.55999755859375 46.07999801635742 C 152.33456420898438 42.34311294555664 140.8711395263672 44.83516311645508 133.1199951171875 52.47999954223633 L 101.1199951171875 84.47999572753906 C 99.2062759399414 85.39397430419922 98.39582824707031 87.686279296875 99.30979919433594 89.5999984741211 C 100.22378540039062 91.51371765136719 102.51608276367188 92.32416534423828 104.42980194091797 91.41019439697266 C 105.22249603271484 91.03160858154297 105.86141204833984 90.39268493652344 106.23999786376953 89.5999984741211 L 138.239990234375 57.599998474121094 C 143.0457763671875 53.116844177246094 149.71116638183594 51.21244812011719 156.16000366210938 52.47999954223633 L 113.91999816894531 94.72000122070312 L 88.31999969482422 96.0 C 74.84912109375 96.89167022705078 62.554832458496094 103.98452758789062 55.03999710083008 115.19999694824219 L 28.15999984741211 153.59999084472656 C 21.814128875732422 161.62240600585938 22.360530853271484 173.09689331054688 29.439998626708984 180.47999572753906 C 24.074609756469727 187.02838134765625 19.75667953491211 194.3688507080078 16.639999389648438 202.239990234375 L 6.399999618530273 230.39999389648438 L 1.2799999713897705 235.51998901367188 C -0.6337200403213501 236.43397521972656 -1.4441713094711304 238.72628784179688 -0.5301933288574219 240.63999938964844 C 0.3837845027446747 242.5537109375 2.676086664199829 243.3641815185547 4.58980655670166 242.4501953125 C 5.382495403289795 242.0716094970703 6.021417617797852 241.4326934814453 6.399999618530273 240.63999938964844 L 11.519999504089355 236.79998779296875 L 39.68000030517578 225.27999877929688 C 50.74861526489258 221.04946899414062 60.785888671875 214.50343322753906 69.1199951171875 206.0800018310547 L 83.19999694824219 193.27999877929688 C 84.0224380493164 193.76583862304688 84.87786102294922 194.1935577392578 85.75999450683594 194.55999755859375 L 122.87999725341797 212.47999572753906 C 136.83128356933594 219.084716796875 152.32546997070312 221.74087524414062 167.67999267578125 220.1599884033203 L 245.75999450683594 212.47999572753906 C 252.08761596679688 211.81643676757812 256.67926025390625 206.14898681640625 256.01568603515625 199.82135009765625 C 256.0107421875 199.77420043945312 256.0055236816406 199.72708129882812 256.0 199.67999267578125 L 256.0 145.9199981689453 C 256.1089782714844 142.51223754882812 254.70285034179688 139.23126220703125 252.1599884033203 136.95999145507812" stroke-width="5.6294989585876465" fill="rgb(142, 109, 159)" opacity="1.0"/>
    <path d="M 236.79998779296875 180.47999572753906 L 227.83999633789062 180.47999572753906 C 225.36575317382812 180.47999572753906 223.36000061035156 182.4857635498047 223.36000061035156 184.95999145507812 C 223.36000061035156 187.43423461914062 225.36575317382812 189.44000244140625 227.83999633789062 189.44000244140625 L 236.79998779296875 189.44000244140625 C 239.27423095703125 189.44000244140625 241.27999877929688 187.43423461914062 241.27999877929688 184.95999145507812 C 241.27999877929688 182.4857635498047 239.27423095703125 180.47999572753906 236.79998779296875 180.47999572753906" stroke-width="1.6383999586105347" fill="rgb(152, 121, 165)" opacity="1.0"/>
  </g>
</svg>
