<?xml version="1.0" ?>
<svg xmlns="http://www.w3.org/2000/svg" version="1.1" width="256" height="256">
  <defs/>
  <g>
    <path d="M 73.09656524658203 169.19906616210938 L 50.16449737548828 182.74984741210938 Q 48.354740142822266 183.5183563232422 46.05730056762695 182.77713012695312 Q 43.90118408203125 182.68765258789062 41.90388107299805 182.37710571289062 Q 39.90338897705078 182.08848571777344 37.92707061767578 181.3001708984375 Q 34.60374450683594 181.971435546875 32.39451599121094 171.67713928222656 C 25.66729736328125 170.36207580566406 22.976682662963867 169.11749267578125 35.906646728515625 181.3066864013672 C 31.491191864013672 175.93930053710938 29.061742782592773 171.06869506835938 30.979909896850586 170.98699951171875 C 17.496889114379883 177.56378173828125 27.403837203979492 141.24267578125 30.99118423461914 159.33291625976562 C 27.71538543701172 161.2859649658203 28.603412628173828 158.6295928955078 28.248531341552734 153.46099853515625 L 56.47751998901367 113.572021484375 Q 70.29239654541016 98.33079528808594 65.76264190673828 108.91329193115234 Q 67.33728790283203 104.91468811035156 69.29241180419922 107.0176773071289 Q 59.36606216430664 105.44607543945312 78.17463684082031 98.70915222167969 Q 83.51473236083984 97.33885955810547 97.97591400146484 96.43862915039062 L 138.5975799560547 97.07793426513672 L 191.98638916015625 134.05490112304688 L 193.6466522216797 172.7345733642578 C 187.03147888183594 172.0269775390625 116.68225860595703 182.58811950683594 113.8714599609375 185.02284240722656 C 111.10017395019531 184.05113220214844 76.40787506103516 173.53956604003906 73.09656524658203 169.19906616210938" stroke-width="1.0" fill="rgb(249, 238, 221)" opacity="0.9989865"/>
    <path d="M 40.761146545410156 224.41380310058594 L 3.299640417098999 239.03933715820312 L 19.47005844116211 197.34507751464844 Q 24.36566925048828 186.28883361816406 25.921390533447266 194.63134765625 Q 16.59383201599121 199.69407653808594 27.753219604492188 183.42929077148438 Q 29.984312057495117 180.8797149658203 29.78261947631836 180.18646240234375 Q 16.079071044921875 158.9801025390625 39.58443832397461 178.45880126953125 L 162.21453857421875 46.152713775634766 C 166.34580993652344 46.57746887207031 168.5667266845703 36.17343521118164 180.66287231445312 44.05049133300781 C 175.93768310546875 47.36305618286133 173.7353973388672 44.15671157836914 177.98399353027344 43.909671783447266 C 177.82830810546875 45.81404495239258 181.36514282226562 46.9896240234375 172.35751342773438 44.35222244262695 C 175.13424682617188 45.313167572021484 176.10986328125 44.77014923095703 188.85809326171875 31.90704345703125 L 202.82017517089844 54.55364990234375 C 192.17678833007812 61.984954833984375 196.87242126464844 59.60562515258789 198.43154907226562 57.042625427246094 C 199.8604736328125 68.27140808105469 204.33990478515625 69.26549530029297 196.43667602539062 78.94480895996094 C 180.6874237060547 71.2978744506836 193.9141082763672 72.7929916381836 193.59324645996094 73.39988708496094 C 198.2438507080078 75.79479217529297 195.9164581298828 73.969970703125 196.61898803710938 78.41598510742188 L 67.2369155883789 207.8234405517578 Q 65.14204406738281 207.85040283203125 65.50824737548828 209.6769561767578 Q 61.518192291259766 212.80165100097656 56.28234100341797 216.46324157714844 Q 54.0963249206543 218.48687744140625 43.4168586730957 223.3985137939453 Q 45.78425216674805 223.16348266601562 40.761146545410156 224.41380310058594" stroke-width="1.0" fill="rgb(114, 202, 174)" opacity="0.9994577"/>
    <path d="M 167.64862060546875 97.25871276855469 L 65.1670150756836 208.8312225341797 L 52.68235778808594 189.0345001220703 L 49.4962043762207 182.0831298828125 L 153.85369873046875 78.29214477539062 L 167.64862060546875 97.25871276855469" stroke-width="1.0" fill="rgb(254, 227, 173)" opacity="0.9607044"/>
    <path d="M 174.44781494140625 173.06927490234375 L 170.23825073242188 165.10256958007812 Q 163.04737854003906 160.96807861328125 158.80641174316406 160.36610412597656 Q 156.50192260742188 165.47476196289062 152.82614135742188 163.876708984375 Q 150.34579467773438 166.5296173095703 147.96070861816406 166.47360229492188 Q 150.11666870117188 171.3376007080078 141.36875915527344 177.00704956054688 L 98.4132308959961 166.2611846923828 Q 100.70027160644531 169.3848876953125 98.65950775146484 168.5414276123047 Q 92.42363739013672 162.6097869873047 92.30369567871094 169.5441131591797 Q 90.73263549804688 167.63844299316406 92.88539123535156 171.9897003173828 Q 91.08597564697266 168.5955047607422 93.2713851928711 161.16732788085938 C 91.29529571533203 166.67547607421875 92.39109802246094 179.84652709960938 82.06523132324219 179.1667022705078 C 77.33484649658203 178.91793823242188 84.99871063232422 181.5756378173828 88.25982666015625 177.1806640625 C 81.98650360107422 183.28538513183594 87.45992279052734 197.6985626220703 81.28128814697266 189.72579956054688 C 77.52833557128906 187.2430877685547 80.91594696044922 190.77377319335938 84.94170379638672 193.60511779785156 L 122.07682800292969 211.14437866210938 Q 129.49221801757812 214.75282287597656 134.66506958007812 215.9107666015625 Q 144.39801025390625 219.7607879638672 158.06842041015625 218.9130401611328 Q 153.94577026367188 216.43496704101562 147.35287475585938 215.30979919433594 Q 144.03085327148438 221.8765869140625 169.17462158203125 219.0883331298828 L 243.94749450683594 211.4414520263672 C 225.5918426513672 212.15811157226562 244.5264129638672 212.31565856933594 247.86557006835938 211.2124481201172 C 248.2512969970703 210.95315551757812 260.5911560058594 204.4738006591797 238.89503479003906 208.5785369873047 C 250.33920288085938 214.47039794921875 254.86753845214844 208.97125244140625 257.4129943847656 192.84136962890625 C 267.2107238769531 203.26007080078125 268.2728271484375 205.63357543945312 269.1937561035156 203.29701232910156 L 264.99591064453125 156.35711669921875 C 260.5046691894531 154.3544464111328 236.4868621826172 124.03839874267578 237.6451416015625 153.7211456298828 C 254.4792938232422 142.85772705078125 244.1800079345703 132.85043334960938 255.25152587890625 153.51368713378906 C 258.1763916015625 133.71441650390625 245.729248046875 139.41552734375 249.3663330078125 142.9036865234375 C 256.8020935058594 142.31031799316406 249.04176330566406 138.1969451904297 238.478515625 142.28878784179688 L 236.32962036132812 136.72640991210938 Q 219.39923095703125 137.0417938232422 218.244384765625 139.7681427001953 Q 253.28317260742188 133.9063720703125 217.35183715820312 135.25576782226562 Q 202.9250030517578 133.04087829589844 194.94708251953125 129.03207397460938 Q 188.8648223876953 126.39142608642578 183.42791748046875 122.68063354492188 L 162.28916931152344 107.94815063476562 L 174.44781494140625 173.06927490234375" stroke-width="1.0" fill="rgb(249, 238, 221)" opacity="0.9992574"/>
    <path d="M 168.7019805908203 174.4344024658203 Q 164.91024780273438 176.6207733154297 164.89564514160156 176.35482788085938 Q 157.33230590820312 179.41712951660156 153.64503479003906 179.2335968017578 Q 153.39605712890625 180.39834594726562 151.80438232421875 179.6547088623047 Q 148.82681274414062 180.36183166503906 144.857666015625 179.5994873046875 L 103.64456939697266 175.635009765625 Q 96.92720031738281 175.6411895751953 100.06853485107422 175.67544555664062 Q 92.35414123535156 176.63758850097656 96.00413513183594 176.11996459960938 Q 86.23423767089844 180.1397705078125 85.53221130371094 185.24224853515625 Q 81.61366271972656 180.59913635253906 84.44122314453125 183.01280212402344 L 93.94800567626953 185.5253448486328 C 79.85482025146484 181.50169372558594 83.95088195800781 183.3169403076172 84.08683013916016 187.11463928222656 C 83.17669677734375 185.9628143310547 81.52470397949219 169.4059600830078 81.7768783569336 172.3944549560547 C 83.27156066894531 178.23614501953125 82.7139663696289 170.78515625 81.3411865234375 174.32969665527344 C 83.70551300048828 172.18161010742188 81.09909057617188 172.0660858154297 82.73577117919922 171.11068725585938 C 92.32368469238281 156.09764099121094 121.36538696289062 168.1415557861328 128.4188232421875 163.16702270507812 C 123.0616226196289 164.45721435546875 147.6737060546875 172.82327270507812 167.25413513183594 161.30126953125 L 179.44058227539062 154.89498901367188 C 170.72206115722656 158.63417053222656 177.6781005859375 155.42861938476562 177.24224853515625 154.99331665039062 C 178.16162109375 158.2030792236328 178.43275451660156 162.46664428710938 177.80197143554688 163.15599060058594 C 177.09109497070312 165.6960906982422 176.07470703125 169.6785125732422 174.88096618652344 169.36521911621094 C 173.44163513183594 172.8160400390625 170.5814666748047 172.60916137695312 170.18016052246094 174.2576904296875 L 168.7019805908203 174.4344024658203" stroke-width="1.0" fill="rgb(254, 246, 239)" opacity="0.99750704"/>
    <path d="M 161.6584014892578 135.67384338378906 L 139.13052368164062 158.5072021484375 Q 144.6868896484375 162.2847900390625 172.0476837158203 159.91055297851562 Q 149.33724975585938 171.16192626953125 141.6928253173828 167.40521240234375 Q 129.5246124267578 168.0719757080078 124.71188354492188 163.5900421142578 Q 134.60519409179688 162.18421936035156 126.21943664550781 165.3867645263672 L 101.68350982666016 163.4986114501953 L 156.2218017578125 109.58783721923828 C 171.7724151611328 92.8554916381836 162.67935180664062 113.45193481445312 167.36207580566406 112.0089340209961 C 175.6934814453125 114.26970672607422 199.7247314453125 141.0807647705078 165.1636505126953 118.52021026611328 C 166.48196411132812 124.08605194091797 166.1439971923828 127.73356628417969 164.94998168945312 130.4561767578125 C 164.67137145996094 132.47303771972656 162.91958618164062 135.07151794433594 161.6584014892578 135.67384338378906" stroke-width="1.0" fill="rgb(230, 198, 166)" opacity="0.5804905"/>
    <path d="M 47.058616638183594 174.71469116210938 L 58.23089599609375 198.77366638183594 Q 37.95741271972656 190.4580535888672 53.68488311767578 181.5214080810547 Q 42.48906707763672 189.47409057617188 33.5013542175293 208.32815551757812 Q 24.658344268798828 232.7092742919922 25.81229591369629 218.49717712402344 Q 37.63941192626953 189.93539428710938 26.825897216796875 229.3410186767578 L 16.068418502807617 224.9679718017578 L 2.9418981075286865 241.70712280273438 L 20.978090286254883 213.19691467285156 Q 17.682798385620117 203.16213989257812 21.619586944580078 193.77542114257812 Q 22.063302993774414 188.98622131347656 25.82769775390625 187.09103393554688 Q 31.979930877685547 186.51702880859375 34.391605377197266 185.17755126953125 Q 14.788826942443848 161.24278259277344 38.35289001464844 174.65809631347656 L 47.058616638183594 174.71469116210938" stroke-width="1.0" fill="rgb(212, 255, 206)" opacity="0.3781692"/>
    <path d="M 214.79383850097656 34.18718719482422 C 218.98423767089844 45.32780838012695 213.91424560546875 42.25172424316406 212.3607177734375 40.55918502807617 C 212.98141479492188 33.571720123291016 213.015380859375 41.598167419433594 217.0682373046875 41.776493072509766 C 215.71095275878906 37.96302032470703 218.03868103027344 41.5858268737793 213.7667236328125 49.3924674987793 C 211.6920928955078 53.39995574951172 191.6023712158203 71.50360107421875 209.83203125 52.38871383666992 L 200.29193115234375 63.96064758300781 L 183.2272491455078 46.91352462768555 L 192.40513610839844 34.40461349487305 C 180.2427520751953 39.90007781982422 195.77902221679688 21.325939178466797 197.35340881347656 28.98294448852539 C 198.22216796875 30.893428802490234 202.13833618164062 28.74164390563965 208.29806518554688 29.331707000732422 C 205.44290161132812 33.237037658691406 191.8135528564453 34.99771499633789 194.65553283691406 27.55079460144043 C 205.7760772705078 23.066497802734375 211.15792846679688 28.763715744018555 214.79383850097656 34.18718719482422" stroke-width="1.0" fill="rgb(247, 225, 173)" opacity="0.9982513"/>
    <path d="M 152.18438720703125 81.48909759521484 L 50.20073318481445 183.9662322998047 L 53.26217269897461 187.79591369628906 L 40.741703033447266 175.520263671875 L 142.6097869873047 72.89022064208984 L 152.18438720703125 81.48909759521484" stroke-width="1.0" fill="rgb(254, 234, 154)" opacity="1.0"/>
    <path d="M 143.81993103027344 65.98180389404297 L 40.5694580078125 179.82528686523438 L 34.683837890625 173.7133026123047 L 143.81993103027344 65.98180389404297" stroke-width="1.0" fill="rgb(174, 182, 165)" opacity="1.0"/>
    <path d="M 253.26524353027344 138.08335876464844 Q 254.13734436035156 136.47906494140625 246.19924926757812 134.48477172851562 Q 247.26339721679688 134.9936065673828 246.8942413330078 136.09815979003906 Q 254.63417053222656 134.50546264648438 245.19747924804688 133.96250915527344 Q 247.22598266601562 132.60581970214844 240.57931518554688 133.9995574951172 L 228.25901794433594 134.5120086669922 Q 230.83457946777344 135.66656494140625 220.6136016845703 134.09503173828125 Q 215.64991760253906 134.6823272705078 204.32400512695312 131.49691772460938 Q 199.9325714111328 130.46365356445312 196.21878051757812 128.43905639648438 Q 186.4576873779297 124.1646499633789 183.18231201171875 120.99746704101562 L 166.43649291992188 109.71427917480469 L 198.7771759033203 77.3261489868164 Q 202.12796020507812 73.33348083496094 200.0989227294922 76.67279052734375 Q 202.15512084960938 71.83304595947266 201.68373107910156 68.30461120605469 Q 202.50999450683594 68.79360961914062 196.30223083496094 71.2329330444336 Q 204.10618591308594 71.46917724609375 200.66810607910156 64.54362487792969 L 211.9098663330078 53.00083923339844 C 215.75209045410156 50.771766662597656 216.8496551513672 45.187522888183594 217.71018981933594 40.12932586669922 C 216.58641052246094 41.06455993652344 216.9564666748047 31.718355178833008 212.5398406982422 29.85502052307129 C 210.1651611328125 26.778730392456055 205.05738830566406 24.6370849609375 199.11402893066406 25.20237159729004 C 198.1221160888672 24.22273826599121 190.6483154296875 27.61094856262207 189.84042358398438 29.165491104125977 L 177.66519165039062 41.160709381103516 Q 172.2439422607422 39.724632263183594 177.26980590820312 40.56614303588867 Q 166.07720947265625 39.69915771484375 166.84521484375 43.431427001953125 Q 173.46694946289062 41.77376937866211 168.28700256347656 42.418331146240234 Q 164.1772918701172 42.66861343383789 165.07186889648438 42.56655502319336 L 162.46694946289062 45.77133560180664 C 161.28292846679688 44.392295837402344 151.47377014160156 43.40431594848633 156.3022003173828 44.68574142456055 C 156.07481384277344 44.308719635009766 149.79339599609375 43.29933166503906 144.299560546875 45.19919204711914 C 146.39414978027344 44.1070671081543 141.53343200683594 45.91910171508789 137.12928771972656 48.12559127807617 C 137.82696533203125 49.81618881225586 136.84068298339844 47.52954864501953 133.1935272216797 51.68795394897461 L 100.69776916503906 84.26747131347656 C 96.82457733154297 87.13343811035156 99.00611877441406 91.66898345947266 99.45013427734375 85.32730102539062 C 96.08318328857422 94.24639129638672 98.85594177246094 85.51094818115234 99.5079345703125 92.55311584472656 C 99.37740325927734 90.54521942138672 102.54267120361328 93.43536376953125 100.9487075805664 92.79560089111328 C 106.73878479003906 93.14032745361328 104.94276428222656 91.87010955810547 106.60707092285156 90.41922760009766 L 138.5074462890625 58.53995132446289 Q 139.08090209960938 57.216209411621094 144.1933135986328 54.9017219543457 Q 141.48077392578125 54.39714813232422 147.45533752441406 53.26653289794922 Q 142.2759246826172 52.82112121582031 160.72547912597656 52.3580207824707 Q 147.04278564453125 50.75273513793945 154.96966552734375 52.87633514404297 L 113.77393341064453 94.15870666503906 L 87.34562683105469 96.00627136230469 C 82.69847106933594 97.75470733642578 88.12342071533203 94.35792541503906 78.15824127197266 97.57669830322266 C 77.2779312133789 98.2207260131836 69.56065368652344 100.1021499633789 69.82308197021484 101.10713195800781 C 63.15956115722656 103.64693450927734 62.68284225463867 107.64208221435547 61.299007415771484 106.26022338867188 C 59.17073440551758 109.63330841064453 56.86793518066406 109.84642791748047 53.92443084716797 115.40431213378906 L 27.261981964111328 153.06539916992188 C 25.525188446044922 157.0891876220703 25.516448974609375 154.8739471435547 23.897701263427734 160.28802490234375 C 24.461877822875977 164.22776794433594 22.399688720703125 158.17115783691406 23.64496421813965 168.21168518066406 C 22.59430694580078 165.8268280029297 24.57619285583496 174.56454467773438 25.627567291259766 173.75558471679688 C 24.816940307617188 174.82064819335938 27.89291000366211 179.0838165283203 29.343076705932617 180.4530792236328 Q 27.852245330810547 180.29852294921875 24.404220581054688 186.1975555419922 Q 22.78017807006836 188.47662353515625 21.071931838989258 192.48342895507812 Q 20.912700653076172 190.24050903320312 18.832263946533203 196.44570922851562 Q 16.54629135131836 200.79014587402344 16.246633529663086 202.64247131347656 L 6.042213439941406 229.78074645996094 L -0.8166356682777405 236.85231018066406 C -2.7245607376098633 238.08016967773438 -3.6884407997131348 240.45314025878906 -5.001381874084473 236.0398406982422 C -5.9264912605285645 244.5848846435547 -4.990276336669922 245.31956481933594 -2.6312646865844727 241.08253479003906 C -2.166161060333252 241.6256866455078 2.089226245880127 240.3216552734375 -1.4631125926971436 240.43850708007812 C 7.618662357330322 245.38819885253906 5.442391872406006 240.76112365722656 6.626424789428711 241.4248046875 L 11.748912811279297 236.55296325683594 L 40.41398620605469 225.85162353515625 Q 43.37953567504883 224.58438110351562 49.25959777832031 222.44113159179688 Q 52.49879837036133 219.6150360107422 55.56734848022461 218.68203735351562 Q 59.50482940673828 215.56854248046875 64.34172821044922 211.9216766357422 Q 67.38748931884766 208.40280151367188 70.49310302734375 206.50411987304688 L 83.36788177490234 193.33128356933594 Q 87.96544647216797 198.17166137695312 88.24240112304688 192.5978546142578 Q 84.24905395507812 194.0023956298828 87.28254699707031 194.7372283935547 Q 86.9217529296875 193.16775512695312 87.04002380371094 194.9604949951172 Q 85.79888153076172 193.59336853027344 85.61652374267578 195.03890991210938 L 123.50804138183594 212.864990234375 Q 125.59524536132812 214.425048828125 134.20249938964844 216.94212341308594 Q 138.8981475830078 218.3986358642578 144.9109649658203 219.6065673828125 Q 152.53341674804688 220.38650512695312 149.24099731445312 220.4117889404297 Q 170.53082275390625 221.0994415283203 167.4869842529297 220.22850036621094 L 246.01193237304688 212.3281707763672 C 250.4909210205078 210.73629760742188 250.96128845214844 212.6333770751953 250.6637725830078 207.04562377929688 C 244.7964324951172 211.23782348632812 254.97341918945312 211.21107482910156 253.76840209960938 207.08143615722656 C 258.69757080078125 204.22740173339844 251.1704559326172 202.04220581054688 260.1676025390625 204.76515197753906 C 259.8409118652344 195.41830444335938 260.60791015625 194.6099853515625 260.7441711425781 204.7347412109375 L 262.109619140625 151.10525512695312 Q 261.502685546875 140.95858764648438 261.8739013671875 137.29190063476562 Q 261.99072265625 132.49676513671875 257.7640075683594 144.87220764160156 Q 254.2337646484375 138.7574005126953 251.83419799804688 135.6538848876953 Q 253.8886260986328 140.8859405517578 253.26524353027344 138.08335876464844" stroke-width="1.0" fill="rgb(137, 99, 158)" opacity="0.9029461"/>
    <path d="M 226.8677215576172 180.94174194335938 L 227.64407348632812 181.06900024414062 C 226.6280059814453 184.92581176757812 227.0334014892578 185.2803955078125 230.2639617919922 183.74766540527344 C 230.4893341064453 178.8123779296875 223.1283721923828 180.38958740234375 224.11785888671875 186.49014282226562 C 221.90496826171875 181.61570739746094 226.6584014892578 188.35781860351562 224.4404296875 187.32412719726562 C 228.12644958496094 185.61460876464844 222.24095153808594 184.78384399414062 226.78997802734375 188.7856903076172 L 238.2809295654297 188.8014373779297 C 238.77462768554688 188.3534698486328 237.75991821289062 188.2239532470703 237.67237854003906 185.09573364257812 C 238.28419494628906 185.66061401367188 235.94920349121094 183.95196533203125 237.44967651367188 188.0841827392578 C 242.47872924804688 186.12965393066406 238.78799438476562 178.90399169921875 237.1935272216797 184.63436889648438 C 240.84080505371094 182.58453369140625 239.98910522460938 182.9301300048828 236.9569854736328 180.74276733398438 L 226.8677215576172 180.94174194335938" stroke-width="1.0" fill="rgb(141, 108, 159)" opacity="0.9932186"/>
  </g>
</svg>
