<svg version="1.2" xmlns="http://www.w3.org/2000/svg" viewBox="0 0 256 256" width="256" height="256"><style>.a{fill:#faefde}.b{fill:#ffc0cb}.c{fill:#f9e3ae}.d{fill:#fff7f0}.e{fill:#efd8be}.f{fill:#ffb6c1}.g{fill:#ffeb9b}.h{fill:#f9dd8f}.i{fill:#8d6c9f}</style><path class="a" d="m76.8 172.8l-26.9 9q-1.9 0.6-3.9 0.8-2.1 0.1-4.1-0.2-2-0.3-3.9-1.2-1.8-0.8-3.4-2c-1.8-1.3-3.3-2.9-4.4-4.7-1.2-1.9-1.9-3.9-2.3-6-0.3-2.2-0.3-4.4 0.2-6.5 0.5-2.1 1.4-4.1 2.6-5.8l26.9-39.7q2.6-3.7 6-6.7 3.4-3 7.4-5.2 4-2.2 8.4-3.4 4.4-1.2 8.9-1.4l52.5-2.5 52.5 34.5-6.4 39.7c0 0-70.4 10.3-73 11.5-2.5 0-37.1-10.2-37.1-10.2z"/><path class="b" d="m38.4 221.4l-29.4 11.6 11.5-29.5q1.4-3.9 3.3-7.7 1.9-3.8 4.1-7.3 2.3-3.6 4.9-6.9 2.6-3.2 5.6-6.2l128-128c0.7-0.9 1.6-1.5 2.6-2 1-0.4 2.1-0.6 3.2-0.6 1 0 2.1 0.2 3.1 0.6 1 0.5 1.9 1.1 2.6 2l16.7 16.6c0.8 0.7 1.4 1.6 1.9 2.6 0.4 1 0.7 2.1 0.7 3.2 0 1-0.3 2.1-0.7 3.1-0.5 1-1.1 1.9-1.9 2.6l-128 128q-3 3-6.3 5.6-3.3 2.6-6.9 4.9-3.5 2.2-7.3 4.1-3.8 1.9-7.7 3.3z"/><path class="c" d="m171.5 98.6l-104.9 104.9-18-17.9 1.3-2.6 103.7-102.4z"/><path class="a" d="m172.8 154.9l-9 5.1q-2.6 1.3-5.4 2.2-2.9 1-5.8 1.5-2.9 0.4-5.9 0.5-3 0-5.9-0.4l-41-3.8q-2.4-0.3-4.9-0.1-2.5 0.3-4.8 1.1-2.3 0.8-4.4 2.2-2.1 1.4-3.8 3.2c-1.9 1.9-3.2 4.2-3.9 6.8-0.8 2.5-0.8 5.2-0.2 7.8 0.7 2.6 2 5 3.8 6.9 1.9 1.9 4.2 3.3 6.7 4.1l37.1 16.6q4.8 2.3 9.8 4 5 1.6 10.2 2.6 5.2 1 10.5 1.3 5.2 0.2 10.5-0.2l78.1-7.7c1.1 0.1 2.2-0.2 3.2-0.6 1.1-0.5 2-1.2 2.7-2 0.8-0.9 1.3-1.9 1.6-3 0.3-1.1 0.3-2.2 0.2-3.3v-53.8c0-1.1-0.3-2.2-0.7-3.2-0.5-1.1-1.2-2-2-2.7-0.9-0.8-1.9-1.3-3-1.6-1.1-0.3-2.2-0.3-3.3-0.2h-10.2q-6.9 0.8-13.8 0.3-6.9-0.4-13.6-2.1-6.7-1.6-13-4.4-6.4-2.7-12.1-6.6l-20.5-15.3"/><path class="d" d="m167.7 175.4q-2.7 1.3-5.5 2.2-2.8 0.9-5.8 1.4-2.9 0.5-5.8 0.5-3 0.1-6-0.3l-40.9-3.8q-2.6-0.3-5.1 0.1-2.5 0.4-4.9 1.4-2.3 1-4.3 2.6-2.1 1.5-3.6 3.5l-2.6 5.2c-1.3-1.6-2.4-3.5-3.1-5.4-0.7-2-1.1-4.1-1.1-6.2 0-2.1 0.4-4.1 1.1-6.1 0.7-2 1.8-3.8 3.1-5.4 9-11.5 41-2.5 41-2.5 0 0 21.7 7.6 40.9-3.9l11.5-6.4c1.1 1.8 1.9 3.9 2.1 6 0.3 2.1 0.1 4.3-0.5 6.3-0.6 2.1-1.6 4-3 5.6-1.3 1.6-3 2.9-5 3.9z"/><path class="e" d="m161.3 135.7l-21.8 21.7q-1 1.3-2.3 2.3-1.3 1-2.8 1.7-1.5 0.6-3.1 0.9-1.7 0.3-3.3 0.3l-16.6-2.6 47.3-47.4c2 1.1 3.7 2.7 5 4.6 1.3 1.8 2.1 4 2.3 6.3 0.3 2.3 0 4.5-0.8 6.7-0.9 2.1-2.2 4-3.9 5.5z"/><path class="f" d="m39.7 175.4l8.9 10.2q-2.7 2.9-5.1 6.1-2.4 3.1-4.5 6.5-2.1 3.4-3.9 7-1.7 3.5-3.1 7.3l-5.1 14.1-17.9 6.4 11.5-29.5q1.5-3.9 3.3-7.7 1.9-3.7 4.2-7.3 2.2-3.5 4.8-6.8 2.7-3.3 5.6-6.3zm144.6-122.9q-0.7 0-1.4 0.2-0.7 0.2-1.4 0.6-0.6 0.3-1.2 0.7-0.6 0.5-1.1 1l-25.6 25.6-10.2-10.2 23-23c0.7-0.9 1.6-1.5 2.6-2 1-0.4 2.1-0.6 3.2-0.6 1.1 0 2.1 0.2 3.1 0.6 1 0.5 1.9 1.1 2.6 2z"/><path class="c" d="m208.6 33.3c1.2 1.1 2.1 2.3 2.7 3.8 0.6 1.4 0.9 2.9 0.9 4.5 0 1.6-0.3 3.1-0.9 4.5-0.6 1.5-1.5 2.7-2.7 3.8l-14 14.1-16.7-16.6 14.1-14.1c1.1-1.1 2.4-2 3.8-2.6 1.4-0.7 3-1 4.5-1 1.6 0 3.1 0.3 4.5 1 1.5 0.6 2.8 1.5 3.8 2.6z"/><path class="g" d="m153.6 80.6l-103.7 102.4-1.3 2.6-8.9-10.2 103.7-105z"/><path class="h" d="m143.4 70.4l-103.7 105-1.3-1.3z"/><path class="i" d="m252.2 137q-1-0.8-2-1.4-1.1-0.5-2.2-0.9-1.2-0.3-2.4-0.4-1.2-0.1-2.4 0.1h-11.5q-6.4 0.5-12.8 0-6.4-0.6-12.6-2.2-6.2-1.7-12.1-4.3-5.8-2.7-11.2-6.3l-16.6-11.5 32-32q1.5-1.3 2.4-3 1-1.7 1.3-3.6 0.4-1.9 0.1-3.9-0.3-1.9-1.2-3.6l11.5-11.5c2.2-3.6 3.8-7.5 3.8-11.5 0-4.1-1.6-8-4.5-10.9-2.9-2.9-6.8-4.5-10.8-4.5-4.1 0-8 1.6-10.9 4.5l-12.2 12.1q-1.7-0.9-3.6-1.2-1.9-0.3-3.9 0.1-1.9 0.3-3.6 1.3-1.7 0.9-3 2.4l-1.2 1.3c-2.5-0.9-5.1-1.5-7.8-1.7-2.6-0.1-5.3 0-7.9 0.6-2.6 0.6-5.1 1.5-7.4 2.8-2.3 1.2-4.5 2.8-6.4 4.7l-32 32c-1.1 0.5-1.9 1.6-2.1 2.8-0.2 1.2 0.2 2.5 1.1 3.4 0.8 0.8 2.1 1.2 3.3 1 1.3-0.2 2.3-1 2.8-2.1l32-32q1.8-1.7 3.9-2.9 2.1-1.1 4.5-1.8 2.3-0.7 4.7-0.8 2.5-0.1 4.9 0.4l-42.3 42.2-25.6 1.3c-3.3 0.2-6.6 0.8-9.7 1.8-3.2 0.9-6.3 2.3-9.2 3.9-2.8 1.7-5.5 3.7-7.9 5.9-2.5 2.3-4.6 4.8-6.5 7.6l-26.8 38.4c-1.6 1.9-2.7 4.1-3.5 6.4-0.7 2.4-1.1 4.8-0.9 7.3 0.1 2.4 0.6 4.8 1.6 7.1 1 2.2 2.3 4.3 4 6.1q-2 2.4-3.8 5-1.8 2.6-3.4 5.4-1.6 2.7-3 5.5-1.4 2.9-2.6 5.8l-10.2 28.2-5.1 5.1c-1.1 0.6-1.9 1.6-2.1 2.8-0.3 1.3 0.1 2.5 1 3.4 0.9 0.9 2.2 1.3 3.4 1.1 1.2-0.2 2.3-1 2.8-2.2l5.1-3.8 28.2-11.5q4.1-1.6 8.1-3.6 3.9-2 7.6-4.4 3.7-2.5 7.2-5.3 3.4-2.8 6.5-5.9l14.1-12.8q0.3 0.2 0.6 0.3 0.3 0.2 0.7 0.4 0.3 0.1 0.6 0.3 0.3 0.1 0.7 0.3l37.1 17.9q5.2 2.4 10.7 4.2 5.5 1.7 11.2 2.7 5.6 1 11.4 1.2 5.7 0.1 11.5-0.4l78.1-7.7c1.5-0.2 2.9-0.6 4.3-1.4 1.3-0.7 2.5-1.7 3.5-2.9 0.9-1.2 1.6-2.5 2-4 0.5-1.5 0.6-3 0.4-4.5v-53.8q0-1.2-0.2-2.5-0.2-1.2-0.7-2.4-0.5-1.1-1.3-2.2-0.7-1-1.6-1.8zm-57.6-101.2c1.7-1.1 3.7-1.9 5.7-1.9 2.1 0 4 0.8 5.5 2.3 1.4 1.4 2.2 3.4 2.2 5.4 0 2-0.8 4-2.2 5.4l-11.2 11.9-10.3-11.5zm-21.7 12.8q0.3 0 0.7 0.1 0.3 0.1 0.7 0.3 0.3 0.1 0.6 0.3 0.3 0.3 0.5 0.5l11.5 11.6 5.2 5.1q0.8 0.5 1.2 1.4 0.5 0.8 0.5 1.8 0 0.9-0.5 1.8-0.4 0.8-1.2 1.4l-19.2 19.2-23.1-23.1 20.5-19.2q0.2-0.2 0.5-0.5 0.3-0.2 0.7-0.3 0.3-0.2 0.6-0.3 0.4-0.1 0.8-0.1zm-138.3 108.8l26.9-38.4q2.3-3.3 5.2-6.1 3-2.7 6.5-4.7 3.5-2 7.3-3.1 3.9-1.2 7.9-1.5l16.6-1.3-69.1 70.4-1.3 1.3c-1-1.2-1.7-2.5-2.3-3.9-0.5-1.4-0.8-2.9-0.8-4.4 0-1.5 0.3-3 0.8-4.5 0.6-1.4 1.3-2.7 2.3-3.8zm2.6 60.1l-20.5 9 7.7-20.5q1-2.9 2.2-5.8 1.2-2.8 2.6-5.6 1.5-2.7 3.1-5.3 1.7-2.6 3.6-5.1c0 0 1.3-1.2 2.6-2.5l21.7 23q-2.5 2.1-5.3 4-2.7 1.8-5.6 3.5-2.9 1.6-6 2.9-3 1.4-6.1 2.4zm28.1-17.9l-21.7-23 74.2-74.3 7.7-8.9 19.2-18 23 21.8-10.2 10.2-48.6 48.7h-9q-2.8-0.3-5.7 0-2.8 0.4-5.5 1.4-2.6 1-5 2.6-2.3 1.6-4.3 3.7-1.5 1.8-2.5 4-1 2.1-1.5 4.5-0.5 2.3-0.5 4.7 0.1 2.4 0.7 4.7 0.2 0.7 0.5 1.3 0.2 0.7 0.6 1.3 0.3 0.7 0.7 1.3 0.3 0.6 0.7 1.2zm183.1 1.3q0 0.7-0.3 1.4-0.3 0.8-0.8 1.3-0.6 0.5-1.3 0.8-0.7 0.3-1.5 0.3h-3.8q0-0.7-0.3-1.4-0.3-0.8-0.8-1.3-0.6-0.5-1.3-0.8-0.7-0.3-1.4-0.3h-9q-1-0.1-1.8 0.3-0.9 0.4-1.5 1.2-0.6 0.8-0.7 1.7-0.2 1 0.2 1.9l-57.6 6.4q-5.1 0.4-10.3 0.1-5.1-0.3-10.1-1.2-5-1-9.9-2.7-4.8-1.6-9.4-3.9l-37.1-16.6q-0.2-0.1-0.4-0.3-0.2-0.1-0.4-0.3-0.1-0.1-0.3-0.3-0.1-0.2-0.2-0.4-0.8-0.4-1.6-1-0.7-0.5-1.4-1.1-0.6-0.7-1.2-1.4-0.5-0.8-0.9-1.6-0.1-0.3-0.1-0.7 0-0.3 0-0.6 0-0.3 0-0.6 0-0.4 0.1-0.7-0.4-1.3-0.3-2.7 0-1.4 0.3-2.7 0.3-1.3 1-2.6 0.6-1.2 1.5-2.2 1.2-1.4 2.7-2.4 1.4-1 3.1-1.7 1.7-0.7 3.5-0.9 1.7-0.3 3.5-0.1h2.6l10.2 1.2 29.5 2.6q3.1 0.3 6.3 0.1 3.1-0.2 6.2-0.9 3.1-0.6 6-1.7 3-1.1 5.8-2.6l8.9-3.9c0.7-0.8 1.4-1.6 1.8-2.6 0.3-1 0.2-2-0.2-2.9-0.5-0.9-1.3-1.6-2.3-1.9-0.9-0.4-2-0.3-2.9 0.2l-9.2 4.7q-2.2 1.1-4.5 1.9-2.4 0.8-4.8 1.3-2.4 0.5-4.9 0.7-2.5 0.1-5-0.1l-23-2.5 41-42.3 19.2 12.8q5 3.6 10.5 6.4 5.5 2.8 11.4 4.7 5.8 2 11.9 3.1 6.1 1 12.2 1.2-0.2 0.1-0.3 0.2-0.2 0.2-0.4 0.3-0.1 0.2-0.3 0.4-0.1 0.2-0.2 0.4 0 0.7 0.3 1.4 0.2 0.7 0.8 1.3 0.5 0.5 1.2 0.8 0.7 0.3 1.5 0.3h9c0.7-0.1 1.4-0.3 1.9-0.7 0.6-0.5 1.1-1 1.3-1.7 0.3-0.7 0.4-1.4 0.2-2.1-0.1-0.7-0.4-1.4-0.9-1.9h5.1q0.4 0 0.8 0.1 0.3 0.1 0.6 0.3 0.4 0.2 0.7 0.4 0.3 0.2 0.5 0.5 0.3 0.2 0.5 0.5 0.2 0.3 0.4 0.6 0.2 0.4 0.3 0.7 0 0.4 0.1 0.7z"/><path class="i" d="m236.8 180.5h-9c-1 0.6-2 1-2.7 1.7-0.7 0.8-1.1 1.7-1.1 2.8 0 1 0.4 2 1.1 2.7 0.7 0.7 1.7 1.1 2.7 1.1l9 0.6c1-0.6 2-1 2.7-1.7 0.7-0.7 1.1-1.7 1.1-2.7 0-1.1-0.4-2-1.1-2.8-0.7-0.7-1.7-1.1-2.7-1.1zm0-19.2h-9c-1 0-2 0.4-2.7 1.1-0.7 0.8-1.1 1.7-1.1 2.8 0 1 0.4 2 1.1 2.7 0.7 0.7 1.7 1.1 2.7 1.1h9c1 0 2-0.4 2.7-1.1 0.7-0.7 1.1-1.7 1.1-2.7 0-1.1-0.4-2-1.1-2.8-0.7-0.7-1.7-1.1-2.7-1.1z"/></svg>