<?xml version="1.0" ?>
<svg xmlns="http://www.w3.org/2000/svg" version="1.1" width="256" height="256">
  <defs/>
  <g>
    <path d="M 110.96090698242188 32.69906234741211 C 105.08963775634766 33.99274444580078 101.3717041015625 38.75482940673828 97.6815414428711 42.40408706665039 C 97.0808334350586 42.867679595947266 96.5146713256836 42.893882751464844 93.0519790649414 50.697479248046875 C 90.17266082763672 58.138526916503906 92.51803588867188 54.83576965332031 88.23405456542969 58.694801330566406 C 84.64305877685547 59.16609573364258 88.99395751953125 59.470394134521484 85.76093292236328 59.90476608276367 C 56.09291458129883 79.36749267578125 52.79792022705078 96.8996810913086 46.28776931762695 105.30721282958984 C 42.39670944213867 104.53816223144531 33.823829650878906 96.24987030029297 31.400005340576172 93.52626037597656 C 23.92976951599121 84.88136291503906 24.046823501586914 78.20954895019531 17.682621002197266 78.87337493896484 C 14.467337608337402 79.84369659423828 10.20256233215332 92.16870880126953 8.264872550964355 95.6165771484375 C 2.348710298538208 107.3534927368164 2.336751937866211 108.88483428955078 0.2340661734342575 129.81460571289062 C -18.504974365234375 131.7506103515625 -14.719571113586426 137.718505859375 0.02655602991580963 151.4811248779297 C 1.3662946224212646 166.11842346191406 8.81360149383545 202.3768768310547 16.06085968017578 203.7683563232422 C 21.285194396972656 204.90635681152344 23.299726486206055 198.40106201171875 29.35684585571289 190.52719116210938 C 36.03654479980469 181.9131622314453 35.64051055908203 182.34689331054688 42.508270263671875 176.421630859375 C 49.02952194213867 196.7858428955078 59.813358306884766 213.20660400390625 75.34139251708984 225.811767578125 C 77.69762420654297 228.2143096923828 82.38424682617188 230.81239318847656 81.72480010986328 231.25425720214844 C 83.69618225097656 231.16891479492188 99.8449935913086 242.0474853515625 101.07342529296875 240.98934936523438 C 109.57028198242188 219.12025451660156 96.07716369628906 231.8291015625 95.8458251953125 235.58114624023438 C 96.68001556396484 240.74127197265625 102.92418670654297 242.21437072753906 108.49861907958984 244.05882263183594 C 121.6242904663086 250.12083435058594 153.2821044921875 250.85302734375 165.7240447998047 246.03280639648438 C 186.0525360107422 240.0227813720703 199.7362518310547 233.26361083984375 214.7903594970703 217.63571166992188 C 216.40684509277344 215.7645263671875 230.82984924316406 200.3907012939453 230.83609008789062 193.19390869140625 C 215.29510498046875 202.94869995117188 224.36880493164062 207.4676055908203 229.65684509277344 198.9560546875 C 233.37416076660156 189.4517059326172 238.25677490234375 181.5763397216797 234.78700256347656 185.28883361816406 C 235.27883911132812 188.94654846191406 238.19915771484375 178.12342834472656 240.7433624267578 168.3749542236328 C 235.17916870117188 185.86961364746094 239.09503173828125 161.31765747070312 236.00210571289062 179.86795043945312 C 245.4246063232422 166.21533203125 242.51248168945312 140.86395263671875 243.0574493408203 137.2377471923828 C 242.95819091796875 133.56878662109375 245.7910919189453 133.16102600097656 250.75106811523438 120.36798095703125 C 251.44972229003906 123.38294219970703 251.97158813476562 103.074951171875 258.51568603515625 102.42820739746094 C 253.20040893554688 108.96797943115234 263.03143310546875 98.6182632446289 251.05453491210938 95.27897644042969 C 249.64651489257812 79.28519439697266 239.64930725097656 64.57298278808594 221.4712677001953 69.88880157470703 C 214.40606689453125 72.5648422241211 214.5126953125 75.34356689453125 212.20655822753906 73.65332794189453 C 214.05125427246094 74.80000305175781 208.6943359375 69.78655242919922 206.63204956054688 68.20431518554688 C 200.12179565429688 63.487091064453125 204.29966735839844 66.40534973144531 204.05099487304688 55.7502555847168 C 206.0587615966797 49.81061553955078 203.244873046875 30.14712142944336 194.91847229003906 20.212753295898438 C 186.8911590576172 10.411591529846191 176.79428100585938 6.391712665557861 161.4929656982422 6.959292888641357 C 150.32354736328125 6.972954273223877 140.09539794921875 4.513035297393799 132.65756225585938 24.817407608032227 C 127.45657348632812 38.08793640136719 124.37635803222656 29.278263092041016 110.96090698242188 32.69906234741211" stroke-width="1.2799999713897705" fill="rgb(43, 12, 7)" opacity="0.8967732"/>
    <path d="M 235.64100646972656 141.1522216796875 C 215.04090881347656 147.14572143554688 210.33087158203125 133.19287109375 204.3187255859375 121.18744659423828 C 200.13809204101562 127.33434295654297 200.5897979736328 130.3964080810547 194.0540771484375 135.49696350097656 C 187.84657287597656 140.6748504638672 180.97964477539062 142.5992889404297 172.84445190429688 141.07156372070312 C 161.45687866210938 137.37847900390625 152.88125610351562 124.08116912841797 156.2216339111328 109.92900848388672 C 156.06124877929688 107.37681579589844 148.14707946777344 108.384765625 148.7079315185547 101.5402603149414 C 149.81663513183594 94.11000061035156 157.5454559326172 95.10931396484375 156.72792053222656 89.9287109375 C 155.13238525390625 88.5248794555664 157.0266571044922 94.46501159667969 158.08522033691406 87.85094451904297 C 166.0076904296875 69.3132553100586 185.38726806640625 63.63180160522461 194.9288787841797 70.9030532836914 C 202.54116821289062 74.16875457763672 203.3201904296875 88.692626953125 205.21702575683594 96.49571990966797 C 205.99034118652344 95.20262908935547 209.62380981445312 81.14608001708984 208.73316955566406 81.335205078125 C 211.2650604248047 80.48672485351562 197.5224151611328 70.82079315185547 198.12086486816406 70.73780822753906 C 188.31723022460938 63.55403518676758 174.93727111816406 57.31876754760742 164.7173614501953 54.60409164428711 C 160.69976806640625 62.13145446777344 160.10804748535156 55.837860107421875 150.0966339111328 62.97809600830078 C 148.5525665283203 63.25328826904297 146.9720916748047 68.0007095336914 142.60153198242188 68.01421356201172 C 135.2955780029297 62.6089973449707 152.53189086914062 54.20748519897461 157.25982666015625 52.76959991455078 C 152.24282836914062 52.58130645751953 142.81939697265625 51.18342971801758 139.46388244628906 51.580780029296875 C 127.293701171875 51.5516242980957 112.8907241821289 53.80882263183594 96.33928680419922 62.24773406982422 C 41.35248947143555 90.37431335449219 27.080759048461914 168.87753295898438 73.07445526123047 213.7788543701172 C 97.0481948852539 237.16973876953125 136.97335815429688 252.96368408203125 182.0401611328125 232.49916076660156 C 200.96231079101562 224.13433837890625 214.3760223388672 208.79348754882812 223.1765899658203 193.63438415527344 C 230.20220947265625 181.36422729492188 237.5671844482422 161.1419677734375 235.64100646972656 141.1522216796875" stroke-width="1.2799999713897705" fill="rgb(250, 187, 45)" opacity="0.989084"/>
    <path d="M 90.54729461669922 195.36549377441406 C 98.75260162353516 196.08303833007812 99.52015686035156 180.2982635498047 126.72633361816406 172.65496826171875 C 130.19837951660156 171.54254150390625 140.12408447265625 170.00660705566406 154.0894775390625 172.10787963867188 C 122.55604553222656 161.7255401611328 128.76658630371094 169.85873413085938 143.50823974609375 170.54600524902344 C 147.3031005859375 172.23422241210938 156.38299560546875 175.03350830078125 152.57395935058594 165.2039031982422 C 155.6993865966797 166.78018188476562 155.02615356445312 166.4452362060547 150.53573608398438 164.32557678222656 C 144.6279296875 157.5393524169922 136.69644165039062 145.28668212890625 133.3870849609375 136.51914978027344 C 129.2793731689453 126.7781982421875 127.02288055419922 115.80035400390625 128.10305786132812 108.06208801269531 C 128.10922241210938 100.51209259033203 128.77459716796875 103.09175109863281 125.55181121826172 99.66321563720703 C 127.53855895996094 100.06057739257812 120.70318603515625 98.679443359375 119.32325744628906 102.02961730957031 C 116.07034301757812 111.46395874023438 108.08342742919922 119.29366302490234 90.4636459350586 122.34497833251953 C 84.62195587158203 124.05187225341797 68.82476806640625 120.55777740478516 67.61536407470703 119.9157943725586 C 54.3410530090332 120.8446273803711 70.10066986083984 132.71902465820312 75.36329650878906 139.47657775878906 C 82.77588653564453 150.11814880371094 89.5517807006836 162.9764862060547 89.43875122070312 180.09230041503906 C 91.37857055664062 164.1728973388672 88.77101135253906 172.224609375 89.57817077636719 190.09469604492188 C 91.33073425292969 176.83531188964844 86.39256286621094 191.7953338623047 90.54729461669922 195.36549377441406" stroke-width="1.2799999713897705" fill="rgb(115, 74, 0)" opacity="0.95792663"/>
    <path d="M 17.10616111755371 193.57394409179688 C 20.362483978271484 191.67396545410156 26.267253875732422 182.12185668945312 28.341581344604492 180.4019775390625 C 44.38856887817383 162.35731506347656 40.43465805053711 175.33782958984375 39.41813278198242 156.4097900390625 C 37.96304702758789 149.4941864013672 40.1668815612793 147.80035400390625 37.29826736450195 145.85720825195312 C 36.1209716796875 146.3061981201172 25.847335815429688 155.28741455078125 23.53750228881836 152.9454345703125 C 22.538803100585938 148.61830139160156 32.74668884277344 143.43544006347656 36.498538970947266 141.01121520996094 C 40.563804626464844 141.02720642089844 38.709999084472656 134.4835662841797 38.3769645690918 138.7230682373047 C 40.456050872802734 133.47618103027344 37.61737060546875 138.54087829589844 28.833030700683594 134.35914611816406 C 25.625343322753906 133.83905029296875 21.648216247558594 132.42184448242188 20.703493118286133 129.328369140625 C 23.460939407348633 125.87529754638672 33.202579498291016 132.4325714111328 39.91469192504883 131.2503204345703 C 40.08560562133789 128.81138610839844 44.61812973022461 112.23930358886719 43.85282897949219 112.43315887451172 C 45.4007568359375 113.07831573486328 37.98395538330078 109.77824401855469 30.89080047607422 102.9200439453125 C 41.693946838378906 111.80915832519531 31.793670654296875 103.71075439453125 27.91947364807129 100.19229125976562 C 23.867170333862305 95.79158782958984 22.45404624938965 92.82540130615234 22.083648681640625 97.64090728759766 C 29.430917739868164 105.13027954101562 23.378196716308594 93.33848571777344 18.871017456054688 89.76045989990234 C 11.484947204589844 101.28995513916016 20.440717697143555 101.88739013671875 18.390050888061523 91.00265502929688 C 10.461004257202148 101.51497650146484 7.224694728851318 127.51618194580078 7.091486930847168 137.98748779296875 C 6.738392353057861 151.5196075439453 10.178759574890137 177.89427185058594 17.10616111755371 193.57394409179688" stroke-width="1.6383999586105347" fill="rgb(232, 74, 117)" opacity="0.98803365"/>
    <path d="M 162.7517852783203 92.96430969238281 C 170.2775115966797 99.67575073242188 161.55027770996094 100.02381896972656 156.81863403320312 99.69219207763672 C 167.4964141845703 103.9160385131836 162.21766662597656 95.35023498535156 154.96322631835938 101.15367889404297 C 159.3737335205078 105.46199035644531 195.38470458984375 109.84245300292969 202.34144592285156 104.28102111816406 C 199.39308166503906 100.61915588378906 197.08453369140625 104.57687377929688 195.8660125732422 98.3104476928711 C 201.49896240234375 89.5811538696289 190.25534057617188 90.33549499511719 191.60394287109375 101.1397933959961 C 200.6663360595703 97.99542236328125 198.9540252685547 90.48628997802734 194.9813690185547 93.28633117675781 C 197.8796844482422 95.37541961669922 191.72384643554688 89.71149444580078 197.9991912841797 96.60192108154297 C 198.26683044433594 86.98485565185547 194.71743774414062 75.81321716308594 189.61904907226562 75.19766998291016 C 177.78855895996094 70.81996154785156 165.634033203125 81.89117431640625 162.7517852783203 92.96430969238281" stroke-width="1.6383999586105347" fill="rgb(245, 217, 70)" opacity="0.98753935"/>
    <path d="M 174.17750549316406 134.9457550048828 C 191.80422973632812 136.5121307373047 176.87533569335938 127.7165756225586 174.7822265625 128.80564880371094 C 175.37742614746094 136.29139709472656 183.49366760253906 135.53114318847656 183.26519775390625 133.87094116210938 C 180.16488647460938 130.1835174560547 179.3795928955078 123.45709991455078 183.78379821777344 121.09701538085938 C 188.20413208007812 117.95794677734375 190.55296325683594 120.3917236328125 194.0628204345703 126.13201904296875 C 198.8631134033203 120.10401153564453 199.80873107910156 110.92247009277344 197.57754516601562 115.22647857666016 C 202.27906799316406 109.54459381103516 196.9676055908203 113.99465942382812 180.9632568359375 113.32442474365234 C 176.10569763183594 113.48658752441406 161.138427734375 109.61961364746094 163.329833984375 110.86526489257812 C 164.97689819335938 105.27529907226562 155.70425415039062 127.37409210205078 174.17750549316406 134.9457550048828" stroke-width="1.2799999713897705" fill="rgb(198, 202, 215)" opacity="0.98204756"/>
  </g>
</svg>
