<svg xmlns="http://www.w3.org/2000/svg" height="200" width="200" viewBox="0 0 200 200">  <path d="M 86 26 C 83 27 80 29 78 32 C 75 35 74 36 73 40 C 71 43 73 44 70 45 C 69 46 68 46 67 47 C 44 62 41 76 36 83 C 33 82 27 76 25 73 C 19 67 18 61 14 62 C 11 63 8 72 7 75 C 2 84 2 86 1 97 C 0 105 0 115 1 123 C 2 130 7 157 12 159 C 16 160 18 155 23 149 C 28 142 28 142 33 137 C 38 154 47 167 59 176 C 61 178 63 179 65 181 L 77 188 C 78 188 79 188 80 189 C 82 189 82 190 84 190 C 96 195 116 196 130 192 C 146 187 156 182 168 170 C 171 167 178 157 180 154 C 181 153 180 152 181 150 C 183 147 184 146 185 143 C 185 141 185 141 186 139 C 186 138 187 137 187 135 C 189 128 190 118 190 109 C 189 104 192 104 196 95 C 197 92 197 89 197 86 C 198 84 204 76 196 75 C 195 62 187 50 173 55 C 171 55 168 57 167 58 C 165 57 165 56 163 55 C 157 50 158 53 159 46 C 160 35 159 25 152 16 C 146 8 138 6 130 6 C 114 5 109 5 104 20 C 100 30 96 23 86 26 Z" fill="#030000"/>  <path d="M 184 110 C 168 115 165 104 160 94 C 157 97 157 101 151 106 C 147 110 141 111 135 110 C 126 108 120 97 122 85 C 120 84 116 84 116 79 C 117 75 121 74 122 72 C 123 70 123 69 124 68 C 130 55 144 50 152 55 C 159 60 158 69 160 76 C 161 74 164 64 163 63 C 163 61 155 55 153 54 C 144 48 139 46 128 42 C 127 47 126 44 119 48 C 115 49 114 54 111 53 C 106 49 119 43 123 41 C 122 41 115 40 113 40 C 99 40 88 42 75 48 C 32 71 21 132 57 167 C 76 185 107 198 142 182 C 157 175 168 163 174 152 C 180 142 186 125 184 110 Z" fill="#f9ba29"/>  <path d="M 71 152 C 77 152 77 141 98 135 C 101 134 106 133 109 133 C 111 133 113 133 114 134 C 117 135 121 135 120 131 C 119 128 119 130 116 127 C 112 122 107 114 104 107 C 101 100 99 91 100 83 C 100 79 100 80 98 78 L 94 79 C 91 87 84 93 72 96 C 62 98 54 94 52 94 C 44 95 55 104 59 109 C 65 118 69 127 70 138 C 70 140 70 143 70 145 C 70 148 69 150 71 152 Z" fill="#030000"/>  <path d="M 13 152 C 15 151 20 143 22 141 C 34 128 32 137 31 123 C 31 120 31 117 30 114 C 27 115 21 120 18 120 C 18 116 25 112 28 110 C 31 109 31 109 30 106 C 27 106 25 106 22 105 C 20 104 17 104 16 101 C 19 99 25 103 31 103 C 31 99 35 91 34 88 C 33 86 31 86 29 84 C 28 83 25 82 24 80 C 19 76 18 73 15 71 C 15 70 15 70 15 70 C 14 71 15 70 14 72 C 8 81 6 97 5 107 C 5 118 8 139 13 152 Z M 77 42 C 98 35 112 32 133 39 C 139 40 147 45 149 45 C 144 32 139 29 129 23 C 124 19 123 20 122 18 C 126 15 143 26 149 35 L 155 47 C 158 39 154 25 147 17 C 141 10 131 10 120 10 C 105 11 111 27 101 30 C 96 31 91 28 85 31 C 81 34 78 39 77 42 Z" fill="#e84570"/>  <path d="M 76 141 C 81 139 82 136 92 132 C 102 128 106 130 110 128 C 110 126 107 123 105 121 C 102 117 98 106 97 101 C 96 97 95 94 94 90 C 91 91 83 101 67 101 C 66 101 60 100 59 101 C 61 105 69 110 74 129 C 75 134 75 137 76 141 Z" fill="#da8f00"/>  <path d="M 127 73 C 129 74 129 74 129 77 C 126 79 126 75 121 79 C 125 83 153 86 158 81 C 156 79 154 81 154 78 C 153 76 154 77 155 75 C 155 75 155 76 155 74 C 155 73 155 72 155 72 C 154 66 153 60 148 59 C 139 56 130 63 127 73 Z M 165 77 L 171 78 C 173 84 166 81 163 82 C 164 84 163 83 165 84 C 172 86 191 85 193 81 C 192 79 185 80 191 75 C 189 68 187 56 176 59 C 170 61 168 63 167 67 C 167 69 165 76 165 77 Z" fill="#f4d842"/>  <path d="M 174 125 C 175 129 172 131 167 132 C 164 133 157 130 160 137 C 163 137 165 136 168 139 C 175 144 170 151 163 147 C 161 146 160 144 158 142 C 149 143 160 154 168 153 C 172 153 175 150 176 147 C 177 142 173 138 173 136 C 176 133 180 131 180 126 C 180 113 158 119 161 125 C 162 128 165 126 166 125 C 170 123 171 123 174 125 Z" fill="#030000"/>  <path d="M 182 94 C 180 94 175 94 173 94 C 170 94 167 93 164 92 C 168 103 174 111 184 104 C 180 98 182 100 182 94 Z" fill="#e4e9e1"/>  <path d="M 127 92 C 129 91 132 93 135 93 C 136 94 138 94 139 94 C 141 94 142 93 144 94 C 149 93 149 95 152 99 C 154 96 156 92 155 88 C 153 87 148 89 141 88 C 136 88 130 86 127 86 L 127 92 Z" fill="#a8a7ca"/>  <path d="M 144 94 C 142 93 141 94 139 94 C 138 94 136 94 135 93 C 132 93 129 91 127 92 C 128 102 135 108 143 105 C 141 101 140 97 144 94 Z" fill="#e4e9e1"/>  <path d="M 164 92 C 167 93 170 94 173 94 C 175 94 180 94 182 94 C 187 89 187 92 190 95 C 191 93 192 90 192 87 C 178 90 175 90 163 88 L 164 92 Z" fill="#a8a7ca"/>  <path d="M 175 37 C 176 42 181 35 190 43 C 191 44 192 46 194 46 C 201 44 185 31 177 34 C 175 34 174 35 175 37 Z" fill="#030000"/></svg>
