<?xml version="1.0" ?>
<svg xmlns="http://www.w3.org/2000/svg" xmlns:ev="http://www.w3.org/2001/xml-events" xmlns:xlink="http://www.w3.org/1999/xlink" baseProfile="full" height="564px" version="1.1" viewBox="-14.168208922891058 -8.01916427737871 229.06486483972296 215.2763290935748" width="600px">
	<defs/>
	<path d="M 184.0,110.0 C 168.0,115.0 165.0,104.0 160.0,94.0 C 157.0,97.0 157.0,101.0 151.0,106.0 C 147.0,110.0 141.0,111.0 135.0,110.0 C 126.0,108.0 120.0,97.0 122.0,85.0 C 120.0,84.0 116.0,84.0 116.0,79.0 C 117.0,75.0 121.0,74.0 122.0,72.0 C 123.0,70.0 123.0,69.0 124.0,68.0 C 130.0,55.0 144.0,50.0 152.0,55.0 C 159.0,60.0 158.0,69.0 160.0,76.0 C 161.0,74.0 164.0,64.0 163.0,63.0 C 163.0,61.0 155.0,55.0 153.0,54.0 C 144.0,48.0 139.0,46.0 128.0,42.0 C 127.0,47.0 126.0,44.0 119.0,48.0 C 115.0,49.0 114.0,54.0 111.0,53.0 C 106.0,49.0 119.0,43.0 123.0,41.0 C 122.0,41.0 115.0,40.0 113.0,40.0 C 99.0,40.0 88.0,42.0 75.0,48.0 C 32.0,71.0 21.0,132.0 57.0,167.0 C 76.0,185.0 107.0,198.0 142.0,182.0 C 157.0,175.0 168.0,163.0 174.0,152.0 C 180.0,142.0 186.0,125.0 184.0,110.0" fill="#f9ba29"/>
	<path d="M 13.0,152.0 C 15.0,151.0 20.0,143.0 22.0,141.0 C 34.0,128.0 32.0,137.0 31.0,123.0 C 31.0,120.0 31.0,117.0 30.0,114.0 C 27.0,115.0 21.0,120.0 18.0,120.0 C 18.0,116.0 25.0,112.0 28.0,110.0 C 31.0,109.0 31.0,109.0 30.0,106.0 C 27.0,106.0 25.0,106.0 22.0,105.0 C 20.0,104.0 17.0,104.0 16.0,101.0 C 19.0,99.0 25.0,103.0 31.0,103.0 C 31.0,99.0 35.0,91.0 34.0,88.0 C 33.0,86.0 31.0,86.0 29.0,84.0 C 28.0,83.0 25.0,82.0 24.0,80.0 C 19.0,76.0 18.0,73.0 15.0,71.0 C 15.0,70.0 15.0,70.0 15.0,70.0 C 14.0,71.0 15.0,70.0 14.0,72.0 C 8.0,81.0 6.0,97.0 5.0,107.0 C 5.0,118.0 8.0,139.0 13.0,152.0" fill="#e84570"/>
	<path d="M 77.0,42.0 C 98.0,35.0 112.0,32.0 133.0,39.0 C 139.0,40.0 147.0,45.0 149.0,45.0 C 144.0,32.0 139.0,29.0 129.0,23.0 C 124.0,19.0 123.0,20.0 122.0,18.0 C 126.0,15.0 143.0,26.0 149.0,35.0 C 149.0,35.0 155.0,47.0 155.0,47.0 C 158.0,39.0 154.0,25.0 147.0,17.0 C 141.0,10.0 131.0,10.0 120.0,10.0 C 105.0,11.0 111.0,27.0 101.0,30.0 C 96.0,31.0 91.0,28.0 85.0,31.0 C 81.0,34.0 78.0,39.0 77.0,42.0" fill="#e84570"/>
	<path d="M 76.0,141.0 C 81.0,139.0 82.0,136.0 92.0,132.0 C 102.0,128.0 106.0,130.0 110.0,128.0 C 110.0,126.0 107.0,123.0 105.0,121.0 C 102.0,117.0 98.0,106.0 97.0,101.0 C 96.0,97.0 95.0,94.0 94.0,90.0 C 91.0,91.0 83.0,101.0 67.0,101.0 C 66.0,101.0 60.0,100.0 59.0,101.0 C 61.0,105.0 69.0,110.0 74.0,129.0 C 75.0,134.0 75.0,137.0 76.0,141.0" fill="#da8f00"/>
	<path d="M 127.0,73.0 C 129.0,74.0 129.0,74.0 129.0,77.0 C 126.0,79.0 126.0,75.0 121.0,79.0 C 125.0,83.0 153.0,86.0 158.0,81.0 C 156.0,79.0 154.0,81.0 154.0,78.0 C 153.0,76.0 154.0,77.0 155.0,75.0 C 155.0,75.0 155.0,76.0 155.0,74.0 C 155.0,73.0 155.0,72.0 155.0,72.0 C 154.0,66.0 153.0,60.0 148.0,59.0 C 139.0,56.0 130.0,63.0 127.0,73.0" fill="#f4d842"/>
	<path d="M 165.0,77.0 C 165.0,77.0 171.0,78.0 171.0,78.0 C 173.0,84.0 166.0,81.0 163.0,82.0 C 164.0,84.0 163.0,83.0 165.0,84.0 C 172.0,86.0 191.0,85.0 193.0,81.0 C 192.0,79.0 185.0,80.0 191.0,75.0 C 189.0,68.0 187.0,56.0 176.0,59.0 C 170.0,61.0 168.0,63.0 167.0,67.0 C 167.0,69.0 165.0,76.0 165.0,77.0" fill="#f4d842"/>
	<path d="M 182.0,94.0 C 180.0,94.0 175.0,94.0 173.0,94.0 C 170.0,94.0 167.0,93.0 164.0,92.0 C 168.0,103.0 174.0,111.0 184.0,104.0 C 180.0,98.0 182.0,100.0 182.0,94.0" fill="#e4e9e1"/>
	<path d="M 127.0,92.0 C 129.0,91.0 132.0,93.0 135.0,93.0 C 136.0,94.0 138.0,94.0 139.0,94.0 C 141.0,94.0 142.0,93.0 144.0,94.0 C 149.0,93.0 149.0,95.0 152.0,99.0 C 154.0,96.0 156.0,92.0 155.0,88.0 C 153.0,87.0 148.0,89.0 141.0,88.0 C 136.0,88.0 130.0,86.0 127.0,86.0 C 127.0,86.0 127.0,92.0 127.0,92.0" fill="#a8a7ca"/>
	<path d="M 144.0,94.0 C 142.0,93.0 141.0,94.0 139.0,94.0 C 138.0,94.0 136.0,94.0 135.0,93.0 C 132.0,93.0 129.0,91.0 127.0,92.0 C 128.0,102.0 135.0,108.0 143.0,105.0 C 141.0,101.0 140.0,97.0 144.0,94.0" fill="#e4e9e1"/>
	<path d="M 164.0,92.0 C 167.0,93.0 170.0,94.0 173.0,94.0 C 175.0,94.0 180.0,94.0 182.0,94.0 C 187.0,89.0 187.0,92.0 190.0,95.0 C 191.0,93.0 192.0,90.0 192.0,87.0 C 178.0,90.0 175.0,90.0 163.0,88.0 C 163.0,88.0 164.0,92.0 164.0,92.0" fill="#a8a7ca"/>
	<path d="M 175.0,37.0 C 176.0,42.0 181.0,35.0 190.0,43.0 C 191.0,44.0 192.0,46.0 194.0,46.0 C 201.0,44.0 185.0,31.0 177.0,34.0 C 175.0,34.0 174.0,35.0 175.0,37.0" fill="#030000"/>
</svg>
