<?xml version="1.0" encoding="utf-8" ?>
<svg baseProfile="tiny" height="200" version="1.2" viewBox="0 0 200 200" width="200" xmlns="http://www.w3.org/2000/svg" xmlns:ev="http://www.w3.org/2001/xml-events" xmlns:xlink="http://www.w3.org/1999/xlink"><defs /><path d="M 111.0,55.0 C 111.0,55.0 132.0,71.0 132.0,71.0 C 136.0,74.0 138.0,79.0 137.0,84.0 C 137.0,84.0 129.0,119.0 129.0,119.0 C 129.0,119.0 114.0,123.0 109.0,108.0 C 107.0,98.0 113.0,86.0 113.0,86.0 C 113.0,86.0 94.0,73.0 94.0,73.0 C 94.0,73.0 111.0,55.0 111.0,55.0" fill="#FFCBB6" /><path d="M 127.0,42.0 C 127.0,42.0 148.0,58.0 148.0,58.0 C 152.0,61.0 154.0,66.0 153.0,71.0 C 153.0,71.0 144.0,107.0 144.0,107.0 C 144.0,107.0 129.0,111.0 124.0,96.0 C 122.0,86.0 128.0,73.0 128.0,73.0 C 128.0,73.0 109.0,61.0 109.0,61.0 C 109.0,61.0 127.0,42.0 127.0,42.0" fill="#FFDCCE" /><path d="M 196.0,26.0 C 196.0,26.0 165.0,17.0 165.0,17.0 C 165.0,17.0 121.0,14.0 121.0,14.0 C 121.0,14.0 55.0,48.0 55.0,48.0 C 55.0,48.0 41.0,117.0 41.0,117.0 C 41.0,117.0 3.0,130.0 3.0,130.0 C 3.0,130.0 3.0,186.0 3.0,186.0 C 3.0,186.0 28.0,186.0 28.0,186.0 C 28.0,186.0 119.0,177.0 119.0,177.0 C 119.0,177.0 150.0,145.0 150.0,145.0 C 150.0,145.0 190.0,127.0 190.0,127.0 C 190.0,127.0 190.0,112.0 172.0,108.0 C 157.0,105.0 122.0,127.0 122.0,127.0 C 122.0,127.0 97.0,105.0 97.0,105.0 C 97.0,105.0 102.0,64.0 102.0,64.0 C 102.0,64.0 134.0,39.0 134.0,39.0 C 134.0,39.0 162.0,39.0 162.0,39.0 C 162.0,39.0 187.0,42.0 193.0,39.0 C 199.0,36.0 196.0,26.0 196.0,26.0" fill="#FFEEE7" /><path d="M 187.0,118.0 C 187.0,118.0 147.0,137.0 147.0,137.0 C 147.0,137.0 116.0,168.0 116.0,168.0 C 116.0,168.0 25.0,177.0 25.0,177.0 C 25.0,177.0 3.0,177.0 3.0,177.0 C 3.0,177.0 3.0,186.0 3.0,186.0 C 3.0,186.0 28.0,186.0 28.0,186.0 C 28.0,186.0 119.0,177.0 119.0,177.0 C 119.0,177.0 150.0,145.0 150.0,145.0 C 150.0,145.0 190.0,127.0 190.0,127.0 C 190.0,127.0 190.0,122.0 187.0,117.0 C 187.0,117.0 187.0,118.0 187.0,118.0" fill="#FFCBB6" /><path d="M 196.0,26.0 C 196.0,26.0 194.0,26.0 194.0,26.0 C 193.0,27.0 192.0,29.0 190.0,30.0 C 184.0,33.0 159.0,30.0 159.0,30.0 C 159.0,30.0 131.0,30.0 131.0,30.0 C 131.0,30.0 99.0,55.0 99.0,55.0 C 99.0,55.0 98.0,99.0 98.0,99.0 C 98.0,99.0 102.0,64.0 102.0,64.0 C 102.0,64.0 134.0,39.0 134.0,39.0 C 134.0,39.0 162.0,39.0 162.0,39.0 C 162.0,39.0 187.0,42.0 193.0,39.0 C 199.0,36.0 196.0,26.0 196.0,26.0" fill="#FFCBB6" /><path d="M 163.0,58.0 C 143.0,35.0 125.0,58.0 134.0,76.0 C 143.0,94.0 163.0,101.0 163.0,101.0 C 163.0,101.0 184.0,94.0 193.0,76.0 C 202.0,58.0 184.0,35.0 163.0,58.0" fill="#FF97A4" /><path d="M 143.0,73.0 C 139.0,64.0 141.0,53.0 147.0,48.0 C 135.0,48.0 127.0,63.0 134.0,76.0 C 143.0,94.0 163.0,101.0 163.0,101.0 C 163.0,101.0 167.0,100.0 171.0,97.0 C 166.0,95.0 151.0,88.0 143.0,73.0" fill="#FF7D8D" /></svg>