<?xml version="1.0" ?>
<svg xmlns="http://www.w3.org/2000/svg" version="1.1" width="512" height="512">
  <defs/>
  <g>
    <path d="M 284.1600036621094 140.8000030517578 C 284.1600036621094 140.8000030517578 337.91998291015625 181.75999450683594 337.91998291015625 181.75999450683594 C 348.1600036621094 189.44000244140625 353.2799987792969 202.239990234375 350.7200012207031 215.0399932861328 C 350.7200012207031 215.0399932861328 330.239990234375 304.6399841308594 330.239990234375 304.6399841308594 C 330.239990234375 304.6399841308594 291.8399963378906 314.8800048828125 279.0400085449219 276.47998046875 C 273.91998291015625 250.87998962402344 289.2799987792969 220.1599884033203 289.2799987792969 220.1599884033203 C 289.2799987792969 220.1599884033203 240.63999938964844 186.87998962402344 240.63999938964844 186.87998962402344 C 240.63999938964844 186.87998962402344 284.1600036621094 140.8000030517578 284.1600036621094 140.8000030517578" stroke-width="2.559999942779541" fill="rgb(253, 198, 178)" opacity="1.0"/>
    <path d="M 325.1199951171875 107.5199966430664 C 325.1199951171875 107.5199966430664 378.8800048828125 148.47999572753906 378.8800048828125 148.47999572753906 C 389.1199951171875 156.16000366210938 394.239990234375 168.95999145507812 391.67999267578125 181.75999450683594 C 391.67999267578125 181.75999450683594 368.6399841308594 273.91998291015625 368.6399841308594 273.91998291015625 C 368.6399841308594 273.91998291015625 330.239990234375 284.1600036621094 317.44000244140625 245.75999450683594 C 312.32000732421875 220.1599884033203 327.67999267578125 186.87998962402344 327.67999267578125 186.87998962402344 C 327.67999267578125 186.87998962402344 279.0400085449219 156.16000366210938 279.0400085449219 156.16000366210938 C 279.0400085449219 156.16000366210938 325.1199951171875 107.5199966430664 325.1199951171875 107.5199966430664" stroke-width="2.559999942779541" fill="rgb(250, 215, 200)" opacity="1.0"/>
    <path d="M 501.7599792480469 66.55999755859375 C 501.7599792480469 66.55999755859375 422.3999938964844 43.52000045776367 422.3999938964844 43.52000045776367 C 422.3999938964844 43.52000045776367 309.7599792480469 35.84000015258789 309.7599792480469 35.84000015258789 C 309.7599792480469 35.84000015258789 140.8000030517578 122.87999725341797 140.8000030517578 122.87999725341797 C 140.8000030517578 122.87999725341797 104.95999908447266 299.5199890136719 104.95999908447266 299.5199890136719 C 104.95999908447266 299.5199890136719 7.679999828338623 332.79998779296875 7.679999828338623 332.79998779296875 C 7.679999828338623 332.79998779296875 7.679999828338623 476.1600036621094 7.679999828338623 476.1600036621094 C 7.679999828338623 476.1600036621094 71.68000030517578 476.1600036621094 71.68000030517578 476.1600036621094 C 71.68000030517578 476.1600036621094 304.6399841308594 453.1199951171875 304.6399841308594 453.1199951171875 C 304.6399841308594 453.1199951171875 384.0 371.1999816894531 384.0 371.1999816894531 C 384.0 371.1999816894531 486.3999938964844 325.1199951171875 486.3999938964844 325.1199951171875 C 486.3999938964844 325.1199951171875 486.3999938964844 286.7200012207031 440.3199768066406 276.47998046875 C 401.91998291015625 268.79998779296875 312.32000732421875 325.1199951171875 312.32000732421875 325.1199951171875 C 312.32000732421875 325.1199951171875 248.3199920654297 268.79998779296875 248.3199920654297 268.79998779296875 C 248.3199920654297 268.79998779296875 261.1199951171875 163.83999633789062 261.1199951171875 163.83999633789062 C 261.1199951171875 163.83999633789062 343.03997802734375 99.83999633789062 343.03997802734375 99.83999633789062 C 343.03997802734375 99.83999633789062 414.7200012207031 99.83999633789062 414.7200012207031 99.83999633789062 C 414.7200012207031 99.83999633789062 478.7200012207031 107.5199966430664 494.0799865722656 99.83999633789062 C 509.44000244140625 92.15999603271484 501.7599792480469 66.55999755859375 501.7599792480469 66.55999755859375" stroke-width="2.559999942779541" fill="rgb(253, 235, 230)" opacity="1.0"/>
    <path d="M 478.7200012207031 302.0799865722656 C 478.7200012207031 302.0799865722656 376.3199768066406 350.7200012207031 376.3199768066406 350.7200012207031 C 376.3199768066406 350.7200012207031 296.9599914550781 430.0799865722656 296.9599914550781 430.0799865722656 C 296.9599914550781 430.0799865722656 64.0 453.1199951171875 64.0 453.1199951171875 C 64.0 453.1199951171875 7.679999828338623 453.1199951171875 7.679999828338623 453.1199951171875 C 7.679999828338623 453.1199951171875 7.679999828338623 476.1600036621094 7.679999828338623 476.1600036621094 C 7.679999828338623 476.1600036621094 71.68000030517578 476.1600036621094 71.68000030517578 476.1600036621094 C 71.68000030517578 476.1600036621094 304.6399841308594 453.1199951171875 304.6399841308594 453.1199951171875 C 304.6399841308594 453.1199951171875 384.0 371.1999816894531 384.0 371.1999816894531 C 384.0 371.1999816894531 486.3999938964844 325.1199951171875 486.3999938964844 325.1199951171875 C 486.3999938964844 325.1199951171875 486.3999938964844 312.32000732421875 478.7200012207031 299.5199890136719 C 478.7200012207031 299.5199890136719 478.7200012207031 302.0799865722656 478.7200012207031 302.0799865722656" stroke-width="2.559999942779541" fill="rgb(252, 196, 176)" opacity="0.9472389"/>
    <path d="M 501.7599792480469 66.55999755859375 C 501.7599792480469 66.55999755859375 496.6399841308594 66.55999755859375 496.6399841308594 66.55999755859375 C 494.0799865722656 69.1199951171875 491.5199890136719 74.23999786376953 486.3999938964844 76.79999542236328 C 471.03997802734375 84.47999572753906 407.03997802734375 76.79999542236328 407.03997802734375 76.79999542236328 C 407.03997802734375 76.79999542236328 335.3599853515625 76.79999542236328 335.3599853515625 76.79999542236328 C 335.3599853515625 76.79999542236328 253.4399871826172 140.8000030517578 253.4399871826172 140.8000030517578 C 253.4399871826172 140.8000030517578 250.87998962402344 253.4399871826172 250.87998962402344 253.4399871826172 C 250.87998962402344 253.4399871826172 261.1199951171875 163.83999633789062 261.1199951171875 163.83999633789062 C 261.1199951171875 163.83999633789062 343.03997802734375 99.83999633789062 343.03997802734375 99.83999633789062 C 343.03997802734375 99.83999633789062 414.7200012207031 99.83999633789062 414.7200012207031 99.83999633789062 C 414.7200012207031 99.83999633789062 478.7200012207031 107.5199966430664 494.0799865722656 99.83999633789062 C 509.44000244140625 92.15999603271484 501.7599792480469 66.55999755859375 501.7599792480469 66.55999755859375" stroke-width="2.559999942779541" fill="rgb(252, 198, 179)" opacity="1.0"/>
    <path d="M 417.2799987792969 148.47999572753906 C 366.0799865722656 89.5999984741211 320.0 148.47999572753906 343.03997802734375 194.55999755859375 C 366.0799865722656 240.63999938964844 417.2799987792969 258.55999755859375 417.2799987792969 258.55999755859375 C 417.2799987792969 258.55999755859375 471.03997802734375 240.63999938964844 494.0799865722656 194.55999755859375 C 517.1199951171875 148.47999572753906 471.03997802734375 89.5999984741211 417.2799987792969 148.47999572753906" stroke-width="2.559999942779541" fill="rgb(13, 243, 13)" opacity="0.9970972"/>
    <path d="M 366.0799865722656 186.87998962402344 C 355.8399963378906 163.83999633789062 360.9599914550781 135.67999267578125 376.3199768066406 122.87999725341797 C 345.6000061035156 122.87999725341797 325.1199951171875 161.27999877929688 343.03997802734375 194.55999755859375 C 366.0799865722656 240.63999938964844 417.2799987792969 258.55999755859375 417.2799987792969 258.55999755859375 C 417.2799987792969 258.55999755859375 427.5199890136719 256.0 437.7599792480469 248.3199920654297 C 424.9599914550781 243.1999969482422 386.55999755859375 225.27999877929688 366.0799865722656 186.87998962402344" stroke-width="2.559999942779541" fill="rgb(10, 221, 7)" opacity="1.0"/>
  </g>
</svg>
