<?xml version="1.0" ?>
<svg xmlns="http://www.w3.org/2000/svg" version="1.1" width="256" height="256">
  <defs/>
  <g>
    <path d="M 139.09088134765625 67.4026870727539 L 171.81919860839844 87.98900604248047 C 174.0800018310547 94.72000122070312 176.63999938964844 101.1199951171875 175.79486083984375 107.84556579589844 L 165.12266540527344 151.7583465576172 C 167.50572204589844 153.6866455078125 144.60336303710938 158.47535705566406 139.5365753173828 137.7535400390625 C 136.1378936767578 127.39997863769531 143.69174194335938 108.0661849975586 143.87530517578125 110.3917007446289 L 119.40741729736328 93.65733337402344 L 139.09088134765625 67.4026870727539" stroke-width="1.2799999713897705" fill="rgb(251, 197, 177)" opacity="1.0"/>
    <path d="M 161.98123168945312 52.88962936401367 L 189.6863250732422 74.04314422607422 C 194.55999755859375 78.08000183105469 197.1199951171875 84.47999572753906 196.28396606445312 91.25553894042969 L 185.28990173339844 135.89483642578125 C 186.97682189941406 137.56521606445312 164.22747802734375 142.20909118652344 159.5845947265625 123.5407485961914 C 155.19161987304688 113.6419677734375 163.86471557617188 92.9918441772461 164.18040466308594 93.9009780883789 L 136.27346801757812 75.46035766601562 L 161.98123168945312 52.88962936401367" stroke-width="1.2799999713897705" fill="rgb(252, 214, 201)" opacity="1.0"/>
    <path d="M 251.26034545898438 33.43324661254883 L 211.30845642089844 21.436256408691406 L 154.91262817382812 17.32234001159668 L 70.56226348876953 61.528751373291016 L 51.53899383544922 149.6096649169922 L 3.396397113800049 165.88131713867188 L 3.3757240772247314 238.63792419433594 L 35.9953498840332 238.4747314453125 L 152.25912475585938 226.20448303222656 L 192.41131591796875 185.71803283691406 L 243.47006225585938 161.7455596923828 C 242.90223693847656 161.39601135253906 244.37762451171875 142.516845703125 220.100341796875 137.5629425048828 C 200.29273986816406 133.59231567382812 156.04515075683594 162.25465393066406 155.9334259033203 161.43603515625 L 124.55366516113281 134.00172424316406 L 129.13079833984375 80.02436828613281 L 170.14222717285156 47.44730758666992 L 210.73060607910156 48.334285736083984 C 204.9276123046875 52.457584381103516 236.2108612060547 52.433563232421875 246.8801727294922 49.29436492919922 C 254.88986206054688 45.21162796020508 251.44369506835938 32.06425094604492 251.26034545898438 33.43324661254883" stroke-width="1.2799999713897705" fill="rgb(252, 234, 229)" opacity="1.0"/>
    <path d="M 238.86802673339844 150.9021759033203 L 188.29208374023438 174.596435546875 L 148.01524353027344 214.7953338623047 L 32.18991470336914 226.7877960205078 L 3.3798160552978516 226.7676544189453 L 3.3150482177734375 238.7315216064453 L 36.25829315185547 238.62867736816406 L 152.341552734375 226.57852172851562 L 192.92918395996094 186.11912536621094 L 243.8119354248047 162.31234741210938 C 244.08123779296875 161.47462463378906 243.23231506347656 156.40509033203125 240.143798828125 150.01499938964844 C 234.28530883789062 149.5087432861328 234.20941162109375 144.69375610351562 238.86802673339844 150.9021759033203" stroke-width="1.2799999713897705" fill="rgb(248, 195, 176)" opacity="1.0"/>
    <path d="M 250.8640594482422 33.959415435791016 L 244.6517791748047 30.680999755859375 C 248.50155639648438 34.455379486083984 247.008544921875 35.53652572631836 243.10472106933594 38.65422439575195 C 231.6177215576172 42.57398223876953 204.85501098632812 38.23531723022461 202.4398193359375 38.44694900512695 L 167.0789031982422 38.45738983154297 L 126.87586212158203 70.6478271484375 L 124.76573181152344 130.927490234375 L 131.49366760253906 83.2978515625 L 171.2701416015625 50.21830368041992 L 200.48641967773438 50.196468353271484 C 213.24044799804688 49.8641242980957 240.7761688232422 54.732887268066406 247.38125610351562 50.28312683105469 C 256.04986572265625 45.67219543457031 251.7550048828125 31.31439781188965 250.8640594482422 33.959415435791016" stroke-width="1.2799999713897705" fill="rgb(248, 196, 176)" opacity="1.0"/>
    <path d="M 208.72715759277344 73.43113708496094 C 183.7775115966797 44.677547454833984 160.6207275390625 73.71698760986328 170.94618225097656 96.14219665527344 C 184.83697509765625 122.68148803710938 206.61341857910156 128.694580078125 208.6565704345703 129.69253540039062 C 209.22097778320312 129.68524169921875 235.8158416748047 120.84134674072266 247.40182495117188 96.79444885253906 C 258.45037841796875 75.45489501953125 236.1139373779297 43.562583923339844 208.72715759277344 73.43113708496094" stroke-width="1.2799999713897705" fill="rgb(14, 240, 14)" opacity="1.0"/>
    <path d="M 185.3668975830078 96.78385162353516 C 183.1783447265625 99.38734436035156 172.2547149658203 71.82362365722656 189.1512451171875 61.24568557739258 C 172.391845703125 59.43507385253906 161.9000701904297 81.31816101074219 171.36537170410156 98.0639419555664 C 181.4888153076172 118.75270080566406 209.08924865722656 131.3115997314453 209.77734375 129.3455047607422 C 207.7442169189453 128.67343139648438 216.38134765625 128.69786071777344 224.29966735839844 121.77978515625 C 213.0462646484375 125.94406127929688 193.49514770507812 111.36502838134766 185.3668975830078 96.78385162353516" stroke-width="1.2799999713897705" fill="rgb(11, 207, 5)" opacity="0.63102263"/>
  </g>
</svg>
