<svg xmlns="http://www.w3.org/2000/svg" height="200" width="200" viewBox="0 0 200 200"> 
<path d="M 111 55 L 132 71 C 136 74 138 79 137 84 L 129 119 C 129 119 114 123 109 108 C 107 98 113 86 113 86 L 94 73 L 111 55 Z" fill="#FFCBB6"/>  

<path d="M 127 42 L 148 58 C 152 61 154 66 153 71 L 144 107 C 144 107 129 111 124 96 C 122 86 128 73 128 73 L 109 61 L 127 42 Z" fill="#FFDCCE"/>  

<path d="M 196 26 L 165 17 L 121 14 L 55 48 L 41 117 L 3 130 L 3 186 L 28 186 L 119 177 L 150 145 L 190 127 C 190 127 190 112 172 108 C 157 105 122 127 122 127 L 97 105 L 102 64 L 134 39 L 162 39 C 162 39 187 42 193 39 C 199 36 196 26 196 26 Z" fill="#FFEEE7"/>  

<path d="M 187 118 L 147 137 L 116 168 L 25 177 L 3 177 L 3 186 L 28 186 L 119 177 L 150 145 L 190 127 C 190 127 190 122 187 117 C 187 117 187 118 187 118 Z" fill="#FFCBB6"/>  

<path d="M 196 26 L 194 26 C 193 27 192 29 190 30 C 184 33 159 30 159 30 L 131 30 L 99 55 L 98 
99 L 102 64 L 134 39 L 162 39 C 162 39 187 42 193 39 C 199 36 196 26 196 26 Z" fill="#FFCBB6"/>  

<path d="M 163 58 C 143 35 125 58 134 76 C 143 94 163 101 163 101 C 163 101 184 94 193 76 C 202 58 184 35 163 58 Z" fill="#FF97A4"/>  

<path d="M 143 73 C 139 64 141 53 147 48 C 135 48 127 63 134 76 C 143 94 163 101 163 101 C 163 101 167 100 171 97 C 166 95 151 88 143 73 Z" fill="#FF7D8D"/>
</svg>
