<?xml version="1.0" ?>
<svg xmlns="http://www.w3.org/2000/svg" version="1.1" width="200" height="200">
  <defs/>
  <g>
    <path d="M 91.0 39.0 C 105.0 36.0 120.0 39.0 131.0 48.0 C 142.80638122558594 57.44038009643555 149.47584533691406 71.8908920288086 149.0 87.0 C 148.37933349609375 101.75308227539062 141.00289916992188 115.39947509765625 129.0 124.0 C 125.37921905517578 126.51709747314453 123.1559829711914 130.593017578125 123.0 135.0 C 123.0 135.0 123.0 142.0 123.0 142.0 C 123.0 142.0 121.0 145.0 121.0 145.0 C 121.0 145.0 119.0 145.0 119.0 145.0 C 119.0 145.0 84.0 152.0 84.0 152.0 C 84.0 152.0 84.0 152.0 84.0 152.0 C 81.0 152.0 79.0 150.0 79.0 148.0 C 79.0 146.0 81.0 144.0 83.0 143.0 C 83.0 143.0 114.0 138.0 114.0 138.0 C 114.0 138.0 114.0 135.0 114.0 135.0 C 114.14640045166016 127.71409606933594 117.89119720458984 120.97346496582031 124.0 117.0 C 133.64102172851562 109.9734878540039 139.53578186035156 98.92081451416016 140.0 87.0 C 140.63768005371094 74.72297668457031 135.44935607910156 62.86394500732422 126.0 55.0 C 116.79911041259766 47.43332290649414 104.6445083618164 44.486751556396484 93.0 47.0 C 76.36986541748047 50.3815803527832 63.83537673950195 64.12908172607422 62.0 81.0 C 60.39645004272461 97.33413696289062 69.19088745117188 112.92428588867188 84.0 120.0 C 86.20913696289062 121.10456848144531 87.10456848144531 123.79086303710938 86.0 126.0 C 84.89543151855469 128.20913696289062 82.20913696289062 129.1045684814453 80.0 128.0 C 62.0 119.0 51.0 100.0 54.0 80.0 C 56.448890686035156 59.896270751953125 71.25224304199219 43.4925537109375 91.0 39.0" stroke-width="5.0" fill="rgb(255, 1, 1)" opacity="1.0"/>
    <path d="M 81.0 163.0 C 81.0 165.0 82.0 166.0 84.0 166.0 C 84.0 166.0 84.0 166.0 85.0 166.0 C 85.0 166.0 85.0 166.0 85.0 166.0 C 85.0 166.0 119.0 160.0 119.0 160.0 C 120.81279754638672 159.53292846679688 122.0592041015625 157.87106323242188 122.0 156.0 C 121.65638732910156 154.50836181640625 120.49163818359375 153.34361267089844 119.0 153.0 C 119.0 153.0 118.0 153.0 118.0 153.0 C 118.0 153.0 118.0 153.0 118.0 153.0 C 118.0 153.0 84.0 159.0 84.0 159.0 C 84.0 159.0 84.0 159.0 84.0 159.0 C 82.18720245361328 159.46707153320312 80.9407958984375 161.12893676757812 81.0 163.0" stroke-width="5.0" fill="rgb(0, 91, 255)" opacity="1.0"/>
    <path d="M 89.0 181.0 C 92.0 183.0 95.0 183.0 98.0 183.0 C 102.0 183.0 105.0 182.0 108.0 181.0 C 108.0 181.0 108.0 181.0 108.0 181.0 C 108.0 181.0 108.0 181.0 108.0 181.0 C 109.26026153564453 180.5568389892578 110.07564544677734 179.33375549316406 110.0 178.0 C 110.07564544677734 176.66624450683594 109.26026153564453 175.4431610107422 108.0 175.0 C 107.48711395263672 174.42138671875 106.77062225341797 174.06314086914062 106.0 174.0 C 105.59173583984375 174.24888610839844 105.2488784790039 174.59173583984375 105.0 175.0 C 105.0 175.0 105.0 175.0 105.0 175.0 C 105.0 175.0 105.0 175.0 105.0 175.0 C 103.0 176.0 100.0 177.0 98.0 177.0 C 98.0 177.0 97.0 177.0 97.0 177.0 C 97.0 177.0 97.0 176.0 97.0 176.0 C 96.0 176.0 96.0 176.0 96.0 176.0 C 96.0 176.0 95.0 176.0 95.0 176.0 C 94.3077392578125 175.72052001953125 93.6389389038086 175.38612365722656 93.0 175.0 C 93.0 175.0 92.0 175.0 92.0 175.0 C 90.45975494384766 174.389404296875 88.7161636352539 175.14303588867188 88.10557556152344 176.68328857421875 C 88.06452941894531 176.7868194580078 88.02928161621094 176.89254760742188 88.0 177.0 C 87.21912384033203 178.387451171875 87.65807342529297 180.14324951171875 89.0 181.0" stroke-width="5.0" fill="rgb(255, 1, 1)" opacity="1.0"/>
    <path d="M 81.0 163.0 C 81.0 165.0 82.0 166.0 84.0 166.0 C 84.0 166.0 84.0 166.0 85.0 166.0 C 85.0 166.0 85.0 166.0 85.0 166.0 C 85.0 166.0 119.0 160.0 119.0 160.0 C 120.81279754638672 159.53292846679688 122.0592041015625 157.87106323242188 122.0 156.0 C 121.65638732910156 154.50836181640625 120.49163818359375 153.34361267089844 119.0 153.0 C 119.0 153.0 118.0 153.0 118.0 153.0 C 118.0 153.0 118.0 153.0 118.0 153.0 C 118.0 153.0 84.0 159.0 84.0 159.0 C 84.0 159.0 84.0 159.0 84.0 159.0 C 82.18720245361328 159.46707153320312 80.9407958984375 161.12893676757812 81.0 163.0" stroke-width="5.0" fill="rgb(255, 0, 0)" opacity="1.0"/>
    <path d="M 28.0 101.0 C 26.06700325012207 101.0 24.5 99.43299865722656 24.5 97.5 C 24.5 95.56700134277344 26.06700325012207 94.0 28.0 94.0 C 28.0 94.0 37.0 94.0 37.0 94.0 C 38.9329948425293 94.0 40.5 95.56700134277344 40.5 97.5 C 40.5 99.43299865722656 38.9329948425293 101.0 37.0 101.0 C 37.0 101.0 28.0 101.0 28.0 101.0" stroke-width="5.0" fill="rgb(1, 93, 255)" opacity="1.0"/>
    <path d="M 49.0 53.0 C 48.22937774658203 52.936859130859375 47.51288986206055 52.57861328125 47.0 52.0 C 47.0 52.0 41.0 46.0 41.0 46.0 C 39.82999801635742 44.53866958618164 39.82999801635742 42.46133041381836 41.0 41.0 C 41.0 40.0 42.0 40.0 43.0 40.0 C 44.0 40.0 45.0 40.0 46.0 41.0 C 46.0 41.0 52.0 47.0 52.0 47.0 C 53.17000198364258 48.46133041381836 53.17000198364258 50.53866958618164 52.0 52.0 C 51.2711181640625 52.87610626220703 50.108768463134766 53.26355743408203 49.0 53.0" stroke-width="5.0" fill="rgb(4, 95, 255)" opacity="1.0"/>
    <path d="M 102.0 32.0 C 100.43888092041016 32.5550537109375 98.723388671875 31.739479064941406 98.1683349609375 30.178361892700195 C 98.0340805053711 29.800762176513672 97.97684478759766 29.400089263916016 98.0 29.0 C 98.0 29.0 98.0 20.0 98.0 20.0 C 97.90425872802734 18.345914840698242 99.16754913330078 16.927400588989258 100.82164001464844 16.831663131713867 C 101.22172546386719 16.80850601196289 101.62239837646484 16.86574363708496 102.0 17.0 C 102.0 17.0 103.0 17.0 104.0 17.0 C 104.73124694824219 17.8201961517334 105.09288024902344 18.905094146728516 105.0 20.0 C 105.0 20.0 105.0 29.0 105.0 29.0 C 105.0 30.0 105.0 31.0 104.0 31.0 C 103.48711395263672 31.57861328125 102.77062225341797 31.936857223510742 102.0 32.0" stroke-width="5.0" fill="rgb(1, 92, 255)" opacity="1.0"/>
    <path d="M 154.0 51.0 C 152.8912353515625 51.26355743408203 151.7288818359375 50.87610626220703 151.0 50.0 C 149.8300018310547 48.53866958618164 149.8300018310547 46.46133041381836 151.0 45.0 C 151.0 45.0 157.0 38.0 157.0 38.0 C 158.0 38.0 159.0 37.0 160.0 37.0 C 162.08465576171875 37.731109619140625 163.18191528320312 40.01373291015625 162.4508056640625 42.098384857177734 C 162.3391571044922 42.41673278808594 162.18768310546875 42.71967315673828 162.0 43.0 C 162.0 43.0 156.0 50.0 156.0 50.0 C 155.44195556640625 50.51668167114258 154.7481689453125 50.86357116699219 154.0 51.0" stroke-width="5.0" fill="rgb(0, 92, 255)" opacity="1.0"/>
    <path d="M 167.0 101.0 C 165.06700134277344 101.0 163.5 99.43299865722656 163.5 97.5 C 163.5 95.56700134277344 165.06700134277344 94.0 167.0 94.0 C 167.0 94.0 176.0 94.0 176.0 94.0 C 178.0 94.0 179.0 96.0 179.0 98.0 C 179.0 100.0 178.0 101.0 176.0 101.0 C 176.0 101.0 167.0 101.0 167.0 101.0" stroke-width="5.0" fill="rgb(1, 92, 255)" opacity="1.0"/>
    <path d="M 104.0 55.0 C 103.63444519042969 53.957672119140625 102.49313354492188 53.40904235839844 101.4508056640625 53.77459716796875 C 101.29163360595703 53.830421447753906 101.1401596069336 53.90615463256836 101.0 54.0 C 85.0 57.0 78.0 66.0 74.0 73.0 C 71.0 80.0 71.0 87.0 71.0 87.0 C 71.0 88.10456848144531 71.89543151855469 89.0 73.0 89.0 C 73.32795715332031 89.08467864990234 73.67204284667969 89.08467864990234 74.0 89.0 C 74.70968627929688 88.5993423461914 75.10528564453125 87.80814361572266 75.0 87.0 C 75.0 87.0 75.0 81.0 78.0 74.0 C 82.0 65.0 91.0 60.0 102.0 57.0 C 103.10456848144531 57.0 104.0 56.10456848144531 104.0 55.0" stroke-width="5.0" fill="rgb(1, 94, 255)" opacity="1.0"/>
  </g>
</svg>
