<?xml version="1.0" ?>
<svg xmlns="http://www.w3.org/2000/svg" version="1.1" width="200" height="200">
  <defs/>
  <g>
    <path d="M 89.14424133300781 38.73245620727539 C 106.84960174560547 35.864566802978516 119.58369445800781 38.4793701171875 131.05026245117188 47.80040740966797 C 143.35255432128906 58.25115966796875 149.7397003173828 70.29635620117188 149.81777954101562 86.8984146118164 C 148.4210662841797 102.13426208496094 141.2424774169922 115.3211669921875 128.93145751953125 124.25947570800781 C 125.8558349609375 127.01448059082031 124.2833480834961 131.15460205078125 123.32344055175781 135.04185485839844 L 123.20272064208984 141.45767211914062 L 122.16450500488281 143.9692840576172 L 118.71949768066406 145.36831665039062 L 83.9306411743164 152.16448974609375 L 83.70179748535156 151.9497528076172 C 81.60894012451172 152.94871520996094 77.00538635253906 148.05062866210938 79.37315368652344 147.3306427001953 C 77.93140411376953 146.59658813476562 80.35089111328125 143.1466522216797 84.27681732177734 142.39553833007812 L 114.07169342041016 137.90762329101562 L 113.90093231201172 134.6219940185547 C 113.89122009277344 125.41753387451172 117.1119384765625 122.24139404296875 123.41765594482422 116.9065170288086 C 133.0629425048828 110.1998519897461 138.81837463378906 97.59916687011719 139.90866088867188 87.6907730102539 C 140.6903076171875 75.24642944335938 134.92666625976562 63.36899185180664 125.51927185058594 55.58108901977539 C 115.78047180175781 47.91098403930664 105.50634002685547 45.10504913330078 92.46373748779297 47.34090805053711 C 77.4979248046875 50.331703186035156 63.227699279785156 65.85540771484375 62.821739196777344 80.7753677368164 C 60.41020584106445 98.18050384521484 69.02882385253906 112.43557739257812 84.06368255615234 119.44335174560547 C 86.68560028076172 121.61764526367188 87.5475082397461 124.46190643310547 86.20262145996094 125.99295806884766 C 85.18418884277344 128.27423095703125 81.96251678466797 129.19686889648438 80.2543716430664 128.52294921875 C 62.045345306396484 118.86827850341797 49.92719268798828 99.75922393798828 53.34492492675781 80.68876647949219 C 56.77217102050781 59.2032585144043 70.74848937988281 44.24916458129883 89.14424133300781 38.73245620727539" stroke-width="1.0" fill="rgb(255, 0, 0)" opacity="0.9485375"/>
    <path d="M 81.99844360351562 163.62074279785156 C 81.96809387207031 164.28610229492188 82.6754150390625 164.954345703125 85.09161376953125 165.09512329101562 C 84.4898452758789 166.23065185546875 84.20509338378906 166.19126892089844 84.27904510498047 166.0858612060547 L 84.53660583496094 165.62696838378906 L 119.27980041503906 161.0155029296875 C 120.28833770751953 158.9564971923828 121.3140640258789 157.2133331298828 120.9467544555664 155.77964782714844 C 121.41452026367188 154.32101440429688 120.70954132080078 153.0198974609375 118.71986389160156 153.16563415527344 C 117.3714599609375 153.23020935058594 117.04051208496094 152.63539123535156 117.90819549560547 152.4914093017578 L 117.0678482055664 152.14088439941406 L 82.72661590576172 158.49951171875 L 84.67338562011719 159.67202758789062 C 83.00884246826172 160.2315216064453 81.82262420654297 161.9563446044922 81.99844360351562 163.62074279785156" stroke-width="1.0" fill="rgb(0, 0, 113)" opacity="0.0"/>
    <path d="M 27.295063018798828 100.9964599609375 C 25.716772079467773 101.04034423828125 24.238298416137695 99.52460479736328 24.472274780273438 97.4454345703125 C 24.217681884765625 95.62447357177734 26.106321334838867 93.84915161132812 28.188451766967773 94.00944519042969 L 36.77099609375 93.98323059082031 C 38.454627990722656 93.29067993164062 41.19268035888672 95.71611022949219 40.50812911987305 97.86663055419922 C 40.87383270263672 99.42975616455078 38.67174530029297 101.25305938720703 35.665531158447266 101.26100158691406 L 27.295063018798828 100.9964599609375" stroke-width="1.0" fill="rgb(0, 85, 255)" opacity="0.94405526"/>
  </g>
</svg>
