<?xml version="1.0" ?>
<svg xmlns="http://www.w3.org/2000/svg" version="1.1" width="200" height="200">
  <defs/>
  <g>
    <path d="M 90.72891235351562 38.85499572753906 C 104.82888793945312 35.633270263671875 120.6744613647461 38.76158905029297 130.92236328125 47.56993865966797 C 142.24916076660156 54.76944351196289 149.96554565429688 73.98760223388672 148.85801696777344 82.82780456542969 C 150.31288146972656 102.26033782958984 140.72177124023438 114.68206787109375 130.298095703125 123.6788330078125 C 126.49803924560547 125.00067901611328 123.3912124633789 131.43295288085938 123.01551818847656 136.9889373779297 L 123.06660461425781 141.57220458984375 L 122.13101959228516 144.5303497314453 L 118.25324249267578 145.43618774414062 L 84.97749328613281 152.1150665283203 L 79.7615966796875 151.72264099121094 C 84.84512329101562 150.91392517089844 79.29138946533203 151.68185424804688 79.6072006225586 150.57376098632812 C 77.7186050415039 146.1044464111328 80.39514923095703 143.3621063232422 83.78926849365234 142.55584716796875 L 113.96361541748047 137.7350311279297 L 114.03773498535156 135.95013427734375 C 113.70861053466797 127.29681396484375 117.6405029296875 120.51371765136719 123.83377075195312 116.67291259765625 C 132.99276733398438 109.9903793334961 140.38279724121094 96.54137420654297 139.40069580078125 86.27508544921875 C 140.4606475830078 74.53394317626953 134.82725524902344 63.7066535949707 125.97076416015625 55.20320129394531 C 114.73048400878906 47.63179016113281 108.64804077148438 45.730735778808594 94.3639907836914 46.95210647583008 C 76.03565979003906 50.6858024597168 64.69957733154297 63.95346450805664 62.01243209838867 82.1754150390625 C 61.29499816894531 97.6740493774414 69.48955535888672 112.33271026611328 84.47711944580078 119.83441162109375 C 87.4561996459961 121.33052062988281 87.35575866699219 128.5162353515625 85.71770477294922 125.75228881835938 C 88.0606460571289 129.50787353515625 77.66989135742188 129.0541534423828 79.9822998046875 128.2925262451172 C 61.82330322265625 120.37516784667969 50.593360900878906 99.54850769042969 53.725032806396484 79.60643768310547 C 56.40392303466797 59.55800247192383 70.62748718261719 43.00377655029297 90.72891235351562 38.85499572753906" stroke-width="1.0" fill="rgb(255, 0, 0)" opacity="0.9391715"/>
    <path d="M 85.19384002685547 164.84756469726562 C 86.55317687988281 163.0244903564453 87.1958236694336 163.76309204101562 88.21772003173828 162.80563354492188 C 91.29969024658203 162.7745819091797 96.49627685546875 163.8289031982422 101.39521026611328 157.45782470703125 L 82.34037017822266 162.25042724609375 L 115.56010437011719 156.8577880859375 C 114.70037841796875 156.1845245361328 116.34076690673828 155.45973205566406 117.54219055175781 159.2317352294922 C 117.9365463256836 157.74855041503906 117.36357116699219 156.5462646484375 116.93075561523438 156.32196044921875 C 109.01530456542969 156.3804931640625 107.61268615722656 154.361328125 105.01127624511719 158.83230590820312 L 121.46454620361328 156.8524169921875 L 87.32080078125 162.1089630126953 L 88.51691436767578 162.83201599121094 C 85.82142639160156 163.19984436035156 84.32859802246094 164.12757873535156 85.19384002685547 164.84756469726562" stroke-width="1.0" fill="rgb(255, 0, 0)" opacity="1.0"/>
    <path d="M 26.833776473999023 101.00898742675781 C 24.581031799316406 100.21451568603516 23.707504272460938 100.16746520996094 24.482147216796875 97.53797149658203 C 23.909805297851562 95.22632598876953 24.8446102142334 94.26164245605469 27.547380447387695 93.96878051757812 L 37.60562515258789 94.02901458740234 C 39.638404846191406 93.99043273925781 41.62279510498047 95.0584487915039 40.45756530761719 98.58717346191406 C 41.78833770751953 99.71855163574219 40.06108093261719 101.05343627929688 36.64494323730469 100.9711685180664 L 26.833776473999023 101.00898742675781" stroke-width="1.0" fill="rgb(0, 87, 255)" opacity="0.9184405"/>
  </g>
</svg>
