<?xml version="1.0" ?>
<svg xmlns="http://www.w3.org/2000/svg" version="1.1" width="256" height="256">
  <defs/>
  <g>
    <path d="M 50.05044174194336 -9.81412410736084 C 45.37415313720703 -10.2500638961792 40.83341979980469 -9.721447944641113 36.27101135253906 -9.106779098510742 C 31.014625549316406 -8.424810409545898 27.208724975585938 -10.347976684570312 21.325376510620117 -2.187818765640259 C 28.40920639038086 20.11878204345703 35.94342803955078 10.720293998718262 35.587860107421875 8.012255668640137 C 33.31016159057617 0.13449619710445404 18.110536575317383 -7.87974214553833 -0.21652323007583618 -16.29115867614746 C -14.449972152709961 5.461272239685059 -5.554296970367432 28.663768768310547 -1.5412771701812744 50.213340759277344 C 47.038631439208984 68.91567993164062 42.547149658203125 60.93669128417969 46.587791442871094 45.213623046875 C 55.32222366333008 17.696699142456055 65.37017822265625 -0.8917266130447388 -0.6063661575317383 -7.648330211639404 C -17.87581443786621 33.96818923950195 -15.434945106506348 49.612911224365234 -9.740589141845703 58.480281829833984 C -10.740459442138672 70.71350860595703 -8.476125717163086 74.43916320800781 -6.808769226074219 88.44225311279297 C -5.966862678527832 99.08906555175781 -5.966807842254639 120.90409851074219 -9.425437927246094 134.8570098876953 C -13.420884132385254 145.8722686767578 -24.97342300415039 187.94833374023438 0.7683953642845154 224.74282836914062 C 60.937252044677734 213.73178100585938 -0.4797206223011017 207.6195526123047 14.338019371032715 114.44364929199219 C 20.847925186157227 122.96065521240234 37.09366226196289 165.6336212158203 6.489747047424316 214.2554168701172 C -37.102603912353516 237.16299438476562 -43.97709274291992 271.6737976074219 116.76174926757812 258.54400634765625 C 211.7408905029297 229.22604370117188 45.14599609375 263.0036315917969 51.661434173583984 132.13450622558594 C 51.622432708740234 65.16333770751953 75.83321380615234 156.20440673828125 81.8839340209961 188.26034545898438 C 96.15889739990234 171.0038604736328 92.17510986328125 178.9872589111328 95.5280990600586 204.3385467529297 C 104.35033416748047 193.04043579101562 88.34028625488281 156.3196563720703 87.6812744140625 192.6131591796875 C 103.70250701904297 207.39373779296875 105.39205169677734 187.56678771972656 124.33871459960938 181.7172393798828 C 136.5082550048828 166.8619842529297 140.4396209716797 190.4964141845703 154.3468780517578 167.2898406982422 C 132.78990173339844 133.46292114257812 131.6728973388672 87.2452392578125 142.06195068359375 118.6282730102539 C 164.54733276367188 151.1044158935547 155.33328247070312 137.33401489257812 158.66647338867188 141.52536010742188 C 183.41213989257812 140.4481201171875 199.3137969970703 143.61221313476562 175.70730590820312 143.4717254638672 C 185.7639617919922 146.98231506347656 192.11282348632812 142.92123413085938 204.39476013183594 120.93688201904297 C 234.04185485839844 173.9890899658203 212.44778442382812 123.78207397460938 249.4418487548828 136.3726043701172 C 222.42222595214844 158.75535583496094 202.13511657714844 113.31108093261719 208.62240600585938 89.94672393798828 C 183.05133056640625 81.32556915283203 178.49655151367188 102.59591674804688 124.6661148071289 133.52430725097656 C 120.22196960449219 129.600341796875 189.92457580566406 101.89094543457031 312.7110900878906 118.77030181884766 C 255.7035369873047 144.5661163330078 273.2154846191406 106.52684020996094 261.4551086425781 0.1271018385887146 C 242.41600036621094 -22.607749938964844 223.5680389404297 -28.43160057067871 199.5579376220703 30.386751174926758 C 172.747314453125 53.27411651611328 163.226318359375 41.513099670410156 160.74916076660156 40.332759857177734 C 157.25167846679688 74.06703186035156 177.40005493164062 74.63606262207031 182.27597045898438 44.287010192871094 C 122.04913330078125 42.447017669677734 118.87791442871094 1.4756176471710205 205.26524353027344 47.6336555480957 C 232.3810272216797 37.77186965942383 238.4710693359375 7.4867706298828125 222.95071411132812 -19.539775848388672 C 167.52503967285156 -12.259133338928223 157.198486328125 -11.998732566833496 145.53407287597656 -9.457073211669922 C 93.81365966796875 -11.433138847351074 85.9627914428711 -15.045491218566895 75.03812408447266 -10.580977439880371 C 66.98601531982422 -5.652884006500244 64.39238739013672 -12.624687194824219 50.05044174194336 -9.81412410736084" stroke-width="1.0" fill="rgb(1, 0, 0)" opacity="0.99994373"/>
    <path d="M 187.22259521484375 113.60546112060547 C 158.61363220214844 113.0204086303711 159.4369354248047 112.15111541748047 193.1553497314453 92.55552673339844 C 143.41537475585938 114.65254974365234 164.58514404296875 132.414306640625 188.99806213378906 144.43307495117188 C 132.58880615234375 138.40203857421875 173.61016845703125 94.25616455078125 140.5587921142578 110.28323364257812 C 164.80628967285156 78.4249267578125 152.55203247070312 53.187252044677734 146.2383270263672 72.0960464477539 C 130.09710693359375 55.83820724487305 141.02703857421875 50.557918548583984 136.1622772216797 72.32736206054688 C 127.27369689941406 85.25377655029297 131.33758544921875 84.32489013671875 132.2942352294922 82.36931610107422 C 133.18727111816406 79.93185424804688 132.74974060058594 78.1673583984375 136.98487854003906 82.55158233642578 C 135.27520751953125 62.39909744262695 147.29925537109375 57.176422119140625 156.38507080078125 53.15797424316406 C 146.7208251953125 60.780250549316406 141.69081115722656 84.05875396728516 139.3513946533203 86.04110717773438 C 168.74732971191406 72.37742614746094 195.64064025878906 60.65346145629883 169.9265899658203 58.89634704589844 C 163.1348876953125 51.027950286865234 137.09765625 77.52136993408203 156.0739288330078 52.70896530151367 C 131.3538818359375 48.67073059082031 130.7196044921875 64.46322631835938 132.26263427734375 37.79969024658203 C 137.08909606933594 42.688682556152344 129.39450073242188 32.916595458984375 132.2989959716797 54.37192916870117 C 132.07199096679688 50.769351959228516 114.72998046875 54.811031341552734 99.29701232910156 60.80369567871094 C 90.92842102050781 47.5999641418457 118.83711242675781 53.12820053100586 151.77833557128906 37.110755920410156 C 116.10338592529297 43.9454231262207 113.9332046508789 37.70875549316406 108.59620666503906 42.823341369628906 C 99.02841186523438 45.69679260253906 94.36907958984375 62.624671936035156 100.77999877929688 59.40380096435547 C 41.92703628540039 95.74053955078125 2.734707832336426 206.98751831054688 136.237548828125 247.82196044921875 C 59.767913818359375 329.00042724609375 62.628173828125 324.5745849609375 226.104248046875 277.4913024902344 C 248.40408325195312 262.84967041015625 267.4295959472656 257.9808044433594 289.8802185058594 195.85787963867188 C 251.53175354003906 89.13319396972656 147.7506561279297 183.81851196289062 187.22259521484375 113.60546112060547" stroke-width="1.0" fill="rgb(244, 176, 42)" opacity="1.0"/>
    <path d="M 89.20254516601562 174.30926513671875 C 89.38507080078125 210.64320373535156 89.24983215332031 190.30868530273438 116.45390319824219 175.72665405273438 C 162.0705108642578 160.35104370117188 177.2269744873047 174.66552734375 131.90179443359375 159.1787109375 C 94.17594146728516 130.21640014648438 98.571533203125 129.16029357910156 117.9581069946289 118.08729553222656 C 99.54193878173828 114.37349700927734 98.70630645751953 123.04830169677734 94.80904388427734 136.3012237548828 C 94.48961639404297 140.1827850341797 81.81593322753906 163.51686096191406 155.51107788085938 172.78628540039062 C 115.90076446533203 60.87936782836914 128.5439453125 107.76762390136719 105.19853973388672 117.8624038696289 C 77.06727600097656 134.82945251464844 37.9761962890625 108.97885131835938 68.76612854003906 100.80424499511719 C 95.605712890625 111.35192108154297 96.99723052978516 100.10881805419922 107.34281158447266 88.85240936279297 C 100.06251525878906 89.44768524169922 81.96791076660156 110.21937561035156 60.043785095214844 87.17304229736328 C 50.958621978759766 73.5931396484375 70.27421569824219 120.55937957763672 59.60098648071289 118.92069244384766 C 57.22093963623047 109.01386260986328 84.71922302246094 45.955177307128906 26.732866287231445 19.105546951293945 C 16.17066192626953 98.61125183105469 36.83388137817383 111.38595581054688 70.56221771240234 114.99329376220703 C 60.54297637939453 124.16008758544922 58.45331573486328 120.39387512207031 75.87318420410156 140.00192260742188 C 87.37307739257812 159.69366455078125 83.88035583496094 156.30686950683594 85.7291488647461 142.1483154296875 C 73.3179931640625 150.03500366210938 83.84748077392578 141.35421752929688 89.20254516601562 174.30926513671875" stroke-width="1.0" fill="rgb(0, 0, 0)" opacity="1.0"/>
    <path d="M 16.868568420410156 195.5261993408203 C 32.190608978271484 172.46701049804688 44.0539665222168 167.9313507080078 40.49126052856445 167.4065704345703 C 36.39451599121094 105.85877227783203 41.03976821899414 159.87083435058594 9.102791786193848 116.42828369140625 C 34.295772552490234 132.24114990234375 48.41628646850586 116.41602325439453 30.662996292114258 110.92924499511719 C 18.599916458129883 105.15076446533203 12.602046966552734 111.49026489257812 14.066558837890625 122.28406524658203 C 10.049985885620117 131.16041564941406 11.058113098144531 124.41180419921875 39.52423858642578 132.1834259033203 C 44.68444061279297 108.80036163330078 46.944175720214844 115.13044738769531 37.7025146484375 107.7821044921875 C 29.44416618347168 102.70244598388672 29.649438858032227 100.66407012939453 19.662025451660156 92.37129974365234 C 17.432209014892578 90.59558868408203 11.801653861999512 102.4158935546875 8.780257225036621 118.84747314453125 C 9.013012886047363 132.67039489746094 12.5058012008667 133.0464630126953 32.533119201660156 107.32456970214844 C 17.603450775146484 86.88764190673828 17.320083618164062 86.13467407226562 17.426103591918945 99.64004516601562 C 10.908772468566895 103.05887603759766 24.59809684753418 105.15045166015625 22.71959114074707 106.19292449951172 C 25.081756591796875 102.01622772216797 24.842761993408203 100.78299713134766 17.89698028564453 113.1799545288086 C 22.674772262573242 106.81610107421875 19.218095779418945 92.93248748779297 21.9990291595459 104.0031509399414 C 17.314640045166016 93.6910400390625 14.91115951538086 97.16790008544922 18.635799407958984 97.78996276855469 C 22.297100067138672 95.4409408569336 16.618877410888672 98.29325866699219 19.93157386779785 105.23506927490234 C 22.1452693939209 90.25912475585938 19.864500045776367 105.1649398803711 12.499736785888672 110.34965515136719 C 9.26452350616455 116.86600494384766 -1.402811884880066 137.47523498535156 16.868568420410156 195.5261993408203" stroke-width="1.0" fill="rgb(229, 67, 110)" opacity="0.98751235"/>
    <path d="M 74.05892944335938 129.94964599609375 C 75.47525787353516 127.81175994873047 95.6829833984375 150.27513122558594 96.94232177734375 180.94992065429688 C 138.06600952148438 150.1236114501953 153.069091796875 179.2808380126953 129.77369689941406 148.25633239746094 C 110.41387176513672 87.0085220336914 133.8001708984375 130.1474151611328 79.4323959350586 129.35292053222656 C 106.35379028320312 99.99446105957031 117.3468246459961 111.91517639160156 117.23384094238281 77.41655731201172 C 108.36173248291016 84.81197357177734 104.08583068847656 82.2497329711914 99.75201416015625 61.97579574584961 C 77.62438201904297 68.9122314453125 77.66004943847656 82.65457916259766 75.79701232910156 73.39021301269531 C 80.32950592041016 76.54363250732422 46.79365921020508 92.1672592163086 45.22716522216797 149.65432739257812 C 69.04728698730469 128.1117401123047 26.58978271484375 114.05238342285156 88.85276794433594 119.8565444946289 C 71.66615295410156 135.51214599609375 88.02635192871094 124.77571868896484 74.05892944335938 129.94964599609375" stroke-width="1.0" fill="rgb(255, 171, 1)" opacity="0.8294897"/>
    <path d="M 98.68647003173828 61.3777961730957 C 105.71485137939453 83.87772369384766 88.05517578125 62.79050064086914 120.7436752319336 51.956321716308594 C 108.5947494506836 58.00563430786133 69.12616729736328 59.900943756103516 48.54085159301758 123.97171020507812 C 112.23786163330078 112.48096466064453 147.23638916015625 91.166259765625 148.1672821044922 74.4518814086914 C 167.54856872558594 70.21881866455078 164.6298370361328 69.08232879638672 146.36752319335938 69.07279968261719 C 149.1207275390625 102.56522369384766 148.31065368652344 93.23548126220703 158.59017944335938 71.80299377441406 C 170.26519775390625 68.53787994384766 156.7359161376953 64.01847076416016 153.85321044921875 65.36906433105469 C 165.80133056640625 80.13143920898438 169.1128692626953 81.02837371826172 158.26779174804688 63.113258361816406 C 155.08837890625 50.89448547363281 133.26365661621094 85.17501068115234 142.42489624023438 58.82984924316406 C 176.74717712402344 47.73233413696289 116.59120178222656 48.379329681396484 98.68647003173828 61.3777961730957" stroke-width="1.0" fill="rgb(249, 186, 40)" opacity="0.9366461"/>
    <path d="M 169.9993133544922 83.4231948852539 C 207.53582763671875 93.22870635986328 196.3416290283203 101.38994598388672 193.11634826660156 92.65474700927734 C 208.69122314453125 69.12725067138672 162.21615600585938 65.5999984741211 165.05172729492188 98.62041473388672 C 144.0675048828125 98.40689086914062 157.9744110107422 108.41445922851562 198.80169677734375 106.64042663574219 C 192.81524658203125 81.70695495605469 183.05319213867188 86.34455871582031 169.9993133544922 83.4231948852539" stroke-width="1.0" fill="rgb(243, 219, 69)" opacity="0.86476374"/>
    <path d="M 135.1949920654297 141.067626953125 C 150.3987274169922 172.38519287109375 148.33456420898438 110.82691955566406 138.51980590820312 114.4454116821289 C 140.5260009765625 96.65196990966797 145.78269958496094 87.5041732788086 141.90281677246094 91.79723358154297 C 139.35903930664062 91.93741607666016 136.67613220214844 84.33641815185547 132.61309814453125 134.44786071777344 C 145.0154266357422 172.4891357421875 191.62051391601562 202.77151489257812 148.62774658203125 102.66377258300781 C 147.79067993164062 92.39411926269531 161.9271697998047 98.60350036621094 156.94642639160156 77.51325225830078 C 143.08889770507812 74.69811248779297 140.84503173828125 85.12576293945312 142.9013214111328 73.2204360961914 C 145.04823303222656 81.24010467529297 131.22142028808594 92.8009262084961 135.10499572753906 75.05188751220703 C 138.5278778076172 78.54357147216797 116.71394348144531 105.32067108154297 135.1949920654297 141.067626953125" stroke-width="1.0" fill="rgb(248, 186, 39)" opacity="0.9872732"/>
    <path d="M 134.78591918945312 110.01484680175781 C 126.21528625488281 90.90228271484375 120.02625274658203 95.72447967529297 131.0101318359375 102.50358581542969 C 149.1809844970703 83.14476776123047 189.7185516357422 53.87548828125 158.48104858398438 82.46424865722656 C 140.4254150390625 120.78369903564453 140.14280700683594 107.8879623413086 134.3906707763672 98.4939956665039 C 138.91552734375 108.17808532714844 120.04155731201172 128.83401489257812 150.50650024414062 119.21603393554688 C 156.3574981689453 102.03905487060547 131.4688720703125 91.91194915771484 134.78591918945312 110.01484680175781" stroke-width="1.0" fill="rgb(255, 184, 29)" opacity="0.34397724"/>
    <path d="M 170.1862030029297 97.85382080078125 C 143.47938537597656 104.14823150634766 192.70118713378906 115.11064910888672 173.39564514160156 83.9346694946289 C 183.86798095703125 64.90061950683594 203.92140197753906 81.23908233642578 196.57369995117188 100.21141815185547 C 205.75946044921875 109.87362670898438 140.9231719970703 107.02516174316406 190.5946807861328 101.91146087646484 C 214.58724975585938 101.1548080444336 194.4573974609375 112.40978240966797 174.98045349121094 103.30167388916016 C 157.13336181640625 95.43592834472656 181.04652404785156 72.97030639648438 184.7566375732422 73.30976104736328 C 174.6676483154297 76.76793670654297 163.66128540039062 85.06132507324219 170.1862030029297 97.85382080078125" stroke-width="1.0" fill="rgb(244, 215, 67)" opacity="1.0"/>
    <path d="M 153.47164916992188 21.43326187133789 C 194.5581512451172 48.307823181152344 179.38560485839844 38.98860549926758 196.9528350830078 70.13577270507812 C 224.0768280029297 52.19099044799805 267.68658447265625 41.00297927856445 278.13616943359375 14.981790542602539 C 260.3061828613281 -23.54865264892578 221.57379150390625 -54.236717224121094 201.24505615234375 30.08189582824707 C 195.5139923095703 96.78970336914062 207.5874786376953 30.5733699798584 153.47164916992188 21.43326187133789" stroke-width="1.0" fill="rgb(0, 0, 0)" opacity="0.9459151"/>
    <path d="M 248.60629272460938 113.14632415771484 C 221.97869873046875 109.01878356933594 230.3375701904297 141.39117431640625 260.90203857421875 178.49220275878906 C 292.77642822265625 104.06584930419922 243.3107147216797 77.96151733398438 272.70037841796875 93.20405578613281 C 262.8974914550781 120.80848693847656 264.22137451171875 129.30833435058594 262.70709228515625 106.79171752929688" stroke-width="2.0" fill="rgb(37, 32, 53)" opacity="0.4377781"/>
    <path d="M 59.948204040527344 80.22332763671875 C 48.487064361572266 88.11229705810547 39.37582015991211 95.10578155517578 51.221839904785156 227.71788024902344 C 268.84356689453125 267.4579772949219 275.2146301269531 268.7886047363281 277.5559387207031 165.73281860351562 C 211.2701416015625 149.42214965820312 181.30845642089844 131.74905395507812 206.16671752929688 216.79258728027344" stroke-width="2.0" fill="rgb(14, 0, 0)" opacity="0.14690915"/>
    <path d="M 215.3468780517578 81.90843963623047 C 214.5996551513672 80.64803314208984 242.65577697753906 56.0662727355957 245.0266571044922 105.91057586669922 C 234.07485961914062 109.51821899414062 239.43482971191406 108.58343505859375 241.89889526367188 104.88240814208984 C 236.937255859375 113.98318481445312 190.69439697265625 105.89646911621094 215.4592742919922 104.6077651977539" stroke-width="2.0" fill="rgb(255, 238, 72)" opacity="0.85462135"/>
    <path d="M 31.44068717956543 266.0068664550781 C 18.41876792907715 272.1669616699219 1.967612624168396 259.0577087402344 6.72813081741333 273.6473388671875 C 8.869930267333984 269.1791076660156 -2.859304904937744 258.8465270996094 4.978759288787842 271.3268127441406 C 27.869443893432617 266.4858703613281 25.91531753540039 272.4380798339844 44.372642517089844 263.2250061035156" stroke-width="2.0" fill="rgb(0, 0, 0)" opacity="0.79839116"/>
    <path d="M 102.72905731201172 247.2850341796875 C 92.92630004882812 214.79818725585938 115.414306640625 259.25482177734375 180.7316131591797 233.8798828125 C 252.36094665527344 193.16847229003906 225.17030334472656 146.55125427246094 250.24961853027344 106.39216613769531 C 345.06256103515625 218.34228515625 276.1961669921875 262.1598205566406 242.66867065429688 266.22113037109375" stroke-width="2.0" fill="rgb(0, 0, 0)" opacity="1.0"/>
    <path d="M 255.5282745361328 113.60469818115234 C 246.843505859375 122.79696655273438 217.61251831054688 115.11064910888672 246.30979919433594 191.2433624267578 C 293.7691345214844 121.72733306884766 280.571044921875 111.41183471679688 249.3555145263672 97.86378479003906 C 239.7476043701172 102.71013641357422 263.45367431640625 102.50021362304688 231.71063232421875 108.15282440185547" stroke-width="2.0" fill="rgb(0, 0, 0)" opacity="0.31929696"/>
    <path d="M 229.6183624267578 230.93643188476562 C 219.81077575683594 221.82229614257812 228.4861602783203 162.15892028808594 221.5109405517578 140.77223205566406 C 266.3356018066406 146.05648803710938 233.4537811279297 189.463623046875 232.576171875 118.92144012451172 C 299.4250793457031 115.6225814819336 241.76251220703125 75.7462158203125 264.84368896484375 133.14231872558594" stroke-width="2.0" fill="rgb(0, 0, 0)" opacity="0.7506184"/>
    <path d="M 232.04254150390625 173.68328857421875 C 244.75645446777344 162.1013946533203 231.64794921875 197.342529296875 209.76300048828125 211.87811279296875 C 236.7639923095703 181.2307586669922 228.34153747558594 175.9085235595703 230.0189208984375 140.85560607910156 C 265.819091796875 112.05860900878906 279.42169189453125 107.87213134765625 283.2493896484375 129.832763671875" stroke-width="2.0" fill="rgb(0, 0, 18)" opacity="0.41549906"/>
    <path d="M 205.74124145507812 119.6316909790039 C 215.06007385253906 152.02760314941406 229.627685546875 147.8199005126953 208.75653076171875 130.23464965820312 C 207.0653076171875 145.23348999023438 228.83595275878906 150.47740173339844 193.250244140625 160.30538940429688 C 213.19198608398438 173.86289978027344 212.41419982910156 173.7892608642578 212.0712127685547 128.2763214111328" stroke-width="2.0" fill="rgb(106, 58, 0)" opacity="0.4465386"/>
    <path d="M 187.69696044921875 144.19869995117188 C 198.52951049804688 140.2515869140625 209.7773895263672 101.03630828857422 173.5917510986328 114.64643096923828 C 197.57211303710938 139.87501525878906 115.48430633544922 116.01773834228516 164.67567443847656 147.011962890625 C 244.88314819335938 149.6795196533203 241.17860412597656 164.3989715576172 203.8142547607422 126.86319732666016" stroke-width="2.0" fill="rgb(253, 183, 54)" opacity="0.13505107"/>
    <path d="M 101.15486907958984 186.70932006835938 C 119.57111358642578 177.09991455078125 104.87081909179688 173.46424865722656 76.37545013427734 219.61154174804688 C 117.95793151855469 244.81922912597656 148.40740966796875 254.74888610839844 198.37991333007812 224.32925415039062 C 235.68092346191406 189.12176513671875 215.75331115722656 204.9275360107422 153.16119384765625 170.84286499023438" stroke-width="2.0" fill="rgb(255, 249, 42)" opacity="0.1652783"/>
    <path d="M 162.19737243652344 193.9956512451172 C 153.6915283203125 170.50772094726562 146.75408935546875 147.843017578125 190.53903198242188 138.56947326660156 C 201.22401428222656 123.04942321777344 223.76560974121094 118.43331909179688 204.14373779296875 164.46998596191406 C 234.770751953125 146.22811889648438 224.36874389648438 178.7660675048828 199.76602172851562 165.49778747558594" stroke-width="2.0" fill="rgb(248, 184, 33)" opacity="0.7591916"/>
    <path d="M 123.34846496582031 144.62330627441406 C 119.56586456298828 122.65636444091797 108.64901733398438 118.26748657226562 118.03414154052734 118.30462646484375 C 87.43107604980469 125.81351470947266 69.65074920654297 172.8855438232422 128.2490234375 168.14419555664062 C 142.02003479003906 127.49132537841797 115.85517883300781 143.82705688476562 89.50310516357422 147.06838989257812" stroke-width="2.0" fill="rgb(255, 128, 0)" opacity="0.12309735"/>
    <path d="M 17.08563804626465 120.01898193359375 C 27.883716583251953 135.2700653076172 53.1181640625 147.0089111328125 33.31636428833008 147.7675018310547 C 50.428810119628906 144.92657470703125 40.1303825378418 126.6304931640625 19.968963623046875 155.02207946777344 C 49.954376220703125 146.47195434570312 42.62303924560547 133.0067901611328 32.65656280517578 133.9771728515625" stroke-width="2.0" fill="rgb(74, 20, 39)" opacity="0.47813094"/>
    <path d="M 73.6766357421875 177.22500610351562 C 47.089332580566406 119.12162780761719 45.55718994140625 86.33152770996094 172.2344970703125 111.05422973632812 C 241.66964721679688 120.13202667236328 162.93463134765625 112.17159271240234 184.19505310058594 134.03717041015625 C 167.52413940429688 138.92686462402344 160.37106323242188 131.57669067382812 163.7820281982422 103.64756774902344" stroke-width="2.0" fill="rgb(194, 229, 248)" opacity="0.12220921"/>
    <path d="M 200.64373779296875 116.48668670654297 C 210.59796142578125 106.77005767822266 208.20556640625 107.43154907226562 194.86312866210938 111.9434814453125 C 201.10462951660156 101.84521484375 210.5877685546875 105.96192169189453 218.38011169433594 105.0672836303711 C 215.54405212402344 65.59235382080078 192.51698303222656 83.41630554199219 196.63702392578125 84.6130599975586" stroke-width="2.0" fill="rgb(8, 0, 0)" opacity="0.49710625"/>
    <path d="M 28.54758644104004 128.1987762451172 C 53.81557083129883 125.15269470214844 83.69234466552734 122.66866302490234 89.98446655273438 182.311279296875 C 51.9633674621582 203.8076934814453 54.185977935791016 179.0428466796875 53.51337814331055 179.91688537597656 C 42.857975006103516 168.3049774169922 44.24308395385742 142.80743408203125 47.10746383666992 126.94136810302734" stroke-width="2.0" fill="rgb(255, 190, 28)" opacity="0.48578152"/>
    <path d="M 213.93336486816406 114.53507232666016 C 214.62457275390625 100.82115936279297 184.73655700683594 120.99397277832031 252.41944885253906 110.51870727539062 C 239.23895263671875 129.92514038085938 226.16128540039062 113.5591049194336 231.8607635498047 118.82225799560547 C 229.70298767089844 133.90628051757812 246.04623413085938 130.8153839111328 227.95175170898438 136.9798583984375" stroke-width="2.0" fill="rgb(95, 89, 87)" opacity="0.07754097"/>
    <path d="M 132.25401306152344 103.87783813476562 C 182.7669219970703 125.96422576904297 182.97230529785156 154.81874084472656 182.01292419433594 123.02232360839844 C 186.26901245117188 118.31070709228516 189.9315185546875 118.6035385131836 194.77125549316406 127.34255981445312 C 205.48545837402344 100.86239624023438 196.8611297607422 119.32432556152344 162.2211456298828 109.3946304321289" stroke-width="2.0" fill="rgb(185, 210, 255)" opacity="0.5263184"/>
    <path d="M 24.963008880615234 105.9090576171875 C 17.585628509521484 99.4130630493164 19.112852096557617 92.31102752685547 16.051679611206055 84.56204223632812 C 17.351123809814453 81.49342346191406 14.653044700622559 89.34709930419922 23.216815948486328 95.81501007080078 C 18.915857315063477 99.91493225097656 28.59657096862793 103.27311706542969 25.716449737548828 89.24180603027344" stroke-width="2.0" fill="rgb(191, 64, 103)" opacity="0.043107104"/>
    <path d="M 177.6269989013672 223.43780517578125 C 176.83172607421875 228.9161376953125 194.58932495117188 231.4759521484375 153.74887084960938 240.73414611816406 C 154.72279357910156 216.8643035888672 193.39527893066406 234.403076171875 201.66574096679688 218.72401428222656 C 191.16468811035156 203.6575927734375 174.65538024902344 209.08551025390625 185.06765747070312 209.24868774414062" stroke-width="2.0" fill="rgb(252, 189, 41)" opacity="0.8463133"/>
    <path d="M 226.69451904296875 113.90003967285156 C 254.8675079345703 117.10906982421875 235.2873992919922 122.03308868408203 207.42897033691406 119.90882873535156 C 195.62509155273438 115.3315658569336 205.8535614013672 109.29833221435547 243.79730224609375 110.49385833740234 C 224.76571655273438 120.99175262451172 227.9376678466797 108.02528381347656 214.9108428955078 112.87603759765625" stroke-width="2.0" fill="rgb(0, 0, 40)" opacity="0.29193667"/>
    <path d="M 222.25210571289062 119.52000427246094 C 223.80592346191406 111.4036636352539 219.7427978515625 114.20726776123047 198.98037719726562 122.18034362792969 C 211.99472045898438 133.44081115722656 211.61703491210938 124.20580291748047 231.2873992919922 130.53030395507812 C 214.65428161621094 106.4011001586914 211.5085906982422 117.1469955444336 213.1427764892578 128.1157989501953" stroke-width="2.0" fill="rgb(176, 177, 145)" opacity="0.14659789"/>
    <path d="M 128.33154296875 113.4166030883789 C 130.03285217285156 101.40719604492188 118.71919250488281 119.59064483642578 124.90644836425781 121.07630157470703 C 121.05066680908203 113.59515380859375 126.38666534423828 128.56271362304688 124.13839721679688 119.30207061767578 C 106.37098693847656 130.04481506347656 114.93878173828125 111.21942901611328 123.87246704101562 121.77136993408203" stroke-width="2.0" fill="rgb(97, 49, 0)" opacity="0.087778896"/>
    <path d="M 211.692138671875 133.17628479003906 C 211.96310424804688 137.7974853515625 231.45938110351562 168.84378051757812 235.14797973632812 144.86505126953125 C 240.72227478027344 135.3352813720703 222.27259826660156 148.9292449951172 213.7500457763672 137.32984924316406 C 217.07431030273438 148.289306640625 232.59799194335938 154.49183654785156 212.22125244140625 150.11026000976562" stroke-width="2.0" fill="rgb(255, 188, 35)" opacity="0.87688714"/>
  </g>
</svg>
