<svg xmlns="http://www.w3.org/2000/svg" height="200" width="200" viewBox="0 0 200 200">  <path d="M 82 15 L 33 138 L 57 183 L 144 180 L 167 138 L 119 15 C 112 -1 89 -1 82 15 Z" fill="#f9ee80"/>  <path d="M 80 158 C 78 142 88 136 85 100 C 81 50 111 6 111 6 C 101 0 87 3 82 15 L 33 138 L 57 183 L 91 182 C 84 172 81 164 80 158 Z" fill="#f4e74d"/>  <path d="M 150 130 C 142 130 117 131 117 152 L 117 162 C 117 167 113 172 107 172 C 102 172 98 167 98 162 L 98 159 C 98 154 94 150 89 150 C 84 150 80 153 80 158 L 80 172 C 80 177 76 182 71 182 C 65 182 61 177 61 172 L 61 141 C 61 130 51 130 51 130 C 35 130 23 142 23 157 C 23 165 27 197 100 197 C 174 197 178 165 178 157 C 178 142 165 130 150 130 Z" fill="#ffc7a4"/>  <path d="M 126 135 C 121 139 117 144 117 152 L 117 162 C 117 167 113 172 107 172 C 102 172 98 167 98 162 L 98 159 C 98 154 94 150 89 150 C 84 150 80 153 80 158 L 80 172 C 80 177 76 182 71 182 C 65 182 61 177 61 172 L 61 141 C 61 130 51 130 51 130 C 35 130 23 142 23 157 C 23 165 27 197 100 197 C 119 197 133 195 144 192 C 157 157 126 135 126 135 Z" fill="#ffaa75"/>  <path d="M 79 117 C 79 113 75 110 71 110 C 66 110 62 113 62 117 C 62 120 66 123 71 123 C 75 123 79 120 79 117 Z" fill="#fdb2db"/>  <path d="M 138 117 C 138 113 135 110 130 110 C 126 110 122 113 122 117 C 122 120 126 123 130 123 C 135 123 138 120 138 117 Z" fill="#fdb2db"/>  <path d="M 77 76 C 84 71 87 61 83 54 C 80 49 75 46 70 45 L 59 75 C 64 78 71 79 77 76 Z" fill="#fb695b"/>  <path d="M 127 76 C 124 84 128 94 137 97 C 141 99 146 98 151 96 L 139 65 C 134 67 129 70 127 76 Z" fill="#fb695b"/>  <path d="M 116 75 C 116 82 111 87 105 87 C 98 87 93 82 93 75 C 93 69 98 63 105 63 C 111 63 116 69 116 75 Z" fill="#ff938a"/>  <path d="M 125 30 C 120 30 115 32 114 37 C 112 42 114 48 120 50 C 124 52 129 51 131 47 L 125 30 Z" fill="#ff938a"/>  <path d="M 127 113 L 127 108 C 127 106 126 105 125 105 C 123 105 122 106 122 108 L 122 113 C 122 114 123 116 125 116 C 126 116 127 114 127 113 Z"/>  <path d="M 79 113 L 79 108 C 79 106 78 105 76 105 C 75 105 73 106 73 108 L 73 113 C 73 114 75 116 76 116 C 78 116 79 114 79 113 Z"/>  <path d="M 102 110 C 102 111 101 111 100 111 C 100 111 99 111 98 110 C 98 108 96 108 94 109 C 93 110 93 112 93 113 C 95 115 98 117 100 117 C 103 117 106 115 107 113 C 108 112 108 110 106 109 C 106 109 104 108 102 110 Z"/>  <path d="M 168 133 L 121 14 C 118 5 110 0 100 0 C 91 0 83 5 79 14 L 45 99 C 45 101 46 103 47 103 C 49 104 50 103 51 102 L 60 79 C 62 80 71 82 78 79 C 82 76 85 72 87 67 C 88 62 88 57 85 52 C 83 48 79 45 74 43 L 84 16 C 88 9 95 6 100 6 C 106 6 113 9 116 16 L 120 28 C 116 29 112 32 110 36 C 108 43 112 51 119 53 C 120 54 122 53 122 51 C 123 50 122 48 121 48 C 117 46 115 42 116 38 C 117 35 119 33 122 33 L 134 64 C 130 66 126 70 124 75 C 120 85 125 96 135 100 C 140 101 147 100 149 100 L 160 129 C 157 128 143 125 129 131 C 119 134 114 142 114 152 L 114 162 C 114 166 111 169 107 169 C 103 169 100 166 100 162 L 100 159 C 100 152 95 147 89 147 C 86 147 77 148 77 158 L 77 172 C 77 176 74 179 70 179 C 67 179 64 176 64 172 L 64 141 C 64 130 55 127 50 127 C 47 127 43 128 40 129 L 46 113 C 47 112 46 110 45 110 C 43 109 41 110 41 111 L 32 133 C 25 139 20 148 20 158 C 20 168 26 200 100 200 C 174 200 180 168 180 158 C 180 148 176 139 168 133 Z M 72 49 C 75 49 78 52 80 55 C 82 58 82 62 81 65 C 80 69 78 72 75 73 L 75 73 C 71 76 66 76 62 74 L 67 61 L 72 49 Z M 137 94 C 130 91 127 84 130 77 C 131 73 133 71 137 69 L 146 94 C 143 95 140 95 137 94 Z M 164 178 C 152 189 131 194 100 194 C 70 194 48 189 36 178 C 27 170 26 162 26 158 C 26 144 37 133 50 133 C 57 133 58 137 58 141 L 58 172 C 58 179 63 185 70 185 C 77 185 83 179 83 172 L 83 158 C 83 157 84 153 89 153 C 92 153 94 155 94 159 L 94 162 C 94 169 100 175 107 175 C 114 175 120 169 120 162 L 120 152 C 120 140 130 133 150 133 C 163 133 174 144 174 158 C 174 162 173 170 164 178 Z"/>  <path d="M 119 75 C 119 67 113 60 105 60 C 97 60 90 67 90 75 C 90 83 97 90 105 90 C 113 90 119 83 119 75 Z M 105 84 C 100 84 96 80 96 75 C 96 70 100 66 105 66 C 110 66 114 70 114 75 C 114 80 110 84 105 84 Z"/></svg>
