<?xml version="1.0" ?>
<svg xmlns="http://www.w3.org/2000/svg" version="1.1" width="256" height="256">
  <defs/>
  <g>
    <path d="M 69.94312286376953 -4.793351173400879 C 71.78849029541016 9.613845825195312 18.47908592224121 128.336669921875 2.4129867553710938 143.3928985595703 C 8.287163734436035 155.18923950195312 43.718658447265625 192.56842041015625 50.39571762084961 199.01170349121094 C 60.008296966552734 196.9473876953125 152.3809814453125 177.88442993164062 213.712158203125 204.98532104492188 C 235.8056182861328 254.78501892089844 270.05853271484375 233.49856567382812 272.8905944824219 28.868553161621094 C 274.4568176269531 29.334579467773438 222.14736938476562 -89.29810333251953 213.6430206298828 -79.93099212646484 C 133.8939208984375 -23.179256439208984 105.85904693603516 -20.924352645874023 69.94312286376953 -4.793351173400879" stroke-width="1.0" fill="rgb(0, 0, 0)" opacity="0.9996282"/>
    <path d="M 87.42790222167969 152.15994262695312 C 96.7255859375 159.75967407226562 115.41551208496094 157.5184783935547 111.84991455078125 122.93387603759766 C 106.56990051269531 74.22252655029297 137.1476593017578 31.528106689453125 150.6598358154297 1.9464731216430664 C 120.62584686279297 -41.185447692871094 83.73101043701172 -21.94133186340332 21.151756286621094 -40.503841400146484 C 21.758283615112305 -42.360408782958984 -21.245391845703125 85.48674011230469 -17.804269790649414 83.48979187011719 C 28.901887893676758 139.14666748046875 58.02408218383789 180.9546661376953 54.016326904296875 219.6041717529297 C 72.90092468261719 254.11508178710938 141.30319213867188 253.7211456298828 143.7504425048828 182.31455993652344 C 116.42484283447266 133.68939208984375 107.96172332763672 125.80284881591797 87.42790222167969 152.15994262695312" stroke-width="1.0" fill="rgb(243, 229, 83)" opacity="1.0"/>
    <path d="M 234.20114135742188 205.72056579589844 C 164.36669921875 68.46016693115234 141.30123901367188 67.03357696533203 111.17755126953125 122.01161193847656 C 111.9627685546875 107.52596282958984 110.43119049072266 151.37057495117188 128.88072204589844 166.96153259277344 C 157.16061401367188 210.62965393066406 169.97613525390625 205.15721130371094 106.90991973876953 236.78395080566406 C 60.05181121826172 235.97796630859375 83.35614013671875 221.66070556640625 71.05229187011719 175.40914916992188 C 88.96310424804688 156.3075714111328 91.11604309082031 160.62828063964844 86.85377502441406 161.03448486328125 C 88.49774932861328 158.5774688720703 94.307861328125 157.43809509277344 80.40569305419922 159.9345245361328 C 84.81928253173828 159.215576171875 91.9022216796875 157.6108856201172 99.90451049804688 159.51768493652344 C 94.8010025024414 158.0020294189453 84.26519012451172 159.9969024658203 96.45008850097656 156.98497009277344 C 82.94673919677734 164.34014892578125 69.86157989501953 172.1016387939453 67.8454818725586 185.00064086914062 C 74.21803283691406 168.13157653808594 79.50057983398438 170.1558837890625 77.59137725830078 174.111083984375 C 66.83345031738281 193.22119140625 69.80145263671875 168.11758422851562 90.91864013671875 159.05393981933594 C 90.73113250732422 154.3208770751953 78.38740539550781 175.6781005859375 48.04291915893555 175.8347625732422 C -0.6665164232254028 126.56938934326172 -18.385074615478516 104.53507995605469 -53.245216369628906 231.48013305664062 C -50.830814361572266 241.07102966308594 -47.96154022216797 272.7585144042969 128.25216674804688 273.8017883300781 C 267.41314697265625 286.9203186035156 274.5668029785156 258.3473815917969 271.5474853515625 205.92129516601562 C 269.5802307128906 75.48214721679688 280.4372863769531 182.91354370117188 234.20114135742188 205.72056579589844" stroke-width="1.0" fill="rgb(1, 0, 0)" opacity="1.0"/>
    <path d="M 109.19911193847656 136.59747314453125 C 105.57044982910156 130.64186096191406 112.37786102294922 145.8135986328125 132.6917724609375 168.17108154296875 C 96.1242446899414 164.88720703125 132.42935180664062 147.99644470214844 219.18260192871094 176.48324584960938 C 246.53579711914062 221.89251708984375 204.1864013671875 256.9820861816406 113.95988464355469 252.0557861328125 C 94.9192886352539 175.41513061523438 102.40326690673828 207.4964141845703 113.68107604980469 192.2590789794922 C 119.58021545410156 143.66656494140625 129.0979461669922 125.26110076904297 127.82992553710938 134.62503051757812 C 84.85292053222656 168.45346069335938 82.49337768554688 163.50375366210938 70.12139892578125 172.25390625 C 64.08556365966797 159.15687561035156 64.06612396240234 173.39427185058594 74.92086791992188 161.86744689941406 C 87.48548126220703 162.41505432128906 77.15829467773438 161.66966247558594 132.31149291992188 142.5974578857422 C 98.93152618408203 275.5547790527344 64.92289733886719 245.41517639160156 81.6819076538086 160.70166015625 C 45.23566436767578 169.93441772460938 82.67119598388672 192.11151123046875 77.27192687988281 168.2861785888672 C 72.70953369140625 180.5208282470703 84.95936584472656 163.87095642089844 56.05406188964844 167.15101623535156 C 35.80654525756836 177.74551391601562 25.506141662597656 176.46112060546875 10.782671928405762 143.10084533691406 C -12.905502319335938 80.06951141357422 -15.000948905944824 91.32160186767578 29.401416778564453 147.2212371826172 C 23.427534103393555 191.4917449951172 12.149548530578613 246.64910888671875 114.06834411621094 251.9632110595703 C 92.7396011352539 173.8285369873047 104.8476333618164 167.39376831054688 186.0082244873047 169.50701904296875 C 192.62205505371094 146.0523681640625 156.89288330078125 114.6998519897461 109.19911193847656 136.59747314453125" stroke-width="1.0" fill="rgb(255, 180, 128)" opacity="0.98881906"/>
    <path d="M 66.09735870361328 103.2667236328125 C 67.20484161376953 118.18362426757812 62.8448600769043 115.89982604980469 66.58465576171875 117.11284637451172 C 69.13253784179688 114.09173583984375 64.60963439941406 117.39765930175781 63.65427017211914 110.54558563232422 C 62.56404495239258 115.32904815673828 65.33686065673828 113.2403793334961 63.54928970336914 112.62364196777344 C 66.07219696044922 108.79451751708984 71.8759994506836 110.63204956054688 66.09735870361328 103.2667236328125" stroke-width="1.0" fill="rgb(136, 134, 99)" opacity="0.7212512"/>
    <path d="M 123.99259948730469 87.46363830566406 C 130.21885681152344 61.98006820678711 99.7902603149414 90.75579071044922 110.56292724609375 196.447509765625 C 248.23226928710938 193.8082275390625 226.0308380126953 217.85772705078125 178.27659606933594 84.4844741821289 C 91.31090545654297 74.02141571044922 93.24283599853516 80.23806762695312 88.3980941772461 80.41194915771484 C 116.1881332397461 140.6527099609375 126.83745574951172 131.54310607910156 123.99259948730469 87.46363830566406" stroke-width="1.0" fill="rgb(249, 227, 133)" opacity="1.0"/>
    <path d="M 72.82122039794922 97.88578796386719 C 83.4749526977539 73.99414825439453 86.46451568603516 56.45279312133789 97.52156066894531 38.161197662353516 C 114.97489929199219 -8.50829029083252 135.02261352539062 -17.783382415771484 -1.615545392036438 -16.963409423828125 C -5.065877437591553 -23.51064682006836 -15.658220291137695 6.941459655761719 -13.079038619995117 157.3426055908203 C 61.759456634521484 162.47201538085938 53.44459533691406 142.10009765625 72.82122039794922 97.88578796386719" stroke-width="1.0" fill="rgb(74, 1, 1)" opacity="1.0"/>
    <path d="M 179.41506958007812 89.004150390625 C 160.7650146484375 35.279354095458984 150.8574676513672 38.97608184814453 153.3879852294922 53.468055725097656 C 127.24883270263672 85.60384368896484 166.24560546875 63.701629638671875 179.02268981933594 92.1800537109375 C 140.96408081054688 140.40452575683594 100.69509887695312 116.04691314697266 114.51789855957031 52.517154693603516 C 170.64593505859375 50.77335739135742 146.5691375732422 63.3192138671875 179.41506958007812 89.004150390625" stroke-width="1.0" fill="rgb(248, 237, 129)" opacity="0.9724469"/>
    <path d="M 83.76197814941406 89.67123413085938 C 88.23539733886719 49.51246643066406 84.0250244140625 55.78284454345703 85.98564147949219 53.17509841918945 C 138.9803466796875 45.9650993347168 135.2947998046875 38.95396041870117 127.0944595336914 60.77457809448242 C 87.68444061279297 109.59419250488281 133.34695434570312 117.60311889648438 81.6061782836914 113.88565826416016 C 86.53942108154297 57.703575134277344 96.15557861328125 64.13526916503906 83.76197814941406 89.67123413085938" stroke-width="1.0" fill="rgb(243, 229, 82)" opacity="0.98903614"/>
    <path d="M 111.05399322509766 84.29287719726562 C 126.56539154052734 21.194814682006836 131.91372680664062 33.2625732421875 126.9278564453125 55.46734619140625 C 126.52196502685547 1.3909250497817993 155.40928649902344 -0.5848434567451477 164.91001892089844 61.96767807006836 C 125.38443756103516 -30.867158889770508 99.5843734741211 -7.292983531951904 149.39805603027344 12.79745864868164 C 184.61288452148438 100.45423889160156 186.6645050048828 89.05086517333984 111.05399322509766 84.29287719726562" stroke-width="1.0" fill="rgb(248, 237, 129)" opacity="0.99653697"/>
    <path d="M 123.99018096923828 110.83406066894531 C 123.42236328125 110.0354232788086 124.71139526367188 111.16709899902344 119.2774887084961 114.20757293701172 C 122.79277038574219 112.1123275756836 123.87489318847656 111.09429931640625 121.47990417480469 112.7383804321289 C 121.56056213378906 113.64838409423828 122.87704467773438 112.6942138671875 121.79840087890625 113.38555908203125 C 121.92534637451172 111.7445297241211 122.61964416503906 112.74872589111328 122.89904022216797 112.56140899658203 C 121.11140441894531 112.40437316894531 124.07366943359375 110.88753509521484 123.96698760986328 113.18928527832031 C 123.52182006835938 110.84049987792969 121.72010040283203 112.55367279052734 123.99018096923828 110.83406066894531" stroke-width="1.0" fill="rgb(102, 104, 95)" opacity="0.6037653"/>
    <path d="M 75.44120788574219 109.88673400878906 C 74.63551330566406 109.82249450683594 76.3524169921875 110.11255645751953 78.63511657714844 110.85039520263672 C 77.79792785644531 109.8575210571289 79.77752685546875 111.00794982910156 77.90484619140625 110.50221252441406 C 79.00214385986328 111.68136596679688 78.00233459472656 110.19062805175781 79.0500717163086 110.41698455810547 C 78.83470916748047 112.26824188232422 78.24720764160156 110.455322265625 79.26168060302734 111.01549530029297 C 78.74646759033203 110.41828918457031 74.94379425048828 109.93417358398438 75.01123046875 109.23451232910156 C 74.41165161132812 109.77134704589844 76.20167541503906 109.64204406738281 75.44120788574219 109.88673400878906" stroke-width="1.0" fill="rgb(106, 105, 79)" opacity="0.5786482"/>
    <path d="M 99.43114471435547 109.78276824951172 C 98.6634521484375 111.2248306274414 98.40438079833984 114.53703308105469 100.74161529541016 113.96637725830078 C 102.50274658203125 113.11353302001953 99.17352294921875 115.00019073486328 102.27503204345703 113.11654663085938 C 103.40508270263672 116.1183853149414 102.51387023925781 114.25466918945312 102.1429443359375 112.66555786132812 C 101.39899444580078 112.34622192382812 102.2694320678711 113.50334167480469 103.21939849853516 112.29153442382812 C 99.52442169189453 115.69075012207031 98.72846984863281 113.24134826660156 98.50590515136719 111.27131652832031 C 98.89071655273438 113.27944946289062 101.17910766601562 112.2105712890625 102.60616302490234 110.42040252685547 C 97.24821472167969 115.39158630371094 98.50665283203125 108.30162048339844 100.84329986572266 109.78153991699219 C 102.68504333496094 108.8483657836914 103.13809967041016 109.57966613769531 99.43114471435547 109.78276824951172" stroke-width="1.0" fill="rgb(119, 117, 24)" opacity="0.4745738"/>
    <path d="M 154.1569366455078 153.20887756347656 C 160.5817108154297 138.10433959960938 115.24518585205078 20.372478485107422 123.43988037109375 16.572673797607422 C 161.44891357421875 -3.4245107173919678 175.80429077148438 28.67677879333496 201.0139923095703 3.8445611000061035 C 98.58627319335938 -43.080204010009766 65.84553527832031 -16.39618492126465 20.96106719970703 -43.264625549316406 C 13.017395973205566 -53.203365325927734 -22.96013069152832 29.825040817260742 -23.6870059967041 30.367877960205078 C -4.34092378616333 136.74942016601562 14.158745765686035 123.76302337646484 29.092710494995117 125.75665283203125 C 61.58359146118164 127.39249420166016 62.3788948059082 121.78645324707031 58.70622253417969 109.24947357177734 C 62.80479049682617 112.97024536132812 71.51461029052734 90.19026947021484 67.12200927734375 92.79205322265625 C 47.267433166503906 109.4908447265625 65.51087951660156 118.6628189086914 70.57772064208984 106.02787780761719 C 80.8787612915039 80.44949340820312 84.45356750488281 70.95115661621094 86.85659790039062 64.9644775390625 C 91.70872497558594 51.48015213012695 98.86822509765625 36.56006622314453 102.1137924194336 24.550216674804688 C 105.76673126220703 18.182920455932617 96.63274383544922 13.157877922058105 86.48664093017578 18.945892333984375 C 89.45406341552734 56.94179153442383 98.947265625 28.262880325317383 93.24398803710938 29.987201690673828 C 96.59554290771484 25.380666732788086 101.1006851196289 18.96291160583496 102.35694122314453 27.3896541595459 C 102.20551300048828 15.813618659973145 120.14859771728516 -7.590759754180908 145.53614807128906 9.380815505981445 C 115.95362854003906 16.013601303100586 121.98628997802734 16.571928024291992 124.82234954833984 34.32892990112305 C 118.6942138671875 34.72118377685547 114.27247619628906 35.05802536010742 116.61031341552734 43.159698486328125 C 116.10676574707031 38.6876335144043 116.94979858398438 46.027305603027344 115.53175354003906 45.252140045166016 C 116.6703109741211 42.32112503051758 116.8677749633789 46.73148727416992 117.3519515991211 42.599308013916016 C 115.72167205810547 45.919437408447266 117.72853088378906 45.918601989746094 117.39705657958984 47.7551155090332 C 116.76513671875 43.9986457824707 116.6351089477539 45.790287017822266 116.8692626953125 45.052242279052734 C 114.38005828857422 36.027042388916016 116.9919204711914 34.4296875 125.20356750488281 34.44920349121094 C 123.52416229248047 31.159032821655273 133.24961853027344 64.876708984375 137.61134338378906 79.4121322631836 C 140.5064239501953 87.96733856201172 137.88473510742188 84.6725082397461 143.79904174804688 87.74569702148438 C 140.20132446289062 78.14818572998047 142.8455352783203 84.85269165039062 143.74014282226562 87.55355834960938 C 137.90634155273438 85.02995300292969 139.5522003173828 85.36141967773438 140.40196228027344 88.05384826660156 C 144.30178833007812 103.36726379394531 155.54934692382812 135.91322326660156 155.2933807373047 155.71571350097656 C 154.8081817626953 147.4514923095703 156.35308837890625 148.31533813476562 151.6901397705078 156.89764404296875 C 146.87290954589844 164.4547119140625 140.91590881347656 167.71847534179688 140.8907928466797 167.80184936523438 C 142.3280487060547 166.95741271972656 136.9002685546875 170.6350555419922 132.2109832763672 172.45370483398438 C 128.72122192382812 174.14999389648438 123.08367919921875 175.7588348388672 116.02299499511719 177.3614044189453 C 90.70114135742188 181.5491180419922 82.77782440185547 178.598876953125 89.91708374023438 180.97344970703125 C 89.32550048828125 178.37191772460938 88.71206665039062 171.6321258544922 89.78974151611328 180.453125 C 84.41265106201172 168.9610137939453 86.54985809326172 165.0913543701172 81.59495544433594 167.66770935058594 C 86.37008666992188 164.07476806640625 84.81534576416016 171.4183349609375 90.5678482055664 182.06590270996094 C 89.030517578125 179.63938903808594 93.29615020751953 181.986083984375 91.58262634277344 181.3365020751953 C 74.7260513305664 176.87818908691406 76.08111572265625 181.8172149658203 59.85532760620117 196.02212524414062 C 32.326480865478516 225.34060668945312 42.858211517333984 248.11021423339844 29.816858291625977 208.27899169921875 C 26.94507598876953 179.5373992919922 45.662445068359375 175.04563903808594 45.414363861083984 169.45387268066406 C 68.20568084716797 112.81168365478516 73.1904296875 99.01194763183594 73.64076232910156 97.39105224609375 C 40.86700439453125 120.89517974853516 33.449798583984375 120.68195343017578 49.0294189453125 129.8803253173828 C 53.76537322998047 143.6017608642578 57.6004753112793 125.84121704101562 62.958404541015625 124.57833099365234 C 70.261962890625 104.56481170654297 67.20018005371094 97.47358703613281 59.04177474975586 95.11795806884766 C 25.218982696533203 85.85761260986328 26.13174819946289 78.8563003540039 -7.519214630126953 63.297935485839844 C -4.890418529510498 65.28118896484375 -12.091468811035156 88.8365707397461 -8.856600761413574 93.0653076171875 C -22.036296844482422 107.39769744873047 -52.45828628540039 148.53257751464844 8.873342514038086 274.7063903808594 C 57.99158477783203 272.9870300292969 7.340350151062012 235.64846801757812 77.88976287841797 179.7674560546875 C 155.2704620361328 182.14056396484375 154.6334991455078 148.62799072265625 157.1193389892578 141.30128479003906 C 151.28231811523438 164.5463104248047 153.42361450195312 156.3778839111328 154.1569366455078 153.20887756347656" stroke-width="1.0" fill="rgb(0, 0, 0)" opacity="0.9789832"/>
    <path d="M 79.70098114013672 64.80513763427734 C 68.64877319335938 62.56318283081055 75.37147521972656 64.71411895751953 59.57586669921875 54.791744232177734 C 54.43330383300781 101.38490295410156 33.44192886352539 110.4696044921875 23.086956024169922 24.53624153137207 C 79.87759399414062 31.3175106048584 77.92976379394531 58.01902770996094 65.17351531982422 36.107295989990234 C 47.29445266723633 77.57565307617188 89.28775024414062 45.33866500854492 79.1731185913086 20.309011459350586 C 46.5793571472168 59.49995422363281 58.863746643066406 48.147865295410156 94.64332580566406 33.879390716552734 C 83.62275695800781 79.90376281738281 77.66832733154297 91.76200103759766 42.157867431640625 104.90838623046875 C 59.57794952392578 41.045265197753906 75.00560760498047 25.425567626953125 79.70098114013672 64.80513763427734" stroke-width="1.0" fill="rgb(0, 0, 0)" opacity="0.96666324"/>
  </g>
</svg>
