<?xml version="1.0" ?>
<svg xmlns="http://www.w3.org/2000/svg" xmlns:ev="http://www.w3.org/2001/xml-events" xmlns:xlink="http://www.w3.org/1999/xlink" baseProfile="full" height="600px" version="1.1" viewBox="7.4030000000000005 -16.497000000000003 186.194 232.994" width="480px">
	<defs/>
	<path d="M 82.0,15.0 C 82.0,15.0 33.0,138.0 33.0,138.0 C 33.0,138.0 57.0,183.0 57.0,183.0 C 57.0,183.0 144.0,180.0 144.0,180.0 C 144.0,180.0 167.0,138.0 167.0,138.0 C 167.0,138.0 119.0,15.0 119.0,15.0 C 112.0,-1.0 89.0,-1.0 82.0,15.0" fill="#f9ee80"/>
	<path d="M 80.0,158.0 C 78.0,142.0 88.0,136.0 85.0,100.0 C 81.0,50.0 111.0,6.0 111.0,6.0 C 101.0,0.0 87.0,3.0 82.0,15.0 C 82.0,15.0 33.0,138.0 33.0,138.0 C 33.0,138.0 57.0,183.0 57.0,183.0 C 57.0,183.0 91.0,182.0 91.0,182.0 C 84.0,172.0 81.0,164.0 80.0,158.0" fill="#f4e74d"/>
	<path d="M 150.0,130.0 C 142.0,130.0 117.0,131.0 117.0,152.0 C 117.0,152.0 117.0,162.0 117.0,162.0 C 117.0,167.0 113.0,172.0 107.0,172.0 C 102.0,172.0 98.0,167.0 98.0,162.0 C 98.0,162.0 98.0,159.0 98.0,159.0 C 98.0,154.0 94.0,150.0 89.0,150.0 C 84.0,150.0 80.0,153.0 80.0,158.0 C 80.0,158.0 80.0,172.0 80.0,172.0 C 80.0,177.0 76.0,182.0 71.0,182.0 C 65.0,182.0 61.0,177.0 61.0,172.0 C 61.0,172.0 61.0,141.0 61.0,141.0 C 61.0,130.0 51.0,130.0 51.0,130.0 C 35.0,130.0 23.0,142.0 23.0,157.0 C 23.0,165.0 27.0,197.0 100.0,197.0 C 174.0,197.0 178.0,165.0 178.0,157.0 C 178.0,142.0 165.0,130.0 150.0,130.0" fill="#ffc7a4"/>
	<path d="M 126.0,135.0 C 121.0,139.0 117.0,144.0 117.0,152.0 C 117.0,152.0 117.0,162.0 117.0,162.0 C 117.0,167.0 113.0,172.0 107.0,172.0 C 102.0,172.0 98.0,167.0 98.0,162.0 C 98.0,162.0 98.0,159.0 98.0,159.0 C 98.0,154.0 94.0,150.0 89.0,150.0 C 84.0,150.0 80.0,153.0 80.0,158.0 C 80.0,158.0 80.0,172.0 80.0,172.0 C 80.0,177.0 76.0,182.0 71.0,182.0 C 65.0,182.0 61.0,177.0 61.0,172.0 C 61.0,172.0 61.0,141.0 61.0,141.0 C 61.0,130.0 51.0,130.0 51.0,130.0 C 35.0,130.0 23.0,142.0 23.0,157.0 C 23.0,165.0 27.0,197.0 100.0,197.0 C 119.0,197.0 133.0,195.0 144.0,192.0 C 157.0,157.0 126.0,135.0 126.0,135.0" fill="#ffaa75"/>
	<path d="M 79.0,117.0 C 79.0,113.0 75.0,110.0 71.0,110.0 C 66.0,110.0 62.0,113.0 62.0,117.0 C 62.0,120.0 66.0,123.0 71.0,123.0 C 75.0,123.0 79.0,120.0 79.0,117.0" fill="#fdb2db"/>
	<path d="M 138.0,117.0 C 138.0,113.0 135.0,110.0 130.0,110.0 C 126.0,110.0 122.0,113.0 122.0,117.0 C 122.0,120.0 126.0,123.0 130.0,123.0 C 135.0,123.0 138.0,120.0 138.0,117.0" fill="#fdb2db"/>
	<path d="M 77.0,76.0 C 84.0,71.0 87.0,61.0 83.0,54.0 C 80.0,49.0 75.0,46.0 70.0,45.0 C 70.0,45.0 59.0,75.0 59.0,75.0 C 64.0,78.0 71.0,79.0 77.0,76.0" fill="#fb695b"/>
	<path d="M 127.0,76.0 C 124.0,84.0 128.0,94.0 137.0,97.0 C 141.0,99.0 146.0,98.0 151.0,96.0 C 151.0,96.0 139.0,65.0 139.0,65.0 C 134.0,67.0 129.0,70.0 127.0,76.0" fill="#fb695b"/>
	<path d="M 116.0,75.0 C 116.0,82.0 111.0,87.0 105.0,87.0 C 98.0,87.0 93.0,82.0 93.0,75.0 C 93.0,69.0 98.0,63.0 105.0,63.0 C 111.0,63.0 116.0,69.0 116.0,75.0" fill="#ff938a"/>
	<path d="M 125.0,30.0 C 120.0,30.0 115.0,32.0 114.0,37.0 C 112.0,42.0 114.0,48.0 120.0,50.0 C 124.0,52.0 129.0,51.0 131.0,47.0 C 131.0,47.0 125.0,30.0 125.0,30.0" fill="#ff938a"/>
	<path d="M 127.0,113.0 C 127.0,113.0 127.0,108.0 127.0,108.0 C 127.0,106.0 126.0,105.0 125.0,105.0 C 123.0,105.0 122.0,106.0 122.0,108.0 C 122.0,108.0 122.0,113.0 122.0,113.0 C 122.0,114.0 123.0,116.0 125.0,116.0 C 126.0,116.0 127.0,114.0 127.0,113.0" fill="black"/>
	<path d="M 79.0,113.0 C 79.0,113.0 79.0,108.0 79.0,108.0 C 79.0,106.0 78.0,105.0 76.0,105.0 C 75.0,105.0 73.0,106.0 73.0,108.0 C 73.0,108.0 73.0,113.0 73.0,113.0 C 73.0,114.0 75.0,116.0 76.0,116.0 C 78.0,116.0 79.0,114.0 79.0,113.0" fill="black"/>
	<path d="M 102.0,110.0 C 102.0,111.0 101.0,111.0 100.0,111.0 C 100.0,111.0 99.0,111.0 98.0,110.0 C 98.0,108.0 96.0,108.0 94.0,109.0 C 93.0,110.0 93.0,112.0 93.0,113.0 C 95.0,115.0 98.0,117.0 100.0,117.0 C 103.0,117.0 106.0,115.0 107.0,113.0 C 108.0,112.0 108.0,110.0 106.0,109.0 C 106.0,109.0 104.0,108.0 102.0,110.0" fill="black"/>
	<path d="M 72.0,49.0 C 75.0,49.0 78.0,52.0 80.0,55.0 C 82.0,58.0 82.0,62.0 81.0,65.0 C 80.0,69.0 78.0,72.0 75.0,73.0 C 75.0,73.0 75.0,73.0 75.0,73.0 C 71.0,76.0 66.0,76.0 62.0,74.0 C 62.0,74.0 67.0,61.0 67.0,61.0 C 67.0,61.0 72.0,49.0 72.0,49.0" fill="black"/>
	<path d="M 137.0,94.0 C 130.0,91.0 127.0,84.0 130.0,77.0 C 131.0,73.0 133.0,71.0 137.0,69.0 C 137.0,69.0 146.0,94.0 146.0,94.0 C 143.0,95.0 140.0,95.0 137.0,94.0" fill="black"/>
	<path d="M 119.0,75.0 C 119.0,67.0 113.0,60.0 105.0,60.0 C 97.0,60.0 90.0,67.0 90.0,75.0 C 90.0,83.0 97.0,90.0 105.0,90.0 C 113.0,90.0 119.0,83.0 119.0,75.0" fill="black"/>
	<path d="M 105.0,84.0 C 100.0,84.0 96.0,80.0 96.0,75.0 C 96.0,70.0 100.0,66.0 105.0,66.0 C 110.0,66.0 114.0,70.0 114.0,75.0 C 114.0,80.0 110.0,84.0 105.0,84.0" fill="black"/>
</svg>
