<svg xmlns="http://www.w3.org/2000/svg" height="200" width="200" viewBox="0 0 200 200">  <path d="M 91 39 C 105 36 120 39 131 48 A 48 48 0 0 1 149 87 A 48 48 0 0 1 129 124 A 14 14 0 0 0 123 135 L 123 142 L 121 145 L 119 145 L 84 152 L 84 152 C 81 152 79 150 79 148 C 79 146 81 144 83 143 L 114 138 L 114 135 A 22 22 0 0 1 124 117 A 39 39 0 0 0 140 87 A 39 39 0 0 0 126 55 A 39 39 0 0 0 93 47 A 39 39 0 0 0 62 81 A 39 39 0 0 0 84 120 A 4 4 0 0 1 80 128 C 62 119 51 100 54 80 A 48 48 0 0 1 91 39 Z M 81 163 C 81 165 82 166 84 166 C 84 166 84 166 85 166 L 85 166 L 119 160 A 4 4 0 0 0 122 156 A 4 4 0 0 0 119 153 C 119 153 118 153 118 153 L 118 153 L 84 159 L 84 159 A 4 4 0 0 0 81 163 Z M 89 181 C 92 183 95 183 98 183 C 102 183 105 182 108 181 L 108 181 L 108 181 A 3 3 0 0 0 110 178 A 3 3 0 0 0 108 175 A 3 3 0 0 0 106 174 A 3 3 0 0 0 105 175 L 105 175 L 105 175 C 103 176 100 177 98 177 L 97 177 C 97 177 97 176 97 176 C 96 176 96 176 96 176 C 96 176 95 176 95 176 A 14 14 0 0 1 93 175 C 93 175 92 175 92 175 A 3 3 0 0 0 88 177 A 3 3 0 0 0 89 181 Z" fill="#005BFF"/>  <path d="M 81 163 C 81 165 82 166 84 166 C 84 166 84 166 85 166 L 85 166 L 119 160 A 4 4 0 0 0 122 156 A 4 4 0 0 0 119 153 C 119 153 118 153 118 153 L 118 153 L 84 159 L 84 159 A 4 4 0 0 0 81 163 Z" fill="#06F3FF"/>  <path d="M 28 101 A 3 3 0 1 1 28 94 L 37 94 A 3 3 0 1 1 37 101 L 28 101 Z M 49 53 A 3 3 0 0 1 47 52 L 41 46 A 4 4 0 0 1 41 41 C 41 40 42 40 43 40 C 44 40 45 40 46 41 L 52 47 A 4 4 0 0 1 52 52 A 3 3 0 0 1 49 53 Z M 102 32 A 3 3 0 0 1 98 29 L 98 20 A 3 3 0 0 1 102 17 C 102 17 103 17 104 17 A 4 4 0 0 1 105 20 L 105 29 C 105 30 105 31 104 31 A 3 3 0 0 1 102 32 Z M 154 51 A 3 3 0 0 1 151 50 A 4 4 0 0 1 151 45 L 157 38 C 158 38 159 37 160 37 A 4 4 0 0 1 162 43 L 156 50 A 4 4 0 0 1 154 51 Z M 167 101 A 3 3 0 1 1 167 94 L 176 94 C 178 94 179 96 179 98 C 179 100 178 101 176 101 L 167 101 Z M 104 55 A 2 2 0 0 0 101 54 C 85 57 78 66 74 73 C 71 80 71 87 71 87 A 2 2 0 0 0 73 89 A 2 2 0 0 0 74 89 A 2 2 0 0 0 75 87 C 75 87 75 81 78 74 C 82 65 91 60 102 57 A 2 2 0 0 0 104 55 Z" fill="#005BFF"/></svg>
