<?xml version="1.0" ?>
<svg xmlns="http://www.w3.org/2000/svg" version="1.1" width="256" height="256">
  <defs/>
  <g>
    <path d="M 25.86351203918457 -15.452729225158691 C 156.88323974609375 -11.499137878417969 174.00497436523438 -13.239047050476074 198.15122985839844 -17.846691131591797 C 233.74673461914062 -26.993980407714844 259.6949768066406 -38.43921661376953 272.3420104980469 39.908111572265625 C 300.23095703125 82.22887420654297 310.48895263671875 266.23980712890625 191.96946716308594 318.6004943847656 C 87.2012710571289 338.4878234863281 129.566650390625 259.5508117675781 163.69459533691406 139.41294860839844 C 153.70449829101562 151.60403442382812 135.8760986328125 182.7356414794922 155.7220001220703 164.85385131835938 C 123.55979919433594 209.17962646484375 162.13424682617188 200.96466064453125 149.26016235351562 183.5517120361328 C 81.83995056152344 166.06765747070312 121.10012817382812 192.97671508789062 168.76104736328125 177.88233947753906 C 176.76077270507812 191.5185546875 102.73867797851562 190.74110412597656 80.47022247314453 204.42005920410156 C 56.61228561401367 199.64089965820312 80.75176239013672 160.68492126464844 107.89723205566406 214.2096710205078 C 163.6655731201172 248.00070190429688 217.2009735107422 232.82899475097656 15.097753524780273 298.94110107421875 C -53.01353454589844 139.2088165283203 0.461845725774765 88.04544830322266 82.67677307128906 94.20875549316406 C 92.6948013305664 134.24343872070312 111.22679138183594 128.7051239013672 117.5873031616211 112.72662353515625 C 108.51704406738281 152.77572631835938 108.02620697021484 143.9552001953125 86.33214569091797 110.99401092529297 C 70.61397552490234 84.81390380859375 71.05448913574219 57.39078903198242 90.3364486694336 47.64662170410156 C 119.0638198852539 59.8044319152832 136.13111877441406 58.528926849365234 120.67488861083984 46.98848342895508 C 107.39440155029297 70.79157257080078 115.08480834960938 53.6181640625 87.82298278808594 68.90849304199219 C 91.9280014038086 72.45238494873047 76.89363098144531 48.46406936645508 96.68580627441406 40.71232604980469 C 87.6118392944336 55.60965347290039 89.60865783691406 78.25762176513672 100.10344696044922 79.42969512939453 C 95.89271545410156 70.85294342041016 106.0317153930664 80.09906768798828 129.2674102783203 79.0303726196289 C 133.4150390625 87.38180541992188 152.78329467773438 84.40003967285156 144.1716766357422 136.61424255371094 C 111.2093276977539 166.3909149169922 136.39163208007812 190.24923706054688 33.95475387573242 246.2499542236328 C -6.640429496765137 190.62750244140625 -11.807208061218262 112.21015930175781 -10.427353858947754 39.85346603393555 C -9.022818565368652 -7.8080291748046875 4.321621894836426 -24.3695125579834 25.86351203918457 -15.452729225158691" stroke-width="1.0" fill="rgb(0, 6, 16)" opacity="0.9983184"/>
    <path d="M 120.24215698242188 256.1668701171875 C 21.265296936035156 267.8568115234375 -17.860027313232422 285.9797668457031 32.42573547363281 291.44091796875 C 136.23220825195312 218.5547637939453 140.2579803466797 203.66818237304688 128.24273681640625 216.6519012451172 C 110.90699005126953 232.9232635498047 121.65509796142578 225.3795928955078 67.24076843261719 267.51318359375 C 25.65650749206543 274.2662658691406 41.64321517944336 288.3658752441406 232.7104034423828 291.09820556640625 C 180.29881286621094 284.8680419921875 95.34803771972656 333.45770263671875 130.42958068847656 220.47708129882812 C 217.7220458984375 78.31712341308594 211.85858154296875 71.75334930419922 137.76181030273438 171.38137817382812 C 70.45083618164062 183.4464111328125 106.27427673339844 175.77899169921875 100.8137435913086 177.82452392578125 C 95.80828094482422 190.58168029785156 106.04943084716797 182.2633056640625 96.51207733154297 188.931884765625 C 92.51666259765625 180.46434020996094 78.82990264892578 174.8603515625 87.74969482421875 182.31358337402344 C 77.04277801513672 177.65663146972656 88.82476806640625 181.3910369873047 113.59426879882812 193.81678771972656 C 91.0018081665039 254.88507080078125 139.5023651123047 188.6011505126953 120.24215698242188 256.1668701171875" stroke-width="1.0" fill="rgb(0, 90, 251)" opacity="0.9787886"/>
    <path d="M -10.0042142868042 269.8719177246094 C 148.5917510986328 255.94573974609375 87.18311309814453 189.6828155517578 -2.8661465644836426 251.56124877929688 C 20.703712463378906 270.5198669433594 142.7885284423828 267.6945495605469 255.20501708984375 305.1105651855469 C 238.1759490966797 114.08354949951172 172.6110076904297 191.02828979492188 80.17901611328125 189.9051513671875 C 206.4539794921875 124.86264038085938 130.39730834960938 109.42312622070312 164.52703857421875 310.08392333984375 C 325.6314697265625 261.08544921875 315.9736328125 102.52239990234375 191.6024932861328 128.95249938964844 C 111.26655578613281 200.6704864501953 215.14346313476562 125.68080139160156 85.49811553955078 108.79663848876953 C 82.86564636230469 166.33358764648438 120.26496887207031 137.135498046875 104.16468811035156 156.16873168945312 C 91.69007873535156 166.49822998046875 85.94499969482422 146.47479248046875 80.94527435302734 154.8976287841797 C 92.18693542480469 185.14186096191406 92.0667724609375 181.74569702148438 96.32091522216797 175.03395080566406 C 118.14302062988281 159.18679809570312 103.4111099243164 184.0684814453125 80.90006256103516 131.4921112060547 C 41.147953033447266 36.003868103027344 69.78046417236328 171.23165893554688 21.39259910583496 115.84004211425781 C 6.278630256652832 239.07635498046875 110.59608459472656 213.3949737548828 104.75818634033203 192.70326232910156 C 82.19599151611328 184.76129150390625 90.19710540771484 176.27000427246094 99.14372253417969 167.1582489013672 C 98.37145233154297 171.11732482910156 98.44436645507812 172.49203491210938 91.87958526611328 172.60365295410156 C 92.57646179199219 174.49099731445312 96.85286712646484 181.61984252929688 103.74617004394531 174.9921875 C 102.81897735595703 163.87997436523438 91.87623596191406 162.46421813964844 86.28028106689453 166.62579345703125 C 102.72582244873047 168.97190856933594 105.19164276123047 177.787353515625 86.6952896118164 156.6524658203125 C 63.001930236816406 148.89486694335938 59.57392883300781 145.64944458007812 61.808353424072266 154.23507690429688 C 84.97444152832031 137.62413024902344 78.8847427368164 142.5958709716797 10.11925220489502 118.04073333740234 C -13.649672508239746 96.63595581054688 -19.96329689025879 147.55760192871094 -10.0042142868042 269.8719177246094" stroke-width="1.0" fill="rgb(0, 0, 0)" opacity="0.97458506"/>
    <path d="M 277.96258544921875 24.453659057617188 C 295.79083251953125 111.11192321777344 267.2474365234375 91.01681518554688 186.34947204589844 126.51249694824219 C 205.46339416503906 -2.3942415714263916 311.68963623046875 -67.04460144042969 47.36866760253906 6.3290300369262695 C 177.6182861328125 38.77830505371094 251.0220489501953 6.028717517852783 198.26937866210938 49.049198150634766" stroke-width="2.0" fill="rgb(0, 0, 2)" opacity="0.9837693"/>
    <path d="M 72.9574966430664 75.87149047851562 C 64.05496215820312 95.85421752929688 63.955055236816406 115.57115936279297 73.97657012939453 135.08372497558594 C 89.0411605834961 115.9014663696289 66.72476959228516 96.19409942626953 80.30025482177734 98.46919250488281 C 76.56416320800781 47.29899215698242 202.9940948486328 46.84697723388672 104.1929931640625 46.11252975463867" stroke-width="2.0" fill="rgb(1, 99, 255)" opacity="1.0"/>
    <path d="M 246.7596435546875 149.9760284423828 C 265.5367431640625 145.76901245117188 293.8435974121094 173.18991088867188 235.90980529785156 253.4458770751953 C 200.35586547851562 211.38088989257812 224.5799560546875 171.19972229003906 238.50344848632812 58.361080169677734 C 305.6347351074219 87.10975646972656 274.81146240234375 120.35775756835938 267.4857177734375 149.81597900390625" stroke-width="2.0" fill="rgb(0, 0, 0)" opacity="1.0"/>
    <path d="M 81.24724578857422 196.577880859375 C 102.99837493896484 204.53094482421875 169.30029296875 177.81216430664062 153.3877410888672 198.3424530029297 C 99.11263275146484 211.60494995117188 125.69937133789062 215.0043487548828 42.12919235229492 178.16954040527344 C -22.59366226196289 178.75982666015625 -13.270136833190918 282.3660583496094 9.268926620483398 291.06585693359375" stroke-width="2.0" fill="rgb(4, 251, 255)" opacity="0.9684862"/>
    <path d="M 198.3167724609375 47.626800537109375 C 179.32191467285156 71.39768981933594 192.81773376464844 54.41697692871094 201.04981994628906 62.447547912597656 C 117.0340347290039 57.4991455078125 112.53865051269531 44.09009552001953 199.12391662597656 48.48927307128906 C 201.6663360595703 41.237060546875 219.0789337158203 47.37468719482422 200.48634338378906 60.09857940673828" stroke-width="2.0" fill="rgb(0, 90, 255)" opacity="0.77876174"/>
    <path d="M 189.53948974609375 106.3168716430664 C 188.55709838867188 41.94656753540039 102.6757583618164 36.7594108581543 148.7325897216797 62.13729476928711 C 199.01063537597656 86.7620849609375 168.0616912841797 138.4047088623047 171.19729614257812 130.6124725341797 C 208.11538696289062 93.3611831665039 188.62484741210938 111.40131378173828 118.75566101074219 105.7901840209961" stroke-width="2.0" fill="rgb(1, 99, 255)" opacity="1.0"/>
    <path d="M 70.84619903564453 121.65653228759766 C 74.3739013671875 126.82804107666016 73.14262390136719 127.79430389404297 69.72361755371094 122.1014175415039 C 64.67142486572266 112.83550262451172 72.38771057128906 150.18389892578125 103.99791717529297 160.68795776367188 C 125.93727111816406 145.3728790283203 74.35206604003906 154.28607177734375 78.00065612792969 95.95275115966797" stroke-width="2.0" fill="rgb(1, 103, 255)" opacity="0.94602454"/>
    <path d="M 100.41078186035156 218.19326782226562 C 112.97893524169922 160.07986450195312 29.887128829956055 94.90666198730469 -11.450636863708496 206.12367248535156 C 126.49442291259766 217.64646911621094 122.9323501586914 194.82371520996094 172.8233184814453 199.2365264892578 C 136.80490112304688 225.68287658691406 116.54283142089844 215.76356506347656 76.27787780761719 222.92266845703125" stroke-width="2.0" fill="rgb(0, 0, 0)" opacity="0.9990221"/>
    <path d="M 77.58527374267578 63.25518798828125 C 76.84005737304688 48.73548126220703 31.892154693603516 53.4022216796875 -17.472103118896484 52.866451263427734 C -42.43064498901367 67.14590454101562 60.30708312988281 79.3426284790039 39.3300666809082 55.02193832397461 C 44.774864196777344 23.934268951416016 76.8731460571289 41.44322967529297 70.77977752685547 52.57408905029297" stroke-width="2.0" fill="rgb(5, 255, 255)" opacity="0.9676479"/>
    <path d="M 72.93534851074219 50.053348541259766 C 73.51973724365234 82.236328125 26.36232566833496 72.58251190185547 43.1179084777832 42.57635498046875 C 86.1864013671875 45.718265533447266 84.93965911865234 51.54054641723633 -13.550904273986816 49.321563720703125 C -11.789362907409668 59.94685745239258 -13.295638084411621 100.84476470947266 -7.108191967010498 114.00138854980469" stroke-width="2.0" fill="rgb(5, 248, 255)" opacity="0.95493096"/>
    <path d="M 118.31763458251953 75.91229248046875 C 96.32990264892578 87.65725708007812 62.44775390625 76.46884155273438 154.16925048828125 65.53453063964844 C 202.95655822753906 115.26167297363281 165.93368530273438 141.70108032226562 142.26910400390625 117.31047058105469 C 128.41795349121094 148.82037353515625 177.8433074951172 150.73040771484375 172.8986358642578 116.98391723632812" stroke-width="2.0" fill="rgb(0, 5, 18)" opacity="0.46876422"/>
    <path d="M 77.90416717529297 131.95880126953125 C 72.28245544433594 133.16883850097656 80.81050109863281 131.38876342773438 71.3466567993164 131.93966674804688 C 79.62975311279297 171.9080810546875 86.64141082763672 157.1204376220703 82.88813018798828 166.03750610351562 C 85.80146789550781 155.40675354003906 68.15740966796875 136.65281677246094 66.84270477294922 111.88449096679688" stroke-width="2.0" fill="rgb(0, 4, 13)" opacity="0.68550664"/>
    <path d="M 52.91756820678711 165.6125030517578 C 55.22750473022461 175.89752197265625 36.407554626464844 160.44757080078125 28.3596248626709 172.5161895751953 C 48.4846076965332 184.69418334960938 52.7713623046875 166.27943420410156 34.966819763183594 166.91004943847656 C 62.185791015625 171.28158569335938 79.78802490234375 149.33148193359375 68.85916900634766 132.58180236816406" stroke-width="2.0" fill="rgb(0, 0, 0)" opacity="1.0"/>
    <path d="M 149.11367797851562 195.58326721191406 C 163.14083862304688 201.05799865722656 157.80003356933594 210.1612548828125 105.85970306396484 211.43528747558594 C 95.7986831665039 178.47616577148438 109.49385833740234 192.8362274169922 141.89398193359375 196.62803649902344 C 144.84237670898438 193.01861572265625 129.90737915039062 191.75672912597656 111.15925598144531 198.88609313964844" stroke-width="2.0" fill="rgb(0, 73, 32)" opacity="0.0"/>
    <path d="M 69.95989990234375 61.57573699951172 C 82.30863952636719 51.848114013671875 43.31130599975586 14.5591459274292 117.97069549560547 46.18229675292969 C 67.07781982421875 60.788326263427734 78.2078628540039 84.85260772705078 55.5449333190918 100.97686004638672 C 49.286617279052734 64.6785888671875 85.0649642944336 61.20027542114258 62.885215759277344 61.351566314697266" stroke-width="2.0" fill="rgb(0, 0, 0)" opacity="0.9891464"/>
    <path d="M -1.2228078842163086 101.91259765625 C 3.253831386566162 89.26838684082031 -12.773316383361816 93.73123168945312 -37.42399978637695 70.65296173095703 C -11.823854446411133 31.037019729614258 46.73885726928711 41.3736572265625 66.5985336303711 103.63658905029297 C 5.625460147857666 131.84788513183594 -3.3848929405212402 117.57860565185547 -11.764670372009277 120.27690887451172" stroke-width="2.0" fill="rgb(0, 0, 0)" opacity="1.0"/>
    <path d="M 85.66082763671875 82.66860961914062 C 97.58222961425781 59.98080062866211 70.4234848022461 57.644596099853516 81.11711120605469 129.98374938964844 C 56.04330825805664 123.75011444091797 71.08589935302734 102.51420593261719 65.46023559570312 97.46275329589844 C 71.77423858642578 70.39033508300781 25.21803092956543 75.17778778076172 35.55633544921875 113.2415542602539" stroke-width="2.0" fill="rgb(1, 82, 255)" opacity="0.31576276"/>
    <path d="M 11.88366413116455 172.30209350585938 C 1.6011450290679932 172.3643035888672 17.82737159729004 170.38360595703125 16.55147361755371 185.83328247070312 C 7.7355451583862305 164.14093017578125 11.33296012878418 170.38047790527344 4.04340934753418 182.7085723876953 C 20.7847957611084 173.9666748046875 20.16227149963379 163.4090576171875 20.70165252685547 167.93624877929688" stroke-width="2.0" fill="rgb(0, 0, 0)" opacity="0.89707184"/>
    <path d="M 111.95442962646484 224.56134033203125 C 105.26512145996094 208.43405151367188 125.00926208496094 221.3482208251953 132.50975036621094 214.90292358398438 C 143.3898468017578 215.1088409423828 135.00662231445312 210.97116088867188 140.9630889892578 220.44725036621094 C 122.90878295898438 236.8581085205078 78.87347412109375 212.39512634277344 73.6913070678711 230.26315307617188" stroke-width="2.0" fill="rgb(0, 88, 247)" opacity="0.8912512"/>
    <path d="M 140.8766632080078 197.42832946777344 C 91.3841781616211 212.73329162597656 93.43885803222656 198.4131317138672 127.06517028808594 194.79945373535156 C 155.0048370361328 187.8019256591797 156.72763061523438 186.32093811035156 152.23121643066406 198.1774444580078 C 115.2271499633789 193.33566284179688 123.31501007080078 209.95639038085938 156.02182006835938 196.06732177734375" stroke-width="2.0" fill="rgb(3, 251, 255)" opacity="0.61126435"/>
    <path d="M 154.2645263671875 150.37811279296875 C 166.92820739746094 135.42144775390625 166.1471405029297 137.8376922607422 149.70738220214844 148.95127868652344 C 128.18751525878906 161.59217834472656 119.7958984375 133.3213653564453 133.3760986328125 116.82386779785156 C 151.74143981933594 130.26632690429688 154.90005493164062 137.85934448242188 141.89889526367188 122.43162536621094" stroke-width="2.0" fill="rgb(2, 10, 154)" opacity="0.061307494"/>
    <path d="M 168.67555236816406 22.097400665283203 C 159.96841430664062 18.40044403076172 156.01284790039062 29.017093658447266 162.0236358642578 36.174922943115234 C 148.02467346191406 44.1160888671875 156.2271728515625 29.166725158691406 166.84237670898438 21.063945770263672 C 192.14605712890625 53.898372650146484 194.6227264404297 59.1897087097168 186.54287719726562 71.44524383544922" stroke-width="2.0" fill="rgb(0, 11, 30)" opacity="0.43861493"/>
    <path d="M 107.14672088623047 214.1232147216797 C 113.74335479736328 218.71685791015625 116.0194320678711 218.4065399169922 105.77635192871094 211.27987670898438 C 102.08045959472656 213.70823669433594 96.25990295410156 244.13880920410156 109.56293487548828 221.25567626953125 C 131.92733764648438 231.26710510253906 85.2818832397461 233.04583740234375 93.51846313476562 254.15042114257812" stroke-width="2.0" fill="rgb(0, 0, 23)" opacity="0.30750507"/>
    <path d="M 137.30084228515625 196.0355987548828 C 123.34546661376953 197.02272033691406 133.5149383544922 198.6424560546875 120.58615112304688 196.26622009277344 C 135.6681671142578 199.58517456054688 152.52157592773438 187.5819549560547 144.79721069335938 198.55792236328125 C 128.62928771972656 197.02093505859375 117.82381439208984 202.0555877685547 115.35453033447266 204.9198760986328" stroke-width="2.0" fill="rgb(4, 254, 255)" opacity="0.3129979"/>
    <path d="M 98.7744369506836 205.30874633789062 C 82.74101257324219 196.90682983398438 68.74392700195312 201.11746215820312 97.24681854248047 183.7008056640625 C 123.38263702392578 201.85594177246094 108.47954559326172 193.26016235351562 101.75318908691406 199.86767578125 C 100.2300033569336 199.33351135253906 103.46832275390625 204.54750061035156 88.66761016845703 200.271240234375" stroke-width="2.0" fill="rgb(0, 0, 0)" opacity="0.83904105"/>
  </g>
</svg>
