<?xml version="1.0" encoding="utf-8" ?>
<svg baseProfile="tiny" height="200" version="1.2" viewBox="0 0 200 200" width="200" xmlns="http://www.w3.org/2000/svg" xmlns:ev="http://www.w3.org/2001/xml-events" xmlns:xlink="http://www.w3.org/1999/xlink"><defs /><path d="M 91.0,39.0 C 105.0,36.0 120.0,39.0 131.0,48.0 A 48.0,48.0 0.0 0,1 149.0,87.0 A 48.0,48.0 0.0 0,1 129.0,124.0 A 14.0,14.0 0.0 0,0 123.0,135.0 C 123.0,135.0 123.0,142.0 123.0,142.0 C 123.0,142.0 121.0,145.0 121.0,145.0 C 121.0,145.0 119.0,145.0 119.0,145.0 C 119.0,145.0 84.0,152.0 84.0,152.0 C 84.0,152.0 84.0,152.0 84.0,152.0 C 81.0,152.0 79.0,150.0 79.0,148.0 C 79.0,146.0 81.0,144.0 83.0,143.0 C 83.0,143.0 114.0,138.0 114.0,138.0 C 114.0,138.0 114.0,135.0 114.0,135.0 A 22.0,22.0 0.0 0,1 124.0,117.0 A 39.0,39.0 0.0 0,0 140.0,87.0 A 39.0,39.0 0.0 0,0 126.0,55.0 A 39.0,39.0 0.0 0,0 93.0,47.0 A 39.0,39.0 0.0 0,0 62.0,81.0 A 39.0,39.0 0.0 0,0 84.0,120.0 A 4.47213595499958,4.47213595499958 0.0 0,1 80.0,128.0 C 62.0,119.0 51.0,100.0 54.0,80.0 A 48.0,48.0 0.0 0,1 91.0,39.0 M 81.0,163.0 C 81.0,165.0 82.0,166.0 84.0,166.0 C 84.0,166.0 84.0,166.0 85.0,166.0 C 85.0,166.0 85.0,166.0 85.0,166.0 C 85.0,166.0 119.0,160.0 119.0,160.0 A 4.0,4.0 0.0 0,0 122.0,156.0 A 4.0,4.0 0.0 0,0 119.0,153.0 C 119.0,153.0 118.0,153.0 118.0,153.0 C 118.0,153.0 118.0,153.0 118.0,153.0 C 118.0,153.0 84.0,159.0 84.0,159.0 C 84.0,159.0 84.0,159.0 84.0,159.0 A 4.0,4.0 0.0 0,0 81.0,163.0 M 89.0,181.0 C 92.0,183.0 95.0,183.0 98.0,183.0 C 102.0,183.0 105.0,182.0 108.0,181.0 C 108.0,181.0 108.0,181.0 108.0,181.0 C 108.0,181.0 108.0,181.0 108.0,181.0 A 3.0,3.0 0.0 0,0 110.0,178.0 A 3.0,3.0 0.0 0,0 108.0,175.0 A 3.0,3.0 0.0 0,0 106.0,174.0 A 3.0,3.0 0.0 0,0 105.0,175.0 C 105.0,175.0 105.0,175.0 105.0,175.0 C 105.0,175.0 105.0,175.0 105.0,175.0 C 103.0,176.0 100.0,177.0 98.0,177.0 C 98.0,177.0 97.0,177.0 97.0,177.0 C 97.0,177.0 97.0,176.0 97.0,176.0 C 96.0,176.0 96.0,176.0 96.0,176.0 C 96.0,176.0 95.0,176.0 95.0,176.0 A 14.0,14.0 0.0 0,1 93.0,175.0 C 93.0,175.0 92.0,175.0 92.0,175.0 A 3.0,3.0 0.0 0,0 88.0,177.0 A 3.0,3.0 0.0 0,0 89.0,181.0" fill="#005BFF" /><path d="M 81.0,163.0 C 81.0,165.0 82.0,166.0 84.0,166.0 C 84.0,166.0 84.0,166.0 85.0,166.0 C 85.0,166.0 85.0,166.0 85.0,166.0 C 85.0,166.0 119.0,160.0 119.0,160.0 A 4.0,4.0 0.0 0,0 122.0,156.0 A 4.0,4.0 0.0 0,0 119.0,153.0 C 119.0,153.0 118.0,153.0 118.0,153.0 C 118.0,153.0 118.0,153.0 118.0,153.0 C 118.0,153.0 84.0,159.0 84.0,159.0 C 84.0,159.0 84.0,159.0 84.0,159.0 A 4.0,4.0 0.0 0,0 81.0,163.0" fill="#06F3FF" /><path d="M 28.0,101.0 A 3.5,3.5 0.0 1,1 28.0,94.0 C 28.0,94.0 37.0,94.0 37.0,94.0 A 3.5,3.5 0.0 1,1 37.0,101.0 C 37.0,101.0 28.0,101.0 28.0,101.0 M 49.0,53.0 A 3.0,3.0 0.0 0,1 47.0,52.0 C 47.0,52.0 41.0,46.0 41.0,46.0 A 4.0,4.0 0.0 0,1 41.0,41.0 C 41.0,40.0 42.0,40.0 43.0,40.0 C 44.0,40.0 45.0,40.0 46.0,41.0 C 46.0,41.0 52.0,47.0 52.0,47.0 A 4.0,4.0 0.0 0,1 52.0,52.0 A 3.0,3.0 0.0 0,1 49.0,53.0 M 102.0,32.0 A 3.0,3.0 0.0 0,1 98.0,29.0 C 98.0,29.0 98.0,20.0 98.0,20.0 A 3.0,3.0 0.0 0,1 102.0,17.0 C 102.0,17.0 103.0,17.0 104.0,17.0 A 4.0,4.0 0.0 0,1 105.0,20.0 C 105.0,20.0 105.0,29.0 105.0,29.0 C 105.0,30.0 105.0,31.0 104.0,31.0 A 3.0,3.0 0.0 0,1 102.0,32.0 M 154.0,51.0 A 3.0,3.0 0.0 0,1 151.0,50.0 A 4.0,4.0 0.0 0,1 151.0,45.0 C 151.0,45.0 157.0,38.0 157.0,38.0 C 158.0,38.0 159.0,37.0 160.0,37.0 A 4.0,4.0 0.0 0,1 162.0,43.0 C 162.0,43.0 156.0,50.0 156.0,50.0 A 4.0,4.0 0.0 0,1 154.0,51.0 M 167.0,101.0 A 3.5,3.5 0.0 1,1 167.0,94.0 C 167.0,94.0 176.0,94.0 176.0,94.0 C 178.0,94.0 179.0,96.0 179.0,98.0 C 179.0,100.0 178.0,101.0 176.0,101.0 C 176.0,101.0 167.0,101.0 167.0,101.0 M 104.0,55.0 A 2.0,2.0 0.0 0,0 101.0,54.0 C 85.0,57.0 78.0,66.0 74.0,73.0 C 71.0,80.0 71.0,87.0 71.0,87.0 A 2.0,2.0 0.0 0,0 73.0,89.0 A 2.0,2.0 0.0 0,0 74.0,89.0 A 2.0,2.0 0.0 0,0 75.0,87.0 C 75.0,87.0 75.0,81.0 78.0,74.0 C 82.0,65.0 91.0,60.0 102.0,57.0 A 2.0,2.0 0.0 0,0 104.0,55.0" fill="#005BFF" /></svg>