<?xml version="1.0" ?>
<svg xmlns="http://www.w3.org/2000/svg" version="1.1" width="200" height="200">
  <defs/>
  <g>
    <path d="M 100.0 155.0 C 100.0 156.0 100.0 156.0 99.0 156.0 C 99.0 156.0 99.0 157.0 99.0 157.0 C 95.0 163.0 89.0 169.0 80.0 173.0 C 62.0 181.0 38.0 176.0 22.0 159.0 C 28.70159149169922 155.07308959960938 35.72727966308594 151.72752380371094 43.0 149.0 C 47.0 151.0 50.0 154.0 55.0 155.0 C 66.0 160.0 77.0 160.0 85.0 158.0 C 91.0 157.0 95.0 156.0 97.0 155.0 C 98.0 155.0 98.0 155.0 98.0 155.0 L 100.0 155.0" stroke-width="1.0" fill="rgb(237, 118, 169)" opacity="1.0"/>
    <path d="M 62.0 181.0 C 47.0 181.0 31.0 174.0 18.0 162.0 C 17.0 161.0 17.0 160.0 17.0 158.0 C 17.0 157.0 18.0 156.0 19.0 155.0 C 26.0 151.0 34.0 147.0 42.0 144.0 C 44.0 144.0 47.0 145.0 47.0 147.0 C 48.0 149.0 47.0 152.0 45.0 153.0 C 39.0 155.0 34.0 157.0 29.0 160.0 C 44.0 172.0 63.0 176.0 78.0 169.0 C 87.0 165.0 93.0 159.0 96.0 154.0 C 97.0 152.0 100.0 151.0 102.0 152.0 C 104.0 154.0 104.0 156.0 103.0 159.0 C 99.0 164.0 93.0 172.0 82.0 177.0 C 76.0 180.0 69.0 181.0 62.0 181.0" stroke-width="1.0" fill="rgb(0, 0, 0)" opacity="1.0"/>
    <path d="M 179.0 164.0 C 162.0 181.0 139.0 186.0 120.0 178.0 C 108.0 173.0 102.0 163.0 99.0 157.0 C 98.0 157.0 98.0 156.0 98.0 155.0 C 98.0 155.0 98.0 155.0 98.0 155.0 L 100.0 155.0 C 100.0 156.0 100.0 156.0 99.0 156.0 C 101.0 157.0 102.0 158.0 104.0 159.0 C 111.0 162.0 122.0 165.0 135.0 163.0 C 135.0 163.0 136.0 163.0 136.0 162.0 C 136.0 162.0 136.0 162.0 136.0 162.0 C 144.0 161.0 151.0 157.0 156.0 153.0 C 166.0 157.0 174.0 161.0 179.0 164.0" stroke-width="1.0" fill="rgb(236, 118, 168)" opacity="1.0"/>
    <path d="M 138.0 186.0 C 131.0 186.0 125.0 185.0 119.0 182.0 C 105.0 176.0 97.0 164.0 94.0 157.0 C 93.0 155.0 94.0 153.0 95.0 152.0 C 105.0 146.0 115.0 143.0 125.0 142.0 C 137.0 142.0 146.0 145.0 157.0 149.0 C 165.0 152.0 173.0 156.0 181.0 160.0 C 182.0 161.0 183.0 162.0 183.0 163.0 C 183.0 165.0 183.0 166.0 182.0 167.0 C 170.0 180.0 154.0 186.0 138.0 186.0" stroke-width="1.0" fill="rgb(0, 0, 0)" opacity="1.0"/>
    <path d="M 100.0 155.0 C 100.0 156.0 100.0 156.0 99.0 156.0 C 99.0 156.0 98.0 156.0 98.0 155.0 L 100.0 155.0" stroke-width="1.0" fill="rgb(0, 0, 0)" opacity="1.0"/>
    <path d="M 173.0 134.0 C 171.0 137.0 160.0 158.0 136.0 162.0 C 136.0 162.0 136.0 162.0 136.0 162.0 C 136.0 163.0 135.0 163.0 135.0 163.0 C 122.0 165.0 111.0 162.0 104.0 159.0 C 101.0 157.0 99.0 156.0 97.0 155.0 C 95.0 156.0 91.0 157.0 85.0 158.0 C 77.0 160.0 66.0 160.0 55.0 155.0 C 31.0 145.0 20.0 119.0 22.0 98.0 C 24.0 82.0 35.0 68.0 38.0 65.0 C 39.0 63.0 42.0 60.0 47.0 55.0 C 66.0 38.0 99.0 23.0 110.0 19.0 C 113.0 19.0 116.0 21.0 120.0 23.0 C 134.0 30.0 156.0 44.0 168.0 71.0 C 173.0 82.0 186.0 108.0 173.0 134.0" stroke-width="1.0" fill="rgb(237, 118, 169)" opacity="1.0"/>
    <path d="M 173.0 134.0 C 171.0 137.0 161.0 156.0 140.0 162.0 C 152.0 145.0 160.0 124.0 160.0 101.0 C 160.0 71.0 146.0 44.0 126.0 26.0 C 139.0 34.0 158.0 48.0 168.0 71.0 C 173.0 82.0 186.0 109.0 173.0 134.0" stroke-width="1.0" fill="rgb(238, 119, 170)" opacity="1.0"/>
    <path d="M 173.0 134.0 C 171.0 137.0 161.0 156.0 140.0 162.0 C 152.0 145.0 160.0 124.0 160.0 101.0 C 160.0 71.0 146.0 44.0 126.0 26.0 C 139.0 34.0 158.0 48.0 168.0 71.0 C 173.0 82.0 186.0 109.0 173.0 134.0" stroke-width="1.0" fill="rgb(236, 84, 101)" opacity="1.0"/>
    <path d="M 126.0 168.0 C 116.0 168.0 107.0 165.0 102.0 163.0 C 100.27156829833984 162.10675048828125 98.60154724121094 161.104736328125 97.0 160.0 C 95.0 161.0 91.0 162.0 86.0 163.0 C 78.0 164.0 66.0 165.0 53.0 159.0 C 27.0 148.0 16.0 119.0 18.0 98.0 C 19.0 86.0 25.0 74.0 34.0 62.0 C 36.0 60.0 39.0 56.0 44.0 52.0 C 57.0 40.0 80.0 27.0 109.0 15.0 C 110.0 14.0 111.0 14.0 112.0 14.0 C 114.0 15.0 118.0 17.0 122.0 19.0 C 138.0 27.0 160.0 42.0 172.0 69.0 C 177.0 80.0 191.0 109.0 177.0 136.0 C 175.0 139.0 164.0 161.0 138.0 167.0 C 137.0 167.0 137.0 167.0 136.0 167.0 C 133.0 168.0 129.0 168.0 126.0 168.0" stroke-width="1.0" fill="rgb(0, 0, 0)" opacity="1.0"/>
    <path d="M 63.0 74.0 C 62.0 74.0 61.0 74.0 60.0 73.0 C 58.0 71.0 59.0 68.0 60.0 67.0 C 67.0 61.0 76.0 54.0 87.0 48.0 C 89.0 47.0 92.0 48.0 93.0 50.0 C 94.0 52.0 94.0 54.0 91.0 56.0 C 81.0 62.0 73.0 68.0 66.0 73.0 C 65.17980194091797 73.73124694824219 64.09490203857422 74.09288024902344 63.0 74.0" stroke-width="1.0" fill="rgb(254, 254, 254)" opacity="1.0"/>
    <path d="M 113.0 46.0 C 111.0 46.0 109.0 44.0 109.0 41.0 C 109.0 37.0 108.0 33.0 108.0 30.0 C 107.0 26.0 107.0 23.0 106.0 20.0 C 105.0 17.0 107.0 15.0 109.0 14.0 C 112.0 14.0 114.0 15.0 115.0 18.0 C 115.0 21.0 116.0 24.0 117.0 28.0 C 117.0 33.0 118.0 37.0 118.0 41.0 C 118.0 43.0 116.0 45.0 113.0 46.0 C 113.0 46.0 113.0 46.0 113.0 46.0" stroke-width="1.0" fill="rgb(1, 0, 1)" opacity="1.0"/>
  </g>
</svg>
