<?xml version="1.0" encoding="UTF-8"?>
<svg xmlns="http://www.w3.org/2000/svg"
     width="200"
     height="200"
     viewBox="0 0 200 200">
    <path d="M 100 155 C 100 156 100 156 99 156 C 99 156 99 157 99 157 C 95 163 89 169 80 173 C 62 181 38 176 22 159 A 136 136 0 0 1 43 149 C 47 151 50 154 55 155 C 66 160 77 160 85 158 C 91 157 95 156 97 155 C 98 155 98 155 98 155 L 100 155 Z" fill="#66bb55"/>
    <path d="M 62 181 C 47 181 31 174 18 162 C 17 161 17 160 17 158 C 17 157 18 156 19 155 C 26 151 34 147 42 144 C 44 144 47 145 47 147 C 48 149 47 152 45 153 C 39 155 34 157 29 160 C 44 172 63 176 78 169 C 87 165 93 159 96 154 C 97 152 100 151 102 152 C 104 154 104 156 103 159 C 99 164 93 172 82 177 C 76 180 69 181 62 181 Z" fill="#000000"/>
    <path d="M 179 164 C 162 181 139 186 120 178 C 108 173 102 163 99 157 C 98 157 98 156 98 155 C 98 155 98 155 98 155 L 100 155 C 100 156 100 156 99 156 C 101 157 102 158 104 159 C 111 162 122 165 135 163 C 135 163 136 163 136 162 C 136 162 136 162 136 162 C 144 161 151 157 156 153 C 166 157 174 161 179 164 Z" fill="#66bb55"/>
    <path d="M 138 186 C 131 186 125 185 119 182 C 105 176 97 164 94 157 C 93 155 94 153 95 152 C 105 146 115 143 125 142 C 137 142 146 145 157 149 C 165 152 173 156 181 160 C 182 161 183 162 183 163 C 183 165 183 166 182 167 C 170 180 154 186 138 186 L 138 186 M 104 157 C 107 163 113 170 122 174 C 137 181 157 177 171 165 A 131 131 0 0 0 154 157 C 143 153 135 151 125 151 C 118 152 111 154 104 157 Z" fill="#000000"/>
    <path d="M 100 155 C 100 156 100 156 99 156 C 99 156 98 156 98 155 L 100 155 Z" fill="#000000"/>
    <path d="M 173 134 C 171 137 160 158 136 162 C 136 162 136 162 136 162 C 136 163 135 163 135 163 C 122 165 111 162 104 159 C 101 157 99 156 97 155 C 95 156 91 157 85 158 C 77 160 66 160 55 155 C 31 145 20 119 22 98 C 24 82 35 68 38 65 C 39 63 42 60 47 55 C 66 38 99 23 110 19 C 113 19 116 21 120 23 C 134 30 156 44 168 71 C 173 82 186 108 173 134 Z" fill="#ee77aa"/>
    <path d="M 173 134 C 171 137 161 156 140 162 C 152 145 160 124 160 101 C 160 71 146 44 126 26 C 139 34 158 48 168 71 C 173 82 186 109 173 134 Z" fill="#ee77aa"/>
    <path d="M 173 134 C 171 137 161 156 140 162 C 152 145 160 124 160 101 C 160 71 146 44 126 26 C 139 34 158 48 168 71 C 173 82 186 109 173 134 Z" fill="#ee5566"/>
    <path d="M 126 168 C 116 168 107 165 102 163 A 46 46 0 0 1 97 160 C 95 161 91 162 86 163 C 78 164 66 165 53 159 C 27 148 16 119 18 98 C 19 86 25 74 34 62 C 36 60 39 56 44 52 C 57 40 80 27 109 15 C 110 14 111 14 112 14 C 114 15 118 17 122 19 C 138 27 160 42 172 69 C 177 80 191 109 177 136 C 175 139 164 161 138 167 C 137 167 137 167 136 167 C 133 168 129 168 126 168 L 126 168 M 97 150 C 98 150 99 151 100 151 C 101 152 103 153 106 155 C 111 157 122 161 134 158 C 134 158 135 158 135 158 C 135 158 135 158 136 158 C 158 153 168 133 169 132 L 169 132 C 181 108 169 84 164 73 C 153 48 133 34 118 27 C 115 25 113 24 110 23 C 83 35 62 47 50 59 C 46 62 43 66 41 68 C 33 78 28 89 27 99 C 25 117 34 142 56 151 C 67 156 78 155 84 154 C 90 153 94 151 96 151 C 96 151 97 150 97 150 Z" fill="#000000"/>
    <path d="M 63 74 C 62 74 61 74 60 73 C 58 71 59 68 60 67 C 67 61 76 54 87 48 C 89 47 92 48 93 50 C 94 52 94 54 91 56 C 81 62 73 68 66 73 A 4 4 0 0 1 63 74 Z" fill="#ffffff"/>
    <path d="M 113 46 C 111 46 109 44 109 41 C 109 37 108 33 108 30 C 107 26 107 23 106 20 C 105 17 107 15 109 14 C 112 14 114 15 115 18 C 115 21 116 24 117 28 C 117 33 118 37 118 41 C 118 43 116 45 113 46 C 113 46 113 46 113 46 Z" fill="#000000"/>
</svg>