<?xml version="1.0" ?>
<svg xmlns="http://www.w3.org/2000/svg" version="1.1" width="200" height="200">
  <defs/>
  <g>
    <path d="M 101.5923080444336 154.4636688232422 C 101.59332275390625 156.36570739746094 101.33795928955078 156.30894470214844 99.48643493652344 155.51913452148438 C 98.93172454833984 155.89584350585938 98.95620727539062 156.95318603515625 98.77433013916016 156.7821502685547 C 94.14872741699219 162.140380859375 87.85285949707031 168.7911376953125 82.34481048583984 174.2916259765625 C 65.35176849365234 178.87135314941406 38.62348175048828 173.9769744873047 23.608062744140625 161.15089416503906 C 30.080575942993164 156.3150177001953 34.270912170410156 150.41566467285156 41.140533447265625 148.56654357910156 C 45.173580169677734 153.05299377441406 51.48333740234375 153.11672973632812 57.70328140258789 152.4064178466797 C 58.88841247558594 164.91807556152344 71.82742309570312 163.09600830078125 82.75126647949219 158.99575805664062 C 90.40058135986328 156.32171630859375 94.02787780761719 154.93145751953125 95.8583755493164 153.69650268554688 C 97.9063720703125 154.8302459716797 97.66162872314453 154.96044921875 97.71180725097656 154.6443634033203 L 101.5923080444336 154.4636688232422" stroke-width="1.0" fill="rgb(76, 220, 224)" opacity="1.0"/>
    <path d="M 62.27549743652344 181.1229248046875 C 47.893402099609375 180.7157745361328 30.205780029296875 174.2178497314453 17.946880340576172 161.74362182617188 C 16.63482093811035 160.98489379882812 16.963865280151367 160.33387756347656 17.13768768310547 157.06634521484375 C 17.44970703125 157.8060760498047 17.92156982421875 156.92063903808594 18.354524612426758 155.19859313964844 C 25.52232551574707 150.71868896484375 34.453407287597656 147.4481658935547 42.00043487548828 144.3763885498047 C 39.25645065307617 139.84243774414062 47.18170166015625 142.0685577392578 50.210968017578125 150.23715209960938 C 49.91556167602539 149.70838928222656 46.729034423828125 150.7211151123047 45.384613037109375 153.06475830078125 C 38.91217803955078 155.236328125 33.915245056152344 157.01988220214844 29.121389389038086 159.8978271484375 C 45.264915466308594 172.2456512451172 60.819419860839844 176.18594360351562 78.31326293945312 168.72616577148438 C 86.50577545166016 164.9318084716797 91.61437225341797 157.68521118164062 95.03629302978516 152.88929748535156 C 96.38959503173828 150.8409881591797 99.25631713867188 149.95108032226562 104.18730926513672 151.7013702392578 C 105.26439666748047 155.25732421875 103.59562683105469 156.8985137939453 102.60489654541016 158.696533203125 C 99.18940734863281 164.3704071044922 93.07357788085938 171.46231079101562 82.38482666015625 176.63047790527344 C 76.70667266845703 180.91925048828125 66.20695495605469 180.2517852783203 62.27549743652344 181.1229248046875" stroke-width="1.0" fill="rgb(0, 0, 0)" opacity="0.9940235"/>
    <path d="M 175.70553588867188 163.6844940185547 C 168.20347595214844 179.30105590820312 136.98265075683594 181.8047332763672 115.84770965576172 177.4043731689453 C 110.05577087402344 170.2510528564453 100.17518615722656 164.1017303466797 98.86788177490234 157.80267333984375 C 95.68595123291016 156.1417999267578 98.01465606689453 156.4593505859375 98.15038299560547 155.5441131591797 C 98.64868927001953 155.9021453857422 99.738037109375 156.12646484375 99.25286102294922 154.6268310546875 L 100.32233428955078 155.1850128173828 C 100.56207275390625 155.7235565185547 100.47227478027344 154.83380126953125 99.28038024902344 154.59986877441406 C 102.6391372680664 155.59634399414062 102.53865814208984 157.6500701904297 101.50000762939453 160.9163055419922 C 111.12702178955078 162.62246704101562 123.1988525390625 169.6865997314453 136.6859588623047 165.55897521972656 C 136.0498809814453 162.51853942871094 136.1795196533203 162.41334533691406 136.56301879882812 163.177001953125 C 136.23252868652344 162.91995239257812 135.98257446289062 161.04373168945312 135.88748168945312 160.67774963378906 C 144.74307250976562 161.50454711914062 148.5696563720703 156.57798767089844 158.3849334716797 152.00367736816406 C 164.11386108398438 160.44505310058594 176.02346801757812 159.69921875 175.70553588867188 163.6844940185547" stroke-width="1.0" fill="rgb(216, 43, 108)" opacity="0.7740649"/>
    <path d="M 137.87574768066406 185.9951171875 C 133.027099609375 186.27235412597656 124.8978500366211 184.57286071777344 119.0479507446289 181.980224609375 C 105.78653717041016 177.05410766601562 97.03103637695312 163.19004821777344 94.05963134765625 157.01168823242188 C 93.40023803710938 154.54513549804688 93.92172241210938 152.95701599121094 94.73967742919922 151.74021911621094 C 105.25991821289062 146.26100158691406 115.2604751586914 143.26116943359375 125.25728607177734 142.26132202148438 C 136.7395782470703 142.2613067626953 145.74012756347656 145.26109313964844 157.31021118164062 148.59515380859375 C 164.24183654785156 152.66140747070312 173.46961975097656 155.76181030273438 181.20620727539062 159.91770935058594 C 182.73306274414062 160.71299743652344 183.52957153320312 161.5084686279297 183.0863800048828 164.24603271484375 C 183.6870880126953 166.0680694580078 182.46836853027344 165.23377990722656 182.01272583007812 167.18307495117188 C 170.73883056640625 179.91395568847656 153.07101440429688 186.10113525390625 137.87574768066406 185.9951171875" stroke-width="1.0" fill="rgb(0, 0, 1)" opacity="0.9888337"/>
    <path d="M 100.24471282958984 154.89541625976562 C 99.76885223388672 154.8512420654297 100.78685760498047 155.035888671875 98.43476867675781 152.72239685058594 C 98.04826354980469 156.04945373535156 98.2438735961914 156.1402130126953 98.8315658569336 154.92437744140625 L 100.24471282958984 154.89541625976562" stroke-width="1.0" fill="rgb(0, 0, 239)" opacity="0.9716308"/>
    <path d="M 169.6355438232422 133.66651916503906 C 166.53726196289062 134.5433807373047 159.25454711914062 160.5434112548828 134.26840209960938 161.07022094726562 C 133.7901611328125 162.53001403808594 134.8788604736328 162.1540069580078 136.61048889160156 161.88037109375 C 136.08372497558594 161.74505615234375 135.05352783203125 162.45309448242188 135.2328338623047 162.31243896484375 C 125.26761627197266 163.4188232421875 114.57842254638672 158.42604064941406 105.78929901123047 158.28199768066406 C 103.95214080810547 156.33071899414062 103.75243377685547 152.95103454589844 96.96084594726562 151.68397521972656 C 94.62317657470703 159.36524963378906 95.9251937866211 161.41275024414062 88.5542984008789 161.6559600830078 C 74.18067932128906 164.94786071777344 66.30827331542969 164.16368103027344 60.724117279052734 154.05709838867188 C 33.372650146484375 141.76734924316406 20.989530563354492 117.71622467041016 23.165367126464844 96.98304748535156 C 22.74030303955078 81.62775421142578 33.45471954345703 65.18762969970703 37.1630744934082 63.40871810913086 C 35.46614074707031 59.492156982421875 38.63628387451172 57.05546951293945 45.4855842590332 54.169410705566406 C 63.16810607910156 35.012939453125 99.9854736328125 24.62076759338379 111.79144287109375 21.14118194580078 C 112.71611022949219 19.361970901489258 114.97784423828125 21.9957275390625 118.71168518066406 24.018840789794922 C 139.26171875 24.821176528930664 157.13414001464844 40.8148307800293 168.00416564941406 70.8784408569336 C 170.3590545654297 83.4806900024414 184.29837036132812 110.81085968017578 169.6355438232422 133.66651916503906" stroke-width="1.0" fill="rgb(233, 102, 152)" opacity="1.0"/>
    <path d="M 170.08349609375 131.16465759277344 C 166.05247497558594 136.21987915039062 162.58743286132812 160.88253784179688 139.53822326660156 161.36685180664062 C 151.84181213378906 145.3455047607422 159.85806274414062 123.30889129638672 160.4728546142578 101.75574493408203 C 159.18902587890625 70.43331909179688 147.1486053466797 41.850318908691406 128.54559326171875 22.895292282104492 C 142.6918182373047 30.0858211517334 158.4168701171875 46.451812744140625 166.5828094482422 72.20191955566406 C 170.31797790527344 86.71463775634766 184.4585418701172 108.99698638916016 170.08349609375 131.16465759277344" stroke-width="1.0" fill="rgb(215, 69, 70)" opacity="0.3752487"/>
    <path d="M 169.97601318359375 132.60557556152344 C 166.22764587402344 135.35972595214844 162.82742309570312 159.6288299560547 140.52171325683594 162.56207275390625 C 152.1526336669922 145.2459716796875 159.798583984375 124.0521011352539 160.18429565429688 101.54976654052734 C 159.74525451660156 70.3668441772461 146.2632598876953 44.22528839111328 124.99580383300781 27.429882049560547 C 133.5939178466797 41.15890884399414 158.73516845703125 47.53207015991211 166.58241271972656 71.31417083740234 C 169.82057189941406 86.7398910522461 184.2649383544922 109.49239349365234 169.97601318359375 132.60557556152344" stroke-width="1.0" fill="rgb(255, 48, 61)" opacity="0.6237414"/>
    <path d="M 126.98051452636719 167.778564453125 C 115.02029418945312 168.14999389648438 108.34098052978516 164.48175048828125 104.49242401123047 161.09852600097656 C 103.08875274658203 163.88906860351562 102.85462188720703 159.86480712890625 100.05562591552734 156.86009216308594 C 96.37886047363281 161.6923828125 91.37437438964844 161.54151916503906 85.11868286132812 161.7900390625 C 78.818359375 165.08779907226562 64.80305480957031 165.17575073242188 52.88552474975586 159.20675659179688 C 27.06165885925293 146.46771240234375 15.766846656799316 119.8336181640625 18.078367233276367 98.7254638671875 C 18.517072677612305 87.0789794921875 25.2559757232666 73.38163757324219 33.36098861694336 62.84541702270508 C 35.70536804199219 60.1595344543457 39.354530334472656 56.32249069213867 44.21002960205078 52.085758209228516 C 57.636505126953125 40.41078186035156 79.58675384521484 26.48461151123047 109.00579071044922 15.149076461791992 C 108.15272521972656 13.671791076660156 109.8292007446289 13.78137493133545 111.43111419677734 14.51332950592041 C 114.1078109741211 14.826210975646973 118.78031158447266 16.11991310119629 120.6753158569336 18.88718032836914 C 138.61996459960938 26.812028884887695 159.33323669433594 41.716800689697266 172.1670379638672 69.42422485351562 C 176.85264587402344 80.42129516601562 191.4433135986328 108.60066986083984 176.78530883789062 136.25875854492188 C 175.66041564941406 139.10147094726562 162.8263702392578 161.21339416503906 138.02015686035156 166.8196258544922 C 137.02037048339844 166.84742736816406 137.748779296875 166.96929931640625 136.8748321533203 166.96717834472656 C 130.83889770507812 168.26502990722656 128.3392791748047 167.4430694580078 126.98051452636719 167.778564453125" stroke-width="1.0" fill="rgb(0, 0, 1)" opacity="0.98565686"/>
    <path d="M 63.0796012878418 74.03974151611328 C 62.31883239746094 73.73876190185547 61.2364501953125 74.47738647460938 59.55759811401367 72.07584381103516 C 57.68426513671875 70.51583862304688 58.74602127075195 69.01350402832031 61.11929702758789 65.9084243774414 C 65.93067169189453 61.48240661621094 76.71321105957031 54.13767623901367 85.7544174194336 48.191123962402344 C 88.90245056152344 46.79692459106445 92.48595428466797 47.834381103515625 93.02899169921875 49.684959411621094 C 94.2688217163086 53.52195358276367 94.50664520263672 53.208736419677734 91.25244140625 56.40974807739258 C 80.34327697753906 62.501522064208984 73.43989562988281 68.17603302001953 66.12358856201172 73.17935180664062 C 65.09387969970703 73.79946899414062 64.03170013427734 74.4672622680664 63.0796012878418 74.03974151611328" stroke-width="1.0" fill="rgb(246, 254, 249)" opacity="0.93502575"/>
    <path d="M 112.50536346435547 46.28093719482422 C 111.40385437011719 44.67832565307617 107.87887573242188 44.283721923828125 108.94974517822266 40.91850280761719 C 108.41022491455078 41.263336181640625 107.98764038085938 31.8331241607666 107.89649200439453 28.6532039642334 C 106.81697845458984 25.69185447692871 107.2701644897461 21.8312931060791 104.14122009277344 17.47195053100586 C 103.28179931640625 16.281982421875 106.85296630859375 15.253239631652832 109.4088363647461 13.514589309692383 C 112.2794418334961 13.52368450164795 114.32596588134766 14.778318405151367 113.82369232177734 18.367467880249023 C 114.7925033569336 22.47702407836914 116.65448760986328 23.28266143798828 117.22384643554688 29.748132705688477 C 116.8845443725586 34.49689483642578 118.81378173828125 38.64877700805664 118.02310180664062 41.39128112792969 C 118.25933074951172 42.99882125854492 116.16246032714844 45.01905822753906 113.0564193725586 46.2711296081543 C 113.45056915283203 45.121952056884766 112.3208236694336 44.94925308227539 112.50536346435547 46.28093719482422" stroke-width="1.0" fill="rgb(0, 0, 0)" opacity="0.9870628"/>
  </g>
</svg>
