<?xml version="1.0" ?>
<svg xmlns="http://www.w3.org/2000/svg" version="1.1" width="200" height="200">
  <defs/>
  <g>
    <path d="M 100.0 155.0 C 100.0 156.0 100.0 156.0 99.0 156.0 C 99.0 156.0 99.0 156.99989318847656 98.79813385009766 156.96022033691406 C 94.87004852294922 163.20657348632812 91.04354858398438 171.95401000976562 82.41222381591797 174.5829620361328 C 61.23370361328125 180.12916564941406 38.23476791381836 175.35020446777344 22.570735931396484 158.51190185546875 C 30.882633209228516 159.1908721923828 38.22380065917969 154.8194580078125 47.5943489074707 147.68946838378906 C 48.61259460449219 150.46182250976562 50.93075180053711 154.17227172851562 56.73006057739258 154.7572479248047 C 64.84712219238281 163.5796661376953 76.99409484863281 163.33432006835938 87.0586929321289 161.90255737304688 C 92.08486938476562 158.58912658691406 94.723388671875 155.7015838623047 95.66048431396484 153.23556518554688 C 98.02316284179688 154.91798400878906 98.01469421386719 154.9431610107422 98.00363159179688 154.98583984375 L 100.0 155.0" stroke-width="1.0" fill="rgb(236, 118, 168)" opacity="1.0"/>
    <path d="M 62.43799591064453 180.95632934570312 C 47.236087799072266 181.36209106445312 30.930997848510742 173.75181579589844 17.824615478515625 161.7973175048828 C 15.92248821258545 159.14161682128906 17.29913902282715 164.22413635253906 16.98637580871582 155.193115234375 C 17.159330368041992 158.6329803466797 18.662633895874023 155.88609313964844 17.75946617126465 155.6962890625 C 26.339279174804688 150.20567321777344 35.32233810424805 147.81478881835938 40.57120895385742 142.94911193847656 C 47.106712341308594 143.12637329101562 49.28400802612305 142.9659881591797 46.39269256591797 146.92234802246094 C 48.86406707763672 151.14019775390625 49.521766662597656 156.51364135742188 45.29277038574219 152.7825469970703 C 39.50375747680664 154.88772583007812 34.29886245727539 156.6454620361328 29.345396041870117 160.0517120361328 C 44.11762619018555 172.2202606201172 63.724517822265625 176.02947998046875 78.60193634033203 168.69891357421875 C 86.9233169555664 165.22335815429688 92.77726745605469 158.25003051757812 98.33058166503906 155.19918823242188 C 100.31058502197266 152.849609375 103.20455169677734 149.511474609375 100.55278015136719 147.28854370117188 C 98.49610137939453 156.14002990722656 101.7426986694336 156.62530517578125 101.70612335205078 158.05157470703125 C 99.44304656982422 164.72006225585938 93.28386688232422 171.5100860595703 82.22538757324219 176.8407440185547 C 76.40351104736328 180.54566955566406 67.80701446533203 180.6644287109375 62.43799591064453 180.95632934570312" stroke-width="1.0" fill="rgb(0, 0, 0)" opacity="0.996005"/>
    <path d="M 179.1326904296875 159.09796142578125 C 160.08787536621094 178.9806671142578 139.8876953125 181.03082275390625 120.35480499267578 176.1127471923828 C 109.3846664428711 171.6310272216797 103.56990051269531 161.64231872558594 101.36467742919922 155.3524932861328 C 98.05619812011719 156.9545135498047 98.08795166015625 155.9767303466797 98.07054901123047 154.99179077148438 C 98.0 155.0 98.0 155.0 98.0 155.00074768066406 L 100.00193786621094 154.9996795654297 C 100.0031509399414 156.00021362304688 100.00521087646484 156.00083923339844 100.43936157226562 154.21542358398438 C 102.10260009765625 155.57614135742188 102.42222595214844 157.45797729492188 103.32134246826172 160.77334594726562 C 109.7732925415039 164.41488647460938 121.38939666748047 166.01268005371094 134.7416229248047 164.0879364013672 C 134.37948608398438 163.16934204101562 135.3975830078125 162.8553009033203 134.8173370361328 162.0235595703125 C 135.1422576904297 162.71641540527344 134.53701782226562 163.12818908691406 134.21961975097656 163.18072509765625 C 143.9189910888672 162.71385192871094 150.97593688964844 157.8324737548828 159.1562957763672 149.9629669189453 C 167.41307067871094 156.96755981445312 174.95130920410156 162.42816162109375 179.1326904296875 159.09796142578125" stroke-width="1.0" fill="rgb(236, 118, 168)" opacity="1.0"/>
    <path d="M 138.3764190673828 186.06060791015625 C 126.64678955078125 185.4961700439453 126.08099365234375 185.06878662109375 119.35704803466797 182.2248077392578 C 105.96088409423828 176.9739990234375 96.52377319335938 163.1026153564453 93.65535736083984 157.24087524414062 C 91.38727569580078 156.1119384765625 94.35293579101562 151.8863525390625 92.61384582519531 148.6262969970703 C 103.99166107177734 144.3492889404297 114.03636932373047 141.2619171142578 124.57352447509766 139.97030639648438 C 137.69033813476562 140.2906494140625 147.2493896484375 142.6509246826172 157.14491271972656 148.13941955566406 C 164.2245330810547 152.14358520507812 173.0817413330078 155.85972595214844 180.92898559570312 159.98110961914062 C 181.84645080566406 161.08900451660156 184.56809997558594 161.76271057128906 182.30899047851562 167.6461181640625 C 182.80201721191406 165.7532501220703 183.11383056640625 163.8079376220703 181.9150390625 166.88369750976562 C 170.2598876953125 180.15957641601562 153.9512939453125 185.62254333496094 138.3764190673828 186.06060791015625" stroke-width="1.0" fill="rgb(0, 0, 0)" opacity="0.99264085"/>
    <path d="M 100.00261688232422 154.98629760742188 C 100.00392150878906 156.00328063964844 100.0030517578125 156.00726318359375 98.95986938476562 156.1519012451172 C 98.90089416503906 156.23306274414062 97.88984680175781 156.1908416748047 97.94047546386719 155.05636596679688 L 100.00261688232422 154.98629760742188" stroke-width="1.0" fill="rgb(0, 0, 0)" opacity="1.0"/>
    <path d="M 169.7685546875 131.7169952392578 C 171.27951049804688 135.39501953125 158.8323211669922 157.0992431640625 135.38906860351562 161.05633544921875 C 135.53604125976562 162.20635986328125 135.90438842773438 161.91632080078125 134.955810546875 161.28005981445312 C 135.38458251953125 162.10337829589844 135.2118377685547 161.46261596679688 132.74069213867188 161.1997528076172 C 121.09343719482422 163.97328186035156 110.91414642333984 160.78976440429688 104.52794647216797 157.97036743164062 C 99.83358764648438 158.02484130859375 100.06494140625 155.66709899902344 98.1151123046875 151.7144775390625 C 93.70574951171875 152.9609832763672 89.59724426269531 153.66842651367188 84.04560852050781 155.2271728515625 C 77.47644805908203 155.5442352294922 67.7851333618164 154.21434020996094 53.213626861572266 156.99720764160156 C 31.1072940826416 145.85023498535156 21.093830108642578 118.50810241699219 23.453733444213867 103.43143463134766 C 24.44573402404785 82.10104370117188 35.09290313720703 69.42533111572266 40.95292663574219 67.69478607177734 C 40.799442291259766 62.92774963378906 40.294063568115234 57.86918640136719 47.139469146728516 54.93060302734375 C 64.0630874633789 36.096923828125 98.18014526367188 22.50226593017578 113.23408508300781 21.147974014282227 C 111.9388656616211 20.706039428710938 114.13585662841797 24.08304214477539 119.64105987548828 23.693836212158203 C 133.172119140625 30.89086151123047 153.56512451171875 45.45880126953125 168.57489013671875 70.36186218261719 C 171.6055908203125 84.15701293945312 186.27870178222656 114.80435943603516 169.7685546875 131.7169952392578" stroke-width="1.0" fill="rgb(237, 118, 169)" opacity="1.0"/>
    <path d="M 173.30828857421875 135.33212280273438 C 171.29281616210938 137.29864501953125 157.9232635498047 153.09478759765625 143.90457153320312 165.10118103027344 C 154.89547729492188 149.22552490234375 161.0072784423828 125.49913024902344 160.00125122070312 101.7550277709961 C 160.2631378173828 70.85090637207031 146.1103057861328 43.92091369628906 125.43693542480469 26.978309631347656 C 139.81936645507812 33.230133056640625 157.9798126220703 47.45378875732422 167.2139434814453 71.37454223632812 C 171.20826721191406 82.38862609863281 182.48609924316406 109.36315155029297 173.30828857421875 135.33212280273438" stroke-width="1.0" fill="rgb(231, 100, 134)" opacity="0.6836522"/>
    <path d="M 173.2574005126953 134.0773162841797 C 169.9478759765625 135.32479858398438 158.99581909179688 153.59434509277344 139.88059997558594 161.63250732421875 C 151.97633361816406 146.1497802734375 160.09237670898438 122.23954772949219 159.95790100097656 101.67972564697266 C 160.18690490722656 70.58760833740234 145.88746643066406 44.49964904785156 126.13621520996094 25.33372688293457 C 138.47569274902344 34.296661376953125 154.69789123535156 49.4244384765625 166.07383728027344 73.16670989990234 C 170.53054809570312 82.55169677734375 185.44337463378906 109.11077880859375 173.2574005126953 134.0773162841797" stroke-width="1.0" fill="rgb(237, 82, 96)" opacity="0.9021273"/>
    <path d="M 127.5653305053711 167.89561462402344 C 116.49588775634766 168.64566040039062 106.6998519897461 164.7353057861328 103.02434539794922 162.2672576904297 C 99.72203826904297 163.7677001953125 98.55198669433594 161.46600341796875 98.66703796386719 163.4232940673828 C 99.13355255126953 165.63600158691406 88.68194580078125 159.58737182617188 88.05728912353516 162.79827880859375 C 77.82007598876953 163.97677612304688 67.025634765625 165.0570068359375 53.161380767822266 159.06396484375 C 26.89215087890625 147.52859497070312 15.899296760559082 119.22496795654297 17.998064041137695 97.05485534667969 C 19.047386169433594 87.05050659179688 25.217147827148438 73.42142486572266 33.5875358581543 62.48809051513672 C 35.77971649169922 60.24283981323242 40.140140533447266 54.52377700805664 43.29535675048828 52.739376068115234 C 57.50590896606445 39.3452262878418 79.7360610961914 27.2445068359375 109.07852935791016 14.87432861328125 C 104.56327819824219 13.130769729614258 107.46305847167969 14.22730827331543 113.25464630126953 13.973798751831055 C 110.46660614013672 14.40618896484375 118.61558532714844 16.65005874633789 121.80390167236328 18.961868286132812 C 138.68711853027344 27.3961124420166 159.37515258789062 41.670719146728516 172.085205078125 69.13907623291016 C 176.72882080078125 80.39015197753906 191.0753936767578 108.15544128417969 176.94700622558594 136.01197814941406 C 174.90696716308594 139.03163146972656 163.96719360351562 160.99440002441406 138.5936737060547 166.7310791015625 C 143.04776000976562 166.83811950683594 143.87705993652344 166.00881958007812 135.68968200683594 167.0096435546875 C 131.51611328125 168.261474609375 126.18954467773438 167.47293090820312 127.5653305053711 167.89561462402344" stroke-width="1.0" fill="rgb(0, 0, 0)" opacity="0.99430645"/>
    <path d="M 66.57267761230469 73.44401550292969 C 62.33697509765625 74.13118743896484 61.92302322387695 74.60209655761719 59.97016906738281 72.81970977783203 C 57.570186614990234 69.90379333496094 58.96984100341797 69.96580505371094 59.63990020751953 67.3860855102539 C 66.90399932861328 60.993465423583984 76.18402862548828 54.20296096801758 86.80618286132812 48.161338806152344 C 89.16009521484375 46.219295501708984 91.44194030761719 49.003517150878906 92.86065673828125 48.868896484375 C 93.99742126464844 54.22160339355469 95.09972381591797 51.78993606567383 91.56531524658203 55.76225280761719 C 81.24676513671875 61.67694091796875 73.40650177001953 68.18318939208984 65.5105972290039 73.067626953125 C 67.01771545410156 74.95172882080078 63.15028762817383 73.28314971923828 66.57267761230469 73.44401550292969" stroke-width="1.0" fill="rgb(254, 253, 254)" opacity="0.99660474"/>
    <path d="M 113.39861297607422 45.788761138916016 C 112.78516387939453 47.356380462646484 108.73490142822266 42.42240524291992 109.30659484863281 44.08696365356445 C 108.65876770019531 33.75285720825195 107.89008331298828 32.50394058227539 107.91202545166016 28.718326568603516 C 106.76573944091797 25.42537498474121 106.93335723876953 21.510303497314453 106.4342269897461 19.090578079223633 C 107.3042221069336 19.06474494934082 109.64154815673828 17.57120132446289 111.41050720214844 16.847509384155273 C 110.46829986572266 15.835400581359863 112.75071716308594 16.54311180114746 115.24015808105469 18.6779727935791 C 118.0233154296875 16.754505157470703 117.06265258789062 20.687864303588867 116.79959106445312 27.11002540588379 C 117.1630630493164 34.50699234008789 118.5673599243164 40.588958740234375 117.37905883789062 42.820133209228516 C 119.76593780517578 41.47679138183594 114.9116439819336 45.58476257324219 113.58047485351562 45.42731475830078 C 110.46371459960938 40.35395812988281 115.87347412109375 43.811805725097656 113.39861297607422 45.788761138916016" stroke-width="1.0" fill="rgb(0, 0, 0)" opacity="0.99817556"/>
  </g>
</svg>
