<?xml version="1.0" encoding="utf-8" ?>
<svg baseProfile="tiny" height="200" version="1.2" viewBox="0 0 200 200" width="200" xmlns="http://www.w3.org/2000/svg" xmlns:ev="http://www.w3.org/2001/xml-events" xmlns:xlink="http://www.w3.org/1999/xlink"><defs /><path d="M 100.0,155.0 C 100.0,156.0 100.0,156.0 99.0,156.0 C 99.0,156.0 99.0,157.0 99.0,157.0 C 95.0,163.0 89.0,169.0 80.0,173.0 C 62.0,181.0 38.0,176.0 22.0,159.0 A 136.0,136.0 0.0 0,1 43.0,149.0 C 47.0,151.0 50.0,154.0 55.0,155.0 C 66.0,160.0 77.0,160.0 85.0,158.0 C 91.0,157.0 95.0,156.0 97.0,155.0 C 98.0,155.0 98.0,155.0 98.0,155.0 C 98.0,155.0 100.0,155.0 100.0,155.0" fill="#66bb55" /><path d="M 62.0,181.0 C 47.0,181.0 31.0,174.0 18.0,162.0 C 17.0,161.0 17.0,160.0 17.0,158.0 C 17.0,157.0 18.0,156.0 19.0,155.0 C 26.0,151.0 34.0,147.0 42.0,144.0 C 44.0,144.0 47.0,145.0 47.0,147.0 C 48.0,149.0 47.0,152.0 45.0,153.0 C 39.0,155.0 34.0,157.0 29.0,160.0 C 44.0,172.0 63.0,176.0 78.0,169.0 C 87.0,165.0 93.0,159.0 96.0,154.0 C 97.0,152.0 100.0,151.0 102.0,152.0 C 104.0,154.0 104.0,156.0 103.0,159.0 C 99.0,164.0 93.0,172.0 82.0,177.0 C 76.0,180.0 69.0,181.0 62.0,181.0" fill="#000000" /><path d="M 179.0,164.0 C 162.0,181.0 139.0,186.0 120.0,178.0 C 108.0,173.0 102.0,163.0 99.0,157.0 C 98.0,157.0 98.0,156.0 98.0,155.0 C 98.0,155.0 98.0,155.0 98.0,155.0 C 98.0,155.0 100.0,155.0 100.0,155.0 C 100.0,156.0 100.0,156.0 99.0,156.0 C 101.0,157.0 102.0,158.0 104.0,159.0 C 111.0,162.0 122.0,165.0 135.0,163.0 C 135.0,163.0 136.0,163.0 136.0,162.0 C 136.0,162.0 136.0,162.0 136.0,162.0 C 144.0,161.0 151.0,157.0 156.0,153.0 C 166.0,157.0 174.0,161.0 179.0,164.0" fill="#66bb55" /><path d="M 138.0,186.0 C 131.0,186.0 125.0,185.0 119.0,182.0 C 105.0,176.0 97.0,164.0 94.0,157.0 C 93.0,155.0 94.0,153.0 95.0,152.0 C 105.0,146.0 115.0,143.0 125.0,142.0 C 137.0,142.0 146.0,145.0 157.0,149.0 C 165.0,152.0 173.0,156.0 181.0,160.0 C 182.0,161.0 183.0,162.0 183.0,163.0 C 183.0,165.0 183.0,166.0 182.0,167.0 C 170.0,180.0 154.0,186.0 138.0,186.0 C 138.0,186.0 138.0,186.0 138.0,186.0 M 104.0,157.0 C 107.0,163.0 113.0,170.0 122.0,174.0 C 137.0,181.0 157.0,177.0 171.0,165.0 A 131.0,131.0 0.0 0,0 154.0,157.0 C 143.0,153.0 135.0,151.0 125.0,151.0 C 118.0,152.0 111.0,154.0 104.0,157.0" fill="#000000" /><path d="M 100.0,155.0 C 100.0,156.0 100.0,156.0 99.0,156.0 C 99.0,156.0 98.0,156.0 98.0,155.0 C 98.0,155.0 100.0,155.0 100.0,155.0" fill="#000000" /><path d="M 173.0,134.0 C 171.0,137.0 160.0,158.0 136.0,162.0 C 136.0,162.0 136.0,162.0 136.0,162.0 C 136.0,163.0 135.0,163.0 135.0,163.0 C 122.0,165.0 111.0,162.0 104.0,159.0 C 101.0,157.0 99.0,156.0 97.0,155.0 C 95.0,156.0 91.0,157.0 85.0,158.0 C 77.0,160.0 66.0,160.0 55.0,155.0 C 31.0,145.0 20.0,119.0 22.0,98.0 C 24.0,82.0 35.0,68.0 38.0,65.0 C 39.0,63.0 42.0,60.0 47.0,55.0 C 66.0,38.0 99.0,23.0 110.0,19.0 C 113.0,19.0 116.0,21.0 120.0,23.0 C 134.0,30.0 156.0,44.0 168.0,71.0 C 173.0,82.0 186.0,108.0 173.0,134.0" fill="#ee77aa" /><path d="M 173.0,134.0 C 171.0,137.0 161.0,156.0 140.0,162.0 C 152.0,145.0 160.0,124.0 160.0,101.0 C 160.0,71.0 146.0,44.0 126.0,26.0 C 139.0,34.0 158.0,48.0 168.0,71.0 C 173.0,82.0 186.0,109.0 173.0,134.0" fill="#ee77aa" /><path d="M 173.0,134.0 C 171.0,137.0 161.0,156.0 140.0,162.0 C 152.0,145.0 160.0,124.0 160.0,101.0 C 160.0,71.0 146.0,44.0 126.0,26.0 C 139.0,34.0 158.0,48.0 168.0,71.0 C 173.0,82.0 186.0,109.0 173.0,134.0" fill="#ee5566" /><path d="M 126.0,168.0 C 116.0,168.0 107.0,165.0 102.0,163.0 A 46.0,46.0 0.0 0,1 97.0,160.0 C 95.0,161.0 91.0,162.0 86.0,163.0 C 78.0,164.0 66.0,165.0 53.0,159.0 C 27.0,148.0 16.0,119.0 18.0,98.0 C 19.0,86.0 25.0,74.0 34.0,62.0 C 36.0,60.0 39.0,56.0 44.0,52.0 C 57.0,40.0 80.0,27.0 109.0,15.0 C 110.0,14.0 111.0,14.0 112.0,14.0 C 114.0,15.0 118.0,17.0 122.0,19.0 C 138.0,27.0 160.0,42.0 172.0,69.0 C 177.0,80.0 191.0,109.0 177.0,136.0 C 175.0,139.0 164.0,161.0 138.0,167.0 C 137.0,167.0 137.0,167.0 136.0,167.0 C 133.0,168.0 129.0,168.0 126.0,168.0 C 126.0,168.0 126.0,168.0 126.0,168.0 M 97.0,150.0 C 98.0,150.0 99.0,151.0 100.0,151.0 C 101.0,152.0 103.0,153.0 106.0,155.0 C 111.0,157.0 122.0,161.0 134.0,158.0 C 134.0,158.0 135.0,158.0 135.0,158.0 C 135.0,158.0 135.0,158.0 136.0,158.0 C 158.0,153.0 168.0,133.0 169.0,132.0 C 169.0,132.0 169.0,132.0 169.0,132.0 C 181.0,108.0 169.0,84.0 164.0,73.0 C 153.0,48.0 133.0,34.0 118.0,27.0 C 115.0,25.0 113.0,24.0 110.0,23.0 C 83.0,35.0 62.0,47.0 50.0,59.0 C 46.0,62.0 43.0,66.0 41.0,68.0 C 33.0,78.0 28.0,89.0 27.0,99.0 C 25.0,117.0 34.0,142.0 56.0,151.0 C 67.0,156.0 78.0,155.0 84.0,154.0 C 90.0,153.0 94.0,151.0 96.0,151.0 C 96.0,151.0 97.0,150.0 97.0,150.0" fill="#000000" /><path d="M 63.0,74.0 C 62.0,74.0 61.0,74.0 60.0,73.0 C 58.0,71.0 59.0,68.0 60.0,67.0 C 67.0,61.0 76.0,54.0 87.0,48.0 C 89.0,47.0 92.0,48.0 93.0,50.0 C 94.0,52.0 94.0,54.0 91.0,56.0 C 81.0,62.0 73.0,68.0 66.0,73.0 A 4.0,4.0 0.0 0,1 63.0,74.0" fill="#ffffff" /><path d="M 113.0,46.0 C 111.0,46.0 109.0,44.0 109.0,41.0 C 109.0,37.0 108.0,33.0 108.0,30.0 C 107.0,26.0 107.0,23.0 106.0,20.0 C 105.0,17.0 107.0,15.0 109.0,14.0 C 112.0,14.0 114.0,15.0 115.0,18.0 C 115.0,21.0 116.0,24.0 117.0,28.0 C 117.0,33.0 118.0,37.0 118.0,41.0 C 118.0,43.0 116.0,45.0 113.0,46.0 C 113.0,46.0 113.0,46.0 113.0,46.0" fill="#000000" /></svg>